<svg width="181" height="179" viewBox="0 0 181 179" fill="none" xmlns="http://www.w3.org/2000/svg">
<line x1="161.817" y1="0.695752" x2="180.265" y2="12.2259" stroke="#FFB500"/>
<line x1="161.817" y1="5.30781" x2="180.265" y2="16.838" stroke="#FFB500"/>
<line x1="161.817" y1="9.91975" x2="180.265" y2="21.4499" stroke="#FFB500"/>
<line x1="161.817" y1="14.5319" x2="180.265" y2="26.0621" stroke="#FFB500"/>
<line x1="161.817" y1="19.1439" x2="180.265" y2="30.674" stroke="#FFB500"/>
<line x1="161.817" y1="23.7561" x2="180.265" y2="35.2862" stroke="#FFB500"/>
<line x1="161.817" y1="28.3681" x2="180.265" y2="39.8983" stroke="#FFB500"/>
<line x1="161.817" y1="32.9802" x2="180.265" y2="44.5103" stroke="#FFB500"/>
<line x1="161.817" y1="37.5924" x2="180.265" y2="49.1225" stroke="#FFB500"/>
<line x1="161.817" y1="42.2043" x2="180.265" y2="53.7345" stroke="#FFB500"/>
<line x1="161.817" y1="46.8165" x2="180.265" y2="58.3466" stroke="#FFB500"/>
<line x1="161.817" y1="51.4285" x2="180.265" y2="62.9587" stroke="#FFB500"/>
<line x1="161.817" y1="56.0406" x2="180.265" y2="67.5708" stroke="#FFB500"/>
<line x1="161.817" y1="60.6527" x2="180.265" y2="72.1828" stroke="#FFB500"/>
<line x1="161.817" y1="65.2647" x2="180.265" y2="76.7949" stroke="#FFB500"/>
<line x1="161.817" y1="69.8768" x2="180.265" y2="81.4069" stroke="#FFB500"/>
<line x1="161.817" y1="74.4888" x2="180.265" y2="86.019" stroke="#FFB500"/>
<line x1="161.817" y1="79.1008" x2="180.265" y2="90.6309" stroke="#FFB500"/>
<line x1="161.817" y1="83.7128" x2="180.265" y2="95.243" stroke="#FFB500"/>
<line x1="161.817" y1="88.3249" x2="180.265" y2="99.8551" stroke="#FFB500"/>
<line x1="161.817" y1="92.937" x2="180.265" y2="104.467" stroke="#FFB500"/>
<line x1="161.817" y1="97.5491" x2="180.265" y2="109.079" stroke="#FFB500"/>
<line x1="161.817" y1="102.161" x2="180.265" y2="113.691" stroke="#FFB500"/>
<line x1="161.817" y1="106.773" x2="180.265" y2="118.303" stroke="#FFB500"/>
<line x1="161.817" y1="111.385" x2="180.265" y2="122.915" stroke="#FFB500"/>
<line x1="161.817" y1="115.997" x2="180.265" y2="127.528" stroke="#FFB500"/>
<line x1="161.817" y1="120.61" x2="180.265" y2="132.14" stroke="#FFB500"/>
<line x1="161.817" y1="125.222" x2="180.265" y2="136.752" stroke="#FFB500"/>
<line x1="161.817" y1="129.834" x2="180.265" y2="141.364" stroke="#FFB500"/>
<line x1="161.817" y1="134.446" x2="180.265" y2="145.976" stroke="#FFB500"/>
<line x1="161.817" y1="139.058" x2="180.265" y2="150.588" stroke="#FFB500"/>
<line x1="161.817" y1="143.67" x2="180.265" y2="155.2" stroke="#FFB500"/>
<line x1="161.817" y1="148.282" x2="180.265" y2="159.812" stroke="#FFB500"/>
<line x1="161.817" y1="152.894" x2="180.265" y2="164.424" stroke="#FFB500"/>
<line x1="161.817" y1="157.506" x2="180.265" y2="169.036" stroke="#FFB500"/>
<line x1="161.817" y1="162.118" x2="180.265" y2="173.648" stroke="#FFB500"/>
<line x1="159.517" y1="165.197" x2="177.778" y2="177.022" stroke="#FFB500"/>
<line x1="156.183" y1="166.734" x2="174.444" y2="178.559" stroke="#FFB500"/>
<line x1="150.22" y1="166.734" x2="168.481" y2="178.559" stroke="#FFB500"/>
<line x1="144.259" y1="166.734" x2="162.52" y2="178.559" stroke="#FFB500"/>
<line x1="138.297" y1="166.734" x2="156.558" y2="178.559" stroke="#FFB500"/>
<line x1="132.334" y1="166.734" x2="150.595" y2="178.559" stroke="#FFB500"/>
<line x1="126.372" y1="166.734" x2="144.633" y2="178.559" stroke="#FFB500"/>
<line x1="120.41" y1="166.734" x2="138.671" y2="178.559" stroke="#FFB500"/>
<line x1="114.448" y1="166.734" x2="132.709" y2="178.559" stroke="#FFB500"/>
<line x1="108.486" y1="166.734" x2="126.747" y2="178.559" stroke="#FFB500"/>
<line x1="102.524" y1="166.734" x2="120.785" y2="178.559" stroke="#FFB500"/>
<line x1="96.5623" y1="166.734" x2="114.823" y2="178.559" stroke="#FFB500"/>
<line x1="90.5999" y1="166.734" x2="108.861" y2="178.559" stroke="#FFB500"/>
<line x1="84.6385" y1="166.734" x2="102.899" y2="178.559" stroke="#FFB500"/>
<line x1="78.6761" y1="166.734" x2="96.937" y2="178.559" stroke="#FFB500"/>
<line x1="72.7137" y1="166.734" x2="90.9746" y2="178.559" stroke="#FFB500"/>
<line x1="66.7517" y1="166.734" x2="85.0127" y2="178.559" stroke="#FFB500"/>
<line x1="60.7903" y1="166.734" x2="79.0512" y2="178.559" stroke="#FFB500"/>
<line x1="54.8279" y1="166.734" x2="73.0888" y2="178.559" stroke="#FFB500"/>
<line x1="48.866" y1="166.734" x2="67.1269" y2="178.559" stroke="#FFB500"/>
<line x1="42.9041" y1="166.734" x2="61.165" y2="178.559" stroke="#FFB500"/>
<line x1="36.9417" y1="166.734" x2="55.2026" y2="178.559" stroke="#FFB500"/>
<line x1="30.9798" y1="166.734" x2="49.2407" y2="178.559" stroke="#FFB500"/>
<line x1="25.0174" y1="166.734" x2="43.2783" y2="178.559" stroke="#FFB500"/>
<line x1="19.0555" y1="166.734" x2="37.3164" y2="178.559" stroke="#FFB500"/>
<line x1="13.0935" y1="166.734" x2="31.3545" y2="178.559" stroke="#FFB500"/>
<line x1="7.13163" y1="166.734" x2="25.3925" y2="178.559" stroke="#FFB500"/>
<line x1="1.16972" y1="166.734" x2="19.4306" y2="178.559" stroke="#FFB500"/>
</svg>
