<svg width="621" height="225" viewBox="0 0 621 225" fill="none" xmlns="http://www.w3.org/2000/svg">
<path d="M105.28 138.766C105.28 138.394 105.466 138.209 105.84 138.209H112.931C113.305 138.209 113.491 138.394 113.491 138.766V142.663C113.491 147.24 112.289 150.539 109.883 152.56C107.478 154.581 103.953 155.591 99.3078 155.591C97.1513 155.591 95.1814 155.365 93.3981 154.911C91.6562 154.457 90.1633 153.736 88.9191 152.746C87.6749 151.715 86.7004 150.374 85.9953 148.725C85.3318 147.075 85 145.055 85 142.663V126.394C85 121.816 86.2234 118.537 88.6703 116.558C91.1171 114.578 94.663 113.589 99.3078 113.589C101.506 113.589 103.476 113.815 105.218 114.269C106.959 114.723 108.432 115.465 109.634 116.496C110.879 117.486 111.832 118.805 112.496 120.455C113.16 122.063 113.491 124.043 113.491 126.394V127.693C113.491 128.064 113.305 128.249 112.931 128.249H105.777C105.404 128.249 105.218 128.064 105.218 127.693V126.703C105.218 124.971 104.658 123.734 103.538 122.991C102.46 122.249 101.153 121.878 99.6189 121.878H98.8724C96.8817 121.878 95.4302 122.476 94.5178 123.672C94.0616 124.249 93.7506 124.93 93.5847 125.713C93.4188 126.497 93.3359 127.404 93.3359 128.435V140.683C93.3359 142.044 93.5018 143.158 93.8335 144.024C94.2068 144.848 94.6422 145.508 95.1399 146.003C95.679 146.457 96.2804 146.787 96.9439 146.993C97.6075 147.158 98.2503 147.24 98.8724 147.24H99.6189C101.651 147.24 103.123 146.642 104.036 145.446C104.865 144.292 105.28 142.704 105.28 140.683V138.766Z" fill="white"/>
<path d="M137.52 113.589C142.828 113.589 146.643 114.826 148.966 117.3C150.791 119.28 151.703 122.311 151.703 126.394V142.663C151.703 146.869 150.791 149.941 148.966 151.88C147.763 153.117 146.229 154.045 144.362 154.663C142.496 155.282 140.215 155.591 137.52 155.591C134.741 155.591 132.419 155.282 130.552 154.663C128.728 154.045 127.214 153.117 126.011 151.88C125.099 150.89 124.394 149.653 123.896 148.168C123.44 146.642 123.212 144.807 123.212 142.663V126.394C123.212 122.352 124.145 119.3 126.011 117.238C127.214 115.96 128.748 115.032 130.615 114.455C132.481 113.877 134.782 113.589 137.52 113.589ZM143.429 128.435C143.429 127.074 143.263 125.981 142.932 125.156C142.6 124.29 142.164 123.61 141.625 123.115C141.086 122.62 140.485 122.29 139.821 122.125C139.158 121.96 138.494 121.878 137.831 121.878H137.084C135.094 121.878 133.663 122.476 132.792 123.672C131.962 124.826 131.548 126.414 131.548 128.435V140.807C131.548 142.168 131.714 143.281 132.045 144.147C132.377 145.013 132.792 145.694 133.289 146.189C133.829 146.642 134.43 146.972 135.094 147.178C135.757 147.343 136.421 147.426 137.084 147.426H137.831C139.821 147.426 141.231 146.828 142.061 145.632C142.932 144.395 143.388 142.786 143.429 140.807V128.435Z" fill="white"/>
<path d="M196.936 114.145C197.309 114.145 197.495 114.331 197.495 114.702V154.416C197.495 154.787 197.309 154.973 196.936 154.973H190.155C190.072 154.973 189.968 154.931 189.844 154.849C189.719 154.725 189.657 154.581 189.657 154.416V131.528L182.814 154.602C182.69 154.849 182.524 154.973 182.317 154.973H177.402C177.112 154.973 176.946 154.849 176.905 154.602L170.497 131.095V154.416C170.497 154.787 170.311 154.973 169.937 154.973H163.032C162.742 154.973 162.597 154.787 162.597 154.416V114.702C162.597 114.331 162.742 114.145 163.032 114.145H171.741C172.032 114.145 172.218 114.269 172.301 114.517L179.828 139.57L188.102 114.517C188.102 114.269 188.247 114.145 188.537 114.145H196.936Z" fill="white"/>
<path d="M209.69 154.973C209.358 154.973 209.192 154.787 209.192 154.416V114.702C209.192 114.331 209.358 114.145 209.69 114.145H230.84C231.214 114.145 231.4 114.331 231.4 114.702V121.321C231.4 121.692 231.214 121.878 230.84 121.878H217.404V130.291H227.854C228.186 130.291 228.352 130.476 228.352 130.847V137.59C228.352 137.961 228.186 138.147 227.854 138.147H217.404V147.24H230.84C231.214 147.24 231.4 147.426 231.4 147.797V154.416C231.4 154.787 231.214 154.973 230.84 154.973H209.69Z" fill="white"/>
<path d="M262.777 121.878C262.404 121.878 262.218 121.692 262.218 121.321V114.702C262.218 114.331 262.404 114.145 262.777 114.145H288.718C289.091 114.145 289.278 114.331 289.278 114.702V121.321C289.278 121.692 289.091 121.878 288.718 121.878H279.885V154.416C279.885 154.787 279.698 154.973 279.325 154.973H272.171C271.798 154.973 271.611 154.787 271.611 154.416V121.878H262.777Z" fill="white"/>
<path d="M311.508 113.589C316.816 113.589 320.632 114.826 322.954 117.3C324.779 119.28 325.691 122.311 325.691 126.394V142.663C325.691 146.869 324.779 149.941 322.954 151.88C321.751 153.117 320.217 154.045 318.351 154.663C316.484 155.282 314.203 155.591 311.508 155.591C308.729 155.591 306.407 155.282 304.54 154.663C302.716 154.045 301.202 153.117 299.999 151.88C299.087 150.89 298.382 149.653 297.884 148.168C297.428 146.642 297.2 144.807 297.2 142.663V126.394C297.2 122.352 298.133 119.3 299.999 117.238C301.202 115.96 302.736 115.032 304.603 114.455C306.469 113.877 308.771 113.589 311.508 113.589ZM317.417 128.435C317.417 127.074 317.252 125.981 316.92 125.156C316.588 124.29 316.153 123.61 315.613 123.115C315.074 122.62 314.473 122.29 313.809 122.125C313.146 121.96 312.482 121.878 311.819 121.878H311.072C309.082 121.878 307.651 122.476 306.78 123.672C305.95 124.826 305.536 126.414 305.536 128.435V140.807C305.536 142.168 305.702 143.281 306.033 144.147C306.365 145.013 306.78 145.694 307.278 146.189C307.817 146.642 308.418 146.972 309.082 147.178C309.745 147.343 310.409 147.426 311.072 147.426H311.819C313.809 147.426 315.219 146.828 316.049 145.632C316.92 144.395 317.376 142.786 317.417 140.807V128.435Z" fill="white"/>
<path d="M349.462 140.126C349.089 140.126 348.902 139.941 348.902 139.57V132.951C348.902 132.58 349.089 132.394 349.462 132.394H363.708C364.081 132.394 364.267 132.58 364.267 132.951V142.663C364.267 147.24 363.065 150.539 360.659 152.56C358.254 154.581 354.729 155.591 350.084 155.591C347.927 155.591 345.958 155.365 344.174 154.911C342.432 154.457 340.939 153.736 339.695 152.746C338.451 151.715 337.477 150.374 336.771 148.725C336.108 147.075 335.776 145.055 335.776 142.663V126.394C335.776 121.898 337 118.64 339.446 116.62C341.893 114.599 345.439 113.589 350.084 113.589C352.241 113.589 354.19 113.815 355.932 114.269C357.715 114.723 359.208 115.465 360.411 116.496C361.655 117.486 362.609 118.805 363.272 120.455C363.936 122.063 364.267 124.043 364.267 126.394V127.693C364.267 128.064 364.081 128.249 363.708 128.249H356.554C356.18 128.249 355.994 128.064 355.994 127.693V126.888C355.994 124.991 355.455 123.692 354.376 122.991C353.298 122.249 351.971 121.878 350.395 121.878H349.649C347.658 121.878 346.206 122.476 345.294 123.672C344.838 124.249 344.527 124.93 344.361 125.713C344.195 126.497 344.112 127.404 344.112 128.435V140.683C344.112 142.044 344.278 143.158 344.61 144.024C344.941 144.848 345.356 145.508 345.854 146.003C346.393 146.457 346.994 146.787 347.658 146.993C348.321 147.158 348.985 147.24 349.649 147.24H350.395C352.303 147.24 353.713 146.642 354.625 145.446C355.538 144.25 355.994 142.663 355.994 140.683V140.126H349.462Z" fill="white"/>
<path d="M375.355 154.973C375.023 154.973 374.857 154.787 374.857 154.416V114.702C374.857 114.331 375.023 114.145 375.355 114.145H396.506C396.879 114.145 397.066 114.331 397.066 114.702V121.321C397.066 121.692 396.879 121.878 396.506 121.878H383.069V130.291H393.52C393.852 130.291 394.017 130.476 394.017 130.847V137.59C394.017 137.961 393.852 138.147 393.52 138.147H383.069V147.24H396.506C396.879 147.24 397.066 147.426 397.066 147.797V154.416C397.066 154.787 396.879 154.973 396.506 154.973H375.355Z" fill="white"/>
<path d="M405.176 121.878C404.802 121.878 404.616 121.692 404.616 121.321V114.702C404.616 114.331 404.802 114.145 405.176 114.145H431.116C431.49 114.145 431.676 114.331 431.676 114.702V121.321C431.676 121.692 431.49 121.878 431.116 121.878H422.283V154.416C422.283 154.787 422.096 154.973 421.723 154.973H414.569C414.196 154.973 414.009 154.787 414.009 154.416V121.878H405.176Z" fill="white"/>
<path d="M458.634 114.702C458.634 114.331 458.82 114.145 459.194 114.145H466.285C466.658 114.145 466.845 114.331 466.845 114.702V154.416C466.845 154.787 466.658 154.973 466.285 154.973H459.194C458.82 154.973 458.634 154.787 458.634 154.416V137.961H448.556V154.416C448.556 154.787 448.369 154.973 447.996 154.973H440.904C440.573 154.973 440.407 154.787 440.407 154.416V114.702C440.407 114.331 440.573 114.145 440.904 114.145H447.996C448.369 114.145 448.556 114.331 448.556 114.702V130.229H458.634V114.702Z" fill="white"/>
<path d="M478.995 154.973C478.663 154.973 478.497 154.787 478.497 154.416V114.702C478.497 114.331 478.663 114.145 478.995 114.145H500.145C500.519 114.145 500.705 114.331 500.705 114.702V121.321C500.705 121.692 500.519 121.878 500.145 121.878H486.708V130.291H497.159C497.491 130.291 497.657 130.476 497.657 130.847V137.59C497.657 137.961 497.491 138.147 497.159 138.147H486.708V147.24H500.145C500.519 147.24 500.705 147.426 500.705 147.797V154.416C500.705 154.787 500.519 154.973 500.145 154.973H478.995Z" fill="white"/>
<path d="M534.569 138.827C533.657 140.683 532.371 142.003 530.712 142.786L535.938 154.23C536.021 154.437 536.021 154.622 535.938 154.787C535.855 154.911 535.71 154.973 535.502 154.973H527.851C527.643 154.973 527.498 154.87 527.415 154.663L522.563 144.147H519.391V154.416C519.391 154.787 519.204 154.973 518.831 154.973H511.677C511.386 154.973 511.241 154.787 511.241 154.416V114.702C511.241 114.331 511.386 114.145 511.677 114.145H524.616C528.1 114.145 530.816 115.094 532.765 116.991C534.714 118.888 535.689 121.651 535.689 125.28V133.074C535.689 134.147 535.585 135.178 535.378 136.167C535.212 137.157 534.943 138.044 534.569 138.827ZM527.54 127.136C527.54 126.064 527.415 125.218 527.167 124.6C526.959 123.94 526.607 123.445 526.109 123.115C525.611 122.785 524.948 122.579 524.118 122.496C523.33 122.414 522.356 122.373 521.195 122.373H519.391V136.044H521.195C522.19 136.044 523.061 136.023 523.807 135.982C524.595 135.899 525.259 135.714 525.798 135.425C526.337 135.095 526.752 134.6 527.042 133.94C527.332 133.281 527.498 132.353 527.54 131.157V127.136Z" fill="white"/>
<path d="M190.392 183.143C190.6 183.143 190.745 183.205 190.828 183.328C190.952 183.452 190.973 183.617 190.89 183.823L180.19 223.599C180.107 223.846 179.921 223.97 179.63 223.97H172.787C172.539 223.97 172.352 223.846 172.228 223.599L167.997 207.948L162.274 223.661C162.191 223.867 162.046 223.97 161.839 223.97H155.245C154.954 223.97 154.789 223.846 154.747 223.599L144.11 183.761C144.027 183.349 144.213 183.143 144.669 183.143H151.823C152.031 183.143 152.176 183.266 152.259 183.514L159.164 209.742L164.327 194.216L161.466 183.823C161.383 183.617 161.403 183.452 161.528 183.328C161.652 183.205 161.797 183.143 161.963 183.143H169.677C169.926 183.143 170.092 183.266 170.175 183.514L175.898 208.753L182.741 183.514C182.824 183.266 182.99 183.143 183.238 183.143H190.392Z" fill="white"/>
<path d="M201.094 223.97C200.762 223.97 200.596 223.784 200.596 223.413V183.699C200.596 183.328 200.762 183.143 201.094 183.143H208.185C208.559 183.143 208.745 183.328 208.745 183.699V223.413C208.745 223.784 208.559 223.97 208.185 223.97H201.094Z" fill="white"/>
<path d="M217.792 190.875C217.419 190.875 217.232 190.69 217.232 190.318V183.699C217.232 183.328 217.419 183.143 217.792 183.143H243.733C244.106 183.143 244.293 183.328 244.293 183.699V190.318C244.293 190.69 244.106 190.875 243.733 190.875H234.899V223.413C234.899 223.784 234.713 223.97 234.339 223.97H227.185C226.812 223.97 226.626 223.784 226.626 223.413V190.875H217.792Z" fill="white"/>
<path d="M271.25 183.699C271.25 183.328 271.437 183.143 271.81 183.143H278.902C279.275 183.143 279.462 183.328 279.462 183.699V223.413C279.462 223.784 279.275 223.97 278.902 223.97H271.81C271.437 223.97 271.25 223.784 271.25 223.413V206.959H261.172V223.413C261.172 223.784 260.986 223.97 260.613 223.97H253.521C253.189 223.97 253.023 223.784 253.023 223.413V183.699C253.023 183.328 253.189 183.143 253.521 183.143H260.613C260.986 183.143 261.172 183.328 261.172 183.699V199.226H271.25V183.699Z" fill="white"/>
<path d="M328.378 198.917C329.539 199.494 330.762 200.154 332.048 200.896C333.333 201.597 334.515 202.443 335.594 203.433C336.672 204.422 337.543 205.536 338.206 206.773C338.911 208.01 339.264 209.433 339.264 211.041C339.264 211.495 339.222 212.052 339.14 212.712C339.098 213.371 338.994 214.093 338.828 214.877C338.663 215.619 338.414 216.403 338.082 217.227C337.792 218.011 337.398 218.774 336.9 219.516C334.619 222.898 330.99 224.589 326.014 224.589C324.687 224.589 323.339 224.424 321.97 224.094C320.602 223.764 319.295 223.269 318.051 222.609C316.848 221.908 315.77 221.042 314.816 220.011C313.862 218.98 313.137 217.743 312.639 216.299C312.556 216.093 312.618 215.928 312.826 215.805L318.549 210.918C318.88 210.67 319.15 210.711 319.357 211.041C319.44 211.206 319.523 211.413 319.606 211.66C319.731 211.866 319.876 212.134 320.042 212.464C320.498 213.413 321.244 214.299 322.281 215.124C323.318 215.908 324.458 216.299 325.703 216.299C326.2 216.299 326.698 216.238 327.196 216.114C327.735 215.949 328.232 215.722 328.689 215.433C329.145 215.103 329.518 214.691 329.808 214.196C330.099 213.66 330.244 213.021 330.244 212.279C330.244 211.577 330.016 210.938 329.559 210.361C329.145 209.784 328.606 209.289 327.942 208.876C327.32 208.423 326.636 208.051 325.889 207.763C325.184 207.433 324.521 207.144 323.899 206.897C322.488 206.319 321.078 205.68 319.668 204.979C318.3 204.237 317.014 203.33 315.812 202.257C313.282 199.907 312.017 197.226 312.017 194.216C312.017 192.277 312.411 190.586 313.199 189.143C314.028 187.7 315.106 186.504 316.434 185.555C317.761 184.565 319.254 183.823 320.913 183.328C322.571 182.833 324.251 182.586 325.951 182.586C331.301 182.586 335.283 185.349 337.895 190.875C338.02 191.164 337.958 191.391 337.709 191.556L332.172 195.391C331.965 195.515 331.757 195.453 331.55 195.205C330.472 193.679 329.435 192.566 328.44 191.865C327.444 191.123 326.325 190.751 325.081 190.751C324.749 190.751 324.334 190.793 323.836 190.875C323.339 190.958 322.862 191.102 322.406 191.308C321.949 191.514 321.555 191.803 321.224 192.174C320.892 192.504 320.726 192.958 320.726 193.535C320.726 194.236 320.996 194.855 321.535 195.391C322.115 195.927 322.8 196.422 323.588 196.876C324.417 197.288 325.267 197.659 326.138 197.989C327.009 198.319 327.755 198.628 328.378 198.917Z" fill="white"/>
<path d="M392.751 183.143C392.958 183.143 393.103 183.205 393.186 183.328C393.311 183.452 393.331 183.617 393.248 183.823L382.549 223.599C382.466 223.846 382.279 223.97 381.989 223.97H375.146C374.897 223.97 374.71 223.846 374.586 223.599L370.356 207.948L364.633 223.661C364.55 223.867 364.405 223.97 364.197 223.97H357.603C357.313 223.97 357.147 223.846 357.105 223.599L346.468 183.761C346.385 183.349 346.572 183.143 347.028 183.143H354.182C354.389 183.143 354.534 183.266 354.617 183.514L361.522 209.742L366.686 194.216L363.824 183.823C363.741 183.617 363.762 183.452 363.886 183.328C364.011 183.205 364.156 183.143 364.322 183.143H372.035C372.284 183.143 372.45 183.266 372.533 183.514L378.256 208.753L385.099 183.514C385.182 183.266 385.348 183.143 385.597 183.143H392.751Z" fill="white"/>
<path d="M403.452 223.97C403.12 223.97 402.954 223.784 402.954 223.413V183.699C402.954 183.328 403.12 183.143 403.452 183.143H410.544C410.917 183.143 411.104 183.328 411.104 183.699V223.413C411.104 223.784 410.917 223.97 410.544 223.97H403.452Z" fill="white"/>
<path d="M423.074 223.97C422.742 223.97 422.577 223.784 422.577 223.413V183.699C422.577 183.328 422.742 183.143 423.074 183.143H444.225C444.598 183.143 444.785 183.328 444.785 183.699V190.318C444.785 190.69 444.598 190.875 444.225 190.875H430.788V199.288H441.239C441.571 199.288 441.737 199.474 441.737 199.845V206.587C441.737 206.959 441.571 207.144 441.239 207.144H430.788V223.413C430.788 223.784 430.601 223.97 430.228 223.97H423.074Z" fill="white"/>
<path d="M451.072 190.875C450.699 190.875 450.512 190.69 450.512 190.318V183.699C450.512 183.328 450.699 183.143 451.072 183.143H477.013C477.386 183.143 477.573 183.328 477.573 183.699V190.318C477.573 190.69 477.386 190.875 477.013 190.875H468.179V223.413C468.179 223.784 467.993 223.97 467.62 223.97H460.466C460.092 223.97 459.906 223.784 459.906 223.413V190.875H451.072Z" fill="white"/>
<path d="M37.9778 28.2292L47.9244 34.9071V33.187L37.9778 26.6103V28.2292ZM61.1865 10.9274L71.1331 17.5041V15.8853L61.1865 9.20738V10.9274ZM61.1865 7.28496L71.1331 13.8617V12.2428L61.1865 5.5649V7.28496ZM71.1331 20.5395V19.5277L61.1865 12.8499V14.5699L70.2288 20.5395H71.1331ZM37.9778 61.0115L47.9244 67.6894V66.0705L37.9778 59.3927V61.0115ZM37.9778 50.0841L47.9244 56.762V55.1431L37.9778 48.4652V50.0841ZM37.9778 42.7991L47.9244 49.477V47.8581L37.9778 41.1803V42.7991ZM37.9778 53.7266L47.9244 60.4044V58.7856L37.9778 52.1077V53.7266ZM37.9778 35.5142L47.9244 42.1921V40.5732L37.9778 33.8953V35.5142ZM37.9778 24.5867L47.9244 31.2646V29.6457L37.9778 22.9679V24.5867ZM37.9778 39.1567L47.9244 45.8345V44.2157L37.9778 37.5378V39.1567ZM37.9778 17.3018L47.9244 23.9797V22.3608L37.9778 15.6829V17.3018ZM37.9778 20.9443L47.9244 27.6221V26.0033L37.9778 19.3254V20.9443ZM37.9778 46.4416L47.9244 53.1195V51.5006L37.9778 44.8227V46.4416ZM37.9778 71.939L47.9244 78.5157V76.8968L37.9778 70.3201V71.939ZM37.9778 68.2965L47.9244 74.8732V73.2543L37.9778 66.6776V68.2965ZM37.9778 31.8717L47.9244 38.5496V36.9307L37.9778 30.2528V31.8717ZM37.9778 64.654L47.9244 71.3319V69.713L37.9778 63.0351V64.654ZM37.9778 57.369L47.9244 64.0469V62.428L37.9778 55.7502V57.369ZM35.7675 74.1649L44.8098 80.1346H47.2211L37.9778 73.9626V74.1649H35.7675ZM55.7611 14.5699L64.8034 20.5395H67.2147L58.2729 14.5699H55.7611ZM50.3357 14.5699L59.2776 20.5395H61.7893L52.747 14.5699H50.3357ZM39.2839 14.5699L48.3263 20.5395H50.7376L41.7957 14.5699H39.2839ZM44.8098 14.5699L53.7517 20.5395H56.2635L47.2211 14.5699H44.8098ZM6.93248 14.5699L15.8743 20.5395H17.8837L8.8414 14.5699H6.93248ZM30.744 74.1649L39.6858 80.1346H41.9966L32.9543 74.1649H30.744ZM71.1331 9.1062L61.1865 2.42832V3.94602L71.1331 10.5227V9.1062ZM21.8021 20.5395V19.5277L14.3673 14.5699H11.8555L20.8979 20.5395H21.8021ZM35.2651 80.1346H37.375L28.4331 74.1649H26.3232L35.2651 80.1346ZM17.3814 14.5699L21.8021 17.5041V15.8853L19.8932 14.5699H17.3814ZM11.6546 20.5395H13.4631L4.52117 14.5699H2.71271L11.6546 20.5395ZM0 12.7487H23.6106V72.3437H36.1694V12.7487H59.378V1.21416H0V12.7487Z" fill="#FFB500"/>
<path d="M95.089 38.6508L105.337 45.4298L105.94 44.1145L95.6918 37.3354L95.089 38.6508ZM80.3199 72.4449L90.5678 79.3251L91.1707 78.0098L80.8222 71.2307L80.3199 72.4449ZM81.5255 69.713L91.8739 76.4921L92.3763 75.1767L82.1283 68.3977L81.5255 69.713ZM82.7311 66.88L93.0796 73.659L93.5819 72.3437L83.334 65.5646L82.7311 66.88ZM83.9368 64.0469L94.2852 70.826L94.7876 69.6118L84.5396 62.7316L83.9368 64.0469ZM85.2429 61.2139L95.4909 67.993L96.0937 66.7788L85.9462 59.9997H85.7452L85.2429 61.2139ZM77.3057 74.1649L86.3481 80.1346H88.7594L79.6166 74.0638V74.1649H77.3057ZM88.9603 59.9997L97.9022 65.9693H100.414L91.3716 59.9997H88.9603ZM94.3857 59.9997L103.428 65.9693H105.839L96.8975 59.9997H94.3857ZM99.9116 59.9997L108.853 65.9693H111.365L102.323 59.9997H99.9116ZM126.737 74.1649L135.679 80.1346H138.191L129.148 74.1649H126.737ZM71.8803 74.1649L80.8222 80.1346H83.334L74.2916 74.1649H71.8803ZM116.288 65.9693L116.087 65.4634L107.849 59.9997H105.337L114.379 65.9693H116.288ZM127.44 52.8159L135.98 58.482L134.875 56.0537L126.335 50.3876L127.44 52.8159ZM125.029 47.6558L133.569 53.3218L132.464 50.8935L123.924 45.2275L125.029 47.6558ZM132.163 74.1649L141.205 80.1346H143.616L134.574 74.1649H132.163ZM104.835 39.8649L96.8975 34.5024L96.2946 35.8177L105.839 42.0909C105.437 41.3826 105.136 40.5732 104.835 39.8649ZM137.086 73.7602L145.726 79.4263L144.621 77.0992L135.98 71.4331L137.086 73.7602ZM117.695 31.7705L126.436 37.5378L125.331 35.2106L116.59 29.4434L117.695 31.7705ZM132.163 63.2375L140.904 69.0047L139.798 66.6776L131.158 60.9103L132.163 63.2375ZM112.772 21.2478L121.513 27.0151L120.408 24.6879L111.667 18.8195L112.772 21.2478ZM107.849 10.7251L116.59 16.4923L115.485 14.1652L106.744 8.29676L107.849 10.7251ZM110.361 15.9864L119.101 21.7537L117.996 19.4266L109.255 13.5581L110.361 15.9864ZM120.207 37.0319L128.747 42.7991L127.742 40.472L119.101 34.7047L120.207 37.0319ZM129.852 58.0773L138.392 63.7434L137.387 61.4163L128.747 55.7502L129.852 58.0773ZM122.618 42.2932L131.158 48.0605L130.153 45.7333L121.513 39.9661L122.618 42.2932ZM115.284 26.5092L123.924 32.2764L122.919 29.9493L114.178 24.182L115.284 26.5092ZM134.674 68.4988L143.315 74.1649L142.21 71.939L133.569 66.1717L134.674 68.4988ZM93.8834 41.4838L101.218 46.3404H103.729L94.3857 40.1684L93.8834 41.4838ZM104.433 3.23776L105.437 5.36254L114.178 11.231L113.174 9.00502L104.433 3.23776ZM102.524 34.6036L98.1031 31.6693L97.6008 32.9847L103.529 36.9307L102.524 34.6036ZM95.7923 46.3404H98.304L93.1801 43.0015L92.5772 44.2157L95.7923 46.3404ZM110.863 59.9997L114.781 62.6304L113.776 60.4044L113.274 59.9997H110.863ZM100.313 29.5446L99.3087 28.9375L98.8064 30.1516L101.218 31.8717L100.313 29.5446ZM91.673 46.3404H92.7782L91.8739 45.8345L91.673 46.3404ZM121.111 72.3437H134.473L101.318 0.607078H98.505L65.3497 72.3437H78.4109L84.5396 58.1785H114.882L121.111 72.3437ZM99.7106 23.6761L110.461 48.1617H88.9603L99.7106 23.6761Z" fill="#FFB500"/>
<path d="M169.303 39.5614L179.249 46.1381V44.5192L169.303 37.9425V39.5614ZM169.303 68.7012L179.249 75.2779V73.659L169.303 67.0823V68.7012ZM169.303 72.3437L179.249 78.9204V77.3015L169.303 70.7248V72.3437ZM169.303 24.9915L179.249 31.5682V29.9493L169.303 23.3726V24.9915ZM169.303 10.4215L179.249 16.9982V15.3794L169.303 8.80266V10.4215ZM169.303 17.7065L179.249 24.2832V22.6643L169.303 16.0876V17.7065ZM169.303 14.064L179.249 20.6407V19.0218L169.303 12.4451V14.064ZM169.303 35.9189L179.249 42.4956V40.8767L169.303 34.3V35.9189ZM169.303 28.6339L179.249 35.2106V33.5918L169.303 27.0151V28.6339ZM169.303 54.1313L179.249 60.708V59.0891L169.303 52.5124V54.1313ZM169.303 50.4888L179.249 57.0655V55.4466L169.303 48.8699V50.4888ZM169.303 43.2038L179.249 49.7805V48.1617L169.303 41.585V43.2038ZM169.303 65.0587L179.249 71.6354V70.0165L169.303 63.4398V65.0587ZM169.303 32.2764L179.249 38.8531V37.2342L169.303 30.6575V32.2764ZM169.303 21.349L179.249 27.9257V26.3068L169.303 19.7301V21.349ZM169.303 6.77906L179.249 13.3558V12.0404L169.303 5.46372V6.77906ZM169.303 61.4163L179.249 67.993V66.3741L169.303 59.7974V61.4163ZM169.303 57.7738L179.249 64.3505V62.7316L169.303 56.1549V57.7738ZM169.303 46.8463L179.249 53.423V51.8041L169.303 45.2275V46.8463ZM161.868 74.1649L170.91 80.1346H172.819L163.878 74.1649H161.868ZM166.59 74.1649L175.532 80.1346H178.044L169.001 74.1649H166.59ZM179.249 9.1062L169.303 2.42832V3.94602L179.249 10.5227V9.1062ZM166.691 80.1346H168.499L159.457 74.1649H157.749L166.691 80.1346ZM155.036 72.3437H167.494V1.21416H155.036V72.3437Z" fill="#FFB500"/>
<path d="M211.1 29.0387L221.047 35.6154V33.9965L211.1 27.4198V29.0387ZM211.1 25.3962L221.047 31.9729V30.354L211.1 23.7773V25.3962ZM211.1 47.2511L221.047 53.8277V52.2089L211.1 45.6322V47.2511ZM211.1 21.7537L221.047 28.3304V26.7115L211.1 20.1348V21.7537ZM211.1 14.4687L221.047 21.0454V19.4266L211.1 12.8499V14.4687ZM211.1 10.8263L221.047 17.403V15.7841L211.1 9.20738V10.8263ZM211.1 7.18378L221.047 13.7605V12.1416L211.1 5.5649V7.18378ZM211.1 32.6811L221.047 39.2578V37.639L211.1 31.0623V32.6811ZM211.1 18.1112L221.047 24.6879V23.069L211.1 16.4923V18.1112ZM211.1 50.8935L221.047 57.4702V55.8513L211.1 49.2747V50.8935ZM211.1 43.6086L221.047 50.1853V48.5664L211.1 41.9897V43.6086ZM211.1 39.9661L221.047 46.5428V44.9239L211.1 38.3472V39.9661ZM211.1 36.3236L221.047 42.9003V41.2814L211.1 34.7047V36.3236ZM244.557 69.4095L254.503 75.9862V74.3673L244.557 67.8918V69.4095ZM244.557 65.767L254.503 72.3437V70.826L244.557 64.2493V65.767ZM244.557 73.0519L254.503 79.6287V78.0098L244.557 71.5342V73.0519ZM207.785 74.1649L216.727 80.1346H219.238L210.196 74.1649H207.785ZM229.687 74.1649L238.73 80.1346H241.141L232.199 74.1649H229.687ZM213.21 74.1649L222.252 80.1346H224.664L215.722 74.1649H213.21ZM202.259 74.1649L211.301 80.1346H213.712L204.771 74.1649H202.259ZM218.736 74.1649L227.778 80.1346H230.19L221.147 74.1649H218.736ZM240.739 74.1649L249.681 80.1346H252.092L243.15 74.1649H240.739ZM235.213 74.1649L244.255 80.1346H246.667L237.624 74.1649H235.213ZM224.262 74.1649L233.204 80.1346H235.615L226.673 74.1649H224.262ZM221.047 9.1062L211.1 2.42832V3.84484L221.047 10.4215V9.1062ZM211.1 54.536L217.832 58.9879H220.243L211.1 52.9171V54.536ZM211.1 56.5596V58.1785L212.406 58.9879H214.818L211.1 56.5596ZM196.833 72.3437H242.748V60.8092H209.292V1.21416H196.833V72.3437Z" fill="#FFB500"/>
<path d="M317.879 13.2546L328.027 20.0336L328.629 18.7183L318.381 11.9392L317.879 13.2546ZM289.647 25.5985L279.399 18.8195L278.294 19.8313L288.542 26.6103C288.843 26.2056 289.245 25.9021 289.647 25.5985ZM283.92 32.7823L273.572 25.9021L272.969 27.2174L283.317 33.9965L283.92 32.7823ZM285.427 30.1516L275.179 23.3726C274.878 23.6761 274.677 24.0808 274.375 24.4856L284.724 31.3658L285.427 30.1516ZM282.614 35.6154L272.466 28.8363C272.265 29.241 272.065 29.7469 271.964 30.1516L282.212 36.9307C282.413 36.526 282.513 36.0201 282.614 35.6154ZM331.644 75.3791L321.295 68.6C320.893 68.8024 320.491 69.1059 319.989 69.3083L330.237 76.0873L331.644 75.3791ZM287.336 27.8245L277.088 20.9443L276.184 21.9561L286.432 28.8363L287.336 27.8245ZM281.81 38.6508L271.562 31.8717L271.361 33.3894L281.509 40.0673L281.81 38.6508ZM295.273 22.1584L285.327 15.4805L283.82 16.1888L293.867 22.8667L295.273 22.1584ZM271.16 36.9307L281.107 43.5074C281.207 43.0015 281.207 42.4956 281.207 41.9897L271.16 35.3118V36.9307ZM328.428 76.8968L318.281 70.2189L316.874 70.826L327.022 77.5039L328.428 76.8968ZM334.457 73.659L324.209 66.88L323.003 67.6894L333.251 74.3673L334.457 73.659ZM292.259 23.7773L282.112 17.0994L280.805 17.8077L291.053 24.5867C291.455 24.2832 291.857 23.9797 292.259 23.7773ZM324.811 61.6186L334.758 68.1953V66.5764L324.811 59.8985V61.6186ZM324.811 50.6912L334.758 57.2679V55.649L324.811 48.9711V50.6912ZM324.811 57.9761L334.758 64.5528V62.9339L324.811 56.2561V57.9761ZM316.673 16.0876L326.921 22.8667L327.424 21.6525L317.176 14.8735L316.673 16.0876ZM319.085 10.4215L329.232 17.2006L329.735 15.8853L319.587 9.1062L319.085 10.4215ZM324.811 39.7637L334.758 46.3404V44.7216L324.811 38.1449V39.7637ZM324.811 46.9475L334.758 53.6254V52.0065L324.811 45.3286V46.9475ZM324.811 43.305L334.758 49.9829V48.364L324.811 41.6862V43.305ZM324.811 54.2325L334.758 60.9103V59.2915L324.811 52.6136V54.2325ZM271.462 40.6744L281.107 47.1499V45.4298L271.261 38.9543C271.261 39.5614 271.361 40.0673 271.462 40.6744ZM313.458 72.2425L323.505 78.8192L325.012 78.3133L314.965 71.6354L313.458 72.2425ZM317.276 80.4381L307.531 73.9626L305.722 74.3673L315.367 80.7416L317.276 80.4381ZM324.811 65.1599L334.758 71.8378V70.2189L324.811 63.6422V65.1599ZM321.295 79.4263L311.348 72.8496C310.846 73.0519 310.243 73.2543 309.741 73.3555L319.587 79.9322L321.295 79.4263ZM303.11 20.0336L293.666 13.7605C292.962 13.7605 292.259 13.8617 291.556 13.9628L301.1 20.3372L303.11 20.0336ZM298.79 20.8431L289.144 14.4687C288.542 14.5699 287.939 14.6711 287.336 14.8735L297.182 21.349L298.79 20.8431ZM312.856 81.0452L303.311 74.772L301.201 75.0755L310.545 81.2475L312.856 81.0452ZM272.466 45.0251L281.71 51.1971C281.509 50.59 281.408 49.8817 281.308 49.2747L271.864 43.0015L272.466 45.0251ZM307.732 81.3487L298.589 75.2779C297.785 75.2779 297.082 75.3791 296.278 75.3791L305.22 81.2475C306.024 81.3487 306.827 81.3487 307.732 81.3487ZM308.033 19.6289L299.292 13.8617C298.388 13.7605 297.484 13.6593 296.579 13.6593L305.622 19.7301C306.425 19.6289 307.229 19.6289 308.033 19.6289ZM309.138 54.0301V53.2207L301.402 48.0605H298.991L308.033 54.0301H309.138ZM275.481 50.6912L283.116 55.8513L282.313 53.6254L273.773 47.9593C274.275 48.8699 274.777 49.8817 275.481 50.6912ZM301.703 80.944L293.163 75.2779C292.259 75.2779 291.355 75.1767 290.451 75.0755L298.589 80.5393C299.593 80.7416 300.598 80.8428 301.703 80.944ZM302.909 54.0301H304.918L295.977 48.0605H293.967L302.909 54.0301ZM314.463 20.3372L307.832 15.8853L303.612 14.6711L311.348 19.8313L314.463 20.3372ZM330.639 13.6593C330.538 13.6593 330.438 13.6593 320.491 6.88024L320.089 7.79086L330.337 14.5699L330.639 13.6593ZM293.666 79.3251L286.532 74.5696C285.327 74.3673 284.121 74.1649 283.016 73.8614L287.537 76.8968C289.446 77.8074 291.556 78.718 293.666 79.3251ZM324.41 23.2714L316.071 17.7065L315.568 19.0218L319.386 21.5513C321.496 22.1584 323.204 22.8667 324.41 23.2714ZM304.517 48.0605L309.138 51.1971V49.477L306.928 48.0605H304.517ZM291.254 35.0083V46.2393H310.947V58.8867C307.129 60.3033 301.402 61.7198 294.871 61.7198C280.203 61.7198 269.352 51.1971 269.352 36.9307C269.352 22.3608 279.499 11.8381 296.077 11.8381C305.421 11.8381 314.564 16.4923 314.564 16.4923L318.884 5.76726C318.884 5.76726 309.741 0 293.967 0C273.069 0 255.889 16.1888 255.889 36.7283C255.889 57.7738 271.763 73.5579 295.675 73.5579C312.454 73.5579 323.003 65.4634 323.003 65.4634V35.0083H291.254Z" fill="#FFB500"/>
<path d="M368.832 38.6508L379.08 45.4298L379.683 44.1145L369.434 37.3354L368.832 38.6508ZM354.063 72.4449L364.31 79.3251L364.913 78.0098L354.565 71.2307L354.063 72.4449ZM355.268 69.713L365.617 76.4921L366.119 75.1767L355.871 68.3977L355.268 69.713ZM356.474 66.88L366.822 73.659L367.325 72.3437L357.077 65.5646L356.474 66.88ZM357.679 64.0469L368.028 70.826L368.53 69.6118L358.282 62.7316L357.679 64.0469ZM358.986 61.2139L369.234 67.993L369.836 66.7788L359.689 59.9997H359.488L358.986 61.2139ZM351.048 74.1649L360.091 80.1346H362.502L353.359 74.0638V74.1649H351.048ZM362.703 59.9997L371.645 65.9693H374.157L365.114 59.9997H362.703ZM368.128 59.9997L377.171 65.9693H379.582L370.64 59.9997H368.128ZM373.654 59.9997L382.596 65.9693H385.108L376.066 59.9997H373.654ZM400.48 74.1649L409.422 80.1346H411.934L402.891 74.1649H400.48ZM345.623 74.1649L354.565 80.1346H357.077L348.034 74.1649H345.623ZM390.031 65.9693L389.83 65.4634L381.591 59.9997H379.08L388.122 65.9693H390.031ZM401.183 52.8159L409.723 58.482L408.618 56.0537L400.078 50.3876L401.183 52.8159ZM398.772 47.6558L407.312 53.3218L406.207 50.8935L397.667 45.2275L398.772 47.6558ZM405.905 74.1649L414.948 80.1346H417.359L408.317 74.1649H405.905ZM378.577 39.8649L370.64 34.5024L370.037 35.8177L379.582 42.0909C379.18 41.3826 378.879 40.5732 378.577 39.8649ZM410.828 73.7602L419.469 79.4263L418.364 77.0992L409.723 71.4331L410.828 73.7602ZM391.438 31.7705L400.178 37.5378L399.073 35.2106L390.332 29.4434L391.438 31.7705ZM405.905 63.2375L414.646 69.0047L413.541 66.6776L404.901 60.9103L405.905 63.2375ZM386.514 21.2478L395.255 27.0151L394.15 24.6879L385.409 18.8195L386.514 21.2478ZM381.591 10.7251L390.332 16.4923L389.227 14.1652L380.486 8.29676L381.591 10.7251ZM384.103 15.9864L392.844 21.7537L391.739 19.4266L382.998 13.5581L384.103 15.9864ZM393.949 37.0319L402.489 42.7991L401.485 40.472L392.844 34.7047L393.949 37.0319ZM403.595 58.0773L412.134 63.7434L411.13 61.4163L402.489 55.7502L403.595 58.0773ZM396.361 42.2932L404.901 48.0605L403.896 45.7333L395.255 39.9661L396.361 42.2932ZM389.026 26.5092L397.667 32.2764L396.662 29.9493L387.921 24.182L389.026 26.5092ZM408.417 68.4988L417.058 74.1649L415.952 71.939L407.312 66.1717L408.417 68.4988ZM367.626 41.4838L374.96 46.3404H377.472L368.128 40.1684L367.626 41.4838ZM378.175 3.23776L379.18 5.36254L387.921 11.231L386.916 9.00502L378.175 3.23776ZM376.267 34.6036L371.846 31.6693L371.343 32.9847L377.271 36.9307L376.267 34.6036ZM369.535 46.3404H372.047L366.923 43.0015L366.32 44.2157L369.535 46.3404ZM384.606 59.9997L388.524 62.6304L387.519 60.4044L387.017 59.9997H384.606ZM374.056 29.5446L373.051 28.9375L372.549 30.1516L374.96 31.8717L374.056 29.5446ZM365.416 46.3404H366.521L365.617 45.8345L365.416 46.3404ZM394.854 72.3437H408.216L375.061 0.607078H372.248L339.092 72.3437H352.154L358.282 58.1785H388.624L394.854 72.3437ZM373.453 23.6761L384.204 48.1617H362.703L373.453 23.6761Z" fill="#FFB500"/>
<path d="M451.83 28.2292L461.776 34.9071V33.187L451.83 26.6103V28.2292ZM475.038 10.9274L484.985 17.5041V15.8853L475.038 9.20738V10.9274ZM475.038 7.28496L484.985 13.8617V12.2428L475.038 5.5649V7.28496ZM484.985 20.5395V19.5277L475.038 12.8499V14.5699L484.081 20.5395H484.985ZM451.83 61.0115L461.776 67.6894V66.0705L451.83 59.3927V61.0115ZM451.83 50.0841L461.776 56.762V55.1431L451.83 48.4652V50.0841ZM451.83 42.7991L461.776 49.477V47.8581L451.83 41.1803V42.7991ZM451.83 53.7266L461.776 60.4044V58.7856L451.83 52.1077V53.7266ZM451.83 35.5142L461.776 42.1921V40.5732L451.83 33.8953V35.5142ZM451.83 24.5867L461.776 31.2646V29.6457L451.83 22.9679V24.5867ZM451.83 39.1567L461.776 45.8345V44.2157L451.83 37.5378V39.1567ZM451.83 17.3018L461.776 23.9797V22.3608L451.83 15.6829V17.3018ZM451.83 20.9443L461.776 27.6221V26.0033L451.83 19.3254V20.9443ZM451.83 46.4416L461.776 53.1195V51.5006L451.83 44.8227V46.4416ZM451.83 71.939L461.776 78.5157V76.8968L451.83 70.3201V71.939ZM451.83 68.2965L461.776 74.8732V73.2543L451.83 66.6776V68.2965ZM451.83 31.8717L461.776 38.5496V36.9307L451.83 30.2528V31.8717ZM451.83 64.654L461.776 71.3319V69.713L451.83 63.0351V64.654ZM451.83 57.369L461.776 64.0469V62.428L451.83 55.7502V57.369ZM449.619 74.1649L458.662 80.1346H461.073L451.83 73.9626V74.1649H449.619ZM469.613 14.5699L478.655 20.5395H481.067L472.125 14.5699H469.613ZM464.188 14.5699L473.129 20.5395H475.641L466.599 14.5699H464.188ZM453.136 14.5699L462.178 20.5395H464.589L455.648 14.5699H453.136ZM458.662 14.5699L467.604 20.5395H470.115L461.073 14.5699H458.662ZM420.784 14.5699L429.726 20.5395H431.736L422.693 14.5699H420.784ZM444.596 74.1649L453.538 80.1346H455.849L446.806 74.1649H444.596ZM484.985 9.1062L475.038 2.42832V3.94602L484.985 10.5227V9.1062ZM435.654 20.5395V19.5277L428.219 14.5699H425.707L434.75 20.5395H435.654ZM449.117 80.1346H451.227L442.285 74.1649H440.175L449.117 80.1346ZM431.233 14.5699L435.654 17.5041V15.8853L433.745 14.5699H431.233ZM425.506 20.5395H427.315L418.373 14.5699H416.565L425.506 20.5395ZM413.852 12.7487H437.462V72.3437H450.021V12.7487H473.23V1.21416H413.852V12.7487Z" fill="#FFB500"/>
<path d="M493.633 72.3437H539.548V60.8092H506.092V43.8109H536.434V32.6811H506.092V12.7487H539.548V1.21416H493.633V72.3437ZM507.9 47.0487L517.847 53.6254V52.0065L508.302 45.6322H507.9V47.0487ZM507.9 50.6912L517.847 57.2679V55.649L507.9 49.0723V50.6912ZM541.357 69.2071L551.303 75.7838V74.1649L541.357 67.5882V69.2071ZM541.357 65.5646L551.303 72.2425V70.6236L541.357 63.9457V65.5646ZM541.357 10.9274L551.303 17.6053V15.9864L541.357 9.30856V10.9274ZM538.242 41.6862L548.189 48.2629V46.644L538.242 40.0673V41.6862ZM507.9 21.5513L517.847 28.128V26.5092L507.9 19.9325V21.5513ZM507.9 17.9089L517.847 24.4856V22.8667L507.9 16.29V17.9089ZM541.357 7.28496L551.303 13.9628V12.344L541.357 5.66608V7.28496ZM541.357 72.8496L551.303 79.4263V77.8074L541.357 71.2307V72.8496ZM548.189 51.6018V50.2864L538.242 43.7097V45.3286L547.787 51.6018H548.189ZM551.303 20.5395V19.6289L541.357 12.951V14.5699L550.299 20.5395H551.303ZM517.847 30.8599V30.1516L507.9 23.5749V25.1938L516.44 30.8599H517.847ZM551.303 9.1062L541.357 2.42832V3.94602L551.303 10.6239V9.1062ZM522.267 45.6322L531.209 51.6018H533.721L524.779 45.6322H522.267ZM499.36 74.1649L508.402 80.1346H510.914L501.872 74.1649H499.36ZM517.847 20.5395H519.856L510.914 14.5699H508.402L517.847 20.8431V20.5395ZM513.928 14.5699L522.87 20.5395H525.382L516.34 14.5699H513.928ZM526.889 74.1649L535.831 80.1346H538.343L529.3 74.1649H526.889ZM519.354 14.5699L528.396 20.5395H530.807L521.865 14.5699H519.354ZM511.316 45.6322L520.258 51.6018H522.77L513.727 45.6322H511.316ZM521.363 74.1649L530.305 80.1346H532.817L523.774 74.1649H521.363ZM530.305 14.5699L539.347 20.5395H541.759L532.817 14.5699H530.305ZM532.314 74.1649L541.357 80.1346H543.768L534.826 74.1649H532.314ZM510.412 74.1649L519.354 80.1346H521.865L512.823 74.1649H510.412ZM537.84 74.1649L546.782 80.1346H549.294L540.252 74.1649H537.84ZM504.886 74.1649L513.928 80.1346H516.34L507.398 74.1649H504.886ZM515.837 74.1649L524.88 80.1346H527.291L518.349 74.1649H515.837ZM524.88 14.5699L533.821 20.5395H536.333L527.291 14.5699H524.88ZM527.793 45.6322L536.735 51.6018H539.247L530.205 45.6322H527.793ZM516.741 45.6322L525.784 51.6018H528.195L519.253 45.6322H516.741ZM533.219 45.6322L542.261 51.6018H544.672L535.73 45.6322H533.219ZM548.189 40.5732L538.242 33.8953V35.413L548.189 41.9897V40.5732ZM535.831 14.5699L544.873 20.5395H547.284L538.242 14.5699H535.831ZM538.242 38.4484L548.189 45.0251V43.6086L538.242 37.0319V38.4484ZM507.9 54.3337L514.933 58.9879H517.445L507.9 52.7148V54.3337ZM507.9 28.8363L511.015 30.8599H513.426L507.9 27.2174V28.8363ZM507.9 56.3573V57.9761L509.508 58.9879H511.919L507.9 56.3573ZM505.288 80.1346H505.388L496.446 74.1649H496.346L505.288 80.1346Z" fill="#FFB500"/>
<path d="M609.245 53.1195C609.245 43.8109 604.724 37.5378 588.95 31.3658C579.003 27.7233 575.185 24.8903 575.185 20.3372C575.185 15.3794 578.601 11.231 586.036 11.231C591.462 11.231 597.691 13.6593 601.81 15.9864L605.829 4.85664C601.308 2.22596 593.873 0 586.338 0C571.267 0 562.627 9.91564 562.627 20.6407C562.627 29.1398 567.349 35.7165 581.113 40.7755C593.873 45.531 596.485 48.364 596.485 53.1195C596.485 57.6726 592.667 61.821 584.328 61.821C577.999 61.821 570.966 59.3927 565.138 55.4466L560.818 66.7788C567.248 70.7248 575.587 73.5579 583.926 73.5579C599.7 73.5579 609.245 65.767 609.245 53.1195ZM587.543 24.7891L577.295 18.01L576.994 19.5277L587.141 26.2056C587.242 25.6997 587.342 25.295 587.543 24.7891ZM607.537 65.2611L617.885 72.1413L618.589 70.9272L608.341 64.1481C608.039 64.5528 607.838 64.9576 607.537 65.2611ZM604.925 12.5463L615.173 19.3254C615.374 18.9207 615.575 18.4148 615.675 18.01L605.427 11.231L604.925 12.5463ZM609.044 62.6304L619.392 69.4095L619.895 68.1953L609.647 61.3151L609.044 62.6304ZM589.151 22.2596L578.903 15.4805L577.999 16.4923L588.347 23.3726C588.548 22.9679 588.849 22.6643 589.151 22.2596ZM614.57 20.9443L604.322 14.1652L603.92 15.4805L614.068 22.2596C614.268 21.7537 614.469 21.349 614.57 20.9443ZM605.728 67.6894L615.976 74.3673L616.881 73.3555L606.633 66.6776L605.728 67.6894ZM620.698 57.7738L610.953 51.2983C611.053 51.9053 611.053 52.4112 611.053 53.0183L620.899 59.595C620.899 58.9879 620.799 58.3808 620.698 57.7738ZM620.598 65.0587L610.551 58.2797C610.451 58.7856 610.35 59.2915 610.149 59.6962L620.397 66.4752L620.598 65.0587ZM603.418 69.8142L613.565 76.4921L614.67 75.5815L604.422 68.9036L603.418 69.8142ZM597.389 73.0519L607.336 79.6287L608.943 79.0216L598.896 72.4449L597.389 73.0519ZM591.763 20.3372L581.716 13.7605L580.309 14.3676L590.457 21.1466L591.763 20.3372ZM593.672 74.2661L603.317 80.6404C604.02 80.5393 604.623 80.4381 605.226 80.2357L595.38 73.7602L593.672 74.2661ZM616.78 15.177L606.432 8.29676L606.03 9.6121L616.278 16.3912C616.479 15.9864 616.68 15.5817 616.78 15.177ZM610.852 56.4584L620.899 63.1363C621 62.6304 621 62.1245 621 61.6186L610.953 54.9407C610.953 55.4466 610.852 55.9525 610.852 56.4584ZM600.604 71.5342L610.752 78.2121L612.058 77.5039L601.911 70.826C601.509 71.0283 601.107 71.3319 600.604 71.5342ZM595.48 19.2242L586.237 13.0522H586.036C585.333 13.0522 584.63 13.1534 584.027 13.2546L593.672 19.6289C594.275 19.4266 594.878 19.3254 595.48 19.2242ZM589.452 74.9744L598.796 81.2475L600.906 81.0452L591.462 74.772L589.452 74.9744ZM619.091 53.1195L610.35 47.2511L610.752 49.1735L620.096 55.3455C619.794 54.6372 619.493 53.8277 619.091 53.1195ZM584.429 75.3791L593.371 81.2475C594.174 81.2475 595.079 81.3487 595.882 81.3487L586.74 75.2779C586.036 75.2779 585.232 75.3791 584.429 75.3791ZM617.684 12.6475L607.336 5.86844L606.934 6.88024L617.283 13.7605C617.484 13.4569 617.584 13.0522 617.684 12.6475ZM586.94 28.7351V28.128L577.094 21.5513C577.396 22.5631 577.898 23.3726 578.702 24.2832L582.821 27.0151C584.027 27.521 585.333 28.128 586.94 28.7351ZM578.3 74.8732L586.036 80.0334C587.242 80.3369 588.448 80.5393 589.653 80.7416L581.314 75.2779C580.309 75.1767 579.305 75.0755 578.3 74.8732ZM601.107 19.2242L594.375 14.7723C592.868 14.2664 591.361 13.8617 589.955 13.5581L598.294 19.0218C599.198 19.0218 600.102 19.123 601.107 19.2242ZM610.953 22.2596L603.317 17.0994L602.815 18.4148L605.427 20.1348C607.436 20.7419 609.245 21.4502 610.953 22.2596ZM571.167 73.2543L573.276 74.6708C575.386 75.9862 577.597 77.0992 580.008 78.111L573.98 74.0638L571.167 73.2543ZM611.556 45.2275L608.943 43.5074C609.144 43.9121 609.245 44.3168 609.446 44.6204L616.278 49.1735C614.972 47.8581 613.465 46.5428 611.556 45.2275Z" fill="#FFB500"/>
<path d="M0 12.7089H23.6221V72.118H36.187V12.7089H59.407V1.21037H0V12.7089Z" fill="white"/>
<path d="M84.5809 57.997H114.938L121.17 72.118H134.539L101.368 0.605184H98.5531L65.3816 72.118H78.4492L84.5809 57.997ZM99.7593 23.6023L110.515 48.0115H89.0038L99.7593 23.6023Z" fill="white"/>
<path d="M155.112 72.118H167.576V1.21037H155.112V72.118Z" fill="white"/>
<path d="M196.929 72.118H242.867V60.6195H209.394V1.21037H196.929V72.118Z" fill="white"/>
<path d="M291.397 34.8991V46.095H311.098V58.7031C307.279 60.1152 301.549 61.5273 295.015 61.5273C280.339 61.5273 269.483 51.0374 269.483 36.8155C269.483 22.291 279.636 11.8011 296.222 11.8011C305.57 11.8011 314.717 16.4409 314.717 16.4409L319.039 5.74927C319.039 5.74927 309.892 0 294.111 0C273.203 0 256.014 16.1383 256.014 36.6138C256.014 57.5936 271.896 73.3284 295.819 73.3284C312.606 73.3284 323.161 65.2593 323.161 65.2593V34.8991H291.397Z" fill="white"/>
<path d="M358.457 57.997H388.814L395.046 72.118H408.415L375.244 0.605184H372.429L339.258 72.118H352.326L358.457 57.997ZM373.636 23.6023L384.391 48.0115H362.88L373.636 23.6023Z" fill="white"/>
<path d="M414.054 12.7089H437.676V72.118H450.241V12.7089H473.461V1.21037H414.054V12.7089Z" fill="white"/>
<path d="M493.874 72.118H539.812V60.6195H506.339V43.6743H536.696V32.5792H506.339V12.7089H539.812V1.21037H493.874V72.118Z" fill="white"/>
<path d="M609.542 52.9538C609.542 43.6743 605.019 37.4207 589.237 31.268C579.286 27.6368 575.466 24.8126 575.466 20.2737C575.466 15.3314 578.884 11.1959 586.322 11.1959C591.75 11.1959 597.983 13.6167 602.104 15.9366L606.125 4.84149C601.601 2.21902 594.163 0 586.624 0C571.546 0 562.901 9.88471 562.901 20.5763C562.901 29.0489 567.626 35.6051 581.397 40.6483C594.163 45.389 596.776 48.2132 596.776 52.9538C596.776 57.4927 592.957 61.6281 584.614 61.6281C578.281 61.6281 571.244 59.2074 565.414 55.2737L561.092 66.5705C567.525 70.5042 575.868 73.3284 584.211 73.3284C599.993 73.3284 609.542 65.5619 609.542 52.9538Z" fill="white"/>
</svg>
