<svg width="622" height="341" viewBox="0 0 622 341" fill="none" xmlns="http://www.w3.org/2000/svg">
<rect class="tws-team-b-fill" x="309" width="313" height="341" fill="#73000A"/>
<rect class="tws-team-a-fill" width="309" height="341" fill="#2C2A29"/>
<mask id="mask0_579_396" style="mask-type:alpha" maskUnits="userSpaceOnUse" x="16" y="19" width="591" height="302">
<mask id="path-3-inside-1_579_396" fill="white">
<path fill-rule="evenodd" clip-rule="evenodd" d="M18.0374 25.6015C17.3915 25.9158 16.6992 26.0777 16 26.0777V32.3335C17.4121 32.3336 18.7663 32.9926 19.7648 34.1658C20.7633 35.339 21.3242 36.9301 21.3242 38.5892C21.3242 40.2483 20.7633 41.8395 19.7648 43.0127C18.7663 44.1858 17.4121 44.8449 16 44.8449V51.1006C17.4121 51.1006 18.7663 51.7597 19.7648 52.9328C20.7633 54.106 21.3242 55.6972 21.3242 57.3563C21.3242 59.0154 20.7633 60.6066 19.7648 61.7797C18.7663 62.9529 17.4121 63.6119 16 63.612V69.8675C17.4121 69.8675 18.7663 70.5266 19.7648 71.6997C20.7633 72.8729 21.3242 74.464 21.3242 76.1232C21.3242 77.7823 20.7633 79.3734 19.7648 80.5466C18.7663 81.7197 17.4121 82.3788 16 82.3788V88.6347C17.4121 88.6347 18.7663 89.2938 19.7648 90.467C20.7633 91.6401 21.3242 93.2313 21.3242 94.8904C21.3242 96.5495 20.7633 98.1407 19.7648 99.3138C18.7663 100.487 17.4121 101.146 16 101.146V107.402C17.4121 107.402 18.7663 108.061 19.7648 109.234C20.7633 110.407 21.3242 111.998 21.3242 113.657C21.3242 115.317 20.7633 116.908 19.7648 118.081C18.7663 119.254 17.4121 119.913 16 119.913V220.004C17.4121 220.004 18.7663 220.663 19.7648 221.836C20.7633 223.01 21.3242 224.601 21.3242 226.26C21.3242 227.919 20.7633 229.51 19.7648 230.683C18.7663 231.856 17.4121 232.515 16 232.516V238.771C17.4121 238.771 18.7663 239.43 19.7648 240.603C20.7633 241.777 21.3242 243.368 21.3242 245.027C21.3242 246.686 20.7633 248.277 19.7648 249.45C18.7663 250.623 17.4121 251.283 16 251.283V257.538C17.4121 257.538 18.7663 258.197 19.7648 259.371C20.7633 260.544 21.3242 262.135 21.3242 263.794C21.3242 265.453 20.7633 267.044 19.7648 268.217C18.7663 269.391 17.4121 270.05 16 270.05V276.305C17.4121 276.305 18.7663 276.964 19.7648 278.138C20.7633 279.311 21.3242 280.902 21.3242 282.561C21.3242 284.22 20.7633 285.811 19.7648 286.984C18.7663 288.158 17.4121 288.817 16 288.817V295.072C17.4121 295.072 18.7663 295.732 19.7648 296.905C20.7633 298.078 21.3242 299.669 21.3242 301.328C21.3242 302.987 20.7633 304.578 19.7648 305.752C18.7663 306.925 17.4121 307.584 16 307.584V313.839C16.6992 313.839 17.3915 314.001 18.0374 314.316C18.6834 314.63 19.2704 315.091 19.7648 315.672C20.2592 316.253 20.6514 316.942 20.9189 317.701C21.1865 318.46 21.3242 319.274 21.3242 320.095H601.676C601.676 319.274 601.813 318.46 602.081 317.701C602.349 316.942 602.741 316.253 603.235 315.672C603.73 315.091 604.317 314.63 604.963 314.316C605.609 314.001 606.301 313.839 607 313.839V307.584C605.588 307.584 604.234 306.925 603.235 305.752C602.237 304.578 601.676 302.987 601.676 301.328C601.676 299.669 602.237 298.078 603.235 296.905C604.234 295.731 605.588 295.072 607 295.072V288.817C605.588 288.817 604.234 288.158 603.235 286.984C602.237 285.811 601.676 284.22 601.676 282.561C601.676 280.902 602.237 279.311 603.235 278.138C604.234 276.964 605.588 276.305 607 276.305V270.05C605.588 270.05 604.234 269.391 603.235 268.217C602.237 267.044 601.676 265.453 601.676 263.794C601.676 262.135 602.237 260.544 603.235 259.371C604.234 258.197 605.588 257.538 607 257.538V251.283C605.588 251.283 604.234 250.623 603.235 249.45C602.237 248.277 601.676 246.686 601.676 245.027C601.676 243.368 602.237 241.777 603.235 240.603C604.234 239.43 605.588 238.771 607 238.771V232.516C605.588 232.516 604.234 231.856 603.235 230.683C602.237 229.51 601.676 227.919 601.676 226.26C601.676 224.601 602.237 223.01 603.235 221.836C604.234 220.663 605.588 220.004 607 220.004V194.981H607V201.237C599.939 201.237 593.168 197.942 588.175 192.076C583.183 186.21 580.378 178.254 580.378 169.959C580.378 161.663 583.183 153.707 588.175 147.842C593.168 141.976 599.939 138.68 607 138.68V169.959V182.47H607V119.913C605.588 119.913 604.234 119.254 603.235 118.081C602.237 116.908 601.676 115.317 601.676 113.657C601.676 111.998 602.237 110.407 603.235 109.234C604.234 108.061 605.588 107.402 607 107.402V101.146C605.588 101.146 604.234 100.487 603.235 99.3138C602.237 98.1407 601.676 96.5495 601.676 94.8904C601.676 93.2313 602.237 91.6401 603.235 90.467C604.234 89.2938 605.588 88.6347 607 88.6347V82.379C605.588 82.379 604.234 81.72 603.235 80.5468C602.237 79.3736 601.676 77.7825 601.676 76.1233C601.676 74.4642 602.237 72.8731 603.235 71.6999C604.234 70.5267 605.588 69.8677 607 69.8677V63.612C605.588 63.612 604.234 62.9529 603.235 61.7797C602.237 60.6066 601.676 59.0154 601.676 57.3563C601.676 55.6972 602.237 54.106 603.235 52.9328C604.234 51.7597 605.588 51.1006 607 51.1006V44.8449C605.588 44.8449 604.234 44.1858 603.235 43.0127C602.237 41.8395 601.676 40.2483 601.676 38.5892C601.676 36.9301 602.237 35.339 603.235 34.1658C604.234 32.9926 605.588 32.3335 607 32.3335V26.0779C606.301 26.0779 605.609 25.916 604.963 25.6017C604.317 25.2873 603.73 24.8265 603.235 24.2456C602.741 23.6647 602.349 22.9751 602.081 22.2161C601.813 21.4571 601.676 20.6437 601.676 19.8222L607 19.8222L607 19.822H21.3242C21.3242 20.6435 21.1865 21.457 20.9189 22.2159C20.6514 22.9749 20.2592 23.6645 19.7648 24.2454C19.2704 24.8263 18.6834 25.2871 18.0374 25.6015ZM16.0005 201.237C23.0609 201.237 29.8323 197.942 34.8248 192.076C39.8173 186.21 42.6221 178.254 42.6221 169.959C42.6221 161.663 39.8173 153.707 34.8248 147.842C29.8323 141.976 23.0609 138.68 16.0005 138.68L16.0005 169.959L16.0005 201.237Z"/>
</mask>
<path fill-rule="evenodd" clip-rule="evenodd" d="M18.0374 25.6015C17.3915 25.9158 16.6992 26.0777 16 26.0777V32.3335C17.4121 32.3336 18.7663 32.9926 19.7648 34.1658C20.7633 35.339 21.3242 36.9301 21.3242 38.5892C21.3242 40.2483 20.7633 41.8395 19.7648 43.0127C18.7663 44.1858 17.4121 44.8449 16 44.8449V51.1006C17.4121 51.1006 18.7663 51.7597 19.7648 52.9328C20.7633 54.106 21.3242 55.6972 21.3242 57.3563C21.3242 59.0154 20.7633 60.6066 19.7648 61.7797C18.7663 62.9529 17.4121 63.6119 16 63.612V69.8675C17.4121 69.8675 18.7663 70.5266 19.7648 71.6997C20.7633 72.8729 21.3242 74.464 21.3242 76.1232C21.3242 77.7823 20.7633 79.3734 19.7648 80.5466C18.7663 81.7197 17.4121 82.3788 16 82.3788V88.6347C17.4121 88.6347 18.7663 89.2938 19.7648 90.467C20.7633 91.6401 21.3242 93.2313 21.3242 94.8904C21.3242 96.5495 20.7633 98.1407 19.7648 99.3138C18.7663 100.487 17.4121 101.146 16 101.146V107.402C17.4121 107.402 18.7663 108.061 19.7648 109.234C20.7633 110.407 21.3242 111.998 21.3242 113.657C21.3242 115.317 20.7633 116.908 19.7648 118.081C18.7663 119.254 17.4121 119.913 16 119.913V220.004C17.4121 220.004 18.7663 220.663 19.7648 221.836C20.7633 223.01 21.3242 224.601 21.3242 226.26C21.3242 227.919 20.7633 229.51 19.7648 230.683C18.7663 231.856 17.4121 232.515 16 232.516V238.771C17.4121 238.771 18.7663 239.43 19.7648 240.603C20.7633 241.777 21.3242 243.368 21.3242 245.027C21.3242 246.686 20.7633 248.277 19.7648 249.45C18.7663 250.623 17.4121 251.283 16 251.283V257.538C17.4121 257.538 18.7663 258.197 19.7648 259.371C20.7633 260.544 21.3242 262.135 21.3242 263.794C21.3242 265.453 20.7633 267.044 19.7648 268.217C18.7663 269.391 17.4121 270.05 16 270.05V276.305C17.4121 276.305 18.7663 276.964 19.7648 278.138C20.7633 279.311 21.3242 280.902 21.3242 282.561C21.3242 284.22 20.7633 285.811 19.7648 286.984C18.7663 288.158 17.4121 288.817 16 288.817V295.072C17.4121 295.072 18.7663 295.732 19.7648 296.905C20.7633 298.078 21.3242 299.669 21.3242 301.328C21.3242 302.987 20.7633 304.578 19.7648 305.752C18.7663 306.925 17.4121 307.584 16 307.584V313.839C16.6992 313.839 17.3915 314.001 18.0374 314.316C18.6834 314.63 19.2704 315.091 19.7648 315.672C20.2592 316.253 20.6514 316.942 20.9189 317.701C21.1865 318.46 21.3242 319.274 21.3242 320.095H601.676C601.676 319.274 601.813 318.46 602.081 317.701C602.349 316.942 602.741 316.253 603.235 315.672C603.73 315.091 604.317 314.63 604.963 314.316C605.609 314.001 606.301 313.839 607 313.839V307.584C605.588 307.584 604.234 306.925 603.235 305.752C602.237 304.578 601.676 302.987 601.676 301.328C601.676 299.669 602.237 298.078 603.235 296.905C604.234 295.731 605.588 295.072 607 295.072V288.817C605.588 288.817 604.234 288.158 603.235 286.984C602.237 285.811 601.676 284.22 601.676 282.561C601.676 280.902 602.237 279.311 603.235 278.138C604.234 276.964 605.588 276.305 607 276.305V270.05C605.588 270.05 604.234 269.391 603.235 268.217C602.237 267.044 601.676 265.453 601.676 263.794C601.676 262.135 602.237 260.544 603.235 259.371C604.234 258.197 605.588 257.538 607 257.538V251.283C605.588 251.283 604.234 250.623 603.235 249.45C602.237 248.277 601.676 246.686 601.676 245.027C601.676 243.368 602.237 241.777 603.235 240.603C604.234 239.43 605.588 238.771 607 238.771V232.516C605.588 232.516 604.234 231.856 603.235 230.683C602.237 229.51 601.676 227.919 601.676 226.26C601.676 224.601 602.237 223.01 603.235 221.836C604.234 220.663 605.588 220.004 607 220.004V194.981H607V201.237C599.939 201.237 593.168 197.942 588.175 192.076C583.183 186.21 580.378 178.254 580.378 169.959C580.378 161.663 583.183 153.707 588.175 147.842C593.168 141.976 599.939 138.68 607 138.68V169.959V182.47H607V119.913C605.588 119.913 604.234 119.254 603.235 118.081C602.237 116.908 601.676 115.317 601.676 113.657C601.676 111.998 602.237 110.407 603.235 109.234C604.234 108.061 605.588 107.402 607 107.402V101.146C605.588 101.146 604.234 100.487 603.235 99.3138C602.237 98.1407 601.676 96.5495 601.676 94.8904C601.676 93.2313 602.237 91.6401 603.235 90.467C604.234 89.2938 605.588 88.6347 607 88.6347V82.379C605.588 82.379 604.234 81.72 603.235 80.5468C602.237 79.3736 601.676 77.7825 601.676 76.1233C601.676 74.4642 602.237 72.8731 603.235 71.6999C604.234 70.5267 605.588 69.8677 607 69.8677V63.612C605.588 63.612 604.234 62.9529 603.235 61.7797C602.237 60.6066 601.676 59.0154 601.676 57.3563C601.676 55.6972 602.237 54.106 603.235 52.9328C604.234 51.7597 605.588 51.1006 607 51.1006V44.8449C605.588 44.8449 604.234 44.1858 603.235 43.0127C602.237 41.8395 601.676 40.2483 601.676 38.5892C601.676 36.9301 602.237 35.339 603.235 34.1658C604.234 32.9926 605.588 32.3335 607 32.3335V26.0779C606.301 26.0779 605.609 25.916 604.963 25.6017C604.317 25.2873 603.73 24.8265 603.235 24.2456C602.741 23.6647 602.349 22.9751 602.081 22.2161C601.813 21.4571 601.676 20.6437 601.676 19.8222L607 19.8222L607 19.822H21.3242C21.3242 20.6435 21.1865 21.457 20.9189 22.2159C20.6514 22.9749 20.2592 23.6645 19.7648 24.2454C19.2704 24.8263 18.6834 25.2871 18.0374 25.6015ZM16.0005 201.237C23.0609 201.237 29.8323 197.942 34.8248 192.076C39.8173 186.21 42.6221 178.254 42.6221 169.959C42.6221 161.663 39.8173 153.707 34.8248 147.842C29.8323 141.976 23.0609 138.68 16.0005 138.68L16.0005 169.959L16.0005 201.237Z" fill="white"/>
<path d="M16 26.0777L16 25.0777L15 25.0777V26.0777H16ZM18.0374 25.6015L18.475 26.5007L18.0374 25.6015ZM16 32.3335H15V33.3335L16 33.3335L16 32.3335ZM19.7648 34.1658L19.0032 34.8139L19.0032 34.8139L19.7648 34.1658ZM19.7648 43.0127L19.0032 42.3645L19.0032 42.3645L19.7648 43.0127ZM16 44.8449L16 43.8449L15 43.8449V44.8449H16ZM16 51.1006H15V52.1006L16 52.1006L16 51.1006ZM19.7648 52.9328L19.0032 53.581L19.0032 53.581L19.7648 52.9328ZM19.7648 61.7797L20.5263 62.4279L20.5263 62.4279L19.7648 61.7797ZM16 63.612L16 62.612L15 62.612V63.612H16ZM16 69.8675H15V70.8674L16 70.8675L16 69.8675ZM19.7648 71.6997L20.5263 71.0516L20.5263 71.0516L19.7648 71.6997ZM19.7648 80.5466L19.0032 79.8985L19.0032 79.8985L19.7648 80.5466ZM16 82.3788L16 81.3788L15 81.3789V82.3788H16ZM16 88.6347H15V89.6347L16 89.6347L16 88.6347ZM19.7648 90.467L19.0032 91.1151L19.0032 91.1151L19.7648 90.467ZM19.7648 99.3138L19.0032 98.6657L19.0032 98.6657L19.7648 99.3138ZM16 101.146L16 100.146L15 100.146V101.146H16ZM16 107.402H15V108.402L16 108.402L16 107.402ZM19.7648 109.234L19.0032 109.882L19.0032 109.882L19.7648 109.234ZM19.7648 118.081L19.0032 117.433L19.0032 117.433L19.7648 118.081ZM16 119.913L16 118.913L15 118.913V119.913H16ZM16 220.004H15V221.004L16 221.004L16 220.004ZM19.7648 221.836L20.5263 221.188L20.5263 221.188L19.7648 221.836ZM19.7648 230.683L20.5263 231.331L20.5263 231.331L19.7648 230.683ZM16 232.516L16 231.516L15 231.516V232.516H16ZM16 238.771H15V239.771L16 239.771L16 238.771ZM19.7648 240.603L20.5263 239.955L20.5263 239.955L19.7648 240.603ZM19.7648 249.45L20.5263 250.098L20.5263 250.098L19.7648 249.45ZM16 251.283L16 250.283L15 250.283V251.283H16ZM16 257.538H15V258.538L16 258.538L16 257.538ZM19.7648 259.371L20.5263 258.722L20.5263 258.722L19.7648 259.371ZM19.7648 268.217L20.5263 268.866L20.5263 268.866L19.7648 268.217ZM16 270.05L16 269.05L15 269.05V270.05H16ZM16 276.305H15V277.305H16V276.305ZM19.7648 278.138L20.5263 277.489L20.5263 277.489L19.7648 278.138ZM19.7648 286.984L20.5263 287.633L20.5263 287.633L19.7648 286.984ZM16 288.817V287.817H15V288.817H16ZM16 295.072H15V296.072H16V295.072ZM19.7648 296.905L20.5263 296.256L20.5263 296.256L19.7648 296.905ZM19.7648 305.752L20.5263 306.4L20.5263 306.4L19.7648 305.752ZM16 307.584V306.584H15V307.584H16ZM16 313.839H15V314.839H16V313.839ZM18.0374 314.316L17.5998 315.215L17.5998 315.215L18.0374 314.316ZM19.7648 315.672L19.0032 316.32L19.0032 316.32L19.7648 315.672ZM20.9189 317.701L19.9758 318.034L19.9758 318.034L20.9189 317.701ZM21.3242 320.095H20.3242V321.095H21.3242V320.095ZM601.676 320.095V321.095H602.676V320.095H601.676ZM602.081 317.701L603.024 318.034L603.024 318.034L602.081 317.701ZM603.235 315.672L602.474 315.024L602.474 315.024L603.235 315.672ZM604.963 314.316L605.4 315.215L605.4 315.215L604.963 314.316ZM607 313.839V314.839H608V313.839H607ZM607 307.584H608V306.584H607V307.584ZM603.235 305.752L602.474 306.4L602.474 306.4L603.235 305.752ZM603.235 296.905L602.474 296.256L602.474 296.257L603.235 296.905ZM607 295.072V296.072H608V295.072H607ZM607 288.817H608V287.817H607V288.817ZM603.235 286.984L602.474 287.633L602.474 287.633L603.235 286.984ZM603.235 278.138L602.474 277.489L602.474 277.489L603.235 278.138ZM607 276.305V277.305H608V276.305H607ZM607 270.05H608V269.05H607V270.05ZM603.235 268.217L602.474 268.866L602.474 268.866L603.235 268.217ZM603.235 259.371L602.474 258.722L602.474 258.722L603.235 259.371ZM607 257.538V258.538H608V257.538H607ZM607 251.283H608V250.283H607V251.283ZM603.235 249.45L602.474 250.098L602.474 250.098L603.235 249.45ZM603.235 240.603L602.474 239.955L602.474 239.955L603.235 240.603ZM607 238.771V239.771H608V238.771H607ZM607 232.516H608V231.516H607V232.516ZM603.235 230.683L602.474 231.331L602.474 231.331L603.235 230.683ZM603.235 221.836L602.474 221.188L602.474 221.188L603.235 221.836ZM607 220.004V221.004H608V220.004H607ZM607 194.981H608V193.981H607V194.981ZM607 194.981V193.981H606V194.981H607ZM607 201.237V202.237H608V201.237H607ZM588.175 192.076L588.937 191.428L588.937 191.428L588.175 192.076ZM588.175 147.842L588.937 148.49L588.937 148.49L588.175 147.842ZM607 138.68H608V137.68H607V138.68ZM607 182.47H606V183.47H607V182.47ZM607 182.47V183.47H608V182.47H607ZM607 119.913H608V118.913H607V119.913ZM603.235 118.081L602.474 118.729L602.474 118.729L603.235 118.081ZM603.235 109.234L602.474 108.586L602.474 108.586L603.235 109.234ZM607 107.402V108.402H608V107.402H607ZM607 101.146H608V100.146H607V101.146ZM603.235 99.3138L602.474 99.962L602.474 99.962L603.235 99.3138ZM603.235 90.467L602.474 89.8188L602.474 89.8188L603.235 90.467ZM607 88.6347V89.6347H608V88.6347H607ZM607 82.379H608V81.379H607V82.379ZM603.235 80.5468L602.474 81.1949L602.474 81.1949L603.235 80.5468ZM603.235 71.6999L602.474 71.0517L602.474 71.0518L603.235 71.6999ZM607 69.8677V70.8677H608V69.8677H607ZM607 63.612H608V62.612H607V63.612ZM603.235 61.7797L602.474 62.4279L602.474 62.4279L603.235 61.7797ZM603.235 52.9328L602.474 52.2847L602.474 52.2847L603.235 52.9328ZM607 51.1006V52.1006H608V51.1006H607ZM607 44.8449H608V43.8449H607V44.8449ZM603.235 43.0127L602.474 43.6608L602.474 43.6608L603.235 43.0127ZM603.235 34.1658L602.474 33.5176L602.474 33.5177L603.235 34.1658ZM607 32.3335V33.3335H608V32.3335H607ZM607 26.0779H608V25.0779H607V26.0779ZM604.963 25.6017L605.4 24.7025L605.4 24.7025L604.963 25.6017ZM603.235 24.2456L602.474 24.8937L602.474 24.8938L603.235 24.2456ZM602.081 22.2161L603.024 21.8836L603.024 21.8836L602.081 22.2161ZM601.676 19.8222L601.676 18.8222L600.676 18.8222V19.8222H601.676ZM607 19.8222L607 20.8222L609.951 20.8222L607.608 19.0282L607 19.8222ZM607 19.822L607.608 19.028L607.339 18.822H607V19.822ZM21.3242 19.822V18.822H20.3242L20.3242 19.822L21.3242 19.822ZM20.9189 22.2159L21.862 22.5484L21.862 22.5484L20.9189 22.2159ZM19.7648 24.2454L19.0032 23.5973L19.0032 23.5973L19.7648 24.2454ZM34.8248 192.076L34.0633 191.428L34.0633 191.428L34.8248 192.076ZM16.0005 201.237L15.0005 201.237L15.0005 202.237H16.0005V201.237ZM34.8248 147.842L35.5863 147.193L35.5863 147.193L34.8248 147.842ZM16.0005 138.68V137.68H15.0005L15.0005 138.68L16.0005 138.68ZM16.0005 169.959L15.0005 169.959V169.959L16.0005 169.959ZM16 27.0777C16.855 27.0776 17.6966 26.8795 18.475 26.5007L17.5998 24.7023C17.0863 24.9522 16.5433 25.0777 16 25.0777L16 27.0777ZM17 32.3335V26.0777H15V32.3335H17ZM20.5263 33.5176C19.3574 32.1442 17.7341 31.3336 16 31.3335L16 33.3335C17.09 33.3336 18.1752 33.841 19.0032 34.8139L20.5263 33.5176ZM22.3242 38.5892C22.3242 36.7123 21.691 34.8862 20.5263 33.5176L19.0032 34.8139C19.8355 35.7917 20.3242 37.1479 20.3242 38.5892H22.3242ZM20.5263 43.6608C21.691 42.2923 22.3242 40.4661 22.3242 38.5892H20.3242C20.3242 40.0305 19.8355 41.3867 19.0032 42.3645L20.5263 43.6608ZM16 45.8449C17.7341 45.8449 19.3574 45.0342 20.5263 43.6608L19.0032 42.3645C18.1752 43.3374 17.09 43.8449 16 43.8449L16 45.8449ZM17 51.1006V44.8449H15V51.1006H17ZM20.5263 52.2847C19.3574 50.9113 17.7341 50.1006 16 50.1006L16 52.1006C17.09 52.1006 18.1752 52.6081 19.0032 53.581L20.5263 52.2847ZM22.3242 57.3563C22.3242 55.4794 21.691 53.6532 20.5263 52.2847L19.0032 53.581C19.8355 54.5588 20.3242 55.915 20.3242 57.3563H22.3242ZM20.5263 62.4279C21.691 61.0594 22.3242 59.2332 22.3242 57.3563H20.3242C20.3242 58.7976 19.8355 60.1538 19.0032 61.1316L20.5263 62.4279ZM16 64.612C17.7341 64.6119 19.3574 63.8013 20.5263 62.4279L19.0032 61.1316C18.1752 62.1045 17.09 62.6119 16 62.612L16 64.612ZM17 69.8675V63.612H15V69.8675H17ZM20.5263 71.0516C19.3574 69.6782 17.7341 68.8675 16 68.8675L16 70.8675C17.09 70.8675 18.1752 71.375 19.0032 72.3479L20.5263 71.0516ZM22.3242 76.1232C22.3242 74.2463 21.691 72.4201 20.5263 71.0516L19.0032 72.3479C19.8355 73.3257 20.3242 74.6818 20.3242 76.1232H22.3242ZM20.5263 81.1947C21.691 79.8262 22.3242 78.0001 22.3242 76.1232H20.3242C20.3242 77.5645 19.8355 78.9206 19.0032 79.8985L20.5263 81.1947ZM16 83.3788C17.7341 83.3788 19.3574 82.5681 20.5263 81.1947L19.0032 79.8985C18.1752 80.8713 17.09 81.3788 16 81.3788L16 83.3788ZM17 88.6347V82.3788H15V88.6347H17ZM20.5263 89.8188C19.3574 88.4454 17.7341 87.6347 16 87.6347L16 89.6347C17.09 89.6347 18.1752 90.1422 19.0032 91.1151L20.5263 89.8188ZM22.3242 94.8904C22.3242 93.0135 21.691 91.1873 20.5263 89.8188L19.0032 91.1151C19.8355 92.0929 20.3242 93.4491 20.3242 94.8904H22.3242ZM20.5263 99.962C21.691 98.5935 22.3242 96.7673 22.3242 94.8904H20.3242C20.3242 96.3317 19.8355 97.6879 19.0032 98.6657L20.5263 99.962ZM16 102.146C17.7341 102.146 19.3574 101.335 20.5263 99.962L19.0032 98.6657C18.1752 99.6386 17.09 100.146 16 100.146L16 102.146ZM17 107.402V101.146H15V107.402H17ZM20.5263 108.586C19.3574 107.212 17.7341 106.402 16 106.402L16 108.402C17.09 108.402 18.1752 108.909 19.0032 109.882L20.5263 108.586ZM22.3242 113.657C22.3242 111.781 21.691 109.954 20.5263 108.586L19.0032 109.882C19.8355 110.86 20.3242 112.216 20.3242 113.657H22.3242ZM20.5263 118.729C21.691 117.361 22.3242 115.534 22.3242 113.657H20.3242C20.3242 115.099 19.8355 116.455 19.0032 117.433L20.5263 118.729ZM16 120.913C17.7341 120.913 19.3574 120.102 20.5263 118.729L19.0032 117.433C18.1752 118.406 17.09 118.913 16 118.913L16 120.913ZM17 220.004V119.913H15V220.004H17ZM20.5263 221.188C19.3574 219.815 17.7341 219.004 16 219.004L16 221.004C17.09 221.004 18.1752 221.512 19.0032 222.485L20.5263 221.188ZM22.3242 226.26C22.3242 224.383 21.691 222.557 20.5263 221.188L19.0032 222.485C19.8355 223.462 20.3242 224.818 20.3242 226.26H22.3242ZM20.5263 231.331C21.691 229.963 22.3242 228.137 22.3242 226.26H20.3242C20.3242 227.701 19.8355 229.057 19.0032 230.035L20.5263 231.331ZM16 233.516C17.7341 233.515 19.3574 232.705 20.5263 231.331L19.0032 230.035C18.1752 231.008 17.09 231.515 16 231.516L16 233.516ZM17 238.771V232.516H15V238.771H17ZM20.5263 239.955C19.3574 238.582 17.7341 237.771 16 237.771L16 239.771C17.09 239.771 18.1752 240.279 19.0032 241.252L20.5263 239.955ZM22.3242 245.027C22.3242 243.15 21.691 241.324 20.5263 239.955L19.0032 241.252C19.8355 242.229 20.3242 243.586 20.3242 245.027H22.3242ZM20.5263 250.098C21.691 248.73 22.3242 246.904 22.3242 245.027H20.3242C20.3242 246.468 19.8355 247.824 19.0032 248.802L20.5263 250.098ZM16 252.283C17.7341 252.283 19.3574 251.472 20.5263 250.098L19.0032 248.802C18.1752 249.775 17.09 250.283 16 250.283L16 252.283ZM17 257.538V251.283H15V257.538H17ZM20.5263 258.722C19.3574 257.349 17.7341 256.538 16 256.538L16 258.538C17.09 258.538 18.1752 259.046 19.0032 260.019L20.5263 258.722ZM22.3242 263.794C22.3242 261.917 21.691 260.091 20.5263 258.722L19.0032 260.019C19.8355 260.996 20.3242 262.353 20.3242 263.794H22.3242ZM20.5263 268.866C21.691 267.497 22.3242 265.671 22.3242 263.794H20.3242C20.3242 265.235 19.8355 266.591 19.0032 267.569L20.5263 268.866ZM16 271.05C17.7341 271.05 19.3574 270.239 20.5263 268.866L19.0032 267.569C18.1752 268.542 17.09 269.05 16 269.05L16 271.05ZM17 276.305V270.05H15V276.305H17ZM20.5263 277.489C19.3574 276.116 17.7341 275.305 16 275.305V277.305C17.09 277.305 18.1752 277.813 19.0032 278.786L20.5263 277.489ZM22.3242 282.561C22.3242 280.684 21.691 278.858 20.5263 277.489L19.0032 278.786C19.8355 279.764 20.3242 281.12 20.3242 282.561H22.3242ZM20.5263 287.633C21.691 286.264 22.3242 284.438 22.3242 282.561H20.3242C20.3242 284.002 19.8355 285.358 19.0032 286.336L20.5263 287.633ZM16 289.817C17.7341 289.817 19.3574 289.006 20.5263 287.633L19.0032 286.336C18.1752 287.309 17.09 287.817 16 287.817V289.817ZM17 295.072V288.817H15V295.072H17ZM20.5263 296.256C19.3574 294.883 17.7341 294.072 16 294.072V296.072C17.09 296.072 18.1752 296.58 19.0032 297.553L20.5263 296.256ZM22.3242 301.328C22.3242 299.451 21.691 297.625 20.5263 296.256L19.0032 297.553C19.8355 298.531 20.3242 299.887 20.3242 301.328H22.3242ZM20.5263 306.4C21.691 305.031 22.3242 303.205 22.3242 301.328H20.3242C20.3242 302.769 19.8355 304.126 19.0032 305.103L20.5263 306.4ZM16 308.584C17.7341 308.584 19.3574 307.773 20.5263 306.4L19.0032 305.103C18.1752 306.076 17.09 306.584 16 306.584V308.584ZM17 313.839V307.584H15V313.839H17ZM16 314.839C16.5433 314.839 17.0863 314.965 17.5998 315.215L18.475 313.416C17.6966 313.038 16.8551 312.839 16 312.839V314.839ZM17.5998 315.215C18.1141 315.465 18.5927 315.837 19.0032 316.32L20.5263 315.024C19.948 314.344 19.2527 313.795 18.475 313.416L17.5998 315.215ZM19.0032 316.32C19.414 316.802 19.7467 317.384 19.9758 318.034L21.862 317.369C21.556 316.501 21.1043 315.703 20.5263 315.024L19.0032 316.32ZM19.9758 318.034C20.205 318.684 20.3242 319.384 20.3242 320.095H22.3242C22.3242 319.163 22.1681 318.237 21.862 317.369L19.9758 318.034ZM601.676 319.095H21.3242V321.095H601.676V319.095ZM601.138 317.369C600.832 318.237 600.676 319.163 600.676 320.095H602.676C602.676 319.384 602.795 318.684 603.024 318.034L601.138 317.369ZM602.474 315.024C601.896 315.703 601.444 316.501 601.138 317.369L603.024 318.034C603.253 317.384 603.586 316.802 603.997 316.32L602.474 315.024ZM604.525 313.416C603.747 313.795 603.052 314.344 602.474 315.024L603.997 316.32C604.407 315.837 604.886 315.465 605.4 315.215L604.525 313.416ZM607 312.839C606.145 312.839 605.303 313.038 604.525 313.416L605.4 315.215C605.914 314.965 606.457 314.839 607 314.839V312.839ZM606 307.584V313.839H608V307.584H606ZM602.474 306.4C603.643 307.773 605.266 308.584 607 308.584V306.584C605.91 306.584 604.825 306.076 603.997 305.103L602.474 306.4ZM600.676 301.328C600.676 303.205 601.309 305.031 602.474 306.4L603.997 305.103C603.165 304.126 602.676 302.769 602.676 301.328H600.676ZM602.474 296.257C601.309 297.625 600.676 299.451 600.676 301.328H602.676C602.676 299.887 603.165 298.531 603.997 297.553L602.474 296.257ZM607 294.072C605.266 294.072 603.643 294.883 602.474 296.256L603.997 297.553C604.825 296.58 605.91 296.072 607 296.072V294.072ZM606 288.817V295.072H608V288.817H606ZM602.474 287.633C603.643 289.006 605.266 289.817 607 289.817V287.817C605.91 287.817 604.825 287.309 603.997 286.336L602.474 287.633ZM600.676 282.561C600.676 284.438 601.309 286.264 602.474 287.633L603.997 286.336C603.165 285.358 602.676 284.002 602.676 282.561H600.676ZM602.474 277.489C601.309 278.858 600.676 280.684 600.676 282.561H602.676C602.676 281.12 603.165 279.764 603.997 278.786L602.474 277.489ZM607 275.305C605.266 275.305 603.643 276.116 602.474 277.489L603.997 278.786C604.825 277.813 605.91 277.305 607 277.305V275.305ZM606 270.05V276.305H608V270.05H606ZM602.474 268.866C603.643 270.239 605.266 271.05 607 271.05V269.05C605.91 269.05 604.825 268.542 603.997 267.569L602.474 268.866ZM600.676 263.794C600.676 265.671 601.309 267.497 602.474 268.866L603.997 267.569C603.165 266.591 602.676 265.235 602.676 263.794H600.676ZM602.474 258.722C601.309 260.091 600.676 261.917 600.676 263.794H602.676C602.676 262.353 603.165 260.996 603.997 260.019L602.474 258.722ZM607 256.538C605.266 256.538 603.643 257.349 602.474 258.722L603.997 260.019C604.825 259.046 605.91 258.538 607 258.538V256.538ZM606 251.283V257.538H608V251.283H606ZM602.474 250.098C603.643 251.472 605.266 252.283 607 252.283V250.283C605.91 250.283 604.825 249.775 603.997 248.802L602.474 250.098ZM600.676 245.027C600.676 246.904 601.309 248.73 602.474 250.098L603.997 248.802C603.165 247.824 602.676 246.468 602.676 245.027H600.676ZM602.474 239.955C601.309 241.324 600.676 243.15 600.676 245.027H602.676C602.676 243.586 603.165 242.229 603.997 241.252L602.474 239.955ZM607 237.771C605.266 237.771 603.643 238.582 602.474 239.955L603.997 241.252C604.825 240.279 605.91 239.771 607 239.771V237.771ZM606 232.516V238.771H608V232.516H606ZM602.474 231.331C603.643 232.705 605.266 233.516 607 233.516V231.516C605.91 231.516 604.825 231.008 603.997 230.035L602.474 231.331ZM600.676 226.26C600.676 228.137 601.309 229.963 602.474 231.331L603.997 230.035C603.165 229.057 602.676 227.701 602.676 226.26H600.676ZM602.474 221.188C601.309 222.557 600.676 224.383 600.676 226.26H602.676C602.676 224.819 603.165 223.462 603.997 222.485L602.474 221.188ZM607 219.004C605.266 219.004 603.643 219.815 602.474 221.188L603.997 222.485C604.825 221.512 605.91 221.004 607 221.004V219.004ZM606 194.981V220.004H608V194.981H606ZM607 195.981H607V193.981H607V195.981ZM608 201.237V194.981H606V201.237H608ZM587.414 192.724C592.577 198.79 599.617 202.237 607 202.237V200.237C600.261 200.237 593.759 197.093 588.937 191.428L587.414 192.724ZM579.378 169.959C579.378 178.472 582.255 186.663 587.414 192.724L588.937 191.428C584.11 185.757 581.378 178.037 581.378 169.959H579.378ZM587.414 147.193C582.255 153.255 579.378 161.445 579.378 169.959H581.378C581.378 161.881 584.11 154.16 588.937 148.49L587.414 147.193ZM607 137.68C599.617 137.68 592.577 141.127 587.414 147.193L588.937 148.49C593.759 142.824 600.261 139.68 607 139.68V137.68ZM608 169.959V138.68H606V169.959H608ZM608 182.47V169.959H606V182.47H608ZM607 181.47H607V183.47H607V181.47ZM606 119.913V182.47H608V119.913H606ZM602.474 118.729C603.643 120.102 605.266 120.913 607 120.913V118.913C605.91 118.913 604.825 118.406 603.997 117.433L602.474 118.729ZM600.676 113.657C600.676 115.534 601.309 117.361 602.474 118.729L603.997 117.433C603.165 116.455 602.676 115.099 602.676 113.657H600.676ZM602.474 108.586C601.309 109.954 600.676 111.781 600.676 113.657H602.676C602.676 112.216 603.165 110.86 603.997 109.882L602.474 108.586ZM607 106.402C605.266 106.402 603.643 107.212 602.474 108.586L603.997 109.882C604.825 108.909 605.91 108.402 607 108.402V106.402ZM606 101.146V107.402H608V101.146H606ZM602.474 99.962C603.643 101.335 605.266 102.146 607 102.146V100.146C605.91 100.146 604.825 99.6386 603.997 98.6657L602.474 99.962ZM600.676 94.8904C600.676 96.7673 601.309 98.5935 602.474 99.962L603.997 98.6657C603.165 97.6879 602.676 96.3317 602.676 94.8904H600.676ZM602.474 89.8188C601.309 91.1873 600.676 93.0135 600.676 94.8904H602.676C602.676 93.4491 603.165 92.0929 603.997 91.1151L602.474 89.8188ZM607 87.6347C605.266 87.6347 603.643 88.4454 602.474 89.8188L603.997 91.1151C604.825 90.1422 605.91 89.6347 607 89.6347V87.6347ZM606 82.379V88.6347H608V82.379H606ZM602.474 81.1949C603.643 82.5684 605.266 83.379 607 83.379V81.379C605.91 81.379 604.825 80.8716 603.997 79.8986L602.474 81.1949ZM600.676 76.1233C600.676 78.0003 601.309 79.8264 602.474 81.1949L603.997 79.8987C603.165 78.9208 602.676 77.5647 602.676 76.1233H600.676ZM602.474 71.0518C601.309 72.4203 600.676 74.2464 600.676 76.1233H602.676C602.676 74.682 603.165 73.3259 603.997 72.348L602.474 71.0518ZM607 68.8677C605.266 68.8677 603.643 69.6783 602.474 71.0517L603.997 72.3481C604.825 71.3751 605.91 70.8677 607 70.8677V68.8677ZM606 63.612V69.8677H608V63.612H606ZM602.474 62.4279C603.643 63.8013 605.266 64.612 607 64.612V62.612C605.91 62.612 604.825 62.1045 603.997 61.1316L602.474 62.4279ZM600.676 57.3563C600.676 59.2332 601.309 61.0594 602.474 62.4279L603.997 61.1316C603.165 60.1538 602.676 58.7976 602.676 57.3563H600.676ZM602.474 52.2847C601.309 53.6532 600.676 55.4794 600.676 57.3563H602.676C602.676 55.915 603.165 54.5588 603.997 53.581L602.474 52.2847ZM607 50.1006C605.266 50.1006 603.643 50.9113 602.474 52.2847L603.997 53.581C604.825 52.6081 605.91 52.1006 607 52.1006V50.1006ZM606 44.8449V51.1006H608V44.8449H606ZM602.474 43.6608C603.643 45.0342 605.266 45.8449 607 45.8449V43.8449C605.91 43.8449 604.825 43.3374 603.997 42.3645L602.474 43.6608ZM600.676 38.5892C600.676 40.4661 601.309 42.2923 602.474 43.6608L603.997 42.3645C603.165 41.3867 602.676 40.0305 602.676 38.5892H600.676ZM602.474 33.5177C601.309 34.8862 600.676 36.7123 600.676 38.5892H602.676C602.676 37.1479 603.165 35.7917 603.997 34.8139L602.474 33.5177ZM607 31.3335C605.266 31.3335 603.643 32.1442 602.474 33.5176L603.997 34.8139C604.825 33.841 605.91 33.3335 607 33.3335V31.3335ZM606 26.0779V32.3335H608V26.0779H606ZM604.525 26.5008C605.303 26.8797 606.145 27.0779 607 27.0779V25.0779C606.457 25.0779 605.914 24.9524 605.4 24.7025L604.525 26.5008ZM602.474 24.8938C603.052 25.5732 603.747 26.1224 604.525 26.5008L605.4 24.7025C604.886 24.4522 604.407 24.0798 603.997 23.5974L602.474 24.8938ZM601.138 22.5486C601.444 23.4166 601.896 24.2146 602.474 24.8937L603.997 23.5975C603.586 23.1148 603.253 22.5336 603.024 21.8836L601.138 22.5486ZM600.676 19.8222C600.676 20.7545 600.832 21.6806 601.138 22.5486L603.024 21.8836C602.795 21.2337 602.676 20.5328 602.676 19.8222H600.676ZM607 18.8222L601.676 18.8222L601.676 20.8222L607 20.8222L607 18.8222ZM606.392 20.616L606.392 20.6162L607.608 19.0282L607.608 19.028L606.392 20.616ZM21.3242 20.822H607V18.822H21.3242V20.822ZM21.862 22.5484C22.168 21.6804 22.3242 20.7544 22.3242 19.822L20.3242 19.822C20.3242 20.5327 20.2049 21.2335 19.9758 21.8834L21.862 22.5484ZM20.5263 24.8936C21.1043 24.2144 21.556 23.4164 21.862 22.5484L19.9758 21.8834C19.7467 22.5334 19.414 23.1146 19.0032 23.5973L20.5263 24.8936ZM18.475 26.5007C19.2527 26.1222 19.948 25.573 20.5263 24.8936L19.0032 23.5973C18.5927 24.0796 18.1141 24.452 17.5998 24.7023L18.475 26.5007ZM34.0633 191.428C29.2412 197.093 22.7389 200.237 16.0005 200.237V202.237C23.383 202.237 30.4233 198.79 35.5863 192.724L34.0633 191.428ZM41.6221 169.959C41.6221 178.037 38.8895 185.757 34.0633 191.428L35.5863 192.724C40.7451 186.663 43.6221 178.472 43.6221 169.959H41.6221ZM34.0633 148.49C38.8895 154.16 41.6221 161.881 41.6221 169.959H43.6221C43.6221 161.445 40.7451 153.255 35.5863 147.193L34.0633 148.49ZM16.0005 139.68C22.7389 139.68 29.2412 142.824 34.0633 148.49L35.5863 147.193C30.4233 141.127 23.383 137.68 16.0005 137.68V139.68ZM17.0005 169.959L17.0005 138.68L15.0005 138.68L15.0005 169.959L17.0005 169.959ZM17.0005 201.237L17.0005 169.959L15.0005 169.959L15.0005 201.237L17.0005 201.237Z" fill="black" mask="url(#path-3-inside-1_579_396)"/>
</mask>
<g mask="url(#mask0_579_396)">
<path fill-rule="evenodd" clip-rule="evenodd" d="M16 19.822H434.132C435.052 26.1391 440.686 31 447.5 31C454.314 31 459.948 26.1391 460.868 19.822H607V320.095H460.662C459.291 314.314 453.919 310 447.5 310C441.081 310 435.709 314.314 434.338 320.095H16V19.822Z" fill="white"/>
<rect class="tws-team-b-fill" x="510" y="19.822" width="300.356" height="22" transform="rotate(90 510 19.822)" fill="#73000A"/>
<rect class="tws-team-a-fill" x="485" y="19.822" width="300.356" height="21" transform="rotate(90 485 19.822)" fill="#2C2A29"/>
<path d="M94 30.4407V310.696" stroke="#28334A" stroke-width="3" stroke-linecap="round" stroke-dasharray="0.01 10"/>
<path d="M72.4478 232.669C70.6169 232.669 69.3831 233.54 68.1692 236.58C67.4527 238.496 66.8955 239.232 66 239.232C65.0249 239.232 64.209 238.574 64.209 237.141C64.209 236.096 64.6866 234.895 65.1443 234.102L62.9552 233.327C62.4378 234.199 62 235.631 62 237.083C62 239.987 63.9502 241.652 66.0597 241.652C67.7313 241.652 69.0249 240.742 70.0199 238.09C70.9552 235.631 71.5124 235.128 72.4478 235.128C73.3433 235.128 74.1592 235.863 74.1592 237.47C74.1592 238.69 73.6816 240.045 72.9055 241.168L75.1343 242C75.9104 240.761 76.4677 239.154 76.4677 237.548C76.4677 234.508 74.9353 232.669 72.4478 232.669ZM66.8756 236.851L65.5423 238.825L65.8408 238.883L67.1542 236.928C67.0547 236.909 66.9751 236.889 66.8756 236.851ZM74.8358 232.998L76.1891 231.004L75.9503 230.869L74.6169 232.843C74.6965 232.902 74.7761 232.94 74.8358 232.998ZM64.4677 233.502L65.801 231.527C65.7214 231.488 65.6219 231.45 65.5423 231.43L64.209 233.405L64.4677 233.502ZM74.3184 232.708L75.6517 230.714L75.4129 230.617L74.0597 232.592L74.3184 232.708ZM66.3781 236.541L65.0448 238.515L65.2438 238.69L66.597 236.696C66.5174 236.657 66.4577 236.599 66.3781 236.541ZM66.1194 231.643L64.7861 233.618L65.0448 233.695L66.3781 231.74C66.2786 231.701 66.199 231.663 66.1194 231.643ZM75.3134 233.347L76.6269 231.372L76.4279 231.198L75.1144 233.173L75.3134 233.347ZM73.3632 230.462L72.0896 232.34C72.209 232.321 72.3085 232.321 72.4279 232.321L73.7214 230.424C73.602 230.424 73.4826 230.443 73.3632 230.462ZM74.796 230.482L73.4627 232.418C73.5622 232.437 73.6617 232.456 73.7413 232.495L75.0746 230.52L74.796 230.482ZM75.7313 233.792L77.0448 231.837L76.8657 231.624L75.5522 233.598L75.7313 233.792ZM76.3682 234.954L77.6617 233.037L77.5423 232.727L76.2488 234.663L76.3682 234.954ZM66 236.038L64.7065 237.973L64.8259 238.244L66.1592 236.289L66 236.038ZM76.607 235.67L77.8607 233.811C77.8408 233.676 77.8209 233.56 77.7811 233.444L76.5075 235.341L76.607 235.67ZM64.9851 231.217L63.6318 233.211L63.8905 233.289L65.2239 231.314C65.1443 231.275 65.0647 231.237 64.9851 231.217ZM73.1045 232.36L74.4179 230.424C74.3184 230.404 74.2189 230.404 74.1194 230.404L72.806 232.34C72.9055 232.34 73.005 232.36 73.1045 232.36ZM76.0697 234.334L77.3831 232.379L77.2438 232.127L75.9304 234.082C75.9702 234.16 76.0299 234.237 76.0697 234.334ZM65.7811 235.321L64.5672 237.102L64.5672 237.141C64.5672 237.277 64.5871 237.412 64.607 237.528L65.8607 235.67C65.8209 235.554 65.801 235.438 65.7811 235.321ZM76.7463 236.483L77.9801 234.683L77.9403 234.276L76.7065 236.096L76.7463 236.483ZM72.4478 230.772L71.2935 232.456L71.6716 232.379L72.8856 230.579C72.7463 230.637 72.5871 230.695 72.4478 230.772ZM76.8259 237.451L77.9801 235.728C77.9801 235.573 78 235.399 78 235.244L76.806 237.006C76.806 237.141 76.8259 237.296 76.8259 237.451ZM64.4876 231.043L63.1542 233.037L63.3532 233.115L64.7065 231.121C64.6468 231.082 64.5672 231.063 64.4876 231.043ZM67.6517 236.967L67.5323 236.967L66.2388 238.864C66.4378 238.806 66.597 238.709 66.7761 238.554L67.3134 237.761C67.4129 237.528 67.5323 237.277 67.6517 236.967ZM76.7264 238.632L77.7413 237.141C77.801 236.909 77.8408 236.676 77.8806 236.444L76.806 238.051C76.7861 238.244 76.7662 238.438 76.7264 238.632ZM65.7811 234.237L64.9055 235.534C64.806 235.825 64.7264 236.115 64.6667 236.386L65.7413 234.779C65.7413 234.605 65.7612 234.431 65.7811 234.237ZM66.3781 232.34L65.3632 233.811L65.6219 233.908L65.9602 233.405C66.0796 233.018 66.2189 232.669 66.3781 232.34ZM76.408 240.006L76.6866 239.6C76.9453 239.193 77.1642 238.767 77.3632 238.303L76.5672 239.464L76.408 240.006ZM70.8955 232.224L70.5572 232.727C70.6368 232.689 70.7164 232.669 70.7761 232.631L71.6716 231.314C71.4129 231.566 71.1542 231.856 70.8955 232.224Z" fill="#28334A"/>
<path d="M72.1493 214.219L73.4826 212.264L73.204 212.167L71.8706 214.142L72.1493 214.219ZM68.5672 213.174L69.9005 211.199L69.6219 211.102L68.2886 213.077L68.5672 213.174ZM70.9751 222.292L72.3284 220.298L72.0697 220.181L70.7164 222.175L70.9751 222.292ZM63.2139 211.548L64.5672 209.554L64.2886 209.457L62.9353 211.451L63.2139 211.548ZM64.3881 211.915L65.7413 209.922L65.4826 209.825L64.1294 211.819L64.3881 211.915ZM63.8109 211.722L65.1642 209.728L64.8856 209.651L63.5323 211.644L63.8109 211.722ZM67.3731 212.806L68.7065 210.831L68.4478 210.735L67.0945 212.729L67.3731 212.806ZM67.9701 212.98L69.3035 211.006L69.0448 210.928L67.6915 212.903L67.9701 212.98ZM75.393 224.227L76.7264 222.233L76.4876 222.117L75.1343 224.111L75.393 224.227ZM74.8358 223.976L76.1891 221.982L75.9503 221.885L74.597 223.879L74.8358 223.976ZM74.2786 223.743L75.6318 221.749L75.393 221.633L74.0398 223.627L74.2786 223.743ZM73.1841 223.259L74.5373 221.266L74.2786 221.149L72.9254 223.143L73.1841 223.259ZM76.4876 224.711L77.8408 222.717L77.5821 222.601L76.2289 224.595L76.4876 224.711ZM72.0697 222.775L73.4229 220.782L73.1841 220.665L71.8308 222.659L72.0697 222.775ZM75.9503 224.46L77.2836 222.466L77.0448 222.369L75.6915 224.363L75.9503 224.46ZM66.7761 212.632L68.1095 210.638L67.8507 210.56L66.4975 212.554L66.7761 212.632ZM70.4179 222.04L71.7711 220.065L71.5124 219.949L70.1791 221.924L70.4179 222.04ZM69.8806 221.788L71.2139 219.814L70.9552 219.717L69.6219 221.691L69.8806 221.788ZM74.5373 214.916L75.8706 212.961L75.592 212.883L74.2587 214.839L74.5373 214.916ZM73.3433 214.568L74.6766 212.612L74.398 212.535L73.0647 214.49L73.3433 214.568ZM71.5522 214.045L72.8856 212.07L72.607 211.993L71.2736 213.967L71.5522 214.045ZM70.9552 213.871L72.2886 211.896L72.0099 211.819L70.6766 213.793L70.9552 213.871ZM69.7612 213.522L71.0945 211.548L70.8159 211.47L69.4826 213.445L69.7612 213.522ZM72.7463 214.393L74.0796 212.438L73.801 212.361L72.4677 214.316L72.7463 214.393ZM75.7313 215.264L77.0448 213.309L76.7861 213.232L75.4527 215.187L75.7313 215.264ZM70.3582 213.696L71.6915 211.722L71.4129 211.644L70.0796 213.619L70.3582 213.696ZM75.1343 215.09L76.4478 213.135L76.1891 213.058L74.8557 215.013L75.1343 215.09ZM73.9403 214.742L75.2736 212.787L74.995 212.709L73.6617 214.664L73.9403 214.742ZM72.6269 223.008L73.9801 221.014L73.7413 220.917L72.3881 222.911L72.6269 223.008ZM71.5323 222.524L72.8657 220.53L72.6269 220.433L71.2736 222.427L71.5323 222.524ZM73.7413 223.492L75.0746 221.498L74.8358 221.401L73.4826 223.395L73.7413 223.492ZM66.1791 212.457L67.5124 210.464L67.2537 210.386L65.9005 212.38L66.1791 212.457ZM64.9851 212.09L66.3383 210.096L66.0796 210.018L64.7264 212.012L64.9851 212.09ZM65.5821 212.264L66.9154 210.289L66.6567 210.212L65.3234 212.186L65.5821 212.264ZM69.1443 213.348L70.4776 211.373L70.2189 211.296L68.8856 213.271L69.1443 213.348ZM76.3085 215.439L77.6418 213.483L77.3831 213.406L76.0697 215.361L76.3085 215.439ZM63.6716 226.705L64.8856 224.924L64.4876 225.04L63.2736 226.821L63.6716 226.705ZM66.3582 225.931L67.5522 224.15L67.1542 224.266L65.9403 226.047L66.3582 225.931ZM64.5672 226.454L65.7811 224.673L65.3831 224.789L64.1692 226.57L64.5672 226.454ZM65.4627 226.202L66.6766 224.402L66.2786 224.518L65.0647 226.318L65.4627 226.202ZM76.7662 215.574L76.7662 215.845L77.9403 214.103L77.9403 213.638L76.6468 215.535L76.7662 215.574ZM69.3234 221.556L70.6169 219.639L70.1592 219.852L69.0647 221.44L69.3234 221.556ZM63.7711 209.302L62.4378 211.296L62.6766 211.373L64.0099 209.38L63.7711 209.302ZM64.5473 219.078L65.7015 217.394L65.2438 217.568L64.0896 219.272L64.5473 219.078ZM63.5522 219.485L64.7264 217.781L64.2886 217.955L63.1144 219.678L63.5522 219.485ZM66.5373 218.265L67.6716 216.6L67.2139 216.774L66.0796 218.459L66.5373 218.265ZM77.9403 223.608L77.9403 223.143L76.7662 224.886L76.7662 225.331L77.9403 223.608ZM65.5423 218.672L66.6766 217.007L66.2388 217.181L65.0846 218.865L65.5423 218.672ZM67.2338 225.679L68.2886 224.131L68.0498 224.014L66.8358 225.795L67.2338 225.679ZM68.3284 216.329L68.209 216.387L67.0746 218.052L67.5124 217.858L68.5274 216.387L68.3284 216.329ZM68.1294 225.408L68.8458 224.344L68.607 224.247L67.7313 225.524L68.1294 225.408ZM62.5373 227.034L62.7761 226.976L64.0099 225.176L63.7512 225.234L62.5373 227.034ZM68.7662 221.304L69.5821 220.104L69.1244 220.298L68.5274 221.207L68.7662 221.304ZM68.5274 217.452L69.1244 216.561L68.8458 216.484L68.0697 217.626L68.5274 217.452ZM69.0249 225.157L69.4229 224.576L69.1642 224.479L68.6269 225.273L69.0249 225.157ZM69.5224 217.045L69.7214 216.736L69.4627 216.658L69.0647 217.22L69.5224 217.045ZM68.209 221.072L68.5672 220.549L68.1095 220.762L67.9701 220.956L68.209 221.072ZM69.9204 224.905L69.9801 224.808L69.7214 224.711L69.5224 225.021L69.9204 224.905ZM62.2388 211.586L62.2388 214.2L71.1343 216.755L62.0995 220.452L62.0995 221.246L71.1542 224.905L62.2388 227.48L62.2388 230.132L76.408 225.853L76.408 225.04L66.9552 220.878L76.408 216.658L76.408 215.826L62.2388 211.586Z" fill="#28334A"/>
<path d="M69.7811 205.151L71.0746 203.234L70.7562 203.234L69.4627 205.151L69.7811 205.151ZM75.5124 205.151L76.806 203.234L76.4876 203.234L75.194 205.151L75.5124 205.151ZM76.2289 205.151L77.5224 203.234L77.204 203.234L75.9105 205.151L76.2289 205.151ZM66.9154 205.151L68.209 203.234L67.8905 203.234L66.597 205.151L66.9154 205.151ZM64.0497 205.151L65.3433 203.234L65.0249 203.234L63.7313 205.151L64.0497 205.151ZM65.4826 205.151L66.7761 203.234L66.4577 203.234L65.1642 205.151L65.4826 205.151ZM64.7662 205.151L66.0597 203.234L65.7413 203.234L64.4478 205.151L64.7662 205.151ZM69.0647 205.151L70.3582 203.234L70.0398 203.234L68.7463 205.151L69.0647 205.151ZM67.6318 205.151L68.9254 203.234L68.607 203.234L67.3134 205.151L67.6318 205.151ZM72.6468 205.151L73.9403 203.234L73.6219 203.234L72.3284 205.151L72.6468 205.151ZM71.9303 205.151L73.2239 203.234L72.9055 203.234L71.6119 205.151L71.9303 205.151ZM70.4975 205.151L71.791 203.234L71.4726 203.234L70.1791 205.151L70.4975 205.151ZM74.796 205.151L76.0896 203.234L75.7711 203.234L74.4776 205.151L74.796 205.151ZM68.3483 205.151L69.6418 203.234L69.3234 203.234L68.0298 205.151L68.3483 205.151ZM66.199 205.151L67.4925 203.234L67.1741 203.234L65.8806 205.151L66.199 205.151ZM63.3333 205.151L64.6269 203.234L64.3682 203.234L63.0746 205.151L63.3333 205.151ZM74.0796 205.151L75.3731 203.234L75.0547 203.234L73.7612 205.151L74.0796 205.151ZM73.3632 205.151L74.6567 203.234L74.3383 203.234L73.0448 205.151L73.3632 205.151ZM71.2139 205.151L72.5075 203.234L72.1891 203.234L70.8955 205.151L71.2139 205.151ZM76.5871 206.583L77.7612 204.841L77.7612 204.473L76.5871 206.196L76.5871 206.583ZM76.5871 205.673L77.7612 203.951L77.7612 203.467L76.5871 205.209L76.5871 205.673ZM63.791 203.234L62.4776 205.151L62.7761 205.151L64.0696 203.234L63.791 203.234ZM77.7612 205.654L77.7612 205.306L76.5871 207.048L76.5871 207.377L77.7612 205.654ZM76.2289 207.9L76.2289 205.499L62.2388 205.499L62.2388 207.9L76.2289 207.9Z" fill="#28334A"/>
<path d="M76.1891 197.697L77.4826 195.781L77.1642 195.781L75.8706 197.697L76.1891 197.697ZM75.4726 197.697L76.7662 195.781L76.4478 195.781L75.1542 197.697L75.4726 197.697ZM74.7562 197.697L76.0498 195.781L75.7313 195.781L74.4378 197.697L74.7562 197.697ZM74.0398 197.697L75.3333 195.781L75.0149 195.781L73.7214 197.697L74.0398 197.697ZM65.4428 197.697L66.7363 195.781L66.4179 195.781L65.1244 197.697L65.4428 197.697ZM73.3234 197.697L74.6169 195.781L74.2985 195.781L73.005 197.697L73.3234 197.697ZM72.607 197.697L73.9005 195.781L73.5821 195.781L72.2886 197.697L72.607 197.697ZM71.8905 197.697L73.1841 195.781L72.8657 195.781L71.5721 197.697L71.8905 197.697ZM66.8756 197.697L68.1692 195.781L67.8507 195.781L66.5572 197.697L66.8756 197.697ZM66.1592 197.697L67.4527 195.781L67.1343 195.781L65.8408 197.697L66.1592 197.697ZM69.3234 191.967L70.6368 190.051L70.3184 190.051L69.005 191.967L69.3234 191.967ZM63.3731 191.232L64.6866 189.315L64.3682 189.315L63.0547 191.232L63.3731 191.232ZM70.7562 191.967L72.0697 190.051L71.7512 190.051L70.4378 191.967L70.7562 191.967ZM70.0398 191.967L71.3532 190.051L71.0348 190.051L69.7214 191.967L70.0398 191.967ZM64.0896 191.232L65.403 189.315L65.0846 189.315L63.7711 191.232L64.0896 191.232ZM66.0398 189.315L65.801 189.315L64.4876 191.232L64.806 191.232L66.0398 189.412L66.0398 189.315ZM72.3085 195.781L72.3085 195.549L71.1343 197.291L71.1343 197.697L71.1741 197.697L72.4677 195.781L72.3085 195.781ZM64.8657 197.504L66.0398 195.762L66.0398 195.278L64.8657 197.02L64.8657 197.504ZM76.5871 199.13L77.7612 197.407L77.7612 197.02L76.5871 198.743L76.5871 199.13ZM71.1343 193.535L72.3085 191.793L72.3085 191.309L71.1343 193.051L71.1343 193.535ZM71.1343 196.71L72.3085 194.968L72.3085 194.484L71.1343 196.226L71.1343 196.71ZM71.1343 192.471L72.3085 190.748L72.3085 190.264L71.1343 191.987L71.1343 192.471ZM76.5871 198.162L77.7612 196.439L77.7612 195.955L76.5672 197.697L76.5871 197.697L76.5871 198.162ZM64.8657 196.439L66.0398 194.697L66.0398 194.232L64.8657 195.955L64.8657 196.439ZM71.1343 194.581L72.3085 192.858L72.3085 192.374L71.1343 194.116L71.1343 194.581ZM71.1343 195.646L72.3085 193.903L72.3085 193.439L71.1343 195.162L71.1343 195.646ZM64.8657 193.264L66.0398 191.542L66.0398 191.058L64.8657 192.8L64.8657 193.264ZM64.8657 192.2L66.0398 190.477L66.0398 189.993L64.8657 191.735L64.8657 192.2ZM64.8657 194.329L66.0398 192.587L66.0398 192.122L64.8657 193.845L64.8657 194.329ZM64.8657 195.374L66.0398 193.652L66.0398 193.168L64.8657 194.91L64.8657 195.374ZM63.791 189.315L62.4776 191.232L62.7164 191.232L64.0298 189.315L63.791 189.315ZM68.2289 196.768L68.2289 196.284L67.2736 197.697L67.592 197.697L68.2289 196.768ZM77.7612 198.181L77.7612 197.852L76.5871 199.595L76.5871 199.904L77.7612 198.181ZM68.2289 197.697L68.2289 197.33L67.99 197.697L68.2289 197.697ZM76.2289 200.427L76.2289 198.046L70.7761 198.046L70.7761 192.316L68.5871 192.316L68.5871 198.046L64.5075 198.046L64.5075 191.58L62.2388 191.58L62.2388 200.427L76.2289 200.427Z" fill="#28334A"/>
<path d="M67.5522 182.029L68.8657 180.112L68.5274 180.112L67.2338 182.029L67.5522 182.029ZM64.1492 177.557L65.4428 175.64L65.1244 175.64L63.8109 177.557L64.1492 177.557ZM63.4328 177.557L64.7264 175.64L64.408 175.64L63.0945 177.557L63.4328 177.557ZM66.0398 175.64L65.8408 175.64L64.5274 177.557L64.8657 177.557L66.0398 175.815L66.0398 175.64ZM74 182.029L75.3134 180.112L74.995 180.112L73.6816 182.029L74 182.029ZM71.8507 182.029L73.1642 180.112L72.8458 180.112L71.5323 182.029L71.8507 182.029ZM70.4179 182.029L71.7313 180.112L71.4129 180.112L70.0995 182.029L70.4179 182.029ZM72.5672 182.029L73.8806 180.112L73.5622 180.112L72.2488 182.029L72.5672 182.029ZM68.9851 182.029L70.2985 180.112L69.9801 180.112L68.6667 182.029L68.9851 182.029ZM66.8358 182.029L68.1493 180.112L67.8308 180.112L66.5174 182.029L66.8358 182.029ZM69.7015 182.029L71.0149 180.112L70.6965 180.112L69.3831 182.029L69.7015 182.029ZM65.403 182.029L66.7164 180.112L66.398 180.112L65.0846 182.029L65.403 182.029ZM66.1194 182.029L67.4328 180.112L67.1144 180.112L65.801 182.029L66.1194 182.029ZM71.1343 182.029L72.4478 180.112L72.1294 180.112L70.8159 182.029L71.1343 182.029ZM76.1493 182.029L77.4428 180.112L77.1244 180.112L75.8308 182.029L76.1493 182.029ZM75.4328 182.029L76.7264 180.112L76.408 180.112L75.1144 182.029L75.4328 182.029ZM68.2687 182.029L69.5821 180.112L69.2637 180.112L67.9502 182.029L68.2687 182.029ZM74.7164 182.029L76.0299 180.112L75.7114 180.112L74.398 182.029L74.7164 182.029ZM73.2836 182.029L74.597 180.112L74.2786 180.112L72.9652 182.029L73.2836 182.029ZM76.5871 182.455L77.7612 180.712L77.7612 180.248L76.5473 182.029L76.5871 182.029L76.5871 182.455ZM64.8657 178.602L66.0398 176.86L66.0398 176.395L64.8657 178.118L64.8657 178.602ZM64.8657 179.648L66.0398 177.925L66.0398 177.441L64.8657 179.183L64.8657 179.648ZM64.8657 181.777L66.0398 180.035L66.0398 179.57L64.8657 181.293L64.8657 181.777ZM64.8657 180.712L66.0398 178.989L66.0398 178.506L64.8657 180.248L64.8657 180.712ZM64.8657 188.01L66.0398 186.288L66.0398 185.9L64.8657 187.643L64.8657 188.01ZM76.5871 183.423L77.7612 181.7L77.7612 181.254L76.5871 182.997L76.5871 183.423ZM63.791 175.64L62.4776 177.557L62.7761 177.557L64.0696 175.64L63.791 175.64ZM66.0398 185.145L65.8408 185.145L64.8657 186.578L64.8657 187.062L66.0398 185.32L66.0398 185.145ZM77.7612 182.551L77.7612 182.145L76.5871 183.868L76.5871 184.274L77.7612 182.551ZM64.8657 185.997L65.4428 185.145L65.1244 185.145L64.8657 185.513L64.8657 185.997ZM66.0398 187.101L66.0398 186.752L64.8657 188.475L64.8657 188.824L66.0398 187.101ZM64.5075 189.346L64.5075 184.797L76.2289 184.797L76.2289 182.377L64.5075 182.377L64.5075 177.905L62.2388 177.905L62.2388 189.346L64.5075 189.346Z" fill="#28334A"/>
<path d="M76.3682 160.003L77.7214 158.028L77.4826 157.893L76.1493 159.887L76.3682 160.003ZM75.8507 159.732L77.1841 157.757L76.9453 157.622L75.6119 159.616L75.8507 159.732ZM74.796 159.19L76.1294 157.196L75.8905 157.08L74.5572 159.054L74.796 159.19ZM74.3383 165.152L75.6318 163.236L75.3134 163.236L74 165.152L74.3383 165.152ZM74.2587 158.919L75.6119 156.925L75.3731 156.809L74.0199 158.783L74.2587 158.919ZM77.7612 151.505L77.5025 151.524L76.209 153.421L76.5274 153.421L77.7612 151.621L77.7612 151.505ZM74.597 163.216L73.3035 165.133L73.6219 165.133L74.9154 163.216L74.597 163.216ZM72.9055 165.133L74.199 163.216L73.8806 163.216L72.5871 165.133L72.9055 165.133ZM73.3433 163.216L73.0647 163.371L71.8706 165.133L72.209 165.133L73.5025 163.216L73.3433 163.216ZM64.8856 153.731L66.1592 151.834L65.8408 151.834L64.5473 153.731L64.8856 153.731ZM67.0746 153.673L68.3483 151.776L68.0298 151.776L66.7363 153.673L67.0746 153.673ZM69.2637 153.615L70.5373 151.717L70.2189 151.717L68.9254 153.615L69.2637 153.615ZM72.9055 153.518L74.199 151.621L73.8607 151.621L72.5871 153.518L72.9055 153.518ZM73.6418 153.498L74.9154 151.601L74.597 151.601L73.3035 153.498L73.6418 153.498ZM76.0299 163.236L74.7164 165.152L75.0348 165.152L76.3284 163.236L76.0299 163.236ZM75.7512 165.152L77.0448 163.236L76.7264 163.236L75.4328 165.152L75.7512 165.152ZM75.3134 159.461L76.6468 157.467L76.4279 157.351L75.0945 159.345L75.3134 159.461ZM73.7214 158.628L75.0746 156.654L74.8358 156.538L73.5025 158.512L73.7214 158.628ZM77.7612 163.236L77.4428 163.236L76.1493 165.152L76.4677 165.152L77.7612 163.255L77.7612 163.236ZM74.3582 153.479L75.6517 151.582L75.3333 151.582L74.0398 153.479L74.3582 153.479ZM69.9801 153.595L71.2736 151.698L70.9552 151.698L69.6617 153.595L69.9801 153.595ZM75.8308 153.44L77.1045 151.543L76.7861 151.543L75.4925 153.44L75.8308 153.44ZM72.1692 153.537L73.4627 151.64L73.1443 151.64L71.8507 153.537L72.1692 153.537ZM75.0945 153.46L76.3682 151.563L76.0498 151.563L74.7761 153.46L75.0945 153.46ZM63.4129 153.769L64.7065 151.872L64.3881 151.872L63.0945 153.769L63.4129 153.769ZM65.602 153.711L66.8955 151.814L66.5771 151.814L65.2836 153.711L65.602 153.711ZM67.791 153.653L69.0846 151.756L68.7662 151.756L67.4726 153.653L67.791 153.653ZM70.7164 153.576L71.99 151.679L71.6716 151.679L70.398 153.576L70.7164 153.576ZM64.1492 153.75L65.4229 151.853L65.1045 151.853L63.8308 153.75L64.1492 153.75ZM71.4328 153.557L72.7264 151.659L72.408 151.659L71.1144 153.557L71.4328 153.557ZM66.3383 153.692L67.6119 151.795L67.2935 151.795L66.0199 153.692L66.3383 153.692ZM68.5274 153.634L69.801 151.737L69.4826 151.737L68.209 153.634L68.5274 153.634ZM73.204 158.357L74.4577 156.499L74.1194 156.518L72.9652 158.241L73.204 158.357ZM76.5871 166.043L77.7612 164.32L77.7612 163.836L76.5871 165.559L76.5871 166.043ZM62.4378 153.789L62.7562 153.789L64.0298 151.892L63.7313 151.892L62.4378 153.789ZM76.7065 160.584L77.8806 158.841L77.8806 158.377L76.6667 160.158L76.7065 160.177L76.7065 160.584ZM76.5871 155.473L77.7612 153.75L77.7612 153.266L76.5871 155.008L76.5871 155.473ZM76.5871 167.107L77.7612 165.365L77.7612 164.901L76.5871 166.623L76.5871 167.107ZM76.5871 154.408L77.7612 152.685L77.7612 152.221L76.5871 153.963L76.5871 154.408ZM66.9751 163.332L68.0099 161.803L67.4726 162.094L66.4577 163.623L66.9751 163.332ZM65.8209 163.971L66.8557 162.442L66.3383 162.732L65.3035 164.242L65.8209 163.971ZM64.6866 164.591L65.7015 163.081L65.1841 163.371L64.1492 164.881L64.6866 164.591ZM63.5124 165.249L64.5473 163.72L64.0497 163.991L62.995 165.539L63.5124 165.249ZM68.1094 162.713L69.1443 161.184L68.6269 161.455L67.592 162.984L68.1094 162.713ZM72.6667 158.086L73.7413 156.518L73.4229 156.518L72.4279 157.97L72.6667 158.086ZM69.2637 162.055L70.2786 160.545L69.7811 160.835L68.7463 162.345L69.2637 162.055ZM71.4925 165.113L72.4478 163.7L71.9502 163.952L71.1741 165.113L71.4925 165.113ZM72.1294 157.815L73.005 156.518L72.7065 156.518L71.9104 157.699L72.1294 157.815ZM70.398 161.435L71.0746 160.448L70.8358 160.313L69.9005 161.706L70.398 161.435ZM71.6119 157.544L72.2886 156.518L71.9701 156.518L71.3731 157.428L71.6119 157.544ZM70.7761 165.113L71.3532 164.281L70.8358 164.533L70.4577 165.113L70.7761 165.113ZM71.0746 157.273L71.592 156.518L71.2537 156.518L70.8358 157.157L71.0746 157.273ZM70.5373 157.002L70.8756 156.518L70.5572 156.518L70.2985 156.886L70.5373 157.002ZM71.5522 160.797L71.6119 160.719L71.3532 160.603L71.0348 161.068L71.5522 160.797ZM70 156.731L70.1592 156.518L69.8209 156.518L69.7612 156.615L70 156.731ZM70.0597 165.113L70.2189 164.862L69.7413 165.113L70.0597 165.113ZM62.1791 154.157L62.1791 155.221L72.3682 160.738L62.1791 166.391L62.1791 167.456L76.2289 167.843L76.2289 165.501L68.3284 165.462L76.3483 161.222L76.3483 160.39L68.1891 156.189L76.2289 156.131L76.2289 153.769L62.1791 154.157Z" fill="#28334A"/>
<path d="M76.2289 148.891L76.2289 140.044L73.9602 140.044L73.9602 146.49L70.6169 146.49L70.6169 140.644L68.4279 140.644L68.4279 146.49L64.5075 146.49L64.5075 140.044L62.2388 140.044L62.2388 148.891L76.2289 148.891ZM71.2537 146.142L72.5473 144.225L72.2289 144.225L70.9751 146.064L70.9751 146.142L71.2537 146.142ZM71.9701 146.142L73.2637 144.225L72.9453 144.225L71.6517 146.142L71.9701 146.142ZM75.6119 139.695L76.9055 137.779L76.5871 137.779L75.2935 139.695L75.6119 139.695ZM74.8955 139.695L76.209 137.779L75.8905 137.779L74.5771 139.695L74.8955 139.695ZM64.1492 139.695L65.4627 137.779L65.1443 137.779L63.8308 139.695L64.1492 139.695ZM70.199 140.296L71.4925 138.379L71.1741 138.379L69.8806 140.296L70.199 140.296ZM66.2388 146.142L67.5323 144.225L67.2139 144.225L65.9204 146.142L66.2388 146.142ZM65.5224 146.142L66.8159 144.225L66.4975 144.225L65.204 146.142L65.5224 146.142ZM63.4328 139.695L64.7463 137.779L64.4279 137.779L63.1144 139.695L63.4328 139.695ZM76.3284 139.695L77.6219 137.779L77.3035 137.779L76.0099 139.695L76.3284 139.695ZM72.1493 138.379L71.8905 138.379L70.597 140.296L70.9154 140.296L72.1493 138.457L72.1493 138.379ZM66.0398 137.779L65.8607 137.779L64.5473 139.695L64.8657 139.695L66.0398 137.973L66.0398 137.779ZM68.0696 144.225L67.9303 144.225L66.6368 146.142L66.9552 146.142L68.0696 144.496L68.0696 144.225ZM63.791 137.779L62.4776 139.695L62.7761 139.695L64.0895 137.779L63.791 137.779ZM70.9751 143.374L72.1493 141.651L72.1493 141.167L70.9751 142.89L70.9751 143.374ZM76.5871 147.787L77.7612 146.045L77.7612 145.561L76.5871 147.303L76.5871 147.787ZM66.0398 144.225L66.0398 143.838L64.8657 145.561L64.8657 146.045L66.0995 144.225L66.0398 144.225ZM64.8657 144.98L66.0398 143.257L66.0398 142.773L64.8657 144.516L64.8657 144.98ZM76.5871 142.483L77.7612 140.76L77.7612 140.276L76.5871 142.018L76.5871 142.483ZM64.8657 143.935L66.0398 142.193L66.0398 141.728L64.8657 143.451L64.8657 143.935ZM70.9751 145.484L72.1493 143.761L72.1493 143.277L70.9751 145.019L70.9751 145.484ZM76.5871 143.548L77.7612 141.825L77.7612 141.341L76.5871 143.083L76.5871 143.548ZM64.8657 141.825L66.0398 140.083L66.0398 139.618L64.8657 141.341L64.8657 141.825ZM76.5871 141.438L77.7612 139.695L77.7612 139.231L76.5871 140.954L76.5871 141.438ZM76.5871 145.658L77.7612 143.935L77.7612 143.451L76.5871 145.193L76.5871 145.658ZM76.5871 140.373L77.7612 138.65L77.7612 138.166L76.5871 139.908L76.5871 140.373ZM76.5871 146.723L77.7612 144.98L77.7612 144.516L76.5871 146.239L76.5871 146.723ZM76.5871 144.613L77.7612 142.87L77.7612 142.406L76.5871 144.129L76.5871 144.613ZM64.8657 142.87L66.0398 141.147L66.0398 140.663L64.8657 142.406L64.8657 142.87ZM70.9751 142.309L72.1493 140.586L72.1493 140.102L70.9751 141.844L70.9751 142.309ZM70.9751 144.438L72.1493 142.696L72.1493 142.231L70.9751 143.954L70.9751 144.438ZM70.9751 141.264L72.1493 139.521L72.1493 139.057L70.9751 140.78L70.9751 141.264ZM69.9801 138.379L68.6667 140.296L68.9652 140.296L70.2587 138.379L69.9801 138.379ZM64.8657 140.76L66.0398 139.018L66.0398 138.553L64.8657 140.296L64.8657 140.76ZM69.5622 140.296L70.8557 138.379L70.5771 138.379L69.2836 140.296L69.5622 140.296ZM72.6866 146.142L73.602 144.787L73.602 144.303L72.3682 146.142L72.6866 146.142ZM67.6716 146.142L68.0696 145.542L68.0696 145.077L67.3532 146.142L67.6716 146.142ZM73.0846 146.142L73.403 146.142L73.602 145.832L73.602 145.367L73.0846 146.142ZM77.7612 146.645L77.7612 146.626L76.5871 148.349L76.5871 148.368L77.7612 146.645Z" fill="#28334A"/>
<path d="M69.602 131.474L70.9353 129.499L70.6766 129.383L69.3433 131.358L69.602 131.474ZM76.2488 134.32L77.602 132.345L77.3433 132.229L76.0099 134.223L76.2488 134.32ZM75.7114 134.087L77.0448 132.093L76.7861 131.997L75.4527 133.971L75.7114 134.087ZM75.1542 133.855L76.4876 131.861L76.2289 131.764L74.8955 133.739L75.1542 133.855ZM74.597 133.623L75.9303 131.629L75.6915 131.532L74.3383 133.507L74.597 133.623ZM74.0398 133.371L75.3731 131.396L75.1343 131.28L73.801 133.236L73.801 133.274L74.0398 133.371ZM76.5871 134.9L77.7612 133.158L77.7612 132.694L76.5672 134.455L76.5871 134.455L76.5871 134.9ZM73.801 132.655L74.9751 130.932L74.9751 130.448L73.801 132.19L73.801 132.655ZM73.801 131.609L74.9751 129.867L74.9751 129.403L73.801 131.125L73.801 131.609ZM73.801 130.545L74.9751 128.822L74.9751 128.338L73.801 130.08L73.801 130.545ZM76.5871 125.376L77.7612 123.653L77.7612 123.169L76.5871 124.911L76.5871 125.376ZM76.5871 135.946L77.7612 134.223L77.7612 133.739L76.5871 135.481L76.5871 135.946ZM74.9751 127.389L74.8756 127.428L73.801 129.015L73.801 129.499L74.9751 127.757L74.9751 127.389ZM72.3881 125.241L73.5025 123.595L73.0249 123.808L71.9104 125.453L72.3881 125.241ZM71.3731 125.705L72.4876 124.06L72.0099 124.273L70.8955 125.918L71.3731 125.705ZM76.5871 124.331L77.7612 122.588L77.7612 122.124L76.5871 123.866L76.5871 124.331ZM69.8408 129.596L68.7861 131.125L69.0448 131.242L70.2786 129.403C70.1393 129.48 69.9801 129.538 69.8408 129.596ZM76.5075 123.382L77.6219 121.717L77.1642 121.93L76.0498 123.595L76.5075 123.382ZM68.2487 127.118L69.3831 125.434L68.9254 125.647L67.791 127.331L68.2487 127.118ZM74.4378 124.331L75.5721 122.647L75.1144 122.859L73.9801 124.524L74.4378 124.331ZM66.1791 128.067L67.3134 126.383L66.8557 126.596L65.7015 128.28L66.1791 128.067ZM64.1094 129.015L65.2438 127.331L64.7861 127.544L63.6318 129.228L64.1094 129.015ZM65.1443 128.531L66.2786 126.847L65.8209 127.06L64.6667 128.744L65.1443 128.531ZM69.2836 126.634L70.4179 124.989L69.9602 125.182L68.8259 126.847L69.2836 126.634ZM73.4229 124.776L74.5373 123.13L74.0796 123.324L72.9652 124.989L73.4229 124.776ZM70.3184 126.17L71.4527 124.524L70.995 124.718L69.8607 126.383L70.3184 126.17ZM67.2139 127.583L68.3483 125.918L67.8905 126.112L66.7562 127.796L67.2139 127.583ZM75.4726 123.847L76.5871 122.182L76.1493 122.395L75.0149 124.06L75.4726 123.847ZM70.1592 131.706L71.1144 130.293L71.1144 129.809L69.9005 131.609L70.1592 131.706ZM62.6368 129.674L63.0547 129.48L64.2089 127.796L63.7711 127.989L62.6368 129.674ZM68.806 130.041L68.2289 130.893L68.4876 130.99L69.2637 129.848L68.806 130.041ZM71.1144 131.338L71.1144 130.854L70.4577 131.842L70.6965 131.958L71.1144 131.338ZM73.801 128.435L74.3184 127.68L73.8806 127.873L73.801 127.97L73.801 128.435ZM67.8109 130.467L67.6915 130.661L67.9303 130.758L68.2687 130.293L67.8109 130.467ZM71.1144 132.132L71.1144 131.919L71.0149 132.093L71.1144 132.132ZM76.2289 126.46L76.2289 123.885L62.1194 130.274L62.1194 130.816L76.2289 137.204L76.2289 134.687L73.4428 133.507L73.4428 127.66L76.2289 126.46ZM66.6567 130.583L71.4726 128.512L71.4726 132.655L66.6567 130.583Z" fill="#28334A"/>
<path d="M67.5522 116.063L68.8657 114.146L68.5274 114.146L67.2338 116.063L67.5522 116.063ZM64.1492 111.591L65.4428 109.675L65.1244 109.675L63.8109 111.591L64.1492 111.591ZM63.4328 111.591L64.7264 109.675L64.408 109.675L63.0945 111.591L63.4328 111.591ZM66.0398 109.675L65.8408 109.675L64.5274 111.591L64.8657 111.591L66.0398 109.849L66.0398 109.675ZM74 116.063L75.3134 114.146L74.995 114.146L73.6816 116.063L74 116.063ZM71.8507 116.063L73.1642 114.146L72.8458 114.146L71.5323 116.063L71.8507 116.063ZM70.4179 116.063L71.7313 114.146L71.4129 114.146L70.0995 116.063L70.4179 116.063ZM72.5672 116.063L73.8806 114.146L73.5622 114.146L72.2488 116.063L72.5672 116.063ZM68.9851 116.063L70.2985 114.146L69.9801 114.146L68.6667 116.063L68.9851 116.063ZM66.8358 116.063L68.1493 114.146L67.8308 114.146L66.5174 116.063L66.8358 116.063ZM69.7015 116.063L71.0149 114.146L70.6965 114.146L69.3831 116.063L69.7015 116.063ZM65.403 116.063L66.7164 114.146L66.398 114.146L65.0846 116.063L65.403 116.063ZM66.1194 116.063L67.4328 114.146L67.1144 114.146L65.801 116.063L66.1194 116.063ZM71.1343 116.063L72.4478 114.146L72.1293 114.146L70.8159 116.063L71.1343 116.063ZM76.1493 116.063L77.4428 114.146L77.1244 114.146L75.8308 116.063L76.1493 116.063ZM75.4328 116.063L76.7264 114.146L76.408 114.146L75.1144 116.063L75.4328 116.063ZM68.2687 116.063L69.5821 114.146L69.2637 114.146L67.9502 116.063L68.2687 116.063ZM74.7164 116.063L76.0298 114.146L75.7114 114.146L74.398 116.063L74.7164 116.063ZM73.2836 116.063L74.597 114.146L74.2786 114.146L72.9652 116.063L73.2836 116.063ZM76.5871 116.489L77.7612 114.746L77.7612 114.282L76.5473 116.063L76.5871 116.063L76.5871 116.489ZM64.8657 112.636L66.0398 110.894L66.0398 110.43L64.8657 112.152L64.8657 112.636ZM64.8657 113.682L66.0398 111.959L66.0398 111.475L64.8657 113.217L64.8657 113.682ZM64.8657 115.811L66.0398 114.069L66.0398 113.604L64.8657 115.327L64.8657 115.811ZM64.8657 114.746L66.0398 113.024L66.0398 112.54L64.8657 114.282L64.8657 114.746ZM64.8657 122.045L66.0398 120.322L66.0398 119.935L64.8657 121.677L64.8657 122.045ZM76.5871 117.457L77.7612 115.734L77.7612 115.289L76.5871 117.031L76.5871 117.457ZM63.791 109.675L62.4776 111.591L62.7761 111.591L64.0696 109.675L63.791 109.675ZM66.0398 119.18L65.8408 119.18L64.8657 120.612L64.8657 121.096L66.0398 119.354L66.0398 119.18ZM77.7612 116.586L77.7612 116.179L76.5871 117.902L76.5871 118.308L77.7612 116.586ZM64.8657 120.031L65.4428 119.18L65.1244 119.18L64.8657 119.547L64.8657 120.031ZM66.0398 121.135L66.0398 120.786L64.8657 122.509L64.8657 122.858L66.0398 121.135ZM64.5075 123.38L64.5075 118.831L76.2289 118.831L76.2289 116.411L64.5075 116.411L64.5075 111.94L62.2388 111.94L62.2388 123.38L64.5075 123.38Z" fill="#28334A"/>
<path d="M72.4478 100.265C70.6169 100.265 69.3831 101.136 68.1691 104.175C67.4527 106.092 66.8955 106.827 66 106.827C65.0249 106.827 64.2089 106.169 64.2089 104.737C64.2089 103.691 64.6866 102.491 65.1443 101.697L62.9552 100.923C62.4378 101.794 62 103.227 62 104.679C62 107.582 63.9502 109.247 66.0597 109.247C67.7313 109.247 69.0249 108.337 70.0199 105.685C70.9552 103.227 71.5124 102.723 72.4478 102.723C73.3433 102.723 74.1592 103.459 74.1592 105.066C74.1592 106.285 73.6816 107.64 72.9055 108.763L75.1343 109.596C75.9104 108.357 76.4677 106.75 76.4677 105.143C76.4677 102.104 74.9353 100.265 72.4478 100.265ZM66.8756 104.446L65.5423 106.421L65.8408 106.479L67.1542 104.524C67.0547 104.504 66.9751 104.485 66.8756 104.446ZM74.8358 100.594L76.1891 98.6001L75.9502 98.4646L74.6169 100.439C74.6965 100.497 74.7761 100.536 74.8358 100.594ZM64.4677 101.097L65.801 99.1228C65.7214 99.0841 65.6219 99.0454 65.5423 99.026L64.2089 101.001L64.4677 101.097ZM74.3184 100.304L75.6517 98.3097L75.4129 98.213L74.0597 100.188L74.3184 100.304ZM66.3781 104.137L65.0448 106.111L65.2438 106.285L66.597 104.291C66.5174 104.253 66.4577 104.195 66.3781 104.137ZM66.1194 99.2389L64.7861 101.213L65.0448 101.291L66.3781 99.3357C66.2786 99.297 66.199 99.2583 66.1194 99.2389ZM75.3134 100.942L76.6269 98.9679L76.4279 98.7937L75.1144 100.768L75.3134 100.942ZM73.3632 98.0581L72.0895 99.9358C72.209 99.9165 72.3085 99.9165 72.4279 99.9165L73.7214 98.0194C73.602 98.0194 73.4826 98.0387 73.3632 98.0581ZM74.796 98.0774L73.4627 100.013C73.5622 100.033 73.6617 100.052 73.7413 100.091L75.0746 98.1162L74.796 98.0774ZM75.7313 101.388L77.0448 99.4325L76.8657 99.2196L75.5522 101.194L75.7313 101.388ZM76.3682 102.549L77.6617 100.633L77.5423 100.323L76.2488 102.259L76.3682 102.549ZM66 103.633L64.7065 105.569L64.8259 105.84L66.1592 103.885L66 103.633ZM76.607 103.265L77.8607 101.407C77.8408 101.272 77.8209 101.155 77.7811 101.039L76.5075 102.936L76.607 103.265ZM64.9851 98.8131L63.6318 100.807L63.8905 100.884L65.2239 98.9099C65.1443 98.8711 65.0647 98.8324 64.9851 98.8131ZM73.1045 99.9552L74.4179 98.0194C74.3184 98 74.2189 98 74.1194 98L72.806 99.9358C72.9055 99.9358 73.005 99.9552 73.1045 99.9552ZM76.0696 101.93L77.3831 99.9746L77.2438 99.7229L75.9303 101.678C75.9701 101.756 76.0298 101.833 76.0696 101.93ZM65.7811 102.917L64.5672 104.698L64.5672 104.737C64.5672 104.872 64.5871 105.008 64.607 105.124L65.8607 103.265C65.8209 103.149 65.801 103.033 65.7811 102.917ZM76.7463 104.079L77.9801 102.278L77.9403 101.872L76.7065 103.691L76.7463 104.079ZM72.4478 98.3678L71.2935 100.052L71.6716 99.9746L72.8856 98.1742C72.7463 98.2323 72.5871 98.2904 72.4478 98.3678ZM76.8259 105.046L77.9801 103.324C77.9801 103.169 78 102.994 78 102.84L76.806 104.601C76.806 104.737 76.8259 104.892 76.8259 105.046ZM64.4876 98.6388L63.1542 100.633L63.3532 100.71L64.7065 98.7163C64.6468 98.6775 64.5672 98.6582 64.4876 98.6388ZM67.6517 104.562L67.5323 104.562L66.2388 106.46C66.4378 106.402 66.597 106.305 66.7761 106.15L67.3134 105.356C67.4129 105.124 67.5323 104.872 67.6517 104.562ZM76.7264 106.227L77.7413 104.737C77.801 104.504 77.8408 104.272 77.8806 104.04L76.806 105.647C76.7861 105.84 76.7662 106.034 76.7264 106.227ZM65.7811 101.833L64.9055 103.13C64.806 103.42 64.7264 103.711 64.6667 103.982L65.7413 102.375C65.7413 102.201 65.7612 102.027 65.7811 101.833ZM66.3781 99.9358L65.3632 101.407L65.6219 101.504L65.9602 101.001C66.0796 100.613 66.2189 100.265 66.3781 99.9358ZM76.408 107.602L76.6866 107.195C76.9453 106.789 77.1642 106.363 77.3632 105.898L76.5672 107.06L76.408 107.602ZM70.8955 99.8197L70.5572 100.323C70.6368 100.284 70.7164 100.265 70.7761 100.226L71.6716 98.9099C71.4129 99.1615 71.1542 99.4519 70.8955 99.8197Z" fill="#28334A"/>
<path d="M448 215L448 303" stroke="#28334A" stroke-dasharray="2 2"/>
<path d="M448 37L448 122" stroke="#28334A" stroke-dasharray="2 2"/>
</g>
<path d="M564.163 150.748L549.386 138.317C511.721 106.651 462.279 106.651 424.614 138.317L409.837 150.748C404.949 154.867 402 161.729 402 169.069C402 176.406 404.935 183.268 409.837 187.387L424.614 199.818C462.279 231.484 511.721 231.484 549.386 199.818L564.166 187.387C569.054 183.268 572 176.406 572 169.066C572 161.726 569.065 154.867 564.163 150.748Z" fill="white"/>
<path d="M475.641 170.676C475.718 170.35 475.801 169.994 475.899 169.632C475.641 168.499 475.4 167.282 475.237 166.371C475.226 166.198 475.156 166.035 475.039 165.908C474.922 165.781 474.765 165.7 474.595 165.677C474.613 165.73 474.627 165.785 474.637 165.841C474.87 167.206 475.307 169.222 475.641 170.676Z" fill="#28334A"/>
<path d="M462.756 179.505C463.586 179.485 464.411 179.369 465.215 179.16C466.853 178.745 467.911 177.706 468.25 175.994C468.475 174.812 468.493 173.6 468.302 172.412C467.937 169.974 466.405 168.551 463.978 168.402C462.987 168.339 461.991 168.36 460.997 168.334C460.182 168.313 459.734 167.963 459.62 167.159C459.55 166.675 459.55 166.184 459.62 165.7C459.737 164.917 460.164 164.575 460.948 164.559C461.897 164.536 462.844 164.546 463.794 164.536C463.97 164.536 464.053 164.577 464.092 164.776C464.19 165.332 464.319 165.883 464.436 166.428H467.632V160.865C467.531 160.865 467.461 160.852 467.393 160.852C465.093 160.852 462.793 160.852 460.495 160.852C460.022 160.857 459.55 160.904 459.085 160.993C457.273 161.343 456.06 162.377 455.576 164.191C455.276 165.464 455.242 166.786 455.478 168.073C455.811 170.326 457.4 171.83 459.657 171.963C460.692 172.023 461.711 172.01 462.738 172.036C463.621 172.06 464.074 172.459 464.156 173.341C464.194 173.747 464.194 174.155 464.156 174.56C464.076 175.388 463.639 175.803 462.829 175.824C461.696 175.853 460.562 175.842 459.431 175.855C459.25 175.855 459.173 175.801 459.139 175.594C459.038 175.038 458.909 174.487 458.792 173.95H455.633V179.505C455.708 179.505 455.762 179.518 455.819 179.518C458.13 179.523 460.441 179.552 462.756 179.505Z" fill="#28334A"/>
<path d="M464.92 167.274L465 167.653H469.052V161.16L468.522 161.126H468.45V167.131H464.884C464.899 167.172 464.91 167.225 464.92 167.274Z" fill="#28334A"/>
<path d="M462.606 173.247C462.963 173.247 463.318 173.247 463.675 173.266C463.776 173.267 463.876 173.278 463.975 173.297C463.864 172.905 463.603 172.749 463.075 172.736C462.72 172.736 462.363 172.736 462.009 172.717C461.344 172.717 460.655 172.702 459.977 172.66C459.006 172.617 458.068 172.292 457.276 171.723C458.149 172.619 459.33 173.144 460.575 173.19C461.256 173.229 461.941 173.24 462.606 173.247Z" fill="#28334A"/>
<path d="M470.592 169.076C470.39 169.042 470.183 169 469.971 168.948C470.011 169.069 470.079 169.179 470.169 169.27C470.259 169.361 470.368 169.429 470.488 169.47C470.587 169.498 470.687 169.519 470.786 169.54L470.7 169.109L470.592 169.076Z" fill="#28334A"/>
<path d="M461.911 165.781C462.482 165.781 463.067 165.765 463.634 165.763H464.107C464.068 165.589 464.031 165.415 463.999 165.241H463.036C462.469 165.241 461.882 165.241 461.31 165.256C460.738 165.272 460.518 165.455 460.438 165.99C460.376 166.428 460.376 166.873 460.438 167.311C460.505 167.773 460.679 167.982 461.082 168.05C461.063 167.981 461.048 167.911 461.038 167.841C460.976 167.403 460.976 166.958 461.038 166.52C461.119 165.979 461.339 165.794 461.911 165.781Z" fill="#28334A"/>
<path d="M460.123 174.224H459.636C459.66 174.323 459.68 174.422 459.704 174.524C459.779 174.869 459.859 175.224 459.926 175.584H460.418L460.301 175.062C460.268 174.91 460.237 174.762 460.203 174.61L460.123 174.224Z" fill="#28334A"/>
<path d="M515.989 162.113H515.389V165.154H515.989V162.113Z" fill="#28334A"/>
<path d="M505.784 164.267H505.419C504.943 164.288 504.836 164.496 504.818 164.828C504.818 165.016 504.818 165.089 504.818 165.133H505.465C505.525 164.932 505.675 164.81 506.032 164.794C506.154 164.794 506.275 164.794 506.397 164.794H508.653V160.494H508.04V164.267H505.784Z" fill="#28334A"/>
<path d="M477.607 179.536C477.587 179.734 477.492 179.917 477.341 180.046C477.191 180.174 476.997 180.239 476.8 180.226H476.784C476.23 180.226 475.674 180.226 475.118 180.226H473.441L473.55 180.748H475.718C476.274 180.748 476.831 180.748 477.384 180.748H477.4C477.596 180.757 477.788 180.691 477.938 180.563C478.088 180.435 478.184 180.255 478.207 180.058C478.466 178.845 478.875 177.001 479.229 175.464C479.121 174.996 478.989 174.448 478.862 173.934C478.474 175.597 477.917 178.046 477.607 179.536Z" fill="#28334A"/>
<path d="M559.093 152.339L545.286 140.938C510.094 111.879 463.913 111.879 428.727 140.938L414.919 152.339C410.342 156.119 407.602 162.416 407.602 169.149C407.602 175.884 410.342 182.181 414.919 185.961L428.727 197.362C463.918 226.421 510.099 226.421 545.286 197.362L559.093 185.961C563.671 182.181 566.411 175.884 566.411 169.149C566.411 162.413 563.673 156.119 559.093 152.339ZM433.273 199.795C430.797 198.137 428.357 196.315 425.981 194.357L420.85 190.109V148.18L425.981 143.943C428.365 141.985 430.797 140.163 433.273 138.505V199.795ZM528.929 187.569H446.172V153.944H457.716C460.115 153.078 472.043 149.076 487.556 149.076C503.069 149.076 514.985 153.078 517.381 153.944H528.929V187.569ZM554.244 189.021L547.796 194.357C545.845 195.973 543.855 197.474 541.844 198.894V139.406C543.855 140.839 545.845 142.327 547.796 143.943L554.244 149.266V189.021Z" fill="#28334A"/>
<path d="M481.52 168.59C481.644 169.243 481.851 170.078 482.037 170.806L482.257 169.807C482.203 169.564 482.154 169.331 482.112 169.117C481.976 168.397 481.837 167.675 481.696 166.953L481.437 165.661H480.94L481.087 166.423C481.243 167.149 481.388 167.869 481.52 168.59Z" fill="#28334A"/>
<path d="M493.57 163.933C493.083 163.932 492.606 163.793 492.193 163.531C492.243 163.588 492.292 163.643 492.343 163.698C492.582 163.941 492.867 164.134 493.181 164.264C493.494 164.395 493.831 164.462 494.17 164.46C494.507 164.463 494.84 164.398 495.151 164.268C495.462 164.139 495.745 163.949 495.982 163.708C496.219 163.465 496.405 163.177 496.531 162.861C496.657 162.544 496.719 162.206 496.714 161.865C496.707 161.434 496.593 161.012 496.384 160.636C496.174 160.26 495.875 159.943 495.513 159.714C495.895 160.167 496.108 160.74 496.114 161.335C496.119 161.676 496.057 162.015 495.932 162.331C495.806 162.648 495.619 162.936 495.381 163.178C495.144 163.419 494.862 163.61 494.551 163.739C494.24 163.869 493.906 163.935 493.57 163.933V163.933Z" fill="#28334A"/>
<path d="M493.221 163.238C493.496 163.241 493.768 163.188 494.022 163.083C494.276 162.977 494.507 162.821 494.7 162.624C494.893 162.426 495.045 162.192 495.147 161.934C495.248 161.676 495.297 161.401 495.291 161.124C495.281 160.57 495.059 160.043 494.67 159.653C494.281 159.263 493.756 159.041 493.208 159.035C492.662 159.053 492.143 159.281 491.758 159.672C491.373 160.063 491.151 160.588 491.138 161.139C491.136 161.415 491.189 161.689 491.294 161.945C491.398 162.2 491.551 162.432 491.745 162.627C491.939 162.823 492.169 162.977 492.422 163.082C492.676 163.187 492.947 163.24 493.221 163.238Z" fill="#28334A"/>
<path d="M496.608 176.362V165.677H496.01V176.244C496.207 176.278 496.409 176.317 496.608 176.362Z" fill="#28334A"/>
<path d="M467.772 169.624C468.512 170.436 468.98 171.463 469.112 172.558C469.311 173.8 469.293 175.067 469.058 176.302C468.69 178.15 467.521 179.372 465.673 179.839C464.834 180.056 463.974 180.177 463.109 180.199C462.172 180.218 461.181 180.226 459.898 180.226H458.086H456.29H456.094V180.716L456.611 180.75H456.767H458.697H460.508C461.802 180.75 462.783 180.75 463.719 180.722C464.585 180.701 465.445 180.581 466.284 180.364C468.131 179.897 469.301 178.675 469.668 176.827C469.902 175.59 469.921 174.323 469.723 173.08C469.485 171.561 468.807 170.381 467.772 169.624Z" fill="#28334A"/>
<path d="M508.04 168.773L507.6 168.804C507.082 168.841 506.542 168.916 506.029 168.992C505.636 169.049 505.23 169.107 504.821 169.149V176.255L505.419 176.354V169.679C505.83 169.637 506.234 169.577 506.63 169.522C507.147 169.446 507.665 169.371 508.2 169.334L508.64 169.303V165.684H508.04V168.773Z" fill="#28334A"/>
<path d="M510.066 168.877V169.222L510.407 169.321C510.459 169.321 510.508 169.352 510.555 169.368V169.073C510.459 169.036 510.366 169 510.278 168.961L510.066 168.877Z" fill="#28334A"/>
<path d="M506.521 180.189H499.121V180.719H507.122V177.048L506.521 176.949V180.189Z" fill="#28334A"/>
<path d="M518.649 180.058L518.502 180.184C518.455 180.235 518.398 180.276 518.335 180.304C518.271 180.331 518.203 180.346 518.134 180.346H518.116C517.715 180.333 517.306 180.33 516.897 180.327C515.927 180.337 514.957 180.294 513.991 180.199C513.371 180.13 512.777 179.909 512.26 179.555C512.87 180.218 513.697 180.635 514.589 180.729C515.551 180.824 516.518 180.867 517.485 180.857C517.893 180.857 518.3 180.857 518.703 180.873H518.722C518.79 180.872 518.858 180.857 518.921 180.829C518.985 180.802 519.041 180.761 519.089 180.711L519.236 180.588V176.55H518.649V180.058Z" fill="#28334A"/>
<path d="M514.568 161.849H510.687V165.423H509.592V168.115C510.035 168.243 510.281 168.41 510.682 168.499V170.013C510.682 171.728 510.682 173.441 510.682 175.156C510.68 175.598 510.709 176.039 510.767 176.477C510.997 178.127 512.061 179.317 513.699 179.508C515.044 179.667 516.416 179.612 517.774 179.651C517.792 179.651 517.811 179.625 517.816 179.62V176.284H516.196C516.012 176.284 515.826 176.284 515.642 176.26C514.905 176.187 514.584 175.853 514.581 175.114C514.581 173.328 514.581 171.545 514.581 169.762C514.581 169.707 514.599 168.543 514.615 168.457C515.601 168.42 516.499 168.18 517.399 168.073V165.41H514.568V161.849Z" fill="#28334A"/>
<path d="M486.219 168.728C486.257 168.527 486.34 168.467 486.501 168.428C486.79 168.373 487.085 168.329 487.37 168.253C487.458 168.23 487.593 168.115 487.593 168.042C487.608 167.17 487.593 166.298 487.593 165.41H483.248C483.222 165.528 483.196 165.627 483.176 165.729C482.749 168.099 481.791 172.347 481.734 172.443C481.317 171.137 480.972 169.809 480.699 168.465C480.505 167.444 480.308 166.426 480.109 165.395C479.074 165.395 478.075 165.395 477.071 165.395C476.882 165.395 476.851 165.496 476.813 165.656C476.357 168.057 475.325 172.357 475.273 172.443C475.219 172.349 474.22 168.086 473.793 165.703C473.749 165.442 473.676 165.387 473.451 165.389C472.204 165.402 470.954 165.389 469.707 165.389C469.624 165.389 469.544 165.405 469.448 165.415C469.448 166.298 469.448 167.157 469.448 168.026C469.462 168.078 469.488 168.125 469.523 168.165C469.559 168.204 469.603 168.234 469.653 168.253C469.927 168.332 470.212 168.373 470.491 168.426C470.662 168.457 470.75 168.533 470.796 168.749C471.335 171.483 471.883 174.217 472.442 176.949C472.615 177.806 472.791 178.662 472.96 179.529C474.129 179.529 475.273 179.529 476.414 179.529C476.634 179.529 476.717 179.466 476.769 179.221C477.263 176.855 478.401 171.924 478.466 171.822C478.531 171.921 479.162 174.433 479.411 175.576C479.695 176.883 479.981 178.194 480.267 179.508H484.014C484.775 175.897 485.502 172.313 486.219 168.728Z" fill="#28334A"/>
<path d="M515.414 169.128C515.414 169.467 515.399 169.911 515.399 169.979V171.174C515.399 172.558 515.399 173.942 515.399 175.325C515.399 175.801 515.528 175.944 516.004 175.996C516.004 175.952 516.004 175.908 516.004 175.855C516.004 174.472 516.004 173.088 516.004 171.704V170.509C516.004 170.436 516.004 169.987 516.02 169.658C516.501 169.616 516.959 169.535 517.404 169.457C517.748 169.397 518.075 169.339 518.403 169.3L518.822 169.25V165.684H518.222V168.72L517.803 168.77C517.477 168.809 517.151 168.867 516.804 168.927C516.354 169.005 515.896 169.086 515.414 169.128Z" fill="#28334A"/>
<path d="M499.948 169.462V169.083C499.749 169.042 499.547 168.987 499.348 168.932C499.149 168.877 499.027 168.848 498.877 168.814V169.227L499.27 169.297C499.472 169.334 499.702 169.397 499.948 169.462Z" fill="#28334A"/>
<path d="M487.556 150.913C471.632 150.913 459.256 155.333 458.037 155.782H448.007V185.742H527.108V155.782H517.058C515.839 155.331 503.481 150.913 487.556 150.913ZM526.011 184.625H449.092V156.889H458.236L458.332 156.853C458.456 156.803 471.076 152.02 487.556 152.02C504.037 152.02 516.639 156.803 516.763 156.853L516.858 156.889H526.011V184.625Z" fill="#28334A"/>
<path d="M496.654 176.923C496.641 176.864 496.613 176.808 496.572 176.763C496.532 176.717 496.481 176.683 496.424 176.662C496.028 176.563 495.622 176.5 495.197 176.419V165.402H489.841C489.841 166.29 489.841 167.162 489.841 168.031C489.841 168.107 489.986 168.225 490.082 168.245C490.472 168.337 490.858 168.399 491.256 168.47V176.432C490.848 176.508 490.459 176.568 490.079 176.66C489.983 176.68 489.841 176.795 489.841 176.871C489.823 177.743 489.841 178.612 489.841 179.482H496.654C496.654 178.62 496.654 177.772 496.654 176.923Z" fill="#28334A"/>
<path d="M488.423 165.677V166.199C488.423 166.88 488.423 167.585 488.423 168.287C488.405 168.444 488.341 168.592 488.238 168.711C488.136 168.83 488 168.915 487.849 168.955C487.61 169.018 487.372 169.06 487.145 169.102L487.028 169.12C486.443 172.052 485.848 174.981 485.251 177.928L484.785 180.228H480.756L480.872 180.75H485.385L485.851 178.448C486.449 175.503 487.041 172.574 487.629 169.642L487.742 169.621C487.973 169.582 488.211 169.54 488.449 169.475C488.6 169.435 488.735 169.35 488.838 169.232C488.94 169.113 489.005 168.966 489.023 168.809C489.036 168.117 489.036 167.413 489.023 166.721V165.677H488.423Z" fill="#28334A"/>
<path d="M505.711 179.495V176.712L504.019 176.432V168.48C505.095 168.41 506.138 168.175 507.24 168.099V165.405H504.342C504.231 165.405 504.122 165.389 504 165.381C503.986 165.121 503.986 164.859 504 164.598C504.037 163.951 504.404 163.614 505.054 163.585C505.341 163.572 505.631 163.585 505.92 163.585H507.214V160.244C505.98 160.244 504.766 160.212 503.558 160.257C502.913 160.288 502.287 160.492 501.747 160.849C500.595 161.593 500.194 162.732 500.114 164.032C500.078 164.739 500.114 164.666 500.114 165.421H498.419V168.091C498.936 168.185 499.581 168.42 500.088 168.475V176.445C499.679 176.521 499.281 176.584 498.892 176.68C498.839 176.705 498.792 176.741 498.753 176.786C498.715 176.832 498.686 176.884 498.67 176.941C498.65 177.08 498.65 177.221 498.67 177.359V179.508L505.711 179.495Z" fill="#28334A"/>
<path d="M497.475 176.949H497.428C497.45 177.01 497.463 177.073 497.467 177.137C497.48 177.803 497.467 178.443 497.467 179.137V180.202H490.292V180.724H498.054V179.659C498.054 178.972 498.054 178.322 498.041 177.659C498.027 177.498 497.965 177.344 497.864 177.218C497.763 177.092 497.628 176.998 497.475 176.949V176.949Z" fill="#28334A"/>
<path d="M491.13 169.509V169.094C490.871 169.047 490.612 169 490.338 168.937C490.386 169.066 490.465 169.18 490.567 169.271C490.668 169.362 490.791 169.427 490.923 169.459L491.13 169.509Z" fill="#28334A"/>
</svg>
