<svg width="622" height="236" viewBox="0 0 622 236" fill="none" xmlns="http://www.w3.org/2000/svg">
<rect class="tws-team-b-fill" x="309" width="313" height="236" fill="#73000A"/>
<rect class="tws-team-a-fill" width="309" height="236" fill="#2C2A29"/>
<mask id="mask0_535_364" style="mask-type:alpha" maskUnits="userSpaceOnUse" x="16" y="19" width="591" height="198">
<mask id="path-3-inside-1_535_364" fill="white">
<path fill-rule="evenodd" clip-rule="evenodd" d="M16 19H607L607 19.0001L601.676 19.0001C601.676 19.5416 601.813 20.0779 602.081 20.5782C602.349 21.0785 602.741 21.5332 603.235 21.9161C603.73 22.299 604.317 22.6028 604.963 22.81C605.609 23.0173 606.301 23.1239 607 23.1239V27.2478C605.588 27.2478 604.234 27.6823 603.235 28.4557C602.237 29.229 601.676 30.2779 601.676 31.3717C601.676 32.4654 602.237 33.5143 603.235 34.2877C604.234 35.0611 605.588 35.4955 607 35.4955V39.6194C605.588 39.6194 604.234 40.0539 603.235 40.8272C602.237 41.6006 601.676 42.6495 601.676 43.7432C601.676 44.837 602.237 45.8859 603.235 46.6593C604.234 47.4326 605.588 47.8671 607 47.8671V51.991C605.588 51.991 604.234 52.4254 603.235 53.1988C602.237 53.9722 601.676 55.0211 601.676 56.1148C601.676 57.2085 602.237 58.2575 603.235 59.0308C604.234 59.8042 605.588 60.2387 607 60.2387V64.3625C605.588 64.3625 604.234 64.797 603.235 65.5704C602.237 66.3438 601.676 67.3927 601.676 68.4864C601.676 69.5801 602.237 70.629 603.235 71.4024C604.234 72.1758 605.588 72.6103 607 72.6103V76.7341C605.588 76.7341 604.234 77.1686 603.235 77.942C602.237 78.7154 601.676 79.7643 601.676 80.858C601.676 81.9517 602.237 83.0006 603.235 83.774C604.234 84.5474 605.588 84.9819 607 84.9819V101.477H607V97.3535C599.939 97.3535 593.168 99.5259 588.175 103.393C583.183 107.26 580.378 112.504 580.378 117.973C580.378 123.441 583.183 128.686 588.175 132.553C593.168 136.42 599.939 138.592 607 138.592V134.468H607V150.964C605.588 150.964 604.234 151.398 603.235 152.171C602.237 152.945 601.676 153.994 601.676 155.087C601.676 156.181 602.237 157.23 603.235 158.003C604.234 158.777 605.588 159.211 607 159.211V163.335C605.588 163.335 604.234 163.77 603.235 164.543C602.237 165.316 601.676 166.365 601.676 167.459C601.676 168.553 602.237 169.602 603.235 170.375C604.234 171.148 605.588 171.583 607 171.583V175.707C605.588 175.707 604.234 176.141 603.235 176.915C602.237 177.688 601.676 178.737 601.676 179.831C601.676 180.924 602.237 181.973 603.235 182.747C604.234 183.52 605.588 183.955 607 183.955V188.078C605.588 188.078 604.234 188.513 603.235 189.286C602.237 190.06 601.676 191.109 601.676 192.202C601.676 193.296 602.237 194.345 603.235 195.118C604.234 195.892 605.588 196.326 607 196.326V200.45C605.588 200.45 604.234 200.884 603.235 201.658C602.237 202.431 601.676 203.48 601.676 204.574C601.676 205.668 602.237 206.716 603.235 207.49C604.234 208.263 605.588 208.698 607 208.698V212.822C606.301 212.822 605.609 212.928 604.963 213.135C604.317 213.343 603.73 213.646 603.235 214.029C602.741 214.412 602.349 214.867 602.081 215.367C601.813 215.868 601.676 216.404 601.676 216.945L607 216.945L21.3243 216.945C21.3243 216.404 21.1866 215.868 20.919 215.367C20.6515 214.867 20.2593 214.412 19.7649 214.029C19.2705 213.646 18.6835 213.343 18.0375 213.135C17.3916 212.928 16.6992 212.822 16 212.822V208.698C17.4121 208.698 18.7664 208.263 19.7649 207.49C20.7634 206.716 21.3243 205.668 21.3243 204.574C21.3243 203.48 20.7634 202.431 19.7649 201.658C18.7664 200.884 17.4121 200.45 16 200.45V196.326C17.4121 196.326 18.7664 195.892 19.7649 195.118C20.7634 194.345 21.3243 193.296 21.3243 192.202C21.3243 191.109 20.7634 190.06 19.7649 189.286C18.7664 188.513 17.4121 188.078 16 188.078V183.955C17.4121 183.955 18.7664 183.52 19.7649 182.747C20.7634 181.973 21.3243 180.924 21.3243 179.831C21.3243 178.737 20.7634 177.688 19.7649 176.915C18.7664 176.141 17.4121 175.707 16 175.707V171.583C17.4121 171.583 18.7664 171.148 19.7649 170.375C20.7634 169.602 21.3243 168.553 21.3243 167.459C21.3243 166.365 20.7634 165.316 19.7649 164.543C18.7664 163.77 17.4121 163.335 16 163.335V159.211C17.4121 159.211 18.7664 158.777 19.7649 158.004C20.7634 157.23 21.3243 156.181 21.3243 155.087C21.3243 153.994 20.7634 152.945 19.7649 152.171C18.7664 151.398 17.4121 150.964 16 150.964V84.9818C17.4121 84.9818 18.7664 84.5473 19.7649 83.774C20.7634 83.0006 21.3243 81.9517 21.3243 80.858C21.3243 79.7642 20.7634 78.7153 19.7649 77.9419C18.7664 77.1686 17.4121 76.7341 16 76.7341V72.6102C17.4121 72.6102 18.7664 72.1757 19.7649 71.4024C20.7634 70.629 21.3243 69.5801 21.3243 68.4864C21.3243 67.3926 20.7634 66.3437 19.7649 65.5703C18.7664 64.797 17.4121 64.3625 16 64.3625V60.2386C17.4121 60.2386 18.7664 59.8041 19.7649 59.0308C20.7634 58.2574 21.3243 57.2085 21.3243 56.1148C21.3243 55.021 20.7634 53.9721 19.7649 53.1987C18.7664 52.4254 17.4121 51.9909 16 51.9909V47.8671C17.4121 47.8671 18.7664 47.4326 19.7649 46.6592C20.7634 45.8859 21.3243 44.8369 21.3243 43.7432C21.3243 42.6495 20.7634 41.6006 19.7649 40.8272C18.7664 40.0538 17.4121 39.6194 16 39.6194V35.4955C17.4121 35.4955 18.7664 35.061 19.7649 34.2876C20.7634 33.5143 21.3243 32.4653 21.3243 31.3716C21.3243 30.2779 20.7634 29.229 19.7649 28.4556C18.7664 27.6822 17.4121 27.2478 16 27.2478V23.1239C16.6992 23.1239 17.3916 23.0172 18.0375 22.81C18.6835 22.6027 19.2705 22.299 19.7649 21.916C20.2593 21.5331 20.6515 21.0785 20.919 20.5781C21.1866 20.0778 21.3243 19.5416 21.3243 19L16 19V19ZM607 126.22V109.725H607V117.973V126.22H607ZM16.0005 138.592C23.0609 138.592 29.8323 136.42 34.8248 132.553C39.8173 128.686 42.6221 123.441 42.6221 117.973C42.6221 112.504 39.8173 107.26 34.8248 103.393C29.8323 99.5259 23.0609 97.3535 16.0005 97.3535L16.0005 117.973L16.0005 138.592Z"/>
</mask>
<path fill-rule="evenodd" clip-rule="evenodd" d="M16 19H607L607 19.0001L601.676 19.0001C601.676 19.5416 601.813 20.0779 602.081 20.5782C602.349 21.0785 602.741 21.5332 603.235 21.9161C603.73 22.299 604.317 22.6028 604.963 22.81C605.609 23.0173 606.301 23.1239 607 23.1239V27.2478C605.588 27.2478 604.234 27.6823 603.235 28.4557C602.237 29.229 601.676 30.2779 601.676 31.3717C601.676 32.4654 602.237 33.5143 603.235 34.2877C604.234 35.0611 605.588 35.4955 607 35.4955V39.6194C605.588 39.6194 604.234 40.0539 603.235 40.8272C602.237 41.6006 601.676 42.6495 601.676 43.7432C601.676 44.837 602.237 45.8859 603.235 46.6593C604.234 47.4326 605.588 47.8671 607 47.8671V51.991C605.588 51.991 604.234 52.4254 603.235 53.1988C602.237 53.9722 601.676 55.0211 601.676 56.1148C601.676 57.2085 602.237 58.2575 603.235 59.0308C604.234 59.8042 605.588 60.2387 607 60.2387V64.3625C605.588 64.3625 604.234 64.797 603.235 65.5704C602.237 66.3438 601.676 67.3927 601.676 68.4864C601.676 69.5801 602.237 70.629 603.235 71.4024C604.234 72.1758 605.588 72.6103 607 72.6103V76.7341C605.588 76.7341 604.234 77.1686 603.235 77.942C602.237 78.7154 601.676 79.7643 601.676 80.858C601.676 81.9517 602.237 83.0006 603.235 83.774C604.234 84.5474 605.588 84.9819 607 84.9819V101.477H607V97.3535C599.939 97.3535 593.168 99.5259 588.175 103.393C583.183 107.26 580.378 112.504 580.378 117.973C580.378 123.441 583.183 128.686 588.175 132.553C593.168 136.42 599.939 138.592 607 138.592V134.468H607V150.964C605.588 150.964 604.234 151.398 603.235 152.171C602.237 152.945 601.676 153.994 601.676 155.087C601.676 156.181 602.237 157.23 603.235 158.003C604.234 158.777 605.588 159.211 607 159.211V163.335C605.588 163.335 604.234 163.77 603.235 164.543C602.237 165.316 601.676 166.365 601.676 167.459C601.676 168.553 602.237 169.602 603.235 170.375C604.234 171.148 605.588 171.583 607 171.583V175.707C605.588 175.707 604.234 176.141 603.235 176.915C602.237 177.688 601.676 178.737 601.676 179.831C601.676 180.924 602.237 181.973 603.235 182.747C604.234 183.52 605.588 183.955 607 183.955V188.078C605.588 188.078 604.234 188.513 603.235 189.286C602.237 190.06 601.676 191.109 601.676 192.202C601.676 193.296 602.237 194.345 603.235 195.118C604.234 195.892 605.588 196.326 607 196.326V200.45C605.588 200.45 604.234 200.884 603.235 201.658C602.237 202.431 601.676 203.48 601.676 204.574C601.676 205.668 602.237 206.716 603.235 207.49C604.234 208.263 605.588 208.698 607 208.698V212.822C606.301 212.822 605.609 212.928 604.963 213.135C604.317 213.343 603.73 213.646 603.235 214.029C602.741 214.412 602.349 214.867 602.081 215.367C601.813 215.868 601.676 216.404 601.676 216.945L607 216.945L21.3243 216.945C21.3243 216.404 21.1866 215.868 20.919 215.367C20.6515 214.867 20.2593 214.412 19.7649 214.029C19.2705 213.646 18.6835 213.343 18.0375 213.135C17.3916 212.928 16.6992 212.822 16 212.822V208.698C17.4121 208.698 18.7664 208.263 19.7649 207.49C20.7634 206.716 21.3243 205.668 21.3243 204.574C21.3243 203.48 20.7634 202.431 19.7649 201.658C18.7664 200.884 17.4121 200.45 16 200.45V196.326C17.4121 196.326 18.7664 195.892 19.7649 195.118C20.7634 194.345 21.3243 193.296 21.3243 192.202C21.3243 191.109 20.7634 190.06 19.7649 189.286C18.7664 188.513 17.4121 188.078 16 188.078V183.955C17.4121 183.955 18.7664 183.52 19.7649 182.747C20.7634 181.973 21.3243 180.924 21.3243 179.831C21.3243 178.737 20.7634 177.688 19.7649 176.915C18.7664 176.141 17.4121 175.707 16 175.707V171.583C17.4121 171.583 18.7664 171.148 19.7649 170.375C20.7634 169.602 21.3243 168.553 21.3243 167.459C21.3243 166.365 20.7634 165.316 19.7649 164.543C18.7664 163.77 17.4121 163.335 16 163.335V159.211C17.4121 159.211 18.7664 158.777 19.7649 158.004C20.7634 157.23 21.3243 156.181 21.3243 155.087C21.3243 153.994 20.7634 152.945 19.7649 152.171C18.7664 151.398 17.4121 150.964 16 150.964V84.9818C17.4121 84.9818 18.7664 84.5473 19.7649 83.774C20.7634 83.0006 21.3243 81.9517 21.3243 80.858C21.3243 79.7642 20.7634 78.7153 19.7649 77.9419C18.7664 77.1686 17.4121 76.7341 16 76.7341V72.6102C17.4121 72.6102 18.7664 72.1757 19.7649 71.4024C20.7634 70.629 21.3243 69.5801 21.3243 68.4864C21.3243 67.3926 20.7634 66.3437 19.7649 65.5703C18.7664 64.797 17.4121 64.3625 16 64.3625V60.2386C17.4121 60.2386 18.7664 59.8041 19.7649 59.0308C20.7634 58.2574 21.3243 57.2085 21.3243 56.1148C21.3243 55.021 20.7634 53.9721 19.7649 53.1987C18.7664 52.4254 17.4121 51.9909 16 51.9909V47.8671C17.4121 47.8671 18.7664 47.4326 19.7649 46.6592C20.7634 45.8859 21.3243 44.8369 21.3243 43.7432C21.3243 42.6495 20.7634 41.6006 19.7649 40.8272C18.7664 40.0538 17.4121 39.6194 16 39.6194V35.4955C17.4121 35.4955 18.7664 35.061 19.7649 34.2876C20.7634 33.5143 21.3243 32.4653 21.3243 31.3716C21.3243 30.2779 20.7634 29.229 19.7649 28.4556C18.7664 27.6822 17.4121 27.2478 16 27.2478V23.1239C16.6992 23.1239 17.3916 23.0172 18.0375 22.81C18.6835 22.6027 19.2705 22.299 19.7649 21.916C20.2593 21.5331 20.6515 21.0785 20.919 20.5781C21.1866 20.0778 21.3243 19.5416 21.3243 19L16 19V19ZM607 126.22V109.725H607V117.973V126.22H607ZM16.0005 138.592C23.0609 138.592 29.8323 136.42 34.8248 132.553C39.8173 128.686 42.6221 123.441 42.6221 117.973C42.6221 112.504 39.8173 107.26 34.8248 103.393C29.8323 99.5259 23.0609 97.3535 16.0005 97.3535L16.0005 117.973L16.0005 138.592Z" fill="white"/>
<path d="M607 19L607.417 18.0909L607.218 18H607V19ZM16 19V18H15V19H16ZM607 19.0001L607 20.0001L607.417 18.091L607 19.0001ZM601.676 19.0001L601.676 18.0001L600.676 18.0001V19.0001H601.676ZM602.081 20.5782L602.963 20.1066L602.963 20.1066L602.081 20.5782ZM603.235 21.9161L602.623 22.7067L602.623 22.7067L603.235 21.9161ZM604.963 22.81L605.268 21.8578L605.268 21.8578L604.963 22.81ZM607 23.1239H608V22.1239H607V23.1239ZM607 27.2478V28.2478H608V27.2478H607ZM603.235 28.4557L602.623 27.6651L602.623 27.6651L603.235 28.4557ZM603.235 34.2877L602.623 35.0783L602.623 35.0783L603.235 34.2877ZM607 35.4955H608V34.4955H607V35.4955ZM607 39.6194V40.6194H608V39.6194H607ZM603.235 40.8272L602.623 40.0366L602.623 40.0367L603.235 40.8272ZM603.235 46.6593L602.623 47.4498L602.623 47.4499L603.235 46.6593ZM607 47.8671H608V46.8671H607V47.8671ZM607 51.991V52.991H608V51.991H607ZM603.235 53.1988L602.623 52.4082L602.623 52.4082L603.235 53.1988ZM603.235 59.0308L602.623 59.8214L602.623 59.8214L603.235 59.0308ZM607 60.2387H608V59.2387H607V60.2387ZM607 64.3625V65.3625H608V64.3625H607ZM603.235 65.5704L602.623 64.7798L602.623 64.7798L603.235 65.5704ZM603.235 71.4024L602.623 72.193L602.623 72.193L603.235 71.4024ZM607 72.6103H608V71.6103H607V72.6103ZM607 76.7341V77.7341H608V76.7341H607ZM603.235 77.942L602.623 77.1514L602.623 77.1514L603.235 77.942ZM603.235 83.774L602.623 84.5646L602.623 84.5646L603.235 83.774ZM607 84.9819H608V83.9819H607V84.9819ZM607 101.477V102.477H608V101.477H607ZM607 101.477H606V102.477H607V101.477ZM607 97.3535H608V96.3535H607V97.3535ZM588.175 103.393L588.788 104.183L588.788 104.183L588.175 103.393ZM588.175 132.553L588.788 131.762L588.788 131.762L588.175 132.553ZM607 138.592V139.592H608V138.592H607ZM607 134.468V133.468H606V134.468H607ZM607 134.468H608V133.468H607V134.468ZM607 150.964V151.964H608V150.964H607ZM603.235 152.171L602.623 151.381L602.623 151.381L603.235 152.171ZM603.235 158.003L602.623 158.794L602.623 158.794L603.235 158.003ZM607 159.211H608V158.211H607V159.211ZM607 163.335V164.335H608V163.335H607ZM603.235 164.543L602.623 163.752L602.623 163.752L603.235 164.543ZM603.235 170.375L602.623 171.166L602.623 171.166L603.235 170.375ZM607 171.583H608V170.583H607V171.583ZM607 175.707V176.707H608V175.707H607ZM603.235 176.915L602.623 176.124L602.623 176.124L603.235 176.915ZM603.235 182.747L602.623 183.537L602.623 183.537L603.235 182.747ZM607 183.955H608V182.955H607V183.955ZM607 188.078V189.078H608V188.078H607ZM603.235 189.286L602.623 188.496L602.623 188.496L603.235 189.286ZM603.235 195.118L602.623 195.909L602.623 195.909L603.235 195.118ZM607 196.326H608V195.326H607V196.326ZM607 200.45V201.45H608V200.45H607ZM603.235 201.658L602.623 200.867L602.623 200.867L603.235 201.658ZM603.235 207.49L602.623 208.28L602.623 208.28L603.235 207.49ZM607 208.698H608V207.698H607V208.698ZM607 212.822V213.822H608V212.822H607ZM604.963 213.135L604.657 212.183L604.657 212.183L604.963 213.135ZM603.235 214.029L602.623 213.239L602.623 213.239L603.235 214.029ZM601.676 216.945H600.676V217.945L601.676 217.945L601.676 216.945ZM21.3243 216.945H20.3243V217.945L21.3243 217.945L21.3243 216.945ZM20.919 215.367L21.8009 214.896L21.8009 214.896L20.919 215.367ZM19.7649 214.029L19.1525 214.82L19.1525 214.82L19.7649 214.029ZM18.0375 213.135L18.343 212.183L18.343 212.183L18.0375 213.135ZM16 212.822H15V213.822H16V212.822ZM16 208.698V207.698H15V208.698H16ZM19.7649 207.49L19.1525 206.699L19.1525 206.699L19.7649 207.49ZM19.7649 201.658L20.3772 200.867L20.3772 200.867L19.7649 201.658ZM16 200.45H15V201.45H16V200.45ZM16 196.326V195.326H15V196.326H16ZM19.7649 195.118L19.1525 194.328L19.1525 194.328L19.7649 195.118ZM19.7649 189.286L20.3772 188.496L20.3772 188.496L19.7649 189.286ZM16 188.078H15V189.078H16V188.078ZM16 183.955V182.955H15V183.955H16ZM19.7649 182.747L19.1525 181.956L19.1525 181.956L19.7649 182.747ZM19.7649 176.915L20.3772 176.124L20.3772 176.124L19.7649 176.915ZM16 175.707H15V176.707H16V175.707ZM16 171.583V170.583H15V171.583H16ZM19.7649 170.375L19.1525 169.585L19.1525 169.585L19.7649 170.375ZM19.7649 164.543L20.3772 163.752L20.3772 163.752L19.7649 164.543ZM16 163.335H15V164.335H16V163.335ZM16 159.211V158.211H15V159.211H16ZM19.7649 158.004L19.1525 157.213L19.1525 157.213L19.7649 158.004ZM19.7649 152.171L20.3772 151.381L20.3772 151.381L19.7649 152.171ZM16 150.964H15V151.964H16V150.964ZM16 84.9818V83.9818H15V84.9818H16ZM19.7649 83.774L19.1525 82.9834L19.1525 82.9834L19.7649 83.774ZM19.7649 77.9419L20.3772 77.1513L20.3772 77.1513L19.7649 77.9419ZM16 76.7341H15V77.7341H16V76.7341ZM16 72.6102V71.6102H15V72.6102H16ZM19.7649 71.4024L20.3772 72.193L20.3772 72.193L19.7649 71.4024ZM19.7649 65.5703L20.3772 64.7798L20.3772 64.7798L19.7649 65.5703ZM16 64.3625H15V65.3625H16V64.3625ZM16 60.2386V59.2386H15V60.2386H16ZM19.7649 59.0308L20.3772 59.8214L20.3772 59.8214L19.7649 59.0308ZM19.7649 53.1987L20.3772 52.4082L20.3772 52.4082L19.7649 53.1987ZM16 51.9909H15V52.9909H16V51.9909ZM16 47.8671V46.8671H15V47.8671H16ZM19.7649 46.6592L19.1525 45.8686L19.1525 45.8686L19.7649 46.6592ZM19.7649 40.8272L20.3772 40.0366L20.3772 40.0366L19.7649 40.8272ZM16 39.6194H15V40.6194H16V39.6194ZM16 35.4955V34.4955H15V35.4955H16ZM19.7649 34.2876L19.1525 33.497L19.1525 33.497L19.7649 34.2876ZM19.7649 28.4556L20.3772 27.665L20.3772 27.665L19.7649 28.4556ZM16 27.2478H15V28.2478H16V27.2478ZM16 23.1239V22.1239H15V23.1239H16ZM18.0375 22.81L17.732 21.8578L17.732 21.8578L18.0375 22.81ZM19.7649 21.916L20.3772 22.7066L20.3772 22.7066L19.7649 21.916ZM20.919 20.5781L21.8009 21.0497L21.8009 21.0497L20.919 20.5781ZM21.3243 19H22.3243V18L21.3243 18L21.3243 19ZM16 19H15V20L16 20L16 19ZM607 109.725H608V108.725H607V109.725ZM607 126.22V127.22H608V126.22H607ZM607 109.725V108.725H606V109.725H607ZM607 126.22H606V127.22H607V126.22ZM34.8248 132.553L34.2124 131.762L34.2124 131.762L34.8248 132.553ZM16.0005 138.592L15.0005 138.592L15.0005 139.592H16.0005V138.592ZM34.8248 103.393L34.2124 104.183L34.2124 104.183L34.8248 103.393ZM16.0005 97.3535V96.3535H15.0005L15.0005 97.3535L16.0005 97.3535ZM16.0005 117.973L15.0005 117.973L15.0005 117.973L16.0005 117.973ZM607 18H16V20H607V18ZM607.417 18.091L607.417 18.0909L606.583 19.9091L606.583 19.9091L607.417 18.091ZM601.676 20.0001L607 20.0001L607 18.0001L601.676 18.0001L601.676 20.0001ZM602.963 20.1066C602.769 19.7442 602.676 19.3692 602.676 19.0001H600.676C600.676 19.7141 600.858 20.4115 601.199 21.0498L602.963 20.1066ZM603.848 21.1255C603.453 20.8199 603.158 20.4707 602.963 20.1066L601.199 21.0498C601.54 21.6864 602.029 22.2464 602.623 22.7067L603.848 21.1255ZM605.268 21.8578C604.724 21.6832 604.242 21.4313 603.848 21.1255L602.623 22.7067C603.217 23.1668 603.91 23.5224 604.657 23.7622L605.268 21.8578ZM607 22.1239C606.401 22.1239 605.812 22.0324 605.268 21.8578L604.657 23.7622C605.405 24.0021 606.2 24.1239 607 24.1239V22.1239ZM608 27.2478V23.1239H606V27.2478H608ZM603.848 29.2463C604.65 28.6246 605.782 28.2478 607 28.2478V26.2478C605.394 26.2478 603.817 26.74 602.623 27.6651L603.848 29.2463ZM602.676 31.3717C602.676 30.6376 603.051 29.8634 603.848 29.2462L602.623 27.6651C601.423 28.5947 600.676 29.9183 600.676 31.3717H602.676ZM603.848 33.4971C603.051 32.88 602.676 32.1057 602.676 31.3717H600.676C600.676 32.8251 601.423 34.1487 602.623 35.0783L603.848 33.4971ZM607 34.4955C605.782 34.4955 604.65 34.1187 603.848 33.4971L602.623 35.0783C603.817 36.0034 605.394 36.4955 607 36.4955V34.4955ZM608 39.6194V35.4955H606V39.6194H608ZM603.848 41.6178C604.65 40.9962 605.782 40.6194 607 40.6194V38.6194C605.394 38.6194 603.817 39.1115 602.623 40.0366L603.848 41.6178ZM602.676 43.7432C602.676 43.0092 603.051 42.235 603.848 41.6178L602.623 40.0367C601.423 40.9663 600.676 42.2898 600.676 43.7432H602.676ZM603.848 45.8687C603.051 45.2515 602.676 44.4773 602.676 43.7432H600.676C600.676 45.1967 601.423 46.5202 602.623 47.4498L603.848 45.8687ZM607 46.8671C605.782 46.8671 604.65 46.4903 603.848 45.8687L602.623 47.4499C603.817 48.375 605.394 48.8671 607 48.8671V46.8671ZM608 51.991V47.8671H606V51.991H608ZM603.848 53.9894C604.65 53.3678 605.782 52.991 607 52.991V50.991C605.394 50.991 603.817 51.4831 602.623 52.4082L603.848 53.9894ZM602.676 56.1148C602.676 55.3808 603.051 54.6065 603.848 53.9894L602.623 52.4082C601.423 53.3378 600.676 54.6614 600.676 56.1148H602.676ZM603.848 58.2403C603.051 57.6231 602.676 56.8488 602.676 56.1148H600.676C600.676 57.5682 601.423 58.8918 602.623 59.8214L603.848 58.2403ZM607 59.2387C605.782 59.2387 604.65 58.8619 603.848 58.2402L602.623 59.8214C603.817 60.7465 605.394 61.2387 607 61.2387V59.2387ZM608 64.3625V60.2387H606V64.3625H608ZM603.848 66.361C604.65 65.7394 605.782 65.3625 607 65.3625V63.3625C605.394 63.3625 603.817 63.8547 602.623 64.7798L603.848 66.361ZM602.676 68.4864C602.676 67.7524 603.051 66.9781 603.848 66.361L602.623 64.7798C601.423 65.7094 600.676 67.033 600.676 68.4864H602.676ZM603.848 70.6118C603.051 69.9947 602.676 69.2204 602.676 68.4864H600.676C600.676 69.9398 601.423 71.2634 602.623 72.193L603.848 70.6118ZM607 71.6103C605.782 71.6103 604.65 71.2335 603.848 70.6118L602.623 72.193C603.817 73.1181 605.394 73.6103 607 73.6103V71.6103ZM608 76.7341V72.6103H606V76.7341H608ZM603.848 78.7326C604.65 78.1109 605.782 77.7341 607 77.7341V75.7341C605.394 75.7341 603.817 76.2263 602.623 77.1514L603.848 78.7326ZM602.676 80.858C602.676 80.124 603.051 79.3497 603.848 78.7326L602.623 77.1514C601.423 78.081 600.676 79.4046 600.676 80.858H602.676ZM603.848 82.9834C603.051 82.3663 602.676 81.592 602.676 80.858H600.676C600.676 82.3114 601.423 83.635 602.623 84.5646L603.848 82.9834ZM607 83.9819C605.782 83.9819 604.65 83.6051 603.848 82.9834L602.623 84.5646C603.817 85.4897 605.394 85.9819 607 85.9819V83.9819ZM608 101.477V84.9819H606V101.477H608ZM607 102.477H607V100.477H607V102.477ZM606 97.3535V101.477H608V97.3535H606ZM588.788 104.183C593.584 100.468 600.133 98.3535 607 98.3535V96.3535C599.745 96.3535 592.751 98.5836 587.563 102.602L588.788 104.183ZM581.378 117.973C581.378 112.864 583.997 107.894 588.788 104.183L587.563 102.602C582.369 106.625 579.378 112.145 579.378 117.973H581.378ZM588.788 131.762C583.997 128.052 581.378 123.082 581.378 117.973H579.378C579.378 123.801 582.369 129.32 587.563 133.343L588.788 131.762ZM607 137.592C600.133 137.592 593.584 135.477 588.788 131.762L587.563 133.343C592.751 137.362 599.745 139.592 607 139.592V137.592ZM606 134.468V138.592H608V134.468H606ZM607 133.468H607V135.468H607V133.468ZM608 150.964V134.468H606V150.964H608ZM603.848 152.962C604.65 152.34 605.782 151.964 607 151.964V149.964C605.394 149.964 603.817 150.456 602.623 151.381L603.848 152.962ZM602.676 155.087C602.676 154.353 603.051 153.579 603.848 152.962L602.623 151.381C601.423 152.311 600.676 153.634 600.676 155.087H602.676ZM603.848 157.213C603.051 156.596 602.676 155.822 602.676 155.087H600.676C600.676 156.541 601.423 157.864 602.623 158.794L603.848 157.213ZM607 158.211C605.782 158.211 604.65 157.835 603.848 157.213L602.623 158.794C603.817 159.719 605.394 160.211 607 160.211V158.211ZM608 163.335V159.211H606V163.335H608ZM603.848 165.334C604.65 164.712 605.782 164.335 607 164.335V162.335C605.394 162.335 603.817 162.827 602.623 163.752L603.848 165.334ZM602.676 167.459C602.676 166.725 603.051 165.951 603.848 165.334L602.623 163.752C601.423 164.682 600.676 166.006 600.676 167.459H602.676ZM603.848 169.584C603.051 168.967 602.676 168.193 602.676 167.459H600.676C600.676 168.912 601.423 170.236 602.623 171.166L603.848 169.584ZM607 170.583C605.782 170.583 604.65 170.206 603.848 169.584L602.623 171.166C603.817 172.091 605.394 172.583 607 172.583V170.583ZM608 175.707V171.583H606V175.707H608ZM603.848 177.705C604.65 177.084 605.782 176.707 607 176.707V174.707C605.394 174.707 603.817 175.199 602.623 176.124L603.848 177.705ZM602.676 179.831C602.676 179.097 603.051 178.322 603.848 177.705L602.623 176.124C601.423 177.054 600.676 178.377 600.676 179.831H602.676ZM603.848 181.956C603.051 181.339 602.676 180.565 602.676 179.831H600.676C600.676 181.284 601.423 182.608 602.623 183.537L603.848 181.956ZM607 182.955C605.782 182.955 604.65 182.578 603.848 181.956L602.623 183.537C603.817 184.462 605.394 184.955 607 184.955V182.955ZM608 188.078V183.955H606V188.078H608ZM603.848 190.077C604.65 189.455 605.782 189.078 607 189.078V187.078C605.394 187.078 603.817 187.571 602.623 188.496L603.848 190.077ZM602.676 192.202C602.676 191.468 603.051 190.694 603.848 190.077L602.623 188.496C601.423 189.425 600.676 190.749 600.676 192.202H602.676ZM603.848 194.328C603.051 193.711 602.676 192.936 602.676 192.202H600.676C600.676 193.656 601.423 194.979 602.623 195.909L603.848 194.328ZM607 195.326C605.782 195.326 604.65 194.949 603.848 194.328L602.623 195.909C603.817 196.834 605.394 197.326 607 197.326V195.326ZM608 200.45V196.326H606V200.45H608ZM603.848 202.448C604.65 201.827 605.782 201.45 607 201.45V199.45C605.394 199.45 603.817 199.942 602.623 200.867L603.848 202.448ZM602.676 204.574C602.676 203.84 603.051 203.066 603.848 202.448L602.623 200.867C601.423 201.797 600.676 203.12 600.676 204.574H602.676ZM603.848 206.699C603.051 206.082 602.676 205.308 602.676 204.574H600.676C600.676 206.027 601.423 207.351 602.623 208.28L603.848 206.699ZM607 207.698C605.782 207.698 604.65 207.321 603.848 206.699L602.623 208.28C603.817 209.206 605.394 209.698 607 209.698V207.698ZM608 212.822V208.698H606V212.822H608ZM605.268 214.088C605.812 213.913 606.401 213.822 607 213.822V211.822C606.2 211.822 605.405 211.943 604.657 212.183L605.268 214.088ZM603.848 214.82C604.242 214.514 604.724 214.262 605.268 214.088L604.657 212.183C603.91 212.423 603.217 212.779 602.623 213.239L603.848 214.82ZM602.963 215.839C603.158 215.475 603.453 215.126 603.848 214.82L602.623 213.239C602.029 213.699 601.54 214.259 601.199 214.896L602.963 215.839ZM602.676 216.945C602.676 216.576 602.769 216.201 602.963 215.839L601.199 214.896C600.858 215.534 600.676 216.231 600.676 216.945H602.676ZM607 215.945L601.676 215.945L601.676 217.945L607 217.945L607 215.945ZM21.3243 217.945L607 217.945L607 215.945L21.3243 215.945L21.3243 217.945ZM20.0372 215.839C20.231 216.201 20.3243 216.576 20.3243 216.945H22.3243C22.3243 216.231 22.1422 215.534 21.8009 214.896L20.0372 215.839ZM19.1525 214.82C19.5471 215.126 19.8425 215.475 20.0372 215.839L21.8009 214.896C21.4604 214.259 20.9714 213.699 20.3772 213.239L19.1525 214.82ZM17.732 214.088C18.2765 214.262 18.7577 214.514 19.1525 214.82L20.3772 213.239C19.7832 212.779 19.0905 212.423 18.343 212.183L17.732 214.088ZM16 213.822C16.5987 213.822 17.1878 213.913 17.7321 214.088L18.343 212.183C17.5953 211.943 16.7997 211.822 16 211.822V213.822ZM15 208.698V212.822H17V208.698H15ZM19.1525 206.699C18.3499 207.321 17.218 207.698 16 207.698V209.698C17.6062 209.698 19.1828 209.206 20.3772 208.28L19.1525 206.699ZM20.3243 204.574C20.3243 205.308 19.9493 206.082 19.1525 206.699L20.3772 208.28C21.5774 207.351 22.3243 206.027 22.3243 204.574H20.3243ZM19.1525 202.448C19.9493 203.066 20.3243 203.84 20.3243 204.574H22.3243C22.3243 203.12 21.5774 201.797 20.3772 200.867L19.1525 202.448ZM16 201.45C17.218 201.45 18.3499 201.827 19.1525 202.448L20.3772 200.867C19.1828 199.942 17.6062 199.45 16 199.45V201.45ZM15 196.326V200.45H17V196.326H15ZM19.1525 194.328C18.3499 194.949 17.218 195.326 16 195.326V197.326C17.6062 197.326 19.1828 196.834 20.3772 195.909L19.1525 194.328ZM20.3243 192.202C20.3243 192.936 19.9493 193.711 19.1525 194.328L20.3772 195.909C21.5774 194.979 22.3243 193.656 22.3243 192.202H20.3243ZM19.1525 190.077C19.9493 190.694 20.3243 191.468 20.3243 192.202H22.3243C22.3243 190.749 21.5774 189.425 20.3772 188.496L19.1525 190.077ZM16 189.078C17.218 189.078 18.3499 189.455 19.1525 190.077L20.3772 188.496C19.1828 187.571 17.6062 187.078 16 187.078V189.078ZM15 183.955V188.078H17V183.955H15ZM19.1525 181.956C18.3499 182.578 17.218 182.955 16 182.955V184.955C17.6062 184.955 19.1828 184.462 20.3772 183.537L19.1525 181.956ZM20.3243 179.831C20.3243 180.565 19.9493 181.339 19.1525 181.956L20.3772 183.537C21.5774 182.608 22.3243 181.284 22.3243 179.831H20.3243ZM19.1525 177.705C19.9493 178.322 20.3243 179.097 20.3243 179.831H22.3243C22.3243 178.377 21.5774 177.054 20.3772 176.124L19.1525 177.705ZM16 176.707C17.218 176.707 18.3499 177.084 19.1525 177.705L20.3772 176.124C19.1828 175.199 17.6062 174.707 16 174.707V176.707ZM15 171.583V175.707H17V171.583H15ZM19.1525 169.585C18.3499 170.206 17.218 170.583 16 170.583V172.583C17.6062 172.583 19.1828 172.091 20.3772 171.166L19.1525 169.585ZM20.3243 167.459C20.3243 168.193 19.9493 168.967 19.1525 169.585L20.3772 171.166C21.5774 170.236 22.3243 168.913 22.3243 167.459H20.3243ZM19.1525 165.334C19.9493 165.951 20.3243 166.725 20.3243 167.459H22.3243C22.3243 166.006 21.5774 164.682 20.3772 163.752L19.1525 165.334ZM16 164.335C17.218 164.335 18.3499 164.712 19.1525 165.334L20.3772 163.752C19.1828 162.827 17.6062 162.335 16 162.335V164.335ZM15 159.211V163.335H17V159.211H15ZM19.1525 157.213C18.3499 157.835 17.218 158.211 16 158.211V160.211C17.6062 160.211 19.1828 159.719 20.3772 158.794L19.1525 157.213ZM20.3243 155.087C20.3243 155.822 19.9493 156.596 19.1525 157.213L20.3772 158.794C21.5774 157.864 22.3243 156.541 22.3243 155.087H20.3243ZM19.1525 152.962C19.9493 153.579 20.3243 154.353 20.3243 155.087H22.3243C22.3243 153.634 21.5774 152.311 20.3772 151.381L19.1525 152.962ZM16 151.964C17.218 151.964 18.3499 152.34 19.1525 152.962L20.3772 151.381C19.1828 150.456 17.6062 149.964 16 149.964V151.964ZM15 84.9818V150.964H17V84.9818H15ZM19.1525 82.9834C18.3499 83.605 17.218 83.9818 16 83.9818V85.9818C17.6062 85.9818 19.1828 85.4897 20.3772 84.5646L19.1525 82.9834ZM20.3243 80.858C20.3243 81.592 19.9493 82.3662 19.1525 82.9834L20.3772 84.5646C21.5774 83.6349 22.3243 82.3114 22.3243 80.858H20.3243ZM19.1525 78.7325C19.9493 79.3497 20.3243 80.1239 20.3243 80.858H22.3243C22.3243 79.4046 21.5774 78.081 20.3772 77.1513L19.1525 78.7325ZM16 77.7341C17.218 77.7341 18.3499 78.1109 19.1525 78.7325L20.3772 77.1513C19.1828 76.2262 17.6062 75.7341 16 75.7341V77.7341ZM15 72.6102V76.7341H17V72.6102H15ZM19.1525 70.6118C18.3499 71.2334 17.218 71.6102 16 71.6102V73.6102C17.6062 73.6102 19.1828 73.1181 20.3772 72.193L19.1525 70.6118ZM20.3243 68.4864C20.3243 69.2204 19.9493 69.9946 19.1525 70.6118L20.3772 72.193C21.5774 71.2633 22.3243 69.9398 22.3243 68.4864H20.3243ZM19.1525 66.3609C19.9493 66.9781 20.3243 67.7523 20.3243 68.4864H22.3243C22.3243 67.033 21.5774 65.7094 20.3772 64.7798L19.1525 66.3609ZM16 65.3625C17.218 65.3625 18.3499 65.7393 19.1525 66.3609L20.3772 64.7798C19.1828 63.8546 17.6062 63.3625 16 63.3625V65.3625ZM15 60.2386V64.3625H17V60.2386H15ZM19.1525 58.2402C18.3499 58.8618 17.218 59.2386 16 59.2386V61.2386C17.6062 61.2386 19.1828 60.7465 20.3772 59.8214L19.1525 58.2402ZM20.3243 56.1148C20.3243 56.8488 19.9493 57.623 19.1525 58.2402L20.3772 59.8214C21.5774 58.8917 22.3243 57.5682 22.3243 56.1148H20.3243ZM19.1525 53.9893C19.9493 54.6065 20.3243 55.3807 20.3243 56.1148H22.3243C22.3243 54.6614 21.5774 53.3378 20.3772 52.4082L19.1525 53.9893ZM16 52.9909C17.218 52.9909 18.3499 53.3677 19.1525 53.9893L20.3772 52.4082C19.1828 51.483 17.6062 50.9909 16 50.9909V52.9909ZM15 47.8671V51.9909H17V47.8671H15ZM19.1525 45.8686C18.3499 46.4903 17.218 46.8671 16 46.8671V48.8671C17.6062 48.8671 19.1828 48.3749 20.3772 47.4498L19.1525 45.8686ZM20.3243 43.7432C20.3243 44.4772 19.9493 45.2515 19.1525 45.8686L20.3772 47.4498C21.5774 46.5202 22.3243 45.1966 22.3243 43.7432H20.3243ZM19.1525 41.6178C19.9493 42.2349 20.3243 43.0092 20.3243 43.7432H22.3243C22.3243 42.2898 21.5774 40.9662 20.3772 40.0366L19.1525 41.6178ZM16 40.6194C17.218 40.6194 18.3499 40.9962 19.1525 41.6178L20.3772 40.0366C19.1828 39.1115 17.6062 38.6194 16 38.6194V40.6194ZM15 35.4955V39.6194H17V35.4955H15ZM19.1525 33.497C18.3499 34.1187 17.218 34.4955 16 34.4955V36.4955C17.6062 36.4955 19.1828 36.0033 20.3772 35.0782L19.1525 33.497ZM20.3243 31.3716C20.3243 32.1056 19.9493 32.8799 19.1525 33.497L20.3772 35.0782C21.5774 34.1486 22.3243 32.825 22.3243 31.3716H20.3243ZM19.1525 29.2462C19.9493 29.8633 20.3243 30.6376 20.3243 31.3716H22.3243C22.3243 29.9182 21.5774 28.5946 20.3772 27.665L19.1525 29.2462ZM16 28.2478C17.218 28.2478 18.3499 28.6246 19.1525 29.2462L20.3772 27.665C19.1828 26.7399 17.6062 26.2478 16 26.2478V28.2478ZM15 23.1239V27.2478H17V23.1239H15ZM17.732 21.8578C17.1878 22.0324 16.5987 22.1239 16 22.1239V24.1239C16.7997 24.1239 17.5953 24.0021 18.343 23.7622L17.732 21.8578ZM19.1525 21.1254C18.7577 21.4312 18.2765 21.6831 17.732 21.8578L18.343 23.7622C19.0905 23.5224 19.7832 23.1667 20.3772 22.7066L19.1525 21.1254ZM20.0372 20.1066C19.8425 20.4706 19.5471 20.8198 19.1525 21.1254L20.3772 22.7066C20.9714 22.2464 21.4604 21.6864 21.8009 21.0497L20.0372 20.1066ZM20.3243 19C20.3243 19.3691 20.231 19.7442 20.0372 20.1066L21.8009 21.0497C22.1422 20.4115 22.3243 19.714 22.3243 19H20.3243ZM16 20L21.3243 20L21.3243 18L16 18L16 20ZM15 19V19H17V19H15ZM606 109.725V126.22H608V109.725H606ZM607 110.725H607V108.725H607V110.725ZM608 117.973V109.725H606V117.973H608ZM608 126.22V117.973H606V126.22H608ZM607 125.22H607V127.22H607V125.22ZM34.2124 131.762C29.4158 135.477 22.8669 137.592 16.0005 137.592V139.592C23.255 139.592 30.2487 137.362 35.4371 133.343L34.2124 131.762ZM41.6221 117.973C41.6221 123.082 39.0032 128.052 34.2124 131.762L35.4371 133.343C40.6314 129.32 43.6221 123.801 43.6221 117.973H41.6221ZM34.2124 104.183C39.0032 107.894 41.6221 112.864 41.6221 117.973H43.6221C43.6221 112.145 40.6314 106.625 35.4371 102.602L34.2124 104.183ZM16.0005 98.3535C22.8669 98.3535 29.4158 100.468 34.2124 104.183L35.4371 102.602C30.2487 98.5836 23.255 96.3535 16.0005 96.3535V98.3535ZM17.0005 117.973L17.0005 97.3535L15.0005 97.3535L15.0005 117.973L17.0005 117.973ZM17.0005 138.592L17.0005 117.973L15.0005 117.973L15.0005 138.592L17.0005 138.592Z" fill="black" mask="url(#path-3-inside-1_535_364)"/>
</mask>
<g mask="url(#mask0_535_364)">
<path fill-rule="evenodd" clip-rule="evenodd" d="M461.114 19.4124C461.114 25.1063 455.154 29.7221 447.803 29.7221C440.452 29.7221 434.492 25.1063 434.492 19.4124C434.492 19.2743 434.496 19.1368 434.503 19H16V19L21.3243 19C21.3243 19.5416 21.1866 20.0778 20.919 20.5781C20.6515 21.0785 20.2593 21.5331 19.7649 21.916C19.2705 22.299 18.6835 22.6027 18.0375 22.81C17.3916 23.0172 16.6992 23.1239 16 23.1239V27.2478C17.4121 27.2478 18.7664 27.6822 19.7649 28.4556C20.7634 29.229 21.3243 30.2779 21.3243 31.3716C21.3243 32.4653 20.7634 33.5143 19.7649 34.2876C18.7664 35.061 17.4121 35.4955 16 35.4955V39.6194C17.4121 39.6194 18.7664 40.0538 19.7649 40.8272C20.7634 41.6006 21.3243 42.6495 21.3243 43.7432C21.3243 44.8369 20.7634 45.8859 19.7649 46.6592C18.7664 47.4326 17.4121 47.8671 16 47.8671V51.9909C17.4121 51.9909 18.7664 52.4254 19.7649 53.1987C20.7634 53.9721 21.3243 55.021 21.3243 56.1148C21.3243 57.2085 20.7634 58.2574 19.7649 59.0308C18.7664 59.8041 17.4121 60.2386 16 60.2386V64.3625C17.4121 64.3625 18.7664 64.797 19.7649 65.5703C20.7634 66.3437 21.3243 67.3926 21.3243 68.4864C21.3243 69.5801 20.7634 70.629 19.7649 71.4024C18.7664 72.1757 17.4121 72.6102 16 72.6102V76.7341C17.4121 76.7341 18.7664 77.1686 19.7649 77.9419C20.7634 78.7153 21.3243 79.7642 21.3243 80.858C21.3243 81.9517 20.7634 83.0006 19.7649 83.774C18.7664 84.5473 17.4121 84.9818 16 84.9818V150.964C17.4121 150.964 18.7664 151.398 19.7649 152.171C20.7634 152.945 21.3243 153.994 21.3243 155.087C21.3243 156.181 20.7634 157.23 19.7649 158.004C18.7664 158.777 17.4121 159.211 16 159.211V163.335C17.4121 163.335 18.7664 163.77 19.7649 164.543C20.7634 165.316 21.3243 166.365 21.3243 167.459C21.3243 168.553 20.7634 169.602 19.7649 170.375C18.7664 171.148 17.4121 171.583 16 171.583V175.707C17.4121 175.707 18.7664 176.141 19.7649 176.915C20.7634 177.688 21.3243 178.737 21.3243 179.831C21.3243 180.924 20.7634 181.973 19.7649 182.747C18.7664 183.52 17.4121 183.955 16 183.955V188.078C17.4121 188.078 18.7664 188.513 19.7649 189.286C20.7634 190.06 21.3243 191.109 21.3243 192.202C21.3243 193.296 20.7634 194.345 19.7649 195.118C18.7664 195.892 17.4121 196.326 16 196.326V200.45C17.4121 200.45 18.7664 200.884 19.7649 201.658C20.7634 202.431 21.3243 203.48 21.3243 204.574C21.3243 205.668 20.7634 206.716 19.7649 207.49C18.7664 208.263 17.4121 208.698 16 208.698V212.822C16.6992 212.822 17.3916 212.928 18.0375 213.135C18.6835 213.343 19.2705 213.646 19.7649 214.029C20.2593 214.412 20.6515 214.867 20.919 215.367C21.1866 215.868 21.3243 216.404 21.3243 216.945L434.503 216.945C434.782 211.443 440.63 207.048 447.803 207.048C454.976 207.048 460.824 211.443 461.103 216.945H607L601.676 216.945C601.676 216.404 601.813 215.868 602.081 215.367C602.349 214.867 602.741 214.412 603.235 214.029C603.73 213.646 604.317 213.343 604.963 213.135C605.609 212.928 606.301 212.822 607 212.822V208.698C605.588 208.698 604.234 208.263 603.235 207.49C602.237 206.716 601.676 205.668 601.676 204.574C601.676 203.48 602.237 202.431 603.235 201.658C604.234 200.884 605.588 200.45 607 200.45V196.326C605.588 196.326 604.234 195.892 603.235 195.118C602.237 194.345 601.676 193.296 601.676 192.202C601.676 191.109 602.237 190.06 603.235 189.286C604.234 188.513 605.588 188.078 607 188.078V183.955C605.588 183.955 604.234 183.52 603.235 182.747C602.237 181.973 601.676 180.924 601.676 179.831C601.676 178.737 602.237 177.688 603.235 176.915C604.234 176.141 605.588 175.707 607 175.707V171.583C605.588 171.583 604.234 171.148 603.235 170.375C602.237 169.602 601.676 168.553 601.676 167.459C601.676 166.365 602.237 165.316 603.235 164.543C604.234 163.77 605.588 163.335 607 163.335V159.211C605.588 159.211 604.234 158.777 603.235 158.003C602.237 157.23 601.676 156.181 601.676 155.087C601.676 153.994 602.237 152.945 603.235 152.171C604.234 151.398 605.588 150.964 607 150.964V134.468H607V138.592C599.939 138.592 593.168 136.42 588.175 132.553C583.183 128.686 580.378 123.441 580.378 117.973C580.378 112.504 583.183 107.26 588.175 103.393C593.168 99.5259 599.939 97.3535 607 97.3535V101.477H607V84.9819C605.588 84.9819 604.234 84.5474 603.235 83.774C602.237 83.0006 601.676 81.9517 601.676 80.858C601.676 79.7643 602.237 78.7154 603.235 77.942C604.234 77.1686 605.588 76.7341 607 76.7341V72.6103C605.588 72.6103 604.234 72.1758 603.235 71.4024C602.237 70.629 601.676 69.5801 601.676 68.4864C601.676 67.3927 602.237 66.3438 603.235 65.5704C604.234 64.797 605.588 64.3625 607 64.3625V60.2387C605.588 60.2387 604.234 59.8042 603.235 59.0308C602.237 58.2575 601.676 57.2085 601.676 56.1148C601.676 55.0211 602.237 53.9722 603.235 53.1988C604.234 52.4254 605.588 51.991 607 51.991V47.8671C605.588 47.8671 604.234 47.4326 603.235 46.6593C602.237 45.8859 601.676 44.837 601.676 43.7432C601.676 42.6495 602.237 41.6006 603.235 40.8272C604.234 40.0539 605.588 39.6194 607 39.6194V35.4955C605.588 35.4955 604.234 35.0611 603.235 34.2877C602.237 33.5143 601.676 32.4654 601.676 31.3717C601.676 30.2779 602.237 29.229 603.235 28.4557C604.234 27.6823 605.588 27.2478 607 27.2478V23.1239C606.301 23.1239 605.609 23.0173 604.963 22.81C604.317 22.6028 603.73 22.299 603.235 21.9161C602.741 21.5332 602.349 21.0785 602.081 20.5782C601.813 20.0779 601.676 19.5416 601.676 19.0001L607 19.0001L607 19H461.103C461.11 19.1368 461.114 19.2743 461.114 19.4124ZM607 126.22V109.725H607V117.973V126.22H607ZM16.0005 138.592C23.0609 138.592 29.8323 136.42 34.8248 132.553C39.8173 128.686 42.6221 123.441 42.6221 117.973C42.6221 112.504 39.8173 107.26 34.8248 103.393C29.8323 99.5259 23.0609 97.3535 16.0005 97.3535L16.0005 117.973L16.0005 138.592Z" fill="white"/>
<rect class="tws-team-b-fill" x="510" y="19" width="198" height="22" transform="rotate(90 510 19)" fill="#73000A"/>
<rect class="tws-team-a-fill" x="485" y="19" width="198" height="21" transform="rotate(90 485 19)" fill="#2C2A29"/>
<path d="M94 26V210.749" stroke="#28334A" stroke-width="4" stroke-linecap="round" stroke-dasharray="0.01 10"/>
<path d="M65.5799 175.209C63.9239 175.209 62.8079 176.019 61.7099 178.845C61.0619 180.627 60.5579 181.311 59.7479 181.311C58.8659 181.311 58.1279 180.699 58.1279 179.367C58.1279 178.395 58.5599 177.279 58.9739 176.541L56.9939 175.821C56.5259 176.631 56.1299 177.963 56.1299 179.313C56.1299 182.013 57.8939 183.561 59.8019 183.561C61.3139 183.561 62.4839 182.715 63.3839 180.249C64.2299 177.963 64.7339 177.495 65.5799 177.495C66.3899 177.495 67.1279 178.179 67.1279 179.673C67.1279 180.807 66.6959 182.067 65.9939 183.111L68.0099 183.885C68.7119 182.733 69.2159 181.239 69.2159 179.745C69.2159 176.919 67.8299 175.209 65.5799 175.209ZM60.5399 179.097L59.3339 180.933L59.6039 180.987L60.7919 179.169C60.7019 179.151 60.6299 179.133 60.5399 179.097ZM67.7399 175.515L68.9639 173.661L68.7479 173.535L67.5419 175.371C67.6139 175.425 67.6859 175.461 67.7399 175.515ZM58.3619 175.983L59.5679 174.147C59.4959 174.111 59.4059 174.075 59.3339 174.057L58.1279 175.893L58.3619 175.983ZM67.2719 175.245L68.4779 173.391L68.2619 173.301L67.0379 175.137L67.2719 175.245ZM60.0899 178.809L58.8839 180.645L59.0639 180.807L60.2879 178.953C60.2159 178.917 60.1619 178.863 60.0899 178.809ZM59.8559 174.255L58.6499 176.091L58.8839 176.163L60.0899 174.345C59.9999 174.309 59.9279 174.273 59.8559 174.255ZM68.1719 175.839L69.3599 174.003L69.1799 173.841L67.9919 175.677L68.1719 175.839ZM66.4079 173.157L65.2559 174.903C65.3639 174.885 65.4539 174.885 65.5619 174.885L66.7319 173.121C66.6239 173.121 66.5159 173.139 66.4079 173.157ZM67.7039 173.175L66.4979 174.975C66.5879 174.993 66.6779 175.011 66.7499 175.047L67.9559 173.211L67.7039 173.175ZM68.5499 176.253L69.7379 174.435L69.5759 174.237L68.3879 176.073L68.5499 176.253ZM69.1259 177.333L70.2959 175.551L70.1879 175.263L69.0179 177.063L69.1259 177.333ZM59.7479 178.341L58.5779 180.141L58.6859 180.393L59.8919 178.575L59.7479 178.341ZM69.3419 177.999L70.4759 176.271C70.4579 176.145 70.4399 176.037 70.4039 175.929L69.2519 177.693L69.3419 177.999ZM58.8299 173.859L57.6059 175.713L57.8399 175.785L59.0459 173.949C58.9739 173.913 58.9019 173.877 58.8299 173.859ZM66.1739 174.921L67.3619 173.121C67.2719 173.103 67.1819 173.103 67.0919 173.103L65.9039 174.903C65.9939 174.903 66.0839 174.921 66.1739 174.921ZM68.8559 176.757L70.0439 174.939L69.9179 174.705L68.7299 176.523C68.7659 176.595 68.8199 176.667 68.8559 176.757ZM59.5499 177.675L58.4519 179.331L58.4519 179.367C58.4519 179.493 58.4699 179.619 58.4879 179.727L59.6219 177.999C59.5859 177.891 59.5679 177.783 59.5499 177.675ZM69.4679 178.755L70.5839 177.081L70.5479 176.703L69.4319 178.395L69.4679 178.755ZM65.5799 173.445L64.5359 175.011L64.8779 174.939L65.9759 173.265C65.8499 173.319 65.7059 173.373 65.5799 173.445ZM69.5399 179.655L70.5839 178.053C70.5839 177.909 70.6019 177.747 70.6019 177.603L69.5219 179.241C69.5219 179.367 69.5399 179.511 69.5399 179.655ZM58.3799 173.697L57.1739 175.551L57.3539 175.623L58.5779 173.769C58.5239 173.733 58.4519 173.715 58.3799 173.697ZM61.2419 179.205L61.1339 179.205L59.9639 180.969C60.1439 180.915 60.2879 180.825 60.4499 180.681L60.9359 179.943C61.0259 179.727 61.1339 179.493 61.2419 179.205ZM69.4499 180.753L70.3679 179.367C70.4219 179.151 70.4579 178.935 70.4939 178.719L69.5219 180.213C69.5039 180.393 69.4859 180.573 69.4499 180.753ZM59.5499 176.667L58.7579 177.873C58.6679 178.143 58.5959 178.413 58.5419 178.665L59.5139 177.171C59.5139 177.009 59.5319 176.847 59.5499 176.667ZM60.0899 174.903L59.1719 176.271L59.4059 176.361L59.7119 175.893C59.8199 175.533 59.9459 175.209 60.0899 174.903ZM69.1619 182.031L69.4139 181.653C69.6479 181.275 69.8459 180.879 70.0259 180.447L69.3059 181.527L69.1619 182.031ZM64.1759 174.795L63.8699 175.263C63.9419 175.227 64.0139 175.209 64.0679 175.173L64.8779 173.949C64.6439 174.183 64.4099 174.453 64.1759 174.795Z" fill="#28334A"/>
<path d="M65.3099 158.054L66.5159 156.236L66.2639 156.146L65.0579 157.982L65.3099 158.054ZM62.0699 157.082L63.2759 155.246L63.0239 155.156L61.8179 156.992L62.0699 157.082ZM64.2479 165.56L65.4719 163.706L65.2379 163.598L64.0139 165.452L64.2479 165.56ZM57.2279 155.57L58.4519 153.716L58.1999 153.626L56.9759 155.48L57.2279 155.57ZM58.2899 155.912L59.5139 154.058L59.2799 153.968L58.0559 155.822L58.2899 155.912ZM57.7679 155.732L58.9919 153.878L58.7399 153.806L57.5159 155.66L57.7679 155.732ZM60.9899 156.74L62.1959 154.904L61.9619 154.814L60.7379 156.668L60.9899 156.74ZM61.5299 156.902L62.7359 155.066L62.5019 154.994L61.2779 156.83L61.5299 156.902ZM68.2439 167.36L69.4499 165.506L69.2339 165.398L68.0099 167.252L68.2439 167.36ZM67.7399 167.126L68.9639 165.272L68.7479 165.182L67.5239 167.036L67.7399 167.126ZM67.2359 166.91L68.4599 165.056L68.2439 164.948L67.0199 166.802L67.2359 166.91ZM66.2459 166.46L67.4699 164.606L67.2359 164.498L66.0119 166.352L66.2459 166.46ZM69.2339 167.81L70.4579 165.956L70.2239 165.848L68.9999 167.702L69.2339 167.81ZM65.2379 166.01L66.4619 164.156L66.2459 164.048L65.0219 165.902L65.2379 166.01ZM68.7479 167.576L69.9539 165.722L69.7379 165.632L68.5139 167.486L68.7479 167.576ZM60.4499 156.578L61.6559 154.724L61.4219 154.652L60.1979 156.506L60.4499 156.578ZM63.7439 165.326L64.9679 163.49L64.7339 163.382L63.5279 165.218L63.7439 165.326ZM63.2579 165.092L64.4639 163.256L64.2299 163.166L63.0239 165.002L63.2579 165.092ZM67.4699 158.702L68.6759 156.884L68.4239 156.812L67.2179 158.63L67.4699 158.702ZM66.3899 158.378L67.5959 156.56L67.3439 156.488L66.1379 158.306L66.3899 158.378ZM64.7699 157.892L65.9759 156.056L65.7239 155.984L64.5179 157.82L64.7699 157.892ZM64.2299 157.73L65.4359 155.894L65.1839 155.822L63.9779 157.658L64.2299 157.73ZM63.1499 157.406L64.3559 155.57L64.1039 155.498L62.8979 157.334L63.1499 157.406ZM65.8499 158.216L67.0559 156.398L66.8039 156.326L65.5979 158.144L65.8499 158.216ZM68.5499 159.026L69.7379 157.208L69.5039 157.136L68.2979 158.954L68.5499 159.026ZM63.6899 157.568L64.8959 155.732L64.6439 155.66L63.4379 157.496L63.6899 157.568ZM68.0099 158.864L69.1979 157.046L68.9639 156.974L67.7579 158.792L68.0099 158.864ZM66.9299 158.54L68.1359 156.722L67.8839 156.65L66.6779 158.468L66.9299 158.54ZM65.7419 166.226L66.9659 164.372L66.7499 164.282L65.5259 166.136L65.7419 166.226ZM64.7519 165.776L65.9579 163.922L65.7419 163.832L64.5179 165.686L64.7519 165.776ZM66.7499 166.676L67.9559 164.822L67.7399 164.732L66.5159 166.586L66.7499 166.676ZM59.9099 156.416L61.1159 154.562L60.8819 154.49L59.6579 156.344L59.9099 156.416ZM58.8299 156.074L60.0539 154.22L59.8199 154.148L58.5959 156.002L58.8299 156.074ZM59.3699 156.236L60.5759 154.4L60.3419 154.328L59.1359 156.164L59.3699 156.236ZM62.5919 157.244L63.7979 155.408L63.5639 155.336L62.3579 157.172L62.5919 157.244ZM69.0719 159.188L70.2779 157.37L70.0439 157.298L68.8559 159.116L69.0719 159.188ZM57.6419 169.664L58.7399 168.008L58.3799 168.116L57.2819 169.772L57.6419 169.664ZM60.0719 168.944L61.1519 167.288L60.7919 167.396L59.6939 169.052L60.0719 168.944ZM58.4519 169.43L59.5499 167.774L59.1899 167.882L58.0919 169.538L58.4519 169.43ZM59.2619 169.196L60.3599 167.522L59.9999 167.63L58.9019 169.304L59.2619 169.196ZM69.4859 159.314L69.4859 159.566L70.5479 157.946L70.5479 157.514L69.3779 159.278L69.4859 159.314ZM62.7539 164.876L63.9239 163.094L63.5099 163.292L62.5199 164.768L62.7539 164.876ZM57.7319 153.482L56.5259 155.336L56.7419 155.408L57.9479 153.554L57.7319 153.482ZM58.4339 162.572L59.4779 161.006L59.0639 161.168L58.0199 162.752L58.4339 162.572ZM57.5339 162.95L58.5959 161.366L58.1999 161.528L57.1379 163.13L57.5339 162.95ZM60.2339 161.816L61.2599 160.268L60.8459 160.43L59.8199 161.996L60.2339 161.816ZM70.5479 166.784L70.5479 166.352L69.4859 167.972L69.4859 168.386L70.5479 166.784ZM59.3339 162.194L60.3599 160.646L59.9639 160.808L58.9199 162.374L59.3339 162.194ZM60.8639 168.71L61.8179 167.27L61.6019 167.162L60.5039 168.818L60.8639 168.71ZM61.8539 160.016L61.7459 160.07L60.7199 161.618L61.1159 161.438L62.0339 160.07L61.8539 160.016ZM61.6739 168.458L62.3219 167.468L62.1059 167.378L61.3139 168.566L61.6739 168.458ZM56.6159 169.97L56.8319 169.916L57.9479 168.242L57.7139 168.296L56.6159 169.97ZM62.2499 164.642L62.9879 163.526L62.5739 163.706L62.0339 164.552L62.2499 164.642ZM62.0339 161.06L62.5739 160.232L62.3219 160.16L61.6199 161.222L62.0339 161.06ZM62.4839 168.224L62.8439 167.684L62.6099 167.594L62.1239 168.332L62.4839 168.224ZM62.9339 160.682L63.1139 160.394L62.8799 160.322L62.5199 160.844L62.9339 160.682ZM61.7459 164.426L62.0699 163.94L61.6559 164.138L61.5299 164.318L61.7459 164.426ZM63.2939 167.99L63.3479 167.9L63.1139 167.81L62.9339 168.098L63.2939 167.99ZM56.3459 155.606L56.3459 158.036L64.3919 160.412L56.2199 163.85L56.2199 164.588L64.4099 167.99L56.3459 170.384L56.3459 172.85L69.1619 168.872L69.1619 168.116L60.6119 164.246L69.1619 160.322L69.1619 159.548L56.3459 155.606Z" fill="#28334A"/>
<path d="M63.1679 149.622L64.3379 147.84L64.0499 147.84L62.8799 149.622L63.1679 149.622ZM68.3519 149.622L69.5219 147.84L69.2339 147.84L68.0639 149.622L68.3519 149.622ZM68.9999 149.622L70.1699 147.84L69.8819 147.84L68.7119 149.622L68.9999 149.622ZM60.5759 149.622L61.7459 147.84L61.4579 147.84L60.2879 149.622L60.5759 149.622ZM57.9839 149.622L59.1539 147.84L58.8659 147.84L57.6959 149.622L57.9839 149.622ZM59.2799 149.622L60.4499 147.84L60.1619 147.84L58.9919 149.622L59.2799 149.622ZM58.6319 149.622L59.8019 147.84L59.5139 147.84L58.3439 149.622L58.6319 149.622ZM62.5199 149.622L63.6899 147.84L63.4019 147.84L62.2319 149.622L62.5199 149.622ZM61.2239 149.622L62.3939 147.84L62.1059 147.84L60.9359 149.622L61.2239 149.622ZM65.7599 149.622L66.9299 147.84L66.6419 147.84L65.4719 149.622L65.7599 149.622ZM65.1119 149.622L66.2819 147.84L65.9939 147.84L64.8239 149.622L65.1119 149.622ZM63.8159 149.622L64.9859 147.84L64.6979 147.84L63.5279 149.622L63.8159 149.622ZM67.7039 149.622L68.8739 147.84L68.5859 147.84L67.4159 149.622L67.7039 149.622ZM61.8719 149.622L63.0419 147.84L62.7539 147.84L61.5839 149.622L61.8719 149.622ZM59.9279 149.622L61.0979 147.84L60.8099 147.84L59.6399 149.622L59.9279 149.622ZM57.3359 149.622L58.5059 147.84L58.2719 147.84L57.1019 149.622L57.3359 149.622ZM67.0559 149.622L68.2259 147.84L67.9379 147.84L66.7679 149.622L67.0559 149.622ZM66.4079 149.622L67.5779 147.84L67.2899 147.84L66.1199 149.622L66.4079 149.622ZM64.4639 149.622L65.6339 147.84L65.3459 147.84L64.1759 149.622L64.4639 149.622ZM69.3239 150.954L70.3859 149.334L70.3859 148.992L69.3239 150.594L69.3239 150.954ZM69.3239 150.108L70.3859 148.506L70.3859 148.056L69.3239 149.676L69.3239 150.108ZM57.7499 147.84L56.5619 149.622L56.8319 149.622L58.0019 147.84L57.7499 147.84ZM70.3859 150.09L70.3859 149.766L69.3239 151.386L69.3239 151.692L70.3859 150.09ZM68.9999 152.178L68.9999 149.946L56.3459 149.946L56.3459 152.178L68.9999 152.178Z" fill="#28334A"/>
<path d="M68.9639 142.692L70.1339 140.91L69.8459 140.91L68.6759 142.692L68.9639 142.692ZM68.3159 142.692L69.4859 140.91L69.1979 140.91L68.0279 142.692L68.3159 142.692ZM67.6679 142.692L68.8379 140.91L68.5499 140.91L67.3799 142.692L67.6679 142.692ZM67.0199 142.692L68.1899 140.91L67.9019 140.91L66.7319 142.692L67.0199 142.692ZM59.2439 142.692L60.4139 140.91L60.1259 140.91L58.9559 142.692L59.2439 142.692ZM66.3719 142.692L67.5419 140.91L67.2539 140.91L66.0839 142.692L66.3719 142.692ZM65.7239 142.692L66.8939 140.91L66.6059 140.91L65.4359 142.692L65.7239 142.692ZM65.0759 142.692L66.2459 140.91L65.9579 140.91L64.7879 142.692L65.0759 142.692ZM60.5399 142.692L61.7099 140.91L61.4219 140.91L60.2519 142.692L60.5399 142.692ZM59.8919 142.692L61.0619 140.91L60.7739 140.91L59.6039 142.692L59.8919 142.692ZM62.7539 137.364L63.9419 135.582L63.6539 135.582L62.4659 137.364L62.7539 137.364ZM57.3719 136.68L58.5599 134.898L58.2719 134.898L57.0839 136.68L57.3719 136.68ZM64.0499 137.364L65.2379 135.582L64.9499 135.582L63.7619 137.364L64.0499 137.364ZM63.4019 137.364L64.5899 135.582L64.3019 135.582L63.1139 137.364L63.4019 137.364ZM58.0199 136.68L59.2079 134.898L58.9199 134.898L57.7319 136.68L58.0199 136.68ZM59.7839 134.898L59.5679 134.898L58.3799 136.68L58.6679 136.68L59.7839 134.988L59.7839 134.898ZM65.4539 140.91L65.4539 140.694L64.3919 142.314L64.3919 142.692L64.4279 142.692L65.5979 140.91L65.4539 140.91ZM58.7219 142.512L59.7839 140.892L59.7839 140.442L58.7219 142.062L58.7219 142.512ZM69.3239 144.024L70.3859 142.422L70.3859 142.062L69.3239 143.664L69.3239 144.024ZM64.3919 138.822L65.4539 137.202L65.4539 136.752L64.3919 138.372L64.3919 138.822ZM64.3919 141.774L65.4539 140.154L65.4539 139.704L64.3919 141.324L64.3919 141.774ZM64.3919 137.832L65.4539 136.23L65.4539 135.78L64.3919 137.382L64.3919 137.832ZM69.3239 143.124L70.3859 141.522L70.3859 141.072L69.3059 142.692L69.3239 142.692L69.3239 143.124ZM58.7219 141.522L59.7839 139.902L59.7839 139.47L58.7219 141.072L58.7219 141.522ZM64.3919 139.794L65.4539 138.192L65.4539 137.742L64.3919 139.362L64.3919 139.794ZM64.3919 140.784L65.4539 139.164L65.4539 138.732L64.3919 140.334L64.3919 140.784ZM58.7219 138.57L59.7839 136.968L59.7839 136.518L58.7219 138.138L58.7219 138.57ZM58.7219 137.58L59.7839 135.978L59.7839 135.528L58.7219 137.148L58.7219 137.58ZM58.7219 139.56L59.7839 137.94L59.7839 137.508L58.7219 139.11L58.7219 139.56ZM58.7219 140.532L59.7839 138.93L59.7839 138.48L58.7219 140.1L58.7219 140.532ZM57.7499 134.898L56.5619 136.68L56.7779 136.68L57.9659 134.898L57.7499 134.898ZM61.7639 141.828L61.7639 141.378L60.8999 142.692L61.1879 142.692L61.7639 141.828ZM70.3859 143.142L70.3859 142.836L69.3239 144.456L69.3239 144.744L70.3859 143.142ZM61.7639 142.692L61.7639 142.35L61.5479 142.692L61.7639 142.692ZM68.9999 145.23L68.9999 143.016L64.0679 143.016L64.0679 137.688L62.0879 137.688L62.0879 143.016L58.3979 143.016L58.3979 137.004L56.3459 137.004L56.3459 145.23L68.9999 145.23Z" fill="#28334A"/>
<path d="M61.1519 128.122L62.3399 126.34L62.0339 126.34L60.8639 128.122L61.1519 128.122ZM58.0739 123.964L59.2439 122.182L58.9559 122.182L57.7679 123.964L58.0739 123.964ZM57.4259 123.964L58.5959 122.182L58.3079 122.182L57.1199 123.964L57.4259 123.964ZM59.7839 122.182L59.6039 122.182L58.4159 123.964L58.7219 123.964L59.7839 122.344L59.7839 122.182ZM66.9839 128.122L68.1719 126.34L67.8839 126.34L66.6959 128.122L66.9839 128.122ZM65.0399 128.122L66.2279 126.34L65.9399 126.34L64.7519 128.122L65.0399 128.122ZM63.7439 128.122L64.9319 126.34L64.6439 126.34L63.4559 128.122L63.7439 128.122ZM65.6879 128.122L66.8759 126.34L66.5879 126.34L65.3999 128.122L65.6879 128.122ZM62.4479 128.122L63.6359 126.34L63.3479 126.34L62.1599 128.122L62.4479 128.122ZM60.5039 128.122L61.6919 126.34L61.4039 126.34L60.2159 128.122L60.5039 128.122ZM63.0959 128.122L64.2839 126.34L63.9959 126.34L62.8079 128.122L63.0959 128.122ZM59.2079 128.122L60.3959 126.34L60.1079 126.34L58.9199 128.122L59.2079 128.122ZM59.8559 128.122L61.0439 126.34L60.7559 126.34L59.5679 128.122L59.8559 128.122ZM64.3919 128.122L65.5799 126.34L65.2919 126.34L64.1039 128.122L64.3919 128.122ZM68.9279 128.122L70.0979 126.34L69.8099 126.34L68.6399 128.122L68.9279 128.122ZM68.2799 128.122L69.4499 126.34L69.1619 126.34L67.9919 128.122L68.2799 128.122ZM61.7999 128.122L62.9879 126.34L62.6999 126.34L61.5119 128.122L61.7999 128.122ZM67.6319 128.122L68.8199 126.34L68.5319 126.34L67.3439 128.122L67.6319 128.122ZM66.3359 128.122L67.5239 126.34L67.2359 126.34L66.0479 128.122L66.3359 128.122ZM69.3239 128.518L70.3859 126.898L70.3859 126.466L69.2879 128.122L69.3239 128.122L69.3239 128.518ZM58.7219 124.936L59.7839 123.316L59.7839 122.884L58.7219 124.486L58.7219 124.936ZM58.7219 125.908L59.7839 124.306L59.7839 123.856L58.7219 125.476L58.7219 125.908ZM58.7219 127.888L59.7839 126.268L59.7839 125.836L58.7219 127.438L58.7219 127.888ZM58.7219 126.898L59.7839 125.296L59.7839 124.846L58.7219 126.466L58.7219 126.898ZM58.7219 133.684L59.7839 132.082L59.7839 131.722L58.7219 133.342L58.7219 133.684ZM69.3239 129.418L70.3859 127.816L70.3859 127.402L69.3239 129.022L69.3239 129.418ZM57.7499 122.182L56.5619 123.964L56.8319 123.964L58.0019 122.182L57.7499 122.182ZM59.7839 131.02L59.6039 131.02L58.7219 132.352L58.7219 132.802L59.7839 131.182L59.7839 131.02ZM70.3859 128.608L70.3859 128.23L69.3239 129.832L69.3239 130.21L70.3859 128.608ZM58.7219 131.812L59.2439 131.02L58.9559 131.02L58.7219 131.362L58.7219 131.812ZM59.7839 132.838L59.7839 132.514L58.7219 134.116L58.7219 134.44L59.7839 132.838ZM58.3979 134.926L58.3979 130.696L68.9999 130.696L68.9999 128.446L58.3979 128.446L58.3979 124.288L56.3459 124.288L56.3459 134.926L58.3979 134.926Z" fill="#28334A"/>
<path d="M69.1259 107.642L70.3499 105.806L70.1339 105.68L68.9279 107.534L69.1259 107.642ZM68.6579 107.39L69.8639 105.554L69.6479 105.428L68.4419 107.282L68.6579 107.39ZM67.7039 106.886L68.9099 105.032L68.6939 104.924L67.4879 106.76L67.7039 106.886ZM67.2899 112.43L68.4599 110.648L68.1719 110.648L66.9839 112.43L67.2899 112.43ZM67.2179 106.634L68.4419 104.78L68.2259 104.672L67.0019 106.508L67.2179 106.634ZM70.3859 99.7399L70.1519 99.7579L68.9819 101.522L69.2699 101.522L70.3859 99.8479L70.3859 99.7399ZM67.5239 110.63L66.3539 112.412L66.6419 112.412L67.8119 110.63L67.5239 110.63ZM65.9939 112.412L67.1639 110.63L66.8759 110.63L65.7059 112.412L65.9939 112.412ZM66.3899 110.63L66.1379 110.774L65.0579 112.412L65.3639 112.412L66.5339 110.63L66.3899 110.63ZM58.7399 101.81L59.8919 100.046L59.6039 100.046L58.4339 101.81L58.7399 101.81ZM60.7199 101.756L61.8719 99.9919L61.5839 99.9919L60.4139 101.756L60.7199 101.756ZM62.6999 101.702L63.8519 99.9379L63.5639 99.9379L62.3939 101.702L62.6999 101.702ZM65.9939 101.612L67.1639 99.8479L66.8579 99.8479L65.7059 101.612L65.9939 101.612ZM66.6599 101.594L67.8119 99.8299L67.5239 99.8299L66.3539 101.594L66.6599 101.594ZM68.8199 110.648L67.6319 112.43L67.9199 112.43L69.0899 110.648L68.8199 110.648ZM68.5679 112.43L69.7379 110.648L69.4499 110.648L68.2799 112.43L68.5679 112.43ZM68.1719 107.138L69.3779 105.284L69.1799 105.176L67.9739 107.03L68.1719 107.138ZM66.7319 106.364L67.9559 104.528L67.7399 104.42L66.5339 106.256L66.7319 106.364ZM70.3859 110.648L70.0979 110.648L68.9279 112.43L69.2159 112.43L70.3859 110.666L70.3859 110.648ZM67.3079 101.576L68.4779 99.8119L68.1899 99.8119L67.0199 101.576L67.3079 101.576ZM63.3479 101.684L64.5179 99.9199L64.2299 99.9199L63.0599 101.684L63.3479 101.684ZM68.6399 101.54L69.7919 99.7759L69.5039 99.7759L68.3339 101.54L68.6399 101.54ZM65.3279 101.63L66.4979 99.8659L66.2099 99.8659L65.0399 101.63L65.3279 101.63ZM67.9739 101.558L69.1259 99.7939L68.8379 99.7939L67.6859 101.558L67.9739 101.558ZM57.4079 101.846L58.5779 100.082L58.2899 100.082L57.1199 101.846L57.4079 101.846ZM59.3879 101.792L60.5579 100.028L60.2699 100.028L59.0999 101.792L59.3879 101.792ZM61.3679 101.738L62.5379 99.9739L62.2499 99.9739L61.0799 101.738L61.3679 101.738ZM64.0139 101.666L65.1659 99.9019L64.8779 99.9019L63.7259 101.666L64.0139 101.666ZM58.0739 101.828L59.2259 100.064L58.9379 100.064L57.7859 101.828L58.0739 101.828ZM64.6619 101.648L65.8319 99.8839L65.5439 99.8839L64.3739 101.648L64.6619 101.648ZM60.0539 101.774L61.2059 100.01L60.9179 100.01L59.7659 101.774L60.0539 101.774ZM62.0339 101.72L63.1859 99.9559L62.8979 99.9559L61.7459 101.72L62.0339 101.72ZM66.2639 106.112L67.3979 104.384L67.0919 104.402L66.0479 106.004L66.2639 106.112ZM69.3239 113.258L70.3859 111.656L70.3859 111.206L69.3239 112.808L69.3239 113.258ZM56.5259 101.864L56.8139 101.864L57.9659 100.1L57.6959 100.1L56.5259 101.864ZM69.4319 108.182L70.4939 106.562L70.4939 106.13L69.3959 107.786L69.4319 107.804L69.4319 108.182ZM69.3239 103.43L70.3859 101.828L70.3859 101.378L69.3239 102.998L69.3239 103.43ZM69.3239 114.248L70.3859 112.628L70.3859 112.196L69.3239 113.798L69.3239 114.248ZM69.3239 102.44L70.3859 100.838L70.3859 100.406L69.3239 102.026L69.3239 102.44ZM60.6299 110.738L61.5659 109.316L61.0799 109.586L60.1619 111.008L60.6299 110.738ZM59.5859 111.332L60.5219 109.91L60.0539 110.18L59.1179 111.584L59.5859 111.332ZM58.5599 111.908L59.4779 110.504L59.0099 110.774L58.0739 112.178L58.5599 111.908ZM57.4979 112.52L58.4339 111.098L57.9839 111.35L57.0299 112.79L57.4979 112.52ZM61.6559 110.162L62.5919 108.74L62.1239 108.992L61.1879 110.414L61.6559 110.162ZM65.7779 105.86L66.7499 104.402L66.4619 104.402L65.5619 105.752L65.7779 105.86ZM62.6999 109.55L63.6179 108.146L63.1679 108.416L62.2319 109.82L62.6999 109.55ZM64.7159 112.394L65.5799 111.08L65.1299 111.314L64.4279 112.394L64.7159 112.394ZM65.2919 105.608L66.0839 104.402L65.8139 104.402L65.0939 105.5L65.2919 105.608ZM63.7259 108.974L64.3379 108.056L64.1219 107.93L63.2759 109.226L63.7259 108.974ZM64.8239 105.356L65.4359 104.402L65.1479 104.402L64.6079 105.248L64.8239 105.356ZM64.0679 112.394L64.5899 111.62L64.1219 111.854L63.7799 112.394L64.0679 112.394ZM64.3379 105.104L64.8059 104.402L64.4999 104.402L64.1219 104.996L64.3379 105.104ZM63.8519 104.852L64.1579 104.402L63.8699 104.402L63.6359 104.744L63.8519 104.852ZM64.7699 108.38L64.8239 108.308L64.5899 108.2L64.3019 108.632L64.7699 108.38ZM63.3659 104.6L63.5099 104.402L63.2039 104.402L63.1499 104.492L63.3659 104.6ZM63.4199 112.394L63.5639 112.16L63.1319 112.394L63.4199 112.394ZM56.2919 102.206L56.2919 103.196L65.5079 108.326L56.2919 113.582L56.2919 114.572L68.9999 114.932L68.9999 112.754L61.8539 112.718L69.1079 108.776L69.1079 108.002L61.7279 104.096L68.9999 104.042L68.9999 101.846L56.2919 102.206Z" fill="#28334A"/>
<path d="M68.9999 97.3095L68.9999 89.0834L66.9479 89.0834L66.9479 95.0775L63.9239 95.0775L63.9239 89.6415L61.9439 89.6415L61.9439 95.0775L58.3979 95.0775L58.3979 89.0835L56.3459 89.0835L56.3459 97.3095L68.9999 97.3095ZM64.4999 94.7535L65.6699 92.9715L65.3819 92.9715L64.2479 94.6815L64.2479 94.7535L64.4999 94.7535ZM65.1479 94.7535L66.3179 92.9715L66.0299 92.9715L64.8599 94.7535L65.1479 94.7535ZM68.4419 88.7595L69.6119 86.9775L69.3239 86.9775L68.1539 88.7595L68.4419 88.7595ZM67.7939 88.7595L68.9819 86.9775L68.6939 86.9775L67.5059 88.7595L67.7939 88.7595ZM58.0739 88.7595L59.2619 86.9775L58.9739 86.9775L57.7859 88.7595L58.0739 88.7595ZM63.5459 89.3175L64.7159 87.5355L64.4279 87.5355L63.2579 89.3175L63.5459 89.3175ZM59.9639 94.7535L61.1339 92.9715L60.8459 92.9715L59.6759 94.7535L59.9639 94.7535ZM59.3159 94.7535L60.4859 92.9715L60.1979 92.9715L59.0279 94.7535L59.3159 94.7535ZM57.4259 88.7595L58.6139 86.9775L58.3259 86.9775L57.1379 88.7595L57.4259 88.7595ZM69.0899 88.7595L70.2599 86.9775L69.9719 86.9775L68.8019 88.7595L69.0899 88.7595ZM65.3099 87.5355L65.0759 87.5355L63.9059 89.3175L64.1939 89.3175L65.3099 87.6075L65.3099 87.5355ZM59.7839 86.9775L59.6219 86.9775L58.4339 88.7595L58.7219 88.7595L59.7839 87.1575L59.7839 86.9775ZM61.6199 92.9715L61.4939 92.9715L60.3239 94.7535L60.6119 94.7535L61.6199 93.2235L61.6199 92.9715ZM57.7499 86.9775L56.5619 88.7595L56.8319 88.7595L58.0199 86.9775L57.7499 86.9775ZM64.2479 92.1795L65.3099 90.5775L65.3099 90.1275L64.2479 91.7295L64.2479 92.1795ZM69.3239 96.2835L70.3859 94.6635L70.3859 94.2135L69.3239 95.8334L69.3239 96.2835ZM59.7839 92.9715L59.7839 92.6115L58.7219 94.2135L58.7219 94.6635L59.8379 92.9715L59.7839 92.9715ZM58.7219 93.6735L59.7839 92.0715L59.7839 91.6215L58.7219 93.2415L58.7219 93.6735ZM69.3239 91.3515L70.3859 89.7495L70.3859 89.2995L69.3239 90.9195L69.3239 91.3515ZM58.7219 92.7015L59.7839 91.0815L59.7839 90.6495L58.7219 92.2515L58.7219 92.7015ZM64.2479 94.1415L65.3099 92.5395L65.3099 92.0895L64.2479 93.7095L64.2479 94.1415ZM69.3239 92.3415L70.3859 90.7395L70.3859 90.2895L69.3239 91.9095L69.3239 92.3415ZM58.7219 90.7395L59.7839 89.1195L59.7839 88.6875L58.7219 90.2895L58.7219 90.7395ZM69.3239 90.3795L70.3859 88.7595L70.3859 88.3275L69.3239 89.9295L69.3239 90.3795ZM69.3239 94.3035L70.3859 92.7015L70.3859 92.2515L69.3239 93.8715L69.3239 94.3035ZM69.3239 89.3894L70.3859 87.7875L70.3859 87.3375L69.3239 88.9575L69.3239 89.3894ZM69.3239 95.2935L70.3859 93.6735L70.3859 93.2415L69.3239 94.8435L69.3239 95.2935ZM69.3239 93.3315L70.3859 91.7115L70.3859 91.2795L69.3239 92.8815L69.3239 93.3315ZM58.7219 91.7115L59.7839 90.1095L59.7839 89.6595L58.7219 91.2795L58.7219 91.7115ZM64.2479 91.1895L65.3099 89.5875L65.3099 89.1375L64.2479 90.7575L64.2479 91.1895ZM64.2479 93.1695L65.3099 91.5495L65.3099 91.1175L64.2479 92.7195L64.2479 93.1695ZM64.2479 90.2175L65.3099 88.5974L65.3099 88.1655L64.2479 89.7675L64.2479 90.2175ZM63.3479 87.5355L62.1599 89.3175L62.4299 89.3175L63.5999 87.5355L63.3479 87.5355ZM58.7219 89.7495L59.7839 88.1295L59.7839 87.6975L58.7219 89.3175L58.7219 89.7495ZM62.9699 89.3175L64.1399 87.5355L63.8879 87.5355L62.7179 89.3175L62.9699 89.3175ZM65.7959 94.7535L66.6239 93.4935L66.6239 93.0435L65.5079 94.7535L65.7959 94.7535ZM61.2599 94.7535L61.6199 94.1955L61.6199 93.7635L60.9719 94.7535L61.2599 94.7535ZM66.1559 94.7535L66.4439 94.7535L66.6239 94.4655L66.6239 94.0335L66.1559 94.7535ZM70.3859 95.2215L70.3859 95.2035L69.3239 96.8054L69.3239 96.8235L70.3859 95.2215Z" fill="#28334A"/>
<path d="M63.0059 81.1148L64.2119 79.2788L63.9779 79.1708L62.7719 81.0068L63.0059 81.1148ZM69.0179 83.7608L70.2419 81.9248L70.0079 81.8168L68.8019 83.6708L69.0179 83.7608ZM68.5319 83.5448L69.7379 81.6908L69.5039 81.6008L68.2979 83.4368L68.5319 83.5448ZM68.0279 83.3288L69.2339 81.4748L68.9999 81.3848L67.7939 83.2208L68.0279 83.3288ZM67.5239 83.1128L68.7299 81.2588L68.5139 81.1688L67.2899 83.0048L67.5239 83.1128ZM67.0199 82.8788L68.2259 81.0428L68.0099 80.9348L66.8039 82.7528L66.8039 82.7888L67.0199 82.8788ZM69.3239 84.3008L70.3859 82.6808L70.3859 82.2488L69.3059 83.8868L69.3239 83.8868L69.3239 84.3008ZM66.8039 82.2128L67.8659 80.6108L67.8659 80.1608L66.8039 81.7808L66.8039 82.2128ZM66.8039 81.2408L67.8659 79.6208L67.8659 79.1888L66.8039 80.7908L66.8039 81.2408ZM66.8039 80.2508L67.8659 78.6488L67.8659 78.1988L66.8039 79.8188L66.8039 80.2508ZM69.3239 75.4448L70.3859 73.8428L70.3859 73.3928L69.3239 75.0128L69.3239 75.4448ZM69.3239 85.2728L70.3859 83.6708L70.3859 83.2208L69.3239 84.8408L69.3239 85.2728ZM67.8659 77.3168L67.7759 77.3528L66.8039 78.8288L66.8039 79.2788L67.8659 77.6588L67.8659 77.3168ZM65.5259 75.3188L66.5339 73.7888L66.1019 73.9868L65.0939 75.5168L65.5259 75.3188ZM64.6079 75.7508L65.6159 74.2208L65.1839 74.4188L64.1759 75.9488L64.6079 75.7508ZM69.3239 74.4728L70.3859 72.8528L70.3859 72.4208L69.3239 74.0408L69.3239 74.4728ZM63.2219 79.3688L62.2679 80.7908L62.5019 80.8988L63.6179 79.1888C63.4919 79.2608 63.3479 79.3148 63.2219 79.3688ZM69.2519 73.5908L70.2599 72.0428L69.8459 72.2408L68.8379 73.7888L69.2519 73.5908ZM61.7819 77.0648L62.8079 75.4988L62.3939 75.6968L61.3679 77.2628L61.7819 77.0648ZM67.3799 74.4728L68.4059 72.9068L67.9919 73.1048L66.9659 74.6528L67.3799 74.4728ZM59.9099 77.9468L60.9359 76.3808L60.5219 76.5788L59.4779 78.1448L59.9099 77.9468ZM58.0379 78.8288L59.0639 77.2628L58.6499 77.4608L57.6059 79.0268L58.0379 78.8288ZM58.9739 78.3788L59.9999 76.8128L59.5859 77.0108L58.5419 78.5768L58.9739 78.3788ZM62.7179 76.6148L63.7439 75.0848L63.3299 75.2648L62.3039 76.8128L62.7179 76.6148ZM66.4619 74.8868L67.4699 73.3568L67.0559 73.5368L66.0479 75.0848L66.4619 74.8868ZM63.6539 76.1828L64.6799 74.6528L64.2659 74.8328L63.2399 76.3808L63.6539 76.1828ZM60.8459 77.4968L61.8719 75.9488L61.4579 76.1288L60.4319 77.6948L60.8459 77.4968ZM68.3159 74.0228L69.3239 72.4748L68.9279 72.6728L67.9019 74.2208L68.3159 74.0228ZM63.5099 81.3308L64.3739 80.0168L64.3739 79.5668L63.2759 81.2408L63.5099 81.3308ZM56.7059 79.4408L57.0839 79.2608L58.1279 77.6948L57.7319 77.8748L56.7059 79.4408ZM62.2859 79.7828L61.7639 80.5748L61.9979 80.6648L62.6999 79.6028L62.2859 79.7828ZM64.3739 80.9888L64.3739 80.5388L63.7799 81.4568L63.9959 81.5648L64.3739 80.9888ZM66.8039 78.2888L67.2719 77.5868L66.8759 77.7668L66.8039 77.8568L66.8039 78.2888ZM61.3859 80.1788L61.2779 80.3588L61.4939 80.4488L61.7999 80.0168L61.3859 80.1788ZM64.3739 81.7268L64.3739 81.5288L64.2839 81.6908L64.3739 81.7268ZM68.9999 76.4528L68.9999 74.0588L56.2379 79.9988L56.2379 80.5028L68.9999 86.4428L68.9999 84.1028L66.4799 83.0048L66.4799 77.5688L68.9999 76.4528ZM60.3419 80.2868L64.6979 78.3608L64.6979 82.2128L60.3419 80.2868Z" fill="#28334A"/>
<path d="M61.1519 66.7851L62.3399 65.0031L62.0339 65.0031L60.8639 66.7851L61.1519 66.7851ZM58.0739 62.6271L59.2439 60.8451L58.9559 60.8451L57.7679 62.6271L58.0739 62.6271ZM57.4259 62.6271L58.5959 60.8451L58.3079 60.8451L57.1199 62.6271L57.4259 62.6271ZM59.7839 60.8451L59.6039 60.8451L58.4159 62.6271L58.7219 62.6271L59.7839 61.0071L59.7839 60.8451ZM66.9839 66.7851L68.1719 65.0031L67.8839 65.0031L66.6959 66.7851L66.9839 66.7851ZM65.0399 66.7851L66.2279 65.0031L65.9399 65.0031L64.7519 66.7851L65.0399 66.7851ZM63.7439 66.7851L64.9319 65.0031L64.6439 65.0031L63.4559 66.7851L63.7439 66.7851ZM65.6879 66.7851L66.8759 65.0031L66.5879 65.0031L65.3999 66.7851L65.6879 66.7851ZM62.4479 66.7851L63.6359 65.0031L63.3479 65.0031L62.1599 66.7851L62.4479 66.7851ZM60.5039 66.7851L61.6919 65.0031L61.4039 65.0031L60.2159 66.7851L60.5039 66.7851ZM63.0959 66.7851L64.2839 65.0031L63.9959 65.0031L62.8079 66.7851L63.0959 66.7851ZM59.2079 66.7851L60.3959 65.0031L60.1079 65.0031L58.9199 66.7851L59.2079 66.7851ZM59.8559 66.7851L61.0439 65.0031L60.7559 65.0031L59.5679 66.7851L59.8559 66.7851ZM64.3919 66.7851L65.5799 65.0031L65.2919 65.0031L64.1039 66.7851L64.3919 66.7851ZM68.9279 66.7851L70.0979 65.0031L69.8099 65.0031L68.6399 66.7851L68.9279 66.7851ZM68.2799 66.7851L69.4499 65.0031L69.1619 65.0031L67.9919 66.7851L68.2799 66.7851ZM61.7999 66.7851L62.9879 65.0031L62.6999 65.0031L61.5119 66.7851L61.7999 66.7851ZM67.6319 66.7851L68.8199 65.0031L68.5319 65.0031L67.3439 66.7851L67.6319 66.7851ZM66.3359 66.7851L67.5239 65.0031L67.2359 65.0031L66.0479 66.7851L66.3359 66.7851ZM69.3239 67.1811L70.3859 65.5611L70.3859 65.1291L69.2879 66.7851L69.3239 66.7851L69.3239 67.1811ZM58.7219 63.5991L59.7839 61.9791L59.7839 61.5471L58.7219 63.1491L58.7219 63.5991ZM58.7219 64.5711L59.7839 62.9691L59.7839 62.5191L58.7219 64.1391L58.7219 64.5711ZM58.7219 66.5511L59.7839 64.9311L59.7839 64.4991L58.7219 66.1011L58.7219 66.5511ZM58.7219 65.5611L59.7839 63.9591L59.7839 63.5091L58.7219 65.1291L58.7219 65.5611ZM58.7219 72.3471L59.7839 70.7451L59.7839 70.3851L58.7219 72.0051L58.7219 72.3471ZM69.3239 68.0811L70.3859 66.4791L70.3859 66.0651L69.3239 67.6851L69.3239 68.0811ZM57.7499 60.8451L56.5619 62.6271L56.8319 62.6271L58.0019 60.8451L57.7499 60.8451ZM59.7839 69.6831L59.6039 69.6831L58.7219 71.0151L58.7219 71.4651L59.7839 69.8451L59.7839 69.6831ZM70.3859 67.2711L70.3859 66.8931L69.3239 68.4951L69.3239 68.8731L70.3859 67.2711ZM58.7219 70.4751L59.2439 69.6831L58.9559 69.6831L58.7219 70.0251L58.7219 70.4751ZM59.7839 71.5011L59.7839 71.1771L58.7219 72.7791L58.7219 73.1031L59.7839 71.5011ZM58.3979 73.5891L58.3979 69.3591L68.9999 69.3591L68.9999 67.1091L58.3979 67.1091L58.3979 62.9511L56.3459 62.9511L56.3459 73.5891L58.3979 73.5891Z" fill="#28334A"/>
<path d="M65.5799 52.0957C63.9239 52.0957 62.8079 52.9057 61.7099 55.7317C61.0619 57.5137 60.5579 58.1977 59.7479 58.1977C58.8659 58.1977 58.1279 57.5857 58.1279 56.2537C58.1279 55.2817 58.5599 54.1657 58.9739 53.4277L56.9939 52.7077C56.5259 53.5177 56.1299 54.8497 56.1299 56.1997C56.1299 58.8997 57.8939 60.4477 59.8019 60.4477C61.3139 60.4477 62.4839 59.6017 63.3839 57.1357C64.2299 54.8497 64.7339 54.3817 65.5799 54.3817C66.3899 54.3817 67.1279 55.0657 67.1279 56.5597C67.1279 57.6937 66.6959 58.9537 65.9939 59.9977L68.0099 60.7717C68.7119 59.6197 69.2159 58.1257 69.2159 56.6317C69.2159 53.8057 67.8299 52.0957 65.5799 52.0957ZM60.5399 55.9837L59.3339 57.8197L59.6039 57.8737L60.7919 56.0557C60.7019 56.0377 60.6299 56.0197 60.5399 55.9837ZM67.7399 52.4017L68.9639 50.5477L68.7479 50.4217L67.5419 52.2577C67.6139 52.3117 67.6859 52.3477 67.7399 52.4017ZM58.3619 52.8697L59.5679 51.0337C59.4959 50.9977 59.4059 50.9617 59.3339 50.9437L58.1279 52.7797L58.3619 52.8697ZM67.2719 52.1317L68.4779 50.2777L68.2619 50.1877L67.0379 52.0237L67.2719 52.1317ZM60.0899 55.6957L58.8839 57.5317L59.0639 57.6937L60.2879 55.8397C60.2159 55.8037 60.1619 55.7497 60.0899 55.6957ZM59.8559 51.1417L58.6499 52.9777L58.8839 53.0497L60.0899 51.2317C59.9999 51.1957 59.9279 51.1597 59.8559 51.1417ZM68.1719 52.7257L69.3599 50.8897L69.1799 50.7277L67.9919 52.5637L68.1719 52.7257ZM66.4079 50.0437L65.2559 51.7897C65.3639 51.7717 65.4539 51.7717 65.5619 51.7717L66.7319 50.0077C66.6239 50.0077 66.5159 50.0257 66.4079 50.0437ZM67.7039 50.0617L66.4979 51.8617C66.5879 51.8797 66.6779 51.8977 66.7499 51.9337L67.9559 50.0977L67.7039 50.0617ZM68.5499 53.1397L69.7379 51.3217L69.5759 51.1237L68.3879 52.9597L68.5499 53.1397ZM69.1259 54.2197L70.2959 52.4377L70.1879 52.1497L69.0179 53.9497L69.1259 54.2197ZM59.7479 55.2277L58.5779 57.0277L58.6859 57.2797L59.8919 55.4617L59.7479 55.2277ZM69.3419 54.8857L70.4759 53.1577C70.4579 53.0317 70.4399 52.9237 70.4039 52.8157L69.2519 54.5797L69.3419 54.8857ZM58.8299 50.7457L57.6059 52.5997L57.8399 52.6717L59.0459 50.8357C58.9739 50.7997 58.9019 50.7637 58.8299 50.7457ZM66.1739 51.8077L67.3619 50.0077C67.2719 49.9897 67.1819 49.9897 67.0919 49.9897L65.9039 51.7897C65.9939 51.7897 66.0839 51.8077 66.1739 51.8077ZM68.8559 53.6437L70.0439 51.8257L69.9179 51.5917L68.7299 53.4097C68.7659 53.4817 68.8199 53.5537 68.8559 53.6437ZM59.5499 54.5617L58.4519 56.2177L58.4519 56.2537C58.4519 56.3797 58.4699 56.5057 58.4879 56.6137L59.6219 54.8857C59.5859 54.7777 59.5679 54.6697 59.5499 54.5617ZM69.4679 55.6417L70.5839 53.9677L70.5479 53.5897L69.4319 55.2817L69.4679 55.6417ZM65.5799 50.3317L64.5359 51.8977L64.8779 51.8257L65.9759 50.1517C65.8499 50.2057 65.7059 50.2597 65.5799 50.3317ZM69.5399 56.5417L70.5839 54.9397C70.5839 54.7957 70.6019 54.6337 70.6019 54.4897L69.5219 56.1277C69.5219 56.2537 69.5399 56.3977 69.5399 56.5417ZM58.3799 50.5837L57.1739 52.4377L57.3539 52.5097L58.5779 50.6557C58.5239 50.6197 58.4519 50.6017 58.3799 50.5837ZM61.2419 56.0917L61.1339 56.0917L59.9639 57.8557C60.1439 57.8017 60.2879 57.7117 60.4499 57.5677L60.9359 56.8297C61.0259 56.6137 61.1339 56.3797 61.2419 56.0917ZM69.4499 57.6397L70.3679 56.2537C70.4219 56.0377 70.4579 55.8217 70.4939 55.6057L69.5219 57.0997C69.5039 57.2797 69.4859 57.4597 69.4499 57.6397ZM59.5499 53.5537L58.7579 54.7597C58.6679 55.0297 58.5959 55.2997 58.5419 55.5517L59.5139 54.0577C59.5139 53.8957 59.5319 53.7337 59.5499 53.5537ZM60.0899 51.7897L59.1719 53.1577L59.4059 53.2477L59.7119 52.7797C59.8199 52.4197 59.9459 52.0957 60.0899 51.7897ZM69.1619 58.9177L69.4139 58.5397C69.6479 58.1617 69.8459 57.7657 70.0259 57.3337L69.3059 58.4137L69.1619 58.9177ZM64.1759 51.6817L63.8699 52.1497C63.9419 52.1137 64.0139 52.0957 64.0679 52.0597L64.8779 50.8357C64.6439 51.0697 64.4099 51.3397 64.1759 51.6817Z" fill="#28334A"/>
<path d="M448 168L448 206" stroke="#28334A" stroke-dasharray="2 2"/>
<path d="M448 30L448 68" stroke="#28334A" stroke-dasharray="2 2"/>
</g>
<path d="M564.163 99.1807L549.386 86.7496C511.721 55.0835 462.279 55.0835 424.614 86.7496L409.837 99.1807C404.949 103.3 402 110.162 402 117.501C402 124.838 404.935 131.7 409.837 135.819L424.614 148.25C462.279 179.917 511.721 179.917 549.386 148.25L564.166 135.819C569.054 131.7 572 124.838 572 117.499C572 110.159 569.065 103.3 564.163 99.1807Z" fill="white"/>
<path d="M475.641 119.108C475.718 118.782 475.801 118.427 475.899 118.064C475.641 116.931 475.4 115.714 475.237 114.803C475.226 114.63 475.156 114.467 475.039 114.34C474.922 114.214 474.765 114.132 474.595 114.109C474.613 114.162 474.627 114.217 474.637 114.273C474.87 115.639 475.307 117.654 475.641 119.108Z" fill="#28334A"/>
<path d="M462.756 127.937C463.586 127.917 464.411 127.801 465.215 127.593C466.853 127.178 467.911 126.139 468.25 124.426C468.475 123.244 468.493 122.032 468.302 120.844C467.937 118.406 466.405 116.983 463.978 116.834C462.987 116.772 461.991 116.792 460.997 116.766C460.182 116.746 459.734 116.396 459.62 115.592C459.55 115.108 459.55 114.616 459.62 114.132C459.737 113.349 460.164 113.007 460.948 112.991C461.897 112.968 462.844 112.978 463.794 112.968C463.97 112.968 464.053 113.01 464.092 113.208C464.19 113.764 464.319 114.315 464.436 114.861H467.632V109.297C467.531 109.297 467.461 109.284 467.393 109.284C465.093 109.284 462.793 109.284 460.495 109.284C460.022 109.289 459.55 109.337 459.085 109.425C457.273 109.775 456.06 110.809 455.576 112.623C455.276 113.896 455.242 115.219 455.478 116.505C455.811 118.758 457.4 120.262 459.657 120.395C460.692 120.455 461.711 120.442 462.738 120.468C463.621 120.492 464.074 120.891 464.156 121.774C464.194 122.179 464.194 122.587 464.156 122.993C464.076 123.82 463.639 124.235 462.829 124.256C461.696 124.285 460.562 124.275 459.431 124.288C459.25 124.288 459.173 124.233 459.139 124.027C459.038 123.47 458.909 122.92 458.792 122.382H455.633V127.937C455.708 127.937 455.762 127.95 455.819 127.95C458.13 127.956 460.441 127.984 462.756 127.937Z" fill="#28334A"/>
<path d="M464.92 115.707L465 116.085H469.052V109.592L468.522 109.558H468.45V115.563H464.884C464.899 115.605 464.91 115.657 464.92 115.707Z" fill="#28334A"/>
<path d="M462.606 121.68C462.963 121.68 463.318 121.68 463.675 121.698C463.776 121.699 463.876 121.71 463.975 121.729C463.864 121.338 463.603 121.181 463.075 121.168C462.72 121.168 462.363 121.168 462.009 121.15C461.344 121.15 460.655 121.134 459.977 121.092C459.006 121.05 458.068 120.724 457.276 120.155C458.149 121.052 459.33 121.577 460.575 121.622C461.256 121.661 461.941 121.672 462.606 121.68Z" fill="#28334A"/>
<path d="M470.592 117.508C470.39 117.474 470.183 117.432 469.971 117.38C470.011 117.501 470.079 117.612 470.169 117.702C470.259 117.793 470.368 117.861 470.488 117.902C470.587 117.931 470.687 117.952 470.786 117.973L470.7 117.542L470.592 117.508Z" fill="#28334A"/>
<path d="M461.911 114.213C462.482 114.213 463.067 114.198 463.634 114.195H464.107C464.068 114.021 464.031 113.847 463.999 113.673H463.036C462.469 113.673 461.882 113.673 461.31 113.689C460.738 113.704 460.518 113.887 460.438 114.422C460.376 114.86 460.376 115.305 460.438 115.743C460.505 116.205 460.679 116.414 461.082 116.482C461.063 116.413 461.048 116.344 461.038 116.273C460.976 115.835 460.976 115.39 461.038 114.952C461.119 114.412 461.339 114.226 461.911 114.213Z" fill="#28334A"/>
<path d="M460.123 122.656H459.636C459.66 122.755 459.68 122.854 459.704 122.956C459.779 123.301 459.859 123.656 459.926 124.016H460.418L460.301 123.494C460.268 123.343 460.237 123.194 460.203 123.042L460.123 122.656Z" fill="#28334A"/>
<path d="M515.989 110.545H515.389V113.587H515.989V110.545Z" fill="#28334A"/>
<path d="M505.784 112.699H505.419C504.943 112.72 504.836 112.929 504.818 113.26C504.818 113.448 504.818 113.521 504.818 113.566H505.465C505.525 113.365 505.675 113.242 506.032 113.226C506.154 113.226 506.275 113.226 506.397 113.226H508.653V108.927H508.04V112.699H505.784Z" fill="#28334A"/>
<path d="M477.607 127.969C477.587 128.167 477.492 128.349 477.341 128.478C477.191 128.607 476.997 128.671 476.8 128.658H476.784C476.23 128.658 475.674 128.658 475.118 128.658H473.441L473.55 129.18H475.718C476.274 129.18 476.831 129.18 477.384 129.18H477.4C477.596 129.189 477.788 129.123 477.938 128.996C478.088 128.868 478.184 128.687 478.207 128.491C478.466 127.277 478.875 125.434 479.229 123.896C479.121 123.429 478.989 122.881 478.862 122.366C478.474 124.029 477.917 126.478 477.607 127.969Z" fill="#28334A"/>
<path d="M559.093 100.771L545.286 89.3704C510.094 60.3114 463.913 60.3114 428.727 89.3704L414.919 100.771C410.342 104.551 407.602 110.848 407.602 117.581C407.602 124.316 410.342 130.613 414.919 134.393L428.727 145.794C463.918 174.853 510.099 174.853 545.286 145.794L559.093 134.393C563.671 130.613 566.411 124.316 566.411 117.581C566.411 110.845 563.673 104.551 559.093 100.771ZM433.273 148.227C430.797 146.569 428.357 144.747 425.981 142.789L420.85 138.542V96.6123L425.981 92.3753C428.365 90.4173 430.797 88.595 433.273 86.9373V148.227ZM528.929 136.002H446.172V102.377H457.716C460.115 101.51 472.043 97.5078 487.556 97.5078C503.069 97.5078 514.985 101.51 517.381 102.377H528.929V136.002ZM554.244 137.453L547.796 142.789C545.845 144.405 543.855 145.906 541.844 147.327V87.838C543.855 89.2712 545.845 90.7593 547.796 92.3753L554.244 97.6983V137.453Z" fill="#28334A"/>
<path d="M481.52 117.022C481.644 117.675 481.851 118.51 482.037 119.239L482.257 118.239C482.203 117.996 482.154 117.764 482.112 117.55C481.976 116.829 481.837 116.108 481.696 115.385L481.437 114.093H480.94L481.087 114.855C481.243 115.581 481.388 116.302 481.52 117.022Z" fill="#28334A"/>
<path d="M493.57 112.365C493.083 112.364 492.606 112.225 492.193 111.963C492.243 112.02 492.292 112.075 492.343 112.13C492.582 112.373 492.867 112.566 493.181 112.697C493.494 112.828 493.831 112.894 494.17 112.892C494.507 112.895 494.84 112.83 495.151 112.701C495.462 112.572 495.745 112.381 495.982 112.14C496.219 111.897 496.405 111.609 496.531 111.293C496.657 110.977 496.719 110.638 496.714 110.297C496.707 109.866 496.593 109.444 496.384 109.068C496.174 108.693 495.875 108.376 495.513 108.146C495.895 108.599 496.108 109.173 496.114 109.767C496.119 110.108 496.057 110.447 495.932 110.763C495.806 111.08 495.619 111.368 495.381 111.61C495.144 111.851 494.862 112.042 494.551 112.172C494.24 112.301 493.906 112.367 493.57 112.365V112.365Z" fill="#28334A"/>
<path d="M493.221 111.67C493.496 111.673 493.768 111.62 494.022 111.515C494.276 111.409 494.507 111.253 494.7 111.056C494.893 110.859 495.045 110.624 495.147 110.366C495.248 110.109 495.297 109.833 495.291 109.556C495.281 109.003 495.059 108.475 494.67 108.085C494.281 107.695 493.756 107.473 493.208 107.467C492.662 107.485 492.143 107.713 491.758 108.104C491.373 108.495 491.151 109.02 491.138 109.571C491.136 109.848 491.189 110.121 491.294 110.377C491.398 110.632 491.551 110.864 491.745 111.06C491.939 111.255 492.169 111.409 492.422 111.514C492.676 111.619 492.947 111.672 493.221 111.67Z" fill="#28334A"/>
<path d="M496.608 124.794V114.109H496.01V124.677C496.207 124.711 496.409 124.75 496.608 124.794Z" fill="#28334A"/>
<path d="M467.772 118.056C468.512 118.869 468.98 119.895 469.112 120.99C469.311 122.232 469.293 123.499 469.058 124.734C468.69 126.582 467.521 127.804 465.673 128.271C464.834 128.488 463.974 128.609 463.109 128.632C462.172 128.65 461.181 128.658 459.898 128.658H458.086H456.29H456.094V129.149L456.611 129.183H456.767H458.697H460.508C461.802 129.183 462.783 129.183 463.719 129.154C464.585 129.133 465.445 129.013 466.284 128.796C468.131 128.329 469.301 127.107 469.668 125.259C469.902 124.023 469.921 122.755 469.723 121.513C469.485 119.993 468.807 118.813 467.772 118.056Z" fill="#28334A"/>
<path d="M508.04 117.205L507.6 117.236C507.082 117.273 506.542 117.349 506.029 117.424C505.636 117.482 505.23 117.539 504.821 117.581V124.687L505.419 124.786V118.111C505.83 118.069 506.234 118.009 506.63 117.954C507.147 117.879 507.665 117.803 508.2 117.766L508.64 117.735V114.117H508.04V117.205Z" fill="#28334A"/>
<path d="M510.066 117.309V117.654L510.407 117.753C510.459 117.753 510.508 117.785 510.555 117.8V117.505C510.459 117.469 510.366 117.432 510.278 117.393L510.066 117.309Z" fill="#28334A"/>
<path d="M506.521 128.621H499.121V129.151H507.122V125.481L506.521 125.381V128.621Z" fill="#28334A"/>
<path d="M518.649 128.491L518.502 128.616C518.455 128.667 518.398 128.708 518.335 128.736C518.271 128.764 518.203 128.778 518.134 128.778H518.116C517.715 128.765 517.306 128.762 516.897 128.76C515.927 128.769 514.957 128.727 513.991 128.632C513.371 128.562 512.777 128.341 512.26 127.987C512.87 128.65 513.697 129.068 514.589 129.162C515.551 129.256 516.518 129.299 517.485 129.29C517.893 129.29 518.3 129.29 518.703 129.305H518.722C518.79 129.304 518.858 129.289 518.921 129.262C518.985 129.234 519.041 129.194 519.089 129.143L519.236 129.021V124.982H518.649V128.491Z" fill="#28334A"/>
<path d="M514.568 110.282H510.687V113.856H509.592V116.547C510.035 116.675 510.281 116.842 510.682 116.931V118.445C510.682 120.16 510.682 121.873 510.682 123.588C510.68 124.03 510.709 124.471 510.767 124.909C510.997 126.559 512.061 127.749 513.699 127.94C515.044 128.099 516.416 128.044 517.774 128.084C517.792 128.084 517.811 128.057 517.816 128.052V124.716H516.196C516.012 124.716 515.826 124.716 515.642 124.692C514.905 124.619 514.584 124.285 514.581 123.546C514.581 121.761 514.581 119.978 514.581 118.194C514.581 118.14 514.599 116.975 514.615 116.889C515.601 116.853 516.499 116.612 517.399 116.505V113.843H514.568V110.282Z" fill="#28334A"/>
<path d="M486.219 117.161C486.257 116.96 486.34 116.9 486.501 116.86C486.79 116.806 487.085 116.761 487.37 116.685C487.458 116.662 487.593 116.547 487.593 116.474C487.608 115.602 487.593 114.73 487.593 113.843H483.248C483.222 113.96 483.196 114.059 483.176 114.161C482.749 116.531 481.791 120.779 481.734 120.876C481.317 119.57 480.972 118.241 480.699 116.897C480.505 115.876 480.308 114.858 480.109 113.827C479.074 113.827 478.075 113.827 477.071 113.827C476.882 113.827 476.851 113.929 476.813 114.088C476.357 116.49 475.325 120.789 475.273 120.876C475.219 120.782 474.22 116.518 473.793 114.135C473.749 113.874 473.676 113.819 473.451 113.822C472.204 113.835 470.954 113.822 469.707 113.822C469.624 113.822 469.544 113.837 469.448 113.848C469.448 114.73 469.448 115.589 469.448 116.458C469.462 116.51 469.488 116.557 469.523 116.597C469.559 116.636 469.603 116.667 469.653 116.685C469.927 116.764 470.212 116.806 470.491 116.858C470.662 116.889 470.75 116.965 470.796 117.182C471.335 119.916 471.883 122.649 472.442 125.382C472.615 126.238 472.791 127.094 472.96 127.961C474.129 127.961 475.273 127.961 476.414 127.961C476.634 127.961 476.717 127.898 476.769 127.653C477.263 125.288 478.401 120.356 478.466 120.254C478.531 120.353 479.162 122.865 479.411 124.008C479.695 125.315 479.981 126.626 480.267 127.94H484.014C484.775 124.329 485.502 120.745 486.219 117.161Z" fill="#28334A"/>
<path d="M515.414 117.56C515.414 117.899 515.399 118.343 515.399 118.411V119.607C515.399 120.99 515.399 122.374 515.399 123.758C515.399 124.233 515.528 124.376 516.004 124.429C516.004 124.384 516.004 124.34 516.004 124.288C516.004 122.904 516.004 121.52 516.004 120.137V118.941C516.004 118.868 516.004 118.419 516.02 118.09C516.501 118.048 516.959 117.967 517.404 117.889C517.748 117.829 518.075 117.771 518.403 117.732L518.822 117.683V114.117H518.222V117.153L517.803 117.202C517.477 117.242 517.151 117.299 516.804 117.359C516.354 117.437 515.896 117.518 515.414 117.56Z" fill="#28334A"/>
<path d="M499.948 117.894V117.516C499.749 117.474 499.547 117.419 499.348 117.364C499.149 117.309 499.027 117.281 498.877 117.247V117.659L499.27 117.73C499.472 117.766 499.702 117.829 499.948 117.894Z" fill="#28334A"/>
<path d="M487.556 99.3457C471.632 99.3457 459.256 103.765 458.037 104.215H448.007V134.174H527.108V104.215H517.058C515.839 103.763 503.481 99.3457 487.556 99.3457ZM526.011 133.057H449.092V105.321H458.236L458.332 105.285C458.456 105.235 471.076 100.453 487.556 100.453C504.037 100.453 516.639 105.235 516.763 105.285L516.858 105.321H526.011V133.057Z" fill="#28334A"/>
<path d="M496.654 125.355C496.641 125.296 496.613 125.241 496.572 125.195C496.532 125.149 496.481 125.115 496.424 125.094C496.028 124.995 495.622 124.933 495.197 124.852V113.835H489.841C489.841 114.722 489.841 115.594 489.841 116.464C489.841 116.539 489.986 116.657 490.082 116.678C490.472 116.769 490.858 116.832 491.256 116.902V124.865C490.848 124.94 490.459 125 490.079 125.092C489.983 125.113 489.841 125.228 489.841 125.303C489.823 126.175 489.841 127.045 489.841 127.914H496.654C496.654 127.052 496.654 126.204 496.654 125.355Z" fill="#28334A"/>
<path d="M488.423 114.109V114.631C488.423 115.312 488.423 116.017 488.423 116.719C488.405 116.876 488.341 117.024 488.238 117.143C488.136 117.262 488 117.348 487.849 117.388C487.61 117.45 487.372 117.492 487.145 117.534L487.028 117.552C486.443 120.484 485.848 123.413 485.251 126.36L484.785 128.66H480.756L480.872 129.183H485.385L485.851 126.88C486.449 123.935 487.041 121.006 487.629 118.074L487.742 118.053C487.973 118.014 488.211 117.973 488.449 117.907C488.6 117.867 488.735 117.783 488.838 117.664C488.94 117.545 489.005 117.398 489.023 117.242C489.036 116.55 489.036 115.845 489.023 115.153V114.109H488.423Z" fill="#28334A"/>
<path d="M505.711 127.927V125.144L504.019 124.865V116.913C505.095 116.842 506.138 116.607 507.24 116.531V113.837H504.342C504.231 113.837 504.122 113.822 504 113.814C503.986 113.553 503.986 113.291 504 113.031C504.037 112.383 504.404 112.046 505.054 112.018C505.341 112.005 505.631 112.018 505.92 112.018H507.214V108.676C505.98 108.676 504.766 108.645 503.558 108.689C502.913 108.72 502.287 108.925 501.747 109.282C500.595 110.026 500.194 111.164 500.114 112.464C500.078 113.172 500.114 113.098 500.114 113.853H498.419V116.524C498.936 116.618 499.581 116.853 500.088 116.907V124.878C499.679 124.953 499.281 125.016 498.892 125.113C498.839 125.137 498.792 125.174 498.753 125.219C498.715 125.264 498.686 125.317 498.67 125.374C498.65 125.512 498.65 125.653 498.67 125.791V127.94L505.711 127.927Z" fill="#28334A"/>
<path d="M497.475 125.381H497.428C497.45 125.442 497.463 125.505 497.467 125.569C497.48 126.235 497.467 126.875 497.467 127.569V128.634H490.292V129.156H498.054V128.091C498.054 127.405 498.054 126.755 498.041 126.092C498.027 125.93 497.965 125.777 497.864 125.65C497.763 125.524 497.628 125.431 497.475 125.381V125.381Z" fill="#28334A"/>
<path d="M491.13 117.941V117.526C490.871 117.479 490.612 117.432 490.338 117.37C490.386 117.498 490.465 117.612 490.567 117.703C490.668 117.794 490.791 117.859 490.923 117.892L491.13 117.941Z" fill="#28334A"/>
</svg>
