<?xml version="1.0" encoding="UTF-8"?>
<svg xmlns="http://www.w3.org/2000/svg" xmlns:xlink="http://www.w3.org/1999/xlink" version="1.2" >
<font id="BourtonBase">
<font-face  font-family="Bourton" units-per-em="1000" ascent="730" descent="-270" font-style="normal" font-weight="400" font-stretch="normal" cap-height="900" x-height="450" underline-position="-75" underline-thickness="50" />
<missing-glyph  horiz-adv-x="534" d="" />
<glyph glyph-name="NULL" d="" />
<glyph glyph-name="nonmarkingreturn" unicode="&#xd;" horiz-adv-x="374" d="" />
<glyph glyph-name="space" unicode="&#x20;" horiz-adv-x="374" d="" />
<glyph glyph-name="B" unicode="B" horiz-adv-x="575" d="M471 489 Q471 460 466.5 435 Q462 410 451 391 Q480 364 492.5 320.5 Q505 277 505 216 Q505 151 491 106 Q477 61 446 37 Q417 14 378 7 Q339 0 297 0 L102 0 Q94 0 94 9 L94 651 Q94 660 102 660 L262 660 Q303 660 342 655 Q381 650 410 631 Q445 608 458 570.5 Q471 533 471 489 Z M226 439 L287 439 Q311 439 323.5 448.5 Q336 458 336 484 Q336 510 317.5 519.5 Q299 529 266 529 L226 529 L226 439 Z M264 131 Q285 131 304 135.5 Q323 140 338 150.5 Q353 161 362 178 Q371 195 371 219 Q371 255 347.5 280 Q324 305 286 305 L226 305 L226 131 L264 131 Z " />
<glyph glyph-name="C" unicode="C" horiz-adv-x="614" d="M407 262 Q407 271 416 271 L530 271 Q539 271 539 262 L539 199 Q539 88 481 39 Q423 -10 311 -10 Q259 -10 216.5 1 Q174 12 144 36.5 Q114 61 97.5 101 Q81 141 81 199 L81 462 Q81 573 140 621 Q199 669 311 669 Q364 669 406 658 Q448 647 477.5 622.5 Q507 598 523 558.5 Q539 519 539 462 L539 441 Q539 432 530 432 L415 432 Q406 432 406 441 L406 457 Q406 499 379.5 517 Q353 535 316 535 L304 535 Q256 535 234 506 Q223 492 219 473 Q215 454 215 429 L215 231 Q215 198 223.5 177.5 Q232 157 244.5 145.5 Q257 134 273 129.5 Q289 125 304 125 L316 125 Q365 125 387 154 Q407 182 407 231 L407 262 Z " />
<glyph glyph-name="D" unicode="D" horiz-adv-x="631" d="M352 660 Q454 660 505 604 Q550 554 550 462 L550 197 Q550 106 499.5 53 Q449 0 352 0 L102 0 Q94 0 94 9 L94 651 Q94 660 102 660 L352 660 Z M419 432 Q419 480 394 507.5 Q369 535 316 535 L226 535 L226 125 L316 125 Q361 125 390 152 Q419 179 419 227 L419 432 Z " />
<glyph glyph-name="A" unicode="A" horiz-adv-x="576" d="M219 654 Q221 660 226 660 L350 660 Q355 660 357 654 L530 11 Q532 0 521 0 L407 0 Q401 0 400 6 L361 146 L215 146 L177 6 Q175 0 170 0 L55 0 Q44 0 46 11 L219 654 Z M330 270 L287 421 L247 270 L330 270 Z " />
<glyph glyph-name="E" unicode="E" horiz-adv-x="526" d="M102 0 Q94 0 94 9 L94 651 Q94 660 102 660 L442 660 Q451 660 451 651 L451 544 Q451 535 442 535 L226 535 L226 399 L394 399 Q402 399 402 390 L402 281 Q402 272 394 272 L226 272 L226 125 L442 125 Q451 125 451 116 L451 9 Q451 0 442 0 L102 0 L102 0 Z " />
<glyph glyph-name="F" unicode="F" horiz-adv-x="497" d="M102 0 Q94 0 94 9 L94 651 Q94 660 102 660 L442 660 Q451 660 451 651 L451 544 Q451 535 442 535 L226 535 L226 399 L394 399 Q402 399 402 390 L402 281 Q402 272 394 272 L226 272 L226 9 Q226 0 217 0 L102 0 Z " />
<glyph glyph-name="G" unicode="G" horiz-adv-x="615" d="M301 240 Q292 240 292 249 L292 356 Q292 365 301 365 L530 365 Q539 365 539 356 L539 199 Q539 88 481 39 Q423 -10 311 -10 Q259 -10 216.5 1 Q174 12 144 36.5 Q114 61 97.5 101 Q81 141 81 199 L81 462 Q81 571 140 620 Q199 669 311 669 Q363 669 405.5 658 Q448 647 477.5 622.5 Q507 598 523 558.5 Q539 519 539 462 L539 441 Q539 432 530 432 L415 432 Q406 432 406 441 L406 454 Q406 500 380 517.5 Q354 535 316 535 L304 535 Q256 535 234 506 Q223 492 219 473 Q215 454 215 429 L215 231 Q215 198 223 177.5 Q231 157 243.5 145.5 Q256 134 272 129.5 Q288 125 304 125 L316 125 Q362 125 384 154 Q406 183 406 231 L406 240 L301 240 L301 240 Z " />
<glyph glyph-name="H" unicode="H" horiz-adv-x="612" d="M387 651 Q387 660 396 660 L510 660 Q519 660 519 651 L519 9 Q519 0 510 0 L396 0 Q387 0 387 9 L387 275 L225 275 L225 9 Q225 0 216 0 L102 0 Q94 0 94 9 L94 651 Q94 660 102 660 L216 660 Q225 660 225 651 L225 400 L387 400 L387 651 Z " />
<glyph glyph-name="I" unicode="I" horiz-adv-x="315" d="M102 0 Q94 0 94 9 L94 651 Q94 660 102 660 L216 660 Q225 660 225 651 L225 9 Q225 0 216 0 L102 0 L102 0 Z " />
<glyph glyph-name="J" unicode="J" horiz-adv-x="509" d="M415 660 Q424 660 424 651 L424 172 Q424 136 410 103 Q396 70 372 45 Q348 20 315 5.5 Q282 -9 244 -9 L219 -9 Q156 -9 100 36 Q77 57 56.5 84 Q36 111 22 142 Q19 149 25 154 L130 227 Q133 229 136.5 229 Q140 229 142 224 Q147 209 154.5 191.5 Q162 174 172.5 159.5 Q183 145 197.5 135 Q212 125 232 125 Q251 125 262.5 136.5 Q274 148 280.5 165 Q287 182 289 201 Q291 220 291 236 L291 651 Q291 660 300 660 L415 660 Z " />
<glyph glyph-name="K" unicode="K" horiz-adv-x="581" d="M514 660 Q519 660 521.5 655.5 Q524 651 521 646 L364 429 L530 11 Q532 7 529.5 3.5 Q527 0 522 0 L387 0 Q381 0 380 6 L276 305 L225 235 L225 9 Q225 0 216 0 L102 0 Q94 0 94 9 L94 651 Q94 660 102 660 L216 660 Q225 660 225 651 L225 444 L382 656 Q385 660 390 660 L514 660 L514 660 Z " />
<glyph glyph-name="L" unicode="L" horiz-adv-x="496" d="M216 660 Q225 660 225 651 L225 126 L441 126 Q450 126 450 117 L450 9 Q450 0 441 0 L102 0 Q94 0 94 9 L94 651 Q94 660 102 660 L216 660 L216 660 Z " />
<glyph glyph-name="M" unicode="M" horiz-adv-x="749" d="M646 660 Q655 660 655 651 L655 9 Q655 0 646 0 L537 0 Q535 0 532 2.5 Q529 5 529 9 L529 379 L419 6 Q416 0 411 0 L332 0 Q325 0 324 6 L221 386 L221 9 Q221 0 212 0 L101 0 Q94 0 94 9 L94 651 Q94 660 101 660 L241 660 Q248 660 250 654 L371 249 L504 654 Q504 660 511 660 L646 660 L646 660 Z " />
<glyph glyph-name="N" unicode="N" horiz-adv-x="594" d="M367 651 Q367 660 376 660 L491 660 Q500 660 500 651 L500 9 Q500 0 491 0 L380 0 Q373 0 371 5 L225 334 L225 9 Q225 0 216 0 L102 0 Q94 0 94 9 L94 651 Q94 660 102 660 L220 660 Q224 660 227 655 L367 332 L367 651 L367 651 Z " />
<glyph glyph-name="O" unicode="O" horiz-adv-x="620" d="M311 669 Q439 669 495 609 Q539 561 539 462 L539 199 Q539 97 495 50 Q466 20 421 5 Q376 -10 311 -10 Q244 -10 199.5 5 Q155 20 126 50 Q104 74 92.5 110.5 Q81 147 81 199 L81 462 Q81 560 126 610 Q155 641 200 655 Q245 669 311 669 Z M406 429 Q406 462 398 482.5 Q390 503 377 515 Q364 527 348 531 Q332 535 316 535 L304 535 Q256 535 235.5 506.5 Q215 478 215 429 L215 229 Q215 196 223 175 Q231 154 243.5 142.5 Q256 131 272 126.5 Q288 122 304 122 L316 122 Q364 122 384.5 151.5 Q405 181 406 229 L406 429 Z " />
<glyph glyph-name="P" unicode="P" horiz-adv-x="534" d="M309 660 Q393 660 440 614 Q487 568 487 480 L487 354 Q487 273 440.5 224 Q394 175 309 175 L225 175 L225 9 Q225 0 216 0 L101 0 Q94 0 94 9 L94 651 Q94 660 101 660 L309 660 Z M356 450 Q356 476 350 491 Q344 506 331.5 514 Q319 522 299.5 524 Q280 526 254 526 L225 526 L225 306 L254 306 Q275 306 293.5 308.5 Q312 311 326 319.5 Q340 328 348 343 Q356 358 356 384 L356 450 Z " />
<glyph glyph-name="Q" unicode="Q" horiz-adv-x="611" d="M304 669 Q356 669 398 658 Q440 647 469.5 622.5 Q499 598 515 558.5 Q531 519 531 462 L531 199 Q531 114 495 62.5 Q459 11 370 -6 L370 -68 Q370 -78 360 -78 L246 -78 Q236 -78 236 -68 L236 -6 Q151 10 112.5 60 Q74 110 74 199 L74 462 Q74 573 133 621 Q192 669 304 669 Z M399 429 Q399 462 391 482.5 Q383 503 370 515 Q357 527 341 531 Q325 535 309 535 L296 535 Q249 535 228 506.5 Q207 478 207 429 L207 231 Q207 198 215 177.5 Q223 157 236 145.5 Q249 134 265 129.5 Q281 125 296 125 L309 125 Q356 125 377.5 154 Q399 183 399 231 L399 429 Z " />
<glyph glyph-name="R" unicode="R" horiz-adv-x="570" d="M469 261 Q447 216 407 197 L491 12 Q493 7 491 3.5 Q489 0 484 0 L361 0 Q356 0 354 5 L276 175 L225 175 L225 9 Q225 0 216 0 L101 0 Q94 0 94 9 L94 651 Q94 660 101 660 L309 660 Q393 660 440 614 Q487 568 487 480 L487 354 Q487 328 482.5 304 Q478 280 469 261 Z M356 450 Q356 476 350.5 491.5 Q345 507 333 515 Q321 523 301.5 525 Q282 527 254 527 L225 527 L225 306 L254 306 Q278 306 296.5 307.5 Q315 309 328 316.5 Q341 324 348 340 Q355 356 356 385 L356 450 Z " />
<glyph glyph-name="S" unicode="S" horiz-adv-x="550" d="M319 405 Q347 391 378 373.5 Q409 356 435 332 Q461 308 477.5 278 Q494 248 494 209 Q494 198 492.5 182 Q491 166 487 147.5 Q483 129 475.5 109.5 Q468 90 456 72 Q401 -10 281 -10 Q249 -10 216 -2 Q183 6 153.5 22.5 Q124 39 101 64 Q78 89 66 124 Q64 129 69 132 L161 211 Q169 217 174 209 Q176 205 178.5 199.5 Q181 194 185 186 Q196 163 221 143.5 Q246 124 276 124 Q288 124 300.5 127.5 Q313 131 324 138.5 Q335 146 342 158.5 Q349 171 349 189 Q349 206 338.5 220 Q328 234 312.5 244.5 Q297 255 279.5 262.5 Q262 270 247 276 Q213 290 179.5 307.5 Q146 325 117 351 Q56 408 56 481 Q56 528 75.5 563 Q95 598 127 621.5 Q159 645 199 657 Q239 669 280 669 Q409 669 472 535 Q475 528 469 524 L380 462 Q375 459 370 465 Q344 502 320 519.5 Q296 537 266 537 Q258 537 246 535 Q234 533 223 528 Q212 523 204 514.5 Q196 506 196 492 Q196 475 209.5 462 Q223 449 242.5 438.5 Q262 428 283 420 Q304 412 319 405 Z " />
<glyph glyph-name="T" unicode="T" horiz-adv-x="527" d="M55 535 Q46 535 46 544 L46 651 Q46 660 55 660 L472 660 Q481 660 481 651 L481 544 Q481 535 472 535 L330 535 L330 9 Q330 0 321 0 L206 0 Q197 0 197 9 L197 535 L55 535 L55 535 Z " />
<glyph glyph-name="U" unicode="U" horiz-adv-x="630" d="M412 651 Q412 660 421 660 L535 660 Q544 660 544 651 L544 199 Q544 90 486 40 Q428 -10 316 -10 Q263 -10 220.5 1 Q178 12 148.5 37 Q119 62 103 102 Q87 142 87 199 L87 651 Q87 660 96 660 L211 660 Q220 660 220 651 L220 231 Q220 198 228.5 177.5 Q237 157 250 145.5 Q263 134 279 129.5 Q295 125 310 125 L322 125 Q369 125 390.5 154 Q412 183 412 231 L412 651 Z " />
<glyph glyph-name="V" unicode="V" horiz-adv-x="577" d="M402 654 Q406 660 410 660 L524 660 Q529 660 531.5 657 Q534 654 532 649 L359 6 Q356 0 351 0 L227 0 Q221 0 220 6 L47 649 Q45 660 56 660 L171 660 Q175 660 179 654 L289 240 L402 654 Z " />
<glyph glyph-name="W" unicode="W" horiz-adv-x="874" d="M804 660 Q809 660 811.5 657 Q814 654 812 649 L640 6 Q638 0 631 0 L521 0 Q515 0 512 6 L444 259 L352 5 Q350 0 345 0 L239 0 Q232 0 231 6 L60 650 Q58 660 69 660 L184 660 Q189 660 191 654 L302 230 L385 481 L339 649 Q337 654 340 657 Q343 660 347 660 L471 660 Q477 660 479 654 L571 246 L681 654 Q683 660 689 660 L804 660 L804 660 Z " />
<glyph glyph-name="X" unicode="X" horiz-adv-x="566" d="M486 660 Q491 660 493.5 656 Q496 652 494 647 L364 354 L521 12 Q523 7 521 3.5 Q519 0 514 0 L401 0 Q395 0 394 5 L284 239 L174 5 Q172 1 170.5 0.5 Q169 0 166 0 L52 0 Q47 0 45 3.5 Q43 7 45 12 L201 354 L72 647 Q70 652 72.5 656 Q75 660 80 660 L196 660 Q199 660 200.5 658.5 Q202 657 204 655 L284 477 L365 655 Q367 660 372 660 L486 660 L486 660 Z " />
<glyph glyph-name="Y" unicode="Y" horiz-adv-x="511" d="M341 655 Q343 659 344.5 659.5 Q346 660 349 660 L461 660 Q466 660 468.5 656.5 Q471 653 469 649 L324 312 L324 9 Q324 0 315 0 L197 0 Q190 0 190 9 L190 312 L41 647 Q37 660 49 660 L161 660 Q164 660 165.5 659.5 Q167 659 169 655 L256 487 L341 655 Z " />
<glyph glyph-name="Z" unicode="Z" horiz-adv-x="590" d="M490 125 Q499 125 499 116 L499 9 Q499 0 490 0 L104 0 Q101 0 98 2 Q95 4 95 9 L95 120 L95 121 Q95 122 96 124 L337 535 L101 535 Q92 535 92 544 L92 651 Q92 660 101 660 L490 660 Q495 660 496 657 Q497 654 497 652 L497 540 Q497 537 496 536 L255 125 L490 125 Z " />
<glyph glyph-name="one" unicode="1" horiz-adv-x="379" d="M162 654 Q165 658 167.5 658.5 Q170 659 172 659 L289 659 Q297 659 297 650 L297 9 Q297 0 289 0 L175 0 Q166 0 166 9 L166 495 L104 429 Q100 425 94.5 427 Q89 429 89 435 L89 547 Q89 549 89.5 550 Q90 551 90 552 L162 654 L162 654 Z " />
<glyph glyph-name="zero" unicode="0" horiz-adv-x="656" d="M342 669 Q403 669 450.5 646.5 Q498 624 530 583.5 Q562 543 578.5 487.5 Q595 432 595 367 L595 291 Q595 233 580 179 Q565 125 534 83 Q503 41 455.5 15.5 Q408 -10 342 -10 Q278 -10 230.5 14 Q183 38 151.5 79 Q120 120 104.5 174.5 Q89 229 89 291 L89 367 Q89 439 106 496 Q129 575 192 622 Q255 669 342 669 Z M342 124 Q381 124 404.5 143.5 Q428 163 440.5 193.5 Q453 224 457 260 Q461 296 461 329 Q461 359 458 395 Q455 431 443 462 Q431 493 407 514 Q383 535 342 535 Q304 535 281 514 Q258 493 244.5 462 Q231 431 226.5 395 Q222 359 222 329 Q222 301 226.5 265.5 Q231 230 244 198.5 Q257 167 280.5 145.5 Q304 124 342 124 Z " />
<glyph glyph-name="two" unicode="2" horiz-adv-x="587" d="M396 250 Q382 240 357.5 227 Q333 214 309 199 Q285 184 267 167 Q249 150 247 132 L491 132 Q500 132 500 124 L500 9 Q500 0 491 0 L102 0 Q98 0 96 3 Q94 6 94 9 L94 122 Q94 168 111 204 Q128 240 155.5 269.5 Q183 299 218 322.5 Q253 346 290 367 Q305 376 325.5 388.5 Q346 401 361.5 417.5 Q377 434 382 454 Q387 474 371 497 Q360 514 342 524.5 Q324 535 301 535 Q283 535 268.5 527.5 Q254 520 243.5 507 Q233 494 227.5 476.5 Q222 459 222 440 L222 422 Q222 417 218 414.5 Q214 412 210 415 L94 484 Q92 485 91 486.5 Q90 488 90 494 Q90 535 108.5 567.5 Q127 600 156.5 622.5 Q186 645 223.5 657 Q261 669 300 669 Q393 669 456 614 Q517 557 525 464 Q532 342 396 250 Z " />
<glyph glyph-name="three" unicode="3" horiz-adv-x="562" d="M289 669 Q334 669 372.5 653.5 Q411 638 439.5 609.5 Q468 581 484 541.5 Q500 502 500 455 Q500 388 452 331 Q476 308 488 274.5 Q500 241 500 206 Q500 160 485 120.5 Q470 81 442.5 52 Q415 23 376 6.5 Q337 -10 289 -10 Q226 -10 174.5 23 Q123 56 90 117 Q86 123 92 129 L176 192 Q183 199 189 191 Q205 169 218.5 155.5 Q232 142 244 135 Q256 128 268 126 Q280 124 292 124 Q302 124 314 129 Q326 134 336 143 Q346 152 353 165.5 Q360 179 360 197 Q360 211 355 226.5 Q350 242 340 254.5 Q330 267 315 275.5 Q300 284 279 284 L261 284 Q251 284 251 294 L251 386 Q251 394 260 394 L275 394 Q291 394 306.5 399.5 Q322 405 334 414 Q346 423 353 435.5 Q360 448 360 462 Q360 495 336.5 515.5 Q313 536 279 536 Q249 536 226 515.5 Q203 495 192 469 Q188 459 180 466 L92 532 Q89 535 90 542 Q97 573 117.5 597 Q138 621 165.5 637 Q193 653 225 661 Q257 669 289 669 Z " />
<glyph glyph-name="eight" unicode="8" horiz-adv-x="607" d="M471 391 Q508 361 527 317 Q546 273 546 219 L546 207 Q546 155 531 115 Q500 36 414 5 Q372 -10 319 -10 Q267 -10 224.5 4.5 Q182 19 152 47 Q122 75 105.5 117 Q89 159 89 214 L89 222 Q89 278 107.5 322.5 Q126 367 161 396 Q131 443 131 497 Q131 534 146.5 566 Q162 598 187.5 620.5 Q213 643 247 656 Q281 669 319 669 Q357 669 390.5 657 Q424 645 450 622 Q462 610 472.5 597 Q483 584 490 569 Q504 538 504 497 Q504 470 495.5 442 Q487 414 471 391 Z M319 546 Q297 546 281.5 534 Q266 522 266 497 Q266 476 281.5 460.5 Q297 445 319 445 Q339 445 354.5 460.5 Q370 476 370 497 Q370 517 355 531.5 Q340 546 319 546 Z M319 124 Q338 124 355.5 131 Q373 138 386 151 Q399 164 406.5 181.5 Q414 199 414 219 Q414 258 387.5 284.5 Q361 311 319 311 Q277 311 247 284 Q234 273 228 255.5 Q222 238 222 219 Q222 177 248 150.5 Q274 124 319 124 Z " />
<glyph glyph-name="nine" unicode="9" horiz-adv-x="607" d="M219 187 Q225 191 230 184 L241 165 Q249 150 265 138 Q281 126 319 126 Q361 126 381.5 150.5 Q402 175 407 220 Q384 214 359.5 210.5 Q335 207 309 207 Q266 207 226 221 Q186 235 152 265 Q89 325 89 426 L89 450 Q89 497 105.5 537 Q122 577 151.5 606.5 Q181 636 222.5 652.5 Q264 669 315 669 L321 669 Q427 669 486.5 611 Q546 553 546 442 L546 199 Q546 152 530.5 114 Q515 76 486 48 Q457 20 415 5 Q373 -10 319 -10 Q287 -10 254.5 -2 Q222 6 192.5 22.5 Q163 39 139.5 63.5 Q116 88 102 121 Q99 129 106 132 L219 187 Z M317 340 Q358 340 386 367.5 Q414 395 414 437 Q414 477 388.5 505.5 Q363 534 319 534 Q279 534 250 507 Q221 480 221 437 Q221 397 247.5 368.5 Q274 340 317 340 Z " />
<glyph glyph-name="six" unicode="6" horiz-adv-x="607" d="M327 451 Q372 451 412 435 Q452 419 481.5 390 Q511 361 528.5 321 Q546 281 546 232 L546 209 Q546 158 531 116 Q519 84 497.5 60.5 Q476 37 448.5 21.5 Q421 6 388 -2 Q355 -10 321 -10 L315 -10 Q211 -10 150 47.5 Q89 105 89 216 L89 461 Q89 506 105 544.5 Q121 583 150 610.5 Q179 638 220 653.5 Q261 669 312 669 L319 669 Q349 669 382 662 Q415 655 444.5 639.5 Q474 624 498 599.5 Q522 575 534 539 Q536 531 530 529 L417 471 Q410 468 406 475 L395 495 Q387 509 370.5 521.5 Q354 534 319 534 Q276 534 255 509 Q234 484 229 439 Q250 444 275 447.5 Q300 451 327 451 Z M319 124 Q338 124 355.5 132 Q373 140 386 153.5 Q399 167 406.5 184.5 Q414 202 414 222 Q414 263 388 291.5 Q362 320 319 320 Q277 320 249.5 293 Q222 266 222 222 Q222 180 248 152 Q274 124 319 124 Z " />
<glyph glyph-name="four" unicode="4" horiz-adv-x="610" d="M460 660 Q469 660 469 651 L469 302 L539 302 Q547 302 547 294 L547 186 Q547 177 539 177 L469 177 L469 9 Q469 0 460 0 L346 0 Q337 0 337 9 L337 177 L97 177 Q89 177 89 186 L89 295 Q89 299 89.5 300.5 Q90 302 92 305 L335 656 Q336 660 341 660 L460 660 Z M337 454 L239 302 L337 302 L337 454 Z " />
<glyph glyph-name="seven" unicode="7" horiz-adv-x="509" d="M97 535 Q89 535 89 544 L89 651 Q89 660 97 660 L437 660 Q446 660 446 651 L446 535 L235 5 Q233 0 227 0 L100 0 Q95 0 92.5 3.5 Q90 7 92 11 L301 535 L97 535 L97 535 Z " />
<glyph glyph-name="five" unicode="5" horiz-adv-x="570" d="M304 441 Q403 441 456.5 389.5 Q510 338 507 236 L507 219 Q507 174 492.5 132.5 Q478 91 450.5 59 Q423 27 383.5 8 Q344 -11 295 -11 Q220 -11 168.5 22.5 Q117 56 91 131 Q88 141 92 145 L192 212 Q196 215 200 214 Q204 213 205 209 L209 195 Q217 166 236.5 145 Q256 124 290 124 Q332 124 348 153.5 Q364 183 364 225 Q364 267 342.5 293.5 Q321 320 275 320 Q240 320 199.5 312 Q159 304 124 296 Q114 295 114 304 L114 651 Q114 660 121 660 L442 660 Q451 660 451 651 L451 544 Q451 535 442 535 L246 535 L246 439 Q261 440 275.5 440.5 Q290 441 304 441 Z " />
<glyph glyph-name="percent" unicode="&#x25;" horiz-adv-x="979" d="M461 497 Q461 459 447 425.5 Q433 392 407 366 Q381 339 347 325 Q313 311 275 311 Q236 311 202.5 325.5 Q169 340 143.5 365 Q118 390 103.5 424 Q89 458 89 496 Q89 532 103.5 563 Q118 594 143 617 Q168 640 202 653.5 Q236 667 275 667 Q311 667 344.5 655 Q378 643 404 621 Q430 599 445.5 567.5 Q461 536 461 497 Z M727 347 Q763 347 796.5 335 Q830 323 856 301 Q882 279 898 247.5 Q914 216 914 177 Q914 140 899.5 106.5 Q885 73 859.5 47 Q834 21 800 5.5 Q766 -10 727 -10 Q689 -10 655.5 4.5 Q622 19 596.5 44.5 Q571 70 556.5 104 Q542 138 542 177 Q542 212 556 243 Q570 274 595 297 Q620 320 654 333.5 Q688 347 727 347 Z M675 664 Q679 664 681.5 660.5 Q684 657 682 651 L437 -9 Q436 -14 429 -14 L316 -14 Q312 -14 308.5 -11 Q305 -8 307 -3 L552 657 Q555 664 560 664 L675 664 Z M275 445 Q297 445 312 460.5 Q327 476 327 497 Q327 519 312.5 532 Q298 545 275 545 Q254 545 239 532.5 Q224 520 224 497 Q224 476 239 460.5 Q254 445 275 445 Z M727 125 Q750 125 765.5 140.5 Q781 156 781 177 Q781 198 765 211.5 Q749 225 727 225 Q710 225 692.5 212 Q675 199 675 177 Q675 156 690.5 140.5 Q706 125 727 125 Z " />
<glyph glyph-name="at" unicode="&#x40;" horiz-adv-x="741" d="M580 627 Q679 567 679 416 L679 272 Q679 200 650 159 Q633 136 607 123.5 Q581 111 547 111 Q519 111 499 116.5 Q479 122 462 132 Q448 143 438.5 158.5 Q429 174 424 197 Q407 174 387.5 160.5 Q368 147 335 147 Q309 147 291.5 157.5 Q274 168 263 186 Q252 204 247 227 Q242 250 242 274 L242 384 Q242 433 269 464 Q298 499 347 499 Q362 499 381.5 495 Q401 491 417 479 Q420 476 422.5 473.5 Q425 471 427 469 L427 490 Q427 499 436 499 L509 499 Q517 499 517 490 Q517 479 516.5 450 Q516 421 515.5 387 Q515 353 514.5 321 Q514 289 514 274 Q514 240 519 229.5 Q524 219 540 219 Q556 219 563.5 231 Q571 243 571 272 L571 416 Q571 499 522 534 Q499 549 466.5 556.5 Q434 564 387 564 L366 564 Q280 564 239 520 Q190 471 190 346 L190 251 Q190 210 201.5 178.5 Q213 147 236 127 Q259 107 284.5 101.5 Q310 96 325 96 Q355 96 377 108.5 Q399 121 407 129 Q414 133 420 127 L482 54 Q486 48 482 41 Q479 32 454 17 Q425 0 390.5 -5 Q356 -10 329 -10 Q214 -10 156 54 Q89 124 89 290 L89 379 Q89 421 93.5 453.5 Q98 486 106 515 Q114 543 126 565 Q138 587 156 605 Q189 637 239 652 Q289 667 364 667 L402 667 Q428 667 449.5 666 Q471 665 491 660 Q517 655 539.5 647.5 Q562 640 580 627 Z M416 366 Q416 372 410 377.5 Q404 383 396 386.5 Q388 390 379.5 392.5 Q371 395 366 395 Q358 395 350 393.5 Q342 392 335.5 386 Q329 380 325 368.5 Q321 357 321 337 L321 321 Q321 310 323 297.5 Q325 285 330.5 274.5 Q336 264 345 257 Q354 250 369 250 Q386 250 398.5 265.5 Q411 281 416 296 L416 366 Z " />
<glyph glyph-name="ampersand" unicode="&#x26;" horiz-adv-x="769" d="M702 15 Q707 11 705 5.5 Q703 0 697 0 L532 0 Q527 0 525 4 L500 39 Q440 -10 354 -10 L322 -10 Q255 -10 207 6 Q186 14 168 25 Q150 36 136 51 Q89 101 89 200 Q89 233 93.5 257.5 Q98 282 107 302 Q116 321 130 337.5 Q144 354 165 369 Q139 401 127.5 434 Q116 467 116 504 Q116 587 174 627 Q231 670 342 670 Q390 670 428 658.5 Q466 647 494 626 Q520 603 535 575 Q543 561 546 545 Q549 529 549 512 Q549 501 545 499 L427 426 Q422 423 418 425.5 Q414 428 414 434 L414 471 Q414 504 395 520 Q376 536 350 536 L324 536 Q300 536 282.5 527.5 Q265 519 257 502 Q253 493 254 483 Q255 473 259 462 Q268 434 295 409 L466 245 L466 284 L466 337 Q466 344 470 345 L591 421 Q596 424 600 422 Q604 420 604 415 L604 300 Q604 258 596 217 Q588 176 574 141 L702 15 Z M339 125 Q354 125 367.5 129 Q381 133 395 139 L257 271 Q255 269 249.5 264 Q244 259 238.5 251.5 Q233 244 229 233 Q225 222 225 209 Q225 175 245 150 Q265 125 304 125 L339 125 Z " />
<glyph glyph-name="germandbls" unicode="&#xdf;" horiz-adv-x="607" d="M450 345 Q491 320 514.5 283 Q538 246 542 195 Q546 152 539 114.5 Q532 77 512 49.5 Q492 22 459 6 Q426 -10 377 -10 Q360 -10 341.5 -8.5 Q323 -7 300 -3 Q295 -1 294.5 1 Q294 3 294 6 L294 124 Q294 132 302 132 Q308 132 314.5 131.5 Q321 131 326 131 Q358 131 377.5 147.5 Q397 164 397 200 Q397 241 375 258.5 Q353 276 311 280 Q288 282 277 299.5 Q266 317 261 340 Q258 366 270.5 389.5 Q283 413 311 421 Q333 427 345 443.5 Q357 460 355 484 Q354 496 347 505 Q340 514 330 519 Q320 524 308 526.5 Q296 529 284 529 L239 529 L239 7 Q239 5 237 2 Q235 -1 230 -1 L116 -1 Q107 -1 107 7 L107 650 Q107 659 116 659 L276 659 Q313 659 350 651 Q387 643 417 624.5 Q447 606 466 575.5 Q485 545 485 501 Q485 473 480.5 454 Q476 435 469.5 422 Q463 409 455 401 Q447 393 440 387 Q427 377 427 367 Q427 359 450 345 Z " />
<glyph glyph-name="asciitilde" unicode="&#x7e;" horiz-adv-x="584" d="M355 276 Q345 276 336 271.5 Q327 267 317 259 Q305 248 286 238.5 Q267 229 231 229 Q187 229 160.5 249 Q134 269 120 291 Q106 311 98 337 Q90 363 89 387 Q89 395 97 395 L206 395 Q215 395 215 387 Q219 373 225.5 359.5 Q232 346 252 346 Q263 346 270 350 Q277 354 285 361 Q323 396 381 396 Q425 396 450.5 376.5 Q476 357 490 336 Q503 316 511.5 290 Q520 264 520 240 Q520 235 517 233 Q514 231 511 231 L402 231 Q396 231 394 239 Q384 262 375 269 Q366 276 355 276 Z " />
<glyph glyph-name="cent" unicode="&#xa2;" horiz-adv-x="552" d="M437 501 Q452 481 458.5 454 Q465 427 465 390 L465 375 Q465 366 456 366 L361 366 Q352 366 352 375 L352 385 Q352 417 331.5 433.5 Q311 450 282 450 L271 450 Q234 450 216 429 Q205 418 202 401 Q199 384 199 364 L199 287 Q199 260 205.5 243.5 Q212 227 222.5 217.5 Q233 208 245.5 204.5 Q258 201 271 201 L282 201 Q320 201 338 224.5 Q356 248 356 287 L356 311 Q356 320 365 320 L456 320 Q465 320 465 311 L465 261 Q465 189 434.5 147.5 Q404 106 329 91 L329 15 Q329 12 326.5 9 Q324 6 320 6 L234 6 Q230 6 227 9 Q224 12 224 15 L224 91 Q186 98 159.5 111.5 Q133 125 116 150 Q87 188 87 261 L87 390 Q87 427 94.5 454 Q102 481 116 501 Q150 547 224 557 L224 630 Q224 640 234 640 L320 640 Q329 640 329 631 L329 557 Q405 547 437 501 Z " />
<glyph glyph-name="dollar" unicode="&#x24;" horiz-adv-x="615" d="M366 405 Q396 391 429 373.5 Q462 356 489 332 Q516 308 533.5 278 Q551 248 551 209 Q551 186 544 147.5 Q537 109 511 72 Q464 4 372 -6 L372 -60 Q372 -65 369 -67.5 Q366 -70 364 -70 L279 -70 Q269 -70 269 -60 L269 -6 Q243 -2 217 8 Q191 18 167.5 34 Q144 50 126 72.5 Q108 95 99 125 Q97 129 102 134 L201 211 Q209 217 214 209 L225 186 Q237 162 263.5 143 Q290 124 321 124 Q334 124 347.5 127.5 Q361 131 372.5 138.5 Q384 146 391.5 158.5 Q399 171 399 189 Q399 206 388 220 Q377 234 360.5 244.5 Q344 255 325 262.5 Q306 270 291 276 Q256 290 220.5 307.5 Q185 325 154 351 Q89 407 89 481 Q89 520 103.5 551 Q118 582 142.5 605 Q167 628 200 642.5 Q233 657 269 664 L269 720 Q269 727 277 727 L364 727 Q372 727 372 720 L372 664 Q425 654 463 621 Q501 588 529 534 Q532 527 525 524 L432 462 Q430 460 426 461 Q422 462 420 465 L407 484 Q390 507 366.5 522 Q343 537 311 537 Q303 537 290.5 535 Q278 533 266 528 Q254 523 245.5 514.5 Q237 506 237 492 Q237 475 251 462 Q265 449 285.5 438.5 Q306 428 328 420 Q350 412 366 405 Z " />
<glyph glyph-name="sterling" unicode="&#xa3;" horiz-adv-x="629" d="M410 466 Q402 462 397 470 Q391 482 384.5 493.5 Q378 505 368 514 Q358 523 343.5 528.5 Q329 534 307 534 L300 534 Q270 534 253.5 508.5 Q237 483 237 424 L237 391 L325 391 Q328 391 331 388.5 Q334 386 334 382 L334 269 Q334 264 331 261.5 Q328 259 325 259 L237 259 L237 124 L320 124 Q343 124 361 130.5 Q379 137 390 154 Q399 168 405 186.5 Q411 205 411 230 L411 261 Q411 270 420 270 L532 270 Q541 270 541 261 L541 197 Q541 100 497 55 Q443 0 314 0 L114 0 Q110 0 107.5 3 Q105 6 105 9 L105 259 L71 259 Q68 259 65 261.5 Q62 264 62 269 L62 382 Q62 386 65 388.5 Q68 391 71 391 L105 391 L105 487 Q105 524 119 556.5 Q133 589 157 615 Q183 641 216 654 Q249 667 285 667 L310 667 Q342 667 372.5 660 Q403 653 429 638 Q455 623 475 599.5 Q495 576 507 542 Q510 538 504 532 L410 466 Z " />
<glyph glyph-name="less" unicode="&#x3c;" horiz-adv-x="420" d="M95 240 Q89 241 89 249 L89 369 Q89 375 94 377 L344 535 Q348 538 352.5 536 Q357 534 357 529 L357 414 Q357 407 354 406 L197 316 L352 251 Q357 249 357 245 L357 130 Q357 124 353 121 Q349 118 344 121 L95 240 L95 240 Z " />
<glyph glyph-name="greater" unicode="&#x3e;" horiz-adv-x="420" d="M356 249 Q356 241 352 240 L101 121 Q97 119 93 121 Q89 123 89 130 L89 245 Q89 249 95 251 L249 316 L94 406 Q89 410 89 414 L89 529 Q89 531 93 534.5 Q97 538 102 535 L351 379 Q355 377 355.5 374 Q356 371 356 369 L356 249 L356 249 Z " />
<glyph glyph-name="slash" unicode="&#x2f;" horiz-adv-x="529" d="M221 -9 Q220 -12 217 -13 Q214 -14 212 -14 L96 -14 Q92 -14 90 -11 Q88 -8 90 -3 L335 657 Q337 662 338.5 663 Q340 664 342 664 L457 664 Q462 664 464.5 660 Q467 656 465 651 L221 -9 Z " />
<glyph glyph-name="bar" unicode="&#x7c;" horiz-adv-x="284" d="M214 704 Q216 704 218.5 701.5 Q221 699 222 696 L222 -46 Q222 -49 219 -52 Q216 -55 214 -55 L97 -55 Q95 -55 92 -52 Q89 -49 89 -46 L89 696 Q89 699 92 701.5 Q95 704 97 704 L214 704 Z " />
<glyph glyph-name="underscore" unicode="&#x5f;" horiz-adv-x="649" d="M586 -94 Q586 -99 583 -101 Q580 -103 577 -103 L99 -103 Q89 -103 89 -94 L89 -8 Q89 -5 92 -2 Q95 1 99 1 L577 1 Q586 1 586 -8 L586 -94 L586 -94 Z " />
<glyph glyph-name="Oslash" unicode="&#xd8;" horiz-adv-x="620" d="M252 -60 Q250 -66 244 -66 L131 -66 Q126 -66 123 -62.5 Q120 -59 121 -55 L150 30 Q112 57 96.5 103.5 Q81 150 81 199 L81 462 Q81 571 140.5 620.5 Q200 670 311 670 Q323 670 335.5 669.5 Q348 669 359 667 L367 691 Q371 699 377 699 L490 699 Q495 699 498 695 Q501 691 499 686 L477 625 Q509 600 524 560 Q539 520 539 462 L539 199 Q539 91 481 40.5 Q423 -10 311 -10 Q300 -10 289.5 -9.5 Q279 -9 270 -8 L252 -60 Z M314 126 Q362 126 384 154 Q406 182 406 231 L406 409 L314 126 Z M215 231 L215 225 L316 536 L304 536 Q257 536 234 507 Q223 493 219 473.5 Q215 454 215 430 L215 337 L215 231 Z " />
<glyph glyph-name="braceright" unicode="&#x7d;" horiz-adv-x="389" d="M326 331 Q329 328 330 324.5 Q331 321 326 317 Q295 292 295 222 Q295 198 299.5 169.5 Q304 141 308 112.5 Q312 84 314 56.5 Q316 29 311 7 Q308 -9 302 -23.5 Q296 -38 286 -49 Q269 -71 244 -81 Q219 -91 187 -91 L101 -91 Q92 -91 92 -83 L92 36 Q92 45 101 45 L141 45 Q167 45 177 65 Q187 85 181 110 Q176 137 168 165.5 Q160 194 160 226 Q160 280 192 324 Q160 370 160 421 Q160 446 166.5 470.5 Q173 495 181 537 Q183 548 182.5 560 Q182 572 177.5 581.5 Q173 591 164 597.5 Q155 604 141 604 L101 604 Q92 604 92 612 L92 731 Q92 740 101 740 L187 740 Q219 740 244 728.5 Q269 717 286 697 Q305 672 311 640 Q317 615 315 589 Q313 563 308.5 536 Q304 509 299.5 481 Q295 453 295 426 Q295 391 303.5 367 Q312 343 326 331 Z " />
<glyph glyph-name="braceleft" unicode="&#x7b;" horiz-adv-x="389" d="M106 640 Q114 686 148.5 713 Q183 740 231 740 L319 740 Q327 740 327 731 Q327 722 326.5 705.5 Q326 689 326 671 Q326 653 326 637 Q326 621 326 612 Q326 604 319 604 L276 604 Q263 604 254.5 597.5 Q246 591 241.5 581.5 Q237 572 236 560 Q235 548 237 537 Q241 509 250 481.5 Q259 454 259 421 Q259 370 225 324 Q259 279 259 226 Q259 197 251 170 Q243 143 237 110 Q235 100 236 88.5 Q237 77 241.5 67.5 Q246 58 254 51.5 Q262 45 276 45 L319 45 Q326 45 326 36 L326 -83 Q326 -91 319 -91 L231 -91 Q186 -91 150 -65.5 Q114 -40 106 7 Q100 43 107 79 Q115 121 120 156.5 Q125 192 124 222 Q122 258 115.5 281.5 Q109 305 94 316 Q86 323 92 331 Q121 357 124 426 Q125 451 120.5 478.5 Q116 506 111.5 533.5 Q107 561 104.5 588.5 Q102 616 106 640 Z " />
<glyph glyph-name="bracketright" unicode="&#x5d;" horiz-adv-x="397" d="M311 735 Q320 735 320 726 L320 -66 Q320 -75 311 -75 L101 -75 Q92 -75 92 -66 L92 50 Q92 59 101 59 L187 59 L187 604 L101 604 Q92 604 92 612 L92 726 Q92 735 101 735 L311 735 L311 735 Z " />
<glyph glyph-name="bracketleft" unicode="&#x5b;" horiz-adv-x="397" d="M326 59 Q335 59 335 50 L335 -65 Q335 -74 326 -74 L116 -74 Q107 -74 107 -65 L107 726 Q107 735 116 735 L326 735 Q335 735 335 726 L335 612 Q335 604 326 604 L239 604 L239 59 L326 59 Z " />
<glyph glyph-name="exclam" unicode="&#x21;" horiz-adv-x="334" d="M111 197 Q102 197 102 206 L75 652 Q75 658 78 659.5 Q81 661 84 661 L247 661 Q252 661 254 658 Q256 655 256 652 L230 206 Q230 197 221 197 L111 197 Z M170 167 Q208 167 233.5 142 Q259 117 259 80 Q259 43 233.5 17 Q208 -9 170 -9 Q134 -9 109 17 Q84 43 84 80 Q84 117 109 142 Q134 167 170 167 Z " />
<glyph glyph-name="question" unicode="&#x3f;" horiz-adv-x="582" d="M244 167 Q282 167 307 142 Q332 117 332 80 Q332 43 307 17 Q282 -9 244 -9 Q208 -9 182.5 17 Q157 43 157 80 Q157 117 182.5 142 Q208 167 244 167 Z M282 669 Q319 669 357 658 Q395 647 427 625 Q459 603 480.5 570 Q502 537 506 494 Q509 468 503 443 Q497 418 484 395 Q458 353 405 320 Q371 300 352 285.5 Q333 271 324 257 Q315 247 312.5 236.5 Q310 226 310 209 Q310 200 301 200 L179 200 Q171 200 171 211 Q171 227 171 240 Q171 253 176 271 Q183 296 196 316 Q209 336 232 351 Q245 361 262 372 Q279 383 296.5 395.5 Q314 408 328 422 Q342 436 349 451 Q363 486 344.5 510.5 Q326 535 286 535 Q248 535 226.5 506.5 Q205 478 206 441 L206 416 Q206 411 202.5 409 Q199 407 194 409 L81 466 Q76 467 76 475 Q72 515 89 550.5 Q106 586 136 612 Q166 638 204.5 653.5 Q243 669 282 669 Z " />
<glyph glyph-name="Thorn" unicode="&#xde;" horiz-adv-x="554" d="M309 602 Q394 602 440.5 555.5 Q487 509 487 421 L487 296 Q487 256 475 223 Q463 190 440 166 Q417 142 384 128.5 Q351 115 309 115 L239 115 L239 9 Q239 0 230 0 L115 0 Q106 0 106 9 L106 651 Q106 660 115 660 L230 660 Q239 660 239 651 L239 602 L309 602 Z M356 391 Q356 440 330.5 458 Q305 476 254 476 L239 476 L239 240 L254 240 Q275 240 293.5 243.5 Q312 247 326 257 Q340 267 348 283 Q356 299 356 325 L356 391 Z " />
<glyph glyph-name="numbersign" unicode="&#x23;" horiz-adv-x="706" d="M634 535 Q642 535 642 525 L625 411 Q623 402 615 402 L555 402 L531 261 L589 261 Q594 261 597 258 Q600 255 599 250 L580 136 Q578 130 571 130 L509 130 L489 7 Q487 5 485.5 2.5 Q484 0 481 0 L366 0 Q362 0 359 3 Q356 6 357 11 L376 130 L277 130 L257 7 Q256 0 247 0 L134 0 Q124 0 126 11 L145 130 L99 130 Q89 130 89 140 L107 254 Q110 261 117 261 L167 261 L190 402 L142 402 Q140 402 136 405.5 Q132 409 134 414 L152 529 Q152 535 161 535 L211 535 L230 652 Q232 660 240 660 L354 660 Q358 660 361.5 657.5 Q365 655 364 650 L342 535 L444 535 L462 652 Q462 655 465 657.5 Q468 660 471 660 L586 660 Q589 660 592 657.5 Q595 655 595 650 L576 535 L634 535 Z M421 402 L321 402 L299 261 L397 261 L421 402 Z " />
<glyph glyph-name="logicalnot" unicode="&#xac;" horiz-adv-x="491" d="M420 432 Q429 432 429 422 L429 257 Q429 249 420 249 L334 249 Q331 249 328 251 Q325 253 325 257 L325 327 L99 327 Q89 327 89 336 L89 422 Q89 432 99 432 L420 432 L420 432 Z " />
<glyph glyph-name="parenright" unicode="&#x29;" horiz-adv-x="425" d="M174 756 Q224 720 259.5 672.5 Q295 625 318 570.5 Q341 516 351.5 457.5 Q362 399 362 342 Q362 283 351 222.5 Q340 162 317 106.5 Q294 51 258.5 4 Q223 -43 174 -75 Q170 -77 166 -77.5 Q162 -78 160 -73 L101 19 Q98 24 102 30 Q107 33 112.5 38 Q118 43 125 50 Q187 107 220.5 182.5 Q254 258 254 339 Q254 399 236 451.5 Q218 504 189 551 Q167 586 148.5 606.5 Q130 627 125 631 L104 651 Q98 657 102 662 L160 752 Q166 762 174 756 Z " />
<glyph glyph-name="parenleft" unicode="&#x28;" horiz-adv-x="425" d="M199 339 Q199 258 232 182.5 Q265 107 327 50 Q341 36 350 30 Q352 28 352.5 24.5 Q353 21 351 19 L292 -73 Q290 -78 286.5 -77.5 Q283 -77 279 -75 Q229 -43 193.5 4 Q158 51 135 106.5 Q112 162 101 222.5 Q90 283 90 342 Q90 399 100.5 457.5 Q111 516 134 570.5 Q157 625 193 672.5 Q229 720 279 756 Q287 763 292 752 L350 662 Q353 657 349 651 L327 631 Q322 627 303.5 606.5 Q285 586 264 551 Q235 504 217 451.5 Q199 399 199 339 Z " />
<glyph glyph-name="ring" unicode="&#x2da;" horiz-adv-x="352" d="M291 605 Q291 559 265 535.5 Q239 512 191 512 Q146 512 118.5 533.5 Q91 555 89 605 L89 631 Q89 679 116 701.5 Q143 724 191 724 Q236 724 262 702 Q288 680 291 631 L291 605 Z M224 619 Q224 633 217.5 642.5 Q211 652 194 654 L187 654 Q167 654 162 642 Q157 630 157 619 Q157 605 164 594.5 Q171 584 187 582 L194 582 Q214 582 219 595 Q224 608 224 619 Z " />
<glyph glyph-name="plusminus" unicode="&#xb1;" horiz-adv-x="432" d="M345 155 Q345 153 342.5 150 Q340 147 337 147 L97 147 Q93 147 90 150 Q87 153 87 155 L87 242 Q87 250 97 250 L337 250 Q345 250 345 242 L345 155 Z M87 444 Q87 454 97 454 L162 454 L162 521 Q162 530 172 530 L262 530 Q270 530 270 521 L270 454 L337 454 Q345 454 345 444 L345 357 Q345 355 342.5 352 Q340 349 337 349 L270 349 L270 282 Q270 272 262 272 L172 272 Q162 272 162 282 L162 349 L97 349 Q93 349 90 352 Q87 355 87 357 L87 444 Z " />
<glyph glyph-name="backslash" unicode="&#x5c;" horiz-adv-x="530" d="M465 4 Q469 -9 459 -9 L342 -9 Q337 -9 335 -3 L90 656 Q88 661 91 665 Q94 669 99 669 L212 669 Q219 669 221 664 L465 4 L465 4 Z " />
<glyph glyph-name="multiply" unicode="&#xd7;" horiz-adv-x="390" d="M194 419 L241 466 Q247 472 254 466 L317 402 Q323 397 317 391 L270 344 L316 296 Q318 294 318.5 290 Q319 286 316 284 L255 224 Q248 217 242 224 L196 270 L149 221 Q142 214 135 221 L72 285 Q67 292 72 297 L120 345 L74 391 Q67 398 74 405 L134 465 Q140 472 147 465 L194 419 Z " />
<glyph glyph-name="plus" unicode="&#x2b;" horiz-adv-x="410" d="M164 294 L99 294 Q89 294 89 301 L89 389 Q89 396 96 396 L164 396 L164 464 Q164 472 174 472 L264 472 Q271 472 271 464 L271 396 L339 396 Q346 396 346 389 L346 301 Q346 294 339 294 L271 294 L271 225 Q271 216 264 216 L174 216 Q164 216 164 225 L164 294 Z " />
<glyph glyph-name="divide" unicode="&#xf7;" horiz-adv-x="395" d="M251 469 Q251 447 235.5 431 Q220 415 199 415 Q176 415 160.5 431 Q145 447 145 469 Q145 490 160.5 506 Q176 522 199 522 Q220 522 235.5 506 Q251 490 251 469 Z M251 219 Q251 197 235.5 181.5 Q220 166 199 166 Q176 166 160.5 181.5 Q145 197 145 219 Q145 242 160.5 257 Q176 272 199 272 Q220 272 235.5 257 Q251 242 251 219 Z M326 301 Q326 294 319 294 L79 294 Q69 294 69 301 L69 389 Q69 391 72 393.5 Q75 396 79 396 L319 396 Q321 396 323.5 393.5 Q326 391 326 389 L326 301 Z " />
<glyph glyph-name="equal" unicode="&#x3d;" horiz-adv-x="409" d="M339 454 Q346 454 346 442 L346 357 Q346 347 339 347 L99 347 Q89 347 89 357 L89 442 Q89 454 99 454 L339 454 Z M339 321 Q346 321 346 312 L346 226 Q346 217 339 217 L99 217 Q89 217 89 226 L89 312 Q89 321 99 321 L339 321 Z " />
<glyph glyph-name="hyphen" unicode="&#x2d;" horiz-adv-x="409" d="M339 396 Q341 396 343.5 393.5 Q346 391 346 389 L346 301 Q346 294 339 294 L99 294 Q89 294 89 301 L89 389 Q89 396 99 396 L339 396 Z " />
<glyph glyph-name="semicolon" unicode="&#x3b;" horiz-adv-x="304" d="M151 246 Q133 246 117.5 253 Q102 260 90 272 Q78 284 71 300.5 Q64 317 64 335 Q64 353 71 369 Q78 385 90 397 Q102 409 117.5 415.5 Q133 422 151 422 Q188 422 214.5 397 Q241 372 241 335 Q241 298 214.5 272 Q188 246 151 246 Z M152 167 Q170 167 186 160.5 Q202 154 214 143 Q226 132 233.5 116 Q241 100 241 82 Q241 76 239.5 69 Q238 62 236 57 L179 -91 Q177 -98 171 -98 L103 -98 Q96 -98 94 -94 Q92 -90 94 -85 L126 -5 Q100 3 81 26.5 Q62 50 62 80 Q62 117 88.5 142 Q115 167 152 167 Z " />
<glyph glyph-name="colon" unicode="&#x3a;" horiz-adv-x="302" d="M150 -9 Q132 -9 116.5 -2 Q101 5 89 17 Q77 29 70 45.5 Q63 62 63 80 Q63 98 70 114 Q77 130 89 142 Q101 154 116.5 160.5 Q132 167 150 167 Q187 167 213.5 142 Q240 117 240 80 Q240 43 213.5 17 Q187 -9 150 -9 Z M150 246 Q132 246 116.5 253 Q101 260 89 272 Q77 284 70 300.5 Q63 317 63 335 Q63 353 70 369 Q77 385 89 397 Q101 409 116.5 415.5 Q132 422 150 422 Q187 422 213.5 397 Q240 372 240 335 Q240 298 213.5 272 Q187 246 150 246 Z " />
<glyph glyph-name="comma" unicode="&#x2c;" horiz-adv-x="275" d="M140 167 Q158 167 174 160.5 Q190 154 202 143 Q214 132 221.5 116 Q229 100 229 82 Q229 76 227.5 69 Q226 62 224 57 L167 -91 Q165 -98 159 -98 L91 -98 Q84 -98 82 -94 Q80 -90 82 -85 L114 -5 Q88 3 69 26.5 Q50 50 50 80 Q50 117 76.5 142 Q103 167 140 167 Z " />
<glyph glyph-name="period" unicode="&#x2e;" horiz-adv-x="292" d="M146 -9 Q128 -9 112.5 -2 Q97 5 85 17 Q73 29 66 45.5 Q59 62 59 80 Q59 98 66 114 Q73 130 85 142 Q97 154 112.5 160.5 Q128 167 146 167 Q183 167 209.5 142 Q236 117 236 80 Q236 43 209.5 17 Q183 -9 146 -9 Z " />
<glyph glyph-name="ogonek" unicode="&#x2db;" horiz-adv-x="329" d="M195 -105 Q180 -105 180 -118 Q180 -129 195 -129 L227 -129 L239 -129 Q243 -129 246.5 -130 Q250 -131 250 -136 L250 -209 Q250 -219 241 -219 L189 -219 Q142 -219 115.5 -195.5 Q89 -172 89 -123 L89 -104 Q89 -85 92.5 -68.5 Q96 -52 104.5 -40 Q113 -28 128 -21.5 Q143 -15 166 -15 L176 -15 L176 21 Q176 30 184 30 L257 30 Q260 30 263 27.5 Q266 25 266 21 L266 -25 Q266 -43 264 -58 Q262 -73 255.5 -83.5 Q249 -94 235.5 -99.5 Q222 -105 200 -105 L195 -105 L195 -105 Z " />
<glyph glyph-name="cedilla" unicode="&#xb8;" horiz-adv-x="330" d="M189 -15 Q206 -15 224.5 -18 Q243 -21 254 -38 Q262 -49 264.5 -65.5 Q267 -82 267 -104 L267 -123 Q267 -170 242.5 -194.5 Q218 -219 169 -219 L119 -219 Q109 -219 109 -209 L109 -136 Q109 -130 116.5 -129.5 Q124 -129 130 -129 Q152 -129 164 -127.5 Q176 -126 176 -115 Q176 -105 161 -105 L156 -105 Q136 -105 122.5 -102.5 Q109 -100 102 -91 Q94 -82 91.5 -66.5 Q89 -51 89 -25 L89 21 Q89 30 99 30 L171 30 Q180 30 180 21 L180 -15 L189 -15 L189 -15 Z " />
<glyph glyph-name="uni02C9" unicode="&#x2c9;" horiz-adv-x="409" d="M338 690 Q340 690 342.5 687.5 Q345 685 345 683 L345 595 Q345 588 338 588 L98 588 Q88 588 88 595 L88 683 Q88 690 98 690 L338 690 Z " />
<glyph glyph-name="tilde" unicode="&#x2dc;" horiz-adv-x="430" d="M275 699 Q294 699 310.5 689.5 Q327 680 339 665 Q351 650 358 630.5 Q365 611 365 592 Q365 582 356 582 L290 582 Q281 582 281 590 Q281 598 274.5 604.5 Q268 611 259 611 Q251 611 243 605 Q235 599 226 591.5 Q217 584 205.5 578 Q194 572 179 572 Q156 572 139.5 581.5 Q123 591 111.5 606 Q100 621 94.5 640 Q89 659 89 679 Q89 689 99 689 L164 689 Q172 689 172 681 Q172 677 176.5 667 Q181 657 195 657 Q201 657 208.5 663 Q216 669 226 676.5 Q236 684 248 691 Q260 698 275 699 Z " />
<glyph glyph-name="circumflex" unicode="&#x2c6;" horiz-adv-x="430" d="M99 574 Q93 574 90 579 Q87 584 92 589 L180 685 Q184 689 186 689 L292 689 Q295 689 300 684 L366 587 Q368 585 366.5 579.5 Q365 574 359 574 L279 574 Q273 574 271 579 L235 639 L182 577 Q180 574 176 574 L99 574 L99 574 Z " />
<glyph glyph-name="breve" unicode="&#x2d8;" horiz-adv-x="391" d="M320 692 Q329 692 329 682 Q329 657 320 635.5 Q311 614 295 598.5 Q279 583 257 574 Q235 565 210 565 Q186 565 164.5 573.5 Q143 582 126.5 598 Q110 614 100 635 Q90 656 90 682 Q90 692 99 692 L179 692 Q187 692 187 684 Q187 675 192.5 668 Q198 661 210 661 Q218 661 224.5 667 Q231 673 231 684 Q231 692 240 692 L320 692 Z " />
<glyph glyph-name="caron" unicode="&#x2c7;" horiz-adv-x="430" d="M359 689 Q364 689 366.5 684 Q369 679 365 674 L289 577 Q287 575 285.5 574.5 Q284 574 281 574 L175 574 Q172 574 169 577 L91 674 Q88 678 90 683.5 Q92 689 97 689 L175 689 Q179 689 184 684 L227 624 L271 684 Q276 689 279 689 L359 689 L359 689 Z " />
<glyph glyph-name="asterisk" unicode="&#x2a;" horiz-adv-x="329" d="M149 700 Q149 710 157 710 L196 710 Q204 710 204 700 L204 672 L227 689 Q230 691 234.5 690 Q239 689 241 686 L262 654 Q267 646 260 641 L225 619 L260 595 Q268 589 262 581 L240 550 Q235 543 227 549 L204 564 L204 536 Q204 529 196 529 L157 529 Q149 529 149 536 L149 565 L125 550 Q117 545 112 551 L90 582 Q85 588 94 595 L127 619 L94 642 Q88 647 91 654 L112 686 Q117 694 126 689 L149 672 L149 700 L149 700 Z " />
<glyph glyph-name="hungarumlaut" unicode="&#x2dd;" horiz-adv-x="322" d="M99 581 Q95 581 91 582.5 Q87 584 89 590 L101 677 Q102 686 110 686 L169 686 Q181 686 176 674 L141 585 Q140 581 132 581 L99 581 Z M251 686 Q257 686 259 682.5 Q261 679 259 674 L225 585 Q224 581 216 581 L181 581 Q177 581 174 583 Q171 585 172 590 L184 677 Q185 686 194 686 L251 686 Z " />
<glyph glyph-name="quotedbl" unicode="&#x22;" horiz-adv-x="311" d="M157 686 Q168 686 166 676 L154 587 Q154 585 152 583 Q150 581 146 581 L110 581 Q102 581 101 587 L89 676 Q86 686 99 686 L157 686 Z M237 587 Q236 581 227 581 L194 581 Q185 581 184 587 L172 676 Q171 681 174 683.5 Q177 686 181 686 L240 686 Q251 686 249 676 L237 587 Z " />
<glyph glyph-name="quotesingle" unicode="&#x27;" horiz-adv-x="227" d="M157 696 Q167 696 166 684 L154 599 Q151 590 146 590 L110 590 Q102 590 101 599 L89 685 Q87 690 90.5 693 Q94 696 99 696 L157 696 Z " />
<glyph glyph-name="quoteleft" unicode="&#x2018;" horiz-adv-x="227" d="M157 696 Q167 696 166 684 L154 599 Q151 590 146 590 L110 590 Q102 590 101 599 L89 685 Q87 690 90.5 693 Q94 696 99 696 L157 696 Z " />
<glyph glyph-name="quoteright" unicode="&#x2019;" horiz-adv-x="227" d="M157 696 Q167 696 166 684 L154 599 Q151 590 146 590 L110 590 Q102 590 101 599 L89 685 Q87 690 90.5 693 Q94 696 99 696 L157 696 Z " />
<glyph glyph-name="quotesinglbase" unicode="&#x201a;" horiz-adv-x="329" d="M140 167 Q158 167 174 160.5 Q190 154 202 143 Q214 132 221.5 116 Q229 100 229 82 Q229 76 227.5 69 Q226 62 224 57 L167 -91 Q165 -98 159 -98 L91 -98 Q84 -98 82 -94 Q80 -90 82 -85 L114 -5 Q88 3 69 26.5 Q50 50 50 80 Q50 117 76.5 142 Q103 167 140 167 Z " />
<glyph glyph-name="quotedblleft" unicode="&#x201c;" horiz-adv-x="311" d="M157 686 Q168 686 166 676 L154 587 Q154 585 152 583 Q150 581 146 581 L110 581 Q102 581 101 587 L89 676 Q86 686 99 686 L157 686 Z M237 587 Q236 581 227 581 L194 581 Q185 581 184 587 L172 676 Q171 681 174 683.5 Q177 686 181 686 L240 686 Q251 686 249 676 L237 587 Z " />
<glyph glyph-name="quotedblright" unicode="&#x201d;" horiz-adv-x="311" d="M157 686 Q168 686 166 676 L154 587 Q154 585 152 583 Q150 581 146 581 L110 581 Q102 581 101 587 L89 676 Q86 686 99 686 L157 686 Z M237 587 Q236 581 227 581 L194 581 Q185 581 184 587 L172 676 Q171 681 174 683.5 Q177 686 181 686 L240 686 Q251 686 249 676 L237 587 Z " />
<glyph glyph-name="quotedblbase" unicode="&#x201e;" horiz-adv-x="311" d="M157 133 Q168 133 166 123 L154 34 Q154 32 152 30 Q150 28 146 28 L110 28 Q102 28 101 34 L89 123 Q86 133 99 133 L157 133 Z M237 34 Q236 28 227 28 L194 28 Q185 28 184 34 L172 123 Q171 128 174 130.5 Q177 133 181 133 L240 133 Q251 133 249 123 L237 34 Z " />
<glyph glyph-name="grave" unicode="&#x60;" horiz-adv-x="247" d="M91 674 Q89 678 91.5 682 Q94 686 99 686 L164 686 Q170 686 172 677 L185 594 Q186 584 176 584 L145 584 Q140 584 137 589 L91 674 Z " />
<glyph glyph-name="acute" unicode="&#xb4;" horiz-adv-x="264" d="M106 675 Q107 681 115 681 L192 681 Q199 681 202 677.5 Q205 674 200 667 L147 591 Q143 584 137 584 L99 584 Q96 584 92.5 586.5 Q89 589 90 594 L106 675 Z " />
<glyph glyph-name="dotaccent" unicode="&#x2d9;" horiz-adv-x="329" d="M167 729 Q187 729 201 715 Q215 701 215 681 Q215 661 201 646 Q187 631 167 631 Q147 631 132 646 Q117 661 117 681 Q117 701 132 715 Q147 729 167 729 Z " />
<glyph glyph-name="periodcentered" unicode="&#xb7;" horiz-adv-x="329" d="M146 257 Q128 257 112.5 264 Q97 271 85 283 Q73 295 66 311.5 Q59 328 59 346 Q59 364 66 380 Q73 396 85 408 Q97 420 112.5 426.5 Q128 433 146 433 Q183 433 209.5 408 Q236 383 236 346 Q236 309 209.5 283 Q183 257 146 257 Z " />
<glyph glyph-name="ordmasculine" unicode="&#xba;" horiz-adv-x="352" d="M291 605 Q291 559 265 535.5 Q239 512 191 512 Q146 512 118.5 533.5 Q91 555 89 605 L89 631 Q89 679 116 701.5 Q143 724 191 724 Q236 724 262 702 Q288 680 291 631 L291 605 Z M224 619 Q224 633 217.5 642.5 Q211 652 194 654 L187 654 Q167 654 162 642 Q157 630 157 619 Q157 605 164 594.5 Q171 584 187 582 L194 582 Q214 582 219 595 Q224 608 224 619 Z " />
<glyph glyph-name="uni00AD" unicode="&#xad;" horiz-adv-x="409" d="M339 396 Q341 396 343.5 393.5 Q346 391 346 389 L346 301 Q346 294 339 294 L99 294 Q89 294 89 301 L89 389 Q89 396 99 396 L339 396 Z " />
<glyph glyph-name="AE" unicode="&#xc6;" horiz-adv-x="866" d="M794 660 Q802 660 802 652 L802 544 Q802 535 794 535 L579 535 L579 399 L745 399 Q754 399 754 390 L754 281 Q754 272 745 272 L579 272 L579 125 L794 125 Q802 125 802 116 L802 9 Q802 6 800 3 Q798 0 794 0 L455 0 Q446 0 446 9 L446 146 L289 146 L230 5 Q228 0 222 0 L107 0 Q102 0 100 3.5 Q98 7 100 11 L367 655 Q369 657 370.5 658.5 Q372 660 375 660 L794 660 Z M446 526 L340 271 L446 271 L446 526 Z " />
<glyph glyph-name="OE" unicode="&#x152;" horiz-adv-x="834" d="M761 660 Q770 660 770 651 L770 544 Q770 535 761 535 L546 535 L546 399 L714 399 Q722 399 722 390 L722 281 Q722 272 714 272 L546 272 L546 125 L761 125 Q770 125 770 116 L770 9 Q770 0 761 0 L287 0 Q196 0 142.5 50.5 Q89 101 89 197 L89 462 Q89 555 140 607.5 Q191 660 287 660 L761 660 Z M414 535 L322 535 Q276 535 248.5 509.5 Q221 484 221 432 L221 227 Q221 182 248 153.5 Q275 125 322 125 L414 125 L414 535 Z " />
<glyph glyph-name="copyright" unicode="&#xa9;" horiz-adv-x="644" d="M341 581 Q383 581 422 564.5 Q461 548 491 519 Q521 490 538.5 451 Q556 412 556 367 L556 304 Q556 261 539.5 222 Q523 183 493.5 153 Q464 123 425 105 Q386 87 341 87 L304 87 Q261 87 222 104 Q183 121 153 150.5 Q123 180 105 219.5 Q87 259 87 304 L87 367 Q87 409 104 448 Q121 487 150.5 516.5 Q180 546 219.5 563.5 Q259 581 304 581 L341 581 Z M472 366 Q472 393 461.5 418 Q451 443 432 462 Q413 481 388 492.5 Q363 504 335 504 L310 504 Q283 504 258.5 493 Q234 482 214.5 463 Q195 444 183.5 419 Q172 394 172 366 L172 311 Q172 284 183 259 Q194 234 212.5 215.5 Q231 197 256 185.5 Q281 174 310 174 L335 174 Q363 174 387.5 184.5 Q412 195 431 213 Q450 231 461 256 Q472 281 472 311 L472 366 Z M319 405 Q295 405 283.5 389.5 Q272 374 272 349 L272 326 Q272 306 283 289 Q294 272 319 272 L326 272 Q352 272 363 282 Q374 292 374 317 L374 331 Q374 340 382 340 L437 340 Q440 340 443.5 337.5 Q447 335 447 331 L447 300 Q447 243 412.5 219.5 Q378 196 322 196 Q268 196 233.5 222.5 Q199 249 199 309 L199 367 Q199 423 232 451.5 Q265 480 322 480 Q384 480 415 457.5 Q446 435 447 369 Q447 366 444 363 Q441 360 437 360 L381 360 Q372 360 372 367 Q372 370 371.5 373 Q371 376 371 379 Q370 387 364 395 Q353 405 326 405 L319 405 Z " />
<glyph glyph-name="asciicircum" unicode="&#x5e;" horiz-adv-x="567" d="M379 660 Q385 660 386 656 L505 405 Q507 400 504.5 395.5 Q502 391 497 391 L382 391 Q376 391 374 399 L310 554 L221 397 Q219 395 217.5 393 Q216 391 214 391 L99 391 Q94 391 90.5 396 Q87 401 91 406 L247 656 Q249 659 251.5 659.5 Q254 660 256 660 L379 660 L379 660 Z " />
<glyph glyph-name="Eth" unicode="&#xd0;" horiz-adv-x="682" d="M402 660 Q494 660 547.5 610 Q601 560 601 462 L601 197 Q601 106 550 53 Q499 0 402 0 L152 0 Q144 0 144 9 L144 285 L102 285 Q100 285 97 287.5 Q94 290 94 294 L94 380 Q94 384 97 387 Q100 390 102 390 L144 390 L144 651 Q144 660 152 660 L402 660 Z M467 432 Q467 479 443 507 Q419 535 367 535 L276 535 L276 390 L387 390 Q395 390 395 380 L395 294 Q395 285 387 285 L276 285 L276 125 L367 125 Q412 125 439.5 152 Q467 179 467 227 L467 432 Z " />
<glyph glyph-name="section" unicode="&#xa7;" horiz-adv-x="652" d="M535 390 Q566 355 564 305 Q564 294 560.5 272.5 Q557 251 547 226 Q536 198 516 178 Q496 158 470 145 Q471 137 471 130 Q471 123 471 114 Q471 96 465 65 Q459 34 439 5 Q391 -63 286 -63 Q258 -63 234 -59.5 Q210 -56 190 -46 Q161 -33 134 -10 Q107 13 97 47 Q97 50 97 53.5 Q97 57 100 59 L184 122 Q188 125 192 123.5 Q196 122 197 117 Q199 113 199.5 109 Q200 105 202 100 Q206 89 215.5 78.5 Q225 68 236 61 Q247 54 259.5 50.5 Q272 47 282 47 Q305 47 322.5 58 Q340 69 344 96 Q346 116 331 131 Q315 145 295.5 155 Q276 165 247 176 Q215 190 189 204.5 Q163 219 144 235 L131 246 Q111 268 99 293 Q87 318 89 345 Q90 395 119 431 Q144 465 192 482 Q181 505 181 537 Q182 571 196 600 Q210 629 237 649 Q263 669 299 679 Q335 689 377 689 Q448 689 492 651 Q498 648 502 644 Q517 629 527 612 Q537 595 545 581 Q547 578 546 574.5 Q545 571 541 569 L462 516 Q454 510 450 520 Q446 528 442 536 Q438 544 430 552 Q418 563 401.5 572 Q385 581 365 581 Q345 581 325.5 571 Q306 561 304 547 Q302 539 305 533 Q308 527 319 517 Q329 509 351.5 499 Q374 489 412 472 Q485 440 524 402 L535 390 Z M437 289 Q440 307 422 322 Q409 335 391.5 347.5 Q374 360 354.5 369.5 Q335 379 314 384.5 Q293 390 272 390 Q253 390 233.5 380 Q214 370 212 356 Q210 335 227 321 Q231 317 253.5 305.5 Q276 294 303 281.5 Q330 269 355.5 259.5 Q381 250 390 250 Q410 250 422.5 262.5 Q435 275 437 289 Z " />
<glyph glyph-name="guillemotright" unicode="&#xbb;" horiz-adv-x="660" d="M357 295 Q357 290 354 287 L104 124 Q100 121 94.5 122.5 Q89 124 89 131 L89 246 Q89 250 95 252 L262 330 L95 407 Q89 411 89 415 L89 529 Q89 535 94 537.5 Q99 540 104 536 L354 372 Q355 371 356 370 Q357 369 357 366 L357 295 Z M504 330 L332 410 Q330 411 330 415 L330 529 Q330 533 334 536 Q338 539 342 536 L594 372 Q599 369 599 365 L599 295 Q599 292 594 287 L342 124 Q340 122 335 123 Q330 124 330 131 L330 246 Q330 250 335 252 L504 330 Z " />
<glyph glyph-name="currency" unicode="&#xa4;" horiz-adv-x="695" d="M470 107 Q420 89 347 89 Q311 89 279.5 93.5 Q248 98 224 107 L164 47 Q162 45 157.5 45 Q153 45 151 47 L91 107 Q83 115 91 121 L145 175 Q119 218 119 296 L119 359 Q119 436 145 481 L91 535 Q83 542 91 547 Q120 576 133.5 589.5 Q147 603 152 609 Q158 613 164 607 L224 549 Q273 566 347 566 Q419 566 470 549 L531 607 Q537 613 544 607 L604 547 Q609 542 604 535 L550 481 Q563 458 569.5 428 Q576 398 576 359 L576 296 Q576 258 569 228 Q562 198 550 175 L604 121 Q609 114 604 107 L544 47 Q537 42 531 47 L470 107 Z M444 330 Q443 351 437.5 369.5 Q432 388 421.5 402 Q411 416 394.5 424 Q378 432 354 432 L341 432 Q296 432 274 404 Q252 376 250 330 L250 325 Q250 305 255.5 286.5 Q261 268 272.5 254 Q284 240 301 232 Q318 224 341 224 L354 224 Q398 224 421 251.5 Q444 279 444 325 L444 330 Z " />
<glyph glyph-name="registered" unicode="&#xae;" horiz-adv-x="542" d="M89 467 Q89 506 103.5 543.5 Q118 581 144.5 610 Q171 639 207 657 Q243 675 285 675 Q326 675 362 658.5 Q398 642 424.5 613.5 Q451 585 466 547.5 Q481 510 481 467 Q481 428 466 391.5 Q451 355 425 326 Q399 297 363 279.5 Q327 262 285 262 Q244 262 208.5 278.5 Q173 295 146.5 323 Q120 351 104.5 388.5 Q89 426 89 467 Z M155 476 L155 465 Q155 414 194 367 Q217 348 238 337.5 Q259 327 285 327 Q312 327 336 339 Q360 351 380 371 Q397 391 406 415.5 Q415 440 415 465 L415 476 Q415 532 376 574 Q359 591 335.5 602.5 Q312 614 285 614 Q244 614 210 589 Q184 570 169.5 539.5 Q155 509 155 476 Z M336 429 Q360 445 360 485 L360 510 Q360 544 342 561 Q326 580 291 580 L224 580 Q216 580 216 571 L216 372 Q216 364 224 364 L260 364 Q269 364 269 372 L269 415 L286 415 L306 369 Q308 364 314 364 L354 364 Q359 364 361 367.5 Q363 371 361 376 L336 429 Z M307 499 Q307 482 299 476 Q291 470 274 470 L269 470 L269 532 L274 532 Q293 532 300 526 Q307 520 307 504 L307 499 Z " />
<glyph glyph-name="guillemotleft" unicode="&#xab;" horiz-adv-x="660" d="M94 287 Q89 291 89 295 L89 365 Q89 369 94 372 L342 536 Q347 538 352 536 Q357 534 357 529 L357 415 Q357 410 352 407 L184 330 L352 252 Q357 251 357 246 L357 131 Q357 126 352 123.5 Q347 121 342 124 L94 287 Z M335 287 Q330 291 330 295 L330 365 Q330 369 335 372 L584 536 Q589 538 594 536 Q599 534 599 529 L599 415 Q599 412 597.5 410.5 Q596 409 594 407 L425 330 L594 252 Q599 250 599 246 L599 131 Q599 126 594 123.5 Q589 121 584 124 L335 287 Z " />
<glyph glyph-name="yen" unicode="&#xa5;" horiz-adv-x="511" d="M341 655 Q345 660 349 660 L460 660 Q465 660 467.5 656.5 Q470 653 469 649 L350 371 L376 371 Q385 371 385 362 L385 277 Q385 269 376 269 L322 269 L322 240 L376 240 Q385 240 385 231 L385 145 Q385 136 376 136 L322 136 L322 9 Q322 0 314 0 L197 0 Q190 0 190 9 L190 136 L135 136 Q127 136 127 145 L127 231 Q127 240 135 240 L190 240 L190 269 L135 269 Q127 269 127 277 L127 362 Q127 371 135 371 L165 371 L41 647 Q37 660 49 660 L161 660 Q166 660 169 655 L256 487 L341 655 Z " />
<glyph glyph-name="paragraph" unicode="&#xb6;" horiz-adv-x="679" d="M125 604 Q145 629 177 644.5 Q209 660 252 660 L591 660 Q600 660 600 651 L600 9 Q600 0 591 0 L475 0 Q466 0 466 9 L466 535 L407 535 L407 9 Q407 0 399 0 L285 0 Q276 0 276 9 L276 175 L270 175 Q231 175 197.5 187 Q164 199 140 222.5 Q116 246 102.5 279 Q89 312 89 354 L89 480 Q89 559 125 604 Z " />
<glyph glyph-name="brokenbar" unicode="&#xa6;" horiz-adv-x="309" d="M96 357 Q87 357 87 366 L87 697 Q87 699 90 702 Q93 705 96 705 L211 705 Q221 705 221 695 L221 366 Q221 357 211 357 L96 357 Z M87 286 Q87 291 90 293 Q93 295 96 295 L211 295 Q221 295 221 286 L221 -45 Q221 -54 211 -54 L96 -54 Q92 -54 89.5 -51 Q87 -48 87 -45 L87 286 Z " />
<glyph glyph-name="dieresis" unicode="&#xa8;" horiz-adv-x="362" d="M89 631 Q89 651 103.5 665 Q118 679 139 679 Q159 679 172.5 665 Q186 651 186 631 Q186 611 172.5 596 Q159 581 139 581 Q118 581 103.5 596 Q89 611 89 631 Z M251 581 Q231 581 217.5 596 Q204 611 204 631 Q204 651 217.5 665 Q231 679 251 679 Q272 679 286 665 Q300 651 300 631 Q300 611 286 596 Q272 581 251 581 Z " />
<glyph glyph-name="minus" unicode="&#x2212;" horiz-adv-x="409" d="M339 396 Q341 396 343.5 393.5 Q346 391 346 389 L346 301 Q346 294 339 294 L99 294 Q89 294 89 301 L89 389 Q89 396 99 396 L339 396 Z " />
<glyph glyph-name="uni2215" unicode="&#x2215;" horiz-adv-x="529" d="M221 -9 Q220 -12 217 -13 Q214 -14 212 -14 L96 -14 Q92 -14 90 -11 Q88 -8 90 -3 L335 657 Q337 662 338.5 663 Q340 664 342 664 L457 664 Q462 664 464.5 660 Q467 656 465 651 L221 -9 Z " />
<glyph glyph-name="uni2219" unicode="&#x2219;" horiz-adv-x="329" d="M146 257 Q128 257 112.5 264 Q97 271 85 283 Q73 295 66 311.5 Q59 328 59 346 Q59 364 66 380 Q73 396 85 408 Q97 420 112.5 426.5 Q128 433 146 433 Q183 433 209.5 408 Q236 383 236 346 Q236 309 209.5 283 Q183 257 146 257 Z " />
<glyph glyph-name="bullet" unicode="&#x2022;" horiz-adv-x="329" d="M146 257 Q128 257 112.5 264 Q97 271 85 283 Q73 295 66 311.5 Q59 328 59 346 Q59 364 66 380 Q73 396 85 408 Q97 420 112.5 426.5 Q128 433 146 433 Q183 433 209.5 408 Q236 383 236 346 Q236 309 209.5 283 Q183 257 146 257 Z " />
<glyph glyph-name="oe" unicode="&#x153;" horiz-adv-x="834" d="M761 660 Q770 660 770 651 L770 544 Q770 535 761 535 L546 535 L546 399 L714 399 Q722 399 722 390 L722 281 Q722 272 714 272 L546 272 L546 125 L761 125 Q770 125 770 116 L770 9 Q770 0 761 0 L287 0 Q196 0 142.5 50.5 Q89 101 89 197 L89 462 Q89 555 140 607.5 Q191 660 287 660 L761 660 Z M414 535 L322 535 Q276 535 248.5 509.5 Q221 484 221 432 L221 227 Q221 182 248 153.5 Q275 125 322 125 L414 125 L414 535 Z " />
<glyph glyph-name="eth" unicode="&#xf0;" horiz-adv-x="682" d="M402 660 Q494 660 547.5 610 Q601 560 601 462 L601 197 Q601 106 550 53 Q499 0 402 0 L152 0 Q144 0 144 9 L144 285 L102 285 Q100 285 97 287.5 Q94 290 94 294 L94 380 Q94 384 97 387 Q100 390 102 390 L144 390 L144 651 Q144 660 152 660 L402 660 Z M467 432 Q467 479 443 507 Q419 535 367 535 L276 535 L276 390 L387 390 Q395 390 395 380 L395 294 Q395 285 387 285 L276 285 L276 125 L367 125 Q412 125 439.5 152 Q467 179 467 227 L467 432 Z " />
<glyph glyph-name="Dcroat" unicode="&#x110;" horiz-adv-x="682" d="M402 660 Q494 660 547.5 610 Q601 560 601 462 L601 197 Q601 106 550 53 Q499 0 402 0 L152 0 Q144 0 144 9 L144 285 L102 285 Q100 285 97 287.5 Q94 290 94 294 L94 380 Q94 384 97 387 Q100 390 102 390 L144 390 L144 651 Q144 660 152 660 L402 660 Z M467 432 Q467 479 443 507 Q419 535 367 535 L276 535 L276 390 L387 390 Q395 390 395 380 L395 294 Q395 285 387 285 L276 285 L276 125 L367 125 Q412 125 439.5 152 Q467 179 467 227 L467 432 Z " />
<glyph glyph-name="dcroat" unicode="&#x111;" horiz-adv-x="682" d="M402 660 Q494 660 547.5 610 Q601 560 601 462 L601 197 Q601 106 550 53 Q499 0 402 0 L152 0 Q144 0 144 9 L144 285 L102 285 Q100 285 97 287.5 Q94 290 94 294 L94 380 Q94 384 97 387 Q100 390 102 390 L144 390 L144 651 Q144 660 152 660 L402 660 Z M467 432 Q467 479 443 507 Q419 535 367 535 L276 535 L276 390 L387 390 Q395 390 395 380 L395 294 Q395 285 387 285 L276 285 L276 125 L367 125 Q412 125 439.5 152 Q467 179 467 227 L467 432 Z " />
<glyph glyph-name="ae" unicode="&#xe6;" horiz-adv-x="866" d="M794 660 Q802 660 802 652 L802 544 Q802 535 794 535 L579 535 L579 399 L745 399 Q754 399 754 390 L754 281 Q754 272 745 272 L579 272 L579 125 L794 125 Q802 125 802 116 L802 9 Q802 6 800 3 Q798 0 794 0 L455 0 Q446 0 446 9 L446 146 L289 146 L230 5 Q228 0 222 0 L107 0 Q102 0 100 3.5 Q98 7 100 11 L367 655 Q369 657 370.5 658.5 Q372 660 375 660 L794 660 Z M446 526 L340 271 L446 271 L446 526 Z " />
<glyph glyph-name="oslash" unicode="&#xf8;" horiz-adv-x="620" d="M252 -60 Q250 -66 244 -66 L131 -66 Q126 -66 123 -62.5 Q120 -59 121 -55 L150 30 Q112 57 96.5 103.5 Q81 150 81 199 L81 462 Q81 571 140.5 620.5 Q200 670 311 670 Q323 670 335.5 669.5 Q348 669 359 667 L367 691 Q371 699 377 699 L490 699 Q495 699 498 695 Q501 691 499 686 L477 625 Q509 600 524 560 Q539 520 539 462 L539 199 Q539 91 481 40.5 Q423 -10 311 -10 Q300 -10 289.5 -9.5 Q279 -9 270 -8 L252 -60 Z M314 126 Q362 126 384 154 Q406 182 406 231 L406 409 L314 126 Z M215 231 L215 225 L316 536 L304 536 Q257 536 234 507 Q223 493 219 473.5 Q215 454 215 430 L215 337 L215 231 Z " />
<glyph glyph-name="Lslash" unicode="&#x141;" horiz-adv-x="582" d="M527 126 Q536 126 536 117 L536 10 Q536 6 533 3 Q530 0 527 0 L185 0 Q177 0 177 9 L177 164 L167 147 Q163 141 157 141 L44 141 Q40 141 37.5 144.5 Q35 148 39 154 L177 361 L177 651 Q177 660 185 660 L302 660 Q311 660 311 651 L311 557 L317 569 Q321 575 327 575 L441 575 Q448 575 449.5 572 Q451 569 449 565 L311 360 L311 126 L527 126 Z " />
<glyph glyph-name="Ccedilla" unicode="&#xc7;" horiz-adv-x="614" d="M415 437 Q406 437 406 446 L406 462 Q406 504 379.5 522 Q353 540 316 540 L304 540 Q256 540 235.5 511 Q215 482 215 434 L215 236 Q215 203 223.5 182.5 Q232 162 244.5 150.5 Q257 139 273 134.5 Q289 130 304 130 L316 130 Q364 130 385.5 159 Q407 188 407 236 L407 267 Q407 276 416 276 L530 276 Q539 276 539 267 L539 204 Q539 103 491 53.5 Q443 4 349 -4 L349 -29 L357 -29 Q372 -29 390 -32 Q408 -35 422 -51 Q432 -62 433.5 -79 Q435 -96 435 -118 L435 -135 Q435 -187 408.5 -209 Q382 -231 336 -231 L287 -231 Q282 -231 279.5 -228.5 Q277 -226 277 -224 L277 -151 Q277 -143 287 -143 L299 -143 Q311 -143 328 -140.5 Q345 -138 345 -130 Q345 -119 325 -119 Q305 -119 291.5 -117 Q278 -115 270 -105 Q262 -97 259.5 -80 Q257 -63 257 -38 L257 -1 Q217 4 184.5 18 Q152 32 129 56.5 Q106 81 93.5 117.5 Q81 154 81 204 L81 467 Q81 578 140 626 Q199 674 311 674 Q364 674 406 663 Q448 652 477.5 627.5 Q507 603 523 563.5 Q539 524 539 467 L539 446 Q539 437 530 437 L415 437 L415 437 Z " />
<glyph glyph-name="emdash" unicode="&#x2014;" horiz-adv-x="649" d="M586 328 Q586 323 583 321 Q580 319 577 319 L99 319 Q89 319 89 328 L89 414 Q89 417 92 420 Q95 423 99 423 L577 423 Q586 423 586 414 L586 328 L586 328 Z " />
<glyph glyph-name="endash" unicode="&#x2013;" horiz-adv-x="497" d="M426 422 Q435 422 435 415 L435 327 Q435 325 432 322.5 Q429 320 426 320 L97 320 Q95 320 92 321.5 Q89 323 89 327 L89 415 Q89 419 92 420.5 Q95 422 97 422 L426 422 L426 422 Z " />
<glyph glyph-name="Tbar" unicode="&#x166;" horiz-adv-x="527" d="M46 651 Q46 660 55 660 L472 660 Q481 660 481 651 L481 544 Q481 535 472 535 L330 535 L330 410 L429 410 Q437 410 437 401 L437 312 Q437 304 429 304 L330 304 L330 9 Q330 0 321 0 L206 0 Q197 0 197 9 L197 304 L100 304 Q91 304 91 312 L91 401 Q91 410 100 410 L197 410 L197 535 L55 535 Q46 535 46 544 L46 651 L46 651 Z " />
<glyph glyph-name="tbar" unicode="&#x167;" horiz-adv-x="527" d="M46 651 Q46 660 55 660 L472 660 Q481 660 481 651 L481 544 Q481 535 472 535 L330 535 L330 410 L429 410 Q437 410 437 401 L437 312 Q437 304 429 304 L330 304 L330 9 Q330 0 321 0 L206 0 Q197 0 197 9 L197 304 L100 304 Q91 304 91 312 L91 401 Q91 410 100 410 L197 410 L197 535 L55 535 Q46 535 46 544 L46 651 L46 651 Z " />
<glyph glyph-name="ccedilla" unicode="&#xe7;" horiz-adv-x="614" d="M415 437 Q406 437 406 446 L406 462 Q406 504 379.5 522 Q353 540 316 540 L304 540 Q256 540 235.5 511 Q215 482 215 434 L215 236 Q215 203 223.5 182.5 Q232 162 244.5 150.5 Q257 139 273 134.5 Q289 130 304 130 L316 130 Q364 130 385.5 159 Q407 188 407 236 L407 267 Q407 276 416 276 L530 276 Q539 276 539 267 L539 204 Q539 103 491 53.5 Q443 4 349 -4 L349 -29 L357 -29 Q372 -29 390 -32 Q408 -35 422 -51 Q432 -62 433.5 -79 Q435 -96 435 -118 L435 -135 Q435 -187 408.5 -209 Q382 -231 336 -231 L287 -231 Q282 -231 279.5 -228.5 Q277 -226 277 -224 L277 -151 Q277 -143 287 -143 L299 -143 Q311 -143 328 -140.5 Q345 -138 345 -130 Q345 -119 325 -119 Q305 -119 291.5 -117 Q278 -115 270 -105 Q262 -97 259.5 -80 Q257 -63 257 -38 L257 -1 Q217 4 184.5 18 Q152 32 129 56.5 Q106 81 93.5 117.5 Q81 154 81 204 L81 467 Q81 578 140 626 Q199 674 311 674 Q364 674 406 663 Q448 652 477.5 627.5 Q507 603 523 563.5 Q539 524 539 467 L539 446 Q539 437 530 437 L415 437 L415 437 Z " />
<glyph glyph-name="lslash" unicode="&#x142;" horiz-adv-x="582" d="M527 126 Q536 126 536 117 L536 10 Q536 6 533 3 Q530 0 527 0 L185 0 Q177 0 177 9 L177 164 L167 147 Q163 141 157 141 L44 141 Q40 141 37.5 144.5 Q35 148 39 154 L177 361 L177 651 Q177 660 185 660 L302 660 Q311 660 311 651 L311 557 L317 569 Q321 575 327 575 L441 575 Q448 575 449.5 572 Q451 569 449 565 L311 360 L311 126 L527 126 Z " />
<glyph glyph-name="thorn" unicode="&#xfe;" horiz-adv-x="554" d="M309 602 Q394 602 440.5 555.5 Q487 509 487 421 L487 296 Q487 256 475 223 Q463 190 440 166 Q417 142 384 128.5 Q351 115 309 115 L239 115 L239 9 Q239 0 230 0 L115 0 Q106 0 106 9 L106 651 Q106 660 115 660 L230 660 Q239 660 239 651 L239 602 L309 602 Z M356 391 Q356 440 330.5 458 Q305 476 254 476 L239 476 L239 240 L254 240 Q275 240 293.5 243.5 Q312 247 326 257 Q340 267 348 283 Q356 299 356 325 L356 391 Z " />
<glyph glyph-name="greaterequal" unicode="&#x2265;" horiz-adv-x="497" d="M155 225 Q150 222 145.5 225 Q141 228 141 232 L141 347 Q141 349 143 352.5 Q145 356 147 356 L302 420 L146 510 Q141 510 141 517 L141 631 Q141 636 146 638.5 Q151 641 156 639 L406 481 Q408 480 409 478 Q410 476 410 474 L410 351 Q410 345 405 344 L155 225 Z M97 90 Q95 90 92 92.5 Q89 95 89 99 L89 185 Q89 189 92 191.5 Q95 194 97 194 L426 194 Q429 194 432 191.5 Q435 189 435 185 L435 99 Q435 95 432 92.5 Q429 90 426 90 L97 90 Z " />
<glyph glyph-name="lessequal" unicode="&#x2264;" horiz-adv-x="497" d="M121 344 Q116 345 116 351 L116 474 Q116 476 117 478 Q118 480 120 481 L370 639 Q375 641 380 638.5 Q385 636 385 631 L385 517 Q385 510 380 510 L224 420 L379 356 Q381 356 383 352.5 Q385 349 385 347 L385 232 Q385 228 380.5 225 Q376 222 371 225 L121 344 Z M97 90 Q95 90 92 92.5 Q89 95 89 99 L89 185 Q89 189 92 191.5 Q95 194 97 194 L426 194 Q429 194 432 191.5 Q435 189 435 185 L435 99 Q435 95 432 92.5 Q429 90 426 90 L97 90 Z " />
<glyph glyph-name="Aogonek" unicode="&#x104;" horiz-adv-x="576" d="M530 11 Q531 7 528.5 3.5 Q526 0 521 0 L507 0 L507 -38 Q507 -61 505.5 -78.5 Q504 -96 495 -105 Q488 -112 475 -116 Q462 -120 440 -119 Q420 -119 420 -130 Q420 -138 437 -140.5 Q454 -143 466 -143 L477 -143 Q487 -143 487 -151 L487 -224 Q487 -226 484.5 -228.5 Q482 -231 477 -231 L429 -231 Q382 -231 356 -209 Q330 -187 330 -135 L330 -118 Q330 -96 332 -79 Q334 -62 342 -51 L347 -46 Q358 -35 375 -32 Q392 -29 407 -29 L416 -29 L416 0 L407 0 Q401 0 400 6 L361 146 L215 146 L177 6 Q175 0 170 0 L55 0 Q50 0 47.5 3.5 Q45 7 46 11 L219 654 Q220 660 226 660 L350 660 Q356 660 357 654 L530 11 Z M330 270 L287 421 L247 270 L330 270 Z " />
<glyph glyph-name="Uogonek" unicode="&#x172;" horiz-adv-x="631" d="M414 651 Q414 660 421 660 L536 660 Q539 660 542 657.5 Q545 655 545 651 L545 197 Q545 102 499.5 50.5 Q454 -1 354 -9 L354 -45 Q354 -63 352 -78 Q350 -93 342.5 -103.5 Q335 -114 321.5 -119.5 Q308 -125 286 -125 Q277 -125 271.5 -126.5 Q266 -128 266 -135 Q266 -140 270.5 -143 Q275 -146 282 -147.5 Q289 -149 297 -149 Q305 -149 311 -149 L325 -149 Q332 -149 332 -156 L332 -230 Q332 -232 330.5 -235.5 Q329 -239 324 -239 L275 -239 Q230 -239 203 -216.5 Q176 -194 176 -143 L176 -124 Q176 -102 178.5 -86 Q181 -70 189 -59 Q204 -43 221.5 -39.5 Q239 -36 254 -36 L262 -36 L262 -8 Q87 13 87 197 L87 651 Q87 660 95 660 L211 660 Q214 660 217 657.5 Q220 655 220 651 L220 230 Q220 210 225 191 Q230 172 241.5 157 Q253 142 270 133 Q287 124 311 124 L322 124 Q367 124 390.5 153 Q414 182 414 230 L414 651 Z " />
<glyph glyph-name="Eogonek" unicode="&#x118;" horiz-adv-x="525" d="M94 651 Q94 660 102 660 L441 660 Q450 660 450 651 L450 544 Q450 535 441 535 L225 535 L225 399 L394 399 Q402 399 402 390 L402 281 Q402 272 394 272 L225 272 L225 125 L441 125 Q450 125 450 116 L450 9 Q450 0 441 0 L306 0 L306 -39 Q306 -65 304 -81.5 Q302 -98 294 -106 Q285 -115 271 -117.5 Q257 -120 234 -120 Q229 -120 224 -121.5 Q219 -123 219 -131 Q219 -140 236 -142 Q253 -144 265 -144 L277 -144 Q280 -144 283 -145.5 Q286 -147 286 -153 L286 -225 Q286 -233 277 -233 L229 -233 Q184 -233 156.5 -211 Q129 -189 129 -136 L129 -119 Q129 -99 132.5 -82.5 Q136 -66 145 -54.5 Q154 -43 169 -36.5 Q184 -30 207 -30 L215 -30 L215 0 L102 0 Q94 0 94 9 L94 651 L94 651 Z " />
<glyph glyph-name="Iogonek" unicode="&#x12e;" horiz-adv-x="316" d="M94 651 Q94 660 102 660 L217 660 Q226 660 226 651 L226 9 Q226 0 217 0 L209 0 L209 -39 Q209 -60 207 -75.5 Q205 -91 197.5 -100.5 Q190 -110 175.5 -115 Q161 -120 136 -120 Q131 -120 125.5 -121.5 Q120 -123 120 -131 Q120 -140 137 -142 Q154 -144 166 -144 L180 -144 Q183 -144 186 -146 Q189 -148 189 -153 L189 -225 Q189 -227 187 -230 Q185 -233 180 -233 L130 -233 Q84 -233 57 -210 Q30 -187 30 -136 L30 -119 Q30 -81 47 -55.5 Q64 -30 109 -30 L117 -30 L117 0 L102 0 Q94 0 94 9 L94 651 L94 651 Z " />
<glyph glyph-name="iogonek" unicode="&#x12f;" horiz-adv-x="316" d="M94 651 Q94 660 102 660 L217 660 Q226 660 226 651 L226 9 Q226 0 217 0 L209 0 L209 -39 Q209 -60 207 -75.5 Q205 -91 197.5 -100.5 Q190 -110 175.5 -115 Q161 -120 136 -120 Q131 -120 125.5 -121.5 Q120 -123 120 -131 Q120 -140 137 -142 Q154 -144 166 -144 L180 -144 Q183 -144 186 -146 Q189 -148 189 -153 L189 -225 Q189 -227 187 -230 Q185 -233 180 -233 L130 -233 Q84 -233 57 -210 Q30 -187 30 -136 L30 -119 Q30 -81 47 -55.5 Q64 -30 109 -30 L117 -30 L117 0 L102 0 Q94 0 94 9 L94 651 L94 651 Z " />
<glyph glyph-name="eogonek" unicode="&#x119;" horiz-adv-x="525" d="M94 651 Q94 660 102 660 L441 660 Q450 660 450 651 L450 544 Q450 535 441 535 L225 535 L225 399 L394 399 Q402 399 402 390 L402 281 Q402 272 394 272 L225 272 L225 125 L441 125 Q450 125 450 116 L450 9 Q450 0 441 0 L306 0 L306 -39 Q306 -65 304 -81.5 Q302 -98 294 -106 Q285 -115 271 -117.5 Q257 -120 234 -120 Q229 -120 224 -121.5 Q219 -123 219 -131 Q219 -140 236 -142 Q253 -144 265 -144 L277 -144 Q280 -144 283 -145.5 Q286 -147 286 -153 L286 -225 Q286 -233 277 -233 L229 -233 Q184 -233 156.5 -211 Q129 -189 129 -136 L129 -119 Q129 -99 132.5 -82.5 Q136 -66 145 -54.5 Q154 -43 169 -36.5 Q184 -30 207 -30 L215 -30 L215 0 L102 0 Q94 0 94 9 L94 651 L94 651 Z " />
<glyph glyph-name="uogonek" unicode="&#x173;" horiz-adv-x="631" d="M414 651 Q414 660 421 660 L536 660 Q539 660 542 657.5 Q545 655 545 651 L545 197 Q545 102 499.5 50.5 Q454 -1 354 -9 L354 -45 Q354 -63 352 -78 Q350 -93 342.5 -103.5 Q335 -114 321.5 -119.5 Q308 -125 286 -125 Q277 -125 271.5 -126.5 Q266 -128 266 -135 Q266 -140 270.5 -143 Q275 -146 282 -147.5 Q289 -149 297 -149 Q305 -149 311 -149 L325 -149 Q332 -149 332 -156 L332 -230 Q332 -232 330.5 -235.5 Q329 -239 324 -239 L275 -239 Q230 -239 203 -216.5 Q176 -194 176 -143 L176 -124 Q176 -102 178.5 -86 Q181 -70 189 -59 Q204 -43 221.5 -39.5 Q239 -36 254 -36 L262 -36 L262 -8 Q87 13 87 197 L87 651 Q87 660 95 660 L211 660 Q214 660 217 657.5 Q220 655 220 651 L220 230 Q220 210 225 191 Q230 172 241.5 157 Q253 142 270 133 Q287 124 311 124 L322 124 Q367 124 390.5 153 Q414 182 414 230 L414 651 Z " />
<glyph glyph-name="aogonek" unicode="&#x105;" horiz-adv-x="576" d="M530 11 Q531 7 528.5 3.5 Q526 0 521 0 L507 0 L507 -38 Q507 -61 505.5 -78.5 Q504 -96 495 -105 Q488 -112 475 -116 Q462 -120 440 -119 Q420 -119 420 -130 Q420 -138 437 -140.5 Q454 -143 466 -143 L477 -143 Q487 -143 487 -151 L487 -224 Q487 -226 484.5 -228.5 Q482 -231 477 -231 L429 -231 Q382 -231 356 -209 Q330 -187 330 -135 L330 -118 Q330 -96 332 -79 Q334 -62 342 -51 L347 -46 Q358 -35 375 -32 Q392 -29 407 -29 L416 -29 L416 0 L407 0 Q401 0 400 6 L361 146 L215 146 L177 6 Q175 0 170 0 L55 0 Q50 0 47.5 3.5 Q45 7 46 11 L219 654 Q220 660 226 660 L350 660 Q356 660 357 654 L530 11 Z M330 270 L287 421 L247 270 L330 270 Z " />
<glyph glyph-name="fraction" unicode="&#x2044;" horiz-adv-x="529" d="M186 171 Q185 168 182 167 Q179 166 177 166 L61 166 Q57 166 55 169 Q53 172 55 177 L300 837 Q302 842 303.5 843 Q305 844 307 844 L422 844 Q427 844 429.5 840 Q432 836 430 831 L186 171 Z " />
<glyph glyph-name="guilsinglleft" unicode="&#x2039;" horiz-adv-x="420" d="M95 240 Q89 241 89 249 L89 369 Q89 375 94 377 L344 535 Q348 538 352.5 536 Q357 534 357 529 L357 414 Q357 407 354 406 L197 316 L352 251 Q357 249 357 245 L357 130 Q357 124 353 121 Q349 118 344 121 L95 240 L95 240 Z " />
<glyph glyph-name="guilsinglright" unicode="&#x203a;" horiz-adv-x="420" d="M356 249 Q356 241 352 240 L101 121 Q97 119 93 121 Q89 123 89 130 L89 245 Q89 249 95 251 L249 316 L94 406 Q89 410 89 414 L89 529 Q89 531 93 534.5 Q97 538 102 535 L351 379 Q355 377 355.5 374 Q356 371 356 369 L356 249 L356 249 Z " />
<glyph glyph-name="macron" unicode="&#xaf;" horiz-adv-x="409" d="M338 690 Q340 690 342.5 687.5 Q345 685 345 683 L345 595 Q345 588 338 588 L98 588 Q88 588 88 595 L88 683 Q88 690 98 690 L338 690 Z " />
<glyph glyph-name="exclamdown" unicode="&#xa1;" horiz-adv-x="334" d="M197 306 Q206 306 206 297 L234 -149 Q234 -154 231 -156 Q228 -158 225 -158 L61 -158 Q56 -158 54 -155 Q52 -152 52 -149 L79 297 Q79 306 87 306 L197 306 Z M139 336 Q101 336 75.5 361.5 Q50 387 50 424 Q50 442 57 458 Q64 474 76 486 Q88 498 104 505 Q120 512 139 512 Q157 512 172.5 505 Q188 498 199.5 486 Q211 474 218 458 Q225 442 225 424 Q225 406 218 390 Q211 374 199.5 362 Q188 350 172.5 343 Q157 336 139 336 Z " />
<glyph glyph-name="questiondown" unicode="&#xbf;" horiz-adv-x="582" d="M313.015 303.01 Q275.017 303.01 250.019 328.009 Q225.02 353.007 225.02 390.005 Q225.02 427.003 250.019 453.001 Q275.017 478.999 313.015 478.999 Q349.013 478.999 374.511 453.001 Q400.01 427.003 400.01 390.005 Q400.01 353.007 374.511 328.009 Q349.013 303.01 313.015 303.01 Z M275.017 -198.959 Q238.019 -198.959 200.022 -187.96 Q162.024 -176.961 130.026 -154.962 Q98.028 -132.963 76.5293 -99.9652 Q55.0306 -66.9672 51.0309 -23.9698 Q48.0311 2.02856 54.0307 27.027 Q60.0303 52.0255 73.0295 75.0241 Q99.028 117.022 152.025 150.02 Q186.023 170.018 205.021 184.517 Q224.02 199.017 233.02 213.016 Q242.019 223.015 244.519 233.514 Q247.019 244.014 247.019 261.013 Q247.019 270.012 256.018 270.012 L378.011 270.012 Q386.01 270.012 386.01 259.013 Q386.01 243.014 386.01 230.015 Q386.01 217.015 381.011 199.017 Q374.011 174.018 361.012 154.019 Q348.013 134.021 325.014 119.021 Q312.015 109.022 295.016 98.0227 Q278.017 87.0234 260.518 74.5241 Q243.019 62.0249 229.02 48.0258 Q215.021 34.0266 208.021 19.0275 Q194.022 -15.9703 212.521 -40.4688 Q231.02 -64.9673 271.017 -64.9673 Q309.015 -64.9673 330.514 -36.4691 Q352.013 -7.97083 351.013 29.0269 L351.013 54.0254 Q351.013 59.0251 354.512 61.025 Q358.012 63.0248 363.012 61.025 L476.005 4.02844 Q481.005 3.0285 481.005 -4.97101 Q485.004 -44.9686 468.005 -80.4664 Q451.006 -115.964 421.008 -141.963 Q391.01 -167.961 352.512 -183.46 Q314.015 -198.959 275.017 -198.959 Z " />
<glyph glyph-name="twosuperior" unicode="&#xb2;" horiz-adv-x="394" d="M234 545 Q227 540 214.75 533.5 Q202.5 527 190.5 519.5 Q178.5 512 169.5 503.5 Q160.5 495 159.5 486 L281.5 486 Q286 486 286 482 L286 424.5 Q286 420 281.5 420 L87 420 Q85 420 84 421.5 Q83 423 83 424.5 L83 481 Q83 504 91.5 522 Q100 540 113.75 554.75 Q127.5 569.5 145 581.25 Q162.5 593 181 603.5 Q188.5 608 198.75 614.25 Q209 620.5 216.75 628.75 Q224.5 637 227 647 Q229.5 657 221.5 668.5 Q216 677 207 682.25 Q198 687.5 186.5 687.5 Q177.5 687.5 170.25 683.75 Q163 680 157.75 673.5 Q152.5 667 149.75 658.25 Q147 649.5 147 640 L147 631 Q147 628.5 145 627.25 Q143 626 141 627.5 L83 662 Q82 662.5 81.5 663.25 Q81 664 81 667 Q81 687.5 90.25 703.75 Q99.5 720 114.25 731.25 Q129 742.5 147.75 748.5 Q166.5 754.5 186 754.5 Q232.5 754.5 264 727 Q294.5 698.5 298.5 652 Q302 591 234 545 Z " />
<glyph glyph-name="threesuperior" unicode="&#xb3;" horiz-adv-x="381" d="M181.5 754.5 Q204 754.5 223.25 746.75 Q242.5 739 256.75 724.75 Q271 710.5 279 690.75 Q287 671 287 647.5 Q287 614 263 585.5 Q275 574 281 557.25 Q287 540.5 287 523 Q287 500 279.5 480.25 Q272 460.5 258.25 446 Q244.5 431.5 225 423.25 Q205.5 415 181.5 415 Q150 415 124.25 431.5 Q98.5 448 82 478.5 Q80 481.5 83 484.5 L125 516 Q128.5 519.5 131.5 515.5 Q139.5 504.5 146.25 497.75 Q153 491 159 487.5 Q165 484 171 483 Q177 482 183 482 Q188 482 194 484.5 Q200 487 205 491.5 Q210 496 213.5 502.75 Q217 509.5 217 518.5 Q217 525.5 214.5 533.25 Q212 541 207 547.25 Q202 553.5 194.5 557.75 Q187 562 176.5 562 L167.5 562 Q162.5 562 162.5 567 L162.5 613 Q162.5 617 167 617 L174.5 617 Q182.5 617 190.25 619.75 Q198 622.5 204 627 Q210 631.5 213.5 637.75 Q217 644 217 651 Q217 667.5 205.25 677.75 Q193.5 688 176.5 688 Q161.5 688 150 677.75 Q138.5 667.5 133 654.5 Q131 649.5 127 653 L83 686 Q81.5 687.5 82 691 Q85.5 706.5 95.75 718.5 Q106 730.5 119.75 738.5 Q133.5 746.5 149.5 750.5 Q165.5 754.5 181.5 754.5 Z " />
<glyph glyph-name="onequarter" unicode="&#xbc;" horiz-adv-x="1045" d="M432 -9 Q431 -12 428 -13 Q425 -14 423 -14 L307 -14 Q303 -14 301 -11 Q299 -8 301 -3 L546 657 Q548 662 549.5 663 Q551 664 553 664 L668 664 Q673 664 675.5 660 Q678 656 676 651 L432 -9 Z M121.5 656.5 Q123.75 659.5 125.625 659.875 Q127.5 660.25 129 660.25 L216.75 660.25 Q222.75 660.25 222.75 653.5 L222.75 172.75 Q222.75 166 216.75 166 L131.25 166 Q124.5 166 124.5 172.75 L124.5 537.25 L78 487.75 Q75 484.75 70.875 486.25 Q66.75 487.75 66.75 492.25 L66.75 576.25 Q66.75 577.75 67.125 578.5 Q67.5 579.25 67.5 580 L121.5 656.5 L121.5 656.5 Z M934 495 Q940.75 495 940.75 488.25 L940.75 226.5 L993.25 226.5 Q999.25 226.5 999.25 220.5 L999.25 139.5 Q999.25 132.75 993.25 132.75 L940.75 132.75 L940.75 6.75 Q940.75 0 934 0 L848.5 0 Q841.75 0 841.75 6.75 L841.75 132.75 L661.75 132.75 Q655.75 132.75 655.75 139.5 L655.75 221.25 Q655.75 224.25 656.125 225.375 Q656.5 226.5 658 228.75 L840.25 492 Q841 495 844.75 495 L934 495 Z M841.75 340.5 L768.25 226.5 L841.75 226.5 L841.75 340.5 Z " />
<glyph glyph-name="onesuperior" unicode="&#xb9;" horiz-adv-x="186" d="M81 747 Q82.5 749 83.75 749.25 Q85 749.5 86 749.5 L144.5 749.5 Q148.5 749.5 148.5 745 L148.5 424.5 Q148.5 420 144.5 420 L87.5 420 Q83 420 83 424.5 L83 667.5 L52 634.5 Q50 632.5 47.25 633.5 Q44.5 634.5 44.5 637.5 L44.5 693.5 Q44.5 694.5 44.75 695 Q45 695.5 45 696 L81 747 L81 747 Z " />
<glyph glyph-name="onehalf" unicode="&#xbd;" horiz-adv-x="1085" d="M432 -9 Q431 -12 428 -13 Q425 -14 423 -14 L307 -14 Q303 -14 301 -11 Q299 -8 301 -3 L546 657 Q548 662 549.5 663 Q551 664 553 664 L668 664 Q673 664 675.5 660 Q678 656 676 651 L432 -9 Z M121.5 656.5 Q123.75 659.5 125.625 659.875 Q127.5 660.25 129 660.25 L216.75 660.25 Q222.75 660.25 222.75 653.5 L222.75 172.75 Q222.75 166 216.75 166 L131.25 166 Q124.5 166 124.5 172.75 L124.5 537.25 L78 487.75 Q75 484.75 70.875 486.25 Q66.75 487.75 66.75 492.25 L66.75 576.25 Q66.75 577.75 67.125 578.5 Q67.5 579.25 67.5 580 L121.5 656.5 L121.5 656.5 Z M943 187.5 Q932.5 180 914.125 170.25 Q895.75 160.5 877.75 149.25 Q859.75 138 846.25 125.25 Q832.75 112.5 831.25 99 L1014.25 99 Q1021 99 1021 93 L1021 6.75 Q1021 0 1014.25 0 L722.5 0 Q719.5 0 718 2.25 Q716.5 4.5 716.5 6.75 L716.5 91.5 Q716.5 126 729.25 153 Q742 180 762.625 202.125 Q783.25 224.25 809.5 241.875 Q835.75 259.5 863.5 275.25 Q874.75 282 890.125 291.375 Q905.5 300.75 917.125 313.125 Q928.75 325.5 932.5 340.5 Q936.25 355.5 924.25 372.75 Q916 385.5 902.5 393.375 Q889 401.25 871.75 401.25 Q858.25 401.25 847.375 395.625 Q836.5 390 828.625 380.25 Q820.75 370.5 816.625 357.375 Q812.5 344.25 812.5 330 L812.5 316.5 Q812.5 312.75 809.5 310.875 Q806.5 309 803.5 311.25 L716.5 363 Q715 363.75 714.25 364.875 Q713.5 366 713.5 370.5 Q713.5 401.25 727.375 425.625 Q741.25 450 763.375 466.875 Q785.5 483.75 813.625 492.75 Q841.75 501.75 871 501.75 Q940.75 501.75 988 460.5 Q1033.75 417.75 1039.75 348 Q1045 256.5 943 187.5 Z " />
<glyph glyph-name="threequarters" unicode="&#xbe;" horiz-adv-x="1134" d="M525 -9 Q524 -12 521 -13 Q518 -14 516 -14 L400 -14 Q396 -14 394 -11 Q392 -8 394 -3 L639 657 Q641 662 642.5 663 Q644 664 646 664 L761 664 Q766 664 768.5 660 Q771 656 769 651 L525 -9 Z M216.75 667.75 Q250.5 667.75 279.375 656.125 Q308.25 644.5 329.625 623.125 Q351 601.75 363 572.125 Q375 542.5 375 507.25 Q375 457 339 414.25 Q357 397 366 371.875 Q375 346.75 375 320.5 Q375 286 363.75 256.375 Q352.5 226.75 331.875 205 Q311.25 183.25 282 170.875 Q252.75 158.5 216.75 158.5 Q169.5 158.5 130.875 183.25 Q92.25 208 67.5 253.75 Q64.5 258.25 69 262.75 L132 310 Q137.25 315.25 141.75 309.25 Q153.75 292.75 163.875 282.625 Q174 272.5 183 267.25 Q192 262 201 260.5 Q210 259 219 259 Q226.5 259 235.5 262.75 Q244.5 266.5 252 273.25 Q259.5 280 264.75 290.125 Q270 300.25 270 313.75 Q270 324.25 266.25 335.875 Q262.5 347.5 255 356.875 Q247.5 366.25 236.25 372.625 Q225 379 209.25 379 L195.75 379 Q188.25 379 188.25 386.5 L188.25 455.5 Q188.25 461.5 195 461.5 L206.25 461.5 Q218.25 461.5 229.875 465.625 Q241.5 469.75 250.5 476.5 Q259.5 483.25 264.75 492.625 Q270 502 270 512.5 Q270 537.25 252.375 552.625 Q234.75 568 209.25 568 Q186.75 568 169.5 552.625 Q152.25 537.25 144 517.75 Q141 510.25 135 515.5 L69 565 Q66.75 567.25 67.5 572.5 Q72.75 595.75 88.125 613.75 Q103.5 631.75 124.125 643.75 Q144.75 655.75 168.75 661.75 Q192.75 667.75 216.75 667.75 Z M1022 495 Q1028.75 495 1028.75 488.25 L1028.75 226.5 L1081.25 226.5 Q1087.25 226.5 1087.25 220.5 L1087.25 139.5 Q1087.25 132.75 1081.25 132.75 L1028.75 132.75 L1028.75 6.75 Q1028.75 0 1022 0 L936.5 0 Q929.75 0 929.75 6.75 L929.75 132.75 L749.75 132.75 Q743.75 132.75 743.75 139.5 L743.75 221.25 Q743.75 224.25 744.125 225.375 Q744.5 226.5 746 228.75 L928.25 492 Q929 495 932.75 495 L1022 495 Z M929.75 340.5 L856.25 226.5 L929.75 226.5 L929.75 340.5 Z " />
<glyph glyph-name="Agrave" unicode="&#xc0;" horiz-adv-x="576" d="M219 654 Q221 660 226 660 L350 660 Q355 660 357 654 L530 11 Q532 0 521 0 L407 0 Q401 0 400 6 L361 146 L215 146 L177 6 Q175 0 170 0 L55 0 Q44 0 46 11 L219 654 Z M330 270 L287 421 L247 270 L330 270 Z M243 854 Q241 858 243.5 862 Q246 866 251 866 L316 866 Q322 866 324 857 L337 774 Q338 764 328 764 L297 764 Q292 764 289 769 L243 854 Z " />
<glyph glyph-name="Aacute" unicode="&#xc1;" horiz-adv-x="576" d="M219 654 Q221 660 226 660 L350 660 Q355 660 357 654 L530 11 Q532 0 521 0 L407 0 Q401 0 400 6 L361 146 L215 146 L177 6 Q175 0 170 0 L55 0 Q44 0 46 11 L219 654 Z M330 270 L287 421 L247 270 L330 270 Z M271 855 Q272 861 280 861 L357 861 Q364 861 367 857.5 Q370 854 365 847 L312 771 Q308 764 302 764 L264 764 Q261 764 257.5 766.5 Q254 769 255 774 L271 855 Z " />
<glyph glyph-name="Acircumflex" unicode="&#xc2;" horiz-adv-x="576" d="M219 654 Q221 660 226 660 L350 660 Q355 660 357 654 L530 11 Q532 0 521 0 L407 0 Q401 0 400 6 L361 146 L215 146 L177 6 Q175 0 170 0 L55 0 Q44 0 46 11 L219 654 Z M330 270 L287 421 L247 270 L330 270 Z M151 750 Q145 750 142 755 Q139 760 144 765 L232 861 Q236 865 238 865 L344 865 Q347 865 352 860 L418 763 Q420 761 418.5 755.5 Q417 750 411 750 L331 750 Q325 750 323 755 L287 815 L234 753 Q232 750 228 750 L151 750 L151 750 Z " />
<glyph glyph-name="Atilde" unicode="&#xc3;" horiz-adv-x="576" d="M219 654 Q221 660 226 660 L350 660 Q355 660 357 654 L530 11 Q532 0 521 0 L407 0 Q401 0 400 6 L361 146 L215 146 L177 6 Q175 0 170 0 L55 0 Q44 0 46 11 L219 654 Z M330 270 L287 421 L247 270 L330 270 Z M336 879 Q355 879 371.5 869.5 Q388 860 400 845 Q412 830 419 810.5 Q426 791 426 772 Q426 762 417 762 L351 762 Q342 762 342 770 Q342 778 335.5 784.5 Q329 791 320 791 Q312 791 304 785 Q296 779 287 771.5 Q278 764 266.5 758 Q255 752 240 752 Q217 752 200.5 761.5 Q184 771 172.5 786 Q161 801 155.5 820 Q150 839 150 859 Q150 869 160 869 L225 869 Q233 869 233 861 Q233 857 237.5 847 Q242 837 256 837 Q262 837 269.5 843 Q277 849 287 856.5 Q297 864 309 871 Q321 878 336 879 Z " />
<glyph glyph-name="Adieresis" unicode="&#xc4;" horiz-adv-x="576" d="M219 654 Q221 660 226 660 L350 660 Q355 660 357 654 L530 11 Q532 0 521 0 L407 0 Q401 0 400 6 L361 146 L215 146 L177 6 Q175 0 170 0 L55 0 Q44 0 46 11 L219 654 Z M330 270 L287 421 L247 270 L330 270 Z M184 811 Q184 831 198.5 845 Q213 859 234 859 Q254 859 267.5 845 Q281 831 281 811 Q281 791 267.5 776 Q254 761 234 761 Q213 761 198.5 776 Q184 791 184 811 Z M346 761 Q326 761 312.5 776 Q299 791 299 811 Q299 831 312.5 845 Q326 859 346 859 Q367 859 381 845 Q395 831 395 811 Q395 791 381 776 Q367 761 346 761 Z " />
<glyph glyph-name="Egrave" unicode="&#xc8;" horiz-adv-x="526" d="M102 0 Q94 0 94 9 L94 651 Q94 660 102 660 L442 660 Q451 660 451 651 L451 544 Q451 535 442 535 L226 535 L226 399 L394 399 Q402 399 402 390 L402 281 Q402 272 394 272 L226 272 L226 125 L442 125 Q451 125 451 116 L451 9 Q451 0 442 0 L102 0 L102 0 Z M216 854 Q214 858 216.5 862 Q219 866 224 866 L289 866 Q295 866 297 857 L310 774 Q311 764 301 764 L270 764 Q265 764 262 769 L216 854 Z " />
<glyph glyph-name="Eacute" unicode="&#xc9;" horiz-adv-x="526" d="M102 0 Q94 0 94 9 L94 651 Q94 660 102 660 L442 660 Q451 660 451 651 L451 544 Q451 535 442 535 L226 535 L226 399 L394 399 Q402 399 402 390 L402 281 Q402 272 394 272 L226 272 L226 125 L442 125 Q451 125 451 116 L451 9 Q451 0 442 0 L102 0 L102 0 Z M266 855 Q267 861 275 861 L352 861 Q359 861 362 857.5 Q365 854 360 847 L307 771 Q303 764 297 764 L259 764 Q256 764 252.5 766.5 Q249 769 250 774 L266 855 Z " />
<glyph glyph-name="Ecircumflex" unicode="&#xca;" horiz-adv-x="526" d="M102 0 Q94 0 94 9 L94 651 Q94 660 102 660 L442 660 Q451 660 451 651 L451 544 Q451 535 442 535 L226 535 L226 399 L394 399 Q402 399 402 390 L402 281 Q402 272 394 272 L226 272 L226 125 L442 125 Q451 125 451 116 L451 9 Q451 0 442 0 L102 0 L102 0 Z M133 750 Q127 750 124 755 Q121 760 126 765 L214 861 Q218 865 220 865 L326 865 Q329 865 334 860 L400 763 Q402 761 400.5 755.5 Q399 750 393 750 L313 750 Q307 750 305 755 L269 815 L216 753 Q214 750 210 750 L133 750 L133 750 Z " />
<glyph glyph-name="Edieresis" unicode="&#xcb;" horiz-adv-x="526" d="M102 0 Q94 0 94 9 L94 651 Q94 660 102 660 L442 660 Q451 660 451 651 L451 544 Q451 535 442 535 L226 535 L226 399 L394 399 Q402 399 402 390 L402 281 Q402 272 394 272 L226 272 L226 125 L442 125 Q451 125 451 116 L451 9 Q451 0 442 0 L102 0 L102 0 Z M178 811 Q178 831 192.5 845 Q207 859 228 859 Q248 859 261.5 845 Q275 831 275 811 Q275 791 261.5 776 Q248 761 228 761 Q207 761 192.5 776 Q178 791 178 811 Z M340 761 Q320 761 306.5 776 Q293 791 293 811 Q293 831 306.5 845 Q320 859 340 859 Q361 859 375 845 Q389 831 389 811 Q389 791 375 776 Q361 761 340 761 Z " />
<glyph glyph-name="Igrave" unicode="&#xcc;" horiz-adv-x="315" d="M102 0 Q94 0 94 9 L94 651 Q94 660 102 660 L216 660 Q225 660 225 651 L225 9 Q225 0 216 0 L102 0 L102 0 Z M100 854 Q98 858 100.5 862 Q103 866 108 866 L173 866 Q179 866 181 857 L194 774 Q195 764 185 764 L154 764 Q149 764 146 769 L100 854 Z " />
<glyph glyph-name="Iacute" unicode="&#xcd;" horiz-adv-x="315" d="M102 0 Q94 0 94 9 L94 651 Q94 660 102 660 L216 660 Q225 660 225 651 L225 9 Q225 0 216 0 L102 0 L102 0 Z M150 855 Q151 861 159 861 L236 861 Q243 861 246 857.5 Q249 854 244 847 L191 771 Q187 764 181 764 L143 764 Q140 764 136.5 766.5 Q133 769 134 774 L150 855 Z " />
<glyph glyph-name="Icircumflex" unicode="&#xce;" horiz-adv-x="315" d="M102 0 Q94 0 94 9 L94 651 Q94 660 102 660 L216 660 Q225 660 225 651 L225 9 Q225 0 216 0 L102 0 L102 0 Z M31 750 Q25 750 22 755 Q19 760 24 765 L112 861 Q116 865 118 865 L224 865 Q227 865 232 860 L298 763 Q300 761 298.5 755.5 Q297 750 291 750 L211 750 Q205 750 203 755 L167 815 L114 753 Q112 750 108 750 L31 750 L31 750 Z " />
<glyph glyph-name="Idieresis" unicode="&#xcf;" horiz-adv-x="315" d="M102 0 Q94 0 94 9 L94 651 Q94 660 102 660 L216 660 Q225 660 225 651 L225 9 Q225 0 216 0 L102 0 L102 0 Z M61 811 Q61 831 75.5 845 Q90 859 111 859 Q131 859 144.5 845 Q158 831 158 811 Q158 791 144.5 776 Q131 761 111 761 Q90 761 75.5 776 Q61 791 61 811 Z M223 761 Q203 761 189.5 776 Q176 791 176 811 Q176 831 189.5 845 Q203 859 223 859 Q244 859 258 845 Q272 831 272 811 Q272 791 258 776 Q244 761 223 761 Z " />
<glyph glyph-name="Ntilde" unicode="&#xd1;" horiz-adv-x="596" d="M361 651 Q361 660 370 660 L485 660 Q494 660 494 651 L494 9 Q494 0 485 0 L374 0 Q367 0 365 5 L219 334 L219 9 Q219 0 210 0 L96 0 Q88 0 88 9 L88 651 Q88 660 96 660 L214 660 Q218 660 221 655 L361 332 L361 651 L361 651 Z M341 890 Q360 890 376.5 880.5 Q393 871 405 856 Q417 841 424 821.5 Q431 802 431 783 Q431 773 422 773 L356 773 Q347 773 347 781 Q347 789 340.5 795.5 Q334 802 325 802 Q317 802 309 796 Q301 790 292 782.5 Q283 775 271.5 769 Q260 763 245 763 Q222 763 205.5 772.5 Q189 782 177.5 797 Q166 812 160.5 831 Q155 850 155 870 Q155 880 165 880 L230 880 Q238 880 238 872 Q238 868 242.5 858 Q247 848 261 848 Q267 848 274.5 854 Q282 860 292 867.5 Q302 875 314 882 Q326 889 341 890 Z " />
<glyph glyph-name="Ograve" unicode="&#xd2;" horiz-adv-x="620" d="M311 669 Q439 669 495 609 Q539 561 539 462 L539 199 Q539 97 495 50 Q466 20 421 5 Q376 -10 311 -10 Q244 -10 199.5 5 Q155 20 126 50 Q104 74 92.5 110.5 Q81 147 81 199 L81 462 Q81 560 126 610 Q155 641 200 655 Q245 669 311 669 Z M406 429 Q406 462 398 482.5 Q390 503 377 515 Q364 527 348 531 Q332 535 316 535 L304 535 Q256 535 235.5 506.5 Q215 478 215 429 L215 229 Q215 196 223 175 Q231 154 243.5 142.5 Q256 131 272 126.5 Q288 122 304 122 L316 122 Q364 122 384.5 151.5 Q405 181 406 229 L406 429 Z M255 854 Q253 858 255.5 862 Q258 866 263 866 L328 866 Q334 866 336 857 L349 774 Q350 764 340 764 L309 764 Q304 764 301 769 L255 854 Z " />
<glyph glyph-name="Oacute" unicode="&#xd3;" horiz-adv-x="620" d="M311 669 Q439 669 495 609 Q539 561 539 462 L539 199 Q539 97 495 50 Q466 20 421 5 Q376 -10 311 -10 Q244 -10 199.5 5 Q155 20 126 50 Q104 74 92.5 110.5 Q81 147 81 199 L81 462 Q81 560 126 610 Q155 641 200 655 Q245 669 311 669 Z M406 429 Q406 462 398 482.5 Q390 503 377 515 Q364 527 348 531 Q332 535 316 535 L304 535 Q256 535 235.5 506.5 Q215 478 215 429 L215 229 Q215 196 223 175 Q231 154 243.5 142.5 Q256 131 272 126.5 Q288 122 304 122 L316 122 Q364 122 384.5 151.5 Q405 181 406 229 L406 429 Z M306 855 Q307 861 315 861 L392 861 Q399 861 402 857.5 Q405 854 400 847 L347 771 Q343 764 337 764 L299 764 Q296 764 292.5 766.5 Q289 769 290 774 L306 855 Z " />
<glyph glyph-name="Ocircumflex" unicode="&#xd4;" horiz-adv-x="620" d="M180 750 Q174 750 171 755 Q168 760 173 765 L261 861 Q265 865 267 865 L373 865 Q376 865 381 860 L447 763 Q449 761 447.5 755.5 Q446 750 440 750 L360 750 Q354 750 352 755 L316 815 L263 753 Q261 750 257 750 L180 750 L180 750 Z M311 669 Q439 669 495 609 Q539 561 539 462 L539 199 Q539 97 495 50 Q466 20 421 5 Q376 -10 311 -10 Q244 -10 199.5 5 Q155 20 126 50 Q104 74 92.5 110.5 Q81 147 81 199 L81 462 Q81 560 126 610 Q155 641 200 655 Q245 669 311 669 Z M406 429 Q406 462 398 482.5 Q390 503 377 515 Q364 527 348 531 Q332 535 316 535 L304 535 Q256 535 235.5 506.5 Q215 478 215 429 L215 229 Q215 196 223 175 Q231 154 243.5 142.5 Q256 131 272 126.5 Q288 122 304 122 L316 122 Q364 122 384.5 151.5 Q405 181 406 229 L406 429 Z " />
<glyph glyph-name="Otilde" unicode="&#xd5;" horiz-adv-x="620" d="M311 669 Q439 669 495 609 Q539 561 539 462 L539 199 Q539 97 495 50 Q466 20 421 5 Q376 -10 311 -10 Q244 -10 199.5 5 Q155 20 126 50 Q104 74 92.5 110.5 Q81 147 81 199 L81 462 Q81 560 126 610 Q155 641 200 655 Q245 669 311 669 Z M406 429 Q406 462 398 482.5 Q390 503 377 515 Q364 527 348 531 Q332 535 316 535 L304 535 Q256 535 235.5 506.5 Q215 478 215 429 L215 229 Q215 196 223 175 Q231 154 243.5 142.5 Q256 131 272 126.5 Q288 122 304 122 L316 122 Q364 122 384.5 151.5 Q405 181 406 229 L406 429 Z M370 890 Q389 890 405.5 880.5 Q422 871 434 856 Q446 841 453 821.5 Q460 802 460 783 Q460 773 451 773 L385 773 Q376 773 376 781 Q376 789 369.5 795.5 Q363 802 354 802 Q346 802 338 796 Q330 790 321 782.5 Q312 775 300.5 769 Q289 763 274 763 Q251 763 234.5 772.5 Q218 782 206.5 797 Q195 812 189.5 831 Q184 850 184 870 Q184 880 194 880 L259 880 Q267 880 267 872 Q267 868 271.5 858 Q276 848 290 848 Q296 848 303.5 854 Q311 860 321 867.5 Q331 875 343 882 Q355 889 370 890 Z " />
<glyph glyph-name="Odieresis" unicode="&#xd6;" horiz-adv-x="620" d="M311 669 Q439 669 495 609 Q539 561 539 462 L539 199 Q539 97 495 50 Q466 20 421 5 Q376 -10 311 -10 Q244 -10 199.5 5 Q155 20 126 50 Q104 74 92.5 110.5 Q81 147 81 199 L81 462 Q81 560 126 610 Q155 641 200 655 Q245 669 311 669 Z M406 429 Q406 462 398 482.5 Q390 503 377 515 Q364 527 348 531 Q332 535 316 535 L304 535 Q256 535 235.5 506.5 Q215 478 215 429 L215 229 Q215 196 223 175 Q231 154 243.5 142.5 Q256 131 272 126.5 Q288 122 304 122 L316 122 Q364 122 384.5 151.5 Q405 181 406 229 L406 429 Z M216 822 Q216 842 230.5 856 Q245 870 266 870 Q286 870 299.5 856 Q313 842 313 822 Q313 802 299.5 787 Q286 772 266 772 Q245 772 230.5 787 Q216 802 216 822 Z M378 772 Q358 772 344.5 787 Q331 802 331 822 Q331 842 344.5 856 Q358 870 378 870 Q399 870 413 856 Q427 842 427 822 Q427 802 413 787 Q399 772 378 772 Z " />
<glyph glyph-name="Ugrave" unicode="&#xd9;" horiz-adv-x="630" d="M412 651 Q412 660 421 660 L535 660 Q544 660 544 651 L544 199 Q544 90 486 40 Q428 -10 316 -10 Q263 -10 220.5 1 Q178 12 148.5 37 Q119 62 103 102 Q87 142 87 199 L87 651 Q87 660 96 660 L211 660 Q220 660 220 651 L220 231 Q220 198 228.5 177.5 Q237 157 250 145.5 Q263 134 279 129.5 Q295 125 310 125 L322 125 Q369 125 390.5 154 Q412 183 412 231 L412 651 Z M250 854 Q248 858 250.5 862 Q253 866 258 866 L323 866 Q329 866 331 857 L344 774 Q345 764 335 764 L304 764 Q299 764 296 769 L250 854 Z " />
<glyph glyph-name="Uacute" unicode="&#xda;" horiz-adv-x="630" d="M412 651 Q412 660 421 660 L535 660 Q544 660 544 651 L544 199 Q544 90 486 40 Q428 -10 316 -10 Q263 -10 220.5 1 Q178 12 148.5 37 Q119 62 103 102 Q87 142 87 199 L87 651 Q87 660 96 660 L211 660 Q220 660 220 651 L220 231 Q220 198 228.5 177.5 Q237 157 250 145.5 Q263 134 279 129.5 Q295 125 310 125 L322 125 Q369 125 390.5 154 Q412 183 412 231 L412 651 Z M298 855 Q299 861 307 861 L384 861 Q391 861 394 857.5 Q397 854 392 847 L339 771 Q335 764 329 764 L291 764 Q288 764 284.5 766.5 Q281 769 282 774 L298 855 Z " />
<glyph glyph-name="Ucircumflex" unicode="&#xdb;" horiz-adv-x="630" d="M412 651 Q412 660 421 660 L535 660 Q544 660 544 651 L544 199 Q544 90 486 40 Q428 -10 316 -10 Q263 -10 220.5 1 Q178 12 148.5 37 Q119 62 103 102 Q87 142 87 199 L87 651 Q87 660 96 660 L211 660 Q220 660 220 651 L220 231 Q220 198 228.5 177.5 Q237 157 250 145.5 Q263 134 279 129.5 Q295 125 310 125 L322 125 Q369 125 390.5 154 Q412 183 412 231 L412 651 Z M185 750 Q179 750 176 755 Q173 760 178 765 L266 861 Q270 865 272 865 L378 865 Q381 865 386 860 L452 763 Q454 761 452.5 755.5 Q451 750 445 750 L365 750 Q359 750 357 755 L321 815 L268 753 Q266 750 262 750 L185 750 L185 750 Z " />
<glyph glyph-name="Udieresis" unicode="&#xdc;" horiz-adv-x="630" d="M412 651 Q412 660 421 660 L535 660 Q544 660 544 651 L544 199 Q544 90 486 40 Q428 -10 316 -10 Q263 -10 220.5 1 Q178 12 148.5 37 Q119 62 103 102 Q87 142 87 199 L87 651 Q87 660 96 660 L211 660 Q220 660 220 651 L220 231 Q220 198 228.5 177.5 Q237 157 250 145.5 Q263 134 279 129.5 Q295 125 310 125 L322 125 Q369 125 390.5 154 Q412 183 412 231 L412 651 Z M211 811 Q211 831 225.5 845 Q240 859 261 859 Q281 859 294.5 845 Q308 831 308 811 Q308 791 294.5 776 Q281 761 261 761 Q240 761 225.5 776 Q211 791 211 811 Z M373 761 Q353 761 339.5 776 Q326 791 326 811 Q326 831 339.5 845 Q353 859 373 859 Q394 859 408 845 Q422 831 422 811 Q422 791 408 776 Q394 761 373 761 Z " />
<glyph glyph-name="Yacute" unicode="&#xdd;" horiz-adv-x="511" d="M341 655 Q343 659 344.5 659.5 Q346 660 349 660 L461 660 Q466 660 468.5 656.5 Q471 653 469 649 L324 312 L324 9 Q324 0 315 0 L197 0 Q190 0 190 9 L190 312 L41 647 Q37 660 49 660 L161 660 Q164 660 165.5 659.5 Q167 659 169 655 L256 487 L341 655 Z M238 855 Q239 861 247 861 L324 861 Q331 861 334 857.5 Q337 854 332 847 L279 771 Q275 764 269 764 L231 764 Q228 764 224.5 766.5 Q221 769 222 774 L238 855 Z " />
<glyph glyph-name="ugrave" unicode="&#xf9;" horiz-adv-x="630" d="M412 651 Q412 660 421 660 L535 660 Q544 660 544 651 L544 199 Q544 90 486 40 Q428 -10 316 -10 Q263 -10 220.5 1 Q178 12 148.5 37 Q119 62 103 102 Q87 142 87 199 L87 651 Q87 660 96 660 L211 660 Q220 660 220 651 L220 231 Q220 198 228.5 177.5 Q237 157 250 145.5 Q263 134 279 129.5 Q295 125 310 125 L322 125 Q369 125 390.5 154 Q412 183 412 231 L412 651 Z M250 854 Q248 858 250.5 862 Q253 866 258 866 L323 866 Q329 866 331 857 L344 774 Q345 764 335 764 L304 764 Q299 764 296 769 L250 854 Z " />
<glyph glyph-name="uacute" unicode="&#xfa;" horiz-adv-x="630" d="M412 651 Q412 660 421 660 L535 660 Q544 660 544 651 L544 199 Q544 90 486 40 Q428 -10 316 -10 Q263 -10 220.5 1 Q178 12 148.5 37 Q119 62 103 102 Q87 142 87 199 L87 651 Q87 660 96 660 L211 660 Q220 660 220 651 L220 231 Q220 198 228.5 177.5 Q237 157 250 145.5 Q263 134 279 129.5 Q295 125 310 125 L322 125 Q369 125 390.5 154 Q412 183 412 231 L412 651 Z M298 855 Q299 861 307 861 L384 861 Q391 861 394 857.5 Q397 854 392 847 L339 771 Q335 764 329 764 L291 764 Q288 764 284.5 766.5 Q281 769 282 774 L298 855 Z " />
<glyph glyph-name="ucircumflex" unicode="&#xfb;" horiz-adv-x="630" d="M412 651 Q412 660 421 660 L535 660 Q544 660 544 651 L544 199 Q544 90 486 40 Q428 -10 316 -10 Q263 -10 220.5 1 Q178 12 148.5 37 Q119 62 103 102 Q87 142 87 199 L87 651 Q87 660 96 660 L211 660 Q220 660 220 651 L220 231 Q220 198 228.5 177.5 Q237 157 250 145.5 Q263 134 279 129.5 Q295 125 310 125 L322 125 Q369 125 390.5 154 Q412 183 412 231 L412 651 Z M185 750 Q179 750 176 755 Q173 760 178 765 L266 861 Q270 865 272 865 L378 865 Q381 865 386 860 L452 763 Q454 761 452.5 755.5 Q451 750 445 750 L365 750 Q359 750 357 755 L321 815 L268 753 Q266 750 262 750 L185 750 L185 750 Z " />
<glyph glyph-name="udieresis" unicode="&#xfc;" horiz-adv-x="630" d="M412 651 Q412 660 421 660 L535 660 Q544 660 544 651 L544 199 Q544 90 486 40 Q428 -10 316 -10 Q263 -10 220.5 1 Q178 12 148.5 37 Q119 62 103 102 Q87 142 87 199 L87 651 Q87 660 96 660 L211 660 Q220 660 220 651 L220 231 Q220 198 228.5 177.5 Q237 157 250 145.5 Q263 134 279 129.5 Q295 125 310 125 L322 125 Q369 125 390.5 154 Q412 183 412 231 L412 651 Z M211 811 Q211 831 225.5 845 Q240 859 261 859 Q281 859 294.5 845 Q308 831 308 811 Q308 791 294.5 776 Q281 761 261 761 Q240 761 225.5 776 Q211 791 211 811 Z M373 761 Q353 761 339.5 776 Q326 791 326 811 Q326 831 339.5 845 Q353 859 373 859 Q394 859 408 845 Q422 831 422 811 Q422 791 408 776 Q394 761 373 761 Z " />
<glyph glyph-name="yacute" unicode="&#xfd;" horiz-adv-x="511" d="M341 655 Q343 659 344.5 659.5 Q346 660 349 660 L461 660 Q466 660 468.5 656.5 Q471 653 469 649 L324 312 L324 9 Q324 0 315 0 L197 0 Q190 0 190 9 L190 312 L41 647 Q37 660 49 660 L161 660 Q164 660 165.5 659.5 Q167 659 169 655 L256 487 L341 655 Z M238 855 Q239 861 247 861 L324 861 Q331 861 334 857.5 Q337 854 332 847 L279 771 Q275 764 269 764 L231 764 Q228 764 224.5 766.5 Q221 769 222 774 L238 855 Z " />
<glyph glyph-name="ntilde" unicode="&#xf1;" horiz-adv-x="596" d="M361 651 Q361 660 370 660 L485 660 Q494 660 494 651 L494 9 Q494 0 485 0 L374 0 Q367 0 365 5 L219 334 L219 9 Q219 0 210 0 L96 0 Q88 0 88 9 L88 651 Q88 660 96 660 L214 660 Q218 660 221 655 L361 332 L361 651 L361 651 Z M341 890 Q360 890 376.5 880.5 Q393 871 405 856 Q417 841 424 821.5 Q431 802 431 783 Q431 773 422 773 L356 773 Q347 773 347 781 Q347 789 340.5 795.5 Q334 802 325 802 Q317 802 309 796 Q301 790 292 782.5 Q283 775 271.5 769 Q260 763 245 763 Q222 763 205.5 772.5 Q189 782 177.5 797 Q166 812 160.5 831 Q155 850 155 870 Q155 880 165 880 L230 880 Q238 880 238 872 Q238 868 242.5 858 Q247 848 261 848 Q267 848 274.5 854 Q282 860 292 867.5 Q302 875 314 882 Q326 889 341 890 Z " />
<glyph glyph-name="ograve" unicode="&#xf2;" horiz-adv-x="620" d="M311 669 Q439 669 495 609 Q539 561 539 462 L539 199 Q539 97 495 50 Q466 20 421 5 Q376 -10 311 -10 Q244 -10 199.5 5 Q155 20 126 50 Q104 74 92.5 110.5 Q81 147 81 199 L81 462 Q81 560 126 610 Q155 641 200 655 Q245 669 311 669 Z M406 429 Q406 462 398 482.5 Q390 503 377 515 Q364 527 348 531 Q332 535 316 535 L304 535 Q256 535 235.5 506.5 Q215 478 215 429 L215 229 Q215 196 223 175 Q231 154 243.5 142.5 Q256 131 272 126.5 Q288 122 304 122 L316 122 Q364 122 384.5 151.5 Q405 181 406 229 L406 429 Z M255 854 Q253 858 255.5 862 Q258 866 263 866 L328 866 Q334 866 336 857 L349 774 Q350 764 340 764 L309 764 Q304 764 301 769 L255 854 Z " />
<glyph glyph-name="oacute" unicode="&#xf3;" horiz-adv-x="620" d="M311 669 Q439 669 495 609 Q539 561 539 462 L539 199 Q539 97 495 50 Q466 20 421 5 Q376 -10 311 -10 Q244 -10 199.5 5 Q155 20 126 50 Q104 74 92.5 110.5 Q81 147 81 199 L81 462 Q81 560 126 610 Q155 641 200 655 Q245 669 311 669 Z M406 429 Q406 462 398 482.5 Q390 503 377 515 Q364 527 348 531 Q332 535 316 535 L304 535 Q256 535 235.5 506.5 Q215 478 215 429 L215 229 Q215 196 223 175 Q231 154 243.5 142.5 Q256 131 272 126.5 Q288 122 304 122 L316 122 Q364 122 384.5 151.5 Q405 181 406 229 L406 429 Z M306 855 Q307 861 315 861 L392 861 Q399 861 402 857.5 Q405 854 400 847 L347 771 Q343 764 337 764 L299 764 Q296 764 292.5 766.5 Q289 769 290 774 L306 855 Z " />
<glyph glyph-name="ocircumflex" unicode="&#xf4;" horiz-adv-x="620" d="M180 750 Q174 750 171 755 Q168 760 173 765 L261 861 Q265 865 267 865 L373 865 Q376 865 381 860 L447 763 Q449 761 447.5 755.5 Q446 750 440 750 L360 750 Q354 750 352 755 L316 815 L263 753 Q261 750 257 750 L180 750 L180 750 Z M311 669 Q439 669 495 609 Q539 561 539 462 L539 199 Q539 97 495 50 Q466 20 421 5 Q376 -10 311 -10 Q244 -10 199.5 5 Q155 20 126 50 Q104 74 92.5 110.5 Q81 147 81 199 L81 462 Q81 560 126 610 Q155 641 200 655 Q245 669 311 669 Z M406 429 Q406 462 398 482.5 Q390 503 377 515 Q364 527 348 531 Q332 535 316 535 L304 535 Q256 535 235.5 506.5 Q215 478 215 429 L215 229 Q215 196 223 175 Q231 154 243.5 142.5 Q256 131 272 126.5 Q288 122 304 122 L316 122 Q364 122 384.5 151.5 Q405 181 406 229 L406 429 Z " />
<glyph glyph-name="otilde" unicode="&#xf5;" horiz-adv-x="620" d="M311 669 Q439 669 495 609 Q539 561 539 462 L539 199 Q539 97 495 50 Q466 20 421 5 Q376 -10 311 -10 Q244 -10 199.5 5 Q155 20 126 50 Q104 74 92.5 110.5 Q81 147 81 199 L81 462 Q81 560 126 610 Q155 641 200 655 Q245 669 311 669 Z M406 429 Q406 462 398 482.5 Q390 503 377 515 Q364 527 348 531 Q332 535 316 535 L304 535 Q256 535 235.5 506.5 Q215 478 215 429 L215 229 Q215 196 223 175 Q231 154 243.5 142.5 Q256 131 272 126.5 Q288 122 304 122 L316 122 Q364 122 384.5 151.5 Q405 181 406 229 L406 429 Z M370 890 Q389 890 405.5 880.5 Q422 871 434 856 Q446 841 453 821.5 Q460 802 460 783 Q460 773 451 773 L385 773 Q376 773 376 781 Q376 789 369.5 795.5 Q363 802 354 802 Q346 802 338 796 Q330 790 321 782.5 Q312 775 300.5 769 Q289 763 274 763 Q251 763 234.5 772.5 Q218 782 206.5 797 Q195 812 189.5 831 Q184 850 184 870 Q184 880 194 880 L259 880 Q267 880 267 872 Q267 868 271.5 858 Q276 848 290 848 Q296 848 303.5 854 Q311 860 321 867.5 Q331 875 343 882 Q355 889 370 890 Z " />
<glyph glyph-name="odieresis" unicode="&#xf6;" horiz-adv-x="620" d="M311 669 Q439 669 495 609 Q539 561 539 462 L539 199 Q539 97 495 50 Q466 20 421 5 Q376 -10 311 -10 Q244 -10 199.5 5 Q155 20 126 50 Q104 74 92.5 110.5 Q81 147 81 199 L81 462 Q81 560 126 610 Q155 641 200 655 Q245 669 311 669 Z M406 429 Q406 462 398 482.5 Q390 503 377 515 Q364 527 348 531 Q332 535 316 535 L304 535 Q256 535 235.5 506.5 Q215 478 215 429 L215 229 Q215 196 223 175 Q231 154 243.5 142.5 Q256 131 272 126.5 Q288 122 304 122 L316 122 Q364 122 384.5 151.5 Q405 181 406 229 L406 429 Z M216 822 Q216 842 230.5 856 Q245 870 266 870 Q286 870 299.5 856 Q313 842 313 822 Q313 802 299.5 787 Q286 772 266 772 Q245 772 230.5 787 Q216 802 216 822 Z M378 772 Q358 772 344.5 787 Q331 802 331 822 Q331 842 344.5 856 Q358 870 378 870 Q399 870 413 856 Q427 842 427 822 Q427 802 413 787 Q399 772 378 772 Z " />
<glyph glyph-name="egrave" unicode="&#xe8;" horiz-adv-x="526" d="M102 0 Q94 0 94 9 L94 651 Q94 660 102 660 L442 660 Q451 660 451 651 L451 544 Q451 535 442 535 L226 535 L226 399 L394 399 Q402 399 402 390 L402 281 Q402 272 394 272 L226 272 L226 125 L442 125 Q451 125 451 116 L451 9 Q451 0 442 0 L102 0 L102 0 Z M216 854 Q214 858 216.5 862 Q219 866 224 866 L289 866 Q295 866 297 857 L310 774 Q311 764 301 764 L270 764 Q265 764 262 769 L216 854 Z " />
<glyph glyph-name="eacute" unicode="&#xe9;" horiz-adv-x="526" d="M102 0 Q94 0 94 9 L94 651 Q94 660 102 660 L442 660 Q451 660 451 651 L451 544 Q451 535 442 535 L226 535 L226 399 L394 399 Q402 399 402 390 L402 281 Q402 272 394 272 L226 272 L226 125 L442 125 Q451 125 451 116 L451 9 Q451 0 442 0 L102 0 L102 0 Z M266 855 Q267 861 275 861 L352 861 Q359 861 362 857.5 Q365 854 360 847 L307 771 Q303 764 297 764 L259 764 Q256 764 252.5 766.5 Q249 769 250 774 L266 855 Z " />
<glyph glyph-name="ecircumflex" unicode="&#xea;" horiz-adv-x="526" d="M102 0 Q94 0 94 9 L94 651 Q94 660 102 660 L442 660 Q451 660 451 651 L451 544 Q451 535 442 535 L226 535 L226 399 L394 399 Q402 399 402 390 L402 281 Q402 272 394 272 L226 272 L226 125 L442 125 Q451 125 451 116 L451 9 Q451 0 442 0 L102 0 L102 0 Z M133 750 Q127 750 124 755 Q121 760 126 765 L214 861 Q218 865 220 865 L326 865 Q329 865 334 860 L400 763 Q402 761 400.5 755.5 Q399 750 393 750 L313 750 Q307 750 305 755 L269 815 L216 753 Q214 750 210 750 L133 750 L133 750 Z " />
<glyph glyph-name="edieresis" unicode="&#xeb;" horiz-adv-x="526" d="M102 0 Q94 0 94 9 L94 651 Q94 660 102 660 L442 660 Q451 660 451 651 L451 544 Q451 535 442 535 L226 535 L226 399 L394 399 Q402 399 402 390 L402 281 Q402 272 394 272 L226 272 L226 125 L442 125 Q451 125 451 116 L451 9 Q451 0 442 0 L102 0 L102 0 Z M178 811 Q178 831 192.5 845 Q207 859 228 859 Q248 859 261.5 845 Q275 831 275 811 Q275 791 261.5 776 Q248 761 228 761 Q207 761 192.5 776 Q178 791 178 811 Z M340 761 Q320 761 306.5 776 Q293 791 293 811 Q293 831 306.5 845 Q320 859 340 859 Q361 859 375 845 Q389 831 389 811 Q389 791 375 776 Q361 761 340 761 Z " />
<glyph glyph-name="igrave" unicode="&#xec;" horiz-adv-x="315" d="M102 0 Q94 0 94 9 L94 651 Q94 660 102 660 L216 660 Q225 660 225 651 L225 9 Q225 0 216 0 L102 0 L102 0 Z M100 854 Q98 858 100.5 862 Q103 866 108 866 L173 866 Q179 866 181 857 L194 774 Q195 764 185 764 L154 764 Q149 764 146 769 L100 854 Z " />
<glyph glyph-name="iacute" unicode="&#xed;" horiz-adv-x="315" d="M102 0 Q94 0 94 9 L94 651 Q94 660 102 660 L216 660 Q225 660 225 651 L225 9 Q225 0 216 0 L102 0 L102 0 Z M150 855 Q151 861 159 861 L236 861 Q243 861 246 857.5 Q249 854 244 847 L191 771 Q187 764 181 764 L143 764 Q140 764 136.5 766.5 Q133 769 134 774 L150 855 Z " />
<glyph glyph-name="icircumflex" unicode="&#xee;" horiz-adv-x="315" d="M102 0 Q94 0 94 9 L94 651 Q94 660 102 660 L216 660 Q225 660 225 651 L225 9 Q225 0 216 0 L102 0 L102 0 Z M31 750 Q25 750 22 755 Q19 760 24 765 L112 861 Q116 865 118 865 L224 865 Q227 865 232 860 L298 763 Q300 761 298.5 755.5 Q297 750 291 750 L211 750 Q205 750 203 755 L167 815 L114 753 Q112 750 108 750 L31 750 L31 750 Z " />
<glyph glyph-name="idieresis" unicode="&#xef;" horiz-adv-x="315" d="M102 0 Q94 0 94 9 L94 651 Q94 660 102 660 L216 660 Q225 660 225 651 L225 9 Q225 0 216 0 L102 0 L102 0 Z M61 811 Q61 831 75.5 845 Q90 859 111 859 Q131 859 144.5 845 Q158 831 158 811 Q158 791 144.5 776 Q131 761 111 761 Q90 761 75.5 776 Q61 791 61 811 Z M223 761 Q203 761 189.5 776 Q176 791 176 811 Q176 831 189.5 845 Q203 859 223 859 Q244 859 258 845 Q272 831 272 811 Q272 791 258 776 Q244 761 223 761 Z " />
<glyph glyph-name="agrave" unicode="&#xe0;" horiz-adv-x="576" d="M219 654 Q221 660 226 660 L350 660 Q355 660 357 654 L530 11 Q532 0 521 0 L407 0 Q401 0 400 6 L361 146 L215 146 L177 6 Q175 0 170 0 L55 0 Q44 0 46 11 L219 654 Z M330 270 L287 421 L247 270 L330 270 Z M243 854 Q241 858 243.5 862 Q246 866 251 866 L316 866 Q322 866 324 857 L337 774 Q338 764 328 764 L297 764 Q292 764 289 769 L243 854 Z " />
<glyph glyph-name="aacute" unicode="&#xe1;" horiz-adv-x="576" d="M219 654 Q221 660 226 660 L350 660 Q355 660 357 654 L530 11 Q532 0 521 0 L407 0 Q401 0 400 6 L361 146 L215 146 L177 6 Q175 0 170 0 L55 0 Q44 0 46 11 L219 654 Z M330 270 L287 421 L247 270 L330 270 Z M271 855 Q272 861 280 861 L357 861 Q364 861 367 857.5 Q370 854 365 847 L312 771 Q308 764 302 764 L264 764 Q261 764 257.5 766.5 Q254 769 255 774 L271 855 Z " />
<glyph glyph-name="acircumflex" unicode="&#xe2;" horiz-adv-x="576" d="M219 654 Q221 660 226 660 L350 660 Q355 660 357 654 L530 11 Q532 0 521 0 L407 0 Q401 0 400 6 L361 146 L215 146 L177 6 Q175 0 170 0 L55 0 Q44 0 46 11 L219 654 Z M330 270 L287 421 L247 270 L330 270 Z M151 750 Q145 750 142 755 Q139 760 144 765 L232 861 Q236 865 238 865 L344 865 Q347 865 352 860 L418 763 Q420 761 418.5 755.5 Q417 750 411 750 L331 750 Q325 750 323 755 L287 815 L234 753 Q232 750 228 750 L151 750 L151 750 Z " />
<glyph glyph-name="atilde" unicode="&#xe3;" horiz-adv-x="576" d="M219 654 Q221 660 226 660 L350 660 Q355 660 357 654 L530 11 Q532 0 521 0 L407 0 Q401 0 400 6 L361 146 L215 146 L177 6 Q175 0 170 0 L55 0 Q44 0 46 11 L219 654 Z M330 270 L287 421 L247 270 L330 270 Z M336 879 Q355 879 371.5 869.5 Q388 860 400 845 Q412 830 419 810.5 Q426 791 426 772 Q426 762 417 762 L351 762 Q342 762 342 770 Q342 778 335.5 784.5 Q329 791 320 791 Q312 791 304 785 Q296 779 287 771.5 Q278 764 266.5 758 Q255 752 240 752 Q217 752 200.5 761.5 Q184 771 172.5 786 Q161 801 155.5 820 Q150 839 150 859 Q150 869 160 869 L225 869 Q233 869 233 861 Q233 857 237.5 847 Q242 837 256 837 Q262 837 269.5 843 Q277 849 287 856.5 Q297 864 309 871 Q321 878 336 879 Z " />
<glyph glyph-name="adieresis" unicode="&#xe4;" horiz-adv-x="576" d="M219 654 Q221 660 226 660 L350 660 Q355 660 357 654 L530 11 Q532 0 521 0 L407 0 Q401 0 400 6 L361 146 L215 146 L177 6 Q175 0 170 0 L55 0 Q44 0 46 11 L219 654 Z M330 270 L287 421 L247 270 L330 270 Z M184 811 Q184 831 198.5 845 Q213 859 234 859 Q254 859 267.5 845 Q281 831 281 811 Q281 791 267.5 776 Q254 761 234 761 Q213 761 198.5 776 Q184 791 184 811 Z M346 761 Q326 761 312.5 776 Q299 791 299 811 Q299 831 312.5 845 Q326 859 346 859 Q367 859 381 845 Q395 831 395 811 Q395 791 381 776 Q367 761 346 761 Z " />
<glyph glyph-name="Gdotaccent" unicode="&#x120;" horiz-adv-x="615" d="M301 240 Q292 240 292 249 L292 356 Q292 365 301 365 L530 365 Q539 365 539 356 L539 199 Q539 88 481 39 Q423 -10 311 -10 Q259 -10 216.5 1 Q174 12 144 36.5 Q114 61 97.5 101 Q81 141 81 199 L81 462 Q81 571 140 620 Q199 669 311 669 Q363 669 405.5 658 Q448 647 477.5 622.5 Q507 598 523 558.5 Q539 519 539 462 L539 441 Q539 432 530 432 L415 432 Q406 432 406 441 L406 454 Q406 500 380 517.5 Q354 535 316 535 L304 535 Q256 535 234 506 Q223 492 219 473 Q215 454 215 429 L215 231 Q215 198 223 177.5 Q231 157 243.5 145.5 Q256 134 272 129.5 Q288 125 304 125 L316 125 Q362 125 384 154 Q406 183 406 231 L406 240 L301 240 L301 240 Z M316 858 Q336 858 350 844 Q364 830 364 810 Q364 790 350 775 Q336 760 316 760 Q296 760 281 775 Q266 790 266 810 Q266 830 281 844 Q296 858 316 858 Z " />
<glyph glyph-name="gdotaccent" unicode="&#x121;" horiz-adv-x="615" d="M301 240 Q292 240 292 249 L292 356 Q292 365 301 365 L530 365 Q539 365 539 356 L539 199 Q539 88 481 39 Q423 -10 311 -10 Q259 -10 216.5 1 Q174 12 144 36.5 Q114 61 97.5 101 Q81 141 81 199 L81 462 Q81 571 140 620 Q199 669 311 669 Q363 669 405.5 658 Q448 647 477.5 622.5 Q507 598 523 558.5 Q539 519 539 462 L539 441 Q539 432 530 432 L415 432 Q406 432 406 441 L406 454 Q406 500 380 517.5 Q354 535 316 535 L304 535 Q256 535 234 506 Q223 492 219 473 Q215 454 215 429 L215 231 Q215 198 223 177.5 Q231 157 243.5 145.5 Q256 134 272 129.5 Q288 125 304 125 L316 125 Q362 125 384 154 Q406 183 406 231 L406 240 L301 240 L301 240 Z M316 858 Q336 858 350 844 Q364 830 364 810 Q364 790 350 775 Q336 760 316 760 Q296 760 281 775 Q266 790 266 810 Q266 830 281 844 Q296 858 316 858 Z " />
<glyph glyph-name="Amacron" unicode="&#x100;" horiz-adv-x="576" d="M219 654 Q221 660 226 660 L350 660 Q355 660 357 654 L530 11 Q532 0 521 0 L407 0 Q401 0 400 6 L361 146 L215 146 L177 6 Q175 0 170 0 L55 0 Q44 0 46 11 L219 654 Z M330 270 L287 421 L247 270 L330 270 Z M409 850 Q411 850 413.5 847.5 Q416 845 416 843 L416 755 Q416 748 409 748 L169 748 Q159 748 159 755 L159 843 Q159 850 169 850 L409 850 Z " />
<glyph glyph-name="amacron" unicode="&#x101;" horiz-adv-x="576" d="M219 654 Q221 660 226 660 L350 660 Q355 660 357 654 L530 11 Q532 0 521 0 L407 0 Q401 0 400 6 L361 146 L215 146 L177 6 Q175 0 170 0 L55 0 Q44 0 46 11 L219 654 Z M330 270 L287 421 L247 270 L330 270 Z M409 850 Q411 850 413.5 847.5 Q416 845 416 843 L416 755 Q416 748 409 748 L169 748 Q159 748 159 755 L159 843 Q159 850 169 850 L409 850 Z " />
<glyph glyph-name="Abreve" unicode="&#x102;" horiz-adv-x="576" d="M219 654 Q221 660 226 660 L350 660 Q355 660 357 654 L530 11 Q532 0 521 0 L407 0 Q401 0 400 6 L361 146 L215 146 L177 6 Q175 0 170 0 L55 0 Q44 0 46 11 L219 654 Z M330 270 L287 421 L247 270 L330 270 Z M400 889 Q409 889 409 879 Q409 854 400 832.5 Q391 811 375 795.5 Q359 780 337 771 Q315 762 290 762 Q266 762 244.5 770.5 Q223 779 206.5 795 Q190 811 180 832 Q170 853 170 879 Q170 889 179 889 L259 889 Q267 889 267 881 Q267 872 272.5 865 Q278 858 290 858 Q298 858 304.5 864 Q311 870 311 881 Q311 889 320 889 L400 889 Z " />
<glyph glyph-name="abreve" unicode="&#x103;" horiz-adv-x="576" d="M219 654 Q221 660 226 660 L350 660 Q355 660 357 654 L530 11 Q532 0 521 0 L407 0 Q401 0 400 6 L361 146 L215 146 L177 6 Q175 0 170 0 L55 0 Q44 0 46 11 L219 654 Z M330 270 L287 421 L247 270 L330 270 Z M400 889 Q409 889 409 879 Q409 854 400 832.5 Q391 811 375 795.5 Q359 780 337 771 Q315 762 290 762 Q266 762 244.5 770.5 Q223 779 206.5 795 Q190 811 180 832 Q170 853 170 879 Q170 889 179 889 L259 889 Q267 889 267 881 Q267 872 272.5 865 Q278 858 290 858 Q298 858 304.5 864 Q311 870 311 881 Q311 889 320 889 L400 889 Z " />
<glyph glyph-name="Cacute" unicode="&#x106;" horiz-adv-x="614" d="M407 262 Q407 271 416 271 L530 271 Q539 271 539 262 L539 199 Q539 88 481 39 Q423 -10 311 -10 Q259 -10 216.5 1 Q174 12 144 36.5 Q114 61 97.5 101 Q81 141 81 199 L81 462 Q81 573 140 621 Q199 669 311 669 Q364 669 406 658 Q448 647 477.5 622.5 Q507 598 523 558.5 Q539 519 539 462 L539 441 Q539 432 530 432 L415 432 Q406 432 406 441 L406 457 Q406 499 379.5 517 Q353 535 316 535 L304 535 Q256 535 234 506 Q223 492 219 473 Q215 454 215 429 L215 231 Q215 198 223.5 177.5 Q232 157 244.5 145.5 Q257 134 273 129.5 Q289 125 304 125 L316 125 Q365 125 387 154 Q407 182 407 231 L407 262 Z M301 855 Q302 861 310 861 L387 861 Q394 861 397 857.5 Q400 854 395 847 L342 771 Q338 764 332 764 L294 764 Q291 764 287.5 766.5 Q284 769 285 774 L301 855 Z " />
<glyph glyph-name="cacute" unicode="&#x107;" horiz-adv-x="614" d="M407 262 Q407 271 416 271 L530 271 Q539 271 539 262 L539 199 Q539 88 481 39 Q423 -10 311 -10 Q259 -10 216.5 1 Q174 12 144 36.5 Q114 61 97.5 101 Q81 141 81 199 L81 462 Q81 573 140 621 Q199 669 311 669 Q364 669 406 658 Q448 647 477.5 622.5 Q507 598 523 558.5 Q539 519 539 462 L539 441 Q539 432 530 432 L415 432 Q406 432 406 441 L406 457 Q406 499 379.5 517 Q353 535 316 535 L304 535 Q256 535 234 506 Q223 492 219 473 Q215 454 215 429 L215 231 Q215 198 223.5 177.5 Q232 157 244.5 145.5 Q257 134 273 129.5 Q289 125 304 125 L316 125 Q365 125 387 154 Q407 182 407 231 L407 262 Z M301 855 Q302 861 310 861 L387 861 Q394 861 397 857.5 Q400 854 395 847 L342 771 Q338 764 332 764 L294 764 Q291 764 287.5 766.5 Q284 769 285 774 L301 855 Z " />
<glyph glyph-name="Ccircumflex" unicode="&#x108;" horiz-adv-x="614" d="M407 262 Q407 271 416 271 L530 271 Q539 271 539 262 L539 199 Q539 88 481 39 Q423 -10 311 -10 Q259 -10 216.5 1 Q174 12 144 36.5 Q114 61 97.5 101 Q81 141 81 199 L81 462 Q81 573 140 621 Q199 669 311 669 Q364 669 406 658 Q448 647 477.5 622.5 Q507 598 523 558.5 Q539 519 539 462 L539 441 Q539 432 530 432 L415 432 Q406 432 406 441 L406 457 Q406 499 379.5 517 Q353 535 316 535 L304 535 Q256 535 234 506 Q223 492 219 473 Q215 454 215 429 L215 231 Q215 198 223.5 177.5 Q232 157 244.5 145.5 Q257 134 273 129.5 Q289 125 304 125 L316 125 Q365 125 387 154 Q407 182 407 231 L407 262 Z M180 750 Q174 750 171 755 Q168 760 173 765 L261 861 Q265 865 267 865 L373 865 Q376 865 381 860 L447 763 Q449 761 447.5 755.5 Q446 750 440 750 L360 750 Q354 750 352 755 L316 815 L263 753 Q261 750 257 750 L180 750 L180 750 Z " />
<glyph glyph-name="ccircumflex" unicode="&#x109;" horiz-adv-x="614" d="M407 262 Q407 271 416 271 L530 271 Q539 271 539 262 L539 199 Q539 88 481 39 Q423 -10 311 -10 Q259 -10 216.5 1 Q174 12 144 36.5 Q114 61 97.5 101 Q81 141 81 199 L81 462 Q81 573 140 621 Q199 669 311 669 Q364 669 406 658 Q448 647 477.5 622.5 Q507 598 523 558.5 Q539 519 539 462 L539 441 Q539 432 530 432 L415 432 Q406 432 406 441 L406 457 Q406 499 379.5 517 Q353 535 316 535 L304 535 Q256 535 234 506 Q223 492 219 473 Q215 454 215 429 L215 231 Q215 198 223.5 177.5 Q232 157 244.5 145.5 Q257 134 273 129.5 Q289 125 304 125 L316 125 Q365 125 387 154 Q407 182 407 231 L407 262 Z M180 750 Q174 750 171 755 Q168 760 173 765 L261 861 Q265 865 267 865 L373 865 Q376 865 381 860 L447 763 Q449 761 447.5 755.5 Q446 750 440 750 L360 750 Q354 750 352 755 L316 815 L263 753 Q261 750 257 750 L180 750 L180 750 Z " />
<glyph glyph-name="Cdotaccent" unicode="&#x10a;" horiz-adv-x="614" d="M407 262 Q407 271 416 271 L530 271 Q539 271 539 262 L539 199 Q539 88 481 39 Q423 -10 311 -10 Q259 -10 216.5 1 Q174 12 144 36.5 Q114 61 97.5 101 Q81 141 81 199 L81 462 Q81 573 140 621 Q199 669 311 669 Q364 669 406 658 Q448 647 477.5 622.5 Q507 598 523 558.5 Q539 519 539 462 L539 441 Q539 432 530 432 L415 432 Q406 432 406 441 L406 457 Q406 499 379.5 517 Q353 535 316 535 L304 535 Q256 535 234 506 Q223 492 219 473 Q215 454 215 429 L215 231 Q215 198 223.5 177.5 Q232 157 244.5 145.5 Q257 134 273 129.5 Q289 125 304 125 L316 125 Q365 125 387 154 Q407 182 407 231 L407 262 Z M316 858 Q336 858 350 844 Q364 830 364 810 Q364 790 350 775 Q336 760 316 760 Q296 760 281 775 Q266 790 266 810 Q266 830 281 844 Q296 858 316 858 Z " />
<glyph glyph-name="cdotaccent" unicode="&#x10b;" horiz-adv-x="614" d="M407 262 Q407 271 416 271 L530 271 Q539 271 539 262 L539 199 Q539 88 481 39 Q423 -10 311 -10 Q259 -10 216.5 1 Q174 12 144 36.5 Q114 61 97.5 101 Q81 141 81 199 L81 462 Q81 573 140 621 Q199 669 311 669 Q364 669 406 658 Q448 647 477.5 622.5 Q507 598 523 558.5 Q539 519 539 462 L539 441 Q539 432 530 432 L415 432 Q406 432 406 441 L406 457 Q406 499 379.5 517 Q353 535 316 535 L304 535 Q256 535 234 506 Q223 492 219 473 Q215 454 215 429 L215 231 Q215 198 223.5 177.5 Q232 157 244.5 145.5 Q257 134 273 129.5 Q289 125 304 125 L316 125 Q365 125 387 154 Q407 182 407 231 L407 262 Z M316 858 Q336 858 350 844 Q364 830 364 810 Q364 790 350 775 Q336 760 316 760 Q296 760 281 775 Q266 790 266 810 Q266 830 281 844 Q296 858 316 858 Z " />
<glyph glyph-name="Ccaron" unicode="&#x10c;" horiz-adv-x="614" d="M407 262 Q407 271 416 271 L530 271 Q539 271 539 262 L539 199 Q539 88 481 39 Q423 -10 311 -10 Q259 -10 216.5 1 Q174 12 144 36.5 Q114 61 97.5 101 Q81 141 81 199 L81 462 Q81 573 140 621 Q199 669 311 669 Q364 669 406 658 Q448 647 477.5 622.5 Q507 598 523 558.5 Q539 519 539 462 L539 441 Q539 432 530 432 L415 432 Q406 432 406 441 L406 457 Q406 499 379.5 517 Q353 535 316 535 L304 535 Q256 535 234 506 Q223 492 219 473 Q215 454 215 429 L215 231 Q215 198 223.5 177.5 Q232 157 244.5 145.5 Q257 134 273 129.5 Q289 125 304 125 L316 125 Q365 125 387 154 Q407 182 407 231 L407 262 Z M446 869 Q451 869 453.5 864 Q456 859 452 854 L376 757 Q374 755 372.5 754.5 Q371 754 368 754 L262 754 Q259 754 256 757 L178 854 Q175 858 177 863.5 Q179 869 184 869 L262 869 Q266 869 271 864 L314 804 L358 864 Q363 869 366 869 L446 869 L446 869 Z " />
<glyph glyph-name="ccaron" unicode="&#x10d;" horiz-adv-x="614" d="M407 262 Q407 271 416 271 L530 271 Q539 271 539 262 L539 199 Q539 88 481 39 Q423 -10 311 -10 Q259 -10 216.5 1 Q174 12 144 36.5 Q114 61 97.5 101 Q81 141 81 199 L81 462 Q81 573 140 621 Q199 669 311 669 Q364 669 406 658 Q448 647 477.5 622.5 Q507 598 523 558.5 Q539 519 539 462 L539 441 Q539 432 530 432 L415 432 Q406 432 406 441 L406 457 Q406 499 379.5 517 Q353 535 316 535 L304 535 Q256 535 234 506 Q223 492 219 473 Q215 454 215 429 L215 231 Q215 198 223.5 177.5 Q232 157 244.5 145.5 Q257 134 273 129.5 Q289 125 304 125 L316 125 Q365 125 387 154 Q407 182 407 231 L407 262 Z M446 869 Q451 869 453.5 864 Q456 859 452 854 L376 757 Q374 755 372.5 754.5 Q371 754 368 754 L262 754 Q259 754 256 757 L178 854 Q175 858 177 863.5 Q179 869 184 869 L262 869 Q266 869 271 864 L314 804 L358 864 Q363 869 366 869 L446 869 L446 869 Z " />
<glyph glyph-name="Dcaron" unicode="&#x10e;" horiz-adv-x="627" d="M346 660 Q448 660 499 604 Q544 554 544 462 L544 197 Q544 106 493.5 53 Q443 0 346 0 L96 0 Q88 0 88 9 L88 651 Q88 660 96 660 L346 660 Z M413 432 Q413 480 388 507.5 Q363 535 310 535 L220 535 L220 125 L310 125 Q355 125 384 152 Q413 179 413 227 L413 432 Z M435 869 Q440 869 442.5 864 Q445 859 441 854 L365 757 Q363 755 361.5 754.5 Q360 754 357 754 L251 754 Q248 754 245 757 L167 854 Q164 858 166 863.5 Q168 869 173 869 L251 869 Q255 869 260 864 L303 804 L347 864 Q352 869 355 869 L435 869 L435 869 Z " />
<glyph glyph-name="dcaron" unicode="&#x10f;" horiz-adv-x="627" d="M346 660 Q448 660 499 604 Q544 554 544 462 L544 197 Q544 106 493.5 53 Q443 0 346 0 L96 0 Q88 0 88 9 L88 651 Q88 660 96 660 L346 660 Z M413 432 Q413 480 388 507.5 Q363 535 310 535 L220 535 L220 125 L310 125 Q355 125 384 152 Q413 179 413 227 L413 432 Z M435 869 Q440 869 442.5 864 Q445 859 441 854 L365 757 Q363 755 361.5 754.5 Q360 754 357 754 L251 754 Q248 754 245 757 L167 854 Q164 858 166 863.5 Q168 869 173 869 L251 869 Q255 869 260 864 L303 804 L347 864 Q352 869 355 869 L435 869 L435 869 Z " />
<glyph glyph-name="Emacron" unicode="&#x112;" horiz-adv-x="526" d="M102 0 Q94 0 94 9 L94 651 Q94 660 102 660 L442 660 Q451 660 451 651 L451 544 Q451 535 442 535 L226 535 L226 399 L394 399 Q402 399 402 390 L402 281 Q402 272 394 272 L226 272 L226 125 L442 125 Q451 125 451 116 L451 9 Q451 0 442 0 L102 0 L102 0 Z M393 850 Q395 850 397.5 847.5 Q400 845 400 843 L400 755 Q400 748 393 748 L153 748 Q143 748 143 755 L143 843 Q143 850 153 850 L393 850 Z " />
<glyph glyph-name="emacron" unicode="&#x113;" horiz-adv-x="526" d="M102 0 Q94 0 94 9 L94 651 Q94 660 102 660 L442 660 Q451 660 451 651 L451 544 Q451 535 442 535 L226 535 L226 399 L394 399 Q402 399 402 390 L402 281 Q402 272 394 272 L226 272 L226 125 L442 125 Q451 125 451 116 L451 9 Q451 0 442 0 L102 0 L102 0 Z M393 850 Q395 850 397.5 847.5 Q400 845 400 843 L400 755 Q400 748 393 748 L153 748 Q143 748 143 755 L143 843 Q143 850 153 850 L393 850 Z " />
<glyph glyph-name="Ebreve" unicode="&#x114;" horiz-adv-x="526" d="M102 0 Q94 0 94 9 L94 651 Q94 660 102 660 L442 660 Q451 660 451 651 L451 544 Q451 535 442 535 L226 535 L226 399 L394 399 Q402 399 402 390 L402 281 Q402 272 394 272 L226 272 L226 125 L442 125 Q451 125 451 116 L451 9 Q451 0 442 0 L102 0 L102 0 Z M375 889 Q384 889 384 879 Q384 854 375 832.5 Q366 811 350 795.5 Q334 780 312 771 Q290 762 265 762 Q241 762 219.5 770.5 Q198 779 181.5 795 Q165 811 155 832 Q145 853 145 879 Q145 889 154 889 L234 889 Q242 889 242 881 Q242 872 247.5 865 Q253 858 265 858 Q273 858 279.5 864 Q286 870 286 881 Q286 889 295 889 L375 889 Z " />
<glyph glyph-name="ebreve" unicode="&#x115;" horiz-adv-x="526" d="M102 0 Q94 0 94 9 L94 651 Q94 660 102 660 L442 660 Q451 660 451 651 L451 544 Q451 535 442 535 L226 535 L226 399 L394 399 Q402 399 402 390 L402 281 Q402 272 394 272 L226 272 L226 125 L442 125 Q451 125 451 116 L451 9 Q451 0 442 0 L102 0 L102 0 Z M375 889 Q384 889 384 879 Q384 854 375 832.5 Q366 811 350 795.5 Q334 780 312 771 Q290 762 265 762 Q241 762 219.5 770.5 Q198 779 181.5 795 Q165 811 155 832 Q145 853 145 879 Q145 889 154 889 L234 889 Q242 889 242 881 Q242 872 247.5 865 Q253 858 265 858 Q273 858 279.5 864 Q286 870 286 881 Q286 889 295 889 L375 889 Z " />
<glyph glyph-name="Edotaccent" unicode="&#x116;" horiz-adv-x="526" d="M102 0 Q94 0 94 9 L94 651 Q94 660 102 660 L442 660 Q451 660 451 651 L451 544 Q451 535 442 535 L226 535 L226 399 L394 399 Q402 399 402 390 L402 281 Q402 272 394 272 L226 272 L226 125 L442 125 Q451 125 451 116 L451 9 Q451 0 442 0 L102 0 L102 0 Z M278 858 Q298 858 312 844 Q326 830 326 810 Q326 790 312 775 Q298 760 278 760 Q258 760 243 775 Q228 790 228 810 Q228 830 243 844 Q258 858 278 858 Z " />
<glyph glyph-name="edotaccent" unicode="&#x117;" horiz-adv-x="526" d="M102 0 Q94 0 94 9 L94 651 Q94 660 102 660 L442 660 Q451 660 451 651 L451 544 Q451 535 442 535 L226 535 L226 399 L394 399 Q402 399 402 390 L402 281 Q402 272 394 272 L226 272 L226 125 L442 125 Q451 125 451 116 L451 9 Q451 0 442 0 L102 0 L102 0 Z M278 858 Q298 858 312 844 Q326 830 326 810 Q326 790 312 775 Q298 760 278 760 Q258 760 243 775 Q228 790 228 810 Q228 830 243 844 Q258 858 278 858 Z " />
<glyph glyph-name="Ecaron" unicode="&#x11a;" horiz-adv-x="526" d="M102 0 Q94 0 94 9 L94 651 Q94 660 102 660 L442 660 Q451 660 451 651 L451 544 Q451 535 442 535 L226 535 L226 399 L394 399 Q402 399 402 390 L402 281 Q402 272 394 272 L226 272 L226 125 L442 125 Q451 125 451 116 L451 9 Q451 0 442 0 L102 0 L102 0 Z M424 869 Q429 869 431.5 864 Q434 859 430 854 L354 757 Q352 755 350.5 754.5 Q349 754 346 754 L240 754 Q237 754 234 757 L156 854 Q153 858 155 863.5 Q157 869 162 869 L240 869 Q244 869 249 864 L292 804 L336 864 Q341 869 344 869 L424 869 L424 869 Z " />
<glyph glyph-name="ecaron" unicode="&#x11b;" horiz-adv-x="526" d="M102 0 Q94 0 94 9 L94 651 Q94 660 102 660 L442 660 Q451 660 451 651 L451 544 Q451 535 442 535 L226 535 L226 399 L394 399 Q402 399 402 390 L402 281 Q402 272 394 272 L226 272 L226 125 L442 125 Q451 125 451 116 L451 9 Q451 0 442 0 L102 0 L102 0 Z M424 869 Q429 869 431.5 864 Q434 859 430 854 L354 757 Q352 755 350.5 754.5 Q349 754 346 754 L240 754 Q237 754 234 757 L156 854 Q153 858 155 863.5 Q157 869 162 869 L240 869 Q244 869 249 864 L292 804 L336 864 Q341 869 344 869 L424 869 L424 869 Z " />
<glyph glyph-name="Gcircumflex" unicode="&#x11c;" horiz-adv-x="615" d="M301 240 Q292 240 292 249 L292 356 Q292 365 301 365 L530 365 Q539 365 539 356 L539 199 Q539 88 481 39 Q423 -10 311 -10 Q259 -10 216.5 1 Q174 12 144 36.5 Q114 61 97.5 101 Q81 141 81 199 L81 462 Q81 571 140 620 Q199 669 311 669 Q363 669 405.5 658 Q448 647 477.5 622.5 Q507 598 523 558.5 Q539 519 539 462 L539 441 Q539 432 530 432 L415 432 Q406 432 406 441 L406 454 Q406 500 380 517.5 Q354 535 316 535 L304 535 Q256 535 234 506 Q223 492 219 473 Q215 454 215 429 L215 231 Q215 198 223 177.5 Q231 157 243.5 145.5 Q256 134 272 129.5 Q288 125 304 125 L316 125 Q362 125 384 154 Q406 183 406 231 L406 240 L301 240 L301 240 Z M180 750 Q174 750 171 755 Q168 760 173 765 L261 861 Q265 865 267 865 L373 865 Q376 865 381 860 L447 763 Q449 761 447.5 755.5 Q446 750 440 750 L360 750 Q354 750 352 755 L316 815 L263 753 Q261 750 257 750 L180 750 L180 750 Z " />
<glyph glyph-name="gcircumflex" unicode="&#x11d;" horiz-adv-x="615" d="M301 240 Q292 240 292 249 L292 356 Q292 365 301 365 L530 365 Q539 365 539 356 L539 199 Q539 88 481 39 Q423 -10 311 -10 Q259 -10 216.5 1 Q174 12 144 36.5 Q114 61 97.5 101 Q81 141 81 199 L81 462 Q81 571 140 620 Q199 669 311 669 Q363 669 405.5 658 Q448 647 477.5 622.5 Q507 598 523 558.5 Q539 519 539 462 L539 441 Q539 432 530 432 L415 432 Q406 432 406 441 L406 454 Q406 500 380 517.5 Q354 535 316 535 L304 535 Q256 535 234 506 Q223 492 219 473 Q215 454 215 429 L215 231 Q215 198 223 177.5 Q231 157 243.5 145.5 Q256 134 272 129.5 Q288 125 304 125 L316 125 Q362 125 384 154 Q406 183 406 231 L406 240 L301 240 L301 240 Z M180 750 Q174 750 171 755 Q168 760 173 765 L261 861 Q265 865 267 865 L373 865 Q376 865 381 860 L447 763 Q449 761 447.5 755.5 Q446 750 440 750 L360 750 Q354 750 352 755 L316 815 L263 753 Q261 750 257 750 L180 750 L180 750 Z " />
<glyph glyph-name="Gbreve" unicode="&#x11e;" horiz-adv-x="615" d="M301 240 Q292 240 292 249 L292 356 Q292 365 301 365 L530 365 Q539 365 539 356 L539 199 Q539 88 481 39 Q423 -10 311 -10 Q259 -10 216.5 1 Q174 12 144 36.5 Q114 61 97.5 101 Q81 141 81 199 L81 462 Q81 571 140 620 Q199 669 311 669 Q363 669 405.5 658 Q448 647 477.5 622.5 Q507 598 523 558.5 Q539 519 539 462 L539 441 Q539 432 530 432 L415 432 Q406 432 406 441 L406 454 Q406 500 380 517.5 Q354 535 316 535 L304 535 Q256 535 234 506 Q223 492 219 473 Q215 454 215 429 L215 231 Q215 198 223 177.5 Q231 157 243.5 145.5 Q256 134 272 129.5 Q288 125 304 125 L316 125 Q362 125 384 154 Q406 183 406 231 L406 240 L301 240 L301 240 Z M425 889 Q434 889 434 879 Q434 854 425 832.5 Q416 811 400 795.5 Q384 780 362 771 Q340 762 315 762 Q291 762 269.5 770.5 Q248 779 231.5 795 Q215 811 205 832 Q195 853 195 879 Q195 889 204 889 L284 889 Q292 889 292 881 Q292 872 297.5 865 Q303 858 315 858 Q323 858 329.5 864 Q336 870 336 881 Q336 889 345 889 L425 889 Z " />
<glyph glyph-name="gbreve" unicode="&#x11f;" horiz-adv-x="615" d="M301 240 Q292 240 292 249 L292 356 Q292 365 301 365 L530 365 Q539 365 539 356 L539 199 Q539 88 481 39 Q423 -10 311 -10 Q259 -10 216.5 1 Q174 12 144 36.5 Q114 61 97.5 101 Q81 141 81 199 L81 462 Q81 571 140 620 Q199 669 311 669 Q363 669 405.5 658 Q448 647 477.5 622.5 Q507 598 523 558.5 Q539 519 539 462 L539 441 Q539 432 530 432 L415 432 Q406 432 406 441 L406 454 Q406 500 380 517.5 Q354 535 316 535 L304 535 Q256 535 234 506 Q223 492 219 473 Q215 454 215 429 L215 231 Q215 198 223 177.5 Q231 157 243.5 145.5 Q256 134 272 129.5 Q288 125 304 125 L316 125 Q362 125 384 154 Q406 183 406 231 L406 240 L301 240 L301 240 Z M425 889 Q434 889 434 879 Q434 854 425 832.5 Q416 811 400 795.5 Q384 780 362 771 Q340 762 315 762 Q291 762 269.5 770.5 Q248 779 231.5 795 Q215 811 205 832 Q195 853 195 879 Q195 889 204 889 L284 889 Q292 889 292 881 Q292 872 297.5 865 Q303 858 315 858 Q323 858 329.5 864 Q336 870 336 881 Q336 889 345 889 L425 889 Z " />
<glyph glyph-name="uni0122" unicode="&#x122;" horiz-adv-x="615" d="M301 240 Q292 240 292 249 L292 356 Q292 365 301 365 L530 365 Q539 365 539 356 L539 199 Q539 88 481 39 Q423 -10 311 -10 Q259 -10 216.5 1 Q174 12 144 36.5 Q114 61 97.5 101 Q81 141 81 199 L81 462 Q81 571 140 620 Q199 669 311 669 Q363 669 405.5 658 Q448 647 477.5 622.5 Q507 598 523 558.5 Q539 519 539 462 L539 441 Q539 432 530 432 L415 432 Q406 432 406 441 L406 454 Q406 500 380 517.5 Q354 535 316 535 L304 535 Q256 535 234 506 Q223 492 219 473 Q215 454 215 429 L215 231 Q215 198 223 177.5 Q231 157 243.5 145.5 Q256 134 272 129.5 Q288 125 304 125 L316 125 Q362 125 384 154 Q406 183 406 231 L406 240 L301 240 L301 240 Z M301 -69 Q319 -69 335 -75.5 Q351 -82 363 -93 Q375 -104 382.5 -120 Q390 -136 390 -154 Q390 -160 388.5 -167 Q387 -174 385 -179 L328 -327 Q326 -334 320 -334 L252 -334 Q245 -334 243 -330 Q241 -326 243 -321 L275 -241 Q249 -233 230 -209.5 Q211 -186 211 -156 Q211 -119 237.5 -94 Q264 -69 301 -69 Z " />
<glyph glyph-name="uni0123" unicode="&#x123;" horiz-adv-x="615" d="M301 240 Q292 240 292 249 L292 356 Q292 365 301 365 L530 365 Q539 365 539 356 L539 199 Q539 88 481 39 Q423 -10 311 -10 Q259 -10 216.5 1 Q174 12 144 36.5 Q114 61 97.5 101 Q81 141 81 199 L81 462 Q81 571 140 620 Q199 669 311 669 Q363 669 405.5 658 Q448 647 477.5 622.5 Q507 598 523 558.5 Q539 519 539 462 L539 441 Q539 432 530 432 L415 432 Q406 432 406 441 L406 454 Q406 500 380 517.5 Q354 535 316 535 L304 535 Q256 535 234 506 Q223 492 219 473 Q215 454 215 429 L215 231 Q215 198 223 177.5 Q231 157 243.5 145.5 Q256 134 272 129.5 Q288 125 304 125 L316 125 Q362 125 384 154 Q406 183 406 231 L406 240 L301 240 L301 240 Z M301 -69 Q319 -69 335 -75.5 Q351 -82 363 -93 Q375 -104 382.5 -120 Q390 -136 390 -154 Q390 -160 388.5 -167 Q387 -174 385 -179 L328 -327 Q326 -334 320 -334 L252 -334 Q245 -334 243 -330 Q241 -326 243 -321 L275 -241 Q249 -233 230 -209.5 Q211 -186 211 -156 Q211 -119 237.5 -94 Q264 -69 301 -69 Z " />
<glyph glyph-name="Hcircumflex" unicode="&#x124;" horiz-adv-x="612" d="M387 651 Q387 660 396 660 L510 660 Q519 660 519 651 L519 9 Q519 0 510 0 L396 0 Q387 0 387 9 L387 275 L225 275 L225 9 Q225 0 216 0 L102 0 Q94 0 94 9 L94 651 Q94 660 102 660 L216 660 Q225 660 225 651 L225 400 L387 400 L387 651 Z M180 750 Q174 750 171 755 Q168 760 173 765 L261 861 Q265 865 267 865 L373 865 Q376 865 381 860 L447 763 Q449 761 447.5 755.5 Q446 750 440 750 L360 750 Q354 750 352 755 L316 815 L263 753 Q261 750 257 750 L180 750 L180 750 Z " />
<glyph glyph-name="hcircumflex" unicode="&#x125;" horiz-adv-x="612" d="M387 651 Q387 660 396 660 L510 660 Q519 660 519 651 L519 9 Q519 0 510 0 L396 0 Q387 0 387 9 L387 275 L225 275 L225 9 Q225 0 216 0 L102 0 Q94 0 94 9 L94 651 Q94 660 102 660 L216 660 Q225 660 225 651 L225 400 L387 400 L387 651 Z M180 750 Q174 750 171 755 Q168 760 173 765 L261 861 Q265 865 267 865 L373 865 Q376 865 381 860 L447 763 Q449 761 447.5 755.5 Q446 750 440 750 L360 750 Q354 750 352 755 L316 815 L263 753 Q261 750 257 750 L180 750 L180 750 Z " />
<glyph glyph-name="Itilde" unicode="&#x128;" horiz-adv-x="315" d="M102 0 Q94 0 94 9 L94 651 Q94 660 102 660 L216 660 Q225 660 225 651 L225 9 Q225 0 216 0 L102 0 L102 0 Z M231 879 Q250 879 266.5 869.5 Q283 860 295 845 Q307 830 314 810.5 Q321 791 321 772 Q321 762 312 762 L246 762 Q237 762 237 770 Q237 778 230.5 784.5 Q224 791 215 791 Q207 791 199 785 Q191 779 182 771.5 Q173 764 161.5 758 Q150 752 135 752 Q112 752 95.5 761.5 Q79 771 67.5 786 Q56 801 50.5 820 Q45 839 45 859 Q45 869 55 869 L120 869 Q128 869 128 861 Q128 857 132.5 847 Q137 837 151 837 Q157 837 164.5 843 Q172 849 182 856.5 Q192 864 204 871 Q216 878 231 879 Z " />
<glyph glyph-name="itilde" unicode="&#x129;" horiz-adv-x="315" d="M102 0 Q94 0 94 9 L94 651 Q94 660 102 660 L216 660 Q225 660 225 651 L225 9 Q225 0 216 0 L102 0 L102 0 Z M231 879 Q250 879 266.5 869.5 Q283 860 295 845 Q307 830 314 810.5 Q321 791 321 772 Q321 762 312 762 L246 762 Q237 762 237 770 Q237 778 230.5 784.5 Q224 791 215 791 Q207 791 199 785 Q191 779 182 771.5 Q173 764 161.5 758 Q150 752 135 752 Q112 752 95.5 761.5 Q79 771 67.5 786 Q56 801 50.5 820 Q45 839 45 859 Q45 869 55 869 L120 869 Q128 869 128 861 Q128 857 132.5 847 Q137 837 151 837 Q157 837 164.5 843 Q172 849 182 856.5 Q192 864 204 871 Q216 878 231 879 Z " />
<glyph glyph-name="Imacron" unicode="&#x12a;" horiz-adv-x="315" d="M102 0 Q94 0 94 9 L94 651 Q94 660 102 660 L216 660 Q225 660 225 651 L225 9 Q225 0 216 0 L102 0 L102 0 Z M281 850 Q283 850 285.5 847.5 Q288 845 288 843 L288 755 Q288 748 281 748 L41 748 Q31 748 31 755 L31 843 Q31 850 41 850 L281 850 Z " />
<glyph glyph-name="imacron" unicode="&#x12b;" horiz-adv-x="315" d="M102 0 Q94 0 94 9 L94 651 Q94 660 102 660 L216 660 Q225 660 225 651 L225 9 Q225 0 216 0 L102 0 L102 0 Z M281 850 Q283 850 285.5 847.5 Q288 845 288 843 L288 755 Q288 748 281 748 L41 748 Q31 748 31 755 L31 843 Q31 850 41 850 L281 850 Z " />
<glyph glyph-name="Idotaccent" unicode="&#x130;" horiz-adv-x="315" d="M102 0 Q94 0 94 9 L94 651 Q94 660 102 660 L216 660 Q225 660 225 651 L225 9 Q225 0 216 0 L102 0 L102 0 Z M162 858 Q182 858 196 844 Q210 830 210 810 Q210 790 196 775 Q182 760 162 760 Q142 760 127 775 Q112 790 112 810 Q112 830 127 844 Q142 858 162 858 Z " />
<glyph glyph-name="dotlessi" unicode="&#x131;" horiz-adv-x="315" d="M102 0 Q94 0 94 9 L94 651 Q94 660 102 660 L216 660 Q225 660 225 651 L225 9 Q225 0 216 0 L102 0 L102 0 Z M162 858 Q182 858 196 844 Q210 830 210 810 Q210 790 196 775 Q182 760 162 760 Q142 760 127 775 Q112 790 112 810 Q112 830 127 844 Q142 858 162 858 Z " />
<glyph glyph-name="IJ" unicode="&#x132;" horiz-adv-x="739" d="M96 0 Q88 0 88 9 L88 651 Q88 660 96 660 L210 660 Q219 660 219 651 L219 9 Q219 0 210 0 L96 0 L96 0 Z M647 660 Q656 660 656 651 L656 172 Q656 136 642 103 Q628 70 604 45 Q580 20 547 5.5 Q514 -9 476 -9 L451 -9 Q388 -9 332 36 Q309 57 288.5 84 Q268 111 254 142 Q251 149 257 154 L362 227 Q365 229 368.5 229 Q372 229 374 224 Q379 209 386.5 191.5 Q394 174 404.5 159.5 Q415 145 429.5 135 Q444 125 464 125 Q483 125 494.5 136.5 Q506 148 512.5 165 Q519 182 521 201 Q523 220 523 236 L523 651 Q523 660 532 660 L647 660 Z " />
<glyph glyph-name="ij" unicode="&#x133;" horiz-adv-x="739" d="M96 0 Q88 0 88 9 L88 651 Q88 660 96 660 L210 660 Q219 660 219 651 L219 9 Q219 0 210 0 L96 0 L96 0 Z M647 660 Q656 660 656 651 L656 172 Q656 136 642 103 Q628 70 604 45 Q580 20 547 5.5 Q514 -9 476 -9 L451 -9 Q388 -9 332 36 Q309 57 288.5 84 Q268 111 254 142 Q251 149 257 154 L362 227 Q365 229 368.5 229 Q372 229 374 224 Q379 209 386.5 191.5 Q394 174 404.5 159.5 Q415 145 429.5 135 Q444 125 464 125 Q483 125 494.5 136.5 Q506 148 512.5 165 Q519 182 521 201 Q523 220 523 236 L523 651 Q523 660 532 660 L647 660 Z " />
<glyph glyph-name="Jcircumflex" unicode="&#x134;" horiz-adv-x="509" d="M415 660 Q424 660 424 651 L424 172 Q424 136 410 103 Q396 70 372 45 Q348 20 315 5.5 Q282 -9 244 -9 L219 -9 Q156 -9 100 36 Q77 57 56.5 84 Q36 111 22 142 Q19 149 25 154 L130 227 Q133 229 136.5 229 Q140 229 142 224 Q147 209 154.5 191.5 Q162 174 172.5 159.5 Q183 145 197.5 135 Q212 125 232 125 Q251 125 262.5 136.5 Q274 148 280.5 165 Q287 182 289 201 Q291 220 291 236 L291 651 Q291 660 300 660 L415 660 Z M158 750 Q152 750 149 755 Q146 760 151 765 L239 861 Q243 865 245 865 L351 865 Q354 865 359 860 L425 763 Q427 761 425.5 755.5 Q424 750 418 750 L338 750 Q332 750 330 755 L294 815 L241 753 Q239 750 235 750 L158 750 L158 750 Z " />
<glyph glyph-name="jcircumflex" unicode="&#x135;" horiz-adv-x="509" d="M415 660 Q424 660 424 651 L424 172 Q424 136 410 103 Q396 70 372 45 Q348 20 315 5.5 Q282 -9 244 -9 L219 -9 Q156 -9 100 36 Q77 57 56.5 84 Q36 111 22 142 Q19 149 25 154 L130 227 Q133 229 136.5 229 Q140 229 142 224 Q147 209 154.5 191.5 Q162 174 172.5 159.5 Q183 145 197.5 135 Q212 125 232 125 Q251 125 262.5 136.5 Q274 148 280.5 165 Q287 182 289 201 Q291 220 291 236 L291 651 Q291 660 300 660 L415 660 Z M158 750 Q152 750 149 755 Q146 760 151 765 L239 861 Q243 865 245 865 L351 865 Q354 865 359 860 L425 763 Q427 761 425.5 755.5 Q424 750 418 750 L338 750 Q332 750 330 755 L294 815 L241 753 Q239 750 235 750 L158 750 L158 750 Z " />
<glyph glyph-name="uni0136" unicode="&#x136;" horiz-adv-x="581" d="M514 660 Q519 660 521.5 655.5 Q524 651 521 646 L364 429 L530 11 Q532 7 529.5 3.5 Q527 0 522 0 L387 0 Q381 0 380 6 L276 305 L225 235 L225 9 Q225 0 216 0 L102 0 Q94 0 94 9 L94 651 Q94 660 102 660 L216 660 Q225 660 225 651 L225 444 L382 656 Q385 660 390 660 L514 660 L514 660 Z M281 -73 Q299 -73 315 -79.5 Q331 -86 343 -97 Q355 -108 362.5 -124 Q370 -140 370 -158 Q370 -164 368.5 -171 Q367 -178 365 -183 L308 -331 Q306 -338 300 -338 L232 -338 Q225 -338 223 -334 Q221 -330 223 -325 L255 -245 Q229 -237 210 -213.5 Q191 -190 191 -160 Q191 -123 217.5 -98 Q244 -73 281 -73 Z " />
<glyph glyph-name="uni0137" unicode="&#x137;" horiz-adv-x="581" d="M514 660 Q519 660 521.5 655.5 Q524 651 521 646 L364 429 L530 11 Q532 7 529.5 3.5 Q527 0 522 0 L387 0 Q381 0 380 6 L276 305 L225 235 L225 9 Q225 0 216 0 L102 0 Q94 0 94 9 L94 651 Q94 660 102 660 L216 660 Q225 660 225 651 L225 444 L382 656 Q385 660 390 660 L514 660 L514 660 Z M281 -73 Q299 -73 315 -79.5 Q331 -86 343 -97 Q355 -108 362.5 -124 Q370 -140 370 -158 Q370 -164 368.5 -171 Q367 -178 365 -183 L308 -331 Q306 -338 300 -338 L232 -338 Q225 -338 223 -334 Q221 -330 223 -325 L255 -245 Q229 -237 210 -213.5 Q191 -190 191 -160 Q191 -123 217.5 -98 Q244 -73 281 -73 Z " />
<glyph glyph-name="kgreenlandic" unicode="&#x138;" horiz-adv-x="581" d="M514 660 Q519 660 521.5 655.5 Q524 651 521 646 L364 429 L530 11 Q532 7 529.5 3.5 Q527 0 522 0 L387 0 Q381 0 380 6 L276 305 L225 235 L225 9 Q225 0 216 0 L102 0 Q94 0 94 9 L94 651 Q94 660 102 660 L216 660 Q225 660 225 651 L225 444 L382 656 Q385 660 390 660 L514 660 L514 660 Z " />
<glyph glyph-name="Lacute" unicode="&#x139;" horiz-adv-x="496" d="M216 660 Q225 660 225 651 L225 126 L441 126 Q450 126 450 117 L450 9 Q450 0 441 0 L102 0 Q94 0 94 9 L94 651 Q94 660 102 660 L216 660 L216 660 Z M196 855 Q197 861 205 861 L282 861 Q289 861 292 857.5 Q295 854 290 847 L237 771 Q233 764 227 764 L189 764 Q186 764 182.5 766.5 Q179 769 180 774 L196 855 Z " />
<glyph glyph-name="lacute" unicode="&#x13a;" horiz-adv-x="496" d="M216 660 Q225 660 225 651 L225 126 L441 126 Q450 126 450 117 L450 9 Q450 0 441 0 L102 0 Q94 0 94 9 L94 651 Q94 660 102 660 L216 660 L216 660 Z M196 855 Q197 861 205 861 L282 861 Q289 861 292 857.5 Q295 854 290 847 L237 771 Q233 764 227 764 L189 764 Q186 764 182.5 766.5 Q179 769 180 774 L196 855 Z " />
<glyph glyph-name="uni013B" unicode="&#x13b;" horiz-adv-x="496" d="M216 660 Q225 660 225 651 L225 126 L441 126 Q450 126 450 117 L450 9 Q450 0 441 0 L102 0 Q94 0 94 9 L94 651 Q94 660 102 660 L216 660 L216 660 Z M240 -71 Q258 -71 274 -77.5 Q290 -84 302 -95 Q314 -106 321.5 -122 Q329 -138 329 -156 Q329 -162 327.5 -169 Q326 -176 324 -181 L267 -329 Q265 -336 259 -336 L191 -336 Q184 -336 182 -332 Q180 -328 182 -323 L214 -243 Q188 -235 169 -211.5 Q150 -188 150 -158 Q150 -121 176.5 -96 Q203 -71 240 -71 Z " />
<glyph glyph-name="uni013C" unicode="&#x13c;" horiz-adv-x="496" d="M216 660 Q225 660 225 651 L225 126 L441 126 Q450 126 450 117 L450 9 Q450 0 441 0 L102 0 Q94 0 94 9 L94 651 Q94 660 102 660 L216 660 L216 660 Z M240 -71 Q258 -71 274 -77.5 Q290 -84 302 -95 Q314 -106 321.5 -122 Q329 -138 329 -156 Q329 -162 327.5 -169 Q326 -176 324 -181 L267 -329 Q265 -336 259 -336 L191 -336 Q184 -336 182 -332 Q180 -328 182 -323 L214 -243 Q188 -235 169 -211.5 Q150 -188 150 -158 Q150 -121 176.5 -96 Q203 -71 240 -71 Z " />
<glyph glyph-name="Lcaron" unicode="&#x13d;" horiz-adv-x="496" d="M216 660 Q225 660 225 651 L225 126 L441 126 Q450 126 450 117 L450 9 Q450 0 441 0 L102 0 Q94 0 94 9 L94 651 Q94 660 102 660 L216 660 L216 660 Z M365 864 Q370 864 372.5 859 Q375 854 371 849 L295 752 Q293 750 291.5 749.5 Q290 749 287 749 L181 749 Q178 749 175 752 L97 849 Q94 853 96 858.5 Q98 864 103 864 L181 864 Q185 864 190 859 L233 799 L277 859 Q282 864 285 864 L365 864 L365 864 Z " />
<glyph glyph-name="lcaron" unicode="&#x13e;" horiz-adv-x="496" d="M216 660 Q225 660 225 651 L225 126 L441 126 Q450 126 450 117 L450 9 Q450 0 441 0 L102 0 Q94 0 94 9 L94 651 Q94 660 102 660 L216 660 L216 660 Z M365 864 Q370 864 372.5 859 Q375 854 371 849 L295 752 Q293 750 291.5 749.5 Q290 749 287 749 L181 749 Q178 749 175 752 L97 849 Q94 853 96 858.5 Q98 864 103 864 L181 864 Q185 864 190 859 L233 799 L277 859 Q282 864 285 864 L365 864 L365 864 Z " />
<glyph glyph-name="Ldot" unicode="&#x13f;" horiz-adv-x="529" d="M216 660 Q225 660 225 651 L225 126 L441 126 Q450 126 450 117 L450 9 Q450 0 441 0 L102 0 Q94 0 94 9 L94 651 Q94 660 102 660 L216 660 L216 660 Z M372 515 Q392 515 406 501 Q420 487 420 467 Q420 447 406 432 Q392 417 372 417 Q352 417 337 432 Q322 447 322 467 Q322 487 337 501 Q352 515 372 515 Z " />
<glyph glyph-name="ldot" unicode="&#x140;" horiz-adv-x="529" d="M216 660 Q225 660 225 651 L225 126 L441 126 Q450 126 450 117 L450 9 Q450 0 441 0 L102 0 Q94 0 94 9 L94 651 Q94 660 102 660 L216 660 L216 660 Z M372 515 Q392 515 406 501 Q420 487 420 467 Q420 447 406 432 Q392 417 372 417 Q352 417 337 432 Q322 447 322 467 Q322 487 337 501 Q352 515 372 515 Z " />
<glyph glyph-name="Nacute" unicode="&#x143;" horiz-adv-x="594" d="M367 651 Q367 660 376 660 L491 660 Q500 660 500 651 L500 9 Q500 0 491 0 L380 0 Q373 0 371 5 L225 334 L225 9 Q225 0 216 0 L102 0 Q94 0 94 9 L94 651 Q94 660 102 660 L220 660 Q224 660 227 655 L367 332 L367 651 L367 651 Z M301 855 Q302 861 310 861 L387 861 Q394 861 397 857.5 Q400 854 395 847 L342 771 Q338 764 332 764 L294 764 Q291 764 287.5 766.5 Q284 769 285 774 L301 855 Z " />
<glyph glyph-name="nacute" unicode="&#x144;" horiz-adv-x="594" d="M367 651 Q367 660 376 660 L491 660 Q500 660 500 651 L500 9 Q500 0 491 0 L380 0 Q373 0 371 5 L225 334 L225 9 Q225 0 216 0 L102 0 Q94 0 94 9 L94 651 Q94 660 102 660 L220 660 Q224 660 227 655 L367 332 L367 651 L367 651 Z M301 855 Q302 861 310 861 L387 861 Q394 861 397 857.5 Q400 854 395 847 L342 771 Q338 764 332 764 L294 764 Q291 764 287.5 766.5 Q284 769 285 774 L301 855 Z " />
<glyph glyph-name="uni0145" unicode="&#x145;" horiz-adv-x="594" d="M367 651 Q367 660 376 660 L491 660 Q500 660 500 651 L500 9 Q500 0 491 0 L380 0 Q373 0 371 5 L225 334 L225 9 Q225 0 216 0 L102 0 Q94 0 94 9 L94 651 Q94 660 102 660 L220 660 Q224 660 227 655 L367 332 L367 651 L367 651 Z M290 -73 Q308 -73 324 -79.5 Q340 -86 352 -97 Q364 -108 371.5 -124 Q379 -140 379 -158 Q379 -164 377.5 -171 Q376 -178 374 -183 L317 -331 Q315 -338 309 -338 L241 -338 Q234 -338 232 -334 Q230 -330 232 -325 L264 -245 Q238 -237 219 -213.5 Q200 -190 200 -160 Q200 -123 226.5 -98 Q253 -73 290 -73 Z " />
<glyph glyph-name="uni0146" unicode="&#x146;" horiz-adv-x="594" d="M367 651 Q367 660 376 660 L491 660 Q500 660 500 651 L500 9 Q500 0 491 0 L380 0 Q373 0 371 5 L225 334 L225 9 Q225 0 216 0 L102 0 Q94 0 94 9 L94 651 Q94 660 102 660 L220 660 Q224 660 227 655 L367 332 L367 651 L367 651 Z M290 -73 Q308 -73 324 -79.5 Q340 -86 352 -97 Q364 -108 371.5 -124 Q379 -140 379 -158 Q379 -164 377.5 -171 Q376 -178 374 -183 L317 -331 Q315 -338 309 -338 L241 -338 Q234 -338 232 -334 Q230 -330 232 -325 L264 -245 Q238 -237 219 -213.5 Q200 -190 200 -160 Q200 -123 226.5 -98 Q253 -73 290 -73 Z " />
<glyph glyph-name="Ncaron" unicode="&#x147;" horiz-adv-x="594" d="M367 651 Q367 660 376 660 L491 660 Q500 660 500 651 L500 9 Q500 0 491 0 L380 0 Q373 0 371 5 L225 334 L225 9 Q225 0 216 0 L102 0 Q94 0 94 9 L94 651 Q94 660 102 660 L220 660 Q224 660 227 655 L367 332 L367 651 L367 651 Z M445 869 Q450 869 452.5 864 Q455 859 451 854 L375 757 Q373 755 371.5 754.5 Q370 754 367 754 L261 754 Q258 754 255 757 L177 854 Q174 858 176 863.5 Q178 869 183 869 L261 869 Q265 869 270 864 L313 804 L357 864 Q362 869 365 869 L445 869 L445 869 Z " />
<glyph glyph-name="ncaron" unicode="&#x148;" horiz-adv-x="594" d="M367 651 Q367 660 376 660 L491 660 Q500 660 500 651 L500 9 Q500 0 491 0 L380 0 Q373 0 371 5 L225 334 L225 9 Q225 0 216 0 L102 0 Q94 0 94 9 L94 651 Q94 660 102 660 L220 660 Q224 660 227 655 L367 332 L367 651 L367 651 Z M445 869 Q450 869 452.5 864 Q455 859 451 854 L375 757 Q373 755 371.5 754.5 Q370 754 367 754 L261 754 Q258 754 255 757 L177 854 Q174 858 176 863.5 Q178 869 183 869 L261 869 Q265 869 270 864 L313 804 L357 864 Q362 869 365 869 L445 869 L445 869 Z " />
<glyph glyph-name="napostrophe" unicode="&#x149;" horiz-adv-x="594" d="M106 823 Q116 823 115 811 L103 726 Q100 717 95 717 L59 717 Q51 717 50 726 L38 812 Q36 817 39.5 820 Q43 823 48 823 L106 823 Z M367 651 Q367 660 376 660 L491 660 Q500 660 500 651 L500 9 Q500 0 491 0 L380 0 Q373 0 371 5 L225 334 L225 9 Q225 0 216 0 L102 0 Q94 0 94 9 L94 651 Q94 660 102 660 L220 660 Q224 660 227 655 L367 332 L367 651 L367 651 Z " />
<glyph glyph-name="Omacron" unicode="&#x14c;" horiz-adv-x="620" d="M311 669 Q439 669 495 609 Q539 561 539 462 L539 199 Q539 97 495 50 Q466 20 421 5 Q376 -10 311 -10 Q244 -10 199.5 5 Q155 20 126 50 Q104 74 92.5 110.5 Q81 147 81 199 L81 462 Q81 560 126 610 Q155 641 200 655 Q245 669 311 669 Z M406 429 Q406 462 398 482.5 Q390 503 377 515 Q364 527 348 531 Q332 535 316 535 L304 535 Q256 535 235.5 506.5 Q215 478 215 429 L215 229 Q215 196 223 175 Q231 154 243.5 142.5 Q256 131 272 126.5 Q288 122 304 122 L316 122 Q364 122 384.5 151.5 Q405 181 406 229 L406 429 Z M433 850 Q435 850 437.5 847.5 Q440 845 440 843 L440 755 Q440 748 433 748 L193 748 Q183 748 183 755 L183 843 Q183 850 193 850 L433 850 Z " />
<glyph glyph-name="omacron" unicode="&#x14d;" horiz-adv-x="620" d="M311 669 Q439 669 495 609 Q539 561 539 462 L539 199 Q539 97 495 50 Q466 20 421 5 Q376 -10 311 -10 Q244 -10 199.5 5 Q155 20 126 50 Q104 74 92.5 110.5 Q81 147 81 199 L81 462 Q81 560 126 610 Q155 641 200 655 Q245 669 311 669 Z M406 429 Q406 462 398 482.5 Q390 503 377 515 Q364 527 348 531 Q332 535 316 535 L304 535 Q256 535 235.5 506.5 Q215 478 215 429 L215 229 Q215 196 223 175 Q231 154 243.5 142.5 Q256 131 272 126.5 Q288 122 304 122 L316 122 Q364 122 384.5 151.5 Q405 181 406 229 L406 429 Z M433 850 Q435 850 437.5 847.5 Q440 845 440 843 L440 755 Q440 748 433 748 L193 748 Q183 748 183 755 L183 843 Q183 850 193 850 L433 850 Z " />
<glyph glyph-name="Obreve" unicode="&#x14e;" horiz-adv-x="620" d="M311 669 Q439 669 495 609 Q539 561 539 462 L539 199 Q539 97 495 50 Q466 20 421 5 Q376 -10 311 -10 Q244 -10 199.5 5 Q155 20 126 50 Q104 74 92.5 110.5 Q81 147 81 199 L81 462 Q81 560 126 610 Q155 641 200 655 Q245 669 311 669 Z M406 429 Q406 462 398 482.5 Q390 503 377 515 Q364 527 348 531 Q332 535 316 535 L304 535 Q256 535 235.5 506.5 Q215 478 215 429 L215 229 Q215 196 223 175 Q231 154 243.5 142.5 Q256 131 272 126.5 Q288 122 304 122 L316 122 Q364 122 384.5 151.5 Q405 181 406 229 L406 429 Z M425 889 Q434 889 434 879 Q434 854 425 832.5 Q416 811 400 795.5 Q384 780 362 771 Q340 762 315 762 Q291 762 269.5 770.5 Q248 779 231.5 795 Q215 811 205 832 Q195 853 195 879 Q195 889 204 889 L284 889 Q292 889 292 881 Q292 872 297.5 865 Q303 858 315 858 Q323 858 329.5 864 Q336 870 336 881 Q336 889 345 889 L425 889 Z " />
<glyph glyph-name="obreve" unicode="&#x14f;" horiz-adv-x="620" d="M311 669 Q439 669 495 609 Q539 561 539 462 L539 199 Q539 97 495 50 Q466 20 421 5 Q376 -10 311 -10 Q244 -10 199.5 5 Q155 20 126 50 Q104 74 92.5 110.5 Q81 147 81 199 L81 462 Q81 560 126 610 Q155 641 200 655 Q245 669 311 669 Z M406 429 Q406 462 398 482.5 Q390 503 377 515 Q364 527 348 531 Q332 535 316 535 L304 535 Q256 535 235.5 506.5 Q215 478 215 429 L215 229 Q215 196 223 175 Q231 154 243.5 142.5 Q256 131 272 126.5 Q288 122 304 122 L316 122 Q364 122 384.5 151.5 Q405 181 406 229 L406 429 Z M425 889 Q434 889 434 879 Q434 854 425 832.5 Q416 811 400 795.5 Q384 780 362 771 Q340 762 315 762 Q291 762 269.5 770.5 Q248 779 231.5 795 Q215 811 205 832 Q195 853 195 879 Q195 889 204 889 L284 889 Q292 889 292 881 Q292 872 297.5 865 Q303 858 315 858 Q323 858 329.5 864 Q336 870 336 881 Q336 889 345 889 L425 889 Z " />
<glyph glyph-name="Ohungarumlaut" unicode="&#x150;" horiz-adv-x="620" d="M311 669 Q439 669 495 609 Q539 561 539 462 L539 199 Q539 97 495 50 Q466 20 421 5 Q376 -10 311 -10 Q244 -10 199.5 5 Q155 20 126 50 Q104 74 92.5 110.5 Q81 147 81 199 L81 462 Q81 560 126 610 Q155 641 200 655 Q245 669 311 669 Z M406 429 Q406 462 398 482.5 Q390 503 377 515 Q364 527 348 531 Q332 535 316 535 L304 535 Q256 535 235.5 506.5 Q215 478 215 429 L215 229 Q215 196 223 175 Q231 154 243.5 142.5 Q256 131 272 126.5 Q288 122 304 122 L316 122 Q364 122 384.5 151.5 Q405 181 406 229 L406 429 Z M250 752 Q246 752 242 753.5 Q238 755 240 761 L252 848 Q253 857 261 857 L320 857 Q332 857 327 845 L292 756 Q291 752 283 752 L250 752 Z M402 857 Q408 857 410 853.5 Q412 850 410 845 L376 756 Q375 752 367 752 L332 752 Q328 752 325 754 Q322 756 323 761 L335 848 Q336 857 345 857 L402 857 Z " />
<glyph glyph-name="ohungarumlaut" unicode="&#x151;" horiz-adv-x="620" d="M311 669 Q439 669 495 609 Q539 561 539 462 L539 199 Q539 97 495 50 Q466 20 421 5 Q376 -10 311 -10 Q244 -10 199.5 5 Q155 20 126 50 Q104 74 92.5 110.5 Q81 147 81 199 L81 462 Q81 560 126 610 Q155 641 200 655 Q245 669 311 669 Z M406 429 Q406 462 398 482.5 Q390 503 377 515 Q364 527 348 531 Q332 535 316 535 L304 535 Q256 535 235.5 506.5 Q215 478 215 429 L215 229 Q215 196 223 175 Q231 154 243.5 142.5 Q256 131 272 126.5 Q288 122 304 122 L316 122 Q364 122 384.5 151.5 Q405 181 406 229 L406 429 Z M250 752 Q246 752 242 753.5 Q238 755 240 761 L252 848 Q253 857 261 857 L320 857 Q332 857 327 845 L292 756 Q291 752 283 752 L250 752 Z M402 857 Q408 857 410 853.5 Q412 850 410 845 L376 756 Q375 752 367 752 L332 752 Q328 752 325 754 Q322 756 323 761 L335 848 Q336 857 345 857 L402 857 Z " />
<glyph glyph-name="Racute" unicode="&#x154;" horiz-adv-x="570" d="M469 261 Q447 216 407 197 L491 12 Q493 7 491 3.5 Q489 0 484 0 L361 0 Q356 0 354 5 L276 175 L225 175 L225 9 Q225 0 216 0 L101 0 Q94 0 94 9 L94 651 Q94 660 101 660 L309 660 Q393 660 440 614 Q487 568 487 480 L487 354 Q487 328 482.5 304 Q478 280 469 261 Z M356 450 Q356 476 350.5 491.5 Q345 507 333 515 Q321 523 301.5 525 Q282 527 254 527 L225 527 L225 306 L254 306 Q278 306 296.5 307.5 Q315 309 328 316.5 Q341 324 348 340 Q355 356 356 385 L356 450 Z M266 855 Q267 861 275 861 L352 861 Q359 861 362 857.5 Q365 854 360 847 L307 771 Q303 764 297 764 L259 764 Q256 764 252.5 766.5 Q249 769 250 774 L266 855 Z " />
<glyph glyph-name="racute" unicode="&#x155;" horiz-adv-x="570" d="M469 261 Q447 216 407 197 L491 12 Q493 7 491 3.5 Q489 0 484 0 L361 0 Q356 0 354 5 L276 175 L225 175 L225 9 Q225 0 216 0 L101 0 Q94 0 94 9 L94 651 Q94 660 101 660 L309 660 Q393 660 440 614 Q487 568 487 480 L487 354 Q487 328 482.5 304 Q478 280 469 261 Z M356 450 Q356 476 350.5 491.5 Q345 507 333 515 Q321 523 301.5 525 Q282 527 254 527 L225 527 L225 306 L254 306 Q278 306 296.5 307.5 Q315 309 328 316.5 Q341 324 348 340 Q355 356 356 385 L356 450 Z M266 855 Q267 861 275 861 L352 861 Q359 861 362 857.5 Q365 854 360 847 L307 771 Q303 764 297 764 L259 764 Q256 764 252.5 766.5 Q249 769 250 774 L266 855 Z " />
<glyph glyph-name="uni0156" unicode="&#x156;" horiz-adv-x="570" d="M469 261 Q447 216 407 197 L491 12 Q493 7 491 3.5 Q489 0 484 0 L361 0 Q356 0 354 5 L276 175 L225 175 L225 9 Q225 0 216 0 L101 0 Q94 0 94 9 L94 651 Q94 660 101 660 L309 660 Q393 660 440 614 Q487 568 487 480 L487 354 Q487 328 482.5 304 Q478 280 469 261 Z M356 450 Q356 476 350.5 491.5 Q345 507 333 515 Q321 523 301.5 525 Q282 527 254 527 L225 527 L225 306 L254 306 Q278 306 296.5 307.5 Q315 309 328 316.5 Q341 324 348 340 Q355 356 356 385 L356 450 Z M272 -71 Q290 -71 306 -77.5 Q322 -84 334 -95 Q346 -106 353.5 -122 Q361 -138 361 -156 Q361 -162 359.5 -169 Q358 -176 356 -181 L299 -329 Q297 -336 291 -336 L223 -336 Q216 -336 214 -332 Q212 -328 214 -323 L246 -243 Q220 -235 201 -211.5 Q182 -188 182 -158 Q182 -121 208.5 -96 Q235 -71 272 -71 Z " />
<glyph glyph-name="uni0157" unicode="&#x157;" horiz-adv-x="570" d="M469 261 Q447 216 407 197 L491 12 Q493 7 491 3.5 Q489 0 484 0 L361 0 Q356 0 354 5 L276 175 L225 175 L225 9 Q225 0 216 0 L101 0 Q94 0 94 9 L94 651 Q94 660 101 660 L309 660 Q393 660 440 614 Q487 568 487 480 L487 354 Q487 328 482.5 304 Q478 280 469 261 Z M356 450 Q356 476 350.5 491.5 Q345 507 333 515 Q321 523 301.5 525 Q282 527 254 527 L225 527 L225 306 L254 306 Q278 306 296.5 307.5 Q315 309 328 316.5 Q341 324 348 340 Q355 356 356 385 L356 450 Z M272 -71 Q290 -71 306 -77.5 Q322 -84 334 -95 Q346 -106 353.5 -122 Q361 -138 361 -156 Q361 -162 359.5 -169 Q358 -176 356 -181 L299 -329 Q297 -336 291 -336 L223 -336 Q216 -336 214 -332 Q212 -328 214 -323 L246 -243 Q220 -235 201 -211.5 Q182 -188 182 -158 Q182 -121 208.5 -96 Q235 -71 272 -71 Z " />
<glyph glyph-name="Rcaron" unicode="&#x158;" horiz-adv-x="570" d="M469 261 Q447 216 407 197 L491 12 Q493 7 491 3.5 Q489 0 484 0 L361 0 Q356 0 354 5 L276 175 L225 175 L225 9 Q225 0 216 0 L101 0 Q94 0 94 9 L94 651 Q94 660 101 660 L309 660 Q393 660 440 614 Q487 568 487 480 L487 354 Q487 328 482.5 304 Q478 280 469 261 Z M356 450 Q356 476 350.5 491.5 Q345 507 333 515 Q321 523 301.5 525 Q282 527 254 527 L225 527 L225 306 L254 306 Q278 306 296.5 307.5 Q315 309 328 316.5 Q341 324 348 340 Q355 356 356 385 L356 450 Z M418 869 Q423 869 425.5 864 Q428 859 424 854 L348 757 Q346 755 344.5 754.5 Q343 754 340 754 L234 754 Q231 754 228 757 L150 854 Q147 858 149 863.5 Q151 869 156 869 L234 869 Q238 869 243 864 L286 804 L330 864 Q335 869 338 869 L418 869 L418 869 Z " />
<glyph glyph-name="rcaron" unicode="&#x159;" horiz-adv-x="570" d="M469 261 Q447 216 407 197 L491 12 Q493 7 491 3.5 Q489 0 484 0 L361 0 Q356 0 354 5 L276 175 L225 175 L225 9 Q225 0 216 0 L101 0 Q94 0 94 9 L94 651 Q94 660 101 660 L309 660 Q393 660 440 614 Q487 568 487 480 L487 354 Q487 328 482.5 304 Q478 280 469 261 Z M356 450 Q356 476 350.5 491.5 Q345 507 333 515 Q321 523 301.5 525 Q282 527 254 527 L225 527 L225 306 L254 306 Q278 306 296.5 307.5 Q315 309 328 316.5 Q341 324 348 340 Q355 356 356 385 L356 450 Z M418 869 Q423 869 425.5 864 Q428 859 424 854 L348 757 Q346 755 344.5 754.5 Q343 754 340 754 L234 754 Q231 754 228 757 L150 854 Q147 858 149 863.5 Q151 869 156 869 L234 869 Q238 869 243 864 L286 804 L330 864 Q335 869 338 869 L418 869 L418 869 Z " />
<glyph glyph-name="Sacute" unicode="&#x15a;" horiz-adv-x="550" d="M319 405 Q347 391 378 373.5 Q409 356 435 332 Q461 308 477.5 278 Q494 248 494 209 Q494 198 492.5 182 Q491 166 487 147.5 Q483 129 475.5 109.5 Q468 90 456 72 Q401 -10 281 -10 Q249 -10 216 -2 Q183 6 153.5 22.5 Q124 39 101 64 Q78 89 66 124 Q64 129 69 132 L161 211 Q169 217 174 209 Q176 205 178.5 199.5 Q181 194 185 186 Q196 163 221 143.5 Q246 124 276 124 Q288 124 300.5 127.5 Q313 131 324 138.5 Q335 146 342 158.5 Q349 171 349 189 Q349 206 338.5 220 Q328 234 312.5 244.5 Q297 255 279.5 262.5 Q262 270 247 276 Q213 290 179.5 307.5 Q146 325 117 351 Q56 408 56 481 Q56 528 75.5 563 Q95 598 127 621.5 Q159 645 199 657 Q239 669 280 669 Q409 669 472 535 Q475 528 469 524 L380 462 Q375 459 370 465 Q344 502 320 519.5 Q296 537 266 537 Q258 537 246 535 Q234 533 223 528 Q212 523 204 514.5 Q196 506 196 492 Q196 475 209.5 462 Q223 449 242.5 438.5 Q262 428 283 420 Q304 412 319 405 Z M288 855 Q289 861 297 861 L374 861 Q381 861 384 857.5 Q387 854 382 847 L329 771 Q325 764 319 764 L281 764 Q278 764 274.5 766.5 Q271 769 272 774 L288 855 Z " />
<glyph glyph-name="sacute" unicode="&#x15b;" horiz-adv-x="550" d="M289 855 Q290 861 297 861 L375 861 Q380 861 383.5 857.5 Q387 854 382 847 Q362 818 351.5 803 Q341 788 336 780 L329 770 Q327 767 325 765.5 Q323 764 317 764 L281 764 Q273 764 272 767 Q271 770 272 774 L289 855 Z M319 405 Q347 391 378 373.5 Q409 356 435 332 Q461 308 477.5 278 Q494 248 494 209 Q494 198 492.5 182 Q491 166 487 147.5 Q483 129 475.5 109.5 Q468 90 456 72 Q401 -10 281 -10 Q249 -10 216 -2 Q183 6 153.5 22.5 Q124 39 101 64 Q78 89 66 124 Q64 129 69 132 L161 211 Q169 217 174 209 Q176 205 178.5 199.5 Q181 194 185 186 Q196 163 221 143.5 Q246 124 276 124 Q288 124 300.5 127.5 Q313 131 324 138.5 Q335 146 342 158.5 Q349 171 349 189 Q349 206 338.5 220 Q328 234 312.5 244.5 Q297 255 279.5 262.5 Q262 270 247 276 Q213 290 179.5 307.5 Q146 325 117 351 Q56 408 56 481 Q56 528 75.5 563 Q95 598 127 621.5 Q159 645 199 657 Q239 669 280 669 Q409 669 472 535 Q475 528 469 524 L380 462 Q375 459 370 465 Q344 502 320 519.5 Q296 537 266 537 Q258 537 246 535 Q234 533 223 528 Q212 523 204 514.5 Q196 506 196 492 Q196 475 209.5 462 Q223 449 242.5 438.5 Q262 428 283 420 Q304 412 319 405 Z " />
<glyph glyph-name="Scircumflex" unicode="&#x15c;" horiz-adv-x="550" d="M319 405 Q347 391 378 373.5 Q409 356 435 332 Q461 308 477.5 278 Q494 248 494 209 Q494 198 492.5 182 Q491 166 487 147.5 Q483 129 475.5 109.5 Q468 90 456 72 Q401 -10 281 -10 Q249 -10 216 -2 Q183 6 153.5 22.5 Q124 39 101 64 Q78 89 66 124 Q64 129 69 132 L161 211 Q169 217 174 209 Q176 205 178.5 199.5 Q181 194 185 186 Q196 163 221 143.5 Q246 124 276 124 Q288 124 300.5 127.5 Q313 131 324 138.5 Q335 146 342 158.5 Q349 171 349 189 Q349 206 338.5 220 Q328 234 312.5 244.5 Q297 255 279.5 262.5 Q262 270 247 276 Q213 290 179.5 307.5 Q146 325 117 351 Q56 408 56 481 Q56 528 75.5 563 Q95 598 127 621.5 Q159 645 199 657 Q239 669 280 669 Q409 669 472 535 Q475 528 469 524 L380 462 Q375 459 370 465 Q344 502 320 519.5 Q296 537 266 537 Q258 537 246 535 Q234 533 223 528 Q212 523 204 514.5 Q196 506 196 492 Q196 475 209.5 462 Q223 449 242.5 438.5 Q262 428 283 420 Q304 412 319 405 Z M134 750 Q128 750 125 755 Q122 760 127 765 L215 861 Q219 865 221 865 L327 865 Q330 865 335 860 L401 763 Q403 761 401.5 755.5 Q400 750 394 750 L314 750 Q308 750 306 755 L270 815 L217 753 Q215 750 211 750 L134 750 L134 750 Z " />
<glyph glyph-name="scircumflex" unicode="&#x15d;" horiz-adv-x="550" d="M319 405 Q347 391 378 373.5 Q409 356 435 332 Q461 308 477.5 278 Q494 248 494 209 Q494 198 492.5 182 Q491 166 487 147.5 Q483 129 475.5 109.5 Q468 90 456 72 Q401 -10 281 -10 Q249 -10 216 -2 Q183 6 153.5 22.5 Q124 39 101 64 Q78 89 66 124 Q64 129 69 132 L161 211 Q169 217 174 209 Q176 205 178.5 199.5 Q181 194 185 186 Q196 163 221 143.5 Q246 124 276 124 Q288 124 300.5 127.5 Q313 131 324 138.5 Q335 146 342 158.5 Q349 171 349 189 Q349 206 338.5 220 Q328 234 312.5 244.5 Q297 255 279.5 262.5 Q262 270 247 276 Q213 290 179.5 307.5 Q146 325 117 351 Q56 408 56 481 Q56 528 75.5 563 Q95 598 127 621.5 Q159 645 199 657 Q239 669 280 669 Q409 669 472 535 Q475 528 469 524 L380 462 Q375 459 370 465 Q344 502 320 519.5 Q296 537 266 537 Q258 537 246 535 Q234 533 223 528 Q212 523 204 514.5 Q196 506 196 492 Q196 475 209.5 462 Q223 449 242.5 438.5 Q262 428 283 420 Q304 412 319 405 Z M134 750 Q128 750 125 755 Q122 760 127 765 L215 861 Q219 865 221 865 L327 865 Q330 865 335 860 L401 763 Q403 761 401.5 755.5 Q400 750 394 750 L314 750 Q308 750 306 755 L270 815 L217 753 Q215 750 211 750 L134 750 L134 750 Z " />
<glyph glyph-name="Scaron" unicode="&#x160;" horiz-adv-x="550" d="M431 869 Q436 869 438.5 864 Q441 859 437 854 L361 757 Q359 755 357.5 754.5 Q356 754 353 754 L247 754 Q244 754 241 757 L163 854 Q160 858 162 863.5 Q164 869 169 869 L247 869 Q251 869 256 864 L299 804 L343 864 Q348 869 351 869 L431 869 L431 869 Z M319 405 Q347 391 378 373.5 Q409 356 435 332 Q461 308 477.5 278 Q494 248 494 209 Q494 198 492.5 182 Q491 166 487 147.5 Q483 129 475.5 109.5 Q468 90 456 72 Q401 -10 281 -10 Q249 -10 216 -2 Q183 6 153.5 22.5 Q124 39 101 64 Q78 89 66 124 Q64 129 69 132 L161 211 Q169 217 174 209 Q176 205 178.5 199.5 Q181 194 185 186 Q196 163 221 143.5 Q246 124 276 124 Q288 124 300.5 127.5 Q313 131 324 138.5 Q335 146 342 158.5 Q349 171 349 189 Q349 206 338.5 220 Q328 234 312.5 244.5 Q297 255 279.5 262.5 Q262 270 247 276 Q213 290 179.5 307.5 Q146 325 117 351 Q56 408 56 481 Q56 528 75.5 563 Q95 598 127 621.5 Q159 645 199 657 Q239 669 280 669 Q409 669 472 535 Q475 528 469 524 L380 462 Q375 459 370 465 Q344 502 320 519.5 Q296 537 266 537 Q258 537 246 535 Q234 533 223 528 Q212 523 204 514.5 Q196 506 196 492 Q196 475 209.5 462 Q223 449 242.5 438.5 Q262 428 283 420 Q304 412 319 405 Z " />
<glyph glyph-name="scaron" unicode="&#x161;" horiz-adv-x="550" d="M431 869 Q436 869 438.5 864 Q441 859 437 854 L361 757 Q359 755 357.5 754.5 Q356 754 353 754 L247 754 Q244 754 241 757 L163 854 Q160 858 162 863.5 Q164 869 169 869 L247 869 Q251 869 256 864 L299 804 L343 864 Q348 869 351 869 L431 869 L431 869 Z M319 405 Q347 391 378 373.5 Q409 356 435 332 Q461 308 477.5 278 Q494 248 494 209 Q494 198 492.5 182 Q491 166 487 147.5 Q483 129 475.5 109.5 Q468 90 456 72 Q401 -10 281 -10 Q249 -10 216 -2 Q183 6 153.5 22.5 Q124 39 101 64 Q78 89 66 124 Q64 129 69 132 L161 211 Q169 217 174 209 Q176 205 178.5 199.5 Q181 194 185 186 Q196 163 221 143.5 Q246 124 276 124 Q288 124 300.5 127.5 Q313 131 324 138.5 Q335 146 342 158.5 Q349 171 349 189 Q349 206 338.5 220 Q328 234 312.5 244.5 Q297 255 279.5 262.5 Q262 270 247 276 Q213 290 179.5 307.5 Q146 325 117 351 Q56 408 56 481 Q56 528 75.5 563 Q95 598 127 621.5 Q159 645 199 657 Q239 669 280 669 Q409 669 472 535 Q475 528 469 524 L380 462 Q375 459 370 465 Q344 502 320 519.5 Q296 537 266 537 Q258 537 246 535 Q234 533 223 528 Q212 523 204 514.5 Q196 506 196 492 Q196 475 209.5 462 Q223 449 242.5 438.5 Q262 428 283 420 Q304 412 319 405 Z " />
<glyph glyph-name="uni0162" unicode="&#x162;" horiz-adv-x="527" d="M55 535 Q46 535 46 544 L46 651 Q46 660 55 660 L472 660 Q481 660 481 651 L481 544 Q481 535 472 535 L330 535 L330 9 Q330 0 321 0 L206 0 Q197 0 197 9 L197 535 L55 535 L55 535 Z M265 -56 Q283 -56 299 -62.5 Q315 -69 327 -80 Q339 -91 346.5 -107 Q354 -123 354 -141 Q354 -147 352.5 -154 Q351 -161 349 -166 L292 -314 Q290 -321 284 -321 L216 -321 Q209 -321 207 -317 Q205 -313 207 -308 L239 -228 Q213 -220 194 -196.5 Q175 -173 175 -143 Q175 -106 201.5 -81 Q228 -56 265 -56 Z " />
<glyph glyph-name="uni0163" unicode="&#x163;" horiz-adv-x="527" d="M55 535 Q46 535 46 544 L46 651 Q46 660 55 660 L472 660 Q481 660 481 651 L481 544 Q481 535 472 535 L330 535 L330 9 Q330 0 321 0 L206 0 Q197 0 197 9 L197 535 L55 535 L55 535 Z M265 -56 Q283 -56 299 -62.5 Q315 -69 327 -80 Q339 -91 346.5 -107 Q354 -123 354 -141 Q354 -147 352.5 -154 Q351 -161 349 -166 L292 -314 Q290 -321 284 -321 L216 -321 Q209 -321 207 -317 Q205 -313 207 -308 L239 -228 Q213 -220 194 -196.5 Q175 -173 175 -143 Q175 -106 201.5 -81 Q228 -56 265 -56 Z " />
<glyph glyph-name="Tcaron" unicode="&#x164;" horiz-adv-x="527" d="M55 535 Q46 535 46 544 L46 651 Q46 660 55 660 L472 660 Q481 660 481 651 L481 544 Q481 535 472 535 L330 535 L330 9 Q330 0 321 0 L206 0 Q197 0 197 9 L197 535 L55 535 L55 535 Z M390 869 Q395 869 397.5 864 Q400 859 396 854 L320 757 Q318 755 316.5 754.5 Q315 754 312 754 L206 754 Q203 754 200 757 L122 854 Q119 858 121 863.5 Q123 869 128 869 L206 869 Q210 869 215 864 L258 804 L302 864 Q307 869 310 869 L390 869 L390 869 Z " />
<glyph glyph-name="tcaron" unicode="&#x165;" horiz-adv-x="527" d="M55 535 Q46 535 46 544 L46 651 Q46 660 55 660 L472 660 Q481 660 481 651 L481 544 Q481 535 472 535 L330 535 L330 9 Q330 0 321 0 L206 0 Q197 0 197 9 L197 535 L55 535 L55 535 Z M390 869 Q395 869 397.5 864 Q400 859 396 854 L320 757 Q318 755 316.5 754.5 Q315 754 312 754 L206 754 Q203 754 200 757 L122 854 Q119 858 121 863.5 Q123 869 128 869 L206 869 Q210 869 215 864 L258 804 L302 864 Q307 869 310 869 L390 869 L390 869 Z " />
<glyph glyph-name="Utilde" unicode="&#x168;" horiz-adv-x="630" d="M412 651 Q412 660 421 660 L535 660 Q544 660 544 651 L544 199 Q544 90 486 40 Q428 -10 316 -10 Q263 -10 220.5 1 Q178 12 148.5 37 Q119 62 103 102 Q87 142 87 199 L87 651 Q87 660 96 660 L211 660 Q220 660 220 651 L220 231 Q220 198 228.5 177.5 Q237 157 250 145.5 Q263 134 279 129.5 Q295 125 310 125 L322 125 Q369 125 390.5 154 Q412 183 412 231 L412 651 Z M372 879 Q391 879 407.5 869.5 Q424 860 436 845 Q448 830 455 810.5 Q462 791 462 772 Q462 762 453 762 L387 762 Q378 762 378 770 Q378 778 371.5 784.5 Q365 791 356 791 Q348 791 340 785 Q332 779 323 771.5 Q314 764 302.5 758 Q291 752 276 752 Q253 752 236.5 761.5 Q220 771 208.5 786 Q197 801 191.5 820 Q186 839 186 859 Q186 869 196 869 L261 869 Q269 869 269 861 Q269 857 273.5 847 Q278 837 292 837 Q298 837 305.5 843 Q313 849 323 856.5 Q333 864 345 871 Q357 878 372 879 Z " />
<glyph glyph-name="utilde" unicode="&#x169;" horiz-adv-x="630" d="M412 651 Q412 660 421 660 L535 660 Q544 660 544 651 L544 199 Q544 90 486 40 Q428 -10 316 -10 Q263 -10 220.5 1 Q178 12 148.5 37 Q119 62 103 102 Q87 142 87 199 L87 651 Q87 660 96 660 L211 660 Q220 660 220 651 L220 231 Q220 198 228.5 177.5 Q237 157 250 145.5 Q263 134 279 129.5 Q295 125 310 125 L322 125 Q369 125 390.5 154 Q412 183 412 231 L412 651 Z M372 879 Q391 879 407.5 869.5 Q424 860 436 845 Q448 830 455 810.5 Q462 791 462 772 Q462 762 453 762 L387 762 Q378 762 378 770 Q378 778 371.5 784.5 Q365 791 356 791 Q348 791 340 785 Q332 779 323 771.5 Q314 764 302.5 758 Q291 752 276 752 Q253 752 236.5 761.5 Q220 771 208.5 786 Q197 801 191.5 820 Q186 839 186 859 Q186 869 196 869 L261 869 Q269 869 269 861 Q269 857 273.5 847 Q278 837 292 837 Q298 837 305.5 843 Q313 849 323 856.5 Q333 864 345 871 Q357 878 372 879 Z " />
<glyph glyph-name="Umacron" unicode="&#x16a;" horiz-adv-x="630" d="M412 651 Q412 660 421 660 L535 660 Q544 660 544 651 L544 199 Q544 90 486 40 Q428 -10 316 -10 Q263 -10 220.5 1 Q178 12 148.5 37 Q119 62 103 102 Q87 142 87 199 L87 651 Q87 660 96 660 L211 660 Q220 660 220 651 L220 231 Q220 198 228.5 177.5 Q237 157 250 145.5 Q263 134 279 129.5 Q295 125 310 125 L322 125 Q369 125 390.5 154 Q412 183 412 231 L412 651 Z M443 850 Q445 850 447.5 847.5 Q450 845 450 843 L450 755 Q450 748 443 748 L203 748 Q193 748 193 755 L193 843 Q193 850 203 850 L443 850 Z " />
<glyph glyph-name="umacron" unicode="&#x16b;" horiz-adv-x="630" d="M412 651 Q412 660 421 660 L535 660 Q544 660 544 651 L544 199 Q544 90 486 40 Q428 -10 316 -10 Q263 -10 220.5 1 Q178 12 148.5 37 Q119 62 103 102 Q87 142 87 199 L87 651 Q87 660 96 660 L211 660 Q220 660 220 651 L220 231 Q220 198 228.5 177.5 Q237 157 250 145.5 Q263 134 279 129.5 Q295 125 310 125 L322 125 Q369 125 390.5 154 Q412 183 412 231 L412 651 Z M443 850 Q445 850 447.5 847.5 Q450 845 450 843 L450 755 Q450 748 443 748 L203 748 Q193 748 193 755 L193 843 Q193 850 203 850 L443 850 Z " />
<glyph glyph-name="Ubreve" unicode="&#x16c;" horiz-adv-x="630" d="M412 651 Q412 660 421 660 L535 660 Q544 660 544 651 L544 199 Q544 90 486 40 Q428 -10 316 -10 Q263 -10 220.5 1 Q178 12 148.5 37 Q119 62 103 102 Q87 142 87 199 L87 651 Q87 660 96 660 L211 660 Q220 660 220 651 L220 231 Q220 198 228.5 177.5 Q237 157 250 145.5 Q263 134 279 129.5 Q295 125 310 125 L322 125 Q369 125 390.5 154 Q412 183 412 231 L412 651 Z M425 889 Q434 889 434 879 Q434 854 425 832.5 Q416 811 400 795.5 Q384 780 362 771 Q340 762 315 762 Q291 762 269.5 770.5 Q248 779 231.5 795 Q215 811 205 832 Q195 853 195 879 Q195 889 204 889 L284 889 Q292 889 292 881 Q292 872 297.5 865 Q303 858 315 858 Q323 858 329.5 864 Q336 870 336 881 Q336 889 345 889 L425 889 Z " />
<glyph glyph-name="ubreve" unicode="&#x16d;" horiz-adv-x="630" d="M412 651 Q412 660 421 660 L535 660 Q544 660 544 651 L544 199 Q544 90 486 40 Q428 -10 316 -10 Q263 -10 220.5 1 Q178 12 148.5 37 Q119 62 103 102 Q87 142 87 199 L87 651 Q87 660 96 660 L211 660 Q220 660 220 651 L220 231 Q220 198 228.5 177.5 Q237 157 250 145.5 Q263 134 279 129.5 Q295 125 310 125 L322 125 Q369 125 390.5 154 Q412 183 412 231 L412 651 Z M425 889 Q434 889 434 879 Q434 854 425 832.5 Q416 811 400 795.5 Q384 780 362 771 Q340 762 315 762 Q291 762 269.5 770.5 Q248 779 231.5 795 Q215 811 205 832 Q195 853 195 879 Q195 889 204 889 L284 889 Q292 889 292 881 Q292 872 297.5 865 Q303 858 315 858 Q323 858 329.5 864 Q336 870 336 881 Q336 889 345 889 L425 889 Z " />
<glyph glyph-name="Uring" unicode="&#x16e;" horiz-adv-x="630" d="M412 651 Q412 660 421 660 L535 660 Q544 660 544 651 L544 199 Q544 90 486 40 Q428 -10 316 -10 Q263 -10 220.5 1 Q178 12 148.5 37 Q119 62 103 102 Q87 142 87 199 L87 651 Q87 660 96 660 L211 660 Q220 660 220 651 L220 231 Q220 198 228.5 177.5 Q237 157 250 145.5 Q263 134 279 129.5 Q295 125 310 125 L322 125 Q369 125 390.5 154 Q412 183 412 231 L412 651 Z M413 832 Q413 786 387 762.5 Q361 739 313 739 Q268 739 240.5 760.5 Q213 782 211 832 L211 858 Q211 906 238 928.5 Q265 951 313 951 Q358 951 384 929 Q410 907 413 858 L413 832 Z M346 846 Q346 860 339.5 869.5 Q333 879 316 881 L309 881 Q289 881 284 869 Q279 857 279 846 Q279 832 286 821.5 Q293 811 309 809 L316 809 Q336 809 341 822 Q346 835 346 846 Z " />
<glyph glyph-name="uring" unicode="&#x16f;" horiz-adv-x="630" d="M412 651 Q412 660 421 660 L535 660 Q544 660 544 651 L544 199 Q544 90 486 40 Q428 -10 316 -10 Q263 -10 220.5 1 Q178 12 148.5 37 Q119 62 103 102 Q87 142 87 199 L87 651 Q87 660 96 660 L211 660 Q220 660 220 651 L220 231 Q220 198 228.5 177.5 Q237 157 250 145.5 Q263 134 279 129.5 Q295 125 310 125 L322 125 Q369 125 390.5 154 Q412 183 412 231 L412 651 Z M413 832 Q413 786 387 762.5 Q361 739 313 739 Q268 739 240.5 760.5 Q213 782 211 832 L211 858 Q211 906 238 928.5 Q265 951 313 951 Q358 951 384 929 Q410 907 413 858 L413 832 Z M346 846 Q346 860 339.5 869.5 Q333 879 316 881 L309 881 Q289 881 284 869 Q279 857 279 846 Q279 832 286 821.5 Q293 811 309 809 L316 809 Q336 809 341 822 Q346 835 346 846 Z " />
<glyph glyph-name="Uhungarumlaut" unicode="&#x170;" horiz-adv-x="630" d="M412 651 Q412 660 421 660 L535 660 Q544 660 544 651 L544 199 Q544 90 486 40 Q428 -10 316 -10 Q263 -10 220.5 1 Q178 12 148.5 37 Q119 62 103 102 Q87 142 87 199 L87 651 Q87 660 96 660 L211 660 Q220 660 220 651 L220 231 Q220 198 228.5 177.5 Q237 157 250 145.5 Q263 134 279 129.5 Q295 125 310 125 L322 125 Q369 125 390.5 154 Q412 183 412 231 L412 651 Z M250 752 Q246 752 242 753.5 Q238 755 240 761 L252 848 Q253 857 261 857 L320 857 Q332 857 327 845 L292 756 Q291 752 283 752 L250 752 Z M402 857 Q408 857 410 853.5 Q412 850 410 845 L376 756 Q375 752 367 752 L332 752 Q328 752 325 754 Q322 756 323 761 L335 848 Q336 857 345 857 L402 857 Z " />
<glyph glyph-name="uhungarumlaut" unicode="&#x171;" horiz-adv-x="630" d="M412 651 Q412 660 421 660 L535 660 Q544 660 544 651 L544 199 Q544 90 486 40 Q428 -10 316 -10 Q263 -10 220.5 1 Q178 12 148.5 37 Q119 62 103 102 Q87 142 87 199 L87 651 Q87 660 96 660 L211 660 Q220 660 220 651 L220 231 Q220 198 228.5 177.5 Q237 157 250 145.5 Q263 134 279 129.5 Q295 125 310 125 L322 125 Q369 125 390.5 154 Q412 183 412 231 L412 651 Z M250 752 Q246 752 242 753.5 Q238 755 240 761 L252 848 Q253 857 261 857 L320 857 Q332 857 327 845 L292 756 Q291 752 283 752 L250 752 Z M402 857 Q408 857 410 853.5 Q412 850 410 845 L376 756 Q375 752 367 752 L332 752 Q328 752 325 754 Q322 756 323 761 L335 848 Q336 857 345 857 L402 857 Z " />
<glyph glyph-name="Wcircumflex" unicode="&#x174;" horiz-adv-x="874" d="M804 660 Q809 660 811.5 657 Q814 654 812 649 L640 6 Q638 0 631 0 L521 0 Q515 0 512 6 L444 259 L352 5 Q350 0 345 0 L239 0 Q232 0 231 6 L60 650 Q58 660 69 660 L184 660 Q189 660 191 654 L302 230 L385 481 L339 649 Q337 654 340 657 Q343 660 347 660 L471 660 Q477 660 479 654 L571 246 L681 654 Q683 660 689 660 L804 660 L804 660 Z M311 750 Q305 750 302 755 Q299 760 304 765 L392 861 Q396 865 398 865 L504 865 Q507 865 512 860 L578 763 Q580 761 578.5 755.5 Q577 750 571 750 L491 750 Q485 750 483 755 L447 815 L394 753 Q392 750 388 750 L311 750 L311 750 Z " />
<glyph glyph-name="wcircumflex" unicode="&#x175;" horiz-adv-x="874" d="M804 660 Q809 660 811.5 657 Q814 654 812 649 L640 6 Q638 0 631 0 L521 0 Q515 0 512 6 L444 259 L352 5 Q350 0 345 0 L239 0 Q232 0 231 6 L60 650 Q58 660 69 660 L184 660 Q189 660 191 654 L302 230 L385 481 L339 649 Q337 654 340 657 Q343 660 347 660 L471 660 Q477 660 479 654 L571 246 L681 654 Q683 660 689 660 L804 660 L804 660 Z M311 750 Q305 750 302 755 Q299 760 304 765 L392 861 Q396 865 398 865 L504 865 Q507 865 512 860 L578 763 Q580 761 578.5 755.5 Q577 750 571 750 L491 750 Q485 750 483 755 L447 815 L394 753 Q392 750 388 750 L311 750 L311 750 Z " />
<glyph glyph-name="Ycircumflex" unicode="&#x176;" horiz-adv-x="511" d="M341 655 Q343 659 344.5 659.5 Q346 660 349 660 L461 660 Q466 660 468.5 656.5 Q471 653 469 649 L324 312 L324 9 Q324 0 315 0 L197 0 Q190 0 190 9 L190 312 L41 647 Q37 660 49 660 L161 660 Q164 660 165.5 659.5 Q167 659 169 655 L256 487 L341 655 Z M134 750 Q128 750 125 755 Q122 760 127 765 L215 861 Q219 865 221 865 L327 865 Q330 865 335 860 L401 763 Q403 761 401.5 755.5 Q400 750 394 750 L314 750 Q308 750 306 755 L270 815 L217 753 Q215 750 211 750 L134 750 L134 750 Z " />
<glyph glyph-name="ycircumflex" unicode="&#x177;" horiz-adv-x="511" d="M341 655 Q343 659 344.5 659.5 Q346 660 349 660 L461 660 Q466 660 468.5 656.5 Q471 653 469 649 L324 312 L324 9 Q324 0 315 0 L197 0 Q190 0 190 9 L190 312 L41 647 Q37 660 49 660 L161 660 Q164 660 165.5 659.5 Q167 659 169 655 L256 487 L341 655 Z M134 750 Q128 750 125 755 Q122 760 127 765 L215 861 Q219 865 221 865 L327 865 Q330 865 335 860 L401 763 Q403 761 401.5 755.5 Q400 750 394 750 L314 750 Q308 750 306 755 L270 815 L217 753 Q215 750 211 750 L134 750 L134 750 Z " />
<glyph glyph-name="Ydieresis" unicode="&#x178;" horiz-adv-x="511" d="M341 655 Q343 659 344.5 659.5 Q346 660 349 660 L461 660 Q466 660 468.5 656.5 Q471 653 469 649 L324 312 L324 9 Q324 0 315 0 L197 0 Q190 0 190 9 L190 312 L41 647 Q37 660 49 660 L161 660 Q164 660 165.5 659.5 Q167 659 169 655 L256 487 L341 655 Z M155 811 Q155 831 169.5 845 Q184 859 205 859 Q225 859 238.5 845 Q252 831 252 811 Q252 791 238.5 776 Q225 761 205 761 Q184 761 169.5 776 Q155 791 155 811 Z M317 761 Q297 761 283.5 776 Q270 791 270 811 Q270 831 283.5 845 Q297 859 317 859 Q338 859 352 845 Q366 831 366 811 Q366 791 352 776 Q338 761 317 761 Z " />
<glyph glyph-name="Zacute" unicode="&#x179;" horiz-adv-x="590" d="M490 125 Q499 125 499 116 L499 9 Q499 0 490 0 L104 0 Q101 0 98 2 Q95 4 95 9 L95 120 L95 121 Q95 122 96 124 L337 535 L101 535 Q92 535 92 544 L92 651 Q92 660 101 660 L490 660 Q495 660 496 657 Q497 654 497 652 L497 540 Q497 537 496 536 L255 125 L490 125 Z M288 855 Q289 861 297 861 L374 861 Q381 861 384 857.5 Q387 854 382 847 L329 771 Q325 764 319 764 L281 764 Q278 764 274.5 766.5 Q271 769 272 774 L288 855 Z " />
<glyph glyph-name="zacute" unicode="&#x17a;" horiz-adv-x="590" d="M490 125 Q499 125 499 116 L499 9 Q499 0 490 0 L104 0 Q101 0 98 2 Q95 4 95 9 L95 120 L95 121 Q95 122 96 124 L337 535 L101 535 Q92 535 92 544 L92 651 Q92 660 101 660 L490 660 Q495 660 496 657 Q497 654 497 652 L497 540 Q497 537 496 536 L255 125 L490 125 Z M288 855 Q289 861 297 861 L374 861 Q381 861 384 857.5 Q387 854 382 847 L329 771 Q325 764 319 764 L281 764 Q278 764 274.5 766.5 Q271 769 272 774 L288 855 Z " />
<glyph glyph-name="Zdotaccent" unicode="&#x17b;" horiz-adv-x="590" d="M490 125 Q499 125 499 116 L499 9 Q499 0 490 0 L104 0 Q101 0 98 2 Q95 4 95 9 L95 120 L95 121 Q95 122 96 124 L337 535 L101 535 Q92 535 92 544 L92 651 Q92 660 101 660 L490 660 Q495 660 496 657 Q497 654 497 652 L497 540 Q497 537 496 536 L255 125 L490 125 Z M291 858 Q311 858 325 844 Q339 830 339 810 Q339 790 325 775 Q311 760 291 760 Q271 760 256 775 Q241 790 241 810 Q241 830 256 844 Q271 858 291 858 Z " />
<glyph glyph-name="zdotaccent" unicode="&#x17c;" horiz-adv-x="590" d="M490 125 Q499 125 499 116 L499 9 Q499 0 490 0 L104 0 Q101 0 98 2 Q95 4 95 9 L95 120 L95 121 Q95 122 96 124 L337 535 L101 535 Q92 535 92 544 L92 651 Q92 660 101 660 L490 660 Q495 660 496 657 Q497 654 497 652 L497 540 Q497 537 496 536 L255 125 L490 125 Z M291 858 Q311 858 325 844 Q339 830 339 810 Q339 790 325 775 Q311 760 291 760 Q271 760 256 775 Q241 790 241 810 Q241 830 256 844 Q271 858 291 858 Z " />
<glyph glyph-name="Zcaron" unicode="&#x17d;" horiz-adv-x="590" d="M490 125 Q499 125 499 116 L499 9 Q499 0 490 0 L104 0 Q101 0 98 2 Q95 4 95 9 L95 120 L95 121 Q95 122 96 124 L337 535 L101 535 Q92 535 92 544 L92 651 Q92 660 101 660 L490 660 Q495 660 496 657 Q497 654 497 652 L497 540 Q497 537 496 536 L255 125 L490 125 Z M434 869 Q439 869 441.5 864 Q444 859 440 854 L364 757 Q362 755 360.5 754.5 Q359 754 356 754 L250 754 Q247 754 244 757 L166 854 Q163 858 165 863.5 Q167 869 172 869 L250 869 Q254 869 259 864 L302 804 L346 864 Q351 869 354 869 L434 869 L434 869 Z " />
<glyph glyph-name="zcaron" unicode="&#x17e;" horiz-adv-x="590" d="M490 125 Q499 125 499 116 L499 9 Q499 0 490 0 L104 0 Q101 0 98 2 Q95 4 95 9 L95 120 L95 121 Q95 122 96 124 L337 535 L101 535 Q92 535 92 544 L92 651 Q92 660 101 660 L490 660 Q495 660 496 657 Q497 654 497 652 L497 540 Q497 537 496 536 L255 125 L490 125 Z M434 869 Q439 869 441.5 864 Q444 859 440 854 L364 757 Q362 755 360.5 754.5 Q359 754 356 754 L250 754 Q247 754 244 757 L166 854 Q163 858 165 863.5 Q167 869 172 869 L250 869 Q254 869 259 864 L302 804 L346 864 Q351 869 354 869 L434 869 L434 869 Z " />
<glyph glyph-name="ydieresis" unicode="&#xff;" horiz-adv-x="511" d="M341 655 Q343 659 344.5 659.5 Q346 660 349 660 L461 660 Q466 660 468.5 656.5 Q471 653 469 649 L324 312 L324 9 Q324 0 315 0 L197 0 Q190 0 190 9 L190 312 L41 647 Q37 660 49 660 L161 660 Q164 660 165.5 659.5 Q167 659 169 655 L256 487 L341 655 Z M149 811 Q149 831 163.5 845 Q178 859 199 859 Q219 859 232.5 845 Q246 831 246 811 Q246 791 232.5 776 Q219 761 199 761 Q178 761 163.5 776 Q149 791 149 811 Z M311 761 Q291 761 277.5 776 Q264 791 264 811 Q264 831 277.5 845 Q291 859 311 859 Q332 859 346 845 Q360 831 360 811 Q360 791 346 776 Q332 761 311 761 Z " />
<glyph glyph-name="Scedilla" unicode="&#x15e;" horiz-adv-x="575" d="M334 405 Q364 391 397 373.5 Q430 356 457 332 Q484 308 501.5 278 Q519 248 519 209 Q519 186 512 147.5 Q505 109 479 72 Q430 6 341 -6 L341 -30 L350 -30 Q365 -30 382 -33.5 Q399 -37 410 -48 L415 -53 Q423 -64 425 -80.5 Q427 -97 427 -119 L427 -136 Q427 -188 401 -210.5 Q375 -233 329 -233 L280 -233 Q275 -233 272.5 -230 Q270 -227 270 -225 L270 -153 Q270 -144 280 -144 L291 -144 Q303 -144 320 -142 Q337 -140 337 -131 Q337 -120 317 -120 Q297 -120 284.5 -117.5 Q272 -115 262 -106 Q254 -97 252 -81 Q250 -65 250 -39 L250 -6 Q221 -2 192.5 8 Q164 18 139.5 34 Q115 50 96 72.5 Q77 95 67 124 Q65 130 70 134 L169 211 Q177 218 181 209 L192 186 Q205 163 231 143.5 Q257 124 289 124 Q301 124 315 127.5 Q329 131 340 138.5 Q351 146 358.5 158.5 Q366 171 366 189 Q366 206 355 220 Q344 234 328 244.5 Q312 255 293 262.5 Q274 270 259 276 Q223 290 187.5 307.5 Q152 325 121 351 Q56 407 56 481 Q56 528 76.5 563 Q97 598 131 621.5 Q165 645 207.5 657 Q250 669 294 669 Q429 669 496 535 Q500 529 494 525 L400 464 Q393 459 389 466 L375 484 Q358 507 334.5 522 Q311 537 279 537 Q270 537 257.5 535 Q245 533 233.5 528 Q222 523 213.5 514.5 Q205 506 205 492 Q205 475 219 462 Q233 449 253.5 438.5 Q274 428 296 420 Q318 412 334 405 Z " />
<glyph glyph-name="Aring" unicode="&#xc5;" horiz-adv-x="577" d="M390 684 Q390 667 386 648.5 Q382 630 369 617 L531 10 Q533 0 524 0 L407 0 Q400 0 399 6 L362 146 L215 146 L177 6 Q175 0 170 0 L54 0 Q43 0 45 10 L210 616 Q202 627 196 644.5 Q190 662 190 684 L190 710 Q190 755 215 778.5 Q240 802 289 802 Q332 802 361 781 Q390 760 390 710 L390 684 Z M286 732 Q266 732 261.5 720.5 Q257 709 257 699 Q257 685 263 673 Q269 661 286 661 L291 661 Q312 661 316.5 673.5 Q321 686 321 699 Q321 712 314.5 722 Q308 732 291 732 L286 732 Z M330 271 L289 421 L249 271 L330 271 Z " />
<glyph glyph-name="Hbar" unicode="&#x126;" horiz-adv-x="727" d="M625 551 Q634 551 634 542 L634 456 Q634 447 625 447 L577 447 L577 9 Q577 0 569 0 L452 0 Q444 0 444 9 L444 275 L284 275 L284 9 Q284 0 275 0 L160 0 Q151 0 151 9 L151 447 L102 447 Q94 447 94 456 L94 542 Q94 551 102 551 L151 551 L151 651 Q151 660 160 660 L275 660 Q284 660 284 651 L284 551 L444 551 L444 651 Q444 660 452 660 L569 660 Q577 660 577 651 L577 551 L625 551 Z M444 447 L284 447 L284 400 L444 400 L444 447 Z " />
<glyph glyph-name="aring" unicode="&#xe5;" horiz-adv-x="577" d="M390 684 Q390 667 386 648.5 Q382 630 369 617 L531 10 Q533 0 524 0 L407 0 Q400 0 399 6 L362 146 L215 146 L177 6 Q175 0 170 0 L54 0 Q43 0 45 10 L210 616 Q202 627 196 644.5 Q190 662 190 684 L190 710 Q190 755 215 778.5 Q240 802 289 802 Q332 802 361 781 Q390 760 390 710 L390 684 Z M286 732 Q266 732 261.5 720.5 Q257 709 257 699 Q257 685 263 673 Q269 661 286 661 L291 661 Q312 661 316.5 673.5 Q321 686 321 699 Q321 712 314.5 722 Q308 732 291 732 L286 732 Z M330 271 L289 421 L249 271 L330 271 Z " />
<glyph glyph-name="hbar" unicode="&#x127;" horiz-adv-x="727" d="M625 551 Q634 551 634 542 L634 456 Q634 447 625 447 L577 447 L577 9 Q577 0 569 0 L452 0 Q444 0 444 9 L444 275 L284 275 L284 9 Q284 0 275 0 L160 0 Q151 0 151 9 L151 447 L102 447 Q94 447 94 456 L94 542 Q94 551 102 551 L151 551 L151 651 Q151 660 160 660 L275 660 Q284 660 284 651 L284 551 L444 551 L444 651 Q444 660 452 660 L569 660 Q577 660 577 651 L577 551 L625 551 Z M444 447 L284 447 L284 400 L444 400 L444 447 Z " />
<glyph glyph-name="scedilla" unicode="&#x15f;" horiz-adv-x="575" d="M334 405 Q364 391 397 373.5 Q430 356 457 332 Q484 308 501.5 278 Q519 248 519 209 Q519 186 512 147.5 Q505 109 479 72 Q430 6 341 -6 L341 -30 L350 -30 Q365 -30 382 -33.5 Q399 -37 410 -48 L415 -53 Q423 -64 425 -80.5 Q427 -97 427 -119 L427 -136 Q427 -188 401 -210.5 Q375 -233 329 -233 L280 -233 Q275 -233 272.5 -230 Q270 -227 270 -225 L270 -153 Q270 -144 280 -144 L291 -144 Q303 -144 320 -142 Q337 -140 337 -131 Q337 -120 317 -120 Q297 -120 284.5 -117.5 Q272 -115 262 -106 Q254 -97 252 -81 Q250 -65 250 -39 L250 -6 Q221 -2 192.5 8 Q164 18 139.5 34 Q115 50 96 72.5 Q77 95 67 124 Q65 130 70 134 L169 211 Q177 218 181 209 L192 186 Q205 163 231 143.5 Q257 124 289 124 Q301 124 315 127.5 Q329 131 340 138.5 Q351 146 358.5 158.5 Q366 171 366 189 Q366 206 355 220 Q344 234 328 244.5 Q312 255 293 262.5 Q274 270 259 276 Q223 290 187.5 307.5 Q152 325 121 351 Q56 407 56 481 Q56 528 76.5 563 Q97 598 131 621.5 Q165 645 207.5 657 Q250 669 294 669 Q429 669 496 535 Q500 529 494 525 L400 464 Q393 459 389 466 L375 484 Q358 507 334.5 522 Q311 537 279 537 Q270 537 257.5 535 Q245 533 233.5 528 Q222 523 213.5 514.5 Q205 506 205 492 Q205 475 219 462 Q233 449 253.5 438.5 Q274 428 296 420 Q318 412 334 405 Z " />
<glyph glyph-name="Wgrave" unicode="&#x1e80;" horiz-adv-x="874" d="M804 660 Q809 660 811.5 657 Q814 654 812 649 L640 6 Q638 0 631 0 L521 0 Q515 0 512 6 L444 259 L352 5 Q350 0 345 0 L239 0 Q232 0 231 6 L60 650 Q58 660 69 660 L184 660 Q189 660 191 654 L302 230 L385 481 L339 649 Q337 654 340 657 Q343 660 347 660 L471 660 Q477 660 479 654 L571 246 L681 654 Q683 660 689 660 L804 660 L804 660 Z M351 866 Q349 870 351.5 874 Q354 878 359 878 L424 878 Q430 878 432 869 L445 786 Q446 776 436 776 L405 776 Q400 776 397 781 L351 866 Z " />
<glyph glyph-name="wgrave" unicode="&#x1e81;" horiz-adv-x="874" d="M804 660 Q809 660 811.5 657 Q814 654 812 649 L640 6 Q638 0 631 0 L521 0 Q515 0 512 6 L444 259 L352 5 Q350 0 345 0 L239 0 Q232 0 231 6 L60 650 Q58 660 69 660 L184 660 Q189 660 191 654 L302 230 L385 481 L339 649 Q337 654 340 657 Q343 660 347 660 L471 660 Q477 660 479 654 L571 246 L681 654 Q683 660 689 660 L804 660 L804 660 Z M351 866 Q349 870 351.5 874 Q354 878 359 878 L424 878 Q430 878 432 869 L445 786 Q446 776 436 776 L405 776 Q400 776 397 781 L351 866 Z " />
<glyph glyph-name="Wacute" unicode="&#x1e82;" horiz-adv-x="874" d="M804 660 Q809 660 811.5 657 Q814 654 812 649 L640 6 Q638 0 631 0 L521 0 Q515 0 512 6 L444 259 L352 5 Q350 0 345 0 L239 0 Q232 0 231 6 L60 650 Q58 660 69 660 L184 660 Q189 660 191 654 L302 230 L385 481 L339 649 Q337 654 340 657 Q343 660 347 660 L471 660 Q477 660 479 654 L571 246 L681 654 Q683 660 689 660 L804 660 L804 660 Z M412 867 Q413 873 421 873 L498 873 Q505 873 508 869.5 Q511 866 506 859 L453 783 Q449 776 443 776 L405 776 Q402 776 398.5 778.5 Q395 781 396 786 L412 867 Z " />
<glyph glyph-name="wacute" unicode="&#x1e83;" horiz-adv-x="874" d="M804 660 Q809 660 811.5 657 Q814 654 812 649 L640 6 Q638 0 631 0 L521 0 Q515 0 512 6 L444 259 L352 5 Q350 0 345 0 L239 0 Q232 0 231 6 L60 650 Q58 660 69 660 L184 660 Q189 660 191 654 L302 230 L385 481 L339 649 Q337 654 340 657 Q343 660 347 660 L471 660 Q477 660 479 654 L571 246 L681 654 Q683 660 689 660 L804 660 L804 660 Z M412 867 Q413 873 421 873 L498 873 Q505 873 508 869.5 Q511 866 506 859 L453 783 Q449 776 443 776 L405 776 Q402 776 398.5 778.5 Q395 781 396 786 L412 867 Z " />
<glyph glyph-name="Wdieresis" unicode="&#x1e84;" horiz-adv-x="874" d="M804 660 Q809 660 811.5 657 Q814 654 812 649 L640 6 Q638 0 631 0 L521 0 Q515 0 512 6 L444 259 L352 5 Q350 0 345 0 L239 0 Q232 0 231 6 L60 650 Q58 660 69 660 L184 660 Q189 660 191 654 L302 230 L385 481 L339 649 Q337 654 340 657 Q343 660 347 660 L471 660 Q477 660 479 654 L571 246 L681 654 Q683 660 689 660 L804 660 L804 660 Z M328 840 Q328 860 342.5 874 Q357 888 378 888 Q398 888 411.5 874 Q425 860 425 840 Q425 820 411.5 805 Q398 790 378 790 Q357 790 342.5 805 Q328 820 328 840 Z M490 790 Q470 790 456.5 805 Q443 820 443 840 Q443 860 456.5 874 Q470 888 490 888 Q511 888 525 874 Q539 860 539 840 Q539 820 525 805 Q511 790 490 790 Z " />
<glyph glyph-name="wdieresis" unicode="&#x1e85;" horiz-adv-x="874" d="M804 660 Q809 660 811.5 657 Q814 654 812 649 L640 6 Q638 0 631 0 L521 0 Q515 0 512 6 L444 259 L352 5 Q350 0 345 0 L239 0 Q232 0 231 6 L60 650 Q58 660 69 660 L184 660 Q189 660 191 654 L302 230 L385 481 L339 649 Q337 654 340 657 Q343 660 347 660 L471 660 Q477 660 479 654 L571 246 L681 654 Q683 660 689 660 L804 660 L804 660 Z M328 840 Q328 860 342.5 874 Q357 888 378 888 Q398 888 411.5 874 Q425 860 425 840 Q425 820 411.5 805 Q398 790 378 790 Q357 790 342.5 805 Q328 820 328 840 Z M490 790 Q470 790 456.5 805 Q443 820 443 840 Q443 860 456.5 874 Q470 888 490 888 Q511 888 525 874 Q539 860 539 840 Q539 820 525 805 Q511 790 490 790 Z " />
<glyph glyph-name="uni0237" unicode="&#x237;" horiz-adv-x="572" d="M409 660 Q418 660 418 651 L418 172 Q418 136 404 103 Q390 70 366 45 Q342 20 309 5.5 Q276 -9 238 -9 L213 -9 Q150 -9 94 36 Q71 57 50.5 84 Q30 111 16 142 Q13 149 19 154 L124 227 Q127 229 130.5 229 Q134 229 136 224 Q141 209 148.5 191.5 Q156 174 166.5 159.5 Q177 145 191.5 135 Q206 125 226 125 Q245 125 256.5 136.5 Q268 148 274.5 165 Q281 182 283 201 Q285 220 285 236 L285 651 Q285 660 294 660 L409 660 Z " />
<glyph glyph-name="ellipsis" unicode="&#x2026;" horiz-adv-x="766" d="M146 -9 Q128 -9 112.5 -2 Q97 5 85 17 Q73 29 66 45.5 Q59 62 59 80 Q59 98 66 114 Q73 130 85 142 Q97 154 112.5 160.5 Q128 167 146 167 Q183 167 209.5 142 Q236 117 236 80 Q236 43 209.5 17 Q183 -9 146 -9 Z M367 -9 Q349 -9 333.5 -2 Q318 5 306 17 Q294 29 287 45.5 Q280 62 280 80 Q280 98 287 114 Q294 130 306 142 Q318 154 333.5 160.5 Q349 167 367 167 Q404 167 430.5 142 Q457 117 457 80 Q457 43 430.5 17 Q404 -9 367 -9 Z M583 -9 Q565 -9 549.5 -2 Q534 5 522 17 Q510 29 503 45.5 Q496 62 496 80 Q496 98 503 114 Q510 130 522 142 Q534 154 549.5 160.5 Q565 167 583 167 Q620 167 646.5 142 Q673 117 673 80 Q673 43 646.5 17 Q620 -9 583 -9 Z " />
<glyph glyph-name="trademark" unicode="&#x2122;" horiz-adv-x="587" d="M19.5 692.5 Q15 692.5 15 697 L15 750.5 Q15 755 19.5 755 L228 755 Q232.5 755 232.5 750.5 L232.5 697 Q232.5 692.5 228 692.5 L157 692.5 L157 429.5 Q157 425 152.5 425 L95 425 Q90.5 425 90.5 429.5 L90.5 692.5 L19.5 692.5 L19.5 692.5 Z M560 755 Q564.5 755 564.5 750.5 L564.5 429.5 Q564.5 425 560 425 L505.5 425 Q504.5 425 503 426.25 Q501.5 427.5 501.5 429.5 L501.5 614.5 L446.5 428 Q445 425 442.5 425 L403 425 Q399.5 425 399 428 L347.5 618 L347.5 429.5 Q347.5 425 343 425 L287.5 425 Q284 425 284 429.5 L284 750.5 Q284 755 287.5 755 L357.5 755 Q361 755 362 752 L422.5 549.5 L489 752 Q489 755 492.5 755 L560 755 L560 755 Z " />
<glyph glyph-name="a" unicode="a" horiz-adv-x="576" d="M219 654 Q221 660 226 660 L350 660 Q355 660 357 654 L530 11 Q532 0 521 0 L407 0 Q401 0 400 6 L361 146 L215 146 L177 6 Q175 0 170 0 L55 0 Q44 0 46 11 L219 654 Z M330 270 L287 421 L247 270 L330 270 Z " />
<glyph glyph-name="b" unicode="b" horiz-adv-x="575" d="M471 489 Q471 460 466.5 435 Q462 410 451 391 Q480 364 492.5 320.5 Q505 277 505 216 Q505 151 491 106 Q477 61 446 37 Q417 14 378 7 Q339 0 297 0 L102 0 Q94 0 94 9 L94 651 Q94 660 102 660 L262 660 Q303 660 342 655 Q381 650 410 631 Q445 608 458 570.5 Q471 533 471 489 Z M226 439 L287 439 Q311 439 323.5 448.5 Q336 458 336 484 Q336 510 317.5 519.5 Q299 529 266 529 L226 529 L226 439 Z M264 131 Q285 131 304 135.5 Q323 140 338 150.5 Q353 161 362 178 Q371 195 371 219 Q371 255 347.5 280 Q324 305 286 305 L226 305 L226 131 L264 131 Z " />
<glyph glyph-name="c" unicode="c" horiz-adv-x="614" d="M407 262 Q407 271 416 271 L530 271 Q539 271 539 262 L539 199 Q539 88 481 39 Q423 -10 311 -10 Q259 -10 216.5 1 Q174 12 144 36.5 Q114 61 97.5 101 Q81 141 81 199 L81 462 Q81 573 140 621 Q199 669 311 669 Q364 669 406 658 Q448 647 477.5 622.5 Q507 598 523 558.5 Q539 519 539 462 L539 441 Q539 432 530 432 L415 432 Q406 432 406 441 L406 457 Q406 499 379.5 517 Q353 535 316 535 L304 535 Q256 535 234 506 Q223 492 219 473 Q215 454 215 429 L215 231 Q215 198 223.5 177.5 Q232 157 244.5 145.5 Q257 134 273 129.5 Q289 125 304 125 L316 125 Q365 125 387 154 Q407 182 407 231 L407 262 Z " />
<glyph glyph-name="d" unicode="d" horiz-adv-x="631" d="M352 660 Q454 660 505 604 Q550 554 550 462 L550 197 Q550 106 499.5 53 Q449 0 352 0 L102 0 Q94 0 94 9 L94 651 Q94 660 102 660 L352 660 Z M419 432 Q419 480 394 507.5 Q369 535 316 535 L226 535 L226 125 L316 125 Q361 125 390 152 Q419 179 419 227 L419 432 Z " />
<glyph glyph-name="e" unicode="e" horiz-adv-x="526" d="M102 0 Q94 0 94 9 L94 651 Q94 660 102 660 L442 660 Q451 660 451 651 L451 544 Q451 535 442 535 L226 535 L226 399 L394 399 Q402 399 402 390 L402 281 Q402 272 394 272 L226 272 L226 125 L442 125 Q451 125 451 116 L451 9 Q451 0 442 0 L102 0 L102 0 Z " />
<glyph glyph-name="f" unicode="f" horiz-adv-x="497" d="M102 0 Q94 0 94 9 L94 651 Q94 660 102 660 L442 660 Q451 660 451 651 L451 544 Q451 535 442 535 L226 535 L226 399 L394 399 Q402 399 402 390 L402 281 Q402 272 394 272 L226 272 L226 9 Q226 0 217 0 L102 0 Z " />
<glyph glyph-name="g" unicode="g" horiz-adv-x="615" d="M301 240 Q292 240 292 249 L292 356 Q292 365 301 365 L530 365 Q539 365 539 356 L539 199 Q539 88 481 39 Q423 -10 311 -10 Q259 -10 216.5 1 Q174 12 144 36.5 Q114 61 97.5 101 Q81 141 81 199 L81 462 Q81 571 140 620 Q199 669 311 669 Q363 669 405.5 658 Q448 647 477.5 622.5 Q507 598 523 558.5 Q539 519 539 462 L539 441 Q539 432 530 432 L415 432 Q406 432 406 441 L406 454 Q406 500 380 517.5 Q354 535 316 535 L304 535 Q256 535 234 506 Q223 492 219 473 Q215 454 215 429 L215 231 Q215 198 223 177.5 Q231 157 243.5 145.5 Q256 134 272 129.5 Q288 125 304 125 L316 125 Q362 125 384 154 Q406 183 406 231 L406 240 L301 240 L301 240 Z " />
<glyph glyph-name="h" unicode="h" horiz-adv-x="612" d="M387 651 Q387 660 396 660 L510 660 Q519 660 519 651 L519 9 Q519 0 510 0 L396 0 Q387 0 387 9 L387 275 L225 275 L225 9 Q225 0 216 0 L102 0 Q94 0 94 9 L94 651 Q94 660 102 660 L216 660 Q225 660 225 651 L225 400 L387 400 L387 651 Z " />
<glyph glyph-name="i" unicode="i" horiz-adv-x="315" d="M102 0 Q94 0 94 9 L94 651 Q94 660 102 660 L216 660 Q225 660 225 651 L225 9 Q225 0 216 0 L102 0 L102 0 Z " />
<glyph glyph-name="j" unicode="j" horiz-adv-x="509" d="M415 660 Q424 660 424 651 L424 172 Q424 136 410 103 Q396 70 372 45 Q348 20 315 5.5 Q282 -9 244 -9 L219 -9 Q156 -9 100 36 Q77 57 56.5 84 Q36 111 22 142 Q19 149 25 154 L130 227 Q133 229 136.5 229 Q140 229 142 224 Q147 209 154.5 191.5 Q162 174 172.5 159.5 Q183 145 197.5 135 Q212 125 232 125 Q251 125 262.5 136.5 Q274 148 280.5 165 Q287 182 289 201 Q291 220 291 236 L291 651 Q291 660 300 660 L415 660 Z " />
<glyph glyph-name="k" unicode="k" horiz-adv-x="581" d="M514 660 Q519 660 521.5 655.5 Q524 651 521 646 L364 429 L530 11 Q532 7 529.5 3.5 Q527 0 522 0 L387 0 Q381 0 380 6 L276 305 L225 235 L225 9 Q225 0 216 0 L102 0 Q94 0 94 9 L94 651 Q94 660 102 660 L216 660 Q225 660 225 651 L225 444 L382 656 Q385 660 390 660 L514 660 L514 660 Z " />
<glyph glyph-name="l" unicode="l" horiz-adv-x="496" d="M216 660 Q225 660 225 651 L225 126 L441 126 Q450 126 450 117 L450 9 Q450 0 441 0 L102 0 Q94 0 94 9 L94 651 Q94 660 102 660 L216 660 L216 660 Z " />
<glyph glyph-name="m" unicode="m" horiz-adv-x="749" d="M646 660 Q655 660 655 651 L655 9 Q655 0 646 0 L537 0 Q535 0 532 2.5 Q529 5 529 9 L529 379 L419 6 Q416 0 411 0 L332 0 Q325 0 324 6 L221 386 L221 9 Q221 0 212 0 L101 0 Q94 0 94 9 L94 651 Q94 660 101 660 L241 660 Q248 660 250 654 L371 249 L504 654 Q504 660 511 660 L646 660 L646 660 Z " />
<glyph glyph-name="n" unicode="n" horiz-adv-x="594" d="M367 651 Q367 660 376 660 L491 660 Q500 660 500 651 L500 9 Q500 0 491 0 L380 0 Q373 0 371 5 L225 334 L225 9 Q225 0 216 0 L102 0 Q94 0 94 9 L94 651 Q94 660 102 660 L220 660 Q224 660 227 655 L367 332 L367 651 L367 651 Z " />
<glyph glyph-name="o" unicode="o" horiz-adv-x="620" d="M311 669 Q439 669 495 609 Q539 561 539 462 L539 199 Q539 97 495 50 Q466 20 421 5 Q376 -10 311 -10 Q244 -10 199.5 5 Q155 20 126 50 Q104 74 92.5 110.5 Q81 147 81 199 L81 462 Q81 560 126 610 Q155 641 200 655 Q245 669 311 669 Z M406 429 Q406 462 398 482.5 Q390 503 377 515 Q364 527 348 531 Q332 535 316 535 L304 535 Q256 535 235.5 506.5 Q215 478 215 429 L215 229 Q215 196 223 175 Q231 154 243.5 142.5 Q256 131 272 126.5 Q288 122 304 122 L316 122 Q364 122 384.5 151.5 Q405 181 406 229 L406 429 Z " />
<glyph glyph-name="p" unicode="p" horiz-adv-x="534" d="M309 660 Q393 660 440 614 Q487 568 487 480 L487 354 Q487 273 440.5 224 Q394 175 309 175 L225 175 L225 9 Q225 0 216 0 L101 0 Q94 0 94 9 L94 651 Q94 660 101 660 L309 660 Z M356 450 Q356 476 350 491 Q344 506 331.5 514 Q319 522 299.5 524 Q280 526 254 526 L225 526 L225 306 L254 306 Q275 306 293.5 308.5 Q312 311 326 319.5 Q340 328 348 343 Q356 358 356 384 L356 450 Z " />
<glyph glyph-name="q" unicode="q" horiz-adv-x="611" d="M304 669 Q356 669 398 658 Q440 647 469.5 622.5 Q499 598 515 558.5 Q531 519 531 462 L531 199 Q531 114 495 62.5 Q459 11 370 -6 L370 -68 Q370 -78 360 -78 L246 -78 Q236 -78 236 -68 L236 -6 Q151 10 112.5 60 Q74 110 74 199 L74 462 Q74 573 133 621 Q192 669 304 669 Z M399 429 Q399 462 391 482.5 Q383 503 370 515 Q357 527 341 531 Q325 535 309 535 L296 535 Q249 535 228 506.5 Q207 478 207 429 L207 231 Q207 198 215 177.5 Q223 157 236 145.5 Q249 134 265 129.5 Q281 125 296 125 L309 125 Q356 125 377.5 154 Q399 183 399 231 L399 429 Z " />
<glyph glyph-name="r" unicode="r" horiz-adv-x="570" d="M469 261 Q447 216 407 197 L491 12 Q493 7 491 3.5 Q489 0 484 0 L361 0 Q356 0 354 5 L276 175 L225 175 L225 9 Q225 0 216 0 L101 0 Q94 0 94 9 L94 651 Q94 660 101 660 L309 660 Q393 660 440 614 Q487 568 487 480 L487 354 Q487 328 482.5 304 Q478 280 469 261 Z M356 450 Q356 476 350.5 491.5 Q345 507 333 515 Q321 523 301.5 525 Q282 527 254 527 L225 527 L225 306 L254 306 Q278 306 296.5 307.5 Q315 309 328 316.5 Q341 324 348 340 Q355 356 356 385 L356 450 Z " />
<glyph glyph-name="s" unicode="s" horiz-adv-x="550" d="M319 405 Q347 391 378 373.5 Q409 356 435 332 Q461 308 477.5 278 Q494 248 494 209 Q494 198 492.5 182 Q491 166 487 147.5 Q483 129 475.5 109.5 Q468 90 456 72 Q401 -10 281 -10 Q249 -10 216 -2 Q183 6 153.5 22.5 Q124 39 101 64 Q78 89 66 124 Q64 129 69 132 L161 211 Q169 217 174 209 Q176 205 178.5 199.5 Q181 194 185 186 Q196 163 221 143.5 Q246 124 276 124 Q288 124 300.5 127.5 Q313 131 324 138.5 Q335 146 342 158.5 Q349 171 349 189 Q349 206 338.5 220 Q328 234 312.5 244.5 Q297 255 279.5 262.5 Q262 270 247 276 Q213 290 179.5 307.5 Q146 325 117 351 Q56 408 56 481 Q56 528 75.5 563 Q95 598 127 621.5 Q159 645 199 657 Q239 669 280 669 Q409 669 472 535 Q475 528 469 524 L380 462 Q375 459 370 465 Q344 502 320 519.5 Q296 537 266 537 Q258 537 246 535 Q234 533 223 528 Q212 523 204 514.5 Q196 506 196 492 Q196 475 209.5 462 Q223 449 242.5 438.5 Q262 428 283 420 Q304 412 319 405 Z " />
<glyph glyph-name="t" unicode="t" horiz-adv-x="527" d="M55 535 Q46 535 46 544 L46 651 Q46 660 55 660 L472 660 Q481 660 481 651 L481 544 Q481 535 472 535 L330 535 L330 9 Q330 0 321 0 L206 0 Q197 0 197 9 L197 535 L55 535 L55 535 Z " />
<glyph glyph-name="u" unicode="u" horiz-adv-x="630" d="M412 651 Q412 660 421 660 L535 660 Q544 660 544 651 L544 199 Q544 90 486 40 Q428 -10 316 -10 Q263 -10 220.5 1 Q178 12 148.5 37 Q119 62 103 102 Q87 142 87 199 L87 651 Q87 660 96 660 L211 660 Q220 660 220 651 L220 231 Q220 198 228.5 177.5 Q237 157 250 145.5 Q263 134 279 129.5 Q295 125 310 125 L322 125 Q369 125 390.5 154 Q412 183 412 231 L412 651 Z " />
<glyph glyph-name="v" unicode="v" horiz-adv-x="577" d="M402 654 Q406 660 410 660 L524 660 Q529 660 531.5 657 Q534 654 532 649 L359 6 Q356 0 351 0 L227 0 Q221 0 220 6 L47 649 Q45 660 56 660 L171 660 Q175 660 179 654 L289 240 L402 654 Z " />
<glyph glyph-name="w" unicode="w" horiz-adv-x="874" d="M804 660 Q809 660 811.5 657 Q814 654 812 649 L640 6 Q638 0 631 0 L521 0 Q515 0 512 6 L444 259 L352 5 Q350 0 345 0 L239 0 Q232 0 231 6 L60 650 Q58 660 69 660 L184 660 Q189 660 191 654 L302 230 L385 481 L339 649 Q337 654 340 657 Q343 660 347 660 L471 660 Q477 660 479 654 L571 246 L681 654 Q683 660 689 660 L804 660 L804 660 Z " />
<glyph glyph-name="x" unicode="x" horiz-adv-x="566" d="M486 660 Q491 660 493.5 656 Q496 652 494 647 L364 354 L521 12 Q523 7 521 3.5 Q519 0 514 0 L401 0 Q395 0 394 5 L284 239 L174 5 Q172 1 170.5 0.5 Q169 0 166 0 L52 0 Q47 0 45 3.5 Q43 7 45 12 L201 354 L72 647 Q70 652 72.5 656 Q75 660 80 660 L196 660 Q199 660 200.5 658.5 Q202 657 204 655 L284 477 L365 655 Q367 660 372 660 L486 660 L486 660 Z " />
<glyph glyph-name="y" unicode="y" horiz-adv-x="511" d="M341 655 Q343 659 344.5 659.5 Q346 660 349 660 L461 660 Q466 660 468.5 656.5 Q471 653 469 649 L324 312 L324 9 Q324 0 315 0 L197 0 Q190 0 190 9 L190 312 L41 647 Q37 660 49 660 L161 660 Q164 660 165.5 659.5 Q167 659 169 655 L256 487 L341 655 Z " />
<glyph glyph-name="z" unicode="z" horiz-adv-x="590" d="M490 125 Q499 125 499 116 L499 9 Q499 0 490 0 L104 0 Q101 0 98 2 Q95 4 95 9 L95 120 L95 121 Q95 122 96 124 L337 535 L101 535 Q92 535 92 544 L92 651 Q92 660 101 660 L490 660 Q495 660 496 657 Q497 654 497 652 L497 540 Q497 537 496 536 L255 125 L490 125 Z " />
<glyph glyph-name="mu" unicode="&#xb5;" horiz-adv-x="695" d="M640 660 Q649 660 649 651 L649 9 Q649 0 640 0 L531 0 Q529 0 526 2.5 Q523 5 523 9 L523 379 L413 6 Q410 0 405 0 L326 0 Q319 0 318 6 L215 386 L215 9 Q215 0 206 0 L95 0 Q88 0 88 9 L88 651 Q88 660 95 660 L235 660 Q242 660 244 654 L365 249 L498 654 Q498 660 505 660 L640 660 L640 660 Z " />
<glyph glyph-name="ordfeminine" unicode="&#xaa;" horiz-adv-x="292" d="M103.5 747 Q104.5 750 107 750 L169 750 Q171.5 750 172.5 747 L259 425.5 Q260 420 254.5 420 L197.5 420 Q194.5 420 194 423 L174.5 493 L101.5 493 L82.5 423 Q81.5 420 79 420 L21.5 420 Q16 420 17 425.5 L103.5 747 Z M159 555 L137.5 630.5 L117.5 555 L159 555 Z " />
<glyph glyph-name="Euro" unicode="&#x20ac;" horiz-adv-x="661" d="M319 670 Q371 670 413.5 660.5 Q456 651 485 629 Q514 607 530 570.5 Q546 534 546 480 L546 461 Q546 451 536 451 L422 451 Q416 451 414 460 Q414 464 414 469.5 Q414 475 412 480 Q404 514 379.5 525 Q355 536 324 536 L310 536 Q262 536 241.5 504.5 Q221 473 221 430 L221 407 L355 407 Q364 407 364 400 L364 291 Q364 287 361 284.5 Q358 282 355 282 L221 282 L221 231 Q221 185 243 155.5 Q265 126 310 126 L324 126 Q373 126 393.5 148.5 Q414 171 414 215 L414 245 Q414 252 422 252 L536 252 Q546 252 546 244 L546 180 Q546 130 535 97 Q524 64 501 41 Q487 29 470 19 Q453 9 430 4 Q407 -4 380 -7 Q353 -10 319 -10 Q207 -10 147 40 Q87 90 87 199 L87 462 Q87 519 103.5 559 Q120 599 150 623.5 Q180 648 223 659 Q266 670 319 670 Z " />
<glyph glyph-name="uni0218" unicode="&#x218;" horiz-adv-x="550" d="M319 405 Q347 391 378 373.5 Q409 356 435 332 Q461 308 477.5 278 Q494 248 494 209 Q494 198 492.5 182 Q491 166 487 147.5 Q483 129 475.5 109.5 Q468 90 456 72 Q401 -10 281 -10 Q249 -10 216 -2 Q183 6 153.5 22.5 Q124 39 101 64 Q78 89 66 124 Q64 129 69 132 L161 211 Q169 217 174 209 Q176 205 178.5 199.5 Q181 194 185 186 Q196 163 221 143.5 Q246 124 276 124 Q288 124 300.5 127.5 Q313 131 324 138.5 Q335 146 342 158.5 Q349 171 349 189 Q349 206 338.5 220 Q328 234 312.5 244.5 Q297 255 279.5 262.5 Q262 270 247 276 Q213 290 179.5 307.5 Q146 325 117 351 Q56 408 56 481 Q56 528 75.5 563 Q95 598 127 621.5 Q159 645 199 657 Q239 669 280 669 Q409 669 472 535 Q475 528 469 524 L380 462 Q375 459 370 465 Q344 502 320 519.5 Q296 537 266 537 Q258 537 246 535 Q234 533 223 528 Q212 523 204 514.5 Q196 506 196 492 Q196 475 209.5 462 Q223 449 242.5 438.5 Q262 428 283 420 Q304 412 319 405 Z M275 -69 Q293 -69 309 -75.5 Q325 -82 337 -93 Q349 -104 356.5 -120 Q364 -136 364 -154 Q364 -160 362.5 -167 Q361 -174 359 -179 L302 -327 Q300 -334 294 -334 L226 -334 Q219 -334 217 -330 Q215 -326 217 -321 L249 -241 Q223 -233 204 -209.5 Q185 -186 185 -156 Q185 -119 211.5 -94 Q238 -69 275 -69 Z " />
<glyph glyph-name="uni0219" unicode="&#x219;" horiz-adv-x="550" d="M319 405 Q347 391 378 373.5 Q409 356 435 332 Q461 308 477.5 278 Q494 248 494 209 Q494 198 492.5 182 Q491 166 487 147.5 Q483 129 475.5 109.5 Q468 90 456 72 Q401 -10 281 -10 Q249 -10 216 -2 Q183 6 153.5 22.5 Q124 39 101 64 Q78 89 66 124 Q64 129 69 132 L161 211 Q169 217 174 209 Q176 205 178.5 199.5 Q181 194 185 186 Q196 163 221 143.5 Q246 124 276 124 Q288 124 300.5 127.5 Q313 131 324 138.5 Q335 146 342 158.5 Q349 171 349 189 Q349 206 338.5 220 Q328 234 312.5 244.5 Q297 255 279.5 262.5 Q262 270 247 276 Q213 290 179.5 307.5 Q146 325 117 351 Q56 408 56 481 Q56 528 75.5 563 Q95 598 127 621.5 Q159 645 199 657 Q239 669 280 669 Q409 669 472 535 Q475 528 469 524 L380 462 Q375 459 370 465 Q344 502 320 519.5 Q296 537 266 537 Q258 537 246 535 Q234 533 223 528 Q212 523 204 514.5 Q196 506 196 492 Q196 475 209.5 462 Q223 449 242.5 438.5 Q262 428 283 420 Q304 412 319 405 Z M275 -69 Q293 -69 309 -75.5 Q325 -82 337 -93 Q349 -104 356.5 -120 Q364 -136 364 -154 Q364 -160 362.5 -167 Q361 -174 359 -179 L302 -327 Q300 -334 294 -334 L226 -334 Q219 -334 217 -330 Q215 -326 217 -321 L249 -241 Q223 -233 204 -209.5 Q185 -186 185 -156 Q185 -119 211.5 -94 Q238 -69 275 -69 Z " />
<glyph glyph-name="uni021A" unicode="&#x21a;" horiz-adv-x="585" d="M47 535 Q38 535 38 544 L38 651 Q38 660 47 660 L464 660 Q473 660 473 651 L473 544 Q473 535 464 535 L322 535 L322 9 Q322 0 313 0 L198 0 Q189 0 189 9 L189 535 L47 535 L47 535 Z M257 -56 Q275 -56 291 -62.5 Q307 -69 319 -80 Q331 -91 338.5 -107 Q346 -123 346 -141 Q346 -147 344.5 -154 Q343 -161 341 -166 L284 -314 Q282 -321 276 -321 L208 -321 Q201 -321 199 -317 Q197 -313 199 -308 L231 -228 Q205 -220 186 -196.5 Q167 -173 167 -143 Q167 -106 193.5 -81 Q220 -56 257 -56 Z " />
<glyph glyph-name="uni021B" unicode="&#x21b;" horiz-adv-x="585" d="M47 535 Q38 535 38 544 L38 651 Q38 660 47 660 L464 660 Q473 660 473 651 L473 544 Q473 535 464 535 L322 535 L322 9 Q322 0 313 0 L198 0 Q189 0 189 9 L189 535 L47 535 L47 535 Z M257 -56 Q275 -56 291 -62.5 Q307 -69 319 -80 Q331 -91 338.5 -107 Q346 -123 346 -141 Q346 -147 344.5 -154 Q343 -161 341 -166 L284 -314 Q282 -321 276 -321 L208 -321 Q201 -321 199 -317 Q197 -313 199 -308 L231 -228 Q205 -220 186 -196.5 Q167 -173 167 -143 Q167 -106 193.5 -81 Q220 -56 257 -56 Z " />
</font>
</svg>
