<svg width="107" height="51" viewBox="0 0 107 51" fill="none" xmlns="http://www.w3.org/2000/svg">
<path d="M91.0085 7.11518C87.9964 5.94979 72.9355 0.996887 53.428 0.996887C33.9206 0.996887 18.8597 6.09547 15.8475 7.11518H1.36035V49.7976H105.639V7.11518H91.152H91.0085ZM103.201 47.3211H3.79878V9.59164H16.4212C16.5647 9.00894 33.4903 3.47334 53.5715 3.47334C73.6526 3.47334 89.2873 9.15461 90.7217 9.59164H103.344V47.3211H103.201Z" fill="#C61A1D"/>
<path d="M90.1479 10.7702C90.0045 10.7702 74.083 4.65741 53.2846 4.65741C32.4862 4.65741 16.7081 10.7702 16.5647 10.7702H4.94629V46.1371H102.053V10.7702H90.2913H90.1479Z" fill="#C61A1D"/>
</svg>
