<svg version="1.0" xmlns="http://www.w3.org/2000/svg"
 width="1955.000000pt" height="2039.000000pt" viewBox="0 0 1955.000000 2039.000000"
 preserveAspectRatio="xMidYMid meet">

<g transform="translate(0.000000,2039.000000) scale(0.100000,-0.100000)"
fill="#eaebed" stroke="none">
<path d="M5778 20029 c-27 -15 -22 -47 18 -119 19 -36 84 -164 143 -285 112
-228 179 -345 255 -444 98 -126 401 -454 557 -601 240 -227 359 -349 475 -490
66 -80 190 -207 346 -355 134 -126 307 -293 386 -370 136 -133 171 -173 312
-360 33 -44 72 -94 86 -112 14 -18 82 -171 151 -340 140 -348 140 -345 164
-713 18 -283 0 -751 -37 -940 l-7 -35 -8 48 c-11 68 -23 79 -83 76 l-51 -3 3
32 c2 18 -2 48 -8 67 -10 29 -16 35 -40 35 -53 0 -85 -55 -74 -129 7 -52 28
-81 56 -81 28 0 58 -18 58 -36 0 -8 7 -28 15 -44 18 -35 51 -39 92 -13 l26 17
-7 -39 c-8 -39 -78 -217 -190 -480 -163 -385 -232 -809 -176 -1093 32 -168 56
-244 107 -345 88 -177 137 -241 235 -308 70 -48 213 -120 296 -148 183 -62
152 6 -122 274 -189 185 -206 212 -255 410 -54 218 -64 290 -57 410 16 292 87
587 210 874 111 258 165 447 216 751 18 107 30 156 34 140 21 -89 30 -184 47
-500 34 -647 187 -1051 556 -1466 100 -113 190 -189 293 -250 84 -50 266 -124
303 -124 29 0 52 23 44 44 -3 8 -66 44 -139 79 -167 81 -285 165 -413 292
-171 169 -303 357 -364 514 -28 73 -91 380 -125 616 -24 160 -36 399 -36 696
0 306 -10 474 -40 654 -42 249 -108 451 -194 588 -24 40 -70 137 -101 217 -92
236 -194 416 -338 595 -86 106 -327 339 -512 495 -249 210 -325 278 -455 414
-201 211 -285 290 -465 441 -216 180 -311 280 -511 535 -185 236 -199 256
-283 406 -34 61 -88 140 -119 175 -68 78 -154 195 -204 278 -39 64 -42 67 -70
50z"/>
<path d="M5727 19634 c-14 -14 -6 -62 38 -239 42 -165 48 -207 76 -500 31
-334 33 -405 10 -327 -7 24 -28 112 -47 195 -39 175 -61 241 -86 264 -17 15
-18 14 -18 -13 0 -16 12 -87 25 -159 31 -157 73 -481 82 -626 4 -74 1 -135
-10 -205 -9 -54 -19 -126 -22 -159 -12 -108 -145 -444 -269 -680 -130 -246
-160 -277 -112 -111 50 172 58 256 54 577 -3 270 -5 297 -22 324 l-19 29 -10
-25 c-5 -13 -13 -150 -17 -305 -9 -293 -19 -396 -50 -529 -45 -191 -197 -580
-320 -818 -49 -95 -110 -224 -136 -287 -57 -141 -72 -170 -85 -170 -24 0 26
190 98 370 25 63 103 234 174 379 71 145 129 276 129 290 l0 26 -25 -25 c-29
-30 -70 -103 -225 -405 -183 -354 -215 -471 -231 -845 -5 -118 -13 -249 -18
-290 -14 -107 -13 -250 2 -280 17 -34 52 -38 71 -8 13 21 32 125 67 373 39
282 185 640 411 1015 315 521 418 709 523 960 145 345 224 670 225 919 0 52 5
133 11 180 12 92 11 105 -36 386 -46 277 -65 364 -106 489 -65 192 -103 259
-132 230z"/>
<path d="M6315 19579 c-18 -29 22 -105 140 -261 154 -204 305 -373 389 -433
77 -54 184 -105 225 -105 41 0 58 23 38 52 -25 39 -216 229 -364 362 -78 71
-197 189 -264 262 -115 125 -148 150 -164 123z"/>
<path d="M16813 19455 c-13 -9 -24 -31 -28 -57 -14 -87 -143 -478 -165 -501
-4 -4 1 34 11 85 22 116 25 198 5 198 -22 0 -33 -20 -81 -151 -191 -513 -444
-834 -1003 -1271 -116 -91 -147 -133 -76 -103 62 26 544 376 632 460 100 94
180 190 267 321 66 98 183 320 204 387 19 58 32 44 14 -15 -58 -196 -219 -480
-396 -701 -147 -182 -399 -422 -642 -611 -295 -229 -466 -434 -629 -756 -150
-293 -212 -466 -409 -1130 -63 -212 -131 -430 -152 -485 -52 -143 -202 -441
-285 -570 -102 -157 -232 -325 -251 -325 -24 0 -182 166 -173 182 4 7 52 77
106 155 125 180 155 246 218 478 79 297 85 341 43 333 -26 -5 -48 -51 -122
-255 -76 -210 -149 -376 -234 -534 -74 -139 -78 -142 -123 -97 l-36 35 35 54
c103 163 158 299 142 350 -7 21 -35 32 -58 23 -8 -3 -50 -84 -93 -180 -43 -96
-83 -179 -91 -185 -10 -9 -23 -5 -53 15 -22 14 -40 28 -40 31 0 2 25 46 57 97
31 51 78 138 104 193 43 90 52 123 94 335 51 262 65 367 47 356 -22 -13 -40
-61 -102 -262 -69 -223 -151 -437 -216 -564 -63 -124 -54 -117 -111 -85 -26
16 -60 38 -74 50 l-27 22 55 79 c120 174 211 401 184 461 -22 49 -35 31 -87
-119 -38 -111 -141 -328 -174 -367 -19 -22 -23 -22 -52 -10 -18 7 -46 25 -63
40 l-31 28 37 79 c76 158 127 395 96 437 -14 18 -17 18 -31 5 -9 -9 -36 -94
-60 -190 -46 -183 -86 -290 -108 -290 -7 0 -26 11 -42 23 l-29 23 13 68 c9 51
10 70 1 79 -14 14 -45 -2 -48 -24 -1 -8 -4 -31 -8 -51 l-6 -38 -38 19 c-66 34
-65 30 -25 221 19 95 53 227 75 295 21 67 39 132 39 143 0 24 -25 35 -50 22
-42 -23 -164 -323 -191 -472 -7 -38 -16 -68 -21 -68 -5 0 -29 19 -54 43 l-45
42 24 95 c89 347 304 666 686 1017 335 307 586 489 1131 815 515 309 984 610
1190 766 243 184 486 411 602 563 111 145 293 470 305 543 12 76 -28 35 -117
-119 -214 -373 -448 -644 -752 -873 -159 -119 -835 -543 -1308 -819 -497 -291
-767 -484 -1131 -810 -318 -284 -529 -569 -643 -868 -36 -96 -46 -109 -46 -65
0 38 33 200 50 245 11 28 14 105 4 105 -19 0 -47 -26 -64 -60 -18 -35 -31 -78
-86 -279 -15 -53 -15 -53 -36 -35 -11 11 -38 50 -61 89 -98 170 -129 215 -146
215 -29 0 -33 -50 -11 -134 37 -147 73 -200 349 -509 93 -104 106 -114 381
-299 414 -278 541 -378 735 -573 132 -133 223 -258 309 -425 77 -151 119 -263
179 -475 77 -271 158 -442 275 -579 28 -33 90 -110 137 -171 105 -138 151
-185 177 -185 18 0 19 4 13 38 -3 20 -27 88 -51 150 -52 135 -55 159 -13 106
70 -88 113 -162 175 -302 177 -397 208 -487 304 -879 90 -364 131 -474 245
-648 72 -112 160 -211 252 -285 112 -90 166 -123 367 -222 229 -114 276 -147
415 -286 140 -140 184 -169 336 -227 161 -61 425 -206 425 -234 0 -5 -30 -23
-67 -41 l-68 -31 -91 96 c-101 104 -167 145 -204 125 -21 -11 -25 -26 -14 -54
3 -9 47 -45 98 -80 50 -35 103 -77 118 -93 l28 -29 -51 -59 c-78 -92 -150
-206 -245 -385 -161 -307 -161 -307 -369 -520 -311 -319 -385 -411 -476 -592
-84 -167 -104 -285 -119 -708 -13 -382 -13 -514 4 -580 85 -335 81 -323 158
-396 139 -131 230 -191 360 -238 25 -9 84 -40 129 -67 140 -85 248 -119 489
-155 163 -23 297 -22 510 4 245 31 351 53 441 92 78 35 152 49 163 32 10 -16
-21 -41 -67 -52 -23 -6 -89 -28 -147 -50 -165 -63 -250 -82 -385 -86 -66 -2
-167 -6 -225 -10 -90 -6 -123 -3 -235 19 -446 89 -527 101 -665 101 -106 0
-153 -5 -220 -22 -141 -36 -229 -31 -460 27 -292 74 -453 132 -668 243 -151
77 -216 123 -286 200 -80 86 -91 91 -82 42 11 -62 100 -235 165 -322 87 -114
163 -181 272 -236 111 -57 123 -66 85 -66 -42 0 -77 -45 -124 -158 -103 -249
-130 -442 -62 -442 24 0 27 6 70 150 17 58 61 165 96 239 41 85 64 146 64 169
0 33 1 34 30 28 17 -3 52 -15 79 -27 l49 -21 -44 -73 c-78 -128 -96 -220 -44
-220 20 0 36 17 85 91 33 51 69 102 80 114 28 32 98 62 123 53 19 -8 18 -11
-14 -118 -46 -155 -45 -252 3 -226 22 11 44 53 99 190 46 115 56 125 133 119
34 -2 63 -7 66 -10 4 -3 -12 -59 -34 -124 -50 -148 -68 -235 -55 -263 8 -20
11 -20 31 -6 12 8 60 93 107 189 83 171 109 206 151 206 49 -1 49 -12 -6 -141
-82 -198 -101 -251 -94 -276 15 -61 71 3 161 180 42 84 87 167 101 185 29 38
78 66 97 55 11 -6 -2 -38 -62 -143 -43 -75 -91 -158 -109 -185 -36 -56 -63
-116 -63 -140 0 -22 52 -19 83 5 14 12 62 68 107 125 87 113 212 228 296 272
l52 27 123 -13 c68 -8 130 -16 137 -19 19 -7 9 -40 -74 -244 -41 -101 -74
-190 -74 -199 0 -9 7 -22 15 -29 25 -21 52 14 135 170 41 78 90 159 108 180
47 56 141 100 212 100 31 0 59 -3 63 -6 12 -12 -25 -67 -92 -139 -36 -39 -114
-129 -173 -201 -58 -71 -177 -201 -262 -288 -86 -87 -187 -199 -225 -249 -109
-146 -231 -329 -225 -338 11 -18 31 -7 118 63 150 121 302 265 516 489 113
118 250 257 305 309 55 52 168 160 250 241 212 206 184 187 541 359 193 93
220 103 305 115 82 12 109 12 208 -2 133 -19 195 -11 296 37 81 39 170 128
348 348 81 100 160 308 199 521 16 91 21 157 21 306 0 212 -22 392 -88 717
-48 232 -73 321 -154 549 -73 209 -151 443 -200 605 -92 304 -280 535 -571
700 -47 26 -106 63 -131 81 -109 78 -208 85 -504 34 -104 -18 -205 -30 -223
-27 -18 3 -57 20 -85 39 -29 18 -86 48 -127 66 -164 72 -282 152 -581 394
-156 126 -369 271 -519 352 -227 123 -384 252 -459 379 -33 56 -202 448 -215
499 -8 32 15 41 82 32 99 -13 412 33 508 75 24 10 43 26 47 39 5 20 2 21 -144
23 -93 2 -148 7 -147 13 1 6 32 22 68 36 180 72 300 141 455 263 121 95 192
175 284 324 33 53 97 138 141 187 141 157 275 375 268 433 -4 26 -6 24 -68
-40 -36 -38 -68 -68 -72 -68 -4 0 13 48 38 106 110 263 181 520 264 949 133
688 140 907 49 1600 -61 468 -69 567 -75 855 l-6 265 51 468 c56 506 61 543
97 629 20 48 22 61 12 83 -64 141 -258 -329 -313 -760 -25 -200 -34 -327 -45
-631 -14 -377 0 -536 76 -834 52 -203 57 -255 44 -456 -9 -137 -9 -181 0 -204
15 -37 23 -37 40 -5 7 14 17 25 21 25 26 0 22 -278 -7 -498 -26 -200 -172
-872 -245 -1127 -134 -466 -205 -609 -403 -805 -68 -67 -96 -102 -96 -118 0
-18 4 -23 16 -18 56 22 81 15 68 -17 -7 -20 -317 -277 -404 -336 -91 -61 -250
-136 -344 -160 -43 -11 -82 -19 -86 -16 -4 3 -10 18 -13 34 -9 41 -34 63 -70
59 -39 -4 -77 -56 -77 -104 0 -31 -2 -33 -46 -40 -36 -5 -49 -3 -62 10 -14 14
-15 20 -3 49 7 17 16 46 18 64 5 30 3 32 -36 44 -72 21 -69 31 24 88 46 28 89
60 95 71 24 46 -1 119 -37 106 -8 -3 -19 -6 -25 -6 -6 0 -42 -33 -80 -72 -74
-78 -75 -78 -98 -9 -12 36 -11 38 24 73 31 31 36 42 36 82 0 40 -3 48 -26 58
-21 10 -35 9 -72 -4 -26 -10 -47 -16 -48 -15 0 1 -27 52 -59 112 -32 61 -67
127 -78 147 l-20 37 31 36 c71 80 10 151 -87 100 -18 -9 -36 -13 -41 -10 -6 4
-45 52 -87 108 -43 56 -106 130 -141 165 -35 35 -79 88 -98 117 -89 140 -174
352 -174 435 0 47 10 51 116 47 62 -2 75 1 112 26 50 33 56 67 17 93 -22 14
-42 16 -128 10 -56 -4 -112 -9 -123 -12 -19 -5 -24 2 -44 63 -13 37 -36 93
-52 123 -29 52 -30 59 -25 145 6 98 22 153 65 224 16 25 36 77 45 114 9 38 26
82 38 98 l21 29 30 -25 c37 -31 72 -32 92 -3 24 34 20 82 -10 117 l-25 30 92
165 c80 146 93 164 109 156 60 -32 112 5 149 105 32 86 28 129 -14 168 l-35
33 20 59 c11 33 24 63 29 68 5 5 22 2 39 -7 66 -34 132 -3 132 61 0 31 -43 71
-86 79 -20 4 -34 12 -34 21 0 13 70 254 75 261 2 2 22 -2 44 -9 49 -15 88 0
97 37 12 48 -23 84 -81 84 -26 0 -30 14 -19 57 4 16 16 23 47 28 43 7 67 20
67 37 0 5 -18 26 -40 45 -28 26 -40 44 -40 64 0 40 63 279 102 389 l34 95 42
3 c53 4 64 31 31 75 l-22 31 29 55 c73 140 281 380 469 540 50 43 209 169 355
281 404 310 547 465 671 724 72 152 94 229 171 611 76 375 90 507 58 540 -14
13 -18 13 -37 0z m1115 -9900 c173 -48 243 -91 398 -243 164 -161 227 -272
289 -507 20 -77 87 -294 150 -481 126 -377 164 -517 201 -732 33 -197 39 -290
25 -412 -50 -439 -201 -795 -428 -1012 -69 -65 -129 -88 -229 -88 -89 0 -158
17 -239 59 -64 33 -78 36 -171 39 -120 5 -226 -18 -342 -73 -132 -63 -352 -90
-668 -83 l-189 5 -117 41 c-148 51 -197 78 -297 162 -44 38 -108 86 -142 107
-103 64 -162 116 -206 180 -53 80 -79 149 -111 298 -23 107 -26 142 -27 330 0
236 11 309 71 493 82 251 255 529 509 817 112 127 234 307 330 485 90 167 175
295 270 409 140 166 206 198 430 207 77 2 174 9 215 13 133 14 182 12 278 -14z"/>
<path d="M17680 9475 c-25 -7 -114 -31 -198 -54 -84 -22 -186 -57 -225 -76
-148 -72 -252 -179 -353 -362 -71 -131 -158 -264 -319 -488 -138 -194 -175
-253 -175 -283 0 -29 9 -28 58 6 98 65 297 320 476 607 211 339 249 378 441
452 49 19 153 57 229 84 77 27 150 56 163 64 28 19 30 41 4 55 -24 13 -44 12
-101 -5z"/>
<path d="M17982 9378 c-7 -7 -12 -21 -12 -33 0 -28 19 -45 50 -45 31 0 50 17
50 45 0 28 -19 45 -50 45 -14 0 -31 -5 -38 -12z"/>
<path d="M17682 9254 c-24 -17 -30 -62 -10 -82 21 -21 75 -15 92 10 21 30 20
44 -4 68 -24 24 -48 25 -78 4z"/>
<path d="M17392 9135 c-215 -126 -221 -132 -610 -690 -61 -88 -151 -209 -199
-269 -48 -60 -109 -136 -134 -168 -137 -176 -263 -466 -245 -562 13 -67 34
-43 105 115 66 148 106 215 203 342 235 308 290 384 419 574 198 291 268 381
361 465 182 164 218 201 218 225 0 12 -6 23 -12 23 -7 0 -55 -25 -106 -55z"/>
<path d="M18180 9151 c-19 -36 -10 -56 53 -119 66 -66 77 -71 97 -47 34 40
-53 185 -110 185 -19 0 -33 -7 -40 -19z"/>
<path d="M18275 8787 c-13 -21 -16 -54 -15 -204 2 -209 4 -223 35 -223 31 0
41 15 53 80 27 141 21 254 -16 329 -22 44 -37 49 -57 18z"/>
<path d="M17232 8605 c-25 -21 -39 -49 -67 -135 -49 -153 -46 -205 11 -198 26
3 32 13 88 152 49 122 57 153 50 175 -13 35 -44 38 -82 6z"/>
<path d="M18475 8526 c-9 -13 -26 -88 -40 -167 -13 -79 -37 -200 -53 -269 -44
-184 -55 -272 -48 -380 7 -114 -8 -103 -31 23 -10 61 -13 117 -8 215 7 135 2
162 -31 162 -23 0 -41 -51 -64 -175 -28 -151 -29 -270 -2 -347 48 -134 155
-254 287 -319 68 -34 89 -40 132 -37 l52 3 -22 65 c-12 36 -42 98 -66 139 -52
86 -76 154 -97 276 -19 105 -17 135 25 455 41 314 40 380 -6 380 -7 0 -20 -11
-28 -24z"/>
<path d="M16248 8079 c-47 -27 -227 -343 -241 -423 -5 -30 9 -86 22 -86 18 0
57 58 170 249 75 126 121 215 121 232 0 36 -35 50 -72 28z"/>
<path d="M17124 8013 c-29 -31 -59 -124 -69 -213 -9 -87 -32 -185 -52 -228
-15 -30 -18 -32 -24 -16 -4 10 -8 68 -8 127 -1 120 -10 147 -46 147 -40 0 -57
-51 -94 -281 -15 -91 -42 -164 -104 -283 -50 -95 -80 -144 -162 -260 -38 -53
-43 -74 -19 -83 27 -10 57 15 188 158 70 76 132 139 137 139 22 0 20 -36 -5
-96 -14 -35 -26 -69 -26 -74 0 -6 16 -10 34 -10 42 0 61 23 132 158 60 116 74
130 74 73 0 -48 -64 -199 -131 -309 -90 -149 -92 -153 -81 -164 20 -20 57 1
140 78 185 171 259 338 278 630 10 151 -31 449 -70 509 -22 33 -60 33 -92 -2z"/>
<path d="M18572 8028 c-6 -7 -16 -41 -23 -76 -19 -93 6 -223 69 -352 22 -44
32 -56 55 -58 17 -2 29 2 33 12 3 9 -6 63 -20 121 -15 58 -31 153 -37 212 -6
60 -15 118 -20 131 -9 24 -40 29 -57 10z"/>
<path d="M17982 7978 c-14 -18 -32 -110 -32 -164 0 -73 22 -49 52 57 28 96 29
119 5 119 -8 0 -19 -6 -25 -12z"/>
<path d="M16671 7648 c-10 -24 -42 -110 -71 -193 -29 -82 -70 -185 -91 -227
-22 -43 -39 -80 -39 -82 0 -8 57 12 84 29 39 26 134 174 177 279 59 141 52
236 -17 236 -20 0 -29 -9 -43 -42z"/>
<path d="M16451 7649 c-28 -31 -37 -77 -18 -97 14 -14 18 -13 42 2 31 20 60
78 52 100 -9 23 -53 20 -76 -5z"/>
<path d="M15977 7258 c-29 -23 -35 -62 -42 -244 -7 -193 -1 -226 42 -232 33
-5 42 22 58 179 18 165 19 263 5 290 -12 22 -39 25 -63 7z"/>
<path d="M18182 7248 c-33 -33 18 -88 82 -88 47 0 47 18 1 65 -37 36 -62 44
-83 23z"/>
<path d="M18715 7030 c-22 -25 -13 -65 17 -73 51 -14 98 42 68 79 -18 20 -64
17 -85 -6z"/>
<path d="M18778 6749 c-10 -5 -34 -37 -53 -71 -50 -84 -116 -168 -207 -264
-42 -44 -82 -92 -87 -107 -10 -26 -10 -27 28 -27 49 0 148 63 190 120 16 22
57 96 91 165 46 94 60 133 58 159 -3 30 -6 33 -20 25z"/>
<path d="M16369 6719 c-24 -24 -20 -55 17 -135 32 -69 82 -121 121 -129 l33
-7 -40 79 c-22 43 -45 101 -52 128 -12 49 -33 85 -50 85 -4 0 -17 -9 -29 -21z"/>
<path d="M16050 6680 c-27 -27 -25 -56 5 -76 32 -21 69 -12 91 21 15 23 15 27
0 50 -20 31 -67 34 -96 5z"/>
<path d="M16192 6477 c-26 -27 -29 -79 -6 -101 16 -17 61 -21 80 -8 19 12 34
49 34 81 0 52 -69 70 -108 28z"/>
<path d="M17178 6344 c-103 -33 -126 -56 -94 -99 36 -49 189 10 214 84 9 26 8
30 -11 35 -28 7 -20 9 -109 -20z"/>
<path d="M16424 6305 c-31 -48 9 -93 126 -139 167 -66 340 -75 340 -17 0 14
-12 24 -42 34 -138 48 -230 83 -279 108 -30 15 -71 30 -91 34 -32 6 -38 4 -54
-20z"/>
<path d="M18177 6312 c-35 -38 -8 -96 41 -90 14 2 34 15 45 30 19 25 19 28 3
52 -20 31 -65 35 -89 8z"/>
<path d="M16878 18857 c-9 -9 -19 -57 -26 -132 -7 -65 -24 -170 -38 -234 -78
-361 -89 -460 -81 -745 8 -272 33 -396 82 -396 28 0 32 34 23 170 -13 186 -3
394 32 638 43 303 52 412 48 559 -3 136 -12 168 -40 140z"/>
<path d="M7245 18663 c65 -102 385 -551 434 -608 32 -38 117 -119 187 -180
289 -249 357 -317 526 -526 119 -147 158 -206 247 -378 94 -179 166 -281 199
-281 45 0 27 51 -124 351 -142 283 -149 295 -266 440 -134 168 -204 244 -493
539 -175 179 -353 375 -519 572 -53 64 -113 98 -170 98 l-38 0 17 -27z"/>
<path d="M6551 18494 c-25 -32 -26 -43 -5 -72 31 -45 104 -17 104 41 0 57 -63
77 -99 31z"/>
<path d="M6780 18120 c-25 -25 -25 -41 1 -74 37 -48 109 -25 109 36 0 53 -71
77 -110 38z"/>
<path d="M5607 17948 c-3 -13 -20 -128 -38 -256 -29 -207 -31 -235 -17 -248
22 -23 45 -7 57 39 13 50 45 453 37 473 -8 22 -33 16 -39 -8z"/>
<path d="M7036 17938 c-32 -46 -6 -98 49 -98 37 0 65 28 65 66 0 51 -84 75
-114 32z"/>
<path d="M16173 17698 c-109 -113 -143 -188 -85 -188 22 0 47 19 115 89 85 86
100 114 75 139 -24 24 -54 12 -105 -40z"/>
<path d="M7192 17648 c-18 -18 -14 -62 8 -91 28 -36 135 -115 196 -145 54 -26
84 -25 84 5 0 29 -233 243 -265 243 -6 0 -16 -5 -23 -12z"/>
<path d="M6965 17568 c-28 -16 -35 -28 -35 -65 0 -57 65 -83 108 -43 28 26 29
73 2 100 -22 22 -45 25 -75 8z"/>
<path d="M7570 17530 c-22 -22 -27 -79 -8 -98 17 -17 83 -15 98 4 19 22 16 70
-5 94 -23 26 -59 26 -85 0z"/>
<path d="M15192 17382 c-58 -28 -261 -209 -353 -314 -144 -164 -244 -313 -329
-490 -95 -200 -145 -373 -254 -883 -86 -400 -102 -462 -181 -684 -40 -113 -85
-246 -100 -296 -15 -49 -33 -108 -41 -130 -16 -46 -18 -95 -5 -95 18 0 49 56
156 280 207 433 209 440 291 850 70 349 103 487 159 649 120 351 246 556 509
830 186 195 209 225 204 274 l-3 35 -53 -26z"/>
<path d="M15860 17350 c-26 -26 -26 -76 -1 -90 48 -25 121 10 121 58 0 48 -82
70 -120 32z"/>
<path d="M7770 17330 c-19 -19 -20 -29 -14 -123 7 -107 14 -127 45 -127 21 0
39 30 68 116 16 49 18 68 10 97 -16 57 -70 76 -109 37z"/>
<path d="M7506 17164 c-9 -8 -16 -23 -16 -33 0 -10 29 -74 64 -142 35 -69 69
-143 76 -166 7 -22 23 -54 36 -69 20 -26 24 -27 38 -14 14 14 12 32 -18 182
-34 169 -50 209 -99 243 -28 19 -61 19 -81 -1z"/>
<path d="M15586 17154 c-34 -33 -5 -94 45 -94 23 0 49 33 49 63 0 43 -62 64
-94 31z"/>
<path d="M8000 17100 c-40 -40 -16 -100 40 -100 31 0 60 30 60 62 0 24 -35 58
-60 58 -11 0 -29 -9 -40 -20z"/>
<path d="M15382 17054 c-37 -25 -20 -94 23 -94 17 0 53 36 61 62 13 42 -41 63
-84 32z"/>
<path d="M6419 17001 c-34 -35 -36 -59 -8 -95 26 -33 68 -34 97 -3 31 33 29
80 -4 106 -36 28 -50 26 -85 -8z"/>
<path d="M7172 16958 c-7 -7 -12 -24 -12 -38 0 -14 5 -31 12 -38 28 -28 88 -2
88 38 0 40 -60 66 -88 38z"/>
<path d="M14388 16938 c-24 -20 -28 -44 -12 -67 20 -29 68 -28 88 1 20 29 20
34 -4 58 -23 23 -49 26 -72 8z"/>
<path d="M15536 16885 c-19 -19 -20 -29 -6 -56 13 -22 52 -25 69 -5 7 8 11 27
9 43 -2 22 -9 29 -29 31 -15 2 -34 -4 -43 -13z"/>
<path d="M15266 16865 c-9 -9 -16 -22 -16 -28 0 -7 -7 -48 -14 -92 -12 -68
-12 -83 0 -106 30 -60 94 -41 115 33 15 55 13 141 -3 176 -16 32 -58 41 -82
17z"/>
<path d="M8235 16845 c-33 -32 -32 -68 2 -95 33 -26 68 -20 101 16 28 32 28
58 0 84 -30 27 -73 26 -103 -5z"/>
<path d="M7977 16842 c-26 -28 -22 -78 7 -97 63 -41 143 49 88 98 -25 22 -75
21 -95 -1z"/>
<path d="M16107 16792 c-33 -36 -12 -102 32 -102 43 0 79 78 49 108 -18 18
-63 14 -81 -6z"/>
<path d="M5660 16691 c0 -23 25 -51 45 -51 8 0 19 8 24 19 8 14 6 22 -8 35
-25 23 -61 21 -61 -3z"/>
<path d="M15490 16670 c-41 -41 -10 -110 48 -110 58 0 82 68 39 108 -29 27
-61 28 -87 2z"/>
<path d="M6982 16658 c-39 -39 15 -122 178 -275 117 -109 139 -123 169 -104
21 13 5 47 -62 136 -156 207 -245 283 -285 243z"/>
<path d="M7376 16649 c-34 -27 -37 -93 -5 -133 41 -52 94 -24 105 57 12 84
-40 123 -100 76z"/>
<path d="M14052 16644 c-54 -32 -177 -194 -234 -308 -78 -156 -136 -345 -112
-369 17 -17 50 24 93 116 56 119 141 267 221 387 90 134 119 200 88 200 -7 0
-33 -12 -56 -26z"/>
<path d="M8980 16619 c-19 -34 -5 -134 55 -414 109 -510 119 -579 130 -915 12
-387 35 -879 46 -980 16 -154 48 -265 129 -450 74 -170 97 -207 124 -197 27
10 18 53 -38 196 -30 75 -65 179 -77 231 -22 88 -24 111 -20 315 2 121 4 409
4 640 1 476 1 472 -84 865 -64 297 -106 450 -167 603 -38 99 -52 123 -69 125
-14 2 -26 -4 -33 -19z"/>
<path d="M7826 16469 c-46 -36 -26 -99 33 -99 56 0 83 73 39 104 -29 21 -40
20 -72 -5z"/>
<path d="M15142 16474 c-24 -17 -30 -62 -10 -82 7 -7 24 -12 38 -12 33 0 50
17 50 51 0 24 -30 59 -50 59 -3 0 -16 -7 -28 -16z"/>
<path d="M8256 16448 c-34 -48 -8 -118 43 -118 52 0 87 70 57 115 -22 33 -78
35 -100 3z"/>
<path d="M7014 16329 c-27 -30 -26 -102 3 -130 58 -59 138 57 87 129 -20 28
-65 29 -90 1z"/>
<path d="M16618 16333 c-19 -21 -132 -258 -141 -295 -8 -28 11 -52 34 -43 22
8 171 224 188 271 14 40 14 44 -3 63 -23 26 -58 27 -78 4z"/>
<path d="M15732 16324 c-37 -25 -184 -252 -180 -277 5 -36 42 -33 87 8 52 47
146 170 165 217 15 36 15 38 -6 52 -28 20 -38 20 -66 0z"/>
<path d="M15466 16314 c-19 -18 -21 -55 -4 -72 18 -18 63 -14 81 6 22 24 21
38 -3 62 -24 24 -53 26 -74 4z"/>
<path d="M14200 16264 c-18 -25 -44 -73 -60 -107 -78 -172 -117 -470 -67 -501
15 -9 22 -7 36 10 14 17 182 607 181 637 0 4 -13 7 -30 7 -23 0 -35 -9 -60
-46z"/>
<path d="M15050 16283 c-56 -21 -77 -86 -40 -123 27 -27 66 -25 95 5 55 55 14
143 -55 118z"/>
<path d="M5666 16224 c-8 -21 5 -40 80 -125 134 -149 213 -193 214 -120 0 34
-67 114 -156 185 -96 76 -127 90 -138 60z"/>
<path d="M8431 16144 c-25 -32 -27 -71 -5 -102 22 -32 51 -28 74 11 50 81 -13
163 -69 91z"/>
<path d="M4605 16128 c-2 -7 -22 -76 -44 -153 -22 -77 -81 -273 -131 -435
-113 -366 -135 -455 -160 -650 -52 -393 -120 -676 -194 -805 -17 -29 -17 -28
-12 75 3 58 14 160 26 227 20 123 18 183 -5 183 -22 0 -52 -78 -79 -202 -57
-255 -71 -434 -48 -593 13 -90 9 -293 -8 -367 l-7 -33 -33 70 c-127 273 -133
284 -165 271 -11 -4 -15 -20 -15 -60 0 -65 32 -173 153 -512 47 -132 89 -253
93 -270 l7 -29 -22 19 c-12 11 -74 110 -138 220 -132 228 -163 265 -163 196 0
-32 272 -558 308 -595 12 -12 36 -26 53 -31 36 -10 32 -1 72 -171 21 -89 23
-103 9 -103 -38 0 -350 335 -473 509 -60 85 -84 109 -98 96 -8 -8 49 -115 108
-206 77 -116 176 -234 306 -366 98 -99 129 -124 170 -139 50 -17 50 -17 93
-113 23 -53 42 -104 42 -113 0 -12 -91 56 -270 202 -149 121 -275 220 -281
220 -21 0 27 -106 91 -200 82 -120 350 -355 548 -480 56 -36 145 -95 198 -132
52 -37 153 -97 224 -133 112 -57 136 -65 183 -65 67 0 87 7 87 30 0 21 -23 41
-76 68 -117 59 -356 272 -430 383 -71 107 -169 312 -213 445 -85 254 -181 880
-181 1181 0 161 14 257 56 378 104 299 193 658 319 1275 25 124 61 284 80 356
19 72 39 160 44 195 15 90 31 323 24 348 -6 23 -41 29 -48 9z"/>
<path d="M16656 16088 c-9 -13 -16 -43 -16 -70 0 -39 4 -48 21 -53 26 -9 56
18 68 62 18 62 -39 110 -73 61z"/>
<path d="M7536 16079 c-32 -25 -35 -70 -6 -99 59 -59 152 27 100 93 -26 32
-58 35 -94 6z"/>
<path d="M7873 16085 c-40 -28 -29 -58 51 -148 112 -126 216 -219 240 -215 40
6 32 54 -27 157 -68 119 -97 154 -150 185 -59 34 -88 40 -114 21z"/>
<path d="M15216 16050 c-49 -59 -24 -140 44 -140 37 0 68 32 76 79 10 51 -12
85 -57 89 -30 3 -41 -2 -63 -28z"/>
<path d="M8238 16043 c-24 -28 -30 -60 -18 -98 16 -47 47 -56 77 -21 26 30 32
103 11 124 -17 17 -53 15 -70 -5z"/>
<path d="M7108 16023 c-9 -10 -19 -28 -23 -41 -10 -35 38 -127 83 -157 35 -24
148 -65 178 -65 21 0 54 37 48 53 -10 26 -234 227 -253 227 -10 0 -25 -8 -33
-17z"/>
<path d="M13337 16028 c-26 -21 -37 -61 -23 -89 24 -50 96 -27 112 36 12 49
-47 84 -89 53z"/>
<path d="M16192 16028 c-27 -27 -6 -68 35 -68 29 0 48 33 33 60 -12 22 -49 27
-68 8z"/>
<path d="M9708 15895 c-12 -13 14 -41 97 -102 96 -71 195 -162 370 -340 110
-111 136 -132 169 -139 34 -6 42 -4 58 16 12 15 16 30 12 44 -9 29 -132 193
-180 239 -119 117 -492 316 -526 282z"/>
<path d="M6779 15845 c-38 -21 -65 -76 -50 -103 14 -27 46 -28 84 -4 56 38 75
92 38 112 -26 13 -40 12 -72 -5z"/>
<path d="M10500 15841 c0 -17 196 -214 355 -354 135 -121 253 -176 319 -151
22 8 20 63 -2 90 -9 12 -46 40 -81 64 -35 23 -87 64 -115 90 -68 61 -112 90
-278 187 -139 82 -198 104 -198 74z"/>
<path d="M7787 15830 c-15 -12 -27 -31 -27 -43 0 -13 39 -67 95 -132 78 -91
99 -110 122 -110 23 0 28 5 30 25 4 36 -87 229 -117 251 -42 30 -73 33 -103 9z"/>
<path d="M10283 15735 c-3 -9 -4 -17 -2 -19 2 -1 48 -33 102 -71 54 -37 144
-105 200 -150 l102 -83 5 31 c12 66 -2 81 -176 197 -167 111 -216 132 -231 95z"/>
<path d="M15046 15715 c-71 -25 -115 -68 -102 -100 9 -26 145 -18 176 10 31
27 42 62 30 86 -13 23 -48 24 -104 4z"/>
<path d="M8472 15698 c-17 -17 -15 -83 8 -259 26 -196 28 -206 47 -214 27 -10
41 15 59 99 15 74 15 87 -1 190 -17 113 -36 174 -58 188 -18 11 -41 10 -55 -4z"/>
<path d="M9685 15670 c-3 -11 -3 -26 2 -34 23 -41 275 -216 310 -216 54 0 37
27 -84 132 -158 137 -213 166 -228 118z"/>
<path d="M11164 15648 c9 -13 58 -61 109 -108 52 -47 148 -144 215 -216 67
-72 165 -166 218 -210 118 -98 303 -222 390 -264 114 -54 124 -22 30 95 -35
44 -77 90 -92 101 -16 12 -106 93 -200 180 -133 123 -212 187 -355 285 -217
149 -235 159 -289 159 -41 0 -41 0 -26 -22z"/>
<path d="M9420 15641 c0 -19 62 -70 112 -94 29 -14 55 -24 57 -22 8 9 -43 76
-72 93 -36 22 -97 36 -97 23z"/>
<path d="M7485 15606 c-31 -31 -33 -78 -5 -106 36 -36 83 -20 106 36 12 29 12
40 2 62 -19 38 -69 42 -103 8z"/>
<path d="M8182 15605 c-36 -30 -49 -75 -32 -116 14 -32 53 -48 79 -32 9 5 24
33 34 62 15 44 15 57 5 79 -18 36 -49 39 -86 7z"/>
<path d="M15306 15614 c-42 -41 1 -113 58 -98 69 17 57 114 -14 114 -16 0 -36
-7 -44 -16z"/>
<path d="M11724 15554 c-10 -38 24 -148 61 -202 41 -60 203 -200 447 -387 203
-156 296 -208 482 -274 154 -54 196 -82 365 -239 186 -173 413 -442 521 -617
73 -118 137 -264 181 -410 47 -157 120 -355 171 -466 79 -169 226 -376 290
-408 79 -39 78 3 -3 124 -111 166 -219 408 -354 795 -26 74 -76 194 -111 265
-136 278 -445 646 -705 842 -94 71 -185 123 -304 173 -187 79 -256 121 -463
277 -394 298 -428 328 -475 433 -25 58 -53 97 -77 110 -17 9 -21 6 -26 -16z"/>
<path d="M15621 15484 c-27 -34 -58 -118 -72 -198 -11 -60 -11 -68 6 -86 38
-42 55 -23 130 148 50 114 52 124 29 146 -24 25 -69 20 -93 -10z"/>
<path d="M15997 15492 c-26 -28 -21 -69 9 -89 24 -15 29 -15 53 -2 16 9 27 25
29 43 7 55 -56 87 -91 48z"/>
<path d="M9439 15474 c-11 -14 -9 -24 15 -70 39 -74 90 -124 161 -158 145 -68
395 -233 502 -330 39 -36 100 -101 136 -144 91 -111 146 -134 147 -62 0 36
-178 292 -253 365 -62 60 -290 224 -420 302 -67 41 -234 113 -261 113 -7 0
-20 -7 -27 -16z"/>
<path d="M13792 15465 c-13 -29 -15 -90 -3 -120 7 -18 10 -17 30 15 28 47 30
130 3 130 -11 0 -24 -11 -30 -25z"/>
<path d="M7860 15430 c-11 -11 -20 -28 -20 -38 0 -45 117 -162 161 -162 49 0
18 117 -48 188 -36 37 -64 41 -93 12z"/>
<path d="M15046 15434 c-19 -19 -21 -67 -3 -82 6 -6 24 -13 37 -17 34 -8 80
27 80 60 0 46 -80 74 -114 39z"/>
<path d="M7194 15395 c-22 -34 -11 -73 23 -81 36 -10 77 15 81 48 7 56 -72 81
-104 33z"/>
<path d="M8235 15385 c-14 -13 -25 -34 -25 -45 0 -24 42 -70 64 -70 43 0 86
43 86 85 0 20 -49 55 -77 55 -13 0 -35 -11 -48 -25z"/>
<path d="M6112 15368 c-35 -35 5 -98 62 -98 58 0 77 47 38 93 -18 20 -82 23
-100 5z"/>
<path d="M10808 15303 c-13 -3 -15 -10 -7 -35 12 -44 31 -61 148 -140 128 -86
211 -128 251 -128 61 0 35 30 -145 160 -147 107 -219 149 -247 143z"/>
<path d="M7514 15265 c-15 -22 -15 -32 -5 -67 14 -47 49 -104 79 -131 16 -15
25 -16 40 -8 11 6 22 17 25 24 6 17 -37 173 -54 193 -19 24 -67 17 -85 -11z"/>
<path d="M11328 15264 c-21 -20 -4 -47 60 -94 76 -56 104 -62 128 -25 15 23
15 27 1 49 -28 42 -166 94 -189 70z"/>
<path d="M10197 15242 c-10 -10 -17 -28 -17 -40 0 -26 47 -82 69 -82 50 0 56
68 10 111 -37 34 -41 35 -62 11z"/>
<path d="M9426 15204 c-29 -29 -19 -54 30 -75 73 -33 123 -8 94 46 -23 42 -94
59 -124 29z"/>
<path d="M14890 15160 c-24 -24 -25 -38 -4 -68 30 -43 114 -15 114 37 0 48
-72 69 -110 31z"/>
<path d="M15062 15067 c-84 -84 -101 -117 -59 -117 30 0 190 114 201 144 13
35 1 56 -31 56 -22 0 -47 -18 -111 -83z"/>
<path d="M7871 15061 c-31 -31 -26 -66 28 -196 51 -124 74 -152 98 -119 17 24
16 70 -6 182 -26 133 -71 182 -120 133z"/>
<path d="M15446 15057 c-36 -26 -16 -97 26 -97 54 0 79 58 40 93 -22 20 -42
21 -66 4z"/>
<path d="M5471 15006 c-7 -8 -11 -27 -9 -43 6 -52 88 -40 88 13 0 38 -56 58
-79 30z"/>
<path d="M7342 14987 c-26 -28 -30 -88 -6 -111 24 -25 69 -20 93 10 27 35 27
78 -1 104 -29 26 -59 25 -86 -3z"/>
<path d="M15752 14990 c-27 -25 -30 -78 -5 -87 42 -16 102 58 73 91 -17 22
-42 20 -68 -4z"/>
<path d="M16400 14980 c-27 -27 -28 -95 -1 -110 31 -16 39 -13 66 27 29 43 31
65 9 87 -21 22 -50 20 -74 -4z"/>
<path d="M5832 14948 c-28 -28 -7 -78 33 -78 43 0 59 44 27 73 -22 20 -43 22
-60 5z"/>
<path d="M8120 14900 c-29 -29 -27 -94 5 -125 13 -14 31 -25 40 -25 9 0 27 11
40 25 29 29 34 88 9 123 -19 28 -67 29 -94 2z"/>
<path d="M11721 14846 c-30 -36 27 -83 216 -180 127 -65 185 -30 64 38 -38 21
-104 65 -148 97 -79 60 -111 70 -132 45z"/>
<path d="M16099 14822 c-26 -24 -31 -33 -25 -56 11 -44 89 -62 134 -30 15 10
22 25 22 49 0 66 -75 87 -131 37z"/>
<path d="M14843 14785 c-21 -15 -103 -208 -103 -243 0 -23 19 -42 41 -42 23 0
117 112 134 161 22 61 19 105 -7 123 -28 20 -38 20 -65 1z"/>
<path d="M7174 14776 c-5 -14 64 -212 97 -278 24 -48 60 -75 111 -83 36 -6 44
-4 59 14 22 27 18 39 -41 121 -25 36 -59 89 -75 118 -48 89 -135 151 -151 108z"/>
<path d="M7676 14775 c-39 -39 -42 -143 -6 -188 40 -49 110 23 110 113 0 74
-61 117 -104 75z"/>
<path d="M8313 14775 c-28 -19 -50 -136 -34 -177 22 -58 80 -25 109 61 19 55
15 98 -10 115 -28 20 -38 20 -65 1z"/>
<path d="M9416 14763 c-15 -15 -3 -66 35 -154 22 -52 57 -150 76 -219 60 -210
128 -347 263 -530 67 -90 96 -113 138 -108 l29 3 -78 130 c-111 183 -192 351
-245 512 -51 153 -57 165 -121 274 -41 70 -81 107 -97 92z"/>
<path d="M15389 14731 c-16 -16 -29 -38 -29 -49 0 -49 86 -71 128 -32 28 27
28 61 -1 88 -32 30 -63 28 -98 -7z"/>
<path d="M14529 14711 c-34 -35 -38 -79 -9 -106 17 -15 23 -16 51 -5 30 13 69
62 69 88 0 19 -38 52 -61 52 -11 0 -34 -13 -50 -29z"/>
<path d="M12282 14708 c-37 -37 17 -118 79 -118 44 0 36 43 -19 103 -28 30
-42 33 -60 15z"/>
<path d="M10676 14684 c-9 -8 -16 -20 -16 -25 0 -41 175 -229 213 -229 4 0 7
14 7 31 0 46 -148 239 -184 239 -2 0 -12 -7 -20 -16z"/>
<path d="M6787 14662 c-21 -23 -21 -41 -1 -70 30 -43 104 -20 104 33 0 50 -69
75 -103 37z"/>
<path d="M15036 14664 c-9 -8 -16 -26 -16 -38 0 -77 130 -71 172 8 8 15 7 22
-8 33 -26 19 -128 17 -148 -3z"/>
<path d="M8014 14592 c-31 -21 -43 -84 -21 -113 45 -59 117 -30 117 48 0 56
-55 93 -96 65z"/>
<path d="M6370 14547 c0 -30 61 -119 103 -151 40 -30 106 -35 131 -10 31 30
18 45 -104 123 -103 66 -130 74 -130 38z"/>
<path d="M12566 14524 c-22 -21 -20 -50 4 -74 24 -24 38 -25 68 -4 24 17 30
62 10 82 -17 17 -64 15 -82 -4z"/>
<path d="M14916 14519 c-30 -24 -33 -49 -8 -72 23 -21 51 -22 80 -1 27 18 29
55 4 77 -25 22 -44 21 -76 -4z"/>
<path d="M10112 14523 c-21 -8 -33 -52 -21 -74 15 -29 59 -21 79 13 24 43 -12
81 -58 61z"/>
<path d="M8862 14438 c-19 -31 -22 -50 -22 -151 0 -128 22 -313 46 -379 18
-53 57 -104 84 -111 33 -8 34 30 6 155 -37 162 -56 279 -63 391 -3 53 -11 105
-18 114 -10 14 -14 11 -33 -19z"/>
<path d="M9410 14380 c-20 -20 -20 -23 -4 -155 9 -73 34 -136 60 -147 13 -6
26 -9 28 -7 7 8 -33 289 -44 309 -13 25 -15 25 -40 0z"/>
<path d="M14328 14377 c-29 -24 -150 -207 -162 -245 -5 -14 -3 -29 5 -38 49
-59 258 189 235 281 -8 32 -41 33 -78 2z"/>
<path d="M7567 14350 c-39 -24 -47 -35 -47 -59 0 -34 39 -71 76 -71 37 0 74
22 90 51 18 36 18 59 -2 87 -21 31 -61 28 -117 -8z"/>
<path d="M14553 14356 c-40 -34 -58 -77 -44 -105 13 -24 50 -36 84 -27 32 8
85 60 93 92 10 41 -6 59 -58 62 -37 2 -51 -2 -75 -22z"/>
<path d="M8251 14312 c-60 -63 -81 -188 -34 -206 55 -21 123 112 104 204 -9
47 -27 48 -70 2z"/>
<path d="M7985 14295 c-41 -40 -27 -125 20 -125 48 0 95 52 95 104 0 47 -76
61 -115 21z"/>
<path d="M13021 14307 c-6 -6 -11 -17 -11 -24 0 -6 55 -72 123 -146 67 -74
145 -160 172 -191 38 -42 58 -56 78 -56 51 0 35 41 -74 186 -76 102 -117 148
-167 184 -69 51 -104 64 -121 47z"/>
<path d="M15286 14269 c-50 -40 -21 -119 44 -119 75 0 96 91 29 125 -36 19
-41 19 -73 -6z"/>
<path d="M7089 14251 c-57 -58 -22 -119 62 -108 52 7 69 22 69 63 0 71 -78 98
-131 45z"/>
<path d="M12776 14254 c-9 -23 14 -60 127 -212 56 -75 152 -213 213 -307 115
-174 160 -235 174 -235 4 0 13 14 20 31 17 41 3 87 -63 208 -48 87 -280 390
-376 491 -40 42 -84 53 -95 24z"/>
<path d="M11991 14218 c-11 -31 7 -77 35 -90 19 -9 28 -8 44 7 26 23 25 46 -1
79 -26 33 -66 35 -78 4z"/>
<path d="M15825 14176 c-30 -45 19 -102 70 -82 26 10 40 52 27 81 -16 35 -75
36 -97 1z"/>
<path d="M7806 14168 c-24 -34 -20 -80 13 -124 36 -50 130 -106 179 -108 33
-1 37 2 40 27 3 22 -7 37 -51 80 -30 28 -71 73 -92 100 -41 52 -66 59 -89 25z"/>
<path d="M9901 14134 c-25 -56 32 -157 171 -306 44 -47 60 -58 86 -58 22 0 32
5 32 15 0 9 -62 96 -139 195 -134 173 -139 178 -150 154z"/>
<path d="M7491 14131 c-21 -38 -11 -83 45 -208 31 -70 74 -192 97 -271 l41
-144 23 26 c27 32 28 43 8 161 -37 215 -56 290 -98 370 -38 72 -45 80 -74 83
-23 2 -34 -2 -42 -17z"/>
<path d="M14632 14128 c-7 -7 -12 -25 -12 -40 0 -40 39 -58 75 -34 29 19 32
46 7 69 -22 20 -53 22 -70 5z"/>
<path d="M14356 14064 c-35 -35 -8 -104 42 -104 28 0 64 47 56 74 -13 44 -68
61 -98 30z"/>
<path d="M5926 14051 c-24 -27 -18 -75 11 -79 31 -4 65 33 61 66 -4 35 -46 42
-72 13z"/>
<path d="M6560 14020 c-11 -11 -20 -28 -20 -38 0 -28 29 -62 54 -62 52 0 76
75 34 104 -30 21 -44 20 -68 -4z"/>
<path d="M8666 14024 c-18 -47 -36 -215 -36 -340 0 -207 21 -300 110 -489 51
-110 71 -135 94 -116 20 17 11 67 -46 266 -50 177 -61 241 -82 513 -12 154
-25 206 -40 166z"/>
<path d="M14845 13987 c-141 -49 -145 -51 -145 -81 0 -52 51 -59 144 -21 73
30 153 83 159 106 5 19 -10 40 -27 38 -6 0 -65 -19 -131 -42z"/>
<path d="M12672 14008 c-27 -27 -13 -65 46 -127 32 -34 62 -61 67 -61 6 0 16
9 23 20 10 17 8 29 -19 83 -17 34 -38 70 -47 80 -17 20 -53 22 -70 5z"/>
<path d="M15980 13990 c-24 -24 -24 -29 -4 -58 29 -42 79 -19 72 34 -4 37 -42
50 -68 24z"/>
<path d="M8087 13942 c-24 -26 -21 -65 6 -90 44 -42 107 -17 107 41 0 57 -77
89 -113 49z"/>
<path d="M9500 13919 c0 -47 4 -56 83 -174 130 -195 237 -299 417 -405 83 -49
121 -60 150 -45 l24 13 -35 33 c-19 19 -82 70 -139 114 -139 106 -309 276
-404 403 -42 56 -81 102 -86 102 -6 0 -10 -18 -10 -41z"/>
<path d="M11041 13921 c-6 -11 -11 -28 -11 -38 0 -23 75 -163 137 -256 94
-141 326 -350 516 -465 51 -31 87 -35 87 -9 0 5 -37 44 -82 86 -280 258 -383
370 -520 561 -42 58 -85 113 -96 123 -20 18 -21 18 -31 -2z"/>
<path d="M7137 13882 c-62 -68 52 -311 138 -294 39 7 41 26 8 95 -16 34 -35
85 -42 112 -23 92 -31 105 -61 105 -15 0 -34 -8 -43 -18z"/>
<path d="M14315 13880 c-24 -27 -13 -68 22 -76 54 -14 104 43 73 82 -18 21
-74 18 -95 -6z"/>
<path d="M7366 13827 c-8 -45 9 -82 45 -98 38 -15 74 7 84 51 8 37 -5 55 -44
63 -16 3 -40 9 -54 12 -22 6 -25 3 -31 -28z"/>
<path d="M14946 13818 c-34 -47 -7 -98 51 -98 55 0 85 67 45 103 -27 25 -78
22 -96 -5z"/>
<path d="M10522 13778 c-27 -27 -13 -63 54 -136 47 -51 73 -72 90 -72 13 0 24
5 24 11 0 24 -66 165 -86 186 -25 25 -63 30 -82 11z"/>
<path d="M15442 13727 c-40 -42 -21 -117 29 -117 12 0 34 14 51 30 24 25 29
36 23 58 -4 15 -11 33 -17 39 -17 21 -63 15 -86 -10z"/>
<path d="M11421 13721 c-12 -8 -12 -16 3 -53 20 -53 77 -132 110 -153 14 -9
34 -15 45 -13 19 3 13 15 -52 113 -39 60 -76 110 -82 112 -5 1 -16 -1 -24 -6z"/>
<path d="M13490 13681 c0 -46 54 -238 106 -378 93 -252 255 -561 340 -650 105
-111 115 -45 20 145 -35 70 -125 266 -200 435 -190 430 -220 487 -253 487 -9
0 -13 -13 -13 -39z"/>
<path d="M8521 13697 c-19 -24 -41 -146 -41 -234 0 -190 99 -503 160 -503 22
0 22 34 1 123 -33 135 -62 344 -70 492 -5 107 -9 130 -22 133 -9 1 -21 -4 -28
-11z"/>
<path d="M4832 13652 c-7 -5 -16 -22 -21 -40 -11 -38 5 -55 51 -55 32 0 68 31
68 58 0 35 -63 58 -98 37z"/>
<path d="M7890 13640 c-25 -25 -25 -31 1 -64 29 -37 86 -34 108 5 13 24 13 29
-2 53 -22 33 -77 36 -107 6z"/>
<path d="M9069 13643 c-37 -44 5 -169 96 -286 48 -60 76 -72 95 -37 24 44
-123 340 -168 340 -5 0 -16 -7 -23 -17z"/>
<path d="M12780 13640 c-38 -38 -15 -120 35 -120 34 0 55 26 55 69 0 63 -50
91 -90 51z"/>
<path d="M8118 13589 c-27 -15 -38 -75 -38 -214 0 -141 20 -314 45 -404 22
-76 74 -160 103 -168 35 -8 47 9 29 43 -50 97 -82 262 -103 535 -9 118 -17
215 -18 216 0 1 -9 -3 -18 -8z"/>
<path d="M10114 13575 c-3 -8 4 -30 15 -49 27 -43 167 -176 258 -245 90 -68
224 -135 252 -126 35 11 24 38 -27 67 -26 14 -99 71 -162 125 -249 212 -288
243 -309 243 -12 0 -24 -7 -27 -15z"/>
<path d="M14686 13569 c-15 -12 -26 -30 -26 -45 0 -29 33 -64 60 -64 53 0 81
84 38 114 -29 21 -40 20 -72 -5z"/>
<path d="M16313 13568 c-29 -14 -31 -63 -4 -78 46 -24 111 -5 111 34 0 47 -55
69 -107 44z"/>
<path d="M9544 13545 c-18 -45 42 -136 134 -205 81 -60 218 -134 237 -126 31
11 16 53 -34 98 -27 24 -98 89 -159 146 -91 83 -117 102 -142 102 -18 0 -33
-6 -36 -15z"/>
<path d="M7425 13538 c-30 -16 -45 -39 -45 -69 0 -37 24 -59 65 -59 62 0 98
77 55 120 -22 22 -45 25 -75 8z"/>
<path d="M6716 13504 c-39 -39 -25 -115 22 -122 29 -4 82 48 82 81 0 49 -69
76 -104 41z"/>
<path d="M12177 13513 c-14 -13 -6 -103 14 -168 29 -94 77 -195 142 -301 70
-113 123 -172 164 -183 l31 -9 -11 31 c-5 18 -20 48 -33 68 -39 63 -123 236
-164 340 -75 186 -116 250 -143 222z"/>
<path d="M8866 13438 c-23 -33 -21 -134 5 -203 26 -69 116 -172 142 -162 9 3
17 14 17 24 0 15 -135 350 -145 361 -2 2 -10 -7 -19 -20z"/>
<path d="M14431 13379 c-29 -28 -27 -75 10 -200 35 -118 62 -169 89 -169 29 0
32 15 15 80 -9 33 -18 97 -21 143 -7 105 -19 141 -48 155 -19 9 -28 7 -45 -9z"/>
<path d="M7786 13374 c-27 -26 -20 -61 15 -80 44 -22 79 -6 79 35 0 36 -23 61
-55 61 -13 0 -31 -7 -39 -16z"/>
<path d="M13113 13383 c-8 -3 -13 -25 -13 -58 0 -40 16 -99 60 -225 65 -190
105 -263 151 -279 39 -14 39 -10 -20 172 -28 84 -59 190 -71 237 -30 120 -65
170 -107 153z"/>
<path d="M15527 13372 c-21 -23 -22 -46 -1 -66 23 -24 50 -19 86 13 32 29 33
29 14 50 -24 26 -77 28 -99 3z"/>
<path d="M10846 13344 c-21 -20 -20 -32 3 -69 28 -46 65 -81 117 -115 49 -31
78 -37 103 -21 23 15 2 50 -85 141 -80 83 -107 96 -138 64z"/>
<path d="M13370 13341 c-16 -31 -12 -64 21 -158 32 -91 102 -233 122 -245 23
-15 57 -9 57 10 0 35 -129 386 -146 399 -25 18 -42 16 -54 -6z"/>
<path d="M14991 13282 c-85 -42 -171 -121 -171 -156 0 -13 9 -31 19 -40 17
-16 25 -16 58 -6 152 49 274 175 221 228 -19 19 -48 13 -127 -26z"/>
<path d="M12862 13278 c-38 -38 9 -193 59 -193 22 0 24 5 27 50 1 28 -3 73
-10 100 -11 42 -17 50 -38 53 -14 2 -31 -3 -38 -10z"/>
<path d="M12553 13262 c-19 -12 -31 -55 -22 -79 6 -17 16 -23 37 -23 37 0 52
17 52 57 0 41 -36 65 -67 45z"/>
<path d="M14635 13245 c-30 -29 -31 -49 -5 -75 28 -28 64 -25 89 6 12 15 21
31 21 36 0 15 -48 58 -65 58 -9 0 -27 -11 -40 -25z"/>
<path d="M16472 13193 c-22 -32 -142 -269 -142 -280 0 -5 7 -16 14 -26 14 -17
16 -18 40 -2 23 16 123 160 160 233 10 18 16 48 14 65 -3 28 -7 32 -34 35 -25
2 -36 -3 -52 -25z"/>
<path d="M9380 13192 c0 -26 222 -242 248 -242 16 0 22 6 22 23 0 30 0 30
-128 140 -113 97 -142 113 -142 79z"/>
<path d="M7390 13170 c-36 -36 -16 -90 35 -90 24 0 55 33 55 57 0 18 -37 53
-55 53 -8 0 -24 -9 -35 -20z"/>
<path d="M7876 13164 c-43 -42 14 -112 63 -78 27 20 27 59 -1 78 -28 20 -43
20 -62 0z"/>
<path d="M15295 13055 c-27 -26 -33 -73 -13 -93 19 -19 63 -14 86 11 29 30 28
71 0 91 -31 22 -45 20 -73 -9z"/>
<path d="M9152 13058 c-17 -17 -15 -32 7 -52 28 -25 61 -6 61 34 0 26 -4 30
-28 30 -15 0 -33 -5 -40 -12z"/>
<path d="M6862 13048 c-21 -21 -13 -43 37 -92 41 -40 53 -47 81 -44 73 7 66
68 -13 116 -56 34 -85 40 -105 20z"/>
<path d="M6402 13024 c-7 -14 -6 -29 3 -51 22 -52 77 -70 108 -35 38 42 8 87
-66 99 -28 4 -37 1 -45 -13z"/>
<path d="M9775 12950 c-15 -16 -17 -26 -9 -48 13 -38 55 -38 68 1 19 52 -24
86 -59 47z"/>
<path d="M14735 12935 c-30 -29 -32 -68 -5 -95 43 -43 110 -10 110 53 0 64
-60 88 -105 42z"/>
<path d="M7790 12943 c0 -16 17 -31 119 -112 58 -45 112 -80 120 -79 9 2 17
15 19 29 2 21 -8 36 -48 72 -58 53 -142 97 -182 97 -15 0 -28 -3 -28 -7z"/>
<path d="M12686 12901 c-26 -29 -17 -56 19 -56 28 0 30 3 30 35 0 41 -22 51
-49 21z"/>
<path d="M15732 12898 c-47 -47 78 -180 138 -148 19 10 19 13 6 45 -39 92
-107 140 -144 103z"/>
<path d="M5498 12885 c-49 -27 -45 -85 8 -105 26 -10 73 2 86 23 15 24 8 66
-14 81 -27 19 -45 20 -80 1z"/>
<path d="M6611 12886 c-6 -7 -8 -21 -5 -30 3 -9 68 -67 143 -129 203 -168 231
-188 261 -185 23 3 25 7 24 50 -1 81 -44 121 -279 256 -94 54 -124 62 -144 38z"/>
<path d="M7512 12888 c-7 -7 -12 -29 -12 -49 0 -31 6 -43 34 -64 81 -61 242
-89 266 -46 5 11 10 22 10 26 0 3 -34 21 -75 40 -41 18 -95 50 -121 69 -48 37
-81 45 -102 24z"/>
<path d="M10670 12870 c-132 -10 -237 -29 -250 -45 -13 -16 -3 -43 21 -56 11
-5 101 -15 202 -20 213 -12 272 -24 427 -86 240 -95 368 -169 659 -378 168
-120 241 -165 269 -165 9 0 32 43 32 59 0 18 -62 84 -151 159 -52 44 -136 121
-187 171 -108 105 -182 160 -302 224 -211 112 -453 159 -720 137z"/>
<path d="M13590 12805 c-10 -13 -11 -24 -1 -57 18 -58 152 -255 252 -368 119
-136 178 -211 247 -320 99 -154 112 -172 125 -167 28 9 17 63 -33 167 -68 138
-139 244 -247 366 -117 133 -181 214 -238 304 -27 41 -49 76 -49 76 -1 1 -10
4 -22 8 -13 4 -26 1 -34 -9z"/>
<path d="M4574 12790 c-28 -11 -154 -150 -154 -170 0 -30 25 -53 51 -47 55 14
169 141 169 189 0 9 -9 22 -19 28 -22 11 -19 11 -47 0z"/>
<path d="M5195 12780 c-53 -21 -61 -87 -13 -104 35 -12 93 13 103 45 12 38
-47 77 -90 59z"/>
<path d="M6293 12724 c-8 -22 27 -55 144 -134 163 -110 283 -133 283 -53 0 24
-46 52 -180 108 -36 15 -96 42 -133 61 -75 37 -105 42 -114 18z"/>
<path d="M13377 12713 c-12 -11 -8 -52 8 -90 24 -56 232 -354 277 -395 42 -39
88 -51 88 -23 0 15 -246 416 -297 483 -23 30 -59 42 -76 25z"/>
<path d="M15035 12682 c-54 -18 -70 -47 -44 -79 34 -40 199 28 199 82 0 21
-89 19 -155 -3z"/>
<path d="M16031 12635 c-89 -51 -230 -156 -236 -176 -8 -25 11 -49 39 -49 32
0 182 75 243 121 29 22 59 52 68 68 14 28 13 30 -10 45 -33 22 -53 20 -104 -9z"/>
<path d="M7788 12622 c-24 -5 -23 -9 10 -37 43 -38 339 -125 425 -125 49 0
161 32 190 54 21 16 49 87 39 97 -7 7 -634 17 -664 11z"/>
<path d="M10363 12594 c-13 -9 -23 -20 -23 -24 0 -11 70 -37 135 -50 63 -14
273 -96 429 -168 122 -55 146 -58 154 -18 5 24 -36 75 -87 107 -25 16 -134 58
-242 94 -221 73 -325 90 -366 59z"/>
<path d="M12822 12578 c-7 -7 -12 -26 -12 -44 0 -59 53 -73 78 -21 20 42 8 77
-26 77 -15 0 -33 -5 -40 -12z"/>
<path d="M7187 12574 c-22 -23 93 -107 245 -179 104 -49 314 -128 399 -150
129 -34 301 -10 365 50 37 35 46 78 18 89 -9 3 -67 6 -129 6 -144 0 -237 18
-438 85 -89 29 -223 65 -298 79 -148 28 -153 29 -162 20z"/>
<path d="M15195 12555 c-33 -7 -94 -26 -135 -42 -67 -25 -75 -32 -78 -57 -2
-17 4 -36 15 -48 26 -28 98 -18 189 26 81 41 104 62 107 102 2 35 -13 38 -98
19z"/>
<path d="M12092 12548 c-26 -26 -16 -39 190 -271 118 -133 160 -171 201 -181
27 -6 27 -6 16 16 -19 36 -147 216 -206 290 -55 68 -156 158 -177 158 -7 0
-17 -5 -24 -12z"/>
<path d="M9514 12524 c-12 -3 -36 -18 -55 -33 l-33 -28 174 -6 c270 -8 418
-41 722 -158 180 -70 234 -82 245 -53 8 22 -28 55 -113 103 -138 77 -245 110
-494 151 -118 19 -401 34 -446 24z"/>
<path d="M14096 12499 c-31 -25 -34 -61 -6 -89 25 -25 42 -25 65 0 21 24 24
72 5 94 -17 21 -32 20 -64 -5z"/>
<path d="M12446 12484 c-12 -32 -5 -47 52 -106 52 -55 149 -130 186 -144 35
-13 -6 61 -89 161 -72 88 -91 105 -114 105 -17 0 -31 -7 -35 -16z"/>
<path d="M11211 12471 c-19 -12 15 -55 137 -174 54 -52 131 -130 172 -174 92
-99 200 -171 435 -288 147 -75 181 -88 250 -97 91 -13 137 0 143 39 4 28 -29
50 -104 70 -90 23 -158 62 -309 178 -148 114 -290 211 -500 345 -183 116 -193
120 -224 101z"/>
<path d="M14292 12388 c-24 -24 -10 -73 84 -286 97 -221 120 -260 148 -249 28
11 18 53 -66 278 -92 249 -124 299 -166 257z"/>
<path d="M9190 12364 c-153 -51 -340 -155 -340 -189 0 -8 4 -15 9 -15 4 0 59
24 122 54 63 30 159 68 214 86 123 39 135 47 105 72 -27 22 -20 23 -110 -8z"/>
<path d="M15405 12305 c-32 -31 -32 -70 -1 -90 57 -38 129 50 80 99 -22 23
-51 20 -79 -9z"/>
<path d="M7278 12279 c-19 -10 -23 -45 -10 -67 21 -33 128 -42 163 -13 32 26
16 44 -64 70 -70 24 -66 24 -89 10z"/>
<path d="M14607 12283 c-16 -15 -4 -72 47 -225 60 -179 82 -261 121 -447 52
-247 168 -591 206 -612 16 -8 19 -6 19 14 0 13 -11 55 -24 93 -35 104 -71 264
-116 514 -45 254 -65 332 -121 476 -58 149 -105 215 -132 187z"/>
<path d="M9631 12215 c-129 -34 -187 -62 -479 -238 -230 -138 -366 -235 -351
-251 7 -8 106 41 219 108 170 102 488 253 655 312 88 30 162 57 164 60 2 2 -2
10 -9 19 -18 22 -89 18 -199 -10z"/>
<path d="M6434 12222 c-13 -8 -34 -46 -34 -61 0 -18 31 -41 55 -41 44 0 95 81
64 101 -17 11 -70 11 -85 1z"/>
<path d="M8145 12200 c-132 -15 -341 -42 -465 -59 -286 -39 -476 -58 -662 -67
-156 -7 -176 -14 -163 -54 15 -46 55 -55 275 -58 231 -4 450 10 620 39 63 11
269 42 457 69 342 50 426 69 447 103 9 15 7 22 -13 38 -20 16 -38 19 -140 18
-64 0 -224 -13 -356 -29z"/>
<path d="M15882 12207 c-41 -44 -19 -117 35 -117 35 0 53 11 68 41 20 38 19
55 -5 79 -27 27 -71 26 -98 -3z"/>
<path d="M8940 12073 c-58 -36 -172 -109 -255 -163 -219 -143 -426 -251 -640
-335 -88 -34 -109 -49 -101 -71 14 -37 205 16 411 115 156 76 679 424 732 489
7 8 10 19 7 23 -12 20 -55 4 -154 -58z"/>
<path d="M13433 12113 c-23 -9 -14 -67 18 -119 40 -62 251 -316 287 -345 l27
-21 3 32 c2 23 -6 47 -27 81 -42 67 -250 351 -269 367 -17 13 -20 13 -39 5z"/>
<path d="M15526 12079 c-14 -11 -26 -28 -26 -38 0 -22 30 -51 53 -51 42 0 78
90 41 104 -26 10 -40 7 -68 -15z"/>
<path d="M5468 12033 c-27 -30 -32 -85 -11 -112 37 -46 84 2 87 87 1 34 -1 37
-30 40 -19 2 -36 -3 -46 -15z"/>
<path d="M8302 12005 c-104 -28 -293 -95 -457 -162 -179 -73 -332 -128 -465
-168 -158 -46 -280 -104 -413 -194 -57 -39 -160 -98 -228 -131 -68 -33 -168
-84 -222 -113 -199 -109 -384 -156 -652 -164 -215 -6 -271 3 -555 92 -244 76
-371 132 -568 249 -90 53 -203 116 -251 141 -187 94 -396 222 -587 361 -141
103 -175 113 -139 44 50 -96 226 -256 427 -388 149 -97 505 -348 513 -363 4
-6 4 -13 1 -16 -8 -9 -180 15 -268 38 -43 10 -97 19 -120 19 l-43 -1 37 -33
c41 -36 78 -48 313 -103 112 -26 186 -37 295 -43 126 -7 156 -12 230 -39 47
-17 95 -37 108 -43 l23 -12 -23 -9 c-13 -5 -158 -11 -323 -13 -194 -3 -303 -8
-310 -15 -20 -20 31 -46 112 -57 284 -39 499 -37 663 8 41 11 98 26 125 34 39
11 87 12 224 5 96 -4 179 -13 184 -18 13 -13 -148 -90 -272 -131 -111 -36
-358 -91 -586 -130 -133 -23 -185 -36 -199 -50 -19 -19 -19 -19 10 -31 38 -14
154 -7 404 26 227 30 321 51 422 96 126 55 330 159 403 207 97 62 143 82 195
81 l45 0 -57 -54 c-80 -75 -244 -196 -347 -254 -48 -28 -161 -80 -251 -117
-289 -116 -323 -140 -239 -165 32 -10 59 -10 125 -1 183 27 327 86 582 239
239 144 325 216 539 450 206 224 278 261 1058 539 436 156 661 253 711 305
l26 28 -22 30 c-22 32 -50 51 -72 51 -7 -1 -55 -12 -106 -25z"/>
<path d="M6621 11992 c-36 -20 -71 -72 -71 -108 0 -23 29 -54 51 -54 24 0 95
51 113 80 22 38 20 66 -6 84 -29 21 -46 20 -87 -2z"/>
<path d="M5262 11970 c-47 -20 -53 -81 -11 -133 42 -55 99 -21 99 59 0 34 -5
47 -26 63 -30 23 -30 23 -62 11z"/>
<path d="M7295 11856 c-51 -24 -105 -69 -105 -86 0 -34 152 -16 249 30 103 49
94 80 -24 80 -53 0 -82 -6 -120 -24z"/>
<path d="M9775 11821 c-197 -54 -304 -137 -580 -446 -149 -167 -232 -239 -335
-290 -69 -34 -110 -72 -110 -101 0 -30 14 -38 72 -36 65 1 130 32 279 134 144
99 208 134 276 148 26 5 83 20 125 31 106 30 115 25 82 -48 -53 -120 -41 -207
45 -330 92 -131 198 -191 402 -229 158 -29 184 -29 316 -7 l102 17 93 -33 c51
-18 118 -39 148 -47 64 -16 179 -18 230 -4 102 28 199 135 208 230 l5 50 -75
77 c-96 101 -121 134 -203 273 -89 150 -205 269 -315 324 -101 49 -304 105
-410 113 -74 5 -102 1 -214 -26 -71 -17 -131 -29 -133 -27 -8 8 21 44 49 60
51 30 123 35 313 19 211 -17 362 -12 459 15 91 27 121 49 121 93 l0 34 -60 -2
c-33 0 -112 -2 -175 -4 -63 -2 -167 2 -230 9 -63 7 -182 15 -265 17 -128 5
-160 2 -220 -14z m486 -347 c67 -20 144 -59 183 -91 17 -14 81 -84 144 -157
63 -72 170 -190 238 -263 68 -72 124 -136 124 -142 0 -6 -14 -18 -32 -27 -43
-22 -117 -14 -235 25 -105 35 -205 41 -289 17 -90 -27 -228 -48 -274 -43 -138
16 -242 95 -305 229 -32 67 -40 97 -43 155 -5 81 6 121 50 187 35 53 97 94
172 112 74 18 203 17 267 -2z"/>
<path d="M9992 11415 c-24 -7 -52 -21 -63 -31 -20 -18 -46 -90 -37 -100 3 -3
32 -7 64 -10 80 -5 140 -22 160 -46 17 -18 17 -20 -3 -39 -29 -30 -94 -33
-186 -11 l-77 19 -6 -24 c-14 -52 33 -169 90 -226 59 -59 98 -72 216 -71 89 0
119 5 200 32 52 17 122 34 155 37 83 9 119 22 149 52 l26 26 -31 56 c-77 138
-257 273 -443 330 -77 24 -151 26 -214 6z"/>
<path d="M11736 11778 c3 -24 14 -72 24 -108 45 -158 70 -342 70 -506 0 -97 2
-113 20 -129 28 -25 65 -13 79 26 21 61 13 192 -25 382 -41 211 -79 315 -129
352 -17 14 -35 25 -39 25 -3 0 -3 -19 0 -42z"/>
<path d="M9221 11802 c-42 -4 -107 -44 -256 -158 -66 -50 -194 -140 -285 -199
-170 -111 -208 -144 -187 -157 30 -19 74 0 262 109 253 147 305 182 384 257
56 54 129 144 119 149 -1 1 -18 1 -37 -1z"/>
<path d="M11527 11683 c-15 -14 -6 -118 23 -267 36 -191 46 -275 65 -536 14
-214 33 -303 67 -324 39 -24 64 44 88 237 9 75 7 106 -15 259 -15 95 -35 209
-46 253 -23 88 -116 353 -132 373 -10 13 -39 16 -50 5z"/>
<path d="M14512 11654 c-29 -20 -29 -64 1 -92 43 -40 77 -19 77 47 0 26 -28
61 -50 61 -3 0 -16 -7 -28 -16z"/>
<path d="M10814 11636 c-12 -48 78 -353 127 -431 52 -82 98 -134 139 -155 47
-24 66 -25 74 -4 7 18 5 21 -45 89 -50 68 -80 132 -119 250 -39 122 -84 222
-112 252 -28 30 -56 30 -64 -1z"/>
<path d="M12072 11588 c-13 -50 -45 -283 -63 -445 -16 -156 -8 -377 16 -423
32 -63 84 -120 110 -120 37 0 41 37 21 175 -13 91 -17 183 -16 380 1 264 -9
395 -36 447 -8 15 -16 28 -18 28 -2 0 -8 -19 -14 -42z"/>
<path d="M4012 11521 c-23 -14 67 -82 192 -144 157 -77 266 -113 266 -88 0 39
-119 110 -328 195 -62 25 -114 46 -115 46 -1 0 -8 -4 -15 -9z"/>
<path d="M8339 11526 c-13 -14 -283 -80 -450 -111 -283 -53 -418 -104 -632
-239 -264 -166 -597 -460 -597 -527 0 -41 26 -25 197 122 111 96 336 263 440
328 195 120 357 183 599 230 169 34 309 71 439 119 70 25 80 32 80 53 0 20 -5
24 -35 27 -20 2 -38 1 -41 -2z"/>
<path d="M14114 11495 c-13 -13 -24 -35 -24 -48 0 -74 90 -247 129 -247 10 0
22 7 25 16 8 21 -33 243 -49 270 -21 33 -53 37 -81 9z"/>
<path d="M7395 11447 c-204 -85 -360 -191 -570 -387 -345 -323 -681 -558
-1095 -765 -191 -96 -630 -334 -689 -375 -60 -40 -98 -77 -89 -85 10 -10 98
26 350 144 310 145 446 213 608 303 293 165 632 410 904 654 362 326 410 360
650 458 60 25 105 50 114 64 14 22 14 22 -44 22 -44 0 -80 -9 -139 -33z"/>
<path d="M8988 11407 c-88 -54 -437 -308 -453 -330 -17 -24 -11 -37 17 -37 57
0 471 264 519 331 47 67 2 86 -83 36z"/>
<path d="M11142 11408 c-40 -40 28 -218 83 -218 39 0 41 26 9 118 -37 108 -60
132 -92 100z"/>
<path d="M4039 11378 c-19 -5 -72 -37 -116 -71 -45 -34 -162 -123 -260 -197
-420 -319 -581 -477 -823 -815 -51 -71 -209 -283 -350 -471 -290 -384 -379
-513 -507 -735 -98 -168 -125 -220 -202 -382 -64 -136 -112 -210 -272 -422
-146 -194 -241 -306 -408 -485 -132 -140 -154 -170 -145 -194 14 -36 55 -15
233 119 186 140 238 190 275 265 12 25 45 74 72 110 160 206 285 405 430 682
146 281 314 521 751 1073 410 517 664 786 1030 1086 242 199 347 314 368 400
8 33 -24 49 -76 37z"/>
<path d="M14562 11368 c-26 -26 -7 -97 42 -155 29 -34 72 -45 81 -20 3 7 -10
50 -28 97 -28 72 -36 85 -57 88 -14 2 -31 -3 -38 -10z"/>
<path d="M13157 11322 c-34 -37 -14 -92 33 -92 21 0 35 8 47 26 15 24 15 29 2
53 -18 32 -59 39 -82 13z"/>
<path d="M12429 11248 c-19 -36 -4 -300 26 -448 28 -141 66 -229 125 -291 78
-82 104 -25 46 102 -53 115 -82 230 -116 447 -16 105 -32 197 -35 202 -11 17
-34 11 -46 -12z"/>
<path d="M7901 11167 c-91 -49 -191 -142 -191 -179 0 -23 68 0 169 56 121 66
140 88 115 125 -19 27 -39 27 -93 -2z"/>
<path d="M11461 11153 c-25 -54 -34 -215 -22 -384 11 -165 18 -191 51 -209 18
-10 20 -7 20 22 1 18 7 105 14 193 11 136 11 176 -1 265 -10 72 -20 111 -32
123 -17 17 -18 17 -30 -10z"/>
<path d="M7480 11072 c-167 -94 -293 -188 -530 -396 -235 -207 -480 -477 -480
-530 0 -37 41 -8 174 122 78 76 186 179 241 228 122 110 511 420 658 526 96
68 105 78 88 88 -35 18 -64 11 -151 -38z"/>
<path d="M8266 11055 c-17 -17 -12 -41 11 -49 24 -10 63 5 63 23 0 38 -46 54
-74 26z"/>
<path d="M4148 11053 c-16 -4 -744 -783 -773 -828 -8 -11 -17 -33 -21 -49 -6
-27 -6 -28 17 -16 38 20 748 730 780 779 17 26 29 59 29 77 0 36 -6 43 -32 37z"/>
<path d="M9194 11013 c-34 -27 -99 -81 -144 -121 -45 -40 -163 -134 -263 -208
-225 -168 -251 -194 -187 -194 17 0 50 10 73 21 80 40 299 191 421 289 152
122 218 193 214 229 -5 44 -44 39 -114 -16z"/>
<path d="M4309 10963 c-98 -49 -166 -118 -218 -220 -48 -97 -110 -181 -234
-317 -153 -167 -168 -202 -65 -150 101 51 167 107 306 257 191 208 229 254
291 352 78 124 55 146 -80 78z"/>
<path d="M14666 10984 c-9 -8 -16 -30 -16 -47 0 -61 119 -297 181 -359 33 -34
79 -38 79 -8 0 28 -177 402 -197 418 -22 16 -28 15 -47 -4z"/>
<path d="M8014 10946 c-50 -22 -188 -111 -276 -178 -150 -113 -424 -395 -404
-415 11 -11 67 28 191 133 77 66 213 175 303 242 223 170 310 272 186 218z"/>
<path d="M12760 10883 c0 -49 30 -127 71 -184 27 -39 69 -37 83 3 8 22 3 39
-23 92 -35 72 -89 136 -115 136 -12 0 -16 -10 -16 -47z"/>
<path d="M12270 10891 c-16 -30 -13 -116 5 -131 22 -19 64 -4 71 25 19 76 -44
164 -76 106z"/>
<path d="M3820 10887 c-40 -12 -173 -142 -524 -511 -429 -451 -557 -602 -720
-849 -236 -357 -479 -848 -493 -995 -5 -52 -4 -56 11 -42 8 9 74 132 145 275
205 412 337 620 602 950 257 320 521 619 847 957 154 160 209 229 180 227 -7
-1 -29 -6 -48 -12z"/>
<path d="M8629 10862 c-49 -32 -109 -95 -109 -117 0 -8 8 -18 18 -24 13 -7 37
1 104 36 94 50 109 69 84 108 -21 32 -42 31 -97 -3z"/>
<path d="M7546 10863 c-44 -11 -218 -138 -322 -235 -172 -159 -395 -403 -428
-467 -9 -16 -16 -45 -16 -63 0 -32 3 -29 119 93 116 122 214 214 493 467 153
138 221 213 191 211 -10 -1 -27 -4 -37 -6z"/>
<path d="M15089 10826 c-7 -14 -9 -35 -6 -48 16 -60 279 -340 332 -354 71 -18
45 34 -110 221 -183 220 -194 229 -216 181z"/>
<path d="M11864 10820 c-29 -11 -42 -54 -52 -173 -10 -104 -1 -233 19 -295 20
-60 69 -132 90 -132 37 0 43 35 43 255 0 233 -11 315 -47 340 -24 17 -24 17
-53 5z"/>
<path d="M9275 10778 c-49 -28 -329 -295 -342 -327 -17 -39 -15 -42 17 -34 26
7 334 234 362 267 50 59 22 128 -37 94z"/>
<path d="M9466 10734 c-9 -8 -16 -27 -16 -41 0 -31 53 -83 85 -83 49 0 75 89
37 123 -23 21 -86 22 -106 1z"/>
<path d="M13317 10703 c-13 -12 -7 -71 8 -83 24 -20 45 -4 45 33 0 44 -31 73
-53 50z"/>
<path d="M9676 10674 c-9 -8 -16 -22 -16 -30 0 -28 70 -90 142 -126 108 -53
159 -62 315 -54 154 8 229 26 238 57 11 33 -10 39 -132 39 -201 0 -335 29
-445 96 -63 38 -79 41 -102 18z"/>
<path d="M4296 10573 c-90 -119 -132 -167 -358 -409 -334 -358 -376 -414 -666
-896 -177 -294 -237 -405 -248 -462 -6 -35 -5 -37 12 -28 32 17 58 52 154 207
269 432 429 646 945 1260 185 221 195 235 234 311 34 67 40 114 16 114 -8 0
-48 -44 -89 -97z"/>
<path d="M4614 10646 c-25 -18 -406 -471 -422 -503 -18 -34 -14 -43 17 -43 42
0 128 68 272 218 204 211 245 276 200 321 -25 25 -39 26 -67 7z"/>
<path d="M13064 10635 c-5 -19 1 -37 22 -66 35 -51 135 -143 191 -176 45 -26
83 -24 83 4 0 9 -55 72 -122 140 -129 130 -161 148 -174 98z"/>
<path d="M12717 10623 c-13 -12 -7 -54 7 -59 8 -3 26 2 41 12 24 16 25 18 9
35 -17 19 -45 25 -57 12z"/>
<path d="M6433 10520 c-28 -11 -350 -226 -380 -253 -27 -24 -21 -37 17 -37 38
0 247 106 332 170 80 59 106 93 88 115 -14 17 -25 18 -57 5z"/>
<path d="M9453 10514 c-50 -35 -5 -64 64 -41 27 9 38 18 38 32 0 16 -7 20 -40
22 -24 2 -49 -4 -62 -13z"/>
<path d="M11598 10508 c-29 -23 -27 -72 3 -89 36 -19 69 3 69 45 0 48 -38 70
-72 44z"/>
<path d="M12337 10482 c-21 -23 -22 -56 -1 -73 19 -16 42 -4 64 34 12 21 12
28 1 41 -18 21 -44 20 -64 -2z"/>
<path d="M12881 10481 c-16 -30 31 -111 104 -180 67 -62 197 -135 300 -167 43
-14 60 -15 80 -6 50 23 34 43 -95 116 -96 55 -210 134 -296 207 -64 54 -78 58
-93 30z"/>
<path d="M10405 10455 c-77 -19 -197 -40 -290 -50 -164 -17 -265 -38 -265 -55
0 -5 11 -17 25 -26 38 -25 367 -15 480 15 113 30 209 79 213 110 3 20 -12 43
-28 40 -3 -1 -64 -16 -135 -34z"/>
<path d="M12070 10460 c-16 -31 -23 -110 -13 -150 7 -28 14 -35 34 -35 23 0
24 4 33 77 4 43 5 89 2 103 -8 31 -41 34 -56 5z"/>
<path d="M10931 10447 c-33 -16 -137 -145 -145 -179 -12 -52 30 -34 125 53 87
79 101 103 77 127 -15 15 -27 15 -57 -1z"/>
<path d="M11190 10399 c-97 -71 -271 -219 -300 -257 -25 -32 -27 -72 -2 -72
26 0 353 242 401 296 47 54 51 87 11 92 -18 2 -50 -15 -110 -59z"/>
<path d="M9085 10441 c-62 -25 -185 -172 -185 -220 0 -46 30 -35 103 36 40 38
91 84 115 102 45 35 52 56 25 77 -21 15 -30 16 -58 5z"/>
<path d="M4666 10319 c-156 -146 -358 -400 -548 -688 -141 -214 -203 -341
-166 -341 28 0 80 61 249 295 188 260 272 367 424 545 182 213 203 251 144
258 -20 2 -42 -12 -103 -69z"/>
<path d="M9511 10360 c-69 -38 -91 -58 -91 -83 0 -18 5 -19 51 -14 56 7 142
54 147 81 5 21 -15 46 -37 46 -9 0 -40 -14 -70 -30z"/>
<path d="M11235 10195 c-176 -141 -251 -209 -321 -289 -104 -119 -129 -152
-137 -183 -4 -18 -1 -23 14 -23 33 0 90 34 220 132 68 51 190 136 271 187 160
102 204 139 242 204 37 63 43 110 17 136 -42 42 -62 32 -306 -164z"/>
<path d="M12522 10348 c-6 -6 -12 -24 -12 -38 0 -49 42 -66 75 -30 38 42 -23
108 -63 68z"/>
<path d="M14282 10348 c-21 -21 -14 -65 14 -87 39 -31 89 -44 114 -31 26 14
26 19 -10 68 -42 59 -89 79 -118 50z"/>
<path d="M15618 10339 c-10 -6 -18 -22 -18 -37 0 -50 42 -69 73 -34 23 25 21
48 -5 66 -26 19 -27 19 -50 5z"/>
<path d="M5270 10313 c-54 -20 -70 -86 -25 -103 32 -12 88 9 104 38 8 16 6 25
-10 46 -20 25 -38 30 -69 19z"/>
<path d="M8292 10266 c-51 -55 -88 -124 -74 -138 30 -30 146 38 171 101 20 47
11 75 -25 79 -25 2 -38 -5 -72 -42z"/>
<path d="M4926 10270 c-57 -51 -83 -150 -39 -150 45 0 123 81 123 128 0 21
-24 52 -40 52 -5 0 -25 -14 -44 -30z"/>
<path d="M9620 10254 c-86 -67 -260 -248 -271 -282 -6 -18 -9 -35 -7 -38 10
-9 79 24 207 101 144 86 211 140 211 171 0 23 -59 84 -80 83 -8 0 -35 -16 -60
-35z"/>
<path d="M7163 10270 c-12 -5 -29 -22 -37 -38 -13 -26 -14 -32 -1 -42 20 -17
87 35 83 63 -4 24 -15 29 -45 17z"/>
<path d="M8693 10243 c-43 -41 -241 -256 -286 -311 -33 -41 -34 -52 -3 -52 36
0 131 76 255 206 96 100 111 120 111 149 0 28 -13 45 -35 45 -1 0 -20 -17 -42
-37z"/>
<path d="M8960 10143 c-64 -65 -175 -191 -248 -281 -203 -248 -218 -273 -156
-258 31 8 107 85 305 308 76 86 173 187 214 225 74 67 86 88 63 111 -31 31
-61 14 -178 -105z"/>
<path d="M11638 10233 c-18 -15 -109 -95 -203 -176 -239 -210 -270 -247 -206
-247 30 0 96 45 291 198 139 109 189 160 196 200 5 24 2 37 -7 43 -22 14 -35
11 -71 -18z"/>
<path d="M15981 10202 c-17 -32 10 -63 144 -169 153 -120 190 -142 206 -126
17 17 -8 51 -120 162 -149 146 -205 179 -230 133z"/>
<path d="M7421 10172 c-141 -87 -214 -163 -502 -527 -155 -196 -196 -258 -206
-306 l-6 -34 24 16 c13 9 84 88 157 175 153 182 309 346 500 525 104 98 132
130 132 150 0 42 -31 42 -99 1z"/>
<path d="M11824 10187 c-12 -7 -75 -63 -142 -126 -141 -134 -172 -181 -117
-181 56 0 183 81 288 183 38 38 47 53 47 81 0 49 -33 68 -76 43z"/>
<path d="M15750 10185 c-20 -25 -3 -60 56 -114 55 -50 77 -60 89 -41 10 16
-22 77 -66 124 -44 49 -59 55 -79 31z"/>
<path d="M9788 10143 c-29 -25 -131 -122 -225 -214 -171 -165 -197 -200 -158
-215 19 -8 246 69 303 102 101 59 202 180 202 243 0 33 -48 131 -64 131 -3 0
-29 -21 -58 -47z"/>
<path d="M12705 10131 c-76 -21 -146 -55 -179 -86 -54 -50 -28 -56 104 -25
137 33 178 49 186 73 5 15 0 26 -16 39 -26 21 -19 21 -95 -1z"/>
<path d="M12133 10125 c-129 -28 -257 -117 -331 -229 -25 -39 -29 -52 -19 -58
20 -11 224 45 295 81 74 37 114 71 153 127 57 84 28 107 -98 79z"/>
<path d="M3443 10043 c-44 -48 -93 -131 -93 -160 0 -24 29 -38 59 -28 26 8
161 150 161 170 0 36 -20 55 -57 55 -28 0 -42 -8 -70 -37z"/>
<path d="M5690 10043 c-28 -11 -138 -103 -191 -161 -77 -82 -296 -355 -346
-430 -27 -40 -43 -75 -43 -94 l0 -29 29 23 c16 13 59 59 97 103 37 44 169 183
291 308 123 125 223 236 223 246 0 32 -26 47 -60 34z"/>
<path d="M10442 10038 c-27 -34 -193 -359 -187 -368 23 -36 116 49 209 193 59
89 72 140 46 172 -15 18 -54 20 -68 3z"/>
<path d="M6134 9948 c-186 -190 -382 -494 -537 -833 -51 -112 -81 -225 -60
-225 23 0 86 87 153 210 134 247 303 511 485 756 96 128 109 150 101 170 -13
34 -52 13 -142 -78z"/>
<path d="M10004 9996 c-33 -33 -45 -78 -24 -91 5 -3 27 3 48 14 45 23 67 62
52 92 -15 28 -37 24 -76 -15z"/>
<path d="M10207 9993 c-59 -96 -157 -271 -157 -281 0 -7 8 -12 18 -12 44 1 96
54 176 178 38 59 47 79 44 110 -3 32 -7 37 -30 40 -22 3 -31 -4 -51 -35z"/>
<path d="M4671 9973 c-49 -46 -220 -264 -302 -387 -49 -75 -59 -97 -59 -133
l0 -44 25 18 c31 22 365 407 399 460 37 58 40 79 17 102 -12 12 -25 21 -30 21
-5 0 -27 -17 -50 -37z"/>
<path d="M9080 10003 c-44 -17 -179 -159 -244 -258 -68 -102 -51 -174 22 -93
101 112 173 185 230 231 53 43 62 55 62 83 0 39 -27 53 -70 37z"/>
<path d="M12925 9974 c-318 -57 -747 -202 -695 -234 7 -5 18 -7 24 -5 270 90
698 185 837 185 19 0 44 7 55 15 19 15 19 15 -5 35 -28 24 -96 25 -216 4z"/>
<path d="M15230 9970 c-25 -25 -25 -32 -2 -60 13 -16 29 -22 55 -22 45 0 67
16 67 48 0 49 -82 72 -120 34z"/>
<path d="M6568 9933 c-45 -34 -146 -159 -154 -190 -7 -26 1 -53 15 -53 5 0 51
33 102 73 107 82 160 148 143 175 -18 28 -65 26 -106 -5z"/>
<path d="M3087 9898 c-46 -48 -364 -567 -391 -636 -9 -23 -16 -52 -16 -63 0
-44 35 -11 97 91 85 138 148 230 253 370 170 225 190 271 127 278 -23 3 -37
-5 -70 -40z"/>
<path d="M4008 9913 c-42 -47 -244 -316 -262 -350 -9 -18 -16 -44 -16 -58 0
-22 3 -24 19 -15 11 5 83 87 161 181 206 249 218 269 157 269 -23 0 -41 -8
-59 -27z"/>
<path d="M10607 9912 c-21 -23 -21 -36 -1 -56 21 -22 67 -20 87 2 22 24 21 35
-1 55 -24 22 -65 21 -85 -1z"/>
<path d="M7343 9855 c-31 -21 -106 -98 -190 -196 -161 -188 -183 -219 -183
-254 0 -24 1 -25 26 -12 14 7 117 112 230 232 145 155 204 225 204 242 0 33
-26 30 -87 -12z"/>
<path d="M13492 9864 c-43 -30 -16 -94 41 -94 32 0 57 24 57 55 0 25 -33 55
-60 55 -9 0 -26 -7 -38 -16z"/>
<path d="M3238 9733 c-47 -52 -61 -79 -48 -102 13 -25 61 -29 83 -7 7 8 21 35
31 60 14 37 15 50 6 61 -19 22 -43 18 -72 -12z"/>
<path d="M12972 9744 c-43 -30 -16 -94 39 -94 33 0 49 17 49 51 0 27 -30 59
-55 59 -6 0 -21 -7 -33 -16z"/>
<path d="M9048 9722 c-32 -21 -277 -324 -295 -365 -24 -52 -12 -89 20 -64 8 7
43 48 78 92 34 44 114 131 176 193 87 86 114 118 111 135 -4 29 -53 34 -90 9z"/>
<path d="M13874 9725 c-19 -15 -19 -15 0 -30 22 -17 36 -11 36 15 0 26 -14 32
-36 15z"/>
<path d="M16070 9711 c-127 -24 -168 -49 -156 -95 3 -14 14 -27 24 -30 10 -4
96 9 190 27 182 36 228 55 198 85 -17 18 -185 26 -256 13z"/>
<path d="M14722 9668 c-28 -28 -3 -72 39 -66 30 4 47 33 33 56 -14 21 -55 27
-72 10z"/>
<path d="M9730 9488 c-151 -71 -311 -154 -355 -183 -84 -57 -388 -335 -436
-400 -33 -44 -37 -65 -11 -65 22 0 170 91 322 198 108 76 321 193 470 258 138
59 233 135 316 250 24 34 44 64 44 68 0 3 -17 6 -37 5 -26 -1 -123 -41 -313
-131z"/>
<path d="M10344 9482 c-213 -141 -241 -163 -229 -182 12 -19 50 -10 163 39
154 67 317 166 332 202 19 46 10 74 -26 77 -26 3 -67 -21 -240 -136z"/>
<path d="M11871 9606 c-19 -23 -9 -49 22 -60 37 -14 62 3 62 40 0 26 -4 29
-36 32 -23 2 -40 -2 -48 -12z"/>
<path d="M9154 9594 c-52 -25 -128 -113 -221 -254 -164 -247 -195 -304 -201
-362 l-5 -53 23 20 c12 11 55 70 95 130 96 145 178 248 297 372 95 99 111 126
86 151 -16 16 -36 15 -74 -4z"/>
<path d="M16450 9543 c-46 -17 -64 -68 -40 -114 26 -47 122 -65 155 -29 16 18
17 23 4 47 -17 33 -83 103 -95 102 -5 0 -16 -3 -24 -6z"/>
<path d="M14432 9518 c-32 -32 8 -80 48 -58 34 18 19 70 -20 70 -9 0 -21 -5
-28 -12z"/>
<path d="M7483 9477 c-22 -24 -68 -86 -103 -138 -70 -104 -112 -157 -342 -433
-153 -182 -186 -237 -110 -180 216 161 413 373 585 629 61 91 75 137 46 156
-24 15 -35 10 -76 -34z"/>
<path d="M15595 9513 c-11 -2 -31 -6 -44 -9 -14 -3 -63 -42 -110 -88 -48 -45
-143 -133 -213 -195 -70 -62 -137 -125 -148 -141 -39 -54 -17 -140 36 -140 25
0 59 29 296 256 81 79 217 233 237 272 23 43 4 58 -54 45z"/>
<path d="M7208 9443 c-38 -41 -149 -214 -145 -227 2 -6 13 -12 25 -14 16 -2
40 14 84 55 121 115 155 213 74 213 -7 0 -24 -12 -38 -27z"/>
<path d="M8335 9462 c-14 -10 -118 -131 -138 -162 -9 -13 -17 -35 -17 -48 l0
-23 41 23 c23 13 73 52 110 86 54 50 69 70 69 92 0 34 -37 53 -65 32z"/>
<path d="M9252 9437 c-61 -45 -107 -126 -84 -149 17 -17 98 28 138 78 35 43
36 45 20 69 -20 31 -34 31 -74 2z"/>
<path d="M14185 9423 c-29 -7 -61 -40 -107 -106 -84 -124 -120 -237 -77 -245
9 -2 25 7 36 20 94 106 127 136 200 184 78 51 83 57 83 90 0 31 -4 37 -35 50
-34 14 -62 16 -100 7z"/>
<path d="M4676 9380 c-28 -43 -154 -351 -181 -444 -12 -40 -15 -72 -10 -104
l7 -47 23 29 c12 15 39 71 60 124 21 52 73 165 117 250 43 85 78 165 78 178 0
39 -11 54 -40 54 -21 0 -34 -9 -54 -40z"/>
<path d="M16218 9367 c-29 -24 -99 -78 -155 -120 -107 -81 -119 -99 -83 -132
25 -23 71 -16 154 23 121 58 215 153 216 218 0 68 -55 73 -132 11z"/>
<path d="M15172 9361 c-8 -4 -12 -19 -10 -32 2 -19 9 -24 32 -24 32 0 53 23
43 49 -7 17 -43 21 -65 7z"/>
<path d="M5981 9170 c-28 -33 -56 -71 -63 -83 -21 -38 -47 -180 -37 -199 23
-42 48 -17 142 139 66 109 86 165 67 188 -25 31 -57 18 -109 -45z"/>
<path d="M9700 9201 c-191 -71 -340 -171 -340 -228 0 -23 28 -14 138 41 59 29
152 70 207 91 133 49 135 51 135 84 0 50 -32 52 -140 12z"/>
<path d="M8464 9188 c-66 -58 -505 -550 -522 -584 -18 -40 -14 -47 23 -38 34
8 369 325 431 407 84 112 147 247 116 247 -6 0 -28 -15 -48 -32z"/>
<path d="M5259 9139 c-17 -6 -39 -34 -66 -82 -58 -104 -91 -191 -134 -365 -78
-309 -96 -436 -63 -449 27 -10 40 17 74 152 18 72 72 252 120 400 76 235 110
357 98 354 -1 0 -15 -5 -29 -10z"/>
<path d="M10078 9089 c-24 -14 -23 -36 3 -49 28 -15 69 -4 69 18 0 37 -36 52
-72 31z"/>
<path d="M7323 8981 c-22 -16 -68 -66 -101 -111 -52 -68 -60 -84 -52 -101 13
-24 31 -24 78 0 69 35 125 117 138 200 8 51 -6 53 -63 12z"/>
<path d="M13915 8955 c-14 -13 -25 -31 -25 -40 0 -21 36 -55 59 -55 32 0 71
39 71 70 0 52 -64 67 -105 25z"/>
<path d="M2787 8952 c-21 -23 -22 -66 -1 -82 17 -15 71 -18 83 -4 23 24 22 54
-3 79 -30 30 -57 32 -79 7z"/>
<path d="M15644 8935 c-14 -21 -15 -31 -6 -50 22 -47 102 -22 102 31 0 49 -68
62 -96 19z"/>
<path d="M14920 8815 c-21 -26 3 -65 40 -65 24 0 31 5 36 27 11 43 -47 72 -76
38z"/>
<path d="M8503 8773 c-39 -39 -133 -182 -133 -202 0 -21 5 -19 83 21 72 38 85
49 109 93 15 28 28 55 28 60 0 37 -59 56 -87 28z"/>
<path d="M10651 8654 c-61 -59 -141 -130 -178 -158 -36 -28 -64 -55 -62 -61 6
-16 70 -10 111 9 54 26 197 145 246 205 49 60 55 103 15 109 -16 2 -50 -24
-132 -104z"/>
<path d="M12278 8691 c-102 -77 -223 -222 -216 -259 2 -9 10 -18 19 -20 20 -4
320 288 319 311 0 34 -53 20 -122 -32z"/>
<path d="M1610 8713 c-8 -3 -105 -47 -215 -98 -269 -125 -367 -166 -524 -219
-153 -53 -152 -52 -145 -71 10 -26 63 -36 126 -25 187 34 625 220 763 325 67
50 81 88 35 92 -14 1 -32 -1 -40 -4z"/>
<path d="M5487 8689 c-38 -29 -57 -104 -57 -220 0 -54 4 -100 9 -103 23 -15
42 14 85 125 52 136 57 180 24 203 -28 20 -30 20 -61 -5z"/>
<path d="M3467 8638 c-54 -72 -87 -162 -117 -315 -22 -116 -24 -141 -10 -163
15 -24 33 8 96 175 76 199 106 293 99 316 -10 29 -41 23 -68 -13z"/>
<path d="M14782 8567 c-19 -22 -19 -58 0 -70 24 -16 73 21 73 54 0 19 -6 25
-31 27 -17 2 -36 -3 -42 -11z"/>
<path d="M4611 8536 c-37 -40 -66 -271 -37 -295 27 -23 43 2 86 134 41 129 42
135 26 160 -21 31 -46 32 -75 1z"/>
<path d="M12252 8466 c-76 -82 -103 -167 -56 -174 36 -5 173 169 160 203 -12
31 -61 17 -104 -29z"/>
<path d="M10824 8378 c-156 -146 -165 -158 -120 -158 34 0 284 193 292 225 8
31 -2 45 -30 45 -16 0 -62 -36 -142 -112z"/>
<path d="M4301 8454 c-36 -30 -40 -65 -11 -94 27 -27 62 -25 89 4 27 29 40 94
20 107 -26 16 -67 9 -98 -17z"/>
<path d="M15487 8452 c-31 -34 -15 -102 24 -102 25 0 69 43 69 68 0 24 -31 52
-57 52 -11 0 -27 -8 -36 -18z"/>
<path d="M10648 8431 c-38 -34 -33 -46 14 -37 41 8 83 39 74 55 -13 20 -55 12
-88 -18z"/>
<path d="M15405 8258 c-30 -16 -45 -39 -45 -68 0 -58 62 -69 104 -19 31 36 33
60 8 82 -21 20 -39 21 -67 5z"/>
<path d="M11795 8206 c-54 -54 -82 -149 -51 -175 20 -17 35 -6 94 62 53 63 65
100 40 125 -19 19 -57 14 -83 -12z"/>
<path d="M1960 8187 c-14 -7 -31 -25 -39 -41 -12 -25 -11 -31 7 -55 24 -31 57
-31 88 2 34 34 38 63 15 86 -24 24 -36 26 -71 8z"/>
<path d="M811 8107 c-80 -29 -146 -57 -148 -64 -3 -7 11 -15 34 -19 89 -17
284 46 291 93 7 46 -25 44 -177 -10z"/>
<path d="M7513 8053 c-106 -108 -206 -300 -416 -805 -117 -279 -140 -348 -114
-348 27 0 46 28 97 145 133 303 284 597 448 873 68 115 84 147 75 160 -19 31
-42 24 -90 -25z"/>
<path d="M7892 8048 c-45 -73 -172 -342 -172 -363 0 -30 20 -37 47 -16 21 17
161 238 203 321 30 58 21 90 -24 90 -28 0 -38 -6 -54 -32z"/>
<path d="M12192 8048 c-33 -33 -2 -71 54 -66 43 4 65 28 48 56 -13 21 -84 28
-102 10z"/>
<path d="M410 8010 c-24 -24 -24 -29 -4 -58 18 -26 56 -29 78 -6 21 21 20 47
-2 67 -25 22 -48 21 -72 -3z"/>
<path d="M4984 7952 c-28 -19 -34 -56 -34 -225 0 -207 17 -281 48 -211 12 24
42 298 42 375 0 49 -28 80 -56 61z"/>
<path d="M12593 7914 c-3 -9 3 -24 15 -36 25 -26 72 -18 72 12 0 35 -74 56
-87 24z"/>
<path d="M7217 7890 c-28 -24 -52 -71 -121 -231 -84 -195 -106 -276 -71 -263
15 6 161 268 220 397 52 113 40 157 -28 97z"/>
<path d="M15261 7899 c-10 -11 -27 -41 -36 -67 -10 -26 -35 -86 -57 -134 -65
-144 -63 -269 8 -489 49 -153 96 -212 124 -159 9 17 7 50 -10 154 l-21 131 45
227 c51 253 56 316 28 341 -25 23 -57 21 -81 -4z"/>
<path d="M15010 7850 c-17 -32 -9 -114 12 -118 39 -7 85 90 58 123 -18 22 -57
19 -70 -5z"/>
<path d="M11589 7792 c-45 -29 -116 -108 -106 -118 8 -9 79 31 135 76 83 65
60 98 -29 42z"/>
<path d="M12229 7739 c-23 -23 -22 -57 3 -73 13 -8 23 -5 43 14 27 26 32 49
13 68 -17 17 -35 15 -59 -9z"/>
<path d="M4038 7710 c-9 -6 -22 -35 -29 -68 -13 -59 -18 -247 -7 -258 4 -3 16
-3 27 1 15 4 26 25 40 70 24 76 44 218 36 245 -7 22 -39 26 -67 10z"/>
<path d="M14171 7663 c-37 -101 -55 -135 -99 -192 -41 -53 -42 -56 -22 -63 14
-5 32 -2 51 8 71 36 175 235 149 283 -6 12 -21 21 -35 21 -20 0 -27 -9 -44
-57z"/>
<path d="M5174 7625 c-20 -30 -16 -66 17 -155 26 -71 52 -90 83 -60 28 28 29
152 1 200 -28 47 -75 54 -101 15z"/>
<path d="M12795 7625 c-37 -36 -28 -105 14 -105 43 0 77 83 46 113 -22 23 -31
21 -60 -8z"/>
<path d="M11581 7537 c-58 -57 -154 -140 -211 -185 -145 -114 -163 -130 -155
-142 15 -25 66 -7 186 66 181 111 243 158 278 211 53 80 65 153 26 153 -9 0
-65 -46 -124 -103z"/>
<path d="M10943 7541 c-77 -95 -88 -117 -50 -106 42 12 102 61 130 107 24 38
27 50 18 67 -7 12 -15 21 -19 21 -4 0 -40 -40 -79 -89z"/>
<path d="M1818 7600 c-21 -13 -118 -190 -118 -217 0 -21 18 -43 36 -43 12 0
110 74 132 100 34 40 44 62 44 97 0 57 -49 89 -94 63z"/>
<path d="M1497 7572 c-24 -26 -22 -79 2 -92 49 -26 111 2 111 50 0 16 -7 36
-16 44 -21 22 -77 20 -97 -2z"/>
<path d="M14788 7553 c-9 -10 -19 -29 -23 -43 -12 -38 -52 -116 -108 -208 -41
-68 -48 -85 -36 -93 8 -5 17 -9 20 -9 32 -1 153 166 190 263 18 47 20 62 11
82 -14 29 -33 32 -54 8z"/>
<path d="M11910 7524 c-43 -39 -86 -101 -76 -111 11 -12 76 26 127 74 46 43
49 48 33 60 -27 20 -41 16 -84 -23z"/>
<path d="M14309 7487 c-46 -70 -79 -130 -79 -142 0 -3 9 -5 20 -5 31 0 93 63
129 129 33 63 33 91 -3 91 -15 0 -34 -20 -67 -73z"/>
<path d="M2676 7515 c-25 -25 -29 -54 -12 -80 22 -33 77 -34 106 -3 24 26 25
46 4 76 -18 26 -74 30 -98 7z"/>
<path d="M2903 7488 c-24 -46 -26 -269 -2 -293 27 -27 44 3 58 102 6 48 17
111 23 140 13 60 2 83 -38 83 -16 0 -29 -10 -41 -32z"/>
<path d="M12321 7473 c-30 -25 -39 -88 -16 -113 41 -45 95 -9 95 62 0 37 -20
68 -45 68 -7 0 -22 -8 -34 -17z"/>
<path d="M13225 7465 c-14 -13 -25 -33 -25 -44 0 -46 69 -70 90 -32 15 29 12
67 -6 85 -21 22 -31 20 -59 -9z"/>
<path d="M11958 7393 c-51 -48 -117 -108 -146 -131 -28 -24 -49 -48 -46 -53
21 -35 143 30 272 147 55 49 63 61 60 88 -6 58 -37 47 -140 -51z"/>
<path d="M14887 7441 c-19 -7 -99 -172 -112 -229 -7 -34 2 -40 35 -22 51 27
139 204 120 240 -11 21 -15 22 -43 11z"/>
<path d="M9053 7433 c-23 -9 -15 -52 13 -69 54 -36 115 23 62 60 -22 16 -51
19 -75 9z"/>
<path d="M9662 7350 c-37 -26 -82 -92 -82 -119 0 -23 84 15 148 67 46 38 52
56 23 72 -30 16 -45 12 -89 -20z"/>
<path d="M3286 7355 c-39 -21 -55 -44 -56 -81 0 -64 62 -69 125 -9 38 35 44
64 19 89 -19 20 -51 20 -88 1z"/>
<path d="M7472 7340 c-13 -12 -22 -33 -22 -49 0 -53 83 -62 109 -12 15 28 14
38 -9 61 -26 26 -50 25 -78 0z"/>
<path d="M7787 7342 c-52 -57 39 -126 93 -72 22 22 26 60 8 78 -19 19 -82 15
-101 -6z"/>
<path d="M9838 7243 c-122 -120 -155 -173 -107 -173 19 0 244 159 261 184 4 6
8 23 8 39 0 20 -7 30 -26 37 -14 6 -28 10 -31 10 -3 0 -51 -44 -105 -97z"/>
<path d="M10854 7317 c-36 -31 -24 -47 36 -47 38 0 52 4 60 19 7 15 6 23 -6
35 -22 23 -59 20 -90 -7z"/>
<path d="M12400 7275 c0 -98 138 -349 329 -599 100 -129 96 -124 90 -131 -3
-3 -36 4 -73 15 -229 71 -362 66 -602 -24 -153 -57 -211 -66 -462 -72 -206 -4
-246 -11 -240 -42 4 -22 163 -76 289 -98 127 -22 237 -14 433 31 107 25 162
33 169 26 7 -7 -4 -33 -33 -80 -96 -160 -57 -219 51 -76 75 99 184 152 294
142 49 -5 159 -37 173 -52 2 -2 -18 -45 -44 -96 -59 -119 -130 -299 -155 -396
-20 -80 -25 -153 -10 -153 16 0 30 25 61 110 71 192 173 388 235 452 32 33 40
36 58 27 49 -25 49 -29 7 -81 -69 -87 -47 -108 55 -54 84 45 128 47 213 6 34
-16 65 -36 68 -44 3 -8 -15 -50 -39 -93 -49 -84 -91 -197 -83 -219 12 -31 35
-7 111 117 87 141 97 154 119 146 12 -5 9 -19 -19 -79 -45 -99 -53 -143 -27
-157 15 -8 24 -5 44 17 14 15 37 45 51 68 14 22 39 54 56 71 28 29 33 30 77
22 26 -5 58 -16 71 -24 27 -18 24 -25 -33 -105 -91 -127 -165 -382 -121 -419
20 -16 30 -1 128 178 101 185 148 242 225 270 76 29 81 27 40 -20 -46 -55 -91
-184 -77 -223 18 -47 36 -34 101 74 61 102 67 120 45 154 l-17 26 38 0 c40 0
114 -17 114 -26 0 -3 -9 -23 -20 -45 -29 -57 -138 -325 -150 -368 -6 -24 -6
-49 1 -74 18 -65 34 -49 84 83 56 147 134 288 191 347 47 50 53 53 100 53 78
0 79 -5 30 -100 -49 -96 -97 -222 -122 -322 -17 -70 -14 -98 9 -98 15 0 21 10
65 110 16 36 61 121 100 189 65 114 72 130 72 180 0 53 2 57 33 71 37 17 46
49 20 72 -23 21 -115 44 -228 58 -172 21 -283 61 -399 144 -87 63 -160 134
-366 356 -100 107 -202 212 -227 233 -49 40 -83 48 -83 19 0 -9 89 -132 198
-272 108 -140 211 -273 227 -294 l30 -39 -30 7 c-54 13 -209 85 -271 126 -78
50 -308 241 -402 334 -87 84 -167 184 -287 361 -141 206 -193 274 -228 295
-46 28 -57 25 -57 -15z"/>
<path d="M12740 7200 c0 -16 17 -62 38 -102 58 -112 289 -468 330 -511 49 -51
198 -157 220 -157 21 0 42 19 42 37 0 7 -37 50 -83 95 -54 54 -130 150 -217
273 -214 305 -266 372 -300 383 -29 11 -30 10 -30 -18z"/>
<path d="M13112 7218 c-18 -18 -15 -46 6 -57 14 -7 27 -5 52 11 l34 20 -23 19
c-27 22 -52 24 -69 7z"/>
<path d="M13985 7205 c-33 -32 -33 -79 -1 -100 29 -19 52 -11 71 26 21 39 19
65 -7 83 -30 21 -35 20 -63 -9z"/>
<path d="M11403 7108 c-64 -52 -74 -64 -56 -66 82 -12 223 97 157 122 -9 3
-17 6 -19 6 -2 0 -39 -28 -82 -62z"/>
<path d="M2201 6931 c-166 -173 -192 -205 -189 -228 2 -16 10 -29 19 -31 44
-8 379 291 423 377 26 50 18 75 -25 79 -35 3 -42 -3 -228 -197z"/>
<path d="M10062 7118 c-34 -34 4 -86 54 -74 28 7 42 49 24 71 -15 18 -61 20
-78 3z"/>
<path d="M12035 7095 c-29 -28 -31 -47 -9 -69 22 -23 51 -20 79 9 29 28 31 47
9 69 -22 23 -51 20 -79 -9z"/>
<path d="M4504 7054 c-16 -24 -16 -34 0 -167 22 -184 28 -208 49 -221 15 -9
21 -7 33 8 11 16 14 58 14 194 0 100 -4 181 -10 193 -16 29 -65 25 -86 -7z"/>
<path d="M13173 7040 c-22 -9 -39 -59 -31 -95 5 -30 33 -41 62 -25 34 18 45
70 22 105 -18 27 -20 28 -53 15z"/>
<path d="M12357 7019 c-9 -6 -17 -20 -17 -33 0 -53 146 -247 204 -271 26 -11
35 -11 58 3 33 19 34 27 9 68 -22 36 -196 221 -220 234 -10 5 -24 4 -34 -1z"/>
<path d="M14775 7010 c-15 -47 29 -94 59 -64 17 16 20 41 10 68 -9 24 -61 21
-69 -4z"/>
<path d="M4681 7006 c-21 -25 -34 -128 -27 -208 7 -68 10 -75 26 -71 43 11 75
133 62 233 -6 45 -11 56 -28 58 -11 2 -26 -4 -33 -12z"/>
<path d="M10984 6996 c-28 -13 -44 -33 -44 -57 0 -12 67 -11 91 1 23 13 25 55
3 64 -9 3 -16 6 -17 6 -1 -1 -16 -7 -33 -14z"/>
<path d="M13466 6944 c-35 -34 -10 -103 32 -90 17 6 42 44 42 66 0 13 -30 40
-45 40 -7 0 -21 -7 -29 -16z"/>
<path d="M10622 6911 c-122 -97 -169 -212 -66 -161 47 24 173 125 181 146 7
19 -24 54 -48 54 -9 0 -39 -18 -67 -39z"/>
<path d="M14422 6928 c-24 -24 -14 -112 21 -180 29 -56 36 -63 65 -66 17 -2
32 1 32 7 0 36 -46 219 -58 234 -18 20 -43 22 -60 5z"/>
<path d="M14034 6875 c-20 -30 -10 -63 21 -71 30 -7 44 1 56 34 9 22 6 29 -13
44 -31 24 -45 22 -64 -7z"/>
<path d="M4322 6878 c-15 -15 -16 -74 -2 -83 30 -18 81 43 66 80 -6 18 -47 20
-64 3z"/>
<path d="M5080 6870 c-38 -38 -15 -81 42 -83 43 -1 68 17 68 48 0 50 -72 73
-110 35z"/>
<path d="M11872 6864 c-59 -41 8 -64 189 -64 104 0 124 3 135 18 17 22 17 27
-2 46 -23 23 -289 23 -322 0z"/>
<path d="M15307 6852 c-12 -13 -17 -36 -17 -74 0 -54 3 -59 93 -187 71 -101
97 -131 115 -131 15 0 22 6 22 18 0 29 -158 366 -178 380 -16 10 -21 9 -35 -6z"/>
<path d="M5907 6842 c-9 -10 -35 -71 -57 -136 -23 -66 -64 -168 -91 -229 -28
-60 -49 -111 -47 -113 2 -2 13 -1 23 2 13 3 61 75 133 195 91 153 112 196 112
227 0 25 -7 45 -18 55 -24 22 -35 21 -55 -1z"/>
<path d="M11439 6788 c-42 -35 -111 -94 -155 -132 -43 -38 -117 -94 -164 -124
-105 -69 -218 -160 -249 -203 -13 -18 -27 -47 -31 -65 -10 -45 10 -45 58 -3
45 40 137 83 233 110 183 51 340 182 431 362 16 33 28 70 26 85 -3 23 -8 27
-38 30 -30 2 -46 -6 -111 -60z"/>
<path d="M3248 6803 c-28 -32 -30 -58 -7 -86 29 -38 77 -37 118 2 36 34 41 75
12 91 -32 17 -106 12 -123 -7z"/>
<path d="M11175 6799 c-107 -57 -220 -137 -220 -155 0 -30 51 -22 134 20 145
73 196 117 168 145 -16 16 -38 13 -82 -10z"/>
<path d="M15136 6714 c-24 -23 -19 -63 13 -119 50 -87 126 -150 169 -138 25 6
20 25 -19 70 -15 17 -42 62 -60 100 -50 104 -70 121 -103 87z"/>
<path d="M12135 6700 c-44 -10 -154 -26 -245 -36 -154 -15 -190 -24 -190 -45
0 -26 46 -29 244 -20 171 9 216 15 282 35 93 30 120 46 111 70 -9 22 -96 20
-202 -4z"/>
<path d="M14105 6677 c-8 -30 118 -398 157 -460 42 -65 156 -169 182 -165 51
7 22 88 -93 263 -40 61 -98 162 -129 225 -72 150 -105 188 -117 137z"/>
<path d="M13580 6671 c-14 -27 -13 -84 2 -99 7 -7 21 -12 33 -12 32 0 45 19
45 65 0 23 -5 46 -12 53 -18 18 -56 14 -68 -7z"/>
<path d="M14802 6588 c-17 -17 -15 -53 3 -68 38 -31 96 27 65 65 -15 18 -51
20 -68 3z"/>
<path d="M13985 6542 c-5 -24 8 -64 56 -182 34 -84 69 -158 77 -166 23 -24 56
-13 60 19 4 29 -136 313 -169 343 -16 14 -18 13 -24 -14z"/>
<path d="M13734 6526 c-13 -54 55 -176 145 -259 43 -40 57 -48 84 -45 29 3 32
6 35 40 3 30 -3 44 -34 80 -76 87 -140 150 -181 179 l-42 30 -7 -25z"/>
<path d="M14546 6535 c-23 -24 -28 -52 -16 -90 20 -61 82 -55 94 8 13 71 -36
123 -78 82z"/>
<path d="M4020 6505 c-7 -9 -16 -65 -21 -142 -4 -71 -13 -160 -20 -198 -6 -39
-9 -80 -8 -92 4 -20 6 -21 28 -10 37 18 60 66 82 169 22 107 24 222 6 258 -15
30 -48 37 -67 15z"/>
<path d="M10165 6504 c-9 -9 -14 -23 -11 -31 3 -8 6 -17 6 -19 0 -3 12 -9 26
-15 49 -18 96 35 62 69 -17 17 -64 15 -83 -4z"/>
<path d="M15014 6489 c-14 -15 -16 -24 -8 -37 21 -33 85 -27 105 9 23 43 -61
68 -97 28z"/>
<path d="M11311 6331 c-56 -58 -128 -193 -176 -327 -37 -101 -39 -144 -7 -144
28 0 34 7 161 180 159 217 188 294 122 329 -35 19 -54 12 -100 -38z"/>
<path d="M9950 6350 c-11 -11 -20 -29 -20 -40 0 -27 35 -60 64 -60 32 0 56 25
56 59 0 55 -61 80 -100 41z"/>
<path d="M12526 6290 c-14 -17 -30 -47 -36 -68 -12 -44 -13 -112 -2 -112 4 0
38 30 75 68 47 47 67 75 67 93 0 56 -62 68 -104 19z"/>
<path d="M15342 6312 c-21 -14 -3 -39 51 -75 91 -59 164 -80 186 -54 17 21
-21 54 -114 98 -85 40 -101 44 -123 31z"/>
<path d="M14923 6293 c-7 -2 -13 -15 -13 -28 0 -28 46 -70 157 -142 159 -104
304 -153 447 -153 102 0 325 35 343 53 12 12 9 16 -20 31 -27 12 -65 16 -165
16 -205 0 -310 29 -566 156 -147 73 -159 77 -183 67z"/>
<path d="M12057 6241 c-20 -33 -22 -108 -5 -146 14 -30 22 -31 49 -4 43 43 64
140 37 167 -22 22 -62 14 -81 -17z"/>
<path d="M11509 6240 c-26 -15 -75 -100 -95 -162 -17 -55 -17 -58 1 -78 10
-11 24 -20 31 -20 31 0 144 183 144 233 0 34 -44 49 -81 27z"/>
<path d="M4211 6207 c-9 -23 -31 -183 -31 -225 0 -18 5 -23 22 -20 46 7 105
187 80 243 -15 33 -59 35 -71 2z"/>
<path d="M11737 6182 c-36 -39 -9 -112 42 -112 34 0 51 17 51 51 0 32 -35 79
-59 79 -10 0 -25 -8 -34 -18z"/>
<path d="M5930 6165 c-30 -36 26 -70 65 -41 16 12 18 18 9 33 -15 24 -57 28
-74 8z"/>
<path d="M8115 6084 c-23 -23 -15 -57 18 -72 24 -12 31 -11 53 2 26 18 30 36
14 67 -13 24 -62 26 -85 3z"/>
<path d="M7055 6054 c-44 -16 -75 -46 -75 -74 0 -9 10 -30 22 -45 18 -24 27
-27 63 -23 122 14 194 115 104 147 -41 14 -64 13 -114 -5z"/>
<path d="M13060 5990 c-35 -44 -33 -60 9 -60 55 0 100 57 69 88 -21 21 -46 13
-78 -28z"/>
<path d="M1529 5975 c-72 -39 -48 -127 36 -127 69 0 115 53 89 103 -21 41 -74
52 -125 24z"/>
<path d="M3041 5929 c-33 -13 -25 -59 13 -78 31 -15 51 -9 70 22 8 12 6 21 -8
35 -22 25 -45 31 -75 21z"/>
<path d="M12353 5928 c-23 -11 -73 -111 -73 -146 0 -68 42 -70 100 -4 57 65
72 95 61 125 -14 36 -46 45 -88 25z"/>
<path d="M7883 5773 c-32 -26 -101 -83 -153 -126 -52 -43 -203 -151 -335 -240
-132 -88 -243 -165 -247 -171 -10 -14 -10 -18 1 -35 13 -21 52 -4 281 120 256
139 328 186 411 270 73 74 149 181 149 210 0 34 -45 22 -107 -28z"/>
<path d="M14593 5771 c-62 -38 -152 -221 -197 -402 -36 -143 -32 -199 15 -199
20 0 31 20 64 114 10 26 70 127 133 223 93 140 116 182 116 210 0 66 -66 93
-131 54z"/>
<path d="M4910 5723 c-29 -11 -50 -36 -50 -63 0 -36 17 -50 62 -50 42 0 78 27
78 58 0 34 -56 67 -90 55z"/>
<path d="M11654 5687 c-23 -20 -25 -26 -15 -45 16 -30 55 -38 86 -18 34 22 32
52 -5 71 -37 19 -34 19 -66 -8z"/>
<path d="M2734 5681 c-70 -42 -94 -107 -51 -136 32 -20 91 -3 134 40 38 38 42
66 13 95 -25 25 -56 25 -96 1z"/>
<path d="M7312 5556 c-101 -73 -188 -139 -195 -146 -10 -10 -1 -11 45 -8 53 4
68 12 218 113 156 105 184 134 165 164 -16 26 -62 2 -233 -123z"/>
<path d="M12970 5637 c-13 -7 -27 -23 -31 -37 -86 -281 -121 -413 -113 -431 9
-20 10 -20 38 2 17 14 56 78 102 172 61 123 74 158 74 197 0 86 -24 120 -70
97z"/>
<path d="M3645 5606 c-39 -17 -104 -70 -245 -197 -63 -57 -159 -142 -212 -188
-158 -135 -358 -395 -358 -463 0 -28 2 -29 33 -23 68 15 355 202 450 293 106
102 389 472 403 527 14 57 -13 77 -71 51z"/>
<path d="M10101 5560 c-80 -81 -241 -268 -241 -280 0 -21 23 -20 63 4 23 14
100 82 170 150 113 109 128 127 125 152 -2 23 -9 30 -30 32 -22 3 -39 -9 -87
-58z"/>
<path d="M4443 5590 c-27 -11 -43 -40 -43 -78 0 -61 80 -86 119 -36 51 65 -2
145 -76 114z"/>
<path d="M3183 5520 c-139 -33 -424 -273 -714 -601 -153 -172 -189 -223 -189
-262 0 -25 3 -27 28 -21 44 11 78 39 242 198 86 83 214 196 285 251 137 105
367 321 391 367 17 34 18 78 2 77 -7 -1 -27 -4 -45 -9z"/>
<path d="M5652 5471 c-69 -51 -189 -210 -281 -373 -27 -47 -30 -61 -21 -77 12
-23 37 -27 60 -8 9 7 56 61 105 122 50 60 126 148 171 195 102 108 109 120 83
149 -27 29 -68 26 -117 -8z"/>
<path d="M16413 5489 c-12 -4 -30 -21 -39 -36 -58 -96 -113 -173 -204 -288
-194 -244 -285 -401 -256 -441 19 -25 36 -11 103 83 32 45 101 131 153 193
152 179 228 295 264 406 20 62 12 96 -21 83z"/>
<path d="M8356 5428 c-9 -12 -16 -29 -16 -38 0 -9 7 -26 16 -38 31 -45 104
-17 104 40 0 53 -74 79 -104 36z"/>
<path d="M13702 5423 c-22 -9 -33 -42 -57 -176 -21 -117 -22 -134 -9 -159 8
-16 17 -28 19 -28 18 0 115 265 115 314 0 40 -32 64 -68 49z"/>
<path d="M9005 5345 c-223 -162 -343 -256 -515 -406 -177 -153 -212 -190 -196
-206 11 -11 46 12 198 129 160 124 284 208 403 274 112 63 248 198 243 241 -5
47 -35 39 -133 -32z"/>
<path d="M6500 5245 c-263 -184 -279 -201 -185 -199 52 1 181 70 325 173 103
74 132 109 114 138 -25 40 -54 28 -254 -112z"/>
<path d="M10386 5291 c-25 -27 -17 -72 15 -90 24 -14 29 -13 73 15 52 33 55
41 26 72 -27 29 -90 30 -114 3z"/>
<path d="M14970 5260 c-28 -28 -37 -54 -45 -131 -6 -52 -4 -67 9 -78 31 -26
50 -8 83 79 38 101 39 104 13 130 -25 25 -35 25 -60 0z"/>
<path d="M8228 5219 c-143 -99 -235 -157 -373 -233 -77 -43 -148 -86 -159 -96
-21 -21 -14 -40 15 -40 10 0 124 52 252 116 299 150 398 226 373 289 -9 25
-31 18 -108 -36z"/>
<path d="M7810 5213 c-73 -47 -120 -92 -120 -116 0 -40 100 -5 200 70 52 39
58 51 38 71 -21 21 -61 12 -118 -25z"/>
<path d="M11897 5216 c-56 -52 -85 -149 -52 -176 35 -29 155 86 155 148 0 51
-60 68 -103 28z"/>
<path d="M4475 5176 c-51 -24 -287 -232 -319 -280 -31 -48 5 -61 73 -27 94 48
331 255 331 289 0 9 -27 42 -33 42 -1 0 -24 -11 -52 -24z"/>
<path d="M14138 5163 c-24 -29 -28 -49 -12 -72 19 -27 58 -27 84 -1 24 24 25
38 4 68 -18 26 -55 29 -76 5z"/>
<path d="M15327 5072 c-22 -24 -21 -45 1 -65 24 -22 55 -21 75 1 22 24 21 45
-1 65 -24 22 -55 21 -75 -1z"/>
<path d="M8890 5029 c-63 -45 -271 -219 -292 -244 -23 -26 -33 -64 -20 -77 13
-13 41 2 122 67 36 28 110 84 165 122 124 88 153 117 139 141 -19 30 -65 26
-114 -9z"/>
<path d="M9216 5034 c-19 -18 -21 -65 -4 -82 18 -18 73 -15 90 6 31 34 40 62
27 78 -16 19 -93 18 -113 -2z"/>
<path d="M5716 5005 c-19 -19 -20 -37 -4 -53 29 -29 94 4 86 45 -4 24 -60 30
-82 8z"/>
<path d="M16355 5008 c-11 -5 -42 -37 -70 -70 -27 -34 -83 -97 -123 -142 -86
-94 -178 -215 -285 -373 -73 -107 -127 -233 -127 -295 0 -21 0 -21 21 -2 36
32 500 614 555 695 65 97 92 163 74 184 -14 17 -18 17 -45 3z"/>
<path d="M15799 4969 c-42 -46 -99 -165 -99 -210 0 -73 26 -58 100 61 29 46
59 100 67 119 14 32 13 36 -3 48 -25 19 -33 17 -65 -18z"/>
<path d="M13377 4972 c-27 -29 -100 -193 -90 -203 20 -20 56 7 106 80 51 76
58 101 36 127 -16 19 -33 18 -52 -4z"/>
<path d="M14667 4888 c-16 -13 -87 -206 -87 -238 0 -9 5 -21 11 -27 9 -9 25 0
66 35 73 63 93 98 93 159 0 70 -39 103 -83 71z"/>
<path d="M14903 4883 c-7 -2 -13 -15 -13 -28 0 -17 8 -26 30 -34 26 -9 34 -7
57 13 24 20 25 26 14 40 -13 15 -61 20 -88 9z"/>
<path d="M9480 4794 c-69 -41 -136 -85 -148 -98 l-24 -23 26 -7 c33 -8 150 36
246 93 70 42 96 71 86 97 -11 29 -63 12 -186 -62z"/>
<path d="M12543 4848 c-34 -42 -253 -423 -253 -439 0 -27 23 -33 58 -15 36 19
132 132 184 217 45 74 76 195 58 228 -12 24 -33 27 -47 9z"/>
<path d="M15491 4819 c-22 -23 -66 -151 -76 -220 -12 -78 34 -121 69 -66 22
33 96 234 96 260 0 48 -54 64 -89 26z"/>
<path d="M5237 4792 c-53 -58 28 -137 83 -82 24 24 25 48 4 78 -19 27 -64 29
-87 4z"/>
<path d="M14104 4788 c-31 -34 -144 -252 -144 -277 0 -69 140 51 200 172 27
56 32 73 24 95 -13 36 -52 41 -80 10z"/>
<path d="M11788 4788 c-23 -19 -158 -271 -158 -296 0 -62 86 14 169 149 51 83
62 124 39 147 -15 15 -30 15 -50 0z"/>
<path d="M12205 4788 c-41 -23 -46 -57 -15 -88 25 -25 72 -26 93 -2 20 22 22
65 4 80 -21 17 -61 23 -82 10z"/>
<path d="M4531 4744 c-26 -33 -26 -55 -2 -85 21 -26 79 -32 105 -10 25 21 21
86 -6 105 -34 24 -73 20 -97 -10z"/>
<path d="M10232 4748 c-17 -17 -15 -54 4 -72 33 -33 104 -8 104 37 0 39 -78
65 -108 35z"/>
<path d="M11135 4748 c-11 -6 -72 -61 -135 -122 -63 -61 -141 -135 -173 -163
-97 -87 -51 -107 63 -28 152 105 260 196 280 236 34 66 16 106 -35 77z"/>
<path d="M12811 4733 c-38 -47 -42 -125 -8 -131 71 -14 148 112 93 150 -24 17
-65 8 -85 -19z"/>
<path d="M15080 4735 c-7 -8 -22 -83 -35 -166 -18 -125 -20 -152 -8 -156 19
-7 36 9 67 68 50 90 73 228 44 257 -17 17 -53 15 -68 -3z"/>
<path d="M3757 4691 c-30 -19 -352 -427 -393 -498 -18 -29 -23 -49 -18 -67 8
-32 11 -32 54 -2 52 35 380 408 415 471 28 51 29 56 15 82 -20 35 -37 38 -73
14z"/>
<path d="M7845 4644 c-155 -82 -288 -140 -455 -198 -74 -26 -148 -55 -164 -65
l-28 -18 23 -17 c33 -23 59 -20 201 18 228 63 494 179 577 253 38 34 43 43 37
66 -10 43 -54 34 -191 -39z"/>
<path d="M6995 4677 c-41 -23 -63 -62 -51 -92 8 -23 55 -16 131 19 45 21 55
29 55 50 0 49 -69 61 -135 23z"/>
<path d="M6090 4643 c-45 -4 -80 -25 -80 -48 0 -7 9 -20 20 -30 19 -17 26 -17
166 -1 120 14 153 21 181 41 33 22 34 24 15 34 -20 10 -200 13 -302 4z"/>
<path d="M13680 4620 c-37 -37 -21 -90 27 -90 27 0 73 41 73 64 0 43 -66 60
-100 26z"/>
<path d="M15768 4583 c-80 -87 -184 -277 -258 -473 -55 -144 -117 -271 -189
-385 -28 -43 -51 -85 -51 -92 0 -36 47 -3 157 110 132 137 161 184 251 407 76
189 163 440 157 450 -11 18 -41 10 -67 -17z"/>
<path d="M9990 4479 c-47 -28 -155 -86 -240 -129 -86 -43 -162 -86 -170 -95
-14 -16 -11 -17 30 -10 127 21 298 92 426 178 77 51 105 84 82 98 -23 15 -42
9 -128 -42z"/>
<path d="M14834 4439 c-54 -27 -72 -117 -29 -145 23 -15 29 -15 52 -3 30 16
73 76 73 101 0 23 -35 58 -57 57 -10 0 -27 -5 -39 -10z"/>
<path d="M14221 4427 c-13 -6 -42 -45 -65 -86 -24 -40 -65 -104 -93 -141 -28
-37 -54 -76 -57 -88 -6 -19 -4 -22 22 -22 37 0 111 49 154 103 104 127 134
203 93 233 -23 17 -24 17 -54 1z"/>
<path d="M13215 4393 c-171 -98 -410 -285 -421 -330 -8 -30 17 -56 44 -46 10
4 54 42 100 84 45 43 134 120 198 170 96 77 157 142 142 153 -2 2 -30 -13 -63
-31z"/>
<path d="M13557 4387 c-12 -13 -54 -61 -93 -108 -90 -108 -208 -213 -409 -366
-88 -66 -230 -180 -315 -253 -85 -73 -245 -208 -355 -300 -110 -92 -214 -183
-231 -201 -47 -52 -97 -119 -92 -124 11 -12 105 53 323 223 276 215 375 285
557 388 73 42 174 104 223 137 117 79 301 264 383 384 96 141 113 197 70 227
-29 21 -35 20 -61 -7z"/>
<path d="M3882 4387 c-28 -16 -270 -331 -278 -363 -3 -13 -4 -31 0 -39 14 -37
48 -12 183 135 172 188 195 226 157 264 -18 19 -31 20 -62 3z"/>
<path d="M5906 4374 c-22 -22 -20 -70 4 -94 25 -25 51 -25 81 -2 25 21 30 71
9 96 -16 21 -74 20 -94 0z"/>
<path d="M8280 4383 c-14 -2 -94 -27 -179 -54 -146 -47 -359 -107 -520 -147
-52 -12 -78 -24 -89 -40 -14 -22 -14 -22 40 -22 85 0 284 28 385 55 108 28
261 86 320 121 48 28 105 98 76 93 -5 -1 -19 -4 -33 -6z"/>
<path d="M14387 4293 c-162 -169 -197 -213 -197 -242 0 -20 46 -11 111 21 70
35 200 157 233 220 19 34 19 37 3 62 -30 46 -57 35 -150 -61z"/>
<path d="M15361 4334 c-83 -37 -171 -114 -421 -369 -146 -148 -303 -310 -350
-359 -83 -87 -84 -88 -50 -81 69 15 179 87 376 247 59 48 164 127 233 175 69
48 146 106 170 128 91 83 155 219 121 260 -15 18 -35 18 -79 -1z"/>
<path d="M6273 4283 c-48 -9 -33 -32 50 -77 101 -54 142 -66 234 -66 100 0
123 10 123 55 0 32 -3 35 -27 35 -16 0 -93 14 -173 30 -142 29 -163 32 -207
23z"/>
<path d="M8965 4268 c-11 -6 -45 -31 -76 -54 -31 -24 -125 -84 -210 -135 -196
-116 -221 -135 -217 -162 6 -42 48 -32 205 47 143 71 257 149 326 224 48 50
26 111 -28 80z"/>
<path d="M11805 4169 c-266 -214 -549 -369 -940 -514 -132 -49 -258 -101 -279
-115 l-40 -25 55 -3 c77 -5 150 11 349 78 310 103 402 146 557 256 243 173
332 243 383 305 50 60 60 91 30 96 -8 2 -60 -34 -115 -78z"/>
<path d="M7214 4180 c-52 -21 -70 -94 -34 -130 44 -44 120 -4 120 62 0 39 -7
51 -37 67 -25 13 -21 12 -49 1z"/>
<path d="M9185 4136 c-243 -100 -263 -109 -290 -130 -35 -28 -25 -56 20 -56
18 0 116 27 218 60 139 45 193 67 216 89 17 16 31 36 31 44 0 16 -36 47 -55
47 -5 0 -68 -24 -140 -54z"/>
<path d="M8295 4086 c-262 -99 -306 -118 -324 -139 -11 -14 -11 -18 4 -23 85
-33 551 114 600 190 21 32 7 56 -34 56 -14 0 -125 -38 -246 -84z"/>
<path d="M12514 4141 c-72 -53 -214 -210 -214 -237 0 -34 48 -7 162 91 131
112 149 135 128 160 -18 21 -32 19 -76 -14z"/>
<path d="M13816 4154 c-9 -8 -16 -19 -16 -24 0 -17 32 -40 55 -40 14 0 29 9
35 20 24 45 -37 82 -74 44z"/>
<path d="M9897 4130 c-58 -18 -76 -60 -39 -93 23 -21 46 -21 82 0 84 49 51
122 -43 93z"/>
<path d="M11030 4120 c-39 -39 -12 -90 48 -90 32 0 52 21 52 54 0 22 -36 56
-60 56 -11 0 -29 -9 -40 -20z"/>
<path d="M6858 4074 c-17 -38 0 -59 48 -59 35 0 39 3 42 26 6 56 -68 83 -90
33z"/>
<path d="M12025 4088 c-27 -15 -35 -28 -35 -59 0 -54 70 -79 110 -39 28 28 25
64 -6 89 -30 24 -41 25 -69 9z"/>
<path d="M4940 4024 c-24 -21 -30 -33 -28 -57 4 -38 25 -52 70 -43 66 12 111
79 76 114 -22 22 -84 14 -118 -14z"/>
<path d="M10490 4040 c-14 -4 -71 -26 -127 -48 -119 -48 -239 -84 -378 -112
-55 -11 -104 -25 -110 -31 -37 -37 137 -34 300 5 137 34 332 104 364 132 21
19 24 26 15 41 -13 21 -29 25 -64 13z"/>
<path d="M13532 4025 c-26 -11 -33 -20 -30 -37 3 -20 10 -23 50 -26 40 -3 49
0 59 19 10 20 9 25 -11 41 -26 21 -26 21 -68 3z"/>
<path d="M14659 3985 c-262 -184 -462 -285 -702 -354 -204 -59 -503 -211 -695
-355 -95 -70 -221 -195 -269 -266 -38 -56 -188 -321 -236 -416 -69 -138 -217
-586 -217 -659 0 -108 57 -78 105 55 14 41 47 122 72 180 60 139 337 692 377
753 27 42 170 170 344 309 93 74 198 118 657 274 308 105 476 194 585 310 92
97 128 163 108 197 -16 30 -62 20 -129 -28z"/>
<path d="M14380 3959 c-96 -34 -279 -79 -470 -114 -285 -52 -547 -111 -628
-140 -67 -25 -104 -56 -87 -73 7 -8 808 123 915 150 93 22 297 101 342 131 40
28 45 61 8 64 -14 1 -50 -7 -80 -18z"/>
<path d="M7061 3961 c-11 -7 -9 -13 10 -33 28 -27 267 -113 344 -123 53 -7
144 5 235 32 69 21 73 25 56 48 -12 17 -29 19 -147 21 -108 1 -162 8 -279 33
-151 32 -195 37 -219 22z"/>
<path d="M9412 3910 c-68 -21 -178 -51 -245 -66 -67 -15 -135 -34 -152 -42
l-30 -15 30 -12 c53 -22 272 11 447 66 104 33 140 58 122 87 -17 27 -40 24
-172 -18z"/>
<path d="M15248 3938 c-33 -27 -158 -206 -158 -226 0 -12 3 -22 6 -22 16 0
134 87 182 133 53 52 66 89 40 115 -16 16 -50 15 -70 0z"/>
<path d="M10690 3866 c-126 -47 -136 -55 -74 -56 60 0 153 26 160 45 3 8 4 20
2 28 -2 11 -20 8 -88 -17z"/>
<path d="M12625 3858 c-11 -6 -49 -36 -85 -67 -255 -222 -513 -421 -687 -531
-358 -226 -553 -362 -553 -386 0 -20 12 -18 93 17 40 17 113 46 162 64 267 98
493 223 760 423 124 93 329 295 350 345 8 20 15 61 15 92 0 59 -11 68 -55 43z"/>
<path d="M8360 3799 c-194 -32 -457 -59 -625 -65 -174 -6 -205 -9 -205 -24 0
-5 15 -17 33 -27 27 -15 62 -17 247 -17 222 1 302 8 574 50 156 24 226 44 226
62 0 20 -51 42 -92 41 -24 -1 -95 -10 -158 -20z"/>
<path d="M9570 3732 c-102 -44 -110 -49 -110 -67 0 -21 73 -28 182 -16 122 12
153 26 153 66 0 65 -96 73 -225 17z"/>
<path d="M11680 3711 c-115 -59 -290 -126 -444 -170 -85 -25 -148 -48 -160
-61 l-20 -20 54 0 c123 1 422 87 607 176 94 45 117 70 93 99 -19 23 -49 17
-130 -24z"/>
<path d="M10255 3711 c-182 -65 -358 -135 -377 -151 -28 -23 -18 -50 20 -50
38 0 450 127 489 151 34 21 45 41 37 64 -9 24 -80 18 -169 -14z"/>
<path d="M12130 3707 c-36 -13 -95 -40 -130 -59 -104 -57 -232 -103 -425 -153
-257 -65 -415 -115 -705 -220 -321 -117 -486 -170 -721 -234 -258 -70 -371
-116 -544 -223 -148 -92 -302 -223 -422 -358 -106 -120 -141 -200 -86 -200 24
0 47 17 254 188 195 161 398 301 521 361 85 41 241 91 285 91 64 0 441 109
686 199 168 62 252 84 422 111 258 41 452 102 683 216 132 64 162 84 228 147
83 78 97 100 81 135 -13 28 -43 28 -127 -1z"/>
<path d="M8820 3703 c-19 -9 -91 -21 -160 -28 -69 -7 -176 -25 -238 -39 -168
-38 -589 -163 -652 -194 -48 -24 -55 -31 -55 -57 0 -23 5 -31 21 -33 22 -3
692 121 919 170 145 31 208 58 244 104 26 33 27 70 2 84 -25 13 -38 12 -81 -7z"/>
<path d="M13013 3605 c-179 -78 -373 -253 -373 -337 0 -16 5 -28 13 -28 22 0
363 307 392 353 19 30 14 32 -32 12z"/>
<path d="M6265 3561 c-94 -43 -136 -130 -80 -167 14 -9 34 -14 47 -10 36 9
175 93 181 110 10 25 -5 56 -34 71 -37 20 -65 19 -114 -4z"/>
<path d="M9345 3569 c-103 -31 -400 -92 -551 -114 -167 -24 -224 -41 -224 -65
0 -16 47 -30 98 -30 116 0 454 41 536 65 115 33 209 77 230 106 15 22 15 25
-1 36 -19 15 -45 15 -88 2z"/>
<path d="M13164 3539 c-27 -17 -88 -70 -135 -118 -170 -171 -345 -491 -288
-526 26 -16 56 7 99 77 86 139 193 274 316 395 104 102 124 127 124 152 0 30
-22 51 -52 51 -8 0 -36 -14 -64 -31z"/>
<path d="M6872 3528 c10 -28 72 -51 176 -64 169 -21 370 -28 419 -15 49 13 71
42 47 61 -31 27 -650 43 -642 18z"/>
<path d="M4496 3504 c-35 -35 -8 -104 42 -104 24 0 62 36 62 60 0 50 -69 80
-104 44z"/>
<path d="M10240 3481 c-14 -5 -81 -33 -150 -64 -69 -30 -220 -92 -335 -137
-116 -45 -220 -91 -233 -103 l-23 -22 24 -6 c34 -9 72 -1 292 66 190 57 401
147 473 201 59 46 27 89 -48 65z"/>
<path d="M9275 3369 c-115 -45 -216 -86 -222 -91 -7 -6 -13 -19 -13 -29 0 -15
7 -19 35 -19 34 0 384 109 437 136 49 25 45 84 -6 84 -11 0 -115 -37 -231 -81z"/>
<path d="M13985 3408 c-58 -38 -129 -127 -149 -185 -23 -66 -1 -57 123 55 114
101 131 123 111 147 -18 21 -31 19 -85 -17z"/>
<path d="M10510 3344 c-52 -25 -138 -60 -190 -79 -126 -44 -130 -46 -130 -56
0 -4 15 -12 34 -18 63 -17 237 28 377 98 67 33 74 39 74 66 0 27 -3 30 -35 32
-24 1 -65 -12 -130 -43z"/>
<path d="M8106 3359 c-96 -20 -116 -31 -116 -61 0 -19 6 -20 144 -16 124 3
147 6 165 22 26 23 26 38 3 59 -24 22 -81 21 -196 -4z"/>
<path d="M4998 3313 c-41 -43 -339 -524 -336 -542 2 -9 13 -17 25 -19 16 -2
41 20 106 95 217 251 302 383 295 454 -3 30 -7 34 -33 37 -23 2 -37 -4 -57
-25z"/>
<path d="M7536 3254 c-189 -28 -217 -43 -165 -90 19 -17 37 -19 183 -18 152 0
165 2 219 27 51 23 57 29 57 56 0 59 -44 62 -294 25z"/>
<path d="M13520 3253 c-51 -20 -162 -152 -285 -338 -125 -190 -185 -316 -185
-386 0 -69 42 -31 129 116 70 119 189 287 297 420 108 132 126 159 118 178 -6
17 -43 21 -74 10z"/>
<path d="M9825 3166 c-38 -18 -108 -45 -155 -60 -129 -43 -506 -212 -585 -263
-114 -74 -287 -254 -315 -328 -13 -35 -5 -62 21 -70 26 -9 44 4 159 110 180
167 287 225 695 375 133 49 245 112 291 162 38 43 42 67 16 91 -26 24 -47 21
-127 -17z"/>
<path d="M12472 3117 c-55 -26 -283 -329 -303 -402 -23 -81 1 -65 103 70 41
55 107 135 144 178 107 123 117 136 110 152 -6 17 -22 18 -54 2z"/>
<path d="M5267 3102 c-14 -15 -118 -293 -129 -342 -5 -22 40 -25 64 -3 58 50
158 246 158 307 0 48 -61 73 -93 38z"/>
<path d="M8253 3095 c-18 -8 -63 -32 -100 -54 -91 -54 -192 -93 -353 -136 -74
-20 -155 -47 -180 -60 -41 -21 -80 -60 -80 -81 0 -21 396 44 526 87 104 34
294 173 294 215 0 44 -45 56 -107 29z"/>
<path d="M8782 3073 c-70 -28 -86 -48 -56 -70 25 -19 127 -12 173 11 27 15 32
22 29 49 -3 30 -6 32 -43 34 -25 2 -64 -7 -103 -24z"/>
<path d="M11097 2995 c-76 -28 -165 -110 -153 -141 11 -30 38 -25 151 29 99
48 115 59 115 79 0 48 -40 60 -113 33z"/>
<path d="M11825 2986 c-34 -15 -333 -281 -358 -320 -23 -34 -22 -36 13 -36 22
0 72 30 187 111 87 60 173 125 191 144 57 61 35 129 -33 101z"/>
<path d="M6523 2895 c-57 -25 -68 -88 -17 -101 27 -7 100 34 111 62 13 35 -46
60 -94 39z"/>
<path d="M10551 2872 c-93 -42 -114 -67 -80 -98 19 -17 23 -17 87 0 37 10 82
27 100 38 61 37 63 98 3 98 -14 0 -64 -17 -110 -38z"/>
<path d="M8600 2892 c-33 -11 -448 -301 -519 -362 -159 -138 -304 -335 -418
-568 -66 -136 -85 -201 -64 -226 22 -26 52 -4 105 78 39 60 132 162 362 397
170 173 359 361 419 418 61 56 129 123 152 148 l42 46 -17 30 c-20 33 -41 47
-62 39z"/>
<path d="M5609 2829 c-27 -27 -23 -73 8 -77 31 -5 91 26 98 49 15 47 -65 69
-106 28z"/>
<path d="M11786 2692 c-157 -153 -245 -227 -356 -297 -100 -64 -114 -76 -98
-87 25 -15 91 -8 139 16 150 76 448 325 505 422 32 55 26 84 -18 84 -25 0 -53
-22 -172 -138z"/>
<path d="M6889 2792 c-44 -29 -268 -277 -281 -313 -24 -63 41 -66 126 -5 164
117 282 286 234 334 -18 18 -29 15 -79 -16z"/>
<path d="M11275 2771 c-117 -55 -375 -262 -375 -301 0 -44 52 -20 260 118 203
135 242 171 218 199 -15 19 -36 16 -103 -16z"/>
<path d="M13310 2745 c-89 -130 -190 -397 -255 -680 -57 -245 -58 -340 -5
-373 18 -11 22 -9 31 15 6 16 19 71 30 123 29 143 82 317 181 600 98 278 113
352 71 358 -16 2 -29 -9 -53 -43z"/>
<path d="M9792 2724 c-24 -17 -30 -62 -10 -82 19 -19 82 -15 101 6 22 25 21
48 -3 72 -24 24 -57 26 -88 4z"/>
<path d="M12485 2687 c-20 -30 -151 -411 -160 -464 -3 -23 -3 -49 2 -57 7 -14
12 -13 39 3 27 16 45 51 123 234 90 212 105 269 79 295 -20 20 -66 14 -83 -11z"/>
<path d="M7688 2576 c-56 -20 -175 -93 -193 -118 -21 -31 -19 -65 4 -73 11 -3
56 9 108 30 134 55 157 68 171 98 13 26 12 31 -9 53 -26 27 -30 28 -81 10z"/>
<path d="M12007 2508 c-13 -18 -34 -50 -47 -71 -21 -36 -21 -40 -6 -55 15 -15
19 -15 49 1 20 11 48 42 67 74 33 53 33 56 15 69 -30 22 -52 17 -78 -18z"/>
<path d="M10125 2450 c-137 -82 -168 -120 -95 -120 83 0 223 74 236 125 6 26
-9 55 -30 55 -6 0 -56 -27 -111 -60z"/>
<path d="M9712 2413 c-36 -32 -208 -311 -217 -354 -8 -34 2 -69 19 -69 19 0
54 42 180 215 115 159 132 195 104 223 -20 20 -52 14 -86 -15z"/>
<path d="M8396 2395 c-36 -19 -53 -40 -66 -85 -29 -103 111 -108 150 -5 19 49
13 85 -16 95 -33 13 -34 13 -68 -5z"/>
<path d="M6240 2392 c-55 -25 -160 -146 -160 -184 0 -19 32 -48 52 -48 9 0 53
35 97 78 86 82 99 112 63 145 -20 18 -28 20 -52 9z"/>
<path d="M12927 2338 c-36 -46 -101 -180 -126 -258 -12 -36 -28 -105 -36 -155
-19 -114 -45 -405 -45 -508 0 -76 19 -147 39 -147 20 0 42 93 71 310 36 260
53 346 111 543 45 157 55 239 27 245 -9 2 -27 -11 -41 -30z"/>
<path d="M6878 2283 c-37 -42 -168 -341 -168 -383 0 -33 28 -48 57 -29 44 27
184 276 198 350 9 49 -8 79 -44 79 -15 0 -35 -8 -43 -17z"/>
<path d="M8805 2231 c-69 -40 -162 -127 -267 -249 -94 -109 -125 -160 -115
-186 14 -37 51 -13 204 132 158 149 291 299 276 312 -22 21 -51 18 -98 -9z"/>
<path d="M10569 2162 c-57 -37 -181 -171 -264 -287 -83 -116 -188 -321 -258
-505 -69 -181 -120 -346 -114 -365 16 -41 83 30 287 305 180 243 316 469 408
675 54 120 60 157 33 184 -27 27 -38 27 -92 -7z"/>
<path d="M10875 2164 c-9 -9 -83 -150 -164 -313 -82 -163 -172 -336 -201 -386
-131 -224 -154 -285 -107 -285 13 0 35 12 49 28 37 39 222 292 286 390 86 133
232 453 232 511 0 26 -38 71 -60 71 -10 0 -26 -7 -35 -16z"/>
<path d="M7252 2127 c-31 -33 -205 -426 -206 -466 -1 -44 23 -61 57 -38 31 20
236 391 244 441 11 72 -49 112 -95 63z"/>
<path d="M9092 2074 c-25 -17 -31 -71 -10 -92 19 -19 57 -14 83 13 30 29 32
56 7 78 -23 21 -51 22 -80 1z"/>
<path d="M11334 1941 c-43 -11 -76 -38 -113 -91 -61 -89 -27 -134 65 -89 55
26 122 91 131 127 4 19 0 30 -17 44 -12 10 -25 18 -29 17 -3 -1 -20 -4 -37 -8z"/>
<path d="M11977 1914 c-60 -64 -105 -206 -75 -232 12 -9 19 -7 35 11 38 41
124 199 121 221 -5 33 -50 33 -81 0z"/>
<path d="M9718 1864 c-49 -26 -63 -78 -28 -109 28 -26 121 -17 155 15 31 30
34 84 6 100 -28 15 -101 12 -133 -6z"/>
<path d="M8883 1731 c-41 -26 -130 -223 -116 -261 10 -28 37 -37 58 -20 13 10
80 128 123 212 28 57 -13 100 -65 69z"/>
<path d="M11566 1617 c-32 -42 -40 -64 -86 -237 -22 -80 -62 -212 -90 -293
-57 -168 -61 -197 -27 -197 34 0 40 7 103 110 134 221 210 431 201 558 -3 34
-10 69 -17 77 -21 25 -57 18 -84 -18z"/>
<path d="M12311 1591 c-29 -29 -49 -73 -57 -121 -6 -35 -4 -46 10 -56 21 -15
42 -9 74 20 55 49 70 132 30 160 -29 20 -34 20 -57 -3z"/>
<path d="M7380 1583 c-55 -20 -77 -84 -40 -118 40 -36 140 10 140 65 0 45 -50
71 -100 53z"/>
<path d="M9528 1574 c-52 -28 -64 -83 -24 -109 23 -15 27 -15 68 6 79 40 97
69 60 102 -23 21 -68 21 -104 1z"/>
<path d="M11175 1374 c-28 -31 -33 -85 -10 -104 12 -10 21 -8 47 7 46 27 65
64 50 97 -16 35 -55 35 -87 0z"/>
<path d="M10206 1038 c-14 -13 -55 -77 -92 -143 -36 -66 -99 -171 -140 -233
-40 -61 -76 -123 -80 -136 -5 -21 -3 -23 23 -18 15 3 36 11 46 18 11 7 77 90
148 186 151 202 195 298 157 336 -18 18 -34 15 -62 -10z"/>
<path d="M12414 1050 c-27 -10 -64 -57 -64 -79 0 -26 38 -61 65 -61 60 0 115
41 115 86 0 53 -56 79 -116 54z"/>
<path d="M9196 808 c-21 -29 -20 -41 2 -61 25 -23 55 -21 77 3 15 16 17 26 9
48 -13 37 -65 43 -88 10z"/>
<path d="M10492 463 c-21 -8 -44 -63 -38 -89 13 -51 97 -43 123 11 15 31 15
36 -1 59 -16 25 -50 33 -84 19z"/>
</g>
</svg>
