<svg width="415" height="73" viewBox="0 0 415 73" fill="none" xmlns="http://www.w3.org/2000/svg">
<g clip-path="url(#clip0_143_31)">
<path d="M30.1704 0.128662L0.314819 72.862" stroke="#231F20" stroke-width="2" stroke-miterlimit="10"/>
<path d="M36.0739 0.128662L6.21484 72.862" stroke="#231F20" stroke-width="2" stroke-miterlimit="10"/>
<path d="M42.6678 0.128662L12.8122 72.862" stroke="#231F20" stroke-width="2" stroke-miterlimit="10"/>
<path d="M48.5712 0.128662L18.7122 72.862" stroke="#231F20" stroke-width="2" stroke-miterlimit="10"/>
<path d="M54.4747 0.128662L24.6157 72.862" stroke="#231F20" stroke-width="2" stroke-miterlimit="10"/>
<path d="M60.3747 0.128662L30.5191 72.862" stroke="#231F20" stroke-width="2" stroke-miterlimit="10"/>
<path d="M66.9721 0.128662L37.113 72.862" stroke="#231F20" stroke-width="2" stroke-miterlimit="10"/>
<path d="M72.8721 0.128662L43.0165 72.862" stroke="#231F20" stroke-width="2" stroke-miterlimit="10"/>
<path d="M78.7755 0.128662L48.9165 72.862" stroke="#231F20" stroke-width="2" stroke-miterlimit="10"/>
<path d="M84.679 0.128662L54.8199 72.862" stroke="#231F20" stroke-width="2" stroke-miterlimit="10"/>
<path d="M91.2729 0.128662L61.4173 72.862" stroke="#231F20" stroke-width="2" stroke-miterlimit="10"/>
<path d="M97.1763 0.128662L67.3173 72.862" stroke="#231F20" stroke-width="2" stroke-miterlimit="10"/>
<path d="M103.076 0.128662L73.2208 72.862" stroke="#231F20" stroke-width="2" stroke-miterlimit="10"/>
<path d="M108.98 0.128662L79.1242 72.862" stroke="#231F20" stroke-width="2" stroke-miterlimit="10"/>
<path d="M115.577 0.128662L85.7181 72.862" stroke="#231F20" stroke-width="2" stroke-miterlimit="10"/>
<path d="M121.477 0.128662L91.6216 72.862" stroke="#231F20" stroke-width="2" stroke-miterlimit="10"/>
<path d="M127.729 0.128662L97.8703 72.862" stroke="#231F20" stroke-width="2" stroke-miterlimit="10"/>
<path d="M133.629 0.128662L103.774 72.862" stroke="#231F20" stroke-width="2" stroke-miterlimit="10"/>
<path d="M140.227 0.128662L110.368 72.862" stroke="#231F20" stroke-width="2" stroke-miterlimit="10"/>
<path d="M146.127 0.128662L116.271 72.862" stroke="#231F20" stroke-width="2" stroke-miterlimit="10"/>
<path d="M152.03 0.128662L122.174 72.862" stroke="#231F20" stroke-width="2" stroke-miterlimit="10"/>
<path d="M157.934 0.128662L128.075 72.862" stroke="#231F20" stroke-width="2" stroke-miterlimit="10"/>
<path d="M164.527 0.128662L134.672 72.862" stroke="#231F20" stroke-width="2" stroke-miterlimit="10"/>
<path d="M170.431 0.128662L140.572 72.862" stroke="#231F20" stroke-width="2" stroke-miterlimit="10"/>
<path d="M176.334 0.128662L146.475 72.862" stroke="#231F20" stroke-width="2" stroke-miterlimit="10"/>
<path d="M182.234 0.128662L152.379 72.862" stroke="#231F20" stroke-width="2" stroke-miterlimit="10"/>
<path d="M188.832 0.128662L158.973 72.862" stroke="#231F20" stroke-width="2" stroke-miterlimit="10"/>
<path d="M194.732 0.128662L164.876 72.862" stroke="#231F20" stroke-width="2" stroke-miterlimit="10"/>
<path d="M200.635 0.128662L170.776 72.862" stroke="#231F20" stroke-width="2" stroke-miterlimit="10"/>
<path d="M206.539 0.128662L176.68 72.862" stroke="#231F20" stroke-width="2" stroke-miterlimit="10"/>
<path d="M213.133 0.128662L183.277 72.862" stroke="#231F20" stroke-width="2" stroke-miterlimit="10"/>
<path d="M219.036 0.128662L189.177 72.862" stroke="#231F20" stroke-width="2" stroke-miterlimit="10"/>
<path d="M225.823 0.128662L195.964 72.862" stroke="#231F20" stroke-width="2" stroke-miterlimit="10"/>
<path d="M231.723 0.128662L201.867 72.862" stroke="#231F20" stroke-width="2" stroke-miterlimit="10"/>
<path d="M238.32 0.128662L208.465 72.862" stroke="#231F20" stroke-width="2" stroke-miterlimit="10"/>
<path d="M244.224 0.128662L214.365 72.862" stroke="#231F20" stroke-width="2" stroke-miterlimit="10"/>
<path d="M250.124 0.128662L220.268 72.862" stroke="#231F20" stroke-width="2" stroke-miterlimit="10"/>
<path d="M256.027 0.128662L226.168 72.862" stroke="#231F20" stroke-width="2" stroke-miterlimit="10"/>
<path d="M262.625 0.128662L232.766 72.862" stroke="#231F20" stroke-width="2" stroke-miterlimit="10"/>
<path d="M268.525 0.128662L238.669 72.862" stroke="#231F20" stroke-width="2" stroke-miterlimit="10"/>
<path d="M274.428 0.128662L244.569 72.862" stroke="#231F20" stroke-width="2" stroke-miterlimit="10"/>
<path d="M280.328 0.128662L250.472 72.862" stroke="#231F20" stroke-width="2" stroke-miterlimit="10"/>
<path d="M286.925 0.128662L257.07 72.862" stroke="#231F20" stroke-width="2" stroke-miterlimit="10"/>
<path d="M292.829 0.128662L262.97 72.862" stroke="#231F20" stroke-width="2" stroke-miterlimit="10"/>
<path d="M298.729 0.128662L268.873 72.862" stroke="#231F20" stroke-width="2" stroke-miterlimit="10"/>
<path d="M304.632 0.128662L274.773 72.862" stroke="#231F20" stroke-width="2" stroke-miterlimit="10"/>
<path d="M311.23 0.128662L281.371 72.862" stroke="#231F20" stroke-width="2" stroke-miterlimit="10"/>
<path d="M317.13 0.128662L287.274 72.862" stroke="#231F20" stroke-width="2" stroke-miterlimit="10"/>
<path d="M323.378 0.128662L293.523 72.862" stroke="#231F20" stroke-width="2" stroke-miterlimit="10"/>
<path d="M329.282 0.128662L299.423 72.862" stroke="#231F20" stroke-width="2" stroke-miterlimit="10"/>
<path d="M335.879 0.128662L306.02 72.862" stroke="#231F20" stroke-width="2" stroke-miterlimit="10"/>
<path d="M341.779 0.128662L311.924 72.862" stroke="#231F20" stroke-width="2" stroke-miterlimit="10"/>
<path d="M347.683 0.128662L317.824 72.862" stroke="#231F20" stroke-width="2" stroke-miterlimit="10"/>
<path d="M353.583 0.128662L323.727 72.862" stroke="#231F20" stroke-width="2" stroke-miterlimit="10"/>
<path d="M360.18 0.128662L330.324 72.862" stroke="#231F20" stroke-width="2" stroke-miterlimit="10"/>
<path d="M366.083 0.128662L336.224 72.862" stroke="#231F20" stroke-width="2" stroke-miterlimit="10"/>
<path d="M371.984 0.128662L342.128 72.862" stroke="#231F20" stroke-width="2" stroke-miterlimit="10"/>
<path d="M377.887 0.128662L348.028 72.862" stroke="#231F20" stroke-width="2" stroke-miterlimit="10"/>
<path d="M384.484 0.128662L354.625 72.862" stroke="#231F20" stroke-width="2" stroke-miterlimit="10"/>
<path d="M390.384 0.128662L360.529 72.862" stroke="#231F20" stroke-width="2" stroke-miterlimit="10"/>
<path d="M396.288 0.128662L366.429 72.862" stroke="#231F20" stroke-width="2" stroke-miterlimit="10"/>
<path d="M402.188 0.128662L372.332 72.862" stroke="#231F20" stroke-width="2" stroke-miterlimit="10"/>
<path d="M408.785 0.128662L378.93 72.862" stroke="#231F20" stroke-width="2" stroke-miterlimit="10"/>
<path d="M414.689 0.128662L384.83 72.862" stroke="#231F20" stroke-width="2" stroke-miterlimit="10"/>
<path d="M30.1704 72.862L0.314819 0.128662" stroke="#231F20" stroke-width="2" stroke-miterlimit="10"/>
<path d="M36.0739 72.862L6.21484 0.128662" stroke="#231F20" stroke-width="2" stroke-miterlimit="10"/>
<path d="M42.6678 72.862L12.8122 0.128662" stroke="#231F20" stroke-width="2" stroke-miterlimit="10"/>
<path d="M48.5712 72.862L18.7122 0.128662" stroke="#231F20" stroke-width="2" stroke-miterlimit="10"/>
<path d="M54.4747 72.862L24.6157 0.128662" stroke="#231F20" stroke-width="2" stroke-miterlimit="10"/>
<path d="M60.3747 72.862L30.5191 0.128662" stroke="#231F20" stroke-width="2" stroke-miterlimit="10"/>
<path d="M66.9721 72.862L37.113 0.128662" stroke="#231F20" stroke-width="2" stroke-miterlimit="10"/>
<path d="M72.8721 72.862L43.0165 0.128662" stroke="#231F20" stroke-width="2" stroke-miterlimit="10"/>
<path d="M78.7755 72.862L48.9165 0.128662" stroke="#231F20" stroke-width="2" stroke-miterlimit="10"/>
<path d="M84.679 72.862L54.8199 0.128662" stroke="#231F20" stroke-width="2" stroke-miterlimit="10"/>
<path d="M91.2729 72.862L61.4173 0.128662" stroke="#231F20" stroke-width="2" stroke-miterlimit="10"/>
<path d="M97.1763 72.862L67.3173 0.128662" stroke="#231F20" stroke-width="2" stroke-miterlimit="10"/>
<path d="M103.076 72.862L73.2208 0.128662" stroke="#231F20" stroke-width="2" stroke-miterlimit="10"/>
<path d="M108.98 72.862L79.1242 0.128662" stroke="#231F20" stroke-width="2" stroke-miterlimit="10"/>
<path d="M115.577 72.862L85.7181 0.128662" stroke="#231F20" stroke-width="2" stroke-miterlimit="10"/>
<path d="M121.477 72.862L91.6216 0.128662" stroke="#231F20" stroke-width="2" stroke-miterlimit="10"/>
<path d="M127.729 72.862L97.8703 0.128662" stroke="#231F20" stroke-width="2" stroke-miterlimit="10"/>
<path d="M133.629 72.862L103.774 0.128662" stroke="#231F20" stroke-width="2" stroke-miterlimit="10"/>
<path d="M140.227 72.862L110.368 0.128662" stroke="#231F20" stroke-width="2" stroke-miterlimit="10"/>
<path d="M146.127 72.862L116.271 0.128662" stroke="#231F20" stroke-width="2" stroke-miterlimit="10"/>
<path d="M152.03 72.862L122.174 0.128662" stroke="#231F20" stroke-width="2" stroke-miterlimit="10"/>
<path d="M157.934 72.862L128.075 0.128662" stroke="#231F20" stroke-width="2" stroke-miterlimit="10"/>
<path d="M164.527 72.862L134.672 0.128662" stroke="#231F20" stroke-width="2" stroke-miterlimit="10"/>
<path d="M170.431 72.862L140.572 0.128662" stroke="#231F20" stroke-width="2" stroke-miterlimit="10"/>
<path d="M176.334 72.862L146.475 0.128662" stroke="#231F20" stroke-width="2" stroke-miterlimit="10"/>
<path d="M182.234 72.862L152.379 0.128662" stroke="#231F20" stroke-width="2" stroke-miterlimit="10"/>
<path d="M188.832 72.862L158.973 0.128662" stroke="#231F20" stroke-width="2" stroke-miterlimit="10"/>
<path d="M194.732 72.862L164.876 0.128662" stroke="#231F20" stroke-width="2" stroke-miterlimit="10"/>
<path d="M200.635 72.862L170.776 0.128662" stroke="#231F20" stroke-width="2" stroke-miterlimit="10"/>
<path d="M206.539 72.862L176.68 0.128662" stroke="#231F20" stroke-width="2" stroke-miterlimit="10"/>
<path d="M213.133 72.862L183.277 0.128662" stroke="#231F20" stroke-width="2" stroke-miterlimit="10"/>
<path d="M219.036 72.862L189.177 0.128662" stroke="#231F20" stroke-width="2" stroke-miterlimit="10"/>
<path d="M225.823 72.862L195.964 0.128662" stroke="#231F20" stroke-width="2" stroke-miterlimit="10"/>
<path d="M231.723 72.862L201.867 0.128662" stroke="#231F20" stroke-width="2" stroke-miterlimit="10"/>
<path d="M238.32 72.862L208.465 0.128662" stroke="#231F20" stroke-width="2" stroke-miterlimit="10"/>
<path d="M244.224 72.862L214.365 0.128662" stroke="#231F20" stroke-width="2" stroke-miterlimit="10"/>
<path d="M250.124 72.862L220.268 0.128662" stroke="#231F20" stroke-width="2" stroke-miterlimit="10"/>
<path d="M256.027 72.862L226.168 0.128662" stroke="#231F20" stroke-width="2" stroke-miterlimit="10"/>
<path d="M262.625 72.862L232.766 0.128662" stroke="#231F20" stroke-width="2" stroke-miterlimit="10"/>
<path d="M268.525 72.862L238.669 0.128662" stroke="#231F20" stroke-width="2" stroke-miterlimit="10"/>
<path d="M274.428 72.862L244.569 0.128662" stroke="#231F20" stroke-width="2" stroke-miterlimit="10"/>
<path d="M280.328 72.862L250.472 0.128662" stroke="#231F20" stroke-width="2" stroke-miterlimit="10"/>
<path d="M286.925 72.862L257.07 0.128662" stroke="#231F20" stroke-width="2" stroke-miterlimit="10"/>
<path d="M292.829 72.862L262.97 0.128662" stroke="#231F20" stroke-width="2" stroke-miterlimit="10"/>
<path d="M298.729 72.862L268.873 0.128662" stroke="#231F20" stroke-width="2" stroke-miterlimit="10"/>
<path d="M304.632 72.862L274.773 0.128662" stroke="#231F20" stroke-width="2" stroke-miterlimit="10"/>
<path d="M311.23 72.862L281.371 0.128662" stroke="#231F20" stroke-width="2" stroke-miterlimit="10"/>
<path d="M317.13 72.862L287.274 0.128662" stroke="#231F20" stroke-width="2" stroke-miterlimit="10"/>
<path d="M323.378 72.862L293.523 0.128662" stroke="#231F20" stroke-width="2" stroke-miterlimit="10"/>
<path d="M329.282 72.862L299.423 0.128662" stroke="#231F20" stroke-width="2" stroke-miterlimit="10"/>
<path d="M335.879 72.862L306.02 0.128662" stroke="#231F20" stroke-width="2" stroke-miterlimit="10"/>
<path d="M341.779 72.862L311.924 0.128662" stroke="#231F20" stroke-width="2" stroke-miterlimit="10"/>
<path d="M347.683 72.862L317.824 0.128662" stroke="#231F20" stroke-width="2" stroke-miterlimit="10"/>
<path d="M353.583 72.862L323.727 0.128662" stroke="#231F20" stroke-width="2" stroke-miterlimit="10"/>
<path d="M360.18 72.862L330.324 0.128662" stroke="#231F20" stroke-width="2" stroke-miterlimit="10"/>
<path d="M366.083 72.862L336.224 0.128662" stroke="#231F20" stroke-width="2" stroke-miterlimit="10"/>
<path d="M371.984 72.862L342.128 0.128662" stroke="#231F20" stroke-width="2" stroke-miterlimit="10"/>
<path d="M377.887 72.862L348.028 0.128662" stroke="#231F20" stroke-width="2" stroke-miterlimit="10"/>
<path d="M384.484 72.862L354.625 0.128662" stroke="#231F20" stroke-width="2" stroke-miterlimit="10"/>
<path d="M390.384 72.862L360.529 0.128662" stroke="#231F20" stroke-width="2" stroke-miterlimit="10"/>
<path d="M396.288 72.862L366.429 0.128662" stroke="#231F20" stroke-width="2" stroke-miterlimit="10"/>
<path d="M402.188 72.862L372.332 0.128662" stroke="#231F20" stroke-width="2" stroke-miterlimit="10"/>
<path d="M408.785 72.862L378.93 0.128662" stroke="#231F20" stroke-width="2" stroke-miterlimit="10"/>
<path d="M414.689 72.862L384.83 0.128662" stroke="#231F20" stroke-width="2" stroke-miterlimit="10"/>
</g>
<defs>
<clipPath id="clip0_143_31">
<rect width="415" height="72.9906" fill="white"/>
</clipPath>
</defs>
</svg>
