<svg xmlns="http://www.w3.org/2000/svg" viewBox="0 0 257.86 186.36"><defs><style>.cls-1{fill:#28334a;}.cls-2{fill:#a12a21;}.cls-3{fill:#080808;stroke:#080808;stroke-miterlimit:10;stroke-width:0.5px;}</style></defs><title>Asset 1</title><g id="Layer_2" data-name="Layer 2"><g id="Layer_1-2" data-name="Layer 1"><path class="cls-1" d="M2.37,64H3.73l6.72,4.46H9.09ZM7,64l6.8,4.46H12.26L5.54,64ZM16,68.43,9.24,64h1.89l5.59,3.7v.75H16ZM15.28,64l1.44,1v1.21L13.4,64Zm4.84,44.49h1.59l6.72,4.46H26.84Zm5,0,6.8,4.46H30.16l-6.72-4.46Zm3.78,0v-.15l7,4.61H34l-6.8-4.46Zm0-43.66,7.48,5V71l-7.48-5Zm0,2.72,7.48,5v1.21l-7.48-5Zm0,2.72,7.48,5v1.21l-7.48-5Zm0,2.72,7.48,4.91v1.29l-7.48-5Zm0,2.72,7.48,5v1.21l-7.48-5Zm0,2.72,7.48,5v1.21l-7.48-5Zm0,2.72,7.48,5v1.21l-7.48-5Zm0,2.72,7.48,5V90l-7.48-5Zm0,2.72,7.48,5v1.21l-7.48-5Zm0,2.72,7.48,5v1.21l-7.48-5Zm0,2.72,7.48,5v1.21l-7.48-5Zm0,2.72,7.48,5v1.21l-7.48-5Zm0,2.71,7.48,5v1.21l-7.48-5Zm0,2.72,7.48,5v1.21l-7.48-5Zm0,2.72,7.48,4.91V109l-7.48-4.91Zm0,2.72,7.48,4.91v1.21l-7.48-4.91ZM31.75,64l6.72,4.46H36.66L29.86,64Zm4.08,0,6.8,4.46H40.74L34,64ZM40,64l6.8,4.46H44.89L38.17,64Zm4.15,0,6.72,4.46H49L42.24,64Zm9.67-3L46.32,56V54.91l7.48,5Zm-7.48-3.7,7.48,5v1.21l-7.48-4.91Zm0,2.72,7.48,5v1.21l-7.48-4.91Zm6.8,8.46L46.32,64V62.69l7.48,5v.75Z"/><path class="cls-1" d="M55,108.46l6.8,4.46H59.92l-6.72-4.46Zm4,0v-.07l6.87,4.53H64.07l-6.8-4.46Zm.91-2.19,7.78,5.06-.45,1-7.7-5.14Zm1-2.11,7.7,5.06-.38,1-7.78-5.06Zm.91-2.12,7.7,5.06-.38,1L61.35,103Zm.91-2.11,7.7,5.14L70,106l-7.78-5.06Zm.9-2h.15L71.4,103l-.45.91-7.7-5.06Zm4.23,0,6.8,4.46H72.76L66,97.89Zm.38-10.58.68.38h-.83Zm.53-1.21.45-.91,3.85,2.49H71.17Zm1.36-3,7,4.61H75.25l-5.51-3.63ZM72,97.89l6.72,4.46H76.92l-6.8-4.46ZM71.1,81,78.8,86l-.45,1L70.65,82Zm7.63,3.55-7.18-4.68.45-1,6,4C78.2,83.38,78.43,84,78.73,84.52ZM77,80.67l-4.46-3,.38-1,3.32,2.19Zm-1.74-3.78-1.81-1.28.38-.91.76.45Zm.83,21,6.8,4.46H81l-6.72-4.46Zm8.16-38.07L85,61.48,78.43,57.1l-.76-1.59Zm.91,42.52-6.8-4.46h1.89L86.43,102l.15.38ZM79.41,59.29,86,63.67l.83,1.74-6.57-4.3Zm1.89,3.93,6.57,4.38.83,1.74L82.13,65Zm3,34.67.38.3.76,1.66-2.95-2ZM83.11,67.15l6.57,4.38.83,1.74L83.94,69Zm1.89,4,6.57,4.31.75,1.74-6.5-4.3Zm1.81,3.93,6.57,4.31.83,1.74-6.57-4.3ZM88.7,79l6.5,4.31L96,85.05l-6.42-4.3Zm1.81,3.93L97,87.24,97.77,89l-6.42-4.3Zm1.81,3.93,6.42,4.23.83,1.81-6.42-4.23Zm1.82,3.85,6.42,4.23.83,1.81L95,92.52Zm2.11,17.75,6.8,4.46h-1.89l-6.72-4.46ZM96,94.72l6.5,4.23.76,1.74-6.42-4.23Zm1.81,3.85,6.5,4.31.83,1.74-6.57-4.3Zm2.57,9.89,6.8,4.46h-1.81l-6.8-4.46Zm-.76-6,6.5,4.31.83,1.66-6.5-4.23Zm1.82,3.93,6.5,4.23.83,1.74-6.5-4.23Z"/><path class="cls-1" d="M120,108.39l4.53,3a35.29,35.29,0,0,1-5.06-2.57l-1.59-1.06Zm9.89-35.73-7.63-5,.23-1.13,7.7,5.06A6,6,0,0,0,129.84,72.66Zm-3.25.6-3.1-2a5.28,5.28,0,0,1-1.21-2l7.4,4.91v.45C128.48,74.1,127.5,73.64,126.59,73.26Zm4.16-2.71L123,65.41l.68-.75,7.7,5.06A5.59,5.59,0,0,0,130.75,70.55Zm-5.29,38.74,6.27,4.08c-.91-.15-1.81-.3-2.72-.53L123.19,109A22.42,22.42,0,0,0,125.46,109.29Zm6.87-40.41-7.63-5.06,1.06-.45,7.55,4.91Zm2.42-1.13L127.5,63a8.78,8.78,0,0,1,1.51-.15h.15l7,4.61A8.52,8.52,0,0,0,134.75,67.75Zm-5.21,41.54,6.87,4.53c-.6,0-1.28-.08-1.89-.08l-6.72-4.38C128.41,109.37,129,109.29,129.54,109.29Zm3.55-.38,7.1,4.68-1.59.15-7-4.68Zm5.14-41.61L132,63.22a31.32,31.32,0,0,1,3.32.91l5.06,3.32A19.93,19.93,0,0,0,138.23,67.3ZM136,108.16l7.4,4.83a7.63,7.63,0,0,1-1.44.3l-7.25-4.76Zm2.64-1,7.55,4.91-1.21.45-7.48-4.91ZM141,106l7.63,5-1,.53-7.63-5C140.34,106.35,140.64,106.12,141,106Zm2.64-37.84-2-1.28.38-1,5.74,3.85A29,29,0,0,0,143.59,68.13Zm-.76,36.4,7.7,5-.83.68-7.63-5Zm7.25-34.81-7.63-5.06.3-1,7.7,5.06A5.58,5.58,0,0,1,150.08,69.72Zm-6.49-8.24,7.7,5.06a5.65,5.65,0,0,1-.38,1l-7.7-5.06Zm.91,41.39,7.7,5-.68.76-7.7-5Zm7.25-37.54-7.7-5.06.3-1,7.78,5.14A4.94,4.94,0,0,1,151.75,65.33Zm.75-2-7.78-5.14.3-.75,7.78,5.06A2.64,2.64,0,0,1,152.5,63.37ZM145.78,101l7.7,5.06L153,107l-7.78-5.14A6.63,6.63,0,0,0,145.78,101Zm6-11.17-5.14-3.4c-.15-.23-.23-.53-.38-.83l2,1.28A24.15,24.15,0,0,1,151.75,89.81Zm-5,9.06,7.7,5.14-.38.91-7.78-5.06Zm8.08,3.85-7.7-5.06a4.11,4.11,0,0,0,.3-1.06l7.55,5.06Zm-.22-8.31-7-4.61-.3-1.43,6.57,4.38C154.16,93.28,154.39,93.88,154.62,94.41Zm-6.88-.3,7.55,5a5.33,5.33,0,0,1-.08,1.13l-7.55-5C147.67,94.87,147.74,94.49,147.74,94.11Zm7.48,3.48-7.4-4.91a6.88,6.88,0,0,0-.08-1.28l7.33,4.83A8.84,8.84,0,0,1,155.22,97.59Z"/><path class="cls-1" d="M159.11,64h1.36l6.72,4.46h-1.36Zm4.61,0,6.8,4.46H169L162.29,64Zm9.06,4.46L166,64h1.89l5.59,3.7v.75h-.68ZM172,64l1.44,1v1.21L170.15,64Zm4.83,44.49h1.59l6.72,4.46h-1.59Zm5,0,6.8,4.46h-1.74l-6.72-4.46Zm3.77,0v-.15l6.95,4.61h-1.81l-6.8-4.46Zm0-43.66,7.48,5V71l-7.48-5Zm0,2.72,7.48,5v1.21l-7.48-5Zm0,2.72,7.48,5v1.21l-7.48-5Zm0,2.72,7.48,4.91v1.29l-7.48-5Zm0,2.72,7.48,5v1.21l-7.48-5Zm0,2.72,7.48,5v1.21l-7.48-5Zm0,2.72,7.48,5v1.21l-7.48-5Zm0,2.72,7.48,5V90l-7.48-5Zm0,2.72,7.48,5v1.21l-7.48-5Zm0,2.72,7.48,5v1.21l-7.48-5Zm0,2.72,7.48,5v1.21l-7.48-5Zm0,2.72,7.48,5v1.21l-7.48-5Zm0,2.71,7.48,5v1.21l-7.48-5Zm0,2.72,7.48,5v1.21l-7.48-5Zm0,2.72,7.48,4.91V109l-7.48-4.91Zm0,2.72,7.48,4.91v1.21l-7.48-4.91ZM188.49,64l6.72,4.46H193.4L186.6,64Zm4.08,0,6.8,4.46h-1.89L190.76,64Zm4.16,0,6.8,4.46h-1.89L194.92,64Zm4.15,0,6.72,4.46h-1.81L199,64Zm9.67-3L203.07,56V54.91l7.48,5Zm-7.48-3.7,7.48,5v1.21l-7.48-4.91Zm0,2.72,7.48,5v1.21l-7.48-4.91Zm6.8,8.46L203.07,64V62.69l7.48,5v.75Z"/><path class="cls-1" d="M216.54,108.46h.08l6.72,4.46h-.08Zm4.15,0,6.8,4.46H225.6l-6.8-4.46Zm4.16,0,6.72,4.46h-1.81l-6.8-4.46Zm.37-43.2,7.48,4.91v1.21l-7.48-4.91Zm0,2.72,7.48,4.91V74.1l-7.48-4.91Zm6.42,8.15-6.42-4.23V70.69l7.48,4.91v.53Zm-6.42-2.71,4.15,2.72h-1.81l-2.34-1.51Zm0,13.74h.3l7.18,4.76v1.21l-7.48-4.91V87.16Zm0,2.57,7.48,4.91v1.21l-7.48-4.91Zm0,2.72,7.17,4.68H230.5l-5.29-3.47V92.45Zm3,4.68h-1.81l-1.21-.75V95.17Zm4.46-28.47L225.6,64h1.89l6.72,4.46H232.7Zm-3.78,39.8,6.8,4.46h-1.89l-6.72-4.46Zm.68-21.3,6.8,4.46h-1.89l-6.72-4.46Zm2-23.19,6.8,4.46h-1.89L229.76,64Zm1.51,44.49,6.72,4.46H238l-6.8-4.46Zm.68-21.3,6.72,4.46h-1.81l-6.8-4.46Zm2-23.19,6.72,4.46h-1.81L233.83,64Zm1.44,44.49,6.8,4.46h-1.89l-6.72-4.46Zm.75-21.3,6.72,4.46h-1.89L236,87.16ZM239.8,64l6.8,4.46h-1.89L238,64Zm1.51,44.49,6.8,4.46h-1.89l-6.72-4.46Zm.68-21.3,6.8,4.46H246.9l-6.72-4.46ZM244,64l6.72,4.46h-1.81L242.06,64Zm1.52,44.49,6.72,4.46h-1.81l-6.8-4.46Zm.67-21.3,6.72,4.46h-1.81l-6.8-4.46ZM248,64l6.8,4.46H253L246.22,64Zm1.51,44.49,6.8,4.46h-1.89l-6.72-4.46Zm6-24L248,79.53V78.4l7.48,5ZM248,80.74l7.48,4.91v1.06L248,81.8ZM248,83l7.48,4.91v1.21L248,84.22Zm7.18,8.61L248,86.94V85.73l7.48,4.91v1ZM257.85,61l-7.48-5V54.91l7.48,5Zm-7.48-3.7,7.48,5v1.21l-7.48-5Zm0,2.72,7.48,5v1.21l-7.48-5Zm6.73,8.38L250.38,64V62.76l7.48,5v.68h-.76Zm-6.73,32.4,7.48,5V107l-7.48-5Zm0,2.72,7.48,4.91v1.21l-7.48-4.91Zm0,2.72,7.48,4.91v1.21l-7.48-4.91Z"/><path class="cls-1" d="M33.32,5.35a.33.33,0,0,1,0,.35L25.91,33.49a.37.37,0,0,1-.39.26H20.77a.43.43,0,0,1-.39-.26L17.44,22.56l-4,11a.32.32,0,0,1-.3.22H8.58a.31.31,0,0,1-.35-.26L.84,5.67c-.06-.29.07-.43.39-.43h5c.14,0,.24.09.3.26l4.8,18.32L14.89,13l-2-7.26a.31.31,0,0,1,0-.35.39.39,0,0,1,.3-.13H18.6a.35.35,0,0,1,.35.26l4,17.63L27.68,5.49A.34.34,0,0,1,28,5.23h5A.35.35,0,0,1,33.32,5.35Z"/><path class="cls-1" d="M40.07,33.35V5.61c0-.26.11-.39.35-.39H55.11a.34.34,0,0,1,.39.39v4.62a.34.34,0,0,1-.39.39H45.78V16.5H53c.23,0,.35.13.35.39V21.6c0,.26-.12.39-.35.39H45.78v6.35h9.33a.34.34,0,0,1,.39.39v4.62a.34.34,0,0,1-.39.39H40.42C40.19,33.74,40.07,33.61,40.07,33.35Z"/><path class="cls-1" d="M64.71,0c.51,0,.75.31.69.93l-.93,6.56c-.15.46-.36.69-.62.69H61.07c-.41,0-.64-.23-.7-.69L59.44.85a.49.49,0,0,1,.12-.62A1,1,0,0,1,60.22,0Z"/><path class="cls-1" d="M86.27,5.48c.11-.17.23-.26.35-.26h4.93a.38.38,0,0,1,.32.13.33.33,0,0,1,0,.35L84.41,33.49a.4.4,0,0,1-.35.26H78.7a.28.28,0,0,1-.3-.26L70.92,5.7q-.09-.48.39-.48h5c.11,0,.23.09.35.26l4.75,17.89Z"/><path class="cls-1" d="M98.27,33.35V5.61c0-.26.11-.39.35-.39h14.69a.34.34,0,0,1,.39.39v4.62a.34.34,0,0,1-.39.39H104V16.5h7.26c.23,0,.35.13.35.39V21.6c0,.26-.12.39-.35.39H104v6.35h9.33a.34.34,0,0,1,.39.39v4.62a.34.34,0,0,1-.39.39H98.62C98.39,33.74,98.27,33.61,98.27,33.35Z"/><path class="cls-1" d="M146.58,23V18.36A.34.34,0,0,1,147,18h9.9a.34.34,0,0,1,.39.39v6.78q0,4.8-2.51,6.91t-7.35,2.12a16.08,16.08,0,0,1-4.08-.48,8.11,8.11,0,0,1-3.13-1.53,7,7,0,0,1-2-2.79,11,11,0,0,1-.71-4.23V13.77q0-4.71,2.55-6.83t7.39-2.12a16.08,16.08,0,0,1,4.08.48,8,8,0,0,1,3.11,1.53,7,7,0,0,1,2,2.77,11.16,11.16,0,0,1,.69,4.17v.91a.34.34,0,0,1-.39.39h-5a.34.34,0,0,1-.39-.39v-.56a3.08,3.08,0,0,0-1.12-2.74,4.88,4.88,0,0,0-2.77-.76h-.52a3.55,3.55,0,0,0-3,1.25,3.41,3.41,0,0,0-.65,1.43,9,9,0,0,0-.17,1.9v8.56a6.24,6.24,0,0,0,.35,2.31,3.62,3.62,0,0,0,.89,1.38,3,3,0,0,0,1.23.69,5,5,0,0,0,1.38.19h.52a3.48,3.48,0,0,0,2.94-1.25,5.39,5.39,0,0,0,1-3.33v-.39H147A.34.34,0,0,1,146.58,23Z"/><path class="cls-1" d="M173.94,4.83q5.53,0,7.95,2.59,1.91,2.07,1.9,6.35V25.14c0,2.94-.63,5.08-1.9,6.44a7.81,7.81,0,0,1-3.2,1.94,17.94,17.94,0,0,1-9.57,0,7.86,7.86,0,0,1-3.18-1.94A6.87,6.87,0,0,1,164.49,29a12.87,12.87,0,0,1-.5-3.82V13.78q0-4.23,1.94-6.4a7.16,7.16,0,0,1,3.2-1.94A16.27,16.27,0,0,1,173.94,4.83Zm4.11,10.37a6.45,6.45,0,0,0-.35-2.31,3.58,3.58,0,0,0-.91-1.4,2.78,2.78,0,0,0-1.25-.69,5.92,5.92,0,0,0-1.38-.17h-.52a3.4,3.4,0,0,0-3,1.23,5.64,5.64,0,0,0-.89,3.35v8.64a6.61,6.61,0,0,0,.35,2.33,3.63,3.63,0,0,0,.89,1.4,3,3,0,0,0,1.23.69,5,5,0,0,0,1.38.19h.52a3.35,3.35,0,0,0,3-1.27,6,6,0,0,0,.93-3.35Z"/><path class="cls-1" d="M189.81,10.23V5.61a.34.34,0,0,1,.39-.39h18a.34.34,0,0,1,.39.39v4.62a.34.34,0,0,1-.39.39h-6.14V33.35a.34.34,0,0,1-.39.39h-5a.34.34,0,0,1-.39-.39V10.62h-6.14A.34.34,0,0,1,189.81,10.23Z"/><path class="cls-1" d="M237.09,5.48c.06-.17.16-.26.3-.26h5.36a.31.31,0,0,1,.3.26l7.48,27.79q.09.48-.39.48h-4.93a.28.28,0,0,1-.3-.26l-1.69-6.05h-6.31l-1.64,6.05c-.06.17-.16.26-.3.26h-5q-.48,0-.39-.48ZM241.88,22,240,15.5,238.29,22Z"/><path class="cls-2" d="M0,54.2H44.64v8.61H27.19V107.3H17.75V62.81H0Z"/><path class="cls-2" d="M57.78,107.3H48L72.88,53.75H75L99.93,107.3H89.88L85.2,96.73H62.39Zm7.93-18H81.87L73.79,71Z"/><path class="cls-2" d="M127.77,108.2a34.32,34.32,0,0,1-17.37-5.06l3.25-8.46a26.88,26.88,0,0,0,14.43,4.76c6.27,0,9.14-3.1,9.14-6.5s-2-5.67-11.56-9.21c-10.35-3.78-13.9-8.69-13.9-15,0-8,6.5-15.41,17.83-15.41a31.13,31.13,0,0,1,14.65,3.63l-3,8.31c-3.1-1.74-7.78-3.55-11.86-3.55-5.59,0-8.16,3.1-8.16,6.8,0,3.4,2.87,5.51,10.35,8.23C143.41,81.32,146.81,86,146.81,93,146.8,102.39,139.63,108.2,127.77,108.2Z"/><path class="cls-2" d="M156.46,54.2H201.1v8.61H183.65V107.3h-9.44V62.81H156.46V54.2Z"/><path class="cls-2" d="M214,54.2h34.52v8.61H223.34V77.69h22.81V86H223.34V98.69h25.15v8.61H214Z"/><path class="cls-1" d="M2.53,152.3c-.2,0-.3-.11-.3-.34v-24.4c0-.23.1-.34.3-.34H15.45a.3.3,0,0,1,.34.34v4.07a.3.3,0,0,1-.34.34H7.24v5.17h6.38c.2,0,.3.11.3.34v4.14c0,.23-.1.34-.3.34H7.24v10a.3.3,0,0,1-.34.34H2.53Z"/><path class="cls-1" d="M28,126.87q4.86,0,7,2.28,1.66,1.83,1.67,5.59v10q0,3.87-1.67,5.66a6.87,6.87,0,0,1-2.81,1.71,13.32,13.32,0,0,1-4.18.57,13.46,13.46,0,0,1-4.24-.57A6.79,6.79,0,0,1,21,150.39a6,6,0,0,1-1.27-2.3,11.27,11.27,0,0,1-.44-3.36v-10A8.14,8.14,0,0,1,21,129.12a6.23,6.23,0,0,1,2.81-1.71A14.53,14.53,0,0,1,28,126.87ZM31.6,136a5.72,5.72,0,0,0-.3-2,3.17,3.17,0,0,0-.8-1.23,2.56,2.56,0,0,0-1.1-.61,5.09,5.09,0,0,0-1.22-.15h-.46a3,3,0,0,0-2.6,1.08,4.94,4.94,0,0,0-.78,2.95v7.6a5.88,5.88,0,0,0,.3,2,3.1,3.1,0,0,0,.78,1.23,2.77,2.77,0,0,0,1.08.61,4.6,4.6,0,0,0,1.22.17h.46a2.93,2.93,0,0,0,2.6-1.12,5.31,5.31,0,0,0,.82-3Z"/><path class="cls-1" d="M57,142.38a5,5,0,0,1-2.36,2.43l3.19,7a.36.36,0,0,1,0,.32.28.28,0,0,1-.27.13H52.86a.27.27,0,0,1-.27-.19l-3-6.46H47.69V152a.3.3,0,0,1-.34.34H43c-.18,0-.27-.11-.27-.34v-24.4c0-.23.09-.34.27-.34h7.9a6.17,6.17,0,0,1,6.77,6.84v4.79a10.66,10.66,0,0,1-.17,1.9A6.44,6.44,0,0,1,57,142.38Zm-4.29-7.18a4.87,4.87,0,0,0-.21-1.58,1.66,1.66,0,0,0-.67-.89,2.62,2.62,0,0,0-1.2-.38c-.49,0-1.1-.08-1.81-.08h-1.1v8.4h1.1q.91,0,1.62-.06a2.87,2.87,0,0,0,1.2-.34,1.87,1.87,0,0,0,.76-.89,4.6,4.6,0,0,0,.3-1.71V135.2Z"/><path class="cls-1" d="M76.77,131.62v-4.07a.3.3,0,0,1,.34-.34H93a.3.3,0,0,1,.34.34v4.07A.3.3,0,0,1,93,132h-5.4v20a.3.3,0,0,1-.34.34H82.85a.3.3,0,0,1-.34-.34V132h-5.4C76.88,132,76.77,131.85,76.77,131.62Z"/><path class="cls-1" d="M112.87,142.38a5,5,0,0,1-2.36,2.43l3.19,7a.36.36,0,0,1,0,.32.28.28,0,0,1-.27.13h-4.67a.27.27,0,0,1-.27-.19l-3-6.46h-1.94V152a.3.3,0,0,1-.34.34H98.88c-.18,0-.27-.11-.27-.34v-24.4c0-.23.09-.34.27-.34h7.9a6.17,6.17,0,0,1,6.77,6.84v4.79a10.66,10.66,0,0,1-.17,1.9A6.44,6.44,0,0,1,112.87,142.38Zm-4.3-7.18a4.87,4.87,0,0,0-.21-1.58,1.66,1.66,0,0,0-.67-.89,2.62,2.62,0,0,0-1.2-.38c-.49,0-1.1-.08-1.81-.08h-1.1v8.4h1.1q.91,0,1.62-.06a2.87,2.87,0,0,0,1.2-.34,1.87,1.87,0,0,0,.76-.89,4.6,4.6,0,0,0,.3-1.71V135.2Z"/><path class="cls-1" d="M125.35,127.45a.28.28,0,0,1,.27-.23h4.71a.28.28,0,0,1,.27.23l6.57,24.43c.05.28-.06.42-.34.42H132.5a.25.25,0,0,1-.27-.23l-1.48-5.32H125.2l-1.44,5.32a.28.28,0,0,1-.27.23h-4.37c-.28,0-.39-.14-.34-.42ZM129.57,142l-1.63-5.74L126.42,142Z"/><path class="cls-1" d="M152.29,127.22q3.87,0,5.81,2.13a7.81,7.81,0,0,1,1.71,5.4v10.07a7.6,7.6,0,0,1-1.92,5.47,7.4,7.4,0,0,1-5.61,2h-9.5c-.2,0-.3-.11-.3-.34v-24.4c0-.23.1-.34.3-.34Zm2.55,8.66a4.12,4.12,0,0,0-1-2.87,3.79,3.79,0,0,0-3-1h-3.42v15.58h3.42a3.93,3.93,0,0,0,2.81-1,3.71,3.71,0,0,0,1.1-2.85Z"/><path class="cls-1" d="M165.87,152v-24.4c0-.23.1-.34.3-.34h4.33a.3.3,0,0,1,.34.34V152a.3.3,0,0,1-.34.34h-4.33C166,152.3,165.87,152.18,165.87,152Z"/><path class="cls-1" d="M176.1,131.62v-4.07a.3.3,0,0,1,.34-.34h15.85a.3.3,0,0,1,.34.34v4.07a.3.3,0,0,1-.34.34h-5.4v20a.3.3,0,0,1-.34.34h-4.37a.3.3,0,0,1-.34-.34V132h-5.4C176.21,132,176.1,131.85,176.1,131.62Z"/><path class="cls-1" d="M197.94,152v-24.4c0-.23.1-.34.3-.34h4.33a.3.3,0,0,1,.34.34V152a.3.3,0,0,1-.34.34h-4.33C198.05,152.3,197.94,152.18,197.94,152Z"/><path class="cls-1" d="M217.69,126.87q4.86,0,7,2.28,1.66,1.83,1.67,5.59v10q0,3.87-1.67,5.66a6.87,6.87,0,0,1-2.81,1.71,13.32,13.32,0,0,1-4.18.57,13.46,13.46,0,0,1-4.24-.57,6.79,6.79,0,0,1-2.79-1.71,6,6,0,0,1-1.27-2.3,11.27,11.27,0,0,1-.44-3.36v-10a8.14,8.14,0,0,1,1.71-5.62,6.23,6.23,0,0,1,2.81-1.71A14.24,14.24,0,0,1,217.69,126.87ZM221.3,136a5.72,5.72,0,0,0-.3-2,3.17,3.17,0,0,0-.8-1.23,2.56,2.56,0,0,0-1.1-.61,5.09,5.09,0,0,0-1.22-.15h-.46a3,3,0,0,0-2.6,1.08A4.94,4.94,0,0,0,214,136v7.6a5.88,5.88,0,0,0,.3,2,3.1,3.1,0,0,0,.78,1.23,2.77,2.77,0,0,0,1.08.61,4.6,4.6,0,0,0,1.22.17h.46a2.93,2.93,0,0,0,2.6-1.12,5.31,5.31,0,0,0,.82-3Z"/><path class="cls-1" d="M243.14,127.22h4.37a.3.3,0,0,1,.34.34V152a.3.3,0,0,1-.34.34h-4.22a.32.32,0,0,1-.34-.19l-5.55-12.5V152a.3.3,0,0,1-.34.34h-4.33c-.2,0-.3-.11-.3-.34v-24.4c0-.23.1-.34.3-.34h4.48a.33.33,0,0,1,.27.19l5.32,12.27V127.56A.3.3,0,0,1,243.14,127.22Z"/><path class="cls-3" d="M77.05,172.87h8.43V175H79.34v3.63h5.57v2H79.34v3.1h6.14v2.1H77.05Z"/><path class="cls-3" d="M93.64,186.06a8.39,8.39,0,0,1-4.24-1.24l.79-2.07a6.56,6.56,0,0,0,3.52,1.16c1.53,0,2.23-.76,2.23-1.59s-.48-1.38-2.82-2.25c-2.53-.92-3.39-2.12-3.39-3.67,0-2,1.59-3.76,4.35-3.76a7.64,7.64,0,0,1,3.58.89l-.74,2a6.57,6.57,0,0,0-2.9-.87c-1.37,0-2,.76-2,1.66s.7,1.35,2.53,2c2.9,1.13,3.73,2.27,3.73,4C98.28,184.63,96.53,186.06,93.64,186.06Z"/><path class="cls-3" d="M101.05,172.87H112V175h-4.26v10.87h-2.31V175h-4.33Z"/><path class="cls-3" d="M115.75,186.11a1.38,1.38,0,1,1,0-2.76,1.38,1.38,0,0,1,0,2.76Z"/><path class="cls-3" d="M131.85,185.83V175.76l-2.73,1.05-.77-1.94,5.24-2h.55v13Z"/><path class="cls-3" d="M138.78,182a3.17,3.17,0,0,1,2.08-3.06,2.92,2.92,0,0,1-1.72-2.6c0-2.42,2-3.65,4.34-3.65s4.33,1.24,4.33,3.65a2.91,2.91,0,0,1-1.72,2.6,3.2,3.2,0,0,1,2.08,3.06c0,2.27-1.84,4.1-4.7,4.1S138.78,184.23,138.78,182Zm6.94,0a2.25,2.25,0,0,0-4.46,0,2.24,2.24,0,0,0,4.46,0Zm-.37-5.66a1.86,1.86,0,1,0-1.86,1.77A1.72,1.72,0,0,0,145.35,176.3Z"/><path class="cls-3" d="M155.18,175v3c.26,0,.5,0,.76,0,2.66,0,4.72,1,4.72,4,0,2.32-1.66,4.11-4.87,4.11a6.3,6.3,0,0,1-3.95-1.11l.81-1.88a4.79,4.79,0,0,0,3.06,1,2.23,2.23,0,0,0,2.49-2.16c0-1.33-1.11-2.12-2.82-2.12a10.07,10.07,0,0,0-2,.22s-.5-.46-.57-.5v-6.6h7.16V175h-4.74Z"/><path class="cls-3" d="M167.5,175v3c.26,0,.5,0,.76,0,2.66,0,4.72,1,4.72,4,0,2.32-1.66,4.11-4.87,4.11a6.3,6.3,0,0,1-4-1.11l.81-1.88a4.79,4.79,0,0,0,3.06,1,2.23,2.23,0,0,0,2.49-2.16c0-1.33-1.11-2.12-2.82-2.12a10.07,10.07,0,0,0-2,.22s-.5-.46-.57-.5v-6.6h7.16V175H167.5Z"/><rect x="185.89" y="179.1" width="61.73" height="2"/><rect x="1.59" y="179.1" width="61.73" height="2"/></g></g></svg>