<svg xmlns="http://www.w3.org/2000/svg" viewBox="0 0 472.79 144.5"><defs><style>.cls-1{fill:#28334a;}.cls-2{fill:#9f2a21;}.cls-3{fill:#070808;stroke:#070808;stroke-miterlimit:10;stroke-width:0.5px;}.cls-4{fill:#231f20;}</style></defs><title>Asset 1</title><g id="Layer_2" data-name="Layer 2"><g id="Layer_1-2" data-name="Layer 1"><path class="cls-1" d="M36,5.35a.33.33,0,0,1,0,.35L28.54,33.49a.37.37,0,0,1-.39.26H23.4a.43.43,0,0,1-.39-.26L20.07,22.56l-4,11a.32.32,0,0,1-.3.22H11.21a.31.31,0,0,1-.35-.26L3.47,5.67c-.06-.29.07-.43.39-.43h5c.14,0,.24.09.3.26l4.8,18.32L17.52,13l-2-7.26a.31.31,0,0,1,0-.35.39.39,0,0,1,.3-.13h5.36a.35.35,0,0,1,.35.26l4,17.62L30.3,5.48a.34.34,0,0,1,.35-.26h5A.39.39,0,0,1,36,5.35Z"/><path class="cls-1" d="M42.27,33.35V5.61c0-.26.11-.39.35-.39H57.31a.34.34,0,0,1,.39.39v4.62a.34.34,0,0,1-.39.39H48V16.5h7.26c.23,0,.35.13.35.39V21.6c0,.26-.12.39-.35.39H48v6.35h9.33a.34.34,0,0,1,.39.39v4.62a.34.34,0,0,1-.39.39H42.61C42.38,33.74,42.27,33.61,42.27,33.35Z"/><path class="cls-1" d="M66.47,0c.51,0,.75.31.69.93l-.93,6.56c-.15.46-.36.69-.62.69H62.83c-.41,0-.64-.23-.7-.69L61.2.85a.49.49,0,0,1,.12-.62A1,1,0,0,1,62,0Z"/><path class="cls-1" d="M88.47,5.48c.11-.17.23-.26.35-.26h4.93a.38.38,0,0,1,.32.13.33.33,0,0,1,0,.35L86.61,33.49a.4.4,0,0,1-.35.26H80.9a.28.28,0,0,1-.3-.26L73.12,5.7q-.09-.48.39-.48h5c.11,0,.23.09.35.26l4.75,17.89Z"/><path class="cls-1" d="M100,33.35V5.61c0-.26.11-.39.35-.39h14.69a.34.34,0,0,1,.39.39v4.62a.34.34,0,0,1-.39.39h-9.33V16.5H113c.23,0,.35.13.35.39V21.6c0,.26-.12.39-.35.39h-7.26v6.35h9.33a.34.34,0,0,1,.39.39v4.62a.34.34,0,0,1-.39.39H100.39C100.15,33.74,100,33.61,100,33.35Z"/><path class="cls-1" d="M147.48,23V18.36a.34.34,0,0,1,.39-.39h9.9a.34.34,0,0,1,.39.39v6.78q0,4.8-2.51,6.91t-7.35,2.12a16.08,16.08,0,0,1-4.08-.48,8.11,8.11,0,0,1-3.13-1.53,7,7,0,0,1-2-2.79,11,11,0,0,1-.71-4.23V13.77q0-4.71,2.55-6.83t7.39-2.12a16.08,16.08,0,0,1,4.08.48,8,8,0,0,1,3.11,1.53,6.89,6.89,0,0,1,2,2.77,11.16,11.16,0,0,1,.69,4.17v.91a.34.34,0,0,1-.39.39h-5a.34.34,0,0,1-.39-.39v-.56a3.08,3.08,0,0,0-1.12-2.74,4.88,4.88,0,0,0-2.77-.76H148a3.55,3.55,0,0,0-3,1.25,3.41,3.41,0,0,0-.65,1.43,9,9,0,0,0-.17,1.9v8.56a6.24,6.24,0,0,0,.35,2.31,3.62,3.62,0,0,0,.89,1.38,3,3,0,0,0,1.23.69,5,5,0,0,0,1.38.19h.52a3.47,3.47,0,0,0,2.94-1.25,5.39,5.39,0,0,0,.95-3.33v-.39h-4.54A.34.34,0,0,1,147.48,23Z"/><path class="cls-1" d="M174.41,4.83q5.53,0,8,2.59,1.9,2.07,1.9,6.35V25.14c0,2.94-.63,5.08-1.9,6.44a7.81,7.81,0,0,1-3.2,1.94,17.94,17.94,0,0,1-9.57,0,7.86,7.86,0,0,1-3.18-1.94A6.87,6.87,0,0,1,165,29a12.87,12.87,0,0,1-.5-3.82V13.78q0-4.23,1.94-6.4a7.22,7.22,0,0,1,3.2-1.94A16.27,16.27,0,0,1,174.41,4.83Zm4.11,10.37a6.45,6.45,0,0,0-.35-2.31,3.58,3.58,0,0,0-.91-1.4A2.73,2.73,0,0,0,176,10.8a5.92,5.92,0,0,0-1.38-.17h-.52a3.4,3.4,0,0,0-3,1.23,5.64,5.64,0,0,0-.89,3.35v8.64a6.39,6.39,0,0,0,.35,2.33,3.63,3.63,0,0,0,.89,1.4,3,3,0,0,0,1.23.69,5,5,0,0,0,1.38.19h.52a3.35,3.35,0,0,0,3-1.27,6,6,0,0,0,.93-3.35Z"/><path class="cls-1" d="M189.85,10.23V5.61a.34.34,0,0,1,.39-.39h18a.34.34,0,0,1,.39.39v4.62a.34.34,0,0,1-.39.39h-6.14V33.35a.34.34,0,0,1-.39.39h-5a.34.34,0,0,1-.39-.39V10.62h-6.14A.34.34,0,0,1,189.85,10.23Z"/><path class="cls-1" d="M236.26,5.48c.06-.17.16-.26.3-.26h5.36c.14,0,.24.09.3.26l7.48,27.79q.09.48-.39.48h-4.93a.28.28,0,0,1-.3-.26l-1.69-6.05h-6.31l-1.64,6.05c-.06.17-.16.26-.3.26h-5q-.48,0-.39-.48ZM241.06,22,239.2,15.5,237.47,22Z"/><path class="cls-1" d="M269.84,10.23V5.61a.34.34,0,0,1,.39-.39h18a.34.34,0,0,1,.39.39v4.62a.34.34,0,0,1-.39.39h-6.14V33.35a.34.34,0,0,1-.39.39h-5a.34.34,0,0,1-.39-.39V10.62h-6.14A.34.34,0,0,1,269.84,10.23Z"/><path class="cls-1" d="M298,5.48c.06-.17.16-.26.3-.26h5.36c.14,0,.24.09.3.26l7.48,27.79q.09.48-.39.48h-4.92a.28.28,0,0,1-.3-.26l-1.69-6.05h-6.31l-1.64,6.05c-.06.17-.16.26-.3.26h-5q-.48,0-.39-.48ZM302.78,22l-1.86-6.53L299.19,22Z"/><path class="cls-1" d="M327.18,16.24c.81.4,1.66.86,2.55,1.36a13.12,13.12,0,0,1,2.46,1.79A9.32,9.32,0,0,1,334,21.72a6.13,6.13,0,0,1,.71,3,10.94,10.94,0,0,1-.07,1.17,11.84,11.84,0,0,1-.74,3.13,8.91,8.91,0,0,1-.84,1.62c-1.58,2.36-4.11,3.54-7.56,3.54a11.94,11.94,0,0,1-2.81-.35,10.47,10.47,0,0,1-2.7-1.06A9.16,9.16,0,0,1,317.75,31a7.17,7.17,0,0,1-1.51-2.59.26.26,0,0,1,.13-.35l4-3.41a.34.34,0,0,1,.56.09l.19.41c.07.16.17.35.28.58a5.39,5.39,0,0,0,1.56,1.84,3.78,3.78,0,0,0,2.38.84,3.93,3.93,0,0,0,1.06-.15,3.4,3.4,0,0,0,1-.48,2.49,2.49,0,0,0,.78-.86,2.68,2.68,0,0,0,.3-1.32,2.19,2.19,0,0,0-.45-1.34,4.72,4.72,0,0,0-1.12-1.06,9,9,0,0,0-1.43-.78c-.5-.22-1-.41-1.4-.58-1-.4-1.95-.86-2.92-1.36a12.71,12.71,0,0,1-2.7-1.88,7.49,7.49,0,0,1-2.64-5.62,7.18,7.18,0,0,1,.84-3.54,7.74,7.74,0,0,1,2.23-2.53A9.92,9.92,0,0,1,322,5.34a12,12,0,0,1,3.5-.52q5.58,0,8.3,5.79a.35.35,0,0,1-.13.48l-3.85,2.68c-.14.09-.29,0-.43-.13a9.89,9.89,0,0,0-2.16-2.35,3.89,3.89,0,0,0-2.33-.76,5.13,5.13,0,0,0-.86.09,4.06,4.06,0,0,0-1,.3,2.54,2.54,0,0,0-.82.58,1.37,1.37,0,0,0-.35,1,1.76,1.76,0,0,0,.58,1.3,6.38,6.38,0,0,0,1.43,1,14.63,14.63,0,0,0,1.75.8C326.23,15.82,326.75,16,327.18,16.24Z"/><path class="cls-1" d="M339.43,10.23V5.61a.34.34,0,0,1,.39-.39h18a.34.34,0,0,1,.39.39v4.62a.34.34,0,0,1-.39.39H351.7V33.35a.34.34,0,0,1-.39.39h-5a.34.34,0,0,1-.39-.39V10.62h-6.14A.34.34,0,0,1,339.43,10.23Z"/><path class="cls-1" d="M364.2,33.35V5.61c0-.26.11-.39.35-.39h14.69a.34.34,0,0,1,.39.39v4.62a.34.34,0,0,1-.39.39h-9.33V16.5h7.26c.23,0,.35.13.35.39V21.6c0,.26-.12.39-.35.39h-7.26v6.35h9.33a.34.34,0,0,1,.39.39v4.62a.34.34,0,0,1-.39.39H364.55C364.31,33.74,364.2,33.61,364.2,33.35Z"/><path class="cls-1" d="M403.44,33.74c-.23,0-.35-.13-.35-.39V5.61c0-.26.11-.39.35-.39h14.69a.34.34,0,0,1,.39.39v4.62a.34.34,0,0,1-.39.39H408.8V16.5h7.26c.23,0,.35.13.35.39V21.6c0,.26-.12.39-.35.39H408.8V33.35a.34.34,0,0,1-.39.39Z"/><path class="cls-1" d="M434,4.83q5.54,0,7.95,2.59,1.9,2.07,1.9,6.35V25.14c0,2.94-.63,5.08-1.9,6.44a7.81,7.81,0,0,1-3.2,1.94,17.94,17.94,0,0,1-9.57,0A7.86,7.86,0,0,1,426,31.58,6.87,6.87,0,0,1,424.59,29a12.87,12.87,0,0,1-.5-3.82V13.78q0-4.23,2-6.4a7.16,7.16,0,0,1,3.2-1.94A16.16,16.16,0,0,1,434,4.83Zm4.11,10.37a6.45,6.45,0,0,0-.35-2.31,3.58,3.58,0,0,0-.91-1.4,2.78,2.78,0,0,0-1.25-.69,5.92,5.92,0,0,0-1.38-.17h-.52a3.4,3.4,0,0,0-3,1.23,5.64,5.64,0,0,0-.89,3.35v8.64a6.39,6.39,0,0,0,.35,2.33,3.63,3.63,0,0,0,.89,1.4,3,3,0,0,0,1.23.69,5,5,0,0,0,1.38.19h.52a3.35,3.35,0,0,0,3-1.27,6,6,0,0,0,.93-3.35Z"/><path class="cls-1" d="M466.92,22.46a5.69,5.69,0,0,1-2.68,2.77l3.63,8a.4.4,0,0,1,0,.37.32.32,0,0,1-.3.15h-5.32a.31.31,0,0,1-.3-.22l-3.37-7.35h-2.2v7.17a.34.34,0,0,1-.39.39h-5q-.3,0-.3-.39V5.61q0-.39.3-.39h9a7.72,7.72,0,0,1,5.66,2,7.77,7.77,0,0,1,2,5.79v5.45a11.65,11.65,0,0,1-.19,2.16A8,8,0,0,1,466.92,22.46ZM462,14.29a5.4,5.4,0,0,0-.24-1.79,2,2,0,0,0-.76-1,3,3,0,0,0-1.36-.43,19.78,19.78,0,0,0-2.05-.09h-1.25v9.55h1.25c.69,0,1.3,0,1.84-.06a3.1,3.1,0,0,0,1.36-.39,2.09,2.09,0,0,0,.86-1A5.56,5.56,0,0,0,462,17.1Z"/><path class="cls-2" d="M0,54.2H44.64v8.61H27.19V107.3H17.75V62.81H0Z"/><path class="cls-2" d="M57.51,54.2h17c14.12,0,21.22,7.78,21.22,18.88,0,7.33-3,13.14-9.67,16.24l13.6,18h-11L77.45,91.67c-1.51.15-3.1.23-4.76.23H66.87v15.41H57.5V54.2Zm9.37,8.61V83.58h7c8.76,0,11.78-4.68,11.78-10.5s-3-10.27-11.78-10.27Z"/><path class="cls-2" d="M120,107.29h-9.82l24.92-53.55h2.12l24.93,53.55H152.14l-4.68-10.57H124.65ZM128,89.24h16.16L136.05,71Z"/><path class="cls-2" d="M175.17,54.2h20c16.47,0,28.4,11.1,28.4,26.51,0,15.18-12.16,26.59-28.4,26.59h-20V54.2Zm9.44,8.61V98.69h10.65c10.27,0,18.28-7.48,18.28-17.83s-7.63-18-18.28-18Z"/><path class="cls-2" d="M240,54.2h9.37v53.1H240Z"/><path class="cls-2" d="M262.18,54.2h44.64v8.61H289.37V107.3h-9.44V62.81H262.18Z"/><path class="cls-2" d="M319.68,54.2h9.37v53.1h-9.37Z"/><path class="cls-2" d="M373.65,53.29c16.47,0,28.4,11.56,28.4,27.42,0,15.63-12.16,27.42-28.4,27.42s-28.32-11.71-28.32-27.42C345.33,65.37,357.72,53.29,373.65,53.29Zm.08,46.6c10.27,0,18.28-8.23,18.28-19s-7.63-19.11-18.28-19.11S355.45,70,355.45,80.86C355.45,91.51,363.46,99.89,373.73,99.89Z"/><path class="cls-2" d="M418.37,53.89h2.95l32.85,34.22V54.2h9.37v53.48h-2.49L427.74,74.37V107.3h-9.37Z"/><path class="cls-3" d="M180.11,131h8.43v2.1H182.4v3.63H188v2H182.4v3.1h6.14V144h-8.43Z"/><path class="cls-3" d="M196.69,144.2a8.39,8.39,0,0,1-4.24-1.24l.79-2.07a6.56,6.56,0,0,0,3.52,1.16c1.53,0,2.23-.76,2.23-1.59s-.48-1.38-2.82-2.25c-2.53-.92-3.39-2.12-3.39-3.67,0-2,1.59-3.76,4.35-3.76a7.64,7.64,0,0,1,3.58.89l-.74,2a6.57,6.57,0,0,0-2.9-.87c-1.37,0-2,.76-2,1.66s.7,1.35,2.53,2c2.9,1.13,3.73,2.27,3.73,4C201.34,142.78,199.59,144.2,196.69,144.2Z"/><path class="cls-3" d="M204.1,131H215v2.1h-4.26V144h-2.31V133.11H204.1Z"/><path class="cls-3" d="M218.8,144.25a1.38,1.38,0,0,1,0-2.76,1.38,1.38,0,0,1,1.38,1.38A1.36,1.36,0,0,1,218.8,144.25Z"/><path class="cls-3" d="M234.9,144V133.91L232.17,135,231.4,133l5.24-2h.55v13Z"/><path class="cls-3" d="M241.84,140.1a3.17,3.17,0,0,1,2.08-3.06,2.92,2.92,0,0,1-1.72-2.6c0-2.42,2-3.65,4.34-3.65s4.33,1.24,4.33,3.65a2.91,2.91,0,0,1-1.72,2.6,3.2,3.2,0,0,1,2.08,3.06c0,2.27-1.84,4.1-4.7,4.1S241.84,142.37,241.84,140.1Zm6.93,0a2.25,2.25,0,0,0-4.46,0,2.24,2.24,0,0,0,4.46,0Zm-.37-5.66a1.86,1.86,0,1,0-1.86,1.77A1.7,1.7,0,0,0,248.4,134.44Z"/><path class="cls-3" d="M258.23,133.11v3c.26,0,.5-.05.76-.05,2.66,0,4.72,1,4.72,4,0,2.32-1.66,4.11-4.87,4.11a6.3,6.3,0,0,1-3.95-1.11l.81-1.88a4.79,4.79,0,0,0,3.06,1,2.23,2.23,0,0,0,2.49-2.16c0-1.33-1.11-2.12-2.82-2.12a10.07,10.07,0,0,0-2.05.22s-.5-.46-.57-.5V131H263v2.1h-4.74Z"/><path class="cls-3" d="M270.55,133.11v3c.26,0,.5-.05.76-.05,2.66,0,4.72,1,4.72,4,0,2.32-1.66,4.11-4.87,4.11a6.3,6.3,0,0,1-4-1.11l.81-1.88a4.79,4.79,0,0,0,3.06,1,2.23,2.23,0,0,0,2.49-2.16c0-1.33-1.11-2.12-2.82-2.12a10.07,10.07,0,0,0-2.05.22s-.5-.46-.57-.5V131h7.16v2.1h-4.74Z"/><rect class="cls-4" x="289.24" y="137.12" width="172.08" height="2"/><rect class="cls-4" x="2.76" y="137.12" width="163.91" height="2"/><path class="cls-1" d="M2.47,64.5H3.83L10.55,69H9.19Zm4.6,0L13.87,69H12.36L5.64,64.5ZM16.14,69,9.34,64.5h1.89l5.59,3.7V69Zm-.76-4.46,1.44,1v1.21L13.5,64.5ZM20.22,109h1.59l6.72,4.46H26.94Zm5,0,6.8,4.46H30.26L23.54,109ZM29,109v-.15l7,4.61H34.11L27.31,109Zm0-43.66,7.48,5v1.21l-7.48-5Zm0,2.72,7.48,5v1.21l-7.48-5Zm0,2.72,7.48,5V77L29,72Zm0,2.72,7.48,4.91v1.28l-7.48-5Zm0,2.72,7.48,5V82.4l-7.48-5Zm0,2.72,7.48,5v1.21l-7.48-5Zm0,2.72,7.48,5v1.21l-7.48-5Zm0,2.71,7.48,5v1.21l-7.48-5Zm0,2.72,7.48,5v1.21l-7.48-5Zm0,2.72,7.48,5V96L29,91Zm0,2.72,7.48,5v1.21l-7.48-5Zm0,2.72,7.48,5v1.21l-7.48-5ZM29,98l7.48,5v1.21l-7.48-5Zm0,2.72,7.48,5v1.21l-7.48-5Zm0,2.72,7.48,4.91v1.21L29,104.61Zm0,2.72L36.46,111v1.21L29,107.33ZM31.85,64.5,38.57,69H36.76L30,64.5Zm4.08,0L42.73,69H40.84L34.11,64.5Zm4.15,0L46.88,69H45L38.27,64.5Zm4.15,0L51,69H49.14l-6.8-4.46Zm9.67-3-7.48-4.91V55.44l7.48,5Zm-7.48-3.7,7.48,5V64l-7.48-4.91Zm0,2.72,7.48,5v1.21l-7.48-4.91ZM53.22,69l-6.8-4.46V63.22l7.48,5V69Z"/><path class="cls-1" d="M62.53,109l6.8,4.46H67.44L60.72,109Zm4.16,0,6.72,4.46H71.6L64.8,109ZM69.33,64.5,76.05,69v1.21l-7.48-4.91V64.5Zm-.75,2.27,7.48,4.91v1.21L68.58,68Zm0,2.72,7.48,4.91v1.21L68.58,70.7Zm0,2.71,7.48,4.91v1.21l-7.48-4.91Zm0,2.72,7.48,4.91V81l-7.48-4.91Zm5.66,7.63-5.67-3.7V77.64L76,82.47A12.45,12.45,0,0,1,74.24,82.55Zm-2.26,0H70.09l-1.51-1V80.36ZM68.58,94l7.48,4.91v1.21l-7.48-4.91Zm0,2.72,7.48,4.91v1.21l-7.48-4.91Zm0,2.72,7.48,4.91v1.21l-7.48-4.91Zm0,2.71L76.06,107v1.21l-7.48-4.91Zm0,2.72,7.48,4.91V111L68.58,106Zm7.17,8.61-7.18-4.76v-1.13l7.48,4.91v1ZM72.2,93.58,78.92,98H77.11l-6.8-4.46ZM73.41,64.5,80.21,69H78.32L71.6,64.5Zm2.79,29L78,94.71l1.66,2.34-5.21-3.47A12.6,12.6,0,0,0,76.2,93.5ZM82.47,69l-6.65-4.38a21.62,21.62,0,0,1,2.42.38l5,3.32.45.68ZM96.75,94.71l-7.63-5,1-.6,7.63,5A4.35,4.35,0,0,1,96.75,94.71Zm-1.66.91,1,1.36-4.91-3.25-1.81-2.42,6.19,4.08Zm-4,13.37h1.13l6.8,4.46H97.8Zm7.71-15.64-7.63-5.06.75-.68,7.7,5.06ZM93.5,85.88l7.7,5.06-.68.83-7.7-5.06Zm-.07,10.87L98.34,100l1.81,2.34-4.83-3.17ZM95.54,109l6.8,4.46h-1.59L94,109ZM102,90l-7.7-5.06.53-.83,7.7,5.06Zm-.53-21.82L95.54,64.2a19.4,19.4,0,0,0-.91-1.74l2.87,1.89A15.57,15.57,0,0,1,101.43,68.13ZM103.09,88l-7.7-5.06.45-.91,7.7,5.06Zm.46-16-6.8-4.53L96.3,66l6.57,4.31Zm.37,13.9-7.63-5.06c.08-.38.23-.68.3-1l7.63,5A4.69,4.69,0,0,1,103.92,85.88Zm.61-2.35L96.9,78.47l.23-1.06,7.55,5A6.13,6.13,0,0,1,104.53,83.53Zm0-8.15-7.25-4.83-.23-1.28L104.23,74Zm.3,5.66-7.55-5a6.16,6.16,0,0,0,.08-1.21l7.55,5A6.16,6.16,0,0,1,104.83,81Zm.08-2.72-7.48-4.91c0-.45-.08-.83-.08-1.28l7.4,4.91Zm-7.33,23.87,4.91,3.25,1.81,2.34-4.91-3.17Zm2.11,6.8,6.72,4.46H104.6L97.8,109Zm2-1.44,5,3.25,1.81,2.49L102,109h.76Z"/><path class="cls-1" d="M116.75,109l6.8,4.46h-1.89L114.94,109Zm4,0v-.08l6.87,4.53h-1.81L119,109h1.74Zm.91-2.19,7.78,5.06-.45,1-7.7-5.14Zm1-2.12,7.7,5.06-.38,1-7.78-5.06Zm.9-2.11,7.7,5.06-.38,1-7.78-5.06Zm.91-2.12,7.7,5.14-.38.91L124,101.44Zm.91-2h.15l7.63,5.06-.45.91L125,99.32Zm4.23,0,6.8,4.46H134.5l-6.72-4.46ZM130,87.84l.68.38h-.83Zm.53-1.21.45-.91,3.85,2.49H132.9Zm1.36-3,7,4.61H137l-5.51-3.63Zm1.89,14.8,6.72,4.46h-1.81l-6.8-4.46Zm-.9-16.92,7.7,5.06-.45,1-7.7-5.06ZM140.46,85l-7.18-4.68.45-1,6,4C139.94,83.91,140.16,84.52,140.46,85Zm-1.73-3.85-4.46-3,.38-1L138,79.45ZM137,77.42l-1.81-1.28.38-.91.76.45Zm.83,21,6.8,4.46h-1.89L136,98.41ZM146,60.35l.76,1.66-6.57-4.38L139.41,56Zm.9,42.52-6.8-4.46H142l6.19,4.08.15.38Zm-5.74-43.05,6.57,4.38.83,1.74L142,61.63ZM143,63.74l6.57,4.38.83,1.74-6.57-4.31Zm3,34.67.38.3.76,1.66-2.95-2Zm-1.21-30.74,6.57,4.38.83,1.74-6.57-4.31Zm1.89,4L153.3,76l.75,1.74-6.5-4.31Zm1.82,3.92,6.57,4.31.83,1.74-6.57-4.31Zm1.88,3.93,6.5,4.31.76,1.74-6.42-4.31Zm1.82,3.93,6.5,4.31.76,1.74-6.42-4.31Zm1.81,3.93,6.42,4.23.83,1.81-6.42-4.23Zm1.81,3.85,6.42,4.23.83,1.81-6.42-4.23ZM158,109l6.8,4.46H162.9L156.18,109Zm-.31-13.75,6.5,4.23.76,1.74L158.52,97Zm1.82,3.85,6.5,4.31.83,1.74-6.57-4.31Zm2.57,9.9,6.8,4.46h-1.81l-6.8-4.46Zm-.76-6,6.5,4.31.83,1.66-6.5-4.23Zm2.81,3.93,6.5,4.23.83,1.74-6.5-4.23Z"/><path class="cls-1" d="M179.93,109l6.72,4.46h-1.81L178,109Zm4.08,0,6.8,4.46h-1.89L182.2,109Zm2.65-44.49,7.1,4.68v1.21l-7.48-4.91v-1ZM186.28,67l7.48,4.91v1.21l-7.48-4.91Zm0,2.72,7.48,4.91v1.21l-7.48-4.91Zm0,2.72,7.48,4.91v1.21l-7.48-4.91Zm0,2.72,7.48,4.91v1.21l-7.48-4.91Zm0,2.72,7.48,4.91V84l-7.48-4.91Zm0,2.72,7.48,4.91v1.21l-7.48-4.91Zm0,2.72,7.48,4.91v1.21l-7.48-4.91Zm0,2.72,7.48,4.91v1.21l-7.48-4.91Zm0,2.72,7.48,4.91v1.21L186.28,90Zm0,2.71,7.48,4.91v1.21l-7.48-4.91Zm0,3.93V94.18l5.29,3.47h-1.81Zm0,1.51,1.21.76h-1.21ZM188.17,109l6.8,4.46h-1.89l-6.8-4.46Zm2.64-44.49L197.53,69h-1.81l-6.8-4.46ZM192.32,109l6.72,4.46h-1.81l-6.8-4.46Zm2.57-44.49,6.8,4.46H199.8l-6.72-4.46Zm.6,44.49c.3,0,.6-.08.91-.08l6.8,4.53h-1.89L194.59,109h.9ZM204,69l-6.65-4.38c.83.08,1.59.23,2.42.38L205.84,69a6.52,6.52,0,0,0-1.21-.08Zm1.44,44.41-6.87-4.53a12.21,12.21,0,0,0,1.59-.15l7,4.61A13.9,13.9,0,0,1,205.39,113.37Zm3.7-.3-7.18-4.68,1.36-.3,7.25,4.76Zm3.17-.53-7.33-4.91a8,8,0,0,0,1.21-.38l7.48,4.91A9.87,9.87,0,0,0,212.26,112.54Zm2.87-.91-7.48-4.91,1.06-.45,7.55,4.91Zm2.49-1.06-7.55-4.91,1.06-.53,7.55,4.91A4.38,4.38,0,0,1,217.62,110.57Zm2.35-1.2-7.63-5a7.48,7.48,0,0,0,.91-.6l7.63,5.06Zm2-1.36-7.7-5,.83-.68,7.7,5.14Zm1.89-1.44-7.7-5.06.76-.68,7.7,5.06Zm1.66-1.59-7.7-5.14.68-.68,7.7,5.06Zm1.59-1.73-7.78-5.06.6-.83,7.78,5.14Zm-.3-32.78-5.36-3.55c-.38-.68-.91-1.44-1.36-2.11l.3.23,2.12,1.44A21.44,21.44,0,0,1,226.84,70.47Zm1.58,31-7.7-5.14.53-.83L229,100.6Zm-6.11-7.93,7.78,5.14-.45.83-7.78-5.06ZM230,75.3l-6.65-4.38a11.76,11.76,0,0,0-.68-1.66l6.19,4.08Zm.61,22.13-7.7-5.06.38-1,7.7,5.14A4.94,4.94,0,0,1,230.62,97.43Zm.83-2.19-7.7-5.06c.08-.38.23-.68.3-1l7.7,5.06Zm0-16.31-6.95-4.61-.45-1.44,6.87,4.53A10.85,10.85,0,0,1,231.45,78.93Zm-6.8,7.93,7.63,5L232.05,93l-7.63-5.06Zm7.63-4.61L225,77.42l-.23-1.36L232,80.82A8.39,8.39,0,0,1,232.28,82.25Zm.22,8.23-7.63-5a5.57,5.57,0,0,0,.15-1.13l7.63,5Zm.15-5.36-7.4-4.83a6.88,6.88,0,0,0-.08-1.28l7.33,4.83Zm0,2.79-7.48-5V81.79l7.55,4.91v.38C232.73,87.39,232.65,87.61,232.65,87.91Z"/><path class="cls-1" d="M242.31,109h1.28l6.8,4.46H249Zm4.6,0,6.72,4.46H252.2L245.4,109Zm3.86,0,6.8,4.46h-1.89L249,109Zm7.7-47.51L251,56.57V55.44l7.48,5ZM251,57.7l7.48,4.91v1L251,58.68Zm0,2.49,7.48,4.91v1.21L251,61.4Zm0,2.72,7.48,4.91V69L251,64.12Zm0,2.72,7.48,4.91v1.21L251,66.84Zm0,2.72,7.48,4.91v1.21L251,69.56Zm0,2.72L258.47,76v1.21L251,72.28Zm0,2.72,7.48,4.91v1.21L251,75Zm0,2.72,7.48,4.91v1.21L251,77.72Zm0,2.72,7.48,4.91v1.21L251,80.44ZM251,82l7.48,4.91v1.21L251,83.16Zm0,2.72,7.48,4.91v1.21L251,85.88Zm0,2.72,7.48,4.91v1.21L251,88.6Zm0,2.71L258.47,95v1.21L251,91.31Zm0,2.72,7.48,4.91v1.21L251,94Zm0,2.72,7.48,4.91v1.21L251,96.75Zm0,2.72,7.48,4.91v1.21L251,99.47Zm0,2.72,7.48,4.91v1.21L251,102.19Zm0,2.72,7.48,4.91v1.21L251,104.91Zm0,2.72,7.48,4.91v1.21L251,107.63Z"/><path class="cls-1" d="M264.37,64.5h1.36L272.45,69h-1.36Zm4.61,0,6.8,4.46h-1.51l-6.72-4.46ZM278,69l-6.8-4.46h1.89l5.59,3.7V69Zm-.75-4.46,1.43,1v1.21L275.4,64.5ZM282.12,109h1.59l6.72,4.46h-1.59Zm5,0,6.8,4.46h-1.74L285.45,109Zm3.78,0v-.15l6.95,4.61H296l-6.8-4.46Zm0-43.66,7.48,5v1.21l-7.48-5Zm0,2.72,7.48,5v1.21l-7.48-5Zm0,2.72,7.48,5V77l-7.48-5Zm0,2.72,7.48,4.91v1.28l-7.48-5Zm0,2.72,7.48,5V82.4l-7.48-5Zm0,2.72,7.48,5v1.21l-7.48-5Zm0,2.72,7.48,5v1.21l-7.48-5Zm0,2.71,7.48,5v1.21l-7.48-5Zm0,2.72,7.48,5v1.21l-7.48-5Zm0,2.72,7.48,5V96l-7.48-5Zm0,2.72,7.48,5v1.21l-7.48-5Zm0,2.72,7.48,5v1.21l-7.48-5Zm0,2.72,7.48,5v1.21l-7.48-5Zm0,2.72,7.48,5v1.21l-7.48-5Zm0,2.72,7.48,4.91v1.21l-7.48-4.91Zm0,2.72,7.48,4.91v1.21l-7.48-4.91Zm2.87-41.62L300.48,69h-1.81l-6.8-4.46Zm4.07,0,6.8,4.46h-1.89L296,64.5Zm4.16,0,6.8,4.46H306.9l-6.72-4.46Zm4.15,0L312.86,69h-1.81l-6.8-4.46Zm9.67-3-7.48-4.91V55.44l7.48,5Zm-7.48-3.7,7.48,5V64l-7.48-4.91Zm0,2.72,7.48,5v1.21l-7.48-4.91Zm6.8,8.46-6.8-4.46V63.22l7.48,5V69Z"/><path class="cls-1" d="M322,109h1.28l6.8,4.46h-1.36Zm4.61,0,6.72,4.46H331.9L325.1,109Zm3.85,0,6.8,4.46h-1.89L328.66,109Zm7.71-47.51-7.48-4.91V55.44l7.48,5ZM330.7,57.7l7.48,4.91v1l-7.48-4.91Zm0,2.49,7.48,4.91v1.21L330.7,61.4Zm0,2.72,7.48,4.91V69l-7.48-4.91Zm0,2.72,7.48,4.91v1.21l-7.48-4.91Zm0,2.72,7.48,4.91v1.21l-7.48-4.91Zm0,2.72L338.18,76v1.21l-7.48-4.91Zm0,2.72,7.48,4.91v1.21L330.7,75Zm0,2.72,7.48,4.91v1.21l-7.48-4.91Zm0,2.72,7.48,4.91v1.21l-7.48-4.91Zm0,2.72,7.48,4.91v1.21l-7.48-4.91Zm0,2.72,7.48,4.91v1.21l-7.48-4.91Zm0,2.72,7.48,4.91v1.21L330.7,88.6Zm0,2.71L338.18,95v1.21l-7.48-4.91Zm0,2.72,7.48,4.91v1.21L330.7,94Zm0,2.72,7.48,4.91v1.21l-7.48-4.91Zm0,2.72,7.48,4.91v1.21l-7.48-4.91Zm0,2.72,7.48,4.91v1.21l-7.48-4.91Zm0,2.72,7.48,4.91v1.21l-7.48-4.91Zm0,2.72,7.48,4.91v1.21l-7.48-4.91Z"/><path class="cls-1" d="M365.49,86l-7.48-5V79.84l7.55,5A7.5,7.5,0,0,1,365.49,86Zm-7.41-3.4,7.4,4.83v1.28l-7.33-4.83A7.85,7.85,0,0,1,358.08,82.63Zm7.71.9-7.63-5.06.23-1.13L366,82.4Zm-7.25,2.12,7.1,4.68.23,1.36-6.95-4.61A8.41,8.41,0,0,1,358.54,85.65Zm7.78-4.53-7.63-5.06.23-1,7.78,5.06Zm.83-2.19-7.78-5.06.45-1,7.7,5.14Zm-7.48,10.19,6.72,4.46a12.35,12.35,0,0,0,.53,1.59l-6.19-4.08A16.12,16.12,0,0,1,359.67,89.12ZM361,70.92l7.78,5.14-.6.83-7.7-5.06A5.58,5.58,0,0,1,361,70.92Zm1.36-1.81,7.7,5.06a5.4,5.4,0,0,0-.6.83l-7.78-5.14Zm1.59-1.66,7.71,5.14-.68.68-7.78-5.14Zm4.15,29.91v.08a15.14,15.14,0,0,1-4.68-3.17Zm4.61-25.68L365,66.62a5.49,5.49,0,0,1,.91-.6l7.7,5.06A5.28,5.28,0,0,0,372.66,71.68Zm2-1.36-7.63-5a7.18,7.18,0,0,1,1.13-.53l7.55,5Zm-3.17,41.39-4.23-2.79c.91.23,1.74.38,2.57.53l5.66,3.7A26.86,26.86,0,0,1,371.53,111.71Zm5.59-42.53-7.48-4.91c.38-.15.83-.23,1.28-.38l7.33,4.83Zm1.81,44.72-6.27-4.15c.6,0,1.28.08,2,.08l6.57,4.31Zm1-45.55-7.17-4.76a10.78,10.78,0,0,1,1.66-.15l7,4.68A11.25,11.25,0,0,0,379.91,68.35Zm3.55-.45-6.65-4.38c.83.08,1.66.3,2.49.45l6,4a6.88,6.88,0,0,0-1.28-.08h-.53Zm.23,46.37-6.87-4.53,1.66-.15,6.95,4.61a10.07,10.07,0,0,1-1.51.08h-.23Zm3.78-.22-7.18-4.68a8.72,8.72,0,0,0,1.44-.3l7.25,4.76A11.45,11.45,0,0,1,387.47,114.05Zm3.32-.53-7.4-4.83c.45-.15.91-.23,1.28-.38l7.4,4.91A9.29,9.29,0,0,0,390.79,113.52Zm2.87-.83-7.48-4.91,1.13-.45,7.55,4.91Zm2.57-1-7.55-5,1.06-.45,7.55,4.91A5.8,5.8,0,0,1,396.23,111.71Zm2.34-1.21-7.63-5a4.35,4.35,0,0,0,1-.6l7.63,5A4.72,4.72,0,0,1,398.57,110.5Zm2.11-1.29-7.63-5.06.83-.68,7.7,5.06Zm1.89-1.51-7.7-5,.83-.76,7.7,5.14A3,3,0,0,1,402.57,107.7Zm-5.29-7.4,7.78,5.14a7.78,7.78,0,0,1-.76.76l-7.7-5.14Zm8.62,4.16-7.78-5.06.68-.83,7.7,5.14Zm-.38-35.35-5.14-3.4-1.28-1.89,1.36.83A26.43,26.43,0,0,1,405.52,69.11Zm-5.44,27.64,7.78,5.14a7.12,7.12,0,0,0-.6.83l-7.78-5.14A7.12,7.12,0,0,1,400.08,96.75Zm8.46,4-7.78-5.14.45-.83L409,99.84Zm.23-27-6.42-4.23-.83-1.74,6,4Zm-6.58,19,7.7,5.06a5.34,5.34,0,0,1-.38.91l-7.7-5.06Zm.83-2.19,7.71,5.06-.3,1-7.7-5.06C402.8,91.16,403,90.86,403,90.56Zm7.48-12.92L403.55,73l-.45-1.51L409.9,76A11.6,11.6,0,0,1,410.5,77.64Zm.61,16.69-7.63-5.06.23-1,7.7,5.06Zm.3-13.36-7.18-4.76-.3-1.36,7.17,4.68Zm.23,11L404,86.93l.23-1.06,7.63,5ZM412,89.5l-7.63-5.06a5.42,5.42,0,0,0,.08-1.13l7.55,5V89.5ZM411.94,84l-7.4-4.83c0-.45-.08-.91-.08-1.28l7.25,4.76Zm.15,2.79-7.55-4.91c0-.3.08-.53.08-.83v-.38l7.4,4.91A7.5,7.5,0,0,1,412.09,86.78Z"/><path class="cls-1" d="M423.09,109l6.8,4.46H428L421.28,109Zm4.15,0,6.72,4.46h-1.81l-6.8-4.46Zm2.27-31,3.1,3.1-3.1-2Zm0,2.57,7.48,5v1.21l-7.48-5Zm0,2.72,7.48,5V89.5l-7.48-5Zm0,2.72L437,91v1.21l-7.48-5Zm0,2.72,7.48,5V95l-7.48-5Zm0,2.71,7.48,5v1.21l-7.48-5Zm0,2.72,7.48,5v1.21l-7.48-5Zm0,2.72,7.48,5v1.21l-7.48-5Zm0,2.72,7.48,5v1.21l-7.48-5Zm0,2.72,7.48,5v1.13l-7.48-4.91Zm0,2.72L437,110v1.21l-7.48-4.91Zm6.72,8.38L429.51,109v-1.21l7.48,4.91v.76Zm27.27-4.07h1.36l6.8,4.46h-1.44Zm9.29-47.74-7.48-4.91V55.51l5.14,3.32,2.34,1.59v1.21ZM465.31,58l7.48,4.91v1.21l-7.48-4.91Zm0,2.72,7.48,4.91v1.21l-7.48-4.91Zm0,2.72,7.48,4.91v1.21l-7.48-4.91Zm0,2.72,7.48,4.91v1.21l-7.48-4.91Zm0,2.72,7.48,4.91V75l-7.48-4.91Zm0,2.72,7.48,4.91v1.21l-7.48-4.91Zm0,2.72,7.48,4.91v1.21l-7.48-4.91Zm0,2.72L472.79,82v1.21l-7.48-4.91Zm0,2.72,7.48,4.91v1.21L465.31,81Zm0,2.72,7.48,4.91V88.6l-7.48-4.91Zm0,2.72,7.48,4.91v1.21l-7.48-4.91Zm0,2.71,7.48,4.91V94l-7.48-4.91Zm0,2.72,7.48,4.91v1.21l-7.48-4.91Zm0,2.72,7.48,4.91v1.21l-7.48-4.91Zm0,2.72,7.48,4.91v1.21l-7.48-4.91Zm0,2.72,7.48,4.91v1.21L465.31,100Zm0,2.72,7.48,4.91v1.21l-7.48-4.91Zm0,2.72,7.48,4.91v1.13l-7.48-4.83Zm0,2.72,7.48,4.91V113l-7.48-4.91Z"/></g></g></svg>