<svg xmlns="http://www.w3.org/2000/svg" viewBox="0 0 257.86 182.43"><defs><style>.cls-1{fill:#070808;stroke:#070808;stroke-miterlimit:10;stroke-width:0.5px;}.cls-2{fill:#231f20;}.cls-3{fill:#28334a;}.cls-4{fill:#9f2a21;}</style></defs><title>Asset 5</title><g id="Layer_2" data-name="Layer 2"><g id="Layer_1-2" data-name="Layer 1"><path class="cls-1" d="M92.09,173.25h5.68v1.42H93.63v2.45h3.76v1.37H93.63v2.09h4.14V182H92.09Z"/><path class="cls-1" d="M103.27,182.14a5.73,5.73,0,0,1-2.86-.83l.53-1.39a4.38,4.38,0,0,0,2.38.78c1,0,1.5-.51,1.5-1.07s-.32-.93-1.9-1.52-2.29-1.43-2.29-2.47a2.66,2.66,0,0,1,2.93-2.54,5.06,5.06,0,0,1,2.41.6l-.5,1.37a4.32,4.32,0,0,0-2-.58c-.92,0-1.34.51-1.34,1.12s.47.91,1.7,1.36c2,.76,2.51,1.53,2.51,2.67C106.41,181.18,105.23,182.14,103.27,182.14Z"/><path class="cls-1" d="M108.28,173.25h7.35v1.42h-2.87V182h-1.55v-7.33h-2.92v-1.42Z"/><path class="cls-1" d="M118.19,182.18a.93.93,0,1,1,0-1.86.93.93,0,0,1,.93.93A.91.91,0,0,1,118.19,182.18Z"/><path class="cls-1" d="M129.06,182V175.2l-1.84.71-.52-1.31,3.53-1.36h.37V182h-1.54Z"/><path class="cls-1" d="M133.74,179.38a2.12,2.12,0,0,1,1.41-2.06,2,2,0,0,1-1.16-1.75c0-1.63,1.32-2.46,2.92-2.46s2.92.83,2.92,2.46a2,2,0,0,1-1.16,1.75,2.16,2.16,0,0,1,1.41,2.06,3.2,3.2,0,0,1-6.34,0Zm4.67,0a1.51,1.51,0,0,0-3,0,1.51,1.51,0,0,0,3,0Zm-.25-3.82a1.26,1.26,0,0,0-2.52,0,1.26,1.26,0,0,0,2.52,0Z"/><path class="cls-1" d="M144.8,174.67v2.05c.17,0,.34,0,.51,0,1.79,0,3.18.67,3.18,2.69,0,1.57-1.12,2.77-3.28,2.77a4.24,4.24,0,0,1-2.66-.75l.55-1.27a3.21,3.21,0,0,0,2.06.65,1.51,1.51,0,0,0,1.68-1.46c0-.9-.75-1.43-1.9-1.43a6.66,6.66,0,0,0-1.38.15,5.08,5.08,0,0,0-.39-.33v-4.45H148v1.42Z"/><path class="cls-1" d="M153.11,174.67v2.05c.17,0,.34,0,.51,0,1.79,0,3.18.67,3.18,2.69,0,1.57-1.12,2.77-3.28,2.77a4.24,4.24,0,0,1-2.66-.75l.55-1.27a3.21,3.21,0,0,0,2.06.65,1.51,1.51,0,0,0,1.68-1.46c0-.9-.75-1.43-1.9-1.43a6.66,6.66,0,0,0-1.38.15,5.08,5.08,0,0,0-.39-.33v-4.45h4.83v1.42Z"/><rect class="cls-2" x="164.01" y="177.26" width="83.19" height="2"/><rect class="cls-2" x="1.16" y="177.26" width="82.6" height="2"/><path class="cls-3" d="M2.37,64H3.73l6.72,4.46H9.09ZM7,64l6.8,4.46H12.26L5.54,64ZM16,68.43,9.24,64h1.89l5.59,3.7v.75H16ZM15.28,64l1.44,1v1.21L13.4,64Zm4.84,44.48h1.59l6.72,4.46H26.84Zm5,0,6.8,4.46H30.16l-6.72-4.46Zm3.78,0v-.15l7,4.61H34l-6.8-4.46Zm0-43.65,7.48,5V71l-7.48-5Zm0,2.72,7.48,5v1.21l-7.48-5Zm0,2.71,7.48,5v1.21l-7.48-5Zm0,2.72,7.48,4.91v1.29l-7.48-5Zm0,2.72,7.48,5v1.21l-7.48-5Zm0,2.72,7.48,5v1.21l-7.48-5Zm0,2.72,7.48,5v1.21l-7.48-5Zm0,2.72,7.48,5V90l-7.48-5Zm0,2.72,7.48,5v1.21l-7.48-5Zm0,2.72,7.48,5v1.21l-7.48-5Zm0,2.72,7.48,5v1.21l-7.48-5Zm0,2.72,7.48,5v1.21l-7.48-5Zm0,2.72,7.48,5v1.21l-7.48-5Zm0,2.72,7.48,5v1.21l-7.48-5Zm0,2.72,7.48,4.91V109l-7.48-4.91Zm0,2.71,7.48,4.91v1.21l-7.48-4.91ZM31.75,64l6.72,4.46H36.66L29.86,64Zm4.08,0,6.8,4.46H40.74L34,64ZM40,64l6.8,4.46H44.89L38.17,64Zm4.16,0,6.72,4.46H49.05L42.25,64Zm9.66-3-7.48-4.91V54.92l7.48,5Zm-7.47-3.71,7.48,5v1.21l-7.48-4.91Zm0,2.72,7.48,5v1.21l-7.48-4.91Zm6.79,8.46L46.32,64V62.69l7.48,5v.75Z"/><path class="cls-3" d="M55,108.46l6.8,4.46H59.92l-6.72-4.46Zm4,0v-.07l6.87,4.53H64.08l-6.8-4.46Zm.9-2.19,7.78,5.06-.45,1-7.7-5.14Zm1-2.11,7.7,5.06-.38,1-7.78-5.06Zm.91-2.12,7.7,5.06-.38,1L61.35,103Zm.91-2.11,7.7,5.14L70,106l-7.78-5.06Zm.9-2h.15L71.4,103l-.45.91-7.7-5.06Zm4.23,0,6.8,4.46H72.76L66,97.89Zm.38-10.57.68.38h-.83Zm.53-1.21.45-.91,3.85,2.49H71.17Zm1.36-3,7,4.61H75.25l-5.51-3.63ZM72,97.89l6.72,4.46H76.92l-6.8-4.46ZM71.1,81,78.8,86l-.45,1L70.65,82Zm7.63,3.55-7.18-4.68.45-1,6,4A17.47,17.47,0,0,0,78.73,84.52ZM77,80.67l-4.46-3,.38-1,3.32,2.19Zm-1.73-3.78-1.81-1.28.38-.91.76.45Zm.83,21,6.8,4.46H81l-6.72-4.46Zm8.15-38.07L85,61.48,78.43,57.1l-.76-1.59Zm.91,42.53-6.8-4.46h1.89L86.43,102l.15.38ZM79.41,59.29,86,63.67l.83,1.74-6.57-4.3Zm1.89,3.93,6.57,4.38.83,1.74L82.13,65Zm3,34.67.38.3.76,1.66-2.95-2ZM83.11,67.15l6.57,4.38.83,1.74L83.94,69Zm1.89,4,6.57,4.31.75,1.74-6.5-4.3Zm1.81,3.93,6.57,4.31.83,1.74-6.57-4.3ZM88.7,79l6.5,4.31L96,85.06l-6.42-4.3Zm1.81,3.92L97,87.24,97.77,89l-6.42-4.3Zm1.82,3.93,6.42,4.23.83,1.81-6.42-4.23Zm1.81,3.85,6.42,4.23.83,1.81L95,92.52Zm2.11,17.75,6.8,4.46h-1.89l-6.72-4.46ZM96,94.72l6.5,4.23.76,1.74-6.42-4.23Zm1.81,3.85,6.5,4.31.83,1.74-6.57-4.3Zm2.57,9.89,6.8,4.46h-1.81l-6.8-4.46Zm-.75-6,6.5,4.31.83,1.66-6.5-4.23Zm1.81,3.92,6.5,4.23.83,1.74-6.5-4.23Z"/><path class="cls-3" d="M120,108.39l4.53,3a35.29,35.29,0,0,1-5.06-2.57l-1.59-1.06Zm9.89-35.73-7.63-5,.23-1.13,7.7,5.06A7,7,0,0,0,129.84,72.66Zm-3.24.61-3.1-2a5.28,5.28,0,0,1-1.21-2l7.4,4.91v.45C128.48,74.1,127.5,73.64,126.6,73.27Zm4.15-2.72L123,65.41l.68-.75,7.7,5.06A5.59,5.59,0,0,0,130.75,70.55Zm-5.29,38.75,6.27,4.08c-.91-.15-1.81-.3-2.72-.53L123.19,109C124,109.14,124.71,109.22,125.46,109.3Zm6.88-40.41-7.63-5.06,1.06-.45,7.55,4.91Zm2.41-1.14L127.5,63a8.78,8.78,0,0,1,1.51-.15h.15l7,4.61A9.78,9.78,0,0,0,134.75,67.75Zm-5.21,41.55,6.87,4.53c-.6,0-1.28-.08-1.89-.08l-6.72-4.38C128.41,109.37,129,109.3,129.54,109.3Zm3.55-.38,7.1,4.68-1.59.15-7-4.68Zm5.14-41.62L132,63.22a31.32,31.32,0,0,1,3.32.91l5.06,3.32C139.59,67.38,138.91,67.3,138.23,67.3ZM136,108.16l7.4,4.83a7.63,7.63,0,0,1-1.44.3l-7.25-4.76Zm2.64-1,7.55,4.91-1.21.45-7.48-4.91ZM141,106l7.63,5-1,.53-7.63-5C140.34,106.35,140.64,106.12,141,106Zm2.64-37.84-2-1.28.38-1,5.74,3.85A29,29,0,0,0,143.59,68.13Zm-.75,36.41,7.7,5-.83.68-7.63-5Zm7.25-34.82-7.63-5.06.3-1,7.7,5.06A7.82,7.82,0,0,1,150.09,69.72Zm-6.5-8.24,7.7,5.06a5.65,5.65,0,0,1-.38,1l-7.7-5.06Zm.91,41.4,7.7,5-.68.76-7.7-5Zm7.25-37.54-7.7-5.06.3-1,7.78,5.14A5.61,5.61,0,0,1,151.75,65.34Zm.75-2-7.78-5.14.3-.75,7.78,5.06A2.55,2.55,0,0,1,152.5,63.37ZM145.78,101l7.7,5.06L153,107l-7.78-5.14A8.52,8.52,0,0,0,145.78,101Zm6-11.18-5.14-3.4c-.15-.23-.23-.53-.38-.83l2,1.28A24.25,24.25,0,0,1,151.75,89.81Zm-5,9.06,7.7,5.14-.38.91-7.78-5.06Zm8.09,3.85-7.7-5.06a4.11,4.11,0,0,0,.3-1.06l7.55,5.06Zm-.23-8.31-7-4.61-.3-1.43,6.57,4.38C154.17,93.28,154.39,93.89,154.62,94.41Zm-6.87-.3,7.55,5a5.33,5.33,0,0,1-.08,1.13l-7.55-5C147.67,94.87,147.75,94.49,147.75,94.11Zm7.47,3.48-7.4-4.91a6.88,6.88,0,0,0-.08-1.28l7.33,4.83A7.76,7.76,0,0,1,155.22,97.59Z"/><path class="cls-3" d="M159.11,64h1.36l6.72,4.46h-1.36Zm4.61,0,6.8,4.46H169L162.29,64Zm9.07,4.45L166,64h1.89l5.59,3.7v.75h-.68ZM172,64l1.44,1v1.21L170.15,64Zm4.83,44.48h1.59l6.72,4.46h-1.59Zm5,0,6.8,4.46h-1.74l-6.72-4.46Zm3.78,0v-.15l7,4.61h-1.81l-6.8-4.46Zm0-43.65,7.48,5V71l-7.48-5Zm0,2.72,7.48,5v1.21l-7.48-5Zm0,2.71,7.48,5v1.21l-7.48-5Zm0,2.72,7.48,4.91v1.29l-7.48-5Zm0,2.72,7.48,5v1.21l-7.48-5Zm0,2.72,7.48,5v1.21l-7.48-5Zm0,2.72,7.48,5v1.21l-7.48-5Zm0,2.72,7.48,5V90l-7.48-5Zm0,2.72,7.48,5v1.21l-7.48-5Zm0,2.72,7.48,5v1.21l-7.48-5Zm0,2.72,7.48,5v1.21l-7.48-5Zm0,2.72,7.48,5v1.21l-7.48-5Zm0,2.72,7.48,5v1.21l-7.48-5Zm0,2.72,7.48,5v1.21l-7.48-5Zm0,2.72,7.48,4.91V109l-7.48-4.91Zm0,2.71,7.48,4.91v1.21l-7.48-4.91ZM188.5,64l6.72,4.46h-1.81L186.61,64Zm4.07,0,6.8,4.46h-1.89L190.76,64Zm4.16,0,6.8,4.46h-1.89L194.92,64Zm4.15,0,6.72,4.46h-1.81L199,64Zm9.67-3-7.48-4.91V54.92l7.48,5Zm-7.48-3.71,7.48,5v1.21l-7.48-4.91Zm0,2.72,7.48,5v1.21l-7.48-4.91Zm6.8,8.46L203.07,64V62.69l7.48,5v.75Z"/><path class="cls-3" d="M216.54,108.46h.08l6.72,4.46h-.08Zm4.15,0,6.8,4.46H225.6l-6.8-4.46Zm4.16,0,6.72,4.46h-1.81l-6.8-4.46Zm.37-43.2,7.48,4.91v1.21l-7.48-4.91Zm0,2.72,7.48,4.91V74.1l-7.48-4.91Zm6.42,8.16-6.42-4.23V70.7l7.48,4.91v.53Zm-6.42-2.72,4.15,2.72h-1.81l-2.34-1.51Zm0,13.74h.3l7.18,4.76v1.21l-7.48-4.91V87.16Zm0,2.57,7.48,4.91v1.21l-7.48-4.91Zm0,2.72,7.17,4.68H230.5l-5.29-3.47V92.45Zm3,4.68h-1.81l-1.21-.75V95.17Zm4.45-28.47L225.6,64h1.89l6.72,4.46H232.7Zm-3.77,39.8,6.8,4.46h-1.89l-6.72-4.46Zm.68-21.3,6.8,4.46h-1.89l-6.72-4.46Zm2-23.18,6.8,4.46h-1.89L229.76,64Zm1.51,44.48,6.72,4.46H238l-6.8-4.46Zm.68-21.3,6.72,4.46h-1.81l-6.8-4.46Zm2-23.18,6.72,4.46h-1.81L233.83,64Zm1.44,44.48,6.8,4.46h-1.89l-6.72-4.46Zm.75-21.3,6.72,4.46h-1.89L236,87.16ZM239.8,64l6.8,4.46h-1.89L238,64Zm1.51,44.48,6.8,4.46h-1.89l-6.72-4.46Zm.68-21.3,6.8,4.46H246.9l-6.72-4.46ZM244,64l6.72,4.46h-1.81L242.07,64Zm1.51,44.48,6.72,4.46h-1.81l-6.8-4.46Zm.68-21.3,6.72,4.46h-1.81l-6.8-4.46ZM248,64l6.8,4.46H253L246.23,64Zm1.51,44.48,6.8,4.46h-1.89l-6.72-4.46Zm6-24L248,79.54V78.41l7.48,5ZM248,80.74l7.48,4.91v1.06L248,81.8ZM248,83l7.48,4.91v1.21L248,84.22Zm7.17,8.61L248,86.94V85.73l7.48,4.91v1ZM257.85,61l-7.48-5V54.91l7.48,5Zm-7.47-3.7,7.48,5v1.21l-7.48-5Zm0,2.72,7.48,5v1.21l-7.48-5Zm6.72,8.38L250.38,64V62.76l7.48,5v.68h-.76Zm-6.72,32.41,7.48,5V107l-7.48-5Zm0,2.72,7.48,4.91v1.21l-7.48-4.91Zm0,2.71,7.48,4.91v1.21l-7.48-4.91Z"/><path class="cls-3" d="M33.33,5.35a.33.33,0,0,1,0,.35L25.92,33.49a.37.37,0,0,1-.39.26H20.78a.43.43,0,0,1-.39-.26L17.45,22.56l-4,11a.32.32,0,0,1-.3.22H8.59a.31.31,0,0,1-.35-.26L.85,5.67c-.06-.29.07-.43.39-.43h5c.14,0,.24.09.3.26l4.8,18.32L14.9,13l-2-7.26a.31.31,0,0,1,0-.35.39.39,0,0,1,.3-.13h5.36a.35.35,0,0,1,.35.26l4,17.63L27.69,5.49A.34.34,0,0,1,28,5.23h5A.36.36,0,0,1,33.33,5.35Z"/><path class="cls-3" d="M40.08,33.35V5.61c0-.26.11-.39.35-.39H55.12a.34.34,0,0,1,.39.39v4.62a.34.34,0,0,1-.39.39H45.79V16.5h7.26c.23,0,.35.13.35.39V21.6c0,.26-.12.39-.35.39H45.79v6.35h9.33a.34.34,0,0,1,.39.39v4.62a.34.34,0,0,1-.39.39H40.43C40.19,33.74,40.08,33.61,40.08,33.35Z"/><path class="cls-3" d="M64.71,0c.51,0,.75.31.69.93l-.93,6.56c-.15.46-.36.69-.62.69H61.07c-.41,0-.64-.23-.7-.69L59.44.85a.49.49,0,0,1,.12-.62A1,1,0,0,1,60.22,0Z"/><path class="cls-3" d="M86.28,5.48c.11-.17.23-.26.35-.26h4.92a.38.38,0,0,1,.32.13.33.33,0,0,1,0,.35L84.41,33.49a.4.4,0,0,1-.35.26H78.7a.28.28,0,0,1-.3-.26L70.92,5.7q-.09-.48.39-.48h5c.11,0,.23.09.35.26l4.75,17.89Z"/><path class="cls-3" d="M98.27,33.35V5.61c0-.26.11-.39.35-.39h14.69a.34.34,0,0,1,.39.39v4.62a.34.34,0,0,1-.39.39H104V16.5h7.26c.23,0,.35.13.35.39V21.6c0,.26-.12.39-.35.39H104v6.35h9.33a.34.34,0,0,1,.39.39v4.62a.34.34,0,0,1-.39.39H98.62C98.39,33.74,98.27,33.61,98.27,33.35Z"/><path class="cls-3" d="M146.58,23V18.36A.34.34,0,0,1,147,18h9.9a.34.34,0,0,1,.39.39v6.78q0,4.8-2.51,6.91t-7.35,2.12a16.08,16.08,0,0,1-4.08-.48,8.11,8.11,0,0,1-3.13-1.53,7,7,0,0,1-2-2.79,11,11,0,0,1-.71-4.23V13.77q0-4.71,2.55-6.83t7.39-2.12a16.08,16.08,0,0,1,4.08.48,8,8,0,0,1,3.11,1.53,7,7,0,0,1,2,2.77,11.16,11.16,0,0,1,.69,4.17v.91a.34.34,0,0,1-.39.39h-5a.34.34,0,0,1-.39-.39v-.56a3.08,3.08,0,0,0-1.12-2.74,4.88,4.88,0,0,0-2.77-.76h-.52a3.55,3.55,0,0,0-3,1.25,3.41,3.41,0,0,0-.65,1.43,9,9,0,0,0-.17,1.9v8.56a6.24,6.24,0,0,0,.35,2.31,3.62,3.62,0,0,0,.89,1.38,3,3,0,0,0,1.23.69,5,5,0,0,0,1.38.19h.52a3.48,3.48,0,0,0,2.94-1.25,5.39,5.39,0,0,0,1-3.33v-.38H147A.35.35,0,0,1,146.58,23Z"/><path class="cls-3" d="M173.94,4.83q5.53,0,7.95,2.59,1.91,2.07,1.9,6.35V25.14c0,2.94-.63,5.08-1.9,6.44a7.81,7.81,0,0,1-3.2,1.94,17.94,17.94,0,0,1-9.57,0,7.86,7.86,0,0,1-3.18-1.94A6.87,6.87,0,0,1,164.49,29a12.87,12.87,0,0,1-.5-3.82V13.78q0-4.23,1.94-6.4a7.16,7.16,0,0,1,3.2-1.94A16.27,16.27,0,0,1,173.94,4.83Zm4.11,10.37a6.45,6.45,0,0,0-.35-2.31,3.58,3.58,0,0,0-.91-1.4,2.78,2.78,0,0,0-1.25-.69,5.92,5.92,0,0,0-1.38-.17h-.52a3.4,3.4,0,0,0-3,1.23,5.64,5.64,0,0,0-.89,3.35v8.64a6.61,6.61,0,0,0,.35,2.33,3.63,3.63,0,0,0,.89,1.4,3,3,0,0,0,1.23.69,5,5,0,0,0,1.38.19h.52a3.35,3.35,0,0,0,3-1.27,6,6,0,0,0,.93-3.35Z"/><path class="cls-3" d="M189.81,10.23V5.61a.34.34,0,0,1,.39-.39h18a.34.34,0,0,1,.39.39v4.62a.34.34,0,0,1-.39.39h-6.14V33.35a.34.34,0,0,1-.39.39h-5a.34.34,0,0,1-.39-.39V10.62h-6.14A.34.34,0,0,1,189.81,10.23Z"/><path class="cls-3" d="M237.09,5.48c.06-.17.16-.26.3-.26h5.36a.31.31,0,0,1,.3.26l7.48,27.79q.09.48-.39.48h-4.93a.28.28,0,0,1-.3-.26l-1.69-6.05h-6.31l-1.64,6.05c-.06.17-.16.26-.3.26h-5q-.48,0-.39-.48ZM241.88,22,240,15.5,238.29,22Z"/><path class="cls-4" d="M0,54.2H44.64v8.61H27.19V107.3H17.75V62.81H0Z"/><path class="cls-4" d="M57.78,107.3H48L72.88,53.75H75L99.93,107.3H89.88L85.2,96.73H62.39Zm7.93-18H81.87L73.79,71Z"/><path class="cls-4" d="M127.77,108.21a34.41,34.41,0,0,1-17.37-5.06l3.25-8.46a26.88,26.88,0,0,0,14.43,4.76c6.27,0,9.14-3.1,9.14-6.5,0-3.55-2-5.66-11.56-9.21-10.35-3.78-13.9-8.69-13.9-15,0-8,6.5-15.41,17.83-15.41a31.13,31.13,0,0,1,14.65,3.63l-3,8.31c-3.1-1.74-7.78-3.55-11.86-3.55-5.59,0-8.16,3.1-8.16,6.8,0,3.4,2.87,5.51,10.35,8.23C143.41,81.33,146.81,86,146.81,93,146.8,102.39,139.63,108.21,127.77,108.21Z"/><path class="cls-4" d="M156.47,54.2h44.64v8.61H183.66V107.3h-9.44V62.81H156.47V54.2Z"/><path class="cls-4" d="M214,54.2H248.5v8.61H223.35V77.69h22.81V86H223.35V98.69H248.5v8.61H214Z"/><path class="cls-3" d="M2.53,152.3c-.2,0-.3-.11-.3-.34v-24.4c0-.23.1-.34.3-.34H15.45a.3.3,0,0,1,.34.34v4.07a.3.3,0,0,1-.34.34H7.24v5.17h6.38c.2,0,.3.11.3.34v4.14c0,.23-.1.34-.3.34H7.24v10a.3.3,0,0,1-.34.34H2.53Z"/><path class="cls-3" d="M28,126.88q4.86,0,7,2.28,1.67,1.83,1.67,5.59v10q0,3.87-1.67,5.66a6.87,6.87,0,0,1-2.81,1.71,13.32,13.32,0,0,1-4.18.57,13.46,13.46,0,0,1-4.24-.57A6.79,6.79,0,0,1,21,150.4a6,6,0,0,1-1.27-2.3,11.32,11.32,0,0,1-.44-3.36v-10A8.14,8.14,0,0,1,21,129.13a6.41,6.41,0,0,1,2.81-1.71A13.83,13.83,0,0,1,28,126.88ZM31.6,136a5.72,5.72,0,0,0-.3-2,3.29,3.29,0,0,0-.8-1.24,2.56,2.56,0,0,0-1.1-.61,5.09,5.09,0,0,0-1.22-.15h-.46a3,3,0,0,0-2.6,1.08,4.94,4.94,0,0,0-.78,2.95v7.6a5.88,5.88,0,0,0,.3,2.05,3.22,3.22,0,0,0,.78,1.24,2.77,2.77,0,0,0,1.08.61,4.6,4.6,0,0,0,1.22.17h.46a2.93,2.93,0,0,0,2.6-1.12,5.31,5.31,0,0,0,.82-3Z"/><path class="cls-3" d="M57,142.38a5,5,0,0,1-2.36,2.43l3.19,7a.36.36,0,0,1,0,.32.28.28,0,0,1-.27.13H52.86a.27.27,0,0,1-.27-.19l-3-6.46H47.69V152a.3.3,0,0,1-.34.34H43c-.18,0-.27-.11-.27-.34v-24.4c0-.23.09-.34.27-.34h7.9a6.17,6.17,0,0,1,6.77,6.84v4.79a10.66,10.66,0,0,1-.17,1.9A6.31,6.31,0,0,1,57,142.38Zm-4.29-7.18a4.87,4.87,0,0,0-.21-1.58,1.66,1.66,0,0,0-.67-.89,2.62,2.62,0,0,0-1.2-.38c-.5,0-1.1-.08-1.81-.08h-1.1v8.4h1.1q.91,0,1.62-.06a2.87,2.87,0,0,0,1.2-.34,1.87,1.87,0,0,0,.76-.89,4.69,4.69,0,0,0,.3-1.71V135.2Z"/><path class="cls-3" d="M76.77,131.63v-4.07a.3.3,0,0,1,.34-.34H93a.3.3,0,0,1,.34.34v4.07A.3.3,0,0,1,93,132h-5.4v20a.3.3,0,0,1-.34.34H82.85a.3.3,0,0,1-.34-.34V132h-5.4A.3.3,0,0,1,76.77,131.63Z"/><path class="cls-3" d="M112.87,142.38a5,5,0,0,1-2.36,2.43l3.19,7a.36.36,0,0,1,0,.32.28.28,0,0,1-.27.13h-4.67a.27.27,0,0,1-.27-.19l-3-6.46h-1.94V152a.3.3,0,0,1-.34.34H98.88c-.18,0-.27-.11-.27-.34v-24.4c0-.23.09-.34.27-.34h7.9a6.17,6.17,0,0,1,6.77,6.84v4.79a10.66,10.66,0,0,1-.17,1.9A6.31,6.31,0,0,1,112.87,142.38Zm-4.29-7.18a4.87,4.87,0,0,0-.21-1.58,1.66,1.66,0,0,0-.67-.89,2.62,2.62,0,0,0-1.2-.38c-.5,0-1.1-.08-1.81-.08h-1.1v8.4h1.1q.91,0,1.62-.06a2.87,2.87,0,0,0,1.2-.34,1.87,1.87,0,0,0,.76-.89,4.69,4.69,0,0,0,.3-1.71V135.2Z"/><path class="cls-3" d="M125.35,127.45a.28.28,0,0,1,.27-.23h4.71a.28.28,0,0,1,.27.23l6.57,24.43c.05.28-.06.42-.34.42H132.5a.25.25,0,0,1-.27-.23l-1.48-5.32H125.2l-1.44,5.32a.28.28,0,0,1-.27.23h-4.37c-.28,0-.39-.14-.34-.42ZM129.57,142l-1.63-5.74L126.42,142Z"/><path class="cls-3" d="M152.29,127.22q3.87,0,5.81,2.13a7.81,7.81,0,0,1,1.71,5.4v10.07a7.59,7.59,0,0,1-1.92,5.47,7.4,7.4,0,0,1-5.61,2h-9.5c-.2,0-.3-.11-.3-.34v-24.4c0-.23.1-.34.3-.34Zm2.55,8.66a4.12,4.12,0,0,0-1-2.87,3.79,3.79,0,0,0-3-1h-3.42v15.58h3.42a3.93,3.93,0,0,0,2.81-1,3.71,3.71,0,0,0,1.1-2.85Z"/><path class="cls-3" d="M165.87,152v-24.4c0-.23.1-.34.3-.34h4.33a.3.3,0,0,1,.34.34V152a.3.3,0,0,1-.34.34h-4.33C166,152.3,165.87,152.19,165.87,152Z"/><path class="cls-3" d="M176.1,131.63v-4.07a.3.3,0,0,1,.34-.34h15.85a.3.3,0,0,1,.34.34v4.07a.3.3,0,0,1-.34.34h-5.4v20a.3.3,0,0,1-.34.34h-4.37a.3.3,0,0,1-.34-.34V132h-5.4A.3.3,0,0,1,176.1,131.63Z"/><path class="cls-3" d="M198,152v-24.4c0-.23.1-.34.3-.34h4.33a.3.3,0,0,1,.34.34V152a.3.3,0,0,1-.34.34h-4.33C198.05,152.3,198,152.19,198,152Z"/><path class="cls-3" d="M217.69,126.88q4.86,0,7,2.28,1.66,1.83,1.67,5.59v10q0,3.87-1.67,5.66a6.87,6.87,0,0,1-2.81,1.71,13.32,13.32,0,0,1-4.18.57,13.46,13.46,0,0,1-4.24-.57,6.79,6.79,0,0,1-2.79-1.71,6,6,0,0,1-1.27-2.3,11.36,11.36,0,0,1-.44-3.36v-10a8.14,8.14,0,0,1,1.71-5.62,6.41,6.41,0,0,1,2.81-1.71A13.92,13.92,0,0,1,217.69,126.88ZM221.3,136a5.72,5.72,0,0,0-.3-2,3.29,3.29,0,0,0-.8-1.24,2.56,2.56,0,0,0-1.1-.61,5.09,5.09,0,0,0-1.22-.15h-.46a3,3,0,0,0-2.6,1.08A4.94,4.94,0,0,0,214,136v7.6a5.88,5.88,0,0,0,.3,2.05,3.22,3.22,0,0,0,.78,1.24,2.77,2.77,0,0,0,1.08.61,4.6,4.6,0,0,0,1.22.17h.46a2.93,2.93,0,0,0,2.6-1.12,5.31,5.31,0,0,0,.82-3Z"/><path class="cls-3" d="M243.15,127.22h4.37a.3.3,0,0,1,.34.34V152a.3.3,0,0,1-.34.34H243.3a.32.32,0,0,1-.34-.19l-5.55-12.5V152a.3.3,0,0,1-.34.34h-4.33c-.2,0-.3-.11-.3-.34v-24.4c0-.23.1-.34.3-.34h4.48a.33.33,0,0,1,.27.19l5.32,12.27V127.56C242.8,127.33,242.92,127.22,243.15,127.22Z"/></g></g></svg>