<?xml version="1.0" encoding="UTF-8"?>
<svg id="Layer_2" data-name="Layer 2" xmlns="http://www.w3.org/2000/svg" viewBox="0 0 726.5 335">
  <defs>
    <style>
      .cls-1 {
        fill: #fff;
      }

      .cls-2 {
        fill: #c61a1d;
      }

      .cls-3 {
        fill: none;
        stroke: #fff;
        stroke-miterlimit: 10;
        stroke-width: 8.28px;
      }
    </style>
  </defs>
  <g id="Layer_1-2" data-name="Layer 1">
    <path class="cls-2" d="M0,335V42.4H101.3C122.4,34.9,227.1,0,363.3,0s240.8,34.8,261.8,42.4h101.4V335H0Z"/>
    <g id="IVLcRn">
      <path class="cls-1" d="M332.5,259.8h-32.9c-2.5-11.5-5-22.8-7.5-34.2-2.2-10-7.7-31.8-8.3-32.7-.6,.9-10.6,43.8-14.9,64.4-.5,2.1-1.2,2.7-3.1,2.7-10-.1-20.1-.1-30.3-.1-1.6-7.5-3.1-15-4.6-22.4-4.8-23.8-9.7-47.6-14.5-71.4-.4-1.9-1.2-2.5-2.7-2.8-2.5-.5-5-.8-7.4-1.5-.7-.2-1.8-1.3-1.8-2-.1-7.5-.1-15-.1-22.6,.9-.1,1.6-.2,2.3-.2,11,0,21.9,0,32.9-.1,2,0,2.6,.6,3,2.7,3.7,20.7,12.5,57.8,13,58.7,.4-.7,9.5-38.1,13.5-59,.3-1.5,.5-2.4,2.2-2.4,8.8,.1,17.6,0,26.7,0,1.7,9,3.5,17.8,5.2,26.7,2.5,12.8,8.5,33.9,9.1,34.6,.5-.8,8.9-37.8,12.7-58.4,.2-.9,.4-1.8,.6-2.8h38.1c0,7.7,0,15.3-.1,22.9,0,.7-1.2,1.6-1.9,1.9-2.5,.7-5.1,1-7.7,1.5-1.4,.3-2.1,.9-2.5,2.6-6.2,31.3-12.6,62.5-19,93.9Z"/>
      <path class="cls-1" d="M188.4,97.6v48.4h-28.1c-1-4.8-2.2-9.5-3-14.4-.3-1.7-1.1-2.1-2.6-2.1-8.3,.1-16.6,0-25,.2-6.9,.2-10.7,3.2-11.7,9.9-.6,4.2-.7,8.5-.1,12.7,1,7,4.9,10.1,12.1,10.2,8.7,.2,17.5,0,26.2,.6,21.3,1.3,34.8,13.7,38,34.9,1.6,10.4,1.6,20.8-.4,31.2-3,14.9-12.3,24-26.6,27.6-7,1.8-14.4,2.8-21.6,3-20.3,.4-40.6,.2-60.9,.2-.5,0-1-.1-1.6-.1v-48.3h27.7c1,4.7,2.2,9.5,3,14.3,.3,1.7,1,2.2,2.6,2.2,9.9-.1,19.9,0,29.8-.3,7.2-.2,11-3.8,11.7-11,.3-3.5,.4-7.1,0-10.6-.7-7.6-4.7-11.1-12.4-11.3-9-.2-18.1-.1-27.1-.6-19.8-1.2-33.8-14.2-36.7-33.8-1.7-11.3-2.1-22.6,.9-33.8,4.3-15.8,15-24.8,30.8-27.8,4.1-.8,8.2-1.2,12.4-1.2,20.2-.1,40.4-.1,60.6-.1,.5-.2,1.1-.1,2,0Z"/>
      <path class="cls-1" d="M395.8,163.8c-3.4-.6-6.9-1.2-10.3-2-.8-.2-2.1-1.2-2.1-1.9-.1-7.6-.1-15.2-.1-22.9h47v95.9c3.7,.7,7.3,1.2,10.8,2.1,.8,.2,2,1.4,2,2.2,.2,7.4,.1,14.8,.1,22.4h-59.9c0-7.6-.1-15.2,.1-22.8,0-.7,1.3-1.7,2.1-1.9,3.3-.8,6.7-1.3,10.3-2v-69.1Z"/>
      <path class="cls-1" d="M510.6,137.1c-1,0-1.9-.1-3-.2,0-4.8-.2-2.4,.1-6.9,.3-5.6,3.5-8.6,9.3-8.8,2.5-.1,5.1,0,7.6,0h11.4v-29.1c-10.8,0-21.5-.3-32.1,.1-5.7,.2-11.1,2-16,5.2-10.1,6.5-13.7,16.4-14.3,27.7-.3,6.1-.1,5.5-.1,12.1h-14.9v23.2c4.6,.8,10.2,2.9,14.6,3.3v69.4c-3.6,.7-7.1,1.2-10.5,2.1-.8,.2-1.7,1.4-2,2.3-.3,1.1-.1,2.4-.1,3.6v18.7h61.9v-24.2c-5-.8-9.9-1.6-14.9-2.4v-69.2c9.4-.6,18.6-2.7,28.3-3.3v-23.4c-8.3-.2-16.8-.2-25.3-.2Z"/>
      <path class="cls-1" d="M614.8,231.7c-1.6,0-3.2,0-4.9-.2-6.5-.6-9.3-3.5-9.3-10-.1-15.5,0-31,0-46.6,0-.5,.2-10.6,.3-11.3,8.7-.3,16.5-2.4,24.5-3.3v-23.2h-24.8v-31.1h-34.1v31.1h-9.6v23.4c3.9,1.1,6,2.6,9.6,3.3v13.2c0,14.9-.1,29.8,0,44.7,0,3.8,.2,7.7,.7,11.5,2,14.3,11.4,24.7,25.7,26.4,11.8,1.4,23.9,.9,35.8,1.2,.2,0,.3-.2,.4-.3v-29c-5,.2-9.7,.3-14.3,.2Z"/>
      <path class="cls-1" d="M413.1,118.2c-10.2,0-18.5-8.2-18.4-18.2,0-9.8,8.5-18.2,18.3-18.3,9.8-.1,18.2,8.3,18.3,18.1,0,10.3-8,18.4-18.2,18.4Z"/>
    </g>
    <path class="cls-1" d="M676.4,248.2c0,7.2-5.6,12.8-13,12.8s-13-5.6-13-12.8,5.8-12.7,13-12.7,13,5.6,13,12.7Zm-22.7,0c0,5.6,4.2,10.1,9.9,10.1s9.6-4.5,9.6-10-4.1-10.2-9.7-10.2c-5.6-.1-9.8,4.5-9.8,10.1Zm7.8,6.6h-2.9v-12.7c1.2-.2,2.8-.4,4.9-.4,2.4,0,3.5,.4,4.4,.9,.7,.5,1.2,1.5,1.2,2.8,0,1.4-1.1,2.5-2.6,2.9v.2c1.2,.5,1.9,1.4,2.3,3.1,.4,1.9,.6,2.7,.9,3.2h-3.2c-.4-.5-.6-1.6-1-3.1-.2-1.4-1-2-2.6-2h-1.4v5.1h0Zm.1-7.2h1.4c1.6,0,2.9-.5,2.9-1.9,0-1.2-.8-1.9-2.7-1.9-.8,0-1.3,.1-1.6,.2v3.6h0Z"/>
    <path class="cls-3" d="M20.8,314.2V63.2H105S215.9,20.8,363.3,20.8s258.1,42.4,258.1,42.4h84.3v251H20.8Z"/>
  </g>
</svg>