<?xml version="1.0" encoding="utf-8"?>
<!-- Generator: Adobe Illustrator 26.5.0, SVG Export Plug-In . SVG Version: 6.00 Build 0)  -->
<svg version="1.1" id="Layer_2_00000124122293563510930350000007588397692744351677_"
	 xmlns="http://www.w3.org/2000/svg" xmlns:xlink="http://www.w3.org/1999/xlink" x="0px" y="0px" viewBox="0 0 730.9 337"
	 style="enable-background:new 0 0 730.9 337;" xml:space="preserve">
<style type="text/css">
	.st0{fill:#B12629;}
	.st1{fill:#FFFFFF;}
	.st2{stroke:#000000;stroke-width:1.6662;stroke-miterlimit:10;}
	.st3{fill:none;}
	.st4{fill:none;stroke:#FFFFFF;stroke-width:8.3309;stroke-miterlimit:10;}
</style>
<path class="st0" d="M0,337V42.6h101.9C123.1,35,228.5,0,365.5,0s242.2,35,263.4,42.6h102V337H0z"/>
<g>
	<path class="st1" d="M680.5,259.3c0,7.2-5.7,12.9-13,12.9s-13.1-5.7-13.1-12.9c0-7.1,5.8-12.7,13.1-12.7
		C674.8,246.6,680.5,252.2,680.5,259.3z M657.6,259.3c0,5.7,4.2,10.2,9.9,10.2c5.6,0,9.7-4.5,9.7-10.1c0-5.7-4.1-10.2-9.8-10.2
		C661.8,249.1,657.6,253.7,657.6,259.3z M665.4,266h-3v-12.7c1.2-0.2,2.8-0.4,4.9-0.4c2.4,0,3.5,0.4,4.4,0.9
		c0.7,0.5,1.2,1.5,1.2,2.8c0,1.4-1.1,2.5-2.6,3v0.2c1.2,0.5,1.9,1.4,2.3,3.1c0.4,1.9,0.6,2.7,0.9,3.2h-3.2c-0.4-0.5-0.6-1.6-1-3.1
		c-0.2-1.4-1-2-2.6-2h-1.4L665.4,266L665.4,266z M665.5,258.8h1.4c1.6,0,3-0.5,3-1.9c0-1.2-0.8-1.9-2.7-1.9c-0.8,0-1.3,0.1-1.6,0.1
		L665.5,258.8L665.5,258.8z"/>
</g>
<g>
	<g id="IVLcRn_6_">
		<g>
			<g>
				<path class="st2" d="M251.3,141.6c2.2,12,6,29.6,9,42.4c0.7-2.9,1.4-6,2.2-9.2c-2.2-9.9-4.4-20.5-5.9-28.5
					c-0.6-3.6-2.5-5.6-5.6-6.1C251.1,140.6,251.2,141.1,251.3,141.6z"/>
				<path class="st2" d="M216.7,170.2l-1-0.2c-1.8-0.3-3.6-0.7-5.5-1.1c0.7,2.1,2.7,3.9,4.6,4.5c0.9,0.2,1.8,0.4,2.6,0.6
					C217.2,172.7,216.9,171.5,216.7,170.2z"/>
				<path class="st2" d="M308.5,146.8c1.2,6.4,2.5,12.6,3.7,19c1.1,5.7,2.9,13,4.6,19.4c0.6-2.7,1.3-5.7,2-8.8
					c-0.5-2.1-0.9-4.2-1.3-6c-1.2-6.3-2.4-12.6-3.7-19l-2.2-11.3h-4.4L308.5,146.8z"/>
				<path class="st2" d="M288.7,212.6c-3.4,14.5-8.3,35.9-11.1,49c-0.8,4-3.2,6-7.1,6h-0.1c-4.9,0-9.8-0.1-14.7-0.1h-14.8l1,4.6H261
					c4.9,0,9.8,0,14.7,0.1h0.1c3.9,0,6.3-2,7.1-6c2.2-10.6,5.9-26.8,9-40.2C291,221.9,289.8,217.1,288.7,212.6z"/>
				<path class="st2" d="M378.5,140.3h-5.3v4.4c0,6,0,12.1-0.1,18.2c-0.1,3.1-3.1,5.3-5.1,5.8c-2.1,0.6-4.2,0.9-6.2,1.3l-1,0.2
					c-5.2,25.7-10.4,51.3-15.7,77.1l-4.1,20.1h-35.6l1,4.6h39.9l4.1-20.1c5.3-25.8,10.5-51.4,15.7-77.1l1-0.2c2-0.4,4.1-0.7,6.2-1.3
					c2-0.5,5-2.8,5.1-5.8c0.1-6.1,0.1-12.2,0.1-18.2V140.3z"/>
			</g>
			<g>
				<path class="st2" d="M196.8,152.9h-31.5c0.1,0.4,0.2,0.9,0.3,1.3l0.7,3.3h35.8v-56.8l-4.7-0.3c-0.2,0-0.4,0-0.6,0V152.9
					L196.8,152.9z"/>
				<path class="st2" d="M158.4,141c-0.3-1.5-0.6-3.1-0.9-4.7c-2.8,0-5.7,0-8.5,0c-5,0-10.2,0-15.2,0.1s-7,1.7-7.7,6.4
					c-0.6,3.9-0.6,7.8-0.1,11.5c0.6,4,2.1,5.9,5.7,6.5c-0.1-0.6-0.3-1.2-0.4-1.8c-0.5-3.7-0.5-7.7,0.1-11.5c0.7-4.7,2.6-6.3,7.7-6.4
					c5.1-0.1,10.2-0.1,15.2-0.1C155.6,141,157,141,158.4,141z"/>
				<path class="st2" d="M149.3,202c-3.1-0.1-6.3-0.1-9.4-0.2c-5.9-0.1-11.9-0.1-17.9-0.5c-9.2-0.5-17.3-3.4-23.8-8.2
					c7.2,7.5,17.2,12.1,29.1,12.8c6,0.4,12.1,0.4,17.9,0.5c3.1,0,6.3,0.1,9.4,0.2c1,0,1.9,0.1,2.7,0.3
					C156.2,203.5,153.9,202.2,149.3,202z"/>
				<path class="st2" d="M121.5,227c1.5,0,2.9,0,4.3,0c-0.3-1.6-0.7-3.1-1-4.6c-0.3-1.3-0.6-2.6-0.9-4l-0.7-3.3h-4.3
					c0.2,0.9,0.4,1.7,0.6,2.6C120.2,220.7,120.9,223.9,121.5,227z"/>
				<path class="st2" d="M207.9,205.1c-2-13.4-8-23.7-17.1-30.3c6.2,6.5,10.2,15.1,11.9,25.7c1.7,11.5,1.6,22.5-0.5,32.8
					c-3.2,16.2-13.6,26.9-29.9,31c-7.7,1.9-15.3,3-22.6,3.1c-8.3,0.2-17,0.2-28.4,0.2c-5.3,0-10.6,0-15.9,0s-10.6,0-15.9,0h-1.2
					c-0.2,0-0.4,0-0.5,0v4.3l4.5,0.3c0.5,0,0.9,0.1,1.4,0.1h1.2c5.3,0,10.6,0,15.9,0s10.6,0,15.9,0c11.3,0,20.1-0.1,28.4-0.2
					c7.3-0.1,14.9-1.2,22.6-3.1c16.3-4.1,26.6-14.8,29.9-31C209.5,227.6,209.6,216.6,207.9,205.1z"/>
			</g>
			<g>
				<path class="st2" d="M395.2,173.4c0.6,0.1,1.2,0.3,1.8,0.4v-3.6c-2.3-0.4-4.6-0.8-7-1.4C390.8,171.3,393.4,173,395.2,173.4z"/>
				<path class="st2" d="M440.1,232.8c1.7,0.3,3.5,0.7,5.3,1v-93.5h-5.3V232.8z"/>
				<path class="st2" d="M458.3,245.1c-0.1-2.9-2.8-5.6-5.2-6.2c-0.1,0-0.3-0.1-0.4-0.1c0.2,0.5,0.3,1.1,0.3,1.7
					c0.1,5.8,0.1,11.5,0.1,17.5v9.3h-63.4v4.6h68.7v-9.3C458.4,256.6,458.4,251,458.3,245.1z"/>
			</g>
			<path class="st2" d="M435.7,88.1C439,92,441,97,441,102.3c0,6.1-2.3,11.9-6.5,16.1s-9.9,6.6-16,6.6h-0.1c-4.4,0-8.5-1.2-12.1-3.5
				c0.4,0.5,0.9,1,1.3,1.5c4.3,4.3,10,6.7,16.1,6.7h0.1c6.1,0,11.8-2.4,16-6.6c4.2-4.3,6.5-10,6.5-16.1
				C446.3,99.1,442,92.1,435.7,88.1z"/>
		</g>
	</g>
	<g>
		<g>
			<path class="st2" d="M641.6,140.3h-5.3v26.6l-3.7,0.4c-2.9,0.3-5.8,0.8-8.8,1.4c-3.9,0.7-8,1.4-12.2,1.8c-0.1,3-0.1,6.8-0.1,7.4
				v10.5c0,12.1,0,24.2,0,36.3c0,4.2,1.2,5.4,5.3,5.9c0-0.4,0-0.8-0.1-1.2c-0.1-12.1,0-24.2,0-36.3v-10.5c0-0.6,0.1-4.5,0.1-7.4
				c4.2-0.4,8.3-1.1,12.2-1.8c3-0.5,5.9-1,8.8-1.4l3.7-0.4L641.6,140.3L641.6,140.3z"/>
			<rect x="611.3" y="109.1" class="st2" width="5.3" height="26.6"/>
			<path class="st2" d="M640,235.5v30.7l-1.3,1.1c-1.1,1.2-2.4,1.4-3.2,1.4h-0.2c-3.6-0.1-7.2-0.1-10.8-0.1
				c-8.4-0.1-17-0.1-25.6-1.1c-5.8-0.7-10.9-2.6-15.3-5.6c5.2,5.7,12.2,9.3,20.6,10.3c8.5,1,17.2,1.1,25.6,1.1c3.6,0,7.2,0,10.8,0.1
				h0.2c0.9,0,2.1-0.2,3.2-1.4l1.3-1.1v-35.4H640z"/>
			<path class="st2" d="M568.6,170c-0.9-0.3-1.7-0.6-2.5-1c-0.6-0.3-1.2-0.5-1.9-0.7v3l3,0.9c0.5,0.1,0.9,0.3,1.3,0.4V170H568.6z"/>
		</g>
		<g>
			<path class="st2" d="M465.5,167.7v3.6l3.5,0.6c1.8,0.3,3.8,0.9,6,1.4V170c-1.8-0.4-3.5-0.9-5.3-1.3
				C468.2,168.4,466.8,168,465.5,167.7z"/>
			<path class="st2" d="M546.4,127.9h-15.9h-4c-1.1,0-2.2,0-3.2,0.1c-4.2,0.2-5.1,2-5.3,4.9c-0.1,1.6-0.1,2.3-0.1,2.7
				c1.9,0,3.8,0,5.7,0c0.5-1.8,1.8-2.8,5-3c1.1,0,2.2-0.1,3.2-0.1h4h15.9V94.9h-4.2c-0.4,0-0.7,0-1.1,0L546.4,127.9L546.4,127.9z"/>
			<path class="st2" d="M546.5,140.2v27l-3.9,0.3c-4.7,0.3-9.3,1-13.9,1.6c-3.5,0.5-7.1,1-10.7,1.4v62.2l5.3,0.9v-58.4
				c3.6-0.4,7.2-0.9,10.7-1.4c4.5-0.6,9.2-1.3,13.9-1.6l3.9-0.3v-31.7L546.5,140.2z"/>
			<polygon class="st2" points="533,267.3 467.6,267.3 467.6,271.9 538.3,271.9 538.3,239.8 533,239 			"/>
		</g>
	</g>
</g>
<path class="st3" d="M715,320.9H16.2V58.7h88.7c10.8-3.9,120.1-42.6,260.7-42.6s249.8,38.7,260.6,42.6H715V320.9z M25.9,311.2h679.3
	V68.4h-80.8l-0.8-0.3c-1.1-0.4-112.4-42.3-258-42.3c-145.7,0-257,41.9-258.1,42.3l-0.8,0.3H25.9V311.2z M353.8,167
	c0.4-1.8,1.1-2.4,2.5-2.6c2.6-0.5,5.2-0.9,7.7-1.5c0.8-0.2,2-1.2,2-1.9c0.1-7.6,0.1-15.2,0.1-23c-13,0-25.7,0-38.4,0
	c-0.2,1-0.5,1.9-0.6,2.8c-3.8,20.8-12.2,57.9-12.7,58.8c-0.6-0.8-6.7-22-9.2-34.8c-1.7-8.9-3.5-17.8-5.2-26.9c-9.1,0-18,0-26.8,0
	c-1.7,0-1.9,0.9-2.2,2.4c-4,21-13.1,58.7-13.6,59.4c-0.5-0.8-9.3-38.1-13.1-59c-0.4-2.2-1-2.8-3-2.8c-11,0.1-22,0-33.1,0.1
	c-0.7,0-1.4,0.1-2.3,0.2c0,7.7,0,15.2,0.1,22.8c0,0.7,1.1,1.8,1.8,2c2.4,0.7,4.9,1,7.4,1.5c1.5,0.3,2.3,0.9,2.7,2.8
	c4.8,24,9.7,47.9,14.5,71.8c1.5,7.5,3.1,15,4.7,22.6c10.3,0,20.4-0.1,30.5,0c2,0,2.7-0.5,3.1-2.7c4.4-20.7,14.4-63.9,15-64.8
	c0.6,0.9,6.1,22.8,8.4,32.9c2.5,11.5,5,22.9,7.6,34.4c11.1,0,22,0,33.1,0C341.1,229.7,347.5,198.4,353.8,167z M187.6,98
	c-20.3,0-40.6-0.1-60.9,0.1c-4.2,0-8.4,0.4-12.4,1.2c-15.9,3.1-26.7,12.1-31,28c-3,11.2-2.6,22.6-0.9,34c2.9,19.7,17,32.9,36.9,34
	c9.1,0.5,18.1,0.4,27.2,0.6c7.8,0.2,11.8,3.7,12.5,11.3c0.3,3.5,0.3,7.1,0,10.7c-0.7,7.3-4.5,10.9-11.7,11.1c-10,0.2-20,0.2-30,0.3
	c-1.6,0-2.3-0.5-2.6-2.2c-0.9-4.9-2-9.7-3.1-14.4c-9.5,0-18.7,0-27.9,0c0,16.3,0,32.4,0,48.6c0.7,0,1.2,0.1,1.6,0.1
	c20.4,0,40.8,0.2,61.2-0.2c7.3-0.1,14.7-1.2,21.7-3c14.5-3.6,23.8-12.7,26.8-27.7c2.1-10.4,2-20.9,0.5-31.3
	c-3.2-21.4-16.8-33.8-38.2-35.1c-8.8-0.5-17.5-0.4-26.3-0.6c-7.2-0.2-11.2-3.2-12.2-10.3c-0.6-4.2-0.6-8.6,0.1-12.8
	c1-6.8,4.8-9.8,11.7-10c8.4-0.2,16.7-0.1,25.1-0.2c1.6,0,2.3,0.4,2.6,2.1c0.9,4.9,2,9.7,3.1,14.5c9.5,0,18.8,0,28.2,0
	c0-16.2,0-32.3,0-48.7C188.8,98.1,188.2,98,187.6,98z M398.3,234.5c-3.6,0.7-7,1.2-10.4,2c-0.8,0.2-2.1,1.2-2.1,1.9
	c-0.1,7.6-0.1,15.2-0.1,22.9c20.3,0,40.2,0,60.3,0c0-7.7,0.1-15.1-0.1-22.5c0-0.8-1.2-2-2-2.2c-3.5-0.9-7.1-1.4-10.8-2.1
	c0-32.3,0-64.3,0-96.4c-15.8,0-31.4,0-47.3,0c0,7.8,0,15.4,0.1,23c0,0.7,1.3,1.7,2.1,1.9c3.4,0.8,6.9,1.3,10.4,2
	C398.3,188.2,398.3,211.3,398.3,234.5z M513.8,137.9c-1,0-1.9-0.1-3-0.2c0-4.8-0.2-2.4,0-6.9c0.3-5.7,3.6-8.6,9.3-8.9
	c2.5-0.1,5.1,0,7.7,0c3.8,0,7.7,0,11.5,0c0-10.1,0-19.7,0-29.3c-10.9,0-21.6-0.3-32.3,0.1c-5.7,0.2-11.2,2.1-16.1,5.2
	c-10.2,6.5-13.8,16.5-14.4,27.9c-0.3,6.2-0.1,5.5-0.1,12.2c-5.3,0-10.1,0-15,0c0,10.1,0,13.3,0,23.4c4.6,0.8,10.3,2.9,14.7,3.4
	c0,20.2,0,49.8,0,69.8c-3.6,0.7-7.1,1.2-10.5,2.1c-0.8,0.2-1.7,1.4-2,2.3c-0.3,1.1-0.1,2.4-0.1,3.6c0,6.3,0,12.6,0,18.8
	c21,0,41.7,0,62.3,0c0-8.2,0-16.2,0-24.4c-5-0.8-10-1.6-15-2.4c0-20.1,0-49.8,0-69.6c9.5-0.6,18.7-2.7,28.5-3.4V138
	C530.9,137.9,522.4,137.9,513.8,137.9z M618.6,233.1c-1.6,0-3.3,0-4.9-0.2c-6.5-0.6-9.3-3.6-9.4-10c-0.1-15.6,0-31.2,0-46.8
	c0-0.5,0.2-10.7,0.3-11.4c8.7-0.3,16.6-2.4,24.6-3.4c0-10,0-13.3,0-23.3c-8.3,0-16.5,0-25,0c0-10.6,0-20.9,0-31.2
	c-10.8,0-23.6,0-34.3,0c0,7.7,0,26.8,0,31.3c-1.2,0-8.4,0-9.6,0v23.6c3.9,1.1,6.1,2.6,9.6,3.4c0,1.3,0,12.2,0,13.3c0,15-0.1,30,0,45
	c0,3.9,0.2,7.8,0.7,11.6c2,14.4,11.5,24.9,25.9,26.5c11.9,1.4,24,0.9,36,1.2c0.2,0,0.3-0.2,0.4-0.3c0-9.7,0-19.4,0-29.2
	C628,233.1,623.3,233.1,618.6,233.1z M433.9,100.4c-0.1-9.9-8.5-18.3-18.4-18.2c-9.8,0.1-18.3,8.6-18.4,18.4
	c0,10.1,8.3,18.4,18.5,18.4C426,118.9,434,110.8,433.9,100.4z M250.1,140.5l-0.5-1.5l1.5,0.2c3.6,0.5,5.7,2.9,6.5,6.9
	c1.6,8.9,4.1,20.4,5.9,28.5v0.2v0.2c-0.8,3.2-1.5,6.4-2.2,9.2l-1,4l-0.9-4c-1.4-6.2-6.4-27.8-9-42.4
	C250.4,141.3,250.3,140.9,250.1,140.5z M216,169.1c-1.7-0.3-3.6-0.6-5.4-1.1l-1.7-0.4l0.6,1.7c0.8,2.4,2.9,4.5,5.2,5.1
	c0.9,0.2,1.8,0.5,2.7,0.6l1.4,0.3l-1.2-5.9L216,169.1z M311.4,165.9c1.2,6.3,3.2,14.1,4.6,19.5l1,3.8l0.9-3.8c0.6-2.7,1.3-5.7,2-8.8
	v-0.2v-0.2c-0.5-2.1-0.9-4.1-1.3-6c-1.1-5.8-2.2-11.6-3.4-17.4l-2.7-13.7h-6.4l1.8,9.4C309.2,154.4,310.3,160.1,311.4,165.9z
	 M289.8,212.4l-1-3.9l-0.9,3.9c-3.4,14.3-8.3,35.8-11.1,49c-0.7,3.5-2.8,5.3-6.3,5.3c-4.9,0-9.8-0.1-14.7-0.1h-16l1.4,6.6h19.9
	c4.9,0,9.8,0,14.9,0.1c4.4,0,7.1-2.4,8.1-6.8c2-9.5,5.4-24.5,9-40.2v-0.2v-0.2C292.2,222,291,217.2,289.8,212.4z M372.4,139.3v5.4
	c0,6,0,12.1-0.1,18.2c0,2.5-2.6,4.5-4.4,4.9c-2.1,0.5-4.1,0.9-6.1,1.3l-1.7,0.3L360,170c-5.2,25.7-10.4,51.3-15.7,77.1l-4,19.4h-36
	l1.4,6.6h41.4l4.3-20.9c5.2-25.6,10.4-51,15.6-76.4l0.4-0.1c2-0.4,4.1-0.7,6.3-1.3c2.4-0.6,5.7-3.1,5.8-6.8
	c0.1-6.1,0.1-12.2,0.1-18.2v-10L372.4,139.3L372.4,139.3z M203.2,158.5V99.8l-7.2-0.5v52.6h-31.7l1.4,6.6H203.2z M131.6,161.9
	l1.5,0.2l-0.4-1.5c-0.1-0.5-0.3-1.1-0.4-1.7c-0.5-3.6-0.5-7.5,0.1-11.3c0.6-4.2,2.1-5.5,6.8-5.6c5.1-0.1,10.5-0.1,15.2-0.1h5.4
	l-0.2-1.2c-0.3-1.5-0.6-3.1-0.9-4.6l-0.1-0.8h-0.8c-2.8,0-5.7,0-8.5,0c-4.7,0-10.1,0-15.3,0.1c-5.5,0.1-7.8,2.1-8.6,7.3
	c-0.6,3.9-0.6,8-0.1,11.8C125.8,159.2,127.7,161.3,131.6,161.9z M145.3,207.5h0.4c3,0,6,0.1,9,0.1c0.9,0,1.7,0.1,2.5,0.3l1.5,0.3
	l-0.4-1.5c-1.1-3.8-3.8-5.5-8.9-5.6c-3-0.1-6-0.1-9-0.1H140c-5.9-0.1-11.9-0.1-17.9-0.5c-8.9-0.5-16.8-3.2-23.3-8l-1.3,1.5
	c7.6,7.9,17.9,12.4,29.8,13.1C133.3,207.4,139.4,207.4,145.3,207.5z M125.8,221.8c-0.3-1.2-0.5-2.4-0.8-3.6l-0.9-4.1h-6.3l0.8,3.8
	c0.7,3,1.4,6.1,2,9.3l0.1,0.8h6.3l-0.2-1.2c-0.3-1.6-0.7-3.1-1-4.6V221.8z M191.5,174l-1.3,1.5c6.1,6.4,10,14.9,11.6,25.1
	c1.7,11.4,1.6,22.3-0.5,32.5c-3.2,15.8-13.3,26.2-29.2,30.2c-7.6,1.9-15.2,3-22.4,3.1c-8.2,0.2-17,0.2-28.3,0.2
	c-5.3,0-10.6,0-15.9,0s-10.6,0-15.9,0l-2.7-0.1v6.2l5.4,0.4c0.5,0,1,0.1,1.4,0.1h1.2c5.3,0,10.6,0,15.9,0s10.6,0,15.9,0
	c11.4,0,20.1-0.1,28.4-0.2c7.4-0.1,15.1-1.2,22.9-3.2c16.7-4.2,27.3-15.1,30.6-31.7c2.1-10.4,2.2-21.5,0.5-33.1
	C207,191.6,200.9,180.9,191.5,174z M395.2,174.4c0.4,0.1,0.9,0.2,1.3,0.3l1.7,0.4v-5.6l-0.8-0.1c-2.3-0.4-4.6-0.8-6.9-1.4l-1.6-0.4
	l0.5,1.6C390.1,171.8,392.9,173.8,395.2,174.4z M439.3,233.6l0.8,0.1c1.7,0.3,3.5,0.6,5.3,1l1.2,0.2v-95.7h-7.2L439.3,233.6
	L439.3,233.6z M453.5,238l-2.2-0.5l0.6,1.7c0.2,0.5,0.3,1,0.3,1.4c0.1,5.8,0.1,11.5,0.1,17.5v8.4h-63.4v6.6h70.6v-10.3
	c0-6,0-11.7-0.1-17.5C459.4,241.7,456.3,238.7,453.5,238z M407.2,123.6c4.5,4.5,10.4,7,16.9,7c6.4,0,12.3-2.5,16.6-6.9
	c4.4-4.4,6.8-10.4,6.8-16.8c0-7.9-4.2-15.2-11-19.6l-5.4-3.4l4.1,4.9c3.2,3.9,5,8.7,5.1,13.6c0,5.9-2.2,11.4-6.2,15.4
	s-9.4,6.3-15.3,6.3c-4.1,0-8.2-1.2-11.6-3.4l-5.2-3.3l4,4.8C406.2,122.6,406.7,123.1,407.2,123.6z M610.8,169.6v0.9
	c-0.1,3-0.1,6.8-0.1,7.5v10.9c0,12,0,23.9,0,35.9c0,4.7,1.5,6.3,6.2,6.8l1.2,0.1l-0.1-1.2c0-0.4,0-0.7,0-1.2c-0.1-12,0-23.9,0-35.9
	v-10.9c0-0.6,0.1-3.8,0.1-6.6c4-0.4,7.8-1,11.5-1.7c3-0.5,5.9-1,8.7-1.4l4.5-0.5v-33h-7.2V166l-2.8,0.3c-2.9,0.3-5.8,0.8-8.9,1.4
	c-3.9,0.7-7.9,1.4-12.1,1.8L610.8,169.6z M617.8,108.1h-7.2v28.6h7.2V108.1z M639.2,234.5v31.2l-1,0.9c-0.7,0.7-1.6,1.1-2.7,1.1l0,0
	c-3.6-0.1-7.2-0.1-10.8-0.1c-8.3-0.1-16.9-0.1-25.4-1.1c-5.5-0.6-10.5-2.5-14.8-5.5l-7.1-4.9l5.8,6.4c5.5,6,12.8,9.6,21.2,10.6
	c8.6,1,17.2,1.1,25.7,1.1c3.6,0,7.2,0,10.9,0.2c1,0,2.6-0.3,3.9-1.6l1.7-1.4v-36.8L639.2,234.5z M566.7,168.1
	c-0.6-0.3-1.2-0.5-1.9-0.8l-1.3-0.5v5.1l3.7,1.1c0.4,0.1,0.9,0.3,1.3,0.4l1.3,0.4v-4.6l-0.6-0.2
	C568.3,168.8,567.5,168.5,566.7,168.1z M474.9,174.3l1.2,0.3v-5.4l-0.8-0.2c-1.8-0.4-3.6-0.9-5.2-1.3c-1.5-0.4-2.9-0.7-4.2-1
	l-1.2-0.3v5.6l4.2,0.8C470.7,173.2,472.7,173.8,474.9,174.3z M524.6,135.9c0.3-1.1,1.1-2.1,4.1-2.3c1.1,0,2.1-0.1,3.2-0.1h20.9V94
	h-7.2v33h-14.9h-4c-1.1,0-2.2,0-3.3,0.1c-5.2,0.2-6.1,3.1-6.2,5.8c-0.1,1.7-0.1,2.3-0.1,2.7v1h7.4L524.6,135.9z M545.7,166.3l-3,0.2
	c-4.7,0.3-9.4,1-13.9,1.6c-3.5,0.5-7,1-10.7,1.4l-0.9,0.1v63.9l7.2,1.2V176c3.4-0.4,6.7-0.8,9.9-1.3c4.5-0.6,9.1-1.3,13.8-1.6
	l4.8-0.3v-33.5h-7.2L545.7,166.3L545.7,166.3z M532.2,266.3h-65.4v6.6h72.6V239l-7.2-1.2V266.3z"/>
<path class="st4" d="M710,316.1H21V63.6h84.7c0,0,111.6-42.6,259.8-42.6s259.7,42.6,259.7,42.6H710V316.1L710,316.1z"/>
<g id="IVLcRn_4_">
	<path class="st1" d="M334.5,261.4c-11.1,0-22,0-33.1,0c-2.5-11.5-5-23-7.6-34.4c-2.2-10.1-7.8-32-8.4-32.9
		c-0.6,0.9-10.6,44-15,64.8c-0.5,2.2-1.2,2.7-3.1,2.7c-10.1-0.1-20.2,0-30.5,0c-1.6-7.6-3.1-15.1-4.7-22.6
		c-4.9-23.9-9.8-47.8-14.5-71.8c-0.4-1.9-1.2-2.5-2.7-2.8c-2.5-0.5-5-0.8-7.4-1.5c-0.7-0.2-1.8-1.3-1.8-2
		c-0.1-7.5-0.1-15.1-0.1-22.8c0.9-0.1,1.6-0.2,2.3-0.2c11,0,22.1,0,33.1-0.1c2,0,2.6,0.6,3,2.8c3.8,20.9,12.6,58.2,13.1,59
		c0.5-0.7,9.6-38.4,13.6-59.4c0.3-1.5,0.5-2.4,2.2-2.4c8.9,0.1,17.7,0,26.8,0c1.8,9,3.5,18,5.2,26.9c2.5,12.8,8.6,34,9.2,34.8
		c0.5-0.9,9-38,12.7-58.8c0.2-0.9,0.4-1.8,0.6-2.8c12.7,0,25.4,0,38.4,0c0,7.8,0,15.4-0.1,23c0,0.7-1.2,1.7-2,1.9
		c-2.5,0.7-5.1,1-7.7,1.5c-1.4,0.3-2.1,0.9-2.5,2.6C347.4,198.4,340.9,229.7,334.5,261.4z"/>
	<path class="st1" d="M189.5,98.1c0,16.4,0,32.5,0,48.7c-9.4,0-18.7,0-28.2,0c-1-4.8-2.2-9.6-3-14.5c-0.3-1.8-1.1-2.1-2.6-2.1
		c-8.4,0.1-16.7,0-25.1,0.2c-6.9,0.2-10.7,3.2-11.7,10c-0.6,4.2-0.7,8.6-0.1,12.8c1,7,5,10.1,12.2,10.3c8.8,0.2,17.6,0,26.3,0.6
		c21.5,1.3,35,13.8,38.2,35.1c1.6,10.4,1.6,20.9-0.4,31.3c-3,15-12.3,24.1-26.8,27.7c-7.1,1.8-14.5,2.9-21.7,3
		c-20.4,0.4-40.8,0.2-61.2,0.2c-0.5,0-1-0.1-1.6-0.1c0-16.2,0-32.3,0-48.6c9.2,0,18.4,0,27.9,0c1,4.7,2.2,9.5,3.1,14.4
		c0.3,1.7,1,2.2,2.6,2.2c10-0.1,20,0,30-0.3c7.2-0.2,11-3.8,11.7-11.1c0.3-3.5,0.4-7.1,0-10.7c-0.7-7.6-4.7-11.1-12.5-11.3
		c-9.1-0.2-18.2-0.1-27.2-0.6c-19.9-1.2-34-14.3-36.9-34c-1.7-11.4-2.1-22.8,0.9-34c4.3-15.9,15-24.9,31-28
		c4.1-0.8,8.3-1.2,12.4-1.2c20.3-0.1,40.6-0.1,60.9-0.1C188,98,188.6,98.1,189.5,98.1z"/>
	<path class="st1" d="M398.2,164.8c-3.4-0.6-6.9-1.2-10.4-2c-0.8-0.2-2.1-1.2-2.1-1.9c-0.1-7.6-0.1-15.2-0.1-23
		c15.9,0,31.5,0,47.3,0c0,32.1,0,64.1,0,96.4c3.8,0.7,7.3,1.2,10.8,2.1c0.8,0.2,2,1.4,2,2.2c0.1,7.4,0.1,14.9,0.1,22.5
		c-20.1,0-40,0-60.3,0c0-7.7,0-15.3,0.1-22.9c0-0.7,1.3-1.7,2.1-1.9c3.4-0.8,6.8-1.3,10.4-2C398.2,211.3,398.2,188.2,398.2,164.8z"
		/>
	<path class="st1" d="M513.7,137.9c-1,0-1.9-0.1-3-0.2c0-4.8-0.2-2.4,0-6.9c0.3-5.7,3.6-8.6,9.3-8.9c2.5-0.1,5.1,0,7.7,0
		c3.8,0,7.7,0,11.5,0c0-10.1,0-19.7,0-29.3c-10.9,0-21.6-0.3-32.3,0.1c-5.7,0.2-11.2,2.1-16.1,5.2c-10.2,6.5-13.8,16.5-14.4,27.9
		c-0.3,6.2-0.1,5.5-0.1,12.2c-5.3,0-10.1,0-15,0c0,10.1,0,13.3,0,23.4c4.6,0.8,10.3,2.9,14.7,3.4c0,20.2,0,49.8,0,69.8
		c-3.6,0.7-7.1,1.2-10.5,2.1c-0.8,0.2-1.7,1.4-2,2.3c-0.3,1.1-0.1,2.4-0.1,3.6c0,6.3,0,12.6,0,18.8c21,0,41.7,0,62.3,0
		c0-8.2,0-16.2,0-24.4c-5-0.8-10-1.6-15-2.4c0-20.1,0-49.8,0-69.6c9.5-0.6,18.7-2.7,28.5-3.4V138
		C530.7,137.9,522.2,137.9,513.7,137.9z"/>
	<path class="st1" d="M618.5,233.1c-1.6,0-3.3,0-4.9-0.2c-6.5-0.6-9.3-3.6-9.4-10c-0.1-15.6,0-31.2,0-46.8c0-0.5,0.2-10.7,0.3-11.4
		c8.7-0.3,16.6-2.4,24.6-3.4c0-10,0-13.3,0-23.3c-8.3,0-16.5,0-25,0c0-10.6,0-20.9,0-31.2c-10.8,0-23.6,0-34.3,0
		c0,7.7,0,26.8,0,31.3c-1.2,0-8.4,0-9.6,0v23.6c3.9,1.1,6.1,2.6,9.6,3.4c0,1.3,0,12.2,0,13.3c0,15-0.1,30,0,45
		c0,3.9,0.2,7.8,0.7,11.6c2,14.4,11.5,24.9,25.9,26.5c11.9,1.4,24,0.9,36,1.2c0.2,0,0.3-0.2,0.4-0.3c0-9.7,0-19.4,0-29.2
		C627.8,233.1,623.1,233.1,618.5,233.1z"/>
	<path class="st1" d="M415.5,118.9c-10.2,0-18.6-8.2-18.5-18.4c0-9.8,8.5-18.3,18.4-18.4s18.3,8.3,18.4,18.2
		C433.9,110.8,425.9,118.9,415.5,118.9z"/>
</g>
</svg>
