<svg width="713" height="121" viewBox="0 0 713 121" fill="none" xmlns="http://www.w3.org/2000/svg">
<path d="M712.538 121L7.06174 120.999L7.06174 104.127C5.81261 100.613 -1.65337e-06 83.1754 -2.64492e-06 60.4912C-3.63648e-06 37.807 5.79595 20.3858 7.06174 16.8883L7.06174 6.83559e-05L712.538 0.00105223L712.538 121Z" fill="#C61A1D"/>
<path d="M710.366 2.78229L710.366 118.218L9.84324 118.219L9.84323 103.629C9.227 101.98 2.78149 83.8425 2.78149 60.4921C2.78149 37.1251 9.22699 19.0377 9.84323 17.3888L9.84323 2.78236L710.366 2.78229ZM709 116.853L709 4.16466L11.2089 4.16473L11.2089 17.6387L11.159 17.7552C11.0924 17.9384 4.1472 36.3756 4.14721 60.4921C4.14721 84.6253 11.0924 103.079 11.159 103.262L11.209 103.379L11.209 103.512L11.209 116.853L709 116.853Z" fill="white"/>
</svg>
