<svg width="72" height="72" viewBox="0 0 72 72" fill="none" xmlns="http://www.w3.org/2000/svg">
<g clip-path="url(#clip0_1366_154)">
<path d="M64.5 40.5H19.5C18.7044 40.5 17.9413 40.8161 17.3787 41.3787C16.8161 41.9413 16.5 42.7044 16.5 43.5V64.5C16.5 66.4891 17.2902 68.3968 18.6967 69.8033C20.1032 71.2098 22.0109 72 24 72H60C61.9891 72 63.8968 71.2098 65.3033 69.8033C66.7098 68.3968 67.5 66.4891 67.5 64.5V43.5C67.5 42.7044 67.1839 41.9413 66.6213 41.3787C66.0587 40.8161 65.2956 40.5 64.5 40.5ZM46.5 57.75H37.5C35.7098 57.75 33.9929 57.0388 32.727 55.773C31.4612 54.5071 30.75 52.7902 30.75 51C30.75 50.4033 30.9871 49.831 31.409 49.409C31.831 48.9871 32.4033 48.75 33 48.75C33.5967 48.75 34.169 48.9871 34.591 49.409C35.0129 49.831 35.25 50.4033 35.25 51C35.2578 51.5943 35.4973 52.1621 35.9176 52.5824C36.3379 53.0027 36.9057 53.2422 37.5 53.25H46.5C47.0943 53.2422 47.6621 53.0027 48.0824 52.5824C48.5027 52.1621 48.7422 51.5943 48.75 51C48.75 50.4033 48.9871 49.831 49.409 49.409C49.831 48.9871 50.4033 48.75 51 48.75C51.5967 48.75 52.169 48.9871 52.591 49.409C53.0129 49.831 53.25 50.4033 53.25 51C53.25 52.7902 52.5388 54.5071 51.273 55.773C50.0071 57.0388 48.2902 57.75 46.5 57.75Z" fill="#28334A"/>
<path d="M63 16.5C63 15.3065 62.5259 14.1619 61.682 13.318C60.8381 12.4741 59.6935 12 58.5 12H28.5C28.1022 12 27.7206 11.842 27.4393 11.5607C27.158 11.2794 27 10.8978 27 10.5V9C27 6.61305 26.0518 4.32387 24.364 2.63604C22.6761 0.948212 20.3869 0 18 0L7.5 0C6.70435 0 5.94129 0.31607 5.37868 0.87868C4.81607 1.44129 4.5 2.20435 4.5 3C4.5 3.79565 4.81607 4.55871 5.37868 5.12132C5.94129 5.68393 6.70435 6 7.5 6H18C18.7956 6 19.5587 6.31607 20.1213 6.87868C20.6839 7.44129 21 8.20435 21 9V27C21 29.3869 21.9482 31.6761 23.636 33.364C25.3239 35.0518 27.6131 36 30 36H54C56.3869 36 58.6761 35.0518 60.364 33.364C62.0518 31.6761 63 29.3869 63 27V16.5ZM43.5 18C43.8978 18 44.2794 18.158 44.5607 18.4393C44.842 18.7206 45 19.1022 45 19.5V28.5C45 28.8978 44.842 29.2794 44.5607 29.5607C44.2794 29.842 43.8978 30 43.5 30H40.5C40.1022 30 39.7206 29.842 39.4393 29.5607C39.158 29.2794 39 28.8978 39 28.5V19.5C39 19.1022 39.158 18.7206 39.4393 18.4393C39.7206 18.158 40.1022 18 40.5 18H43.5ZM27 27V19.5C27 19.1022 27.158 18.7206 27.4393 18.4393C27.7206 18.158 28.1022 18 28.5 18H31.5C31.8978 18 32.2794 18.158 32.5607 18.4393C32.842 18.7206 33 19.1022 33 19.5V28.5C33 28.8978 32.842 29.2794 32.5607 29.5607C32.2794 29.842 31.8978 30 31.5 30H30C29.2044 30 28.4413 29.6839 27.8787 29.1213C27.3161 28.5587 27 27.7956 27 27ZM57 27C57 27.7956 56.6839 28.5587 56.1213 29.1213C55.5587 29.6839 54.7956 30 54 30H52.5C52.1022 30 51.7206 29.842 51.4393 29.5607C51.158 29.2794 51 28.8978 51 28.5V19.5C51 19.1022 51.158 18.7206 51.4393 18.4393C51.7206 18.158 52.1022 18 52.5 18H55.5C55.8978 18 56.2794 18.158 56.5607 18.4393C56.842 18.7206 57 19.1022 57 19.5V27Z" fill="#28334A"/>
</g>
<defs>
<clipPath id="clip0_1366_154">
<rect width="72" height="72" fill="white"/>
</clipPath>
</defs>
</svg>
