<svg width="72" height="72" viewBox="0 0 72 72" fill="none" xmlns="http://www.w3.org/2000/svg">
<g clip-path="url(#clip0_1366_134)">
<g clip-path="url(#clip1_1366_134)">
<path d="M54.6 35.1301C54.5642 35.0305 54.5084 34.9393 54.4362 34.8619C54.364 34.7845 54.2768 34.7227 54.18 34.6801C53.9768 34.6042 53.7531 34.6042 53.55 34.6801C51.8029 35.5903 49.9874 36.3627 48.12 36.9901C47.9259 37.0582 47.765 37.1977 47.67 37.3801C47.6103 37.5654 47.6103 37.7648 47.67 37.9501L53.37 54.4801C53.4208 54.588 53.4471 54.7058 53.4471 54.8251C53.4471 54.9444 53.4208 55.0622 53.37 55.1701C53.2926 55.2623 53.1963 55.3368 53.0876 55.3886C52.9789 55.4404 52.8604 55.4682 52.74 55.4701H19.38C19.2596 55.4682 19.141 55.4404 19.0323 55.3886C18.9237 55.3368 18.8274 55.2623 18.75 55.1701C18.6992 55.0622 18.6728 54.9444 18.6728 54.8251C18.6728 54.7058 18.6992 54.588 18.75 54.4801L24.45 37.9501C24.5096 37.7648 24.5096 37.5654 24.45 37.3801C24.3492 37.209 24.189 37.0809 24 37.0201C22.1326 36.3927 20.3171 35.6203 18.57 34.7101C18.3668 34.6342 18.1431 34.6342 17.94 34.7101C17.8431 34.7527 17.7559 34.8145 17.6837 34.8919C17.6115 34.9693 17.5558 35.0605 17.52 35.1601L6.41997 67.0201C6.25464 67.4847 6.18335 67.9776 6.21025 68.4701C6.23715 68.9625 6.3617 69.4447 6.57665 69.8886C6.79161 70.3324 7.09268 70.7291 7.46235 71.0556C7.83202 71.382 8.26292 71.6317 8.72997 71.7901C9.12493 71.93 9.54097 72.001 9.95997 72.0001C10.7376 71.9952 11.4948 71.7506 12.1283 71.2996C12.7618 70.8486 13.2408 70.2133 13.5 69.4801L15.57 63.4801C15.6239 63.3403 15.7184 63.2199 15.8414 63.1344C15.9644 63.0488 16.1102 63.002 16.26 63.0001H55.74C55.8933 63.0043 56.0417 63.0555 56.1651 63.1467C56.2885 63.2379 56.3809 63.3647 56.43 63.5101L58.5 69.5101C58.7592 70.2433 59.2382 70.8786 59.8717 71.3296C60.5052 71.7806 61.2624 72.0252 62.04 72.0301C62.459 72.031 62.875 71.96 63.27 71.8201C63.737 71.6617 64.1679 71.412 64.5376 71.0856C64.9073 70.7591 65.2083 70.3624 65.4233 69.9186C65.6382 69.4747 65.7628 68.9925 65.7897 68.5001C65.8166 68.0076 65.7453 67.5147 65.58 67.0501L54.6 35.1301Z" fill="#28334A"/>
<path d="M67.83 1.50004C67.4085 1.02589 66.8908 0.646902 66.3115 0.388274C65.7322 0.129645 65.1044 -0.00269821 64.47 4.16893e-05H7.47C6.84569 0.00574372 6.2295 0.142165 5.66112 0.400517C5.09275 0.658869 4.5848 1.03342 4.17 1.50004C3.73334 1.97222 3.40296 2.53252 3.20113 3.14317C2.99931 3.75382 2.93072 4.40064 3 5.04004C3.85322 13.1979 7.69785 20.7505 13.792 26.2405C19.8861 31.7305 27.7977 34.7686 36 34.7686C44.2023 34.7686 52.1139 31.7305 58.208 26.2405C64.3021 20.7505 68.1468 13.1979 69 5.04004C69.0693 4.40064 69.0007 3.75382 68.7989 3.14317C68.597 2.53252 68.2667 1.97222 67.83 1.50004Z" fill="#28334A"/>
</g>
</g>
<defs>
<clipPath id="clip0_1366_134">
<rect width="72" height="72" fill="white"/>
</clipPath>
<clipPath id="clip1_1366_134">
<rect width="72" height="72" fill="white"/>
</clipPath>
</defs>
</svg>
