<svg width="72" height="72" viewBox="0 0 72 72" fill="none" xmlns="http://www.w3.org/2000/svg">
<g clip-path="url(#clip0_1366_144)">
<g clip-path="url(#clip1_1366_144)">
<path d="M8.55001 63C8.28082 63.0024 8.01702 63.0758 7.78526 63.2127C7.55349 63.3497 7.36197 63.5454 7.23001 63.78C7.09836 64.008 7.02905 64.2667 7.02905 64.53C7.02905 64.7933 7.09836 65.052 7.23001 65.28C8.75937 67.4838 10.8282 69.2587 13.2389 70.4352C15.6497 71.6117 18.3218 72.1504 21 72H51C53.6733 72.1452 56.3393 71.6039 58.7443 70.4277C61.1493 69.2514 63.2134 67.4793 64.74 65.28C64.8717 65.052 64.941 64.7933 64.941 64.53C64.941 64.2667 64.8717 64.008 64.74 63.78C64.6081 63.5454 64.4165 63.3497 64.1848 63.2127C63.953 63.0758 63.6892 63.0024 63.42 63H8.55001Z" fill="#28334A"/>
<path d="M64.98 24C65.0984 24.0038 65.2161 23.9816 65.325 23.9349C65.4338 23.8883 65.5311 23.8183 65.61 23.73C65.6935 23.6436 65.7558 23.5391 65.7923 23.4246C65.8287 23.3101 65.8382 23.1888 65.82 23.07C64.38 10.14 51.57 0 36 0C20.43 0 8.15999 9.72 6.26999 22.29C6.23789 22.5042 6.25351 22.7228 6.31575 22.9303C6.37798 23.1377 6.48529 23.3289 6.62999 23.49C6.77091 23.6535 6.94611 23.7839 7.14314 23.8721C7.34016 23.9602 7.55418 24.0039 7.76999 24H64.98ZM23.16 18C22.909 17.9996 22.6621 17.9362 22.442 17.8156C22.2219 17.6951 22.0355 17.5212 21.9 17.31C21.7674 17.0932 21.6973 16.8441 21.6973 16.59C21.6973 16.3359 21.7674 16.0868 21.9 15.87C23.76 11.7 29.34 9 36 9C42.66 9 48.24 11.7 50.19 15.87C50.3226 16.0868 50.3927 16.3359 50.3927 16.59C50.3927 16.8441 50.3226 17.0932 50.19 17.31C50.0545 17.5212 49.8681 17.6951 49.648 17.8156C49.4278 17.9362 49.181 17.9996 48.93 18H23.16Z" fill="#28334A"/>
<path d="M66 30C66 29.6022 65.842 29.2206 65.5607 28.9393C65.2794 28.658 64.8978 28.5 64.5 28.5H7.5C7.10218 28.5 6.72064 28.658 6.43934 28.9393C6.15804 29.2206 6 29.6022 6 30V57C6 57.3978 6.15804 57.7794 6.43934 58.0607C6.72064 58.342 7.10218 58.5 7.5 58.5H22.5C22.8978 58.5 23.2794 58.342 23.5607 58.0607C23.842 57.7794 24 57.3978 24 57V40.5C24 39.7044 24.3161 38.9413 24.8787 38.3787C25.4413 37.8161 26.2044 37.5 27 37.5H45C45.7956 37.5 46.5587 37.8161 47.1213 38.3787C47.6839 38.9413 48 39.7044 48 40.5V57C48 57.3978 48.158 57.7794 48.4393 58.0607C48.7206 58.342 49.1022 58.5 49.5 58.5H64.5C64.8978 58.5 65.2794 58.342 65.5607 58.0607C65.842 57.7794 66 57.3978 66 57V30Z" fill="#28334A"/>
<path d="M40.5 45.75H31.5C30.9033 45.75 30.331 45.5129 29.909 45.091C29.4871 44.669 29.25 44.0967 29.25 43.5C29.25 42.9033 29.4871 42.331 29.909 41.909C30.331 41.4871 30.9033 41.25 31.5 41.25H40.5C41.0967 41.25 41.669 41.4871 42.091 41.909C42.5129 42.331 42.75 42.9033 42.75 43.5C42.75 44.0967 42.5129 44.669 42.091 45.091C41.669 45.5129 41.0967 45.75 40.5 45.75Z" fill="#28334A"/>
<path d="M40.5 54.75H31.5C30.9033 54.75 30.331 54.5129 29.909 54.091C29.4871 53.669 29.25 53.0967 29.25 52.5C29.25 51.9033 29.4871 51.331 29.909 50.909C30.331 50.4871 30.9033 50.25 31.5 50.25H40.5C41.0967 50.25 41.669 50.4871 42.091 50.909C42.5129 51.331 42.75 51.9033 42.75 52.5C42.75 53.0967 42.5129 53.669 42.091 54.091C41.669 54.5129 41.0967 54.75 40.5 54.75Z" fill="#28334A"/>
</g>
</g>
<defs>
<clipPath id="clip0_1366_144">
<rect width="72" height="72" fill="white"/>
</clipPath>
<clipPath id="clip1_1366_144">
<rect width="72" height="72" fill="white"/>
</clipPath>
</defs>
</svg>
