<svg width="72" height="72" viewBox="0 0 72 72" fill="none" xmlns="http://www.w3.org/2000/svg">
<g clip-path="url(#clip0_1366_129)">
<path d="M67.4997 13.5H4.49969C4.10187 13.5 3.72034 13.658 3.43903 13.9393C3.15773 14.2206 2.99969 14.6022 2.99969 15V67.5C2.99969 68.6935 3.4738 69.8381 4.31771 70.682C5.16163 71.5259 6.30622 72 7.49969 72H64.4997C65.6932 72 66.8378 71.5259 67.6817 70.682C68.5256 69.8381 68.9997 68.6935 68.9997 67.5V15C68.9997 14.803 68.9609 14.608 68.8855 14.426C68.8101 14.244 68.6996 14.0786 68.5604 13.9393C68.4211 13.8001 68.2557 13.6896 68.0737 13.6142C67.8917 13.5388 67.6967 13.5 67.4997 13.5ZM46.4997 21.84C47.093 21.84 47.6731 22.0159 48.1664 22.3456C48.6598 22.6752 49.0443 23.1438 49.2713 23.692C49.4984 24.2401 49.5578 24.8433 49.442 25.4253C49.3263 26.0072 49.0406 26.5418 48.621 26.9613C48.2015 27.3809 47.6669 27.6666 47.085 27.7824C46.503 27.8981 45.8998 27.8387 45.3516 27.6116C44.8035 27.3846 44.3349 27.0001 44.0053 26.5067C43.6756 26.0134 43.4997 25.4333 43.4997 24.84C43.4997 24.0444 43.8158 23.2813 44.3784 22.7187C44.941 22.1561 45.704 21.84 46.4997 21.84ZM10.4997 22.5C10.4997 22.1022 10.6577 21.7206 10.939 21.4393C11.2203 21.158 11.6019 21 11.9997 21H35.9997C36.3975 21 36.7791 21.158 37.0604 21.4393C37.3417 21.7206 37.4997 22.1022 37.4997 22.5V27.93C37.4997 28.3278 37.3417 28.7094 37.0604 28.9907C36.7791 29.272 36.3975 29.43 35.9997 29.43H11.9997C11.6019 29.43 11.2203 29.272 10.939 28.9907C10.6577 28.7094 10.4997 28.3278 10.4997 27.93V22.5ZM61.4997 62.13C61.4997 62.5278 61.3417 62.9094 61.0604 63.1907C60.779 63.472 60.3975 63.63 59.9997 63.63H11.9997C11.6019 63.63 11.2203 63.472 10.939 63.1907C10.6577 62.9094 10.4997 62.5278 10.4997 62.13V39C10.4997 38.6022 10.6577 38.2206 10.939 37.9393C11.2203 37.658 11.6019 37.5 11.9997 37.5H59.9997C60.3975 37.5 60.779 37.658 61.0604 37.9393C61.3417 38.2206 61.4997 38.6022 61.4997 39V62.13ZM58.4997 27.84C57.9063 27.84 57.3263 27.6641 56.833 27.3344C56.3396 27.0048 55.9551 26.5362 55.7281 25.988C55.501 25.4399 55.4416 24.8367 55.5573 24.2547C55.6731 23.6728 55.9588 23.1382 56.3784 22.7187C56.7979 22.2991 57.3325 22.0134 57.9144 21.8976C58.4964 21.7819 59.0996 21.8413 59.6477 22.0684C60.1959 22.2954 60.6645 22.6799 60.9941 23.1733C61.3237 23.6666 61.4997 24.2467 61.4997 24.84C61.4997 25.6356 61.1836 26.3987 60.621 26.9613C60.0584 27.5239 59.2953 27.84 58.4997 27.84Z" fill="#28334A"/>
<path d="M67.5 0H4.5C3.30653 0 2.16193 0.474106 1.31802 1.31802C0.474106 2.16193 0 3.30653 0 4.5L0 6C0 6.79565 0.316071 7.55871 0.87868 8.12132C1.44129 8.68393 2.20435 9 3 9H69C69.7956 9 70.5587 8.68393 71.1213 8.12132C71.6839 7.55871 72 6.79565 72 6V4.5C72 3.90905 71.8836 3.32389 71.6575 2.77792C71.4313 2.23196 71.0998 1.73588 70.682 1.31802C70.2641 0.900156 69.768 0.568688 69.2221 0.342542C68.6761 0.116396 68.0909 0 67.5 0Z" fill="#28334A"/>
<path d="M52.4997 49.38H19.4997C18.704 49.38 17.941 49.0639 17.3784 48.5013C16.8158 47.9387 16.4997 47.1757 16.4997 46.38C16.4997 45.5844 16.8158 44.8213 17.3784 44.2587C17.941 43.6961 18.704 43.38 19.4997 43.38H52.4997C53.2953 43.38 54.0584 43.6961 54.621 44.2587C55.1836 44.8213 55.4997 45.5844 55.4997 46.38C55.4997 47.1757 55.1836 47.9387 54.621 48.5013C54.0584 49.0639 53.2953 49.38 52.4997 49.38Z" fill="#28334A"/>
</g>
<defs>
<clipPath id="clip0_1366_129">
<rect width="72" height="72" fill="white"/>
</clipPath>
</defs>
</svg>
