<svg width="72" height="72" viewBox="0 0 72 72" fill="none" xmlns="http://www.w3.org/2000/svg">
<g clip-path="url(#clip0_1366_128)">
<g clip-path="url(#clip1_1366_128)">
<path d="M69 10.86H3C2.20435 10.86 1.44129 11.1761 0.87868 11.7387C0.31607 12.3013 0 13.0643 0 13.86C0 14.6556 0.31607 15.4187 0.87868 15.9813C1.44129 16.5439 2.20435 16.86 3 16.86H22.5C22.8978 16.86 23.2794 17.018 23.5607 17.2993C23.842 17.5806 24 17.9622 24 18.36V25.86C24 27.4513 24.6321 28.9774 25.7574 30.1026C26.8826 31.2278 28.4087 31.86 30 31.86H66C67.5913 31.86 69.1174 31.2278 70.2426 30.1026C71.3679 28.9774 72 27.4513 72 25.86V13.86C72 13.0643 71.6839 12.3013 71.1213 11.7387C70.5587 11.1761 69.7956 10.86 69 10.86Z" fill="#28334A"/>
<path d="M58.29 40.89C58.0623 40.906 57.8413 40.9738 57.6437 41.0882C57.4461 41.2026 57.2773 41.3605 57.15 41.55L54.69 45.36C54.6347 45.4622 54.5522 45.5472 54.4516 45.6054C54.351 45.6637 54.2362 45.6929 54.12 45.69C54.0006 45.7038 53.8796 45.6861 53.7691 45.6388C53.6586 45.5914 53.5624 45.516 53.49 45.42L49.17 39.96C49.0295 39.7848 48.8514 39.6434 48.6489 39.5463C48.4464 39.4491 48.2246 39.3987 48 39.3987C47.7754 39.3987 47.5537 39.4491 47.3512 39.5463C47.1487 39.6434 46.9706 39.7848 46.83 39.96L42.51 45.42C42.4376 45.516 42.3414 45.5914 42.2309 45.6388C42.1204 45.6861 41.9995 45.7038 41.88 45.69C41.7638 45.6929 41.6491 45.6637 41.5485 45.6054C41.4479 45.5472 41.3653 45.4622 41.31 45.36L39 41.55C38.8728 41.3605 38.7039 41.2026 38.5063 41.0882C38.3088 40.9738 38.0877 40.906 37.86 40.89C37.6312 40.8609 37.3988 40.8895 37.1839 40.9734C36.969 41.0572 36.7786 41.1936 36.63 41.37C33.9282 44.2141 32.1864 47.834 31.65 51.72C31.4562 53.9896 32.1572 56.245 33.6032 58.005C35.0493 59.7649 37.126 60.89 39.39 61.14H56.91C59.1741 60.89 61.2508 59.7649 62.6968 58.005C64.1429 56.245 64.8438 53.9896 64.65 51.72C64.1136 47.834 62.3719 44.2141 59.67 41.37C59.508 41.1689 59.2927 41.0172 59.0488 40.9324C58.8048 40.8475 58.5419 40.8329 58.29 40.89Z" fill="#28334A"/>
</g>
</g>
<defs>
<clipPath id="clip0_1366_128">
<rect width="72" height="72" fill="white"/>
</clipPath>
<clipPath id="clip1_1366_128">
<rect width="72" height="72" fill="white"/>
</clipPath>
</defs>
</svg>
