<svg width="72" height="72" viewBox="0 0 72 72" fill="none" xmlns="http://www.w3.org/2000/svg">
<g clip-path="url(#clip0_1366_139)">
<g clip-path="url(#clip1_1366_139)">
<path d="M46.5 0C46.1022 0 45.7206 0.158035 45.4393 0.43934C45.158 0.720644 45 1.10218 45 1.5V28.5C45 28.8978 44.842 29.2794 44.5607 29.5607C44.2794 29.842 43.8978 30 43.5 30H10.5C10.1022 30 9.72064 30.158 9.43934 30.4393C9.15804 30.7206 9 31.1022 9 31.5C8.99955 34.4768 9.68065 37.4142 10.9911 40.0871C12.3015 42.7599 14.2065 45.0973 16.56 46.92C16.9793 47.2431 17.3056 47.6714 17.5058 48.1614C17.706 48.6515 17.773 49.1857 17.7 49.71L15 68.58C14.9408 68.9745 14.9609 69.3768 15.0591 69.7635C15.1573 70.1501 15.3316 70.5133 15.5719 70.8318C15.8121 71.1502 16.1134 71.4176 16.4583 71.6182C16.8031 71.8188 17.1844 71.9486 17.58 72H18C18.728 72.0072 19.4337 71.7494 19.9856 71.2747C20.5376 70.8 20.8981 70.1408 21 69.42L21.72 64.29C21.7768 63.9322 21.9588 63.6062 22.2334 63.3699C22.5081 63.1337 22.8577 63.0026 23.22 63H33.84C34.2023 63.0026 34.5519 63.1337 34.8266 63.3699C35.1012 63.6062 35.2832 63.9322 35.34 64.29L36 69.42C36.1019 70.1408 36.4624 70.8 37.0144 71.2747C37.5663 71.7494 38.272 72.0072 39 72H39.42C39.8156 71.9486 40.1969 71.8188 40.5417 71.6182C40.8866 71.4176 41.1879 71.1502 41.4281 70.8318C41.6684 70.5133 41.8427 70.1501 41.9409 69.7635C42.0391 69.3768 42.0592 68.9745 42 68.58L39.33 49.71C39.257 49.1857 39.324 48.6515 39.5242 48.1614C39.7244 47.6714 40.0507 47.2431 40.47 46.92C44.5228 43.777 47.1742 39.164 47.85 34.08C47.8963 33.7592 48.0433 33.4615 48.2698 33.2296C48.4962 32.9978 48.7904 32.8439 49.11 32.79C53.2042 32.1305 56.9 29.9534 59.4616 26.6922C62.0233 23.431 63.263 19.3247 62.9339 15.1908C62.6049 11.0568 60.7312 7.1984 57.6859 4.38346C54.6406 1.56852 50.647 0.00353442 46.5 0ZM23.25 37.5C23.2578 36.9057 23.4973 36.3379 23.9176 35.9176C24.3379 35.4973 24.9057 35.2578 25.5 35.25H31.5C32.0967 35.25 32.669 35.4871 33.091 35.909C33.5129 36.331 33.75 36.9033 33.75 37.5C33.75 38.0967 33.5129 38.669 33.091 39.091C32.669 39.5129 32.0967 39.75 31.5 39.75H25.5C24.9057 39.7422 24.3379 39.5027 23.9176 39.0824C23.4973 38.6621 23.2578 38.0943 23.25 37.5ZM24.45 57C24.2389 57.0015 24.0301 56.9567 23.8382 56.8685C23.6464 56.7804 23.4763 56.6512 23.34 56.49C23.1953 56.3289 23.088 56.1377 23.0258 55.9303C22.9635 55.7228 22.9479 55.5042 22.98 55.29L23.46 51.99C23.477 51.7967 23.5338 51.609 23.6267 51.4387C23.7196 51.2683 23.8467 51.119 24 51C24.1591 50.8868 24.3395 50.8072 24.5303 50.766C24.7212 50.7247 24.9184 50.7227 25.11 50.76C27.3154 51.12 29.5646 51.12 31.77 50.76C31.9789 50.695 32.2006 50.6828 32.4153 50.7247C32.63 50.7666 32.8309 50.8612 33 51C33.1683 51.1188 33.3108 51.2705 33.4191 51.4457C33.5273 51.621 33.5991 51.8163 33.63 52.02L34.08 55.32C34.1121 55.5342 34.0965 55.7528 34.0342 55.9603C33.972 56.1677 33.8647 56.3589 33.72 56.52C33.5837 56.6812 33.4136 56.8104 33.2218 56.8985C33.0299 56.9867 32.8211 57.0315 32.61 57.03L24.45 57Z" fill="#28334A"/>
<path d="M39.75 27H14.25C13.6533 27 13.081 26.7629 12.659 26.341C12.2371 25.919 12 25.3467 12 24.75C12 24.1533 12.2371 23.581 12.659 23.159C13.081 22.7371 13.6533 22.5 14.25 22.5H39.75C40.3467 22.5 40.919 22.7371 41.341 23.159C41.7629 23.581 42 24.1533 42 24.75C42 25.3467 41.7629 25.919 41.341 26.341C40.919 26.7629 40.3467 27 39.75 27Z" fill="#28334A"/>
</g>
</g>
<defs>
<clipPath id="clip0_1366_139">
<rect width="72" height="72" fill="white"/>
</clipPath>
<clipPath id="clip1_1366_139">
<rect width="72" height="72" fill="white"/>
</clipPath>
</defs>
</svg>
