<svg width="72" height="72" viewBox="0 0 72 72" fill="none" xmlns="http://www.w3.org/2000/svg">
<g clip-path="url(#clip0_1366_149)">
<rect x="3" y="3" width="66" height="66" rx="13" stroke="#28334A" stroke-width="6"/>
<path d="M56.1262 21.8063L60.4597 24.8614C60.5269 24.9146 60.6057 24.9512 60.6898 24.968C60.7738 24.9848 60.8606 24.9814 60.9431 24.9582C61.0256 24.9349 61.1014 24.8924 61.1643 24.8342C61.2271 24.7759 61.2753 24.7036 61.3047 24.6231C62.0175 22.7209 62.19 20.6586 61.8031 18.6645C61.7829 18.5821 61.7443 18.5054 61.6903 18.44C61.6363 18.3746 61.5682 18.3222 61.4911 18.2868C61.4141 18.2514 61.33 18.2338 61.2452 18.2355C61.1604 18.2371 61.077 18.2578 61.0014 18.2961L56.1695 20.8313C56.0817 20.8768 56.0074 20.9447 55.9542 21.0281C55.901 21.1115 55.8706 21.2074 55.8662 21.3063C55.8618 21.4051 55.8836 21.5033 55.9292 21.5911C55.9748 21.6789 56.0428 21.7531 56.1262 21.8063Z" fill="#28334A"/>
<path d="M54.5661 18.0578L59.8313 15.2193C59.9075 15.1774 59.9729 15.1183 60.0225 15.0469C60.072 14.9754 60.1044 14.8935 60.117 14.8074C60.1296 14.7214 60.1221 14.6336 60.0951 14.5509C60.0681 14.4682 60.0223 14.393 59.9613 14.3309C58.4256 12.1112 56.1007 10.5612 53.461 9.99742C53.3772 9.98304 53.2912 9.9886 53.2099 10.0137C53.1286 10.0387 53.0544 10.0825 52.9932 10.1416C52.932 10.2007 52.8856 10.2734 52.8577 10.3537C52.8298 10.434 52.8213 10.5198 52.8327 10.6041L53.7861 17.5377C53.7861 17.6305 53.809 17.7218 53.8527 17.8036C53.8965 17.8853 53.9598 17.955 54.0369 18.0065C54.1141 18.0579 54.2028 18.0895 54.2951 18.0985C54.3874 18.1074 54.4805 18.0934 54.5661 18.0578Z" fill="#28334A"/>
<path d="M53.0277 24.1897C51.5715 25.7415 50.6197 27.6981 50.2976 29.8016C50.3012 30.156 50.3804 30.5055 50.5299 30.8269C50.6793 31.1482 50.8956 31.4339 51.1643 31.665C51.6833 31.9375 52.2674 32.0614 52.8523 32.0232C53.4373 31.9849 54.0003 31.786 54.4794 31.4484L58.5963 28.3499C58.6635 28.2994 58.7181 28.234 58.7557 28.1588C58.7934 28.0836 58.8129 28.0006 58.8129 27.9166C58.8129 27.8325 58.7934 27.7495 58.7557 27.6743C58.7181 27.5991 58.6635 27.5337 58.5963 27.4832L53.7427 24.1031C53.6354 24.0224 53.501 23.9864 53.3678 24.0026C53.2345 24.0187 53.1126 24.0858 53.0277 24.1897Z" fill="#28334A"/>
<path d="M42.2372 21.9363L47.9142 22.738C48.4184 22.7816 48.922 22.6473 49.3376 22.3584C49.7532 22.0694 50.0545 21.6442 50.1893 21.1563C50.2817 20.8595 50.4368 20.5861 50.6443 20.3546C50.6997 20.2979 50.7421 20.2297 50.7683 20.1548C50.7945 20.0799 50.8039 20.0002 50.7959 19.9212L49.5176 10.6475C49.5073 10.571 49.4813 10.4973 49.4414 10.4312C49.4014 10.3651 49.3483 10.3079 49.2853 10.2632C49.2223 10.2185 49.1508 10.1873 49.0752 10.1714C48.9996 10.1555 48.9215 10.1553 48.8459 10.1708C47.3741 10.4692 45.9844 11.0827 44.7724 11.9692C43.5556 12.8705 42.5413 14.0168 41.7949 15.3343C41.0485 16.6517 40.5866 18.1109 40.4388 19.6179C40.3932 20.1595 40.5528 20.6984 40.8859 21.1279C41.219 21.5573 41.7013 21.8459 42.2372 21.9363Z" fill="#28334A"/>
<path d="M47.3724 33.8318H44.664C44.4758 33.8266 44.2919 33.7742 44.1292 33.6796C43.9664 33.585 43.83 33.4511 43.7323 33.2901C41.7777 30.364 39.0221 28.0622 35.7947 26.6598C32.5672 25.2574 29.0044 24.8136 25.5315 25.3815C21.5825 26.0337 17.949 27.9417 15.1699 30.8222C12.3909 33.7027 10.6145 37.4023 10.1042 41.3721C9.79489 43.9599 10.0377 46.5839 10.8165 49.071C11.5953 51.5581 12.8926 53.8518 14.6226 55.801C16.3527 57.7501 18.4763 59.3104 20.8534 60.3788C23.2305 61.4473 25.8071 61.9997 28.4133 61.9997H47.9141C49.799 61.9946 51.6638 61.6124 53.3986 60.8756C55.1335 60.1388 56.7034 59.0623 58.0159 57.7095C59.3283 56.3566 60.3568 54.7549 61.0407 52.9985C61.7246 51.242 62.0501 49.3665 61.9981 47.4824C61.7863 43.7618 60.1477 40.2662 57.4233 37.7235C54.699 35.1807 51.0988 33.7868 47.3724 33.8318ZM54.1761 53.0943C53.4032 53.9964 52.442 54.7181 51.3601 55.2085C50.2782 55.6989 49.1019 55.9461 47.9141 55.9328H28.4133C26.5453 55.948 24.6981 55.5408 23.0096 54.7416C21.3212 53.9424 19.8353 52.7719 18.6629 51.3176C17.5148 49.9069 16.6895 48.262 16.2449 46.4984C15.8003 44.7347 15.7473 42.8951 16.0895 41.1088C16.4317 39.3224 17.1609 37.6327 18.2258 36.1582C19.2908 34.6838 20.6656 33.4604 22.2538 32.574C23.842 31.6875 25.605 31.1596 27.419 31.0272C29.233 30.8948 31.0539 31.1612 32.754 31.8076C34.4541 32.4541 35.992 33.4649 37.2597 34.7692C38.5274 36.0734 39.4942 37.6393 40.0921 39.3571C40.1281 39.454 40.1933 39.5373 40.2787 39.5956C40.3641 39.6538 40.4655 39.684 40.5688 39.6821H47.5891C49.1512 39.6355 50.6936 40.0405 52.0313 40.8483C53.3691 41.6562 54.4455 42.8327 55.1316 44.2368C55.8177 45.6409 56.0842 47.2131 55.8994 48.7649C55.7145 50.3167 55.0861 51.7823 54.0894 52.986L54.1761 53.0943Z" fill="#28334A"/>
<path d="M47.6758 42.9322H40.6555C39.8654 42.9258 39.0974 42.6713 38.4597 42.2048C37.8221 41.7382 37.3472 41.0831 37.102 40.3321C36.4733 38.5346 35.3015 36.977 33.7488 35.8746C32.1961 34.7721 30.3392 34.1795 28.435 34.1785C27.9051 34.1787 27.3761 34.2221 26.8533 34.3085C25.0611 34.6174 23.4021 35.4549 22.0894 36.7136C20.7767 37.9722 19.8702 39.5945 19.4863 41.3721C19.1917 42.7308 19.2042 44.1381 19.5228 45.4913C19.8414 46.8446 20.4582 48.1096 21.328 49.1941C22.1784 50.2624 23.2547 51.1292 24.4798 51.7323C25.7048 52.3355 27.0481 52.66 28.4133 52.6826H47.9141C48.6368 52.6804 49.35 52.5184 50.0027 52.208C50.6553 51.8976 51.2311 51.4466 51.6889 50.8874C52.1466 50.3282 52.4749 49.6746 52.6502 48.9735C52.8254 48.2724 52.8434 47.5412 52.7027 46.8323C52.4322 45.7081 51.787 44.7093 50.8734 44.0005C49.9597 43.2916 48.832 42.9149 47.6758 42.9322ZM27.8716 46.8323C27.1264 46.832 26.3977 46.6121 25.7767 46.2001C25.1557 45.788 24.6699 45.2021 24.38 44.5155C24.0901 43.8289 24.0089 43.0721 24.1467 42.3397C24.2844 41.6073 24.6349 40.9317 25.1545 40.3973C25.674 39.863 26.3394 39.4935 27.0677 39.3352C27.796 39.1769 28.5547 39.2367 29.2492 39.5072C29.9437 39.7776 30.543 40.2467 30.9724 40.8559C31.4018 41.465 31.6422 42.1872 31.6635 42.9322C31.675 43.4384 31.5856 43.9418 31.4004 44.4131C31.2153 44.8844 30.9382 45.3142 30.5852 45.6772C30.2322 46.0403 29.8105 46.3294 29.3446 46.5277C28.8787 46.726 28.378 46.8296 27.8716 46.8323Z" fill="#28334A"/>
</g>
<defs>
<clipPath id="clip0_1366_149">
<rect width="72" height="72" fill="white"/>
</clipPath>
</defs>
</svg>
